<svg width="80" height="80" viewBox="0 0 80 80" fill="none" xmlns="http://www.w3.org/2000/svg">
<g clip-path="url(#clip0_1706_5216)">
<rect width="80" height="80" rx="8" fill="white"/>
<circle cx="40" cy="86" r="66" fill="#FFE9E3"/>
<path d="M36.1445 65.5072C36.1774 65.2941 36.2431 64.8925 36.2842 64.4908C36.4156 63.3351 36.9576 62.9826 38.0746 62.9416C39.9883 62.8761 41.9101 63.1056 43.7745 63.6056C44.3905 63.7695 44.6451 64.1466 44.5876 64.7777C44.448 66.4253 44.2837 68.0646 44.1523 69.7122C44.062 70.7613 43.6185 71.4745 42.5015 71.6466C42.0662 71.7122 41.6391 71.8679 41.2038 71.9253C40.4893 72.0155 40.0786 71.6712 39.9965 70.9581C39.939 70.4745 39.9226 69.9827 39.8815 69.4908C39.7994 68.4908 39.5612 67.9826 38.4114 67.9089C38.1075 67.8925 37.7954 67.8187 37.4997 67.7285C36.5141 67.4171 36.1281 66.8351 36.1445 65.5154V65.5072Z" fill="#F08586"/>
<path d="M44.0209 65.0076C42.8957 65.1223 41.6473 64.8109 40.3825 64.6551C40.0868 64.6223 39.7912 64.6305 39.4955 64.6141C38.321 64.5568 37.1466 64.5977 35.9885 64.3354C35.5286 64.2289 35.1015 64.0404 34.9372 63.6141C34.2802 61.942 32.8675 61.0157 31.5042 60.0239C29.6726 58.7043 29.0484 56.9174 29.3359 54.7042C29.533 53.1386 29.9847 51.5977 29.9683 50.0075C29.9683 49.8681 29.993 49.7124 30.1079 49.655C30.7814 49.2944 31.0607 48.5894 31.5124 48.0485C32.6294 46.7288 34.0092 45.8271 35.6107 45.2779C38.5592 44.2697 41.557 43.491 44.6533 43.073C45.8196 42.9173 46.9941 42.7533 48.1685 42.8189C50.2136 42.9255 52.2587 43.0812 54.1312 44.0484C54.353 44.1632 54.5583 44.2861 54.7719 44.4173C54.9936 44.5566 55.1415 44.7779 55.4125 44.3845C55.6096 44.0976 55.9874 44.2861 56.1927 44.5648C56.5377 45.0238 56.743 45.5648 56.7348 46.114C56.7184 47.7944 57.3508 49.1468 58.5088 50.3763C60.0036 51.9665 59.7654 53.7944 58.9113 55.6223C58.2542 57.0239 57.1537 57.9993 55.9135 58.86C54.7144 59.6879 53.4331 60.401 52.3408 61.3764C51.6345 62.0076 50.961 62.6797 50.2711 63.3354C49.3184 64.2535 48.1028 64.565 46.8544 64.8272C45.9592 65.0158 45.0722 65.024 44.0045 65.0158L44.0209 65.0076Z" fill="#F7B3B3"/>
<path d="M55.8147 46.8354C54.2542 46.8026 52.7101 46.5977 51.1661 46.3518C49.1621 46.0321 47.1417 46.0321 45.1294 45.9501C42.3124 45.8354 39.5281 46.196 36.8096 46.9337C34.9452 47.4419 33.2697 48.3927 31.66 49.4583C31.1672 49.7862 30.6908 50.1305 30.1816 50.4337C29.2864 50.9665 28.4404 50.737 27.9148 49.8518C27.3645 48.9337 27.2578 47.9501 27.4713 46.9255C27.6027 46.3108 27.4467 45.7944 26.9949 45.3599C26.3543 44.7452 25.5412 44.4173 24.7363 44.0894C22.6831 43.2616 20.6216 42.4665 18.4615 41.9501C18.1576 41.8763 18.0098 41.7042 17.9441 41.4337C17.8866 41.1796 18.1166 41.1468 18.2562 41.0566C23.6768 37.532 29.196 34.1795 34.8467 31.032C36.8342 29.9254 38.8136 28.7861 40.8751 27.8107C41.7949 27.3762 42.6902 27.3188 43.6839 27.5648C47.347 28.45 51.0429 29.2205 54.6731 30.2287C58.6236 31.3189 62.5412 32.5238 66.4178 33.8599C67.042 34.073 67.6415 34.3353 68.2082 34.6714C69.1199 35.2041 69.2349 35.8681 68.6025 36.696C68.2575 37.1468 67.8222 37.491 67.3952 37.8435C65.9989 38.9665 64.6109 40.0894 63.2065 41.1878C62.8205 41.4911 62.3687 41.7042 61.9417 41.9501C60.874 42.5648 59.8063 43.1796 58.7303 43.778C58.5168 43.9009 58.4265 44.0649 58.3772 44.2698C58.2375 44.8272 58.0569 45.3681 57.8351 45.9009C57.5641 46.5813 57.0795 46.9009 56.3403 46.8518C56.1596 46.8354 55.979 46.8518 55.7983 46.8518L55.8147 46.8354Z" fill="#9E718A"/>
<path d="M18.8474 47.3435C18.8474 50.2124 18.215 52.9829 17.3937 55.7124C17.0077 56.9747 16.5395 58.2206 16.3589 59.5403C16.17 60.8764 16.3014 62.2206 16.4246 63.5485C16.556 64.9829 16.7038 66.4174 16.4821 67.8518C16.3506 68.6879 15.9564 69.1059 15.1105 69.2125C14.4945 69.2862 13.8703 69.3108 13.2461 69.3108C12.5233 69.3108 12.162 68.9912 12.0306 68.2862C11.8006 67.0321 11.9402 65.7698 12.0798 64.5239C12.2523 62.9583 12.2852 61.4009 12.162 59.8272C11.9813 57.3927 12.2112 55.0239 13.3364 52.8025C14.2399 51.0156 15.0776 49.2123 15.7593 47.3353C16.2685 45.9172 16.4903 44.4582 16.6627 42.9828C16.7202 42.4992 16.8927 42.4746 17.3609 42.6221C18.56 43.0074 18.5435 44.0648 18.7242 44.9992C18.8721 45.7697 18.8803 46.5566 18.8556 47.3517L18.8474 47.3435Z" fill="#FFDC7D"/>
<path d="M16.121 42.606C16.0388 43.1306 15.9649 43.6551 15.8746 44.1797C15.6692 45.3191 15.1436 46.3519 14.7576 47.4257C14.1252 49.188 13.2217 50.8191 12.3676 52.4749C11.4477 54.2618 11.2506 56.1388 11.3984 58.0815C11.5463 59.9831 11.6284 61.8766 11.4477 63.7782C11.3492 64.8356 11.2999 65.9094 11.2506 66.975C11.2177 67.6717 11.4477 67.852 12.1294 67.9176C12.7536 67.9832 13.3531 67.8766 13.9527 67.7946C15.1025 67.6471 15.6035 66.8274 15.4886 65.5897C15.3325 63.7864 14.9218 62.0077 14.9301 60.188C14.9465 57.9175 15.3654 55.729 16.162 53.606C16.7041 52.1634 17.0983 50.6798 17.3119 49.1388C17.5254 47.6388 17.5336 46.1634 17.3201 44.6633C17.2462 44.1142 17.0408 43.524 17.2954 42.9502" stroke="#4C4C4C" stroke-linecap="round" stroke-linejoin="round"/>
<path d="M41.154 63.0897C41.3593 63.434 41.7371 63.5815 42.0492 63.7618C42.6323 64.0897 42.7145 64.5979 42.6734 65.1553C42.6159 65.9094 42.427 66.6389 42.2463 67.3684C42.0492 68.1635 41.8931 68.9668 41.7535 69.7783C41.7125 70.016 41.6632 70.1717 41.4496 70.3274C40.9404 70.7045 40.3409 70.6963 39.766 70.8028C39.2239 70.9012 39.035 70.6881 38.9775 70.1225C38.8789 69.1225 38.8872 68.1225 38.8789 67.1225C38.8789 66.5815 38.805 66.5159 38.2876 66.3848C37.8523 66.27 37.4006 66.2536 36.9571 66.1963C36.4068 66.1225 35.8976 65.9995 35.4705 65.5651C34.9202 64.9995 34.5178 64.3438 34.2057 63.6389C33.9347 63.0323 33.5322 62.6798 32.8752 62.4913C32.0046 62.2454 31.1176 62.0487 30.3045 61.6307C29.4174 61.1716 28.7029 60.5651 28.3333 59.6143C27.7338 58.0405 27.8159 56.4503 28.5058 54.9585C28.9493 53.9913 28.8507 53.0896 28.6618 52.147C28.6126 51.8765 28.4729 51.4995 28.1362 51.524L26.855 51.3109C26.9453 51.0158 27.0931 50.7781 27.3395 50.565C29.0396 49.0732 30.8876 47.7863 32.9162 46.7945C34.9531 45.8027 37.0721 45.024 39.3224 44.6879C40.6694 44.483 42.041 44.3601 43.4126 44.3273C44.4474 44.3027 45.4823 44.2207 46.5171 44.2453C48.0037 44.2781 49.4903 44.3765 50.9522 44.6633C51.7078 44.8109 52.4716 44.8847 53.1779 45.2453C53.3997 45.3601 53.7282 45.2125 54.0075 45.3027C54.4099 45.442 54.8288 45.5322 55.2394 45.6552C55.6994 45.7863 55.9375 45.6388 55.9786 45.1633C56.0361 44.4502 56.1347 43.7453 56.2743 43.0486C56.3482 42.6879 56.1511 42.4092 55.8718 42.2699C54.4674 41.5896 53.2272 40.6223 51.7406 40.0813C50.6237 39.6715 49.4903 39.401 48.3322 39.1633C46.8539 38.86 45.3509 38.7371 43.8479 38.7289C42.5256 38.7289 41.2115 38.9256 39.9056 39.1469C36.7682 39.6715 33.8854 40.8109 31.134 42.3519C29.5324 43.2535 28.0459 44.3109 26.6414 45.4912C26.4607 45.647 26.4607 45.8601 26.3047 45.9912" stroke="#4C4C4C" stroke-linecap="round" stroke-linejoin="round"/>
<path d="M66.8285 36.0648C66.4425 36.1386 66.2783 35.7451 65.9497 35.655C64.9313 35.3763 63.9457 34.9992 62.9355 34.6959C60.0035 33.8025 57.0796 32.909 54.1229 32.1221C50.9855 31.2943 47.8891 30.3271 44.7517 29.4992C43.1584 29.0729 41.5897 28.5647 40.0292 28.0565C39.7335 27.9582 39.4379 27.868 39.1422 28.0156C38.1402 28.4992 37.1053 28.9418 36.1444 29.4992C33.9679 30.7451 31.8408 32.073 29.6396 33.2779C27.1593 34.6386 24.6954 36.032 22.2479 37.45C19.9893 38.7615 17.7717 40.1304 15.4474 41.3271C15.316 41.3927 15.1682 41.4993 15.1107 41.6222L15.0039 41.9091C15.4721 42.2697 15.9648 42.5566 16.5808 42.5484C16.6301 42.5484 16.6876 42.532 16.7287 42.5484C17.6157 43.0648 18.6587 42.9993 19.595 43.3681C20.5477 43.7452 21.5497 43.9583 22.5025 44.3599C23.4634 44.7698 24.4654 45.0976 25.4017 45.5567C26.0177 45.8599 26.7651 46.0812 26.9375 46.9173C27.0772 47.6222 27.1511 48.2944 26.8143 48.9911C26.6419 49.3436 26.3133 49.4173 26.0998 49.6714" stroke="#4C4C4C" stroke-linecap="round" stroke-linejoin="round"/>
<path d="M53.2275 45.3026C53.0468 46.2534 53.515 46.9911 54.0242 47.7043C54.5416 48.4256 55.3465 48.8108 56.0446 49.3272C56.8824 49.942 57.3998 50.7371 57.3587 51.7863C57.3176 52.7781 57.0548 53.7371 56.521 54.5814C55.7736 55.7781 54.7387 56.6306 53.3754 57.0404C52.283 57.3683 51.4617 58.0404 50.7636 58.9093C50.0983 59.7371 49.4249 60.5568 48.5461 61.1634C47.7248 61.7289 46.7967 62.0322 45.7865 62.0568C44.8173 62.0814 43.84 61.9666 42.879 62.1552C42.2384 62.2781 41.5896 62.3683 41.1543 62.9421C40.9982 63.147 40.8093 63.0896 40.6122 63.0404C39.9387 62.8847 39.2899 62.647 38.5918 62.5814C38.37 62.565 38.1647 62.5322 37.9512 62.5896" stroke="#4C4C4C" stroke-linecap="round" stroke-linejoin="round"/>
<path d="M66.5821 36.114C66.3439 36.696 65.8347 37.0402 65.3419 37.3271C63.8472 38.2124 62.4838 39.2862 61.0136 40.1878C59.987 40.819 58.9768 41.4747 58.0569 42.2534C57.9337 42.3518 57.7448 42.3927 57.7613 42.5977" stroke="#4C4C4C" stroke-linecap="round" stroke-linejoin="round"/>
<path d="M42.5344 54.7372C42.3948 55.8274 42.1238 56.8683 41.5571 57.8356C40.8425 59.0733 39.783 59.6143 38.395 59.5979" stroke="#4C4C4C" stroke-linecap="round" stroke-linejoin="round"/>
<path d="M50.1472 49.1384C50.2868 49.5647 50.4346 49.9909 50.566 50.4171C50.8124 51.2368 50.566 52.0319 50.4182 52.827C50.295 53.5155 50.1307 54.204 49.9829 54.8926" stroke="#4C4C4C" stroke-linecap="round" stroke-linejoin="round"/>
<path d="M35.7834 54.4419C35.2413 54.3436 34.6993 54.237 34.1572 54.1468C33.5577 54.0567 32.9663 54.0239 32.3832 54.2452C31.7343 54.4911 31.2169 54.9009 30.9541 55.5731" stroke="#4C4C4C" stroke-linecap="round" stroke-linejoin="round"/>
<path d="M45.3927 51.6959C45.0724 51.7451 44.8178 51.573 44.555 51.4418C43.4791 50.9008 42.4114 50.3353 41.3519 49.7779C41.0234 49.6057 40.6538 49.6877 40.317 49.5893C39.3889 49.3107 38.4527 49.2943 37.5081 49.5238C37.2043 49.5975 36.9743 49.7697 36.7197 49.9254C36.7033 49.9336 36.6868 49.9418 36.6704 49.95C36.6786 49.95 36.6868 49.9664 36.6951 49.9746" stroke="#4C4C4C" stroke-linecap="round" stroke-linejoin="round"/>
<path d="M26.1248 46.0895C25.4924 47.0157 25.5088 48.0403 25.6813 49.0895C25.7141 49.3026 25.7798 49.4911 26.0262 49.5321" stroke="#4C4C4C" stroke-linecap="round" stroke-linejoin="round"/>
<path d="M41.3021 49.6796C41.4499 48.7697 41.491 47.8763 41.0146 47.0238" stroke="#4C4C4C" stroke-linecap="round" stroke-linejoin="round"/>
<path d="M61.0032 29.6253C60.9912 28.2437 60.5764 27.0107 59.8825 25.811C59.1187 24.491 57.9592 24.1069 56.5982 24.0069C56.3998 23.9927 56.1994 24.0048 56 24.0048" stroke="#4C4C4C" stroke-linecap="round" stroke-linejoin="round"/>
<path d="M63.5647 29.6252C63.5767 28.2436 63.9915 27.0105 64.6854 25.8108C65.4491 24.4909 66.6087 24.1068 67.9696 24.0067C68.1681 23.9926 68.3685 24.0047 68.5679 24.0047" stroke="#4C4C4C" stroke-linecap="round" stroke-linejoin="round"/>
<path d="M61.0032 16C60.9912 17.3816 60.5764 18.6147 59.8825 19.8144C59.1187 21.1344 57.9592 21.5184 56.5982 21.6185C56.3998 21.6327 56.1994 21.6205 56 21.6205" stroke="#4C4C4C" stroke-linecap="round" stroke-linejoin="round"/>
<path d="M63.5647 16C63.5767 17.3816 63.9915 18.6147 64.6854 19.8144C65.4491 21.1344 66.6087 21.5184 67.9696 21.6185C68.1681 21.6327 68.3685 21.6205 68.5679 21.6205" stroke="#4C4C4C" stroke-linecap="round" stroke-linejoin="round"/>
</g>
<defs>
<clipPath id="clip0_1706_5216">
<rect width="80" height="80" rx="8" fill="white"/>
</clipPath>
</defs>
</svg>
