<svg width="80" height="80" viewBox="0 0 80 80" fill="none" xmlns="http://www.w3.org/2000/svg">
<g clip-path="url(#clip0_1659_4507)">
<rect width="80" height="80" rx="8" fill="white"/>
<circle cx="40" cy="86" r="66" fill="#FFEAB0"/>
<g clip-path="url(#clip1_1659_4507)">
<path d="M71.8623 44.8323C72.3374 44.5395 72.7192 44.1215 73.2104 43.8387C73.6202 43.6021 74.0303 43.5259 74.423 43.7331C74.8727 43.9685 74.9781 44.4253 74.9427 44.91C74.8886 45.6922 74.6485 46.4257 74.3511 47.1496C73.6931 48.763 72.8674 50.2868 71.9846 51.7826C71.9318 51.8726 71.9059 51.9794 71.8692 52.0795C71.8537 52.0923 71.8329 52.1016 71.8228 52.1177C71.8161 52.1284 71.8201 52.1458 71.8231 52.1589C71.8356 52.1331 71.8514 52.102 71.8638 52.0762C72.2053 52.0616 72.4624 51.8602 72.7426 51.6994C73.391 51.3207 74.0183 50.9103 74.6844 50.5688C75.0499 50.3791 75.4271 50.26 75.8187 50.1835C76.7765 49.99 77.2146 50.4938 76.919 51.4051C76.6718 52.1678 76.1424 52.7435 75.6496 53.3383C74.0869 55.2153 72.298 56.8697 70.5464 58.5658C69.9118 59.1841 69.3159 59.8301 68.769 60.529C67.7386 61.8435 67.4504 63.3853 67.4275 64.9806C67.3975 67.0036 67.5132 69.0205 67.7702 71.0323C67.994 72.7998 68.2449 74.5656 68.4011 76.3395C68.4629 77.0263 68.5486 77.7167 68.6692 78.3991C68.9 79.7388 68.5082 80.4523 67.2653 81.0048C65.8679 81.6249 64.448 82.1677 62.9478 82.4817C61.7105 82.7395 60.4603 82.8217 59.207 82.9504C58.6768 83.0039 58.1405 83.0314 57.6086 83.0578C56.7678 83.1006 56.5444 82.8497 56.4934 81.9908C56.4531 81.3174 56.5742 80.6663 56.6369 80.0012C57.0305 75.9057 57.4207 71.8156 57.7719 67.7162C57.9796 65.3268 58.158 62.9305 58.0128 60.5264C57.8692 58.1493 57.4748 55.821 56.6954 53.5585C56.4289 52.7815 56.2509 51.9702 56.1876 51.1372C56.1295 50.367 55.9243 49.6171 56.0698 48.8321C56.139 48.4541 56.2618 48.1096 56.4851 47.8016C56.7998 47.3716 57.2888 47.2588 57.7576 47.5172C58.0157 47.6593 58.2173 47.8557 58.4028 48.1015C59.3439 49.3507 59.9238 50.7886 60.6277 52.1659C60.747 52.4041 60.8775 52.6306 60.9971 52.8504C61.3155 52.8549 61.3667 52.6186 61.4582 52.4371C62.4411 50.4784 63.4768 48.5488 64.4704 46.5967C65.3558 44.853 66.412 43.2118 67.3393 41.4905C67.6941 40.8359 68.1812 40.2562 68.682 39.6962C68.8286 39.5341 68.9822 39.4025 69.2028 39.3424C69.7731 39.1834 70.1836 39.4278 70.218 40.0155C70.2414 40.4362 70.2494 40.8697 70.1295 41.2868C70.0655 41.5078 69.972 41.7401 70.0875 42.0617C70.381 41.7191 70.6364 41.4311 70.8811 41.1364C71.0358 40.9495 71.2075 40.777 71.4259 40.6671C72.1226 40.3185 72.6854 40.6653 72.6565 41.4371C72.6279 42.2502 72.3559 43.0048 72.0752 43.7614C71.9513 44.1016 71.6908 44.4274 71.8428 44.8276C71.827 44.8588 71.8058 44.8866 71.79 44.9177C71.8112 44.8899 71.8378 44.8655 71.8589 44.8377L71.8623 44.8323Z" fill="#F7BCAA"/>
<path d="M14.4669 72.1917C13.3588 72.1723 12.3558 72.17 11.3579 72.1298C10.3969 72.0903 9.4343 72.0236 8.47403 71.9473C8.09965 71.919 7.72834 71.8443 7.39172 71.6608C6.83258 71.3499 6.7881 70.7782 7.35014 70.4836C7.96592 70.1629 8.60855 69.8589 9.32579 69.8584C10.2408 69.8582 11.082 69.3984 12.1003 69.5667C11.8497 69.258 11.6204 69.2605 11.421 69.2331C10.2677 69.0776 9.18514 68.6904 8.10967 68.274C7.59509 68.0765 7.15614 67.7883 6.83991 67.3343C6.53742 66.9 6.63893 66.423 7.12332 66.2105C7.46528 66.0583 7.83806 65.9998 8.22152 66.0076C9.37962 66.0246 10.5147 66.221 11.6536 66.3936C11.8778 66.429 12.1127 66.5901 12.4175 66.3366C11.7063 65.9645 11.0408 65.591 10.346 65.2702C9.89357 65.0629 9.53994 64.7459 9.1964 64.4127C8.92868 64.1491 8.8054 63.8339 8.97329 63.4653C9.13882 63.1064 9.45795 62.9549 9.82394 62.9667C10.4126 62.9867 10.9965 62.9666 11.5884 63.0408C13.3749 63.2703 15.1065 63.7599 16.869 64.1048C18.2374 64.3757 19.592 64.6864 21.0038 64.567C21.1388 64.5542 21.2714 64.5511 21.4044 64.5296C21.4786 64.5125 21.5478 64.4736 21.6607 64.4247C21.3585 63.6329 20.8262 62.9997 20.3708 62.3212C19.8226 61.4991 19.2303 60.7056 18.6666 59.8963C18.4392 59.5684 18.2152 59.2352 18.1525 58.8235C18.0804 58.3315 18.2378 58.057 18.7046 57.9081C19.0765 57.7856 19.4364 57.8309 19.808 57.9468C21.0114 58.3199 22.0373 58.9997 22.9761 59.8004C24.441 61.0479 25.9402 62.2646 27.1302 63.7955C27.7855 64.6433 28.4036 65.5087 28.8906 66.464C29.9317 68.5058 31.4789 70.1101 33.3235 71.4487C35.554 73.0649 37.7835 74.6768 40.0732 76.2106C42.3843 77.7578 44.6753 79.3372 46.8503 81.0716C47.667 81.7217 48.4716 82.3793 49.2628 83.0582C49.9278 83.6288 49.9169 84.1399 49.1694 84.5872C47.7237 85.4568 46.2281 86.2095 44.6065 86.7347C43.4987 87.0956 42.367 87.2329 41.2443 87.4689C40.3496 87.657 39.4339 87.6345 38.5264 87.5276C38.0916 87.4767 37.7254 87.3045 37.3936 86.9824C36.5318 86.1365 35.725 85.2504 34.9582 84.3184C32.5208 81.3661 29.9593 78.5341 27.2032 75.8753C26.244 74.9464 25.2005 74.1103 24.1025 73.3372C22.4555 72.1774 20.7551 72.1618 18.9298 72.9402C17.7739 73.4313 16.6566 74.0098 15.4685 74.4212C14.5233 74.7492 13.5411 74.8566 12.5398 74.8218C12.2248 74.812 11.9277 74.7201 11.8384 74.3925C11.743 74.0387 11.9524 73.7705 12.2471 73.5926C12.7517 73.2883 13.2647 73.0005 13.7757 72.7039C13.9954 72.5799 14.245 72.4857 14.4672 72.1733L14.4669 72.1917Z" fill="#F7BCAA"/>
<path d="M23.7465 22.1095C24.6188 22.5819 25.5653 22.6385 26.5373 22.6664C28.3284 22.7161 30.0015 23.1916 31.3573 24.4047C32.6265 25.5416 33.2642 26.9707 33.2308 28.7196C33.1962 30.5833 32.6037 32.1816 31.2138 33.4324C29.9721 34.5481 28.5299 34.8945 26.9069 34.357C25.1241 33.7647 23.7951 32.6279 22.8674 31.0182C22.6297 30.6056 22.4326 30.17 22.2148 29.7437C22.3143 29.597 22.2553 29.5007 22.1076 29.4385C21.6178 28.2318 21.0819 27.045 20.4913 25.8799C21.1766 25.621 21.5703 25.0354 22.0419 24.528C22.7188 23.7945 23.1286 22.8798 23.7465 22.1095Z" fill="#E76943"/>
<path d="M66.3868 33.412C66.2553 34.7758 66.1714 36.1468 65.6663 37.4455C65.0227 39.1014 64.1279 40.5449 62.4982 41.434C59.7737 42.9192 56.466 41.5972 55.6588 38.6356C54.9255 35.9546 55.8805 33.755 57.7888 31.8807C58.6437 31.042 59.7371 30.579 60.8218 30.1181C61.7787 31.3361 63.0654 32.1299 64.4126 32.8272C65.0238 33.1445 65.68 33.378 66.3858 33.4077L66.3868 33.412Z" fill="#E76943"/>
<path d="M48.0428 14.0683C50.386 13.5416 52.7978 14.4287 54.1396 16.3186C55.5534 18.3018 55.6518 20.9413 54.3908 22.9504C54.263 23.154 54.1245 23.3509 53.9283 23.497C51.811 22.9498 50.2994 21.6397 49.186 19.8025C48.1724 18.1393 47.5078 16.3544 47.1247 14.4541L47.1294 14.4347C47.4495 14.3471 47.8098 14.374 48.0438 14.0726L48.0428 14.0683Z" fill="#A694BD"/>
<path d="M16.3207 42.2695C18.837 41.9549 21.6515 43.4914 22.5133 46.3305C22.4034 46.7316 22.4901 47.0873 22.7557 47.4018C22.9187 48.7067 22.743 49.9386 22.0043 51.062C21.082 50.9907 20.2192 50.7589 19.4326 50.2393C18.1416 49.387 17.268 48.1909 16.5392 46.8653C15.804 45.5319 15.5585 44.049 15.2311 42.5895C15.2741 42.5567 15.3138 42.5292 15.3642 42.5084C15.6853 42.4252 16.003 42.3473 16.3241 42.2641L16.3207 42.2695Z" fill="#A694BD"/>
<path d="M47.1195 14.4508C47.5026 16.3511 48.1715 18.135 49.1807 19.7992C50.2986 21.6354 51.8057 22.9464 53.923 23.4937C53.2136 24.5645 52.205 25.1958 50.9817 25.5146C50.8958 25.1816 50.5745 25.1045 50.3295 24.9594C49.3935 24.41 48.5987 23.6953 47.9346 22.8496C46.3783 20.8671 45.3838 18.6084 44.7335 16.1878C45.3216 15.3283 46.1427 14.7815 47.1195 14.4508Z" fill="#CABCDB"/>
<path d="M19.524 53.4257C16.9506 54.789 14.1879 53.8958 12.6494 52.3491C10.3987 50.0869 10.3726 46.2852 12.6055 44.1436C12.7035 44.1302 12.7982 44.1221 12.8963 44.1086C13.1365 45.0704 13.2629 46.0768 13.6412 46.9793C14.8279 49.8122 16.5625 52.1889 19.525 53.4301L19.524 53.4257Z" fill="#A694BD"/>
<path d="M19.5238 53.4257C16.5569 52.1855 14.8224 49.8088 13.64 46.9749C13.2617 46.0724 13.1353 45.066 12.8951 44.1042C12.8898 44.0413 12.8879 43.973 12.8825 43.9101C13.5302 43.2292 14.2882 42.7474 15.2366 42.5928C15.564 44.0523 15.8084 45.5309 16.5446 46.8686C17.2734 48.1942 18.146 49.3859 19.438 50.2426C20.2246 50.7622 21.084 50.9993 22.0097 51.0653C21.4685 52.1478 20.68 52.9757 19.5282 53.4247L19.5238 53.4257Z" fill="#CABCDB"/>
<path d="M63.0959 28.535C64.3036 27.2118 65.5079 25.8939 66.7156 24.5707C67.2117 24.0301 67.7899 23.686 68.5505 23.6343C69.7453 23.5512 70.6817 24.4212 70.6369 25.6228C70.6107 26.3666 70.3006 27.0154 69.93 27.6416C69.4369 28.4747 68.7866 29.1837 68.166 29.9225C67.8914 30.247 67.606 30.5648 67.326 30.886C67.1454 30.8406 66.9635 30.8092 66.7852 30.7541C65.3666 30.3253 64.0949 29.6564 63.0959 28.535Z" fill="#E76943"/>
<path d="M44.7378 16.1868C45.3924 18.6064 46.387 20.865 47.9389 22.8485C48.6039 23.6986 49.3978 24.409 50.3338 24.9583C50.5778 25.0991 50.8957 25.1816 50.986 25.5135C50.7852 25.5598 50.5854 25.6105 50.3899 25.6602C50.2211 25.5662 50.0625 25.6166 49.9097 25.7114C47.168 26.1054 44.1705 24.1346 43.5426 21.1728C43.1491 19.307 43.4937 17.6513 44.7378 16.1868Z" fill="#A694BD"/>
<path d="M18.8743 24.1314C17.6352 23.4045 16.5383 22.5166 15.7729 21.291C14.9302 19.9504 15.47 18.662 16.9898 18.2336C17.9403 17.9686 18.8018 18.1548 19.6129 18.6413C20.3499 19.0853 20.9988 19.6458 21.5479 20.3119C21.0053 21.3488 20.3963 22.337 19.6434 23.2392C19.3909 23.5403 18.9771 23.6999 18.8786 24.1304L18.8743 24.1314Z" fill="#E76943"/>
<path d="M63.096 28.5351C64.0949 29.6564 65.3666 30.3254 66.7852 30.7542C66.9635 30.8093 67.1455 30.8407 67.3261 30.8861C66.8297 31.6649 66.5634 32.5236 66.3832 33.4174C65.6775 33.3878 65.0256 33.1532 64.41 32.837C63.0585 32.1407 61.7761 31.3459 60.8192 30.1278C61.6289 29.6708 62.3782 29.1314 63.0926 28.5405L63.096 28.5351Z" fill="#FFBA7D"/>
<path d="M18.8742 24.1314C18.9737 23.7053 19.3909 23.5403 19.639 23.2402C20.3919 22.338 21.0053 21.3489 21.5435 20.3129C22.2753 20.9139 23.0071 21.5149 23.7423 22.1106C23.1244 22.8808 22.7102 23.7965 22.0376 24.529C21.5714 25.0397 21.1723 25.6221 20.4871 25.8809C19.944 25.3005 19.3599 24.7617 18.8732 24.1271L18.8742 24.1314Z" fill="#FFBA7D"/>
<path d="M22.757 47.4061C22.4914 47.0916 22.4047 46.7359 22.5146 46.3348C22.7497 46.6563 22.8319 47.0131 22.757 47.4061Z" fill="#A694BD"/>
<path d="M48.0429 14.0683C47.8089 14.3697 47.4433 14.3395 47.1286 14.4304C47.3532 14.1082 47.7282 14.1592 48.0429 14.0683Z" fill="#A694BD"/>
<path d="M16.3206 42.2695C15.9996 42.3527 15.6818 42.4306 15.3607 42.5138C15.6239 42.2194 15.951 42.1623 16.3206 42.2695Z" fill="#A694BD"/>
<path d="M22.1077 29.4385C22.2553 29.5006 22.3133 29.5926 22.2148 29.7436C22.0759 29.6795 22.0212 29.5821 22.1077 29.4385Z" fill="#F7BCAA"/>
<path d="M49.9094 25.7114C50.0623 25.6166 50.2164 25.5673 50.3896 25.6602C50.2348 25.7463 50.0776 25.7826 49.9094 25.7114Z" fill="#CABCDB"/>
<path d="M12.8783 43.9111C12.8836 43.9741 12.89 44.0413 12.8909 44.1053C12.7928 44.1187 12.6981 44.1268 12.6001 44.1403C12.6418 44.0023 12.7537 43.949 12.8783 43.9111Z" fill="#A694BD"/>
<path d="M71.8623 44.8323C71.8411 44.8601 71.8146 44.8845 71.7934 44.9123C71.8092 44.8812 71.8304 44.8534 71.8462 44.8223L71.8623 44.8323Z" fill="white"/>
<path d="M71.8717 52.0698C71.8593 52.0956 71.8434 52.1267 71.831 52.1525C71.828 52.1394 71.824 52.122 71.8307 52.1113C71.8408 52.0953 71.8616 52.0859 71.8771 52.0731L71.8717 52.0698Z" fill="white"/>
<path d="M31.6969 28.9679C30.876 26.2064 28.8108 24.5291 25.8977 24.6786C23.8071 24.7851 22.4536 23.9609 21.2562 22.4776C20.6075 21.6787 19.9964 20.8437 19.2352 20.1349C18.6222 19.5706 17.8928 19.299 17.0768 19.4093C15.5471 19.6155 14.6182 21.1906 15.7151 22.7567C16.2346 23.4937 16.9117 24.1165 17.6909 24.6241C19.0467 25.4981 19.8209 26.7217 20.0743 28.3586C20.3497 30.1508 20.7651 31.952 22.2505 33.2085C24.0546 34.7306 26.0646 35.4309 28.4631 34.6852C30.5271 34.0442 32.3303 31.7543 31.7562 29.0458" stroke="#4C4C4C" stroke-linecap="round" stroke-linejoin="round"/>
<path d="M66.8934 80.371C66.4333 76.0233 66.3214 71.6504 66.0648 67.2879C65.9586 65.5116 65.985 63.7323 65.9615 61.9553C65.9487 60.8036 66.3915 59.8125 67.1643 58.9562C68.8274 57.1155 70.8957 55.7358 72.7598 54.1283C73.8106 53.2215 74.844 52.3188 75.5304 51.0883C75.8264 50.5572 76.1889 49.8963 75.7287 49.4159C75.2141 48.8794 74.6045 49.4461 74.1532 49.7426C73.4974 50.1688 72.801 50.5585 72.2189 51.1052C71.826 51.4753 71.3229 51.6463 70.7852 51.6878" stroke="#4C4C4C" stroke-linecap="round" stroke-linejoin="round"/>
<path d="M55.6915 83.1196C55.5545 82.7846 55.6857 82.4565 55.7149 82.1244C56.2258 75.9858 56.7562 69.8518 57.253 63.7119C57.4921 60.7609 57.5582 57.8177 56.8053 54.9122C56.5788 54.0297 56.3338 53.1469 56.2053 52.251C56.0662 51.2887 55.8129 50.33 55.935 49.3441C55.9803 48.9625 55.9471 48.5395 56.4607 48.3936C56.9742 48.2476 57.1602 48.6354 57.4101 48.9214C58.2118 49.8454 58.6456 50.9688 59.1376 52.065C59.4502 52.7626 59.5835 53.5796 60.2842 54.0457C60.8937 53.5981 61.1236 52.9403 61.4206 52.354C62.7847 49.6751 64.3165 47.0857 65.6439 44.3877C66.2286 43.1944 66.8898 42.0339 67.6829 40.9666C67.964 40.5902 68.1853 39.8152 68.9847 40.2311C69.4669 41.325 69.0722 42.644 68.68 43.7746C68.1322 45.3672 67.5811 46.9651 67.0333 48.5577C67.922 46.4695 68.8467 44.3776 70.2898 42.6198C70.6703 42.1563 71.117 41.7004 71.699 41.5524C71.7907 41.5313 71.8921 41.5125 71.975 41.5529C72.0462 41.5823 72.0982 41.6482 72.1361 41.7128C72.4399 42.1926 72.3312 42.8179 72.1621 43.3609C71.917 44.1323 71.5563 44.8615 71.1957 45.5908C70.5105 46.9859 69.8209 48.3822 69.1346 49.773C69.9807 48.0383 71.0351 46.4296 72.3627 45.0283C72.6545 44.7182 72.9701 44.4117 73.3694 44.2692C73.7688 44.1267 74.2741 44.1843 74.5351 44.5182C74.8872 44.9685 74.6432 45.625 74.3791 46.1349C73.3603 48.0973 72.1746 49.9745 70.8453 51.7474" stroke="#4C4C4C" stroke-linecap="round" stroke-linejoin="round"/>
<path d="M35.8568 87.1993C35.8142 87.0946 35.7965 86.9978 35.7137 86.8978C33.278 83.8535 30.681 80.9472 28.0927 78.0389C26.6895 76.461 25.2272 74.9059 23.2775 73.9488C22.5411 73.5872 21.7504 73.2289 20.9292 73.4366C19.8568 73.7114 18.8332 74.1583 17.7823 74.506C16.2731 75.0007 14.8557 75.8133 13.2097 75.8539C12.8346 75.8625 12.4205 75.9809 12.1855 75.4807C12.318 74.9186 12.6998 74.5007 13.1722 74.2359L16.008 72.6151L15.2348 72.5322C12.9221 72.9923 10.5381 72.5845 8.2182 72.1757C7.89757 72.1213 7.53098 72.0272 7.40198 71.727C7.30012 71.4847 7.40783 71.1941 7.60241 71.021C7.79698 70.8478 8.0573 70.7603 8.31053 70.7019C10.6642 70.1407 13.3056 71.126 15.5984 70.3406C13.0884 70.3239 10.5878 69.5901 8.46821 68.2553C8.15678 68.0614 7.85543 67.8514 7.60082 67.5848C7.50286 67.4791 7.40597 67.3182 7.48968 67.2026C7.52431 67.1534 7.58243 67.1263 7.63718 67.1045C8.52632 66.7528 9.52638 67.0216 10.4448 67.2954C12.3475 67.8692 14.3419 68.4219 16.2945 68.0357C13.8172 67.6219 11.1753 67.1132 9.0638 65.7536C8.83728 65.6088 8.59676 65.3436 8.65143 65.0423C8.72197 64.6503 9.08335 64.5624 9.42958 64.5283C10.2406 64.4559 11.0261 64.6321 11.8097 64.7996C14.2004 65.3158 16.5377 66.1193 19.009 66.2275C19.009 66.2275 21.4569 66.5335 22.1435 65.4633C21.6134 64.6004 20.8848 63.8933 20.272 63.0907C19.5067 62.0851 18.6852 61.1153 18.1379 59.9585C17.9854 59.6363 17.7547 59.3138 18.0837 58.9859C18.4238 58.6462 18.7285 58.9105 19.0151 59.0964C19.9359 59.6996 20.8659 60.2824 21.7709 60.9168C24.4582 62.7988 26.3746 65.2664 27.7473 68.2076C28.3485 69.4985 29.1601 70.6447 30.2526 71.5933C32.6126 73.6515 35.1777 75.4426 37.7072 77.2785C40.1649 79.0623 42.6683 80.7851 45.2365 82.4105C46.1514 82.9876 47.1388 83.5205 47.7883 84.4428" stroke="#4C4C4C" stroke-linecap="round" stroke-linejoin="round"/>
<path d="M66.8724 23.5768C65.9084 23.9824 65.2244 24.6855 64.6773 25.5631C64.0754 26.5221 63.5892 27.5644 62.5652 28.2084C61.7148 28.7482 60.7512 28.9566 59.8168 29.2317C56.9438 30.0731 55.1689 31.9074 54.7622 34.8696C54.3184 38.129 56.8885 41.4172 60.572 40.7601C62.6297 40.3909 64.6771 38.402 64.9599 36.0595C65.0709 35.145 65.1086 34.252 64.9097 33.3494C64.6144 32.0291 65.4284 31.1724 66.1656 30.2418C67.0064 29.1818 68.1128 28.3768 68.8919 27.2486C70.0061 25.6399 69.4072 24.0598 68.0312 23.557C67.6643 23.4217 67.3134 23.4751 66.9564 23.562" stroke="#4C4C4C" stroke-linecap="round" stroke-linejoin="round"/>
<path d="M13.9554 43.1998C12.9419 43.6902 12.0133 44.2297 11.2345 45.1195C8.83823 47.8487 10.1155 52.3698 13.1299 53.7365C15.415 54.7719 18.7107 54.4471 20.4355 51.6575C21.9057 49.2794 21.6005 46.6006 19.5497 44.5672C18.0427 43.0773 16.1096 42.7305 14.0394 43.1851" stroke="#4C4C4C" stroke-linecap="round" stroke-linejoin="round"/>
<path d="M45.7708 14.2668C44.0355 15.0565 42.8342 16.3279 42.3792 18.1831C41.447 21.9767 44.6401 25.9323 49.0047 25.0585C53.2723 24.2025 55.028 19.1148 52.1684 15.8475C50.7318 14.204 48.8933 13.5696 46.7139 14.0493C46.4257 14.1157 46.1376 14.1822 45.8494 14.2487" stroke="#4C4C4C" stroke-linecap="round" stroke-linejoin="round"/>
</g>
</g>
<defs>
<clipPath id="clip0_1659_4507">
<rect width="80" height="80" rx="8" fill="white"/>
</clipPath>
<clipPath id="clip1_1659_4507">
<rect width="73" height="73" fill="white" transform="translate(-4.26904 23.1366) rotate(-12.9875)"/>
</clipPath>
</defs>
</svg>
