<svg width="80" height="80" viewBox="0 0 80 80" fill="none" xmlns="http://www.w3.org/2000/svg">
<g clip-path="url(#clip0_1659_4510)">
<rect width="80" height="80" rx="8" fill="white"/>
<circle cx="40" cy="86" r="66" fill="#FFE3E3"/>
<path d="M61.841 46.3991C61.6335 47.3399 61.1414 48.1698 60.765 49.0431C60.2487 50.2348 59.6504 51.3928 59.1099 52.5749C58.6563 53.5688 58.1931 54.5676 57.9084 55.629C57.59 56.8256 57.9567 57.3033 59.2016 57.3515C59.6648 57.3708 60.1184 57.3081 60.572 57.1923C61.6191 56.9269 62.6806 56.8111 63.7325 57.1923C65.3828 57.7906 66.261 59.074 66.1548 60.6855C66.1259 61.1053 65.9956 61.4816 65.7302 61.8001C64.9533 62.7409 63.9304 63.344 62.7964 63.7252C61.6914 64.0967 60.6299 63.8458 59.631 63.2813C58.8204 62.8229 58.0725 62.2825 57.4018 61.6408C56.6201 60.893 56.7311 61.1342 56.2196 61.8049C55.3221 62.987 54.7093 64.3331 53.9758 65.6117C53.585 66.292 53.1507 66.9337 52.6537 67.5368C52.1422 68.1544 51.5149 68.3667 50.7188 68.1641C48.7307 67.6623 46.7524 67.1219 44.856 66.3258C44.4314 66.1473 44.0164 65.9398 43.6159 65.713C42.8873 65.2933 42.5689 64.6516 42.6991 63.8168C42.9549 62.1667 43.6015 60.7145 44.9091 59.6192C45.464 59.1512 45.9755 58.6446 46.4918 58.138C47.2494 57.3949 47.6644 56.5265 47.2542 55.4795C46.8248 54.3939 45.879 53.9645 44.7885 53.839C43.254 53.6653 42.1587 54.3263 41.3095 56.1357C40.8655 57.0765 40.7111 58.1235 40.4313 59.1222C40.2382 59.817 40.0742 60.5263 39.8184 61.1969C39.2732 62.6251 38.8775 63.2765 36.7785 63.373C36.0016 63.4067 35.22 63.3923 34.4479 63.2234C32.7301 62.847 31.0027 62.5045 29.3042 62.0268C29.169 61.9882 29.0436 61.911 28.9133 61.8531C29.198 61.6071 29.4923 61.3755 29.7626 61.1197C31.0364 59.9232 31.794 58.3937 32.4406 56.8111C32.8556 55.7979 33.203 54.7509 33.285 53.646C33.367 52.5508 32.9038 52.0056 31.8036 51.9477C31.1088 51.9139 30.4236 51.8078 29.7336 51.774C28.204 51.7016 27.7697 51.2288 28.2667 49.5787C28.3005 49.4677 28.3439 49.3615 28.3922 49.2554C28.9712 48.0444 29.7288 47.8562 30.8 48.6619C31.0316 48.8356 31.2487 49.0286 31.4948 49.1782C31.8423 49.3857 32.1993 49.5835 32.566 49.7427C33.5215 50.1576 34.3514 49.9695 35.08 49.2216C35.5288 48.7584 35.8907 48.247 36.2043 47.6873C37.2417 45.849 38.1537 43.9432 39.1043 42.0615C39.2201 41.8299 39.3745 41.6128 39.3938 41.3426C40.3782 41.5501 41.3625 41.772 42.3517 41.9602C44.0213 42.2738 45.6763 42.7032 47.3893 42.7515C49.1698 42.8045 49.3098 42.6887 49.6234 40.9035C49.7875 39.9675 49.9178 39.017 50.3183 38.1389C50.9552 36.7445 51.843 35.5962 53.4885 35.3549C54.6272 35.1909 55.7419 35.8133 55.5923 37.3862C55.5585 37.7336 55.4427 38.0617 55.2931 38.3753C54.8347 39.3451 54.2798 40.2522 53.6091 41.0965C53.1266 41.7045 52.6489 42.3221 52.3738 43.0699C52.1084 43.7936 52.2966 44.3678 52.8515 44.8551C53.2279 45.188 53.6767 45.3858 54.1447 45.5451C55.4861 46.0083 56.8613 46.3074 58.251 46.5921C59.4766 46.843 60.654 46.7802 61.8314 46.3894L61.841 46.3991ZM57.5803 59.6868C57.4404 60.1258 57.8216 60.1306 58.0628 60.2271C58.1931 60.2802 58.3572 60.2561 58.3813 60.0534C58.4247 59.7157 58.1593 59.1319 57.9277 59.1174C57.4838 59.0885 57.7347 59.5131 57.5803 59.6868Z" fill="#FFDC7D"/>
<path d="M39.4079 41.3473C39.3886 41.6175 39.2341 41.8346 39.1183 42.0662C38.1678 43.9479 37.2558 45.8538 36.2183 47.692C35.9047 48.2469 35.5428 48.7632 35.0941 49.2263C34.3654 49.979 33.5355 50.1672 32.5801 49.7474C32.2085 49.5882 31.8563 49.3904 31.5089 49.1829C31.2628 49.0333 31.0456 48.8404 30.814 48.6667C29.7428 47.8657 28.9853 48.0491 28.4062 49.2601C28.358 49.3614 28.3145 49.4724 28.2808 49.5834C27.7838 51.2335 28.218 51.7063 29.7476 51.7787C30.4377 51.8125 31.1229 51.9186 31.8177 51.9524C32.9179 52.0103 33.3811 52.5555 33.2991 53.6507C33.217 54.7556 32.8696 55.8026 32.4546 56.8159C31.808 58.3984 31.0505 59.9231 29.7766 61.1245C29.5064 61.3802 29.212 61.6118 28.9273 61.8578C28.0974 62.0605 27.335 61.8578 26.5823 61.5153C25.6124 61.0714 24.6328 60.642 23.6485 60.2174C23.3831 60.1016 23.1129 59.9906 22.833 59.9327C21.9017 59.7494 21.231 60.2463 21.1683 61.1968C21.1249 61.8289 21.12 62.4706 21.1683 63.1027C21.342 65.5296 18.2152 67.392 16.2272 66.7117C14.6059 66.1568 13.9593 64.7238 14.7796 63.2088C15.0547 62.7022 15.431 62.2535 15.7592 61.7806C16.039 61.3802 16.3575 60.999 16.5988 60.5744C17.2067 59.4985 16.922 58.6397 15.7978 58.0896C15.0064 57.7036 14.1427 57.5975 13.2838 57.4865C12.2801 57.3562 11.2813 57.2308 10.2776 57.1005C10.2197 57.0909 10.1667 57.0716 10.1088 57.0571C8.89761 56.7628 8.64187 56.1983 9.28845 55.1079C10.4079 53.2213 11.5563 51.3493 12.7096 49.4772C12.8736 49.207 13.0908 48.9658 13.3127 48.739C13.8773 48.1649 14.1668 48.1793 14.7748 48.7439C15.0354 48.9851 15.2187 49.2698 15.3587 49.593C16.0294 51.1466 17.5735 51.2335 18.7122 50.6207C19.822 50.0224 20.5893 49.0961 20.8981 47.8416C21.1297 46.9152 20.7292 46.3941 19.7641 46.3748C18.7412 46.3555 17.7713 46.6885 16.7628 46.7898C16.5022 46.8187 16.2562 46.838 15.9956 46.7753C15.1608 46.592 14.7458 46.013 14.9582 45.1976C15.074 44.7537 15.267 44.3243 15.4841 43.919C16.8497 41.3377 18.3552 38.8384 19.8944 36.3584C20.0778 36.0641 20.266 35.7794 20.4542 35.4899C20.541 36.0496 20.9705 36.3005 21.4047 36.5321C22.6593 37.1979 23.9814 37.6901 25.347 38.0664C25.9695 38.2401 26.6016 38.2594 27.2337 38.2305C27.9912 38.1967 28.551 37.8493 28.826 37.1159C29.0094 36.6286 29.13 36.1316 29.1541 35.6057C29.1976 34.7131 29.2458 33.8205 29.3327 32.9328C29.3857 32.3586 29.5209 31.7893 29.7814 31.273C30.1144 30.612 30.5776 30.0185 31.3593 29.9172C32.6283 29.7532 33.7671 30.1054 34.6887 31.0173C35.345 31.659 35.4222 32.2862 34.9155 33.0341C34.3992 33.7964 33.8347 34.5298 33.2556 35.2487C32.5994 36.0593 31.948 36.865 31.6633 37.8927C31.3786 38.9301 31.5861 39.5187 32.4884 40.1073C33.2653 40.614 34.1531 40.7539 35.041 40.8118C36.31 40.889 37.5839 40.86 38.853 40.7876C38.9253 41.0868 39.2535 41.1302 39.4079 41.3473Z" fill="#AFC199"/>
<path d="M38.8525 40.7829C37.5835 40.8553 36.3096 40.8842 35.0405 40.807C34.1527 40.7539 33.26 40.6092 32.488 40.1026C31.5856 39.5139 31.3733 38.9253 31.6628 37.888C31.9475 36.8554 32.5989 36.0545 33.2552 35.2439C33.8342 34.525 34.3988 33.7916 34.9151 33.0293C35.4266 32.2766 35.3445 31.6542 34.6883 31.0125C33.7667 30.1054 32.6231 29.7484 31.3589 29.9124C30.5772 30.0138 30.1091 30.6024 29.781 31.2682C29.5252 31.7845 29.3901 32.3538 29.3322 32.928C29.2454 33.8158 29.1971 34.7084 29.1537 35.601C29.1296 36.1269 29.0089 36.6238 28.8256 37.1112C28.5505 37.8445 27.9908 38.1919 27.2332 38.2257C26.6011 38.2546 25.969 38.2353 25.3466 38.0617C23.981 37.6805 22.6589 37.1884 21.4043 36.5273C20.97 36.2957 20.5357 36.0449 20.4537 35.4852C20.5936 34.3417 21.1968 33.3671 21.6407 32.3394C22.2584 30.9064 22.7843 29.4396 23.2186 27.9391C23.2813 27.7171 23.3151 27.4855 23.3441 27.2588C23.4261 26.5543 23.151 26.1153 22.4803 25.8451C22.2053 25.7341 21.9206 25.7148 21.6311 25.6955C20.9362 25.6569 20.2462 25.6424 19.5514 25.5797C18.4416 25.4832 17.8722 24.9139 17.7757 23.8331C17.5875 21.8163 19.6431 19.6982 21.66 19.8236C22.1329 19.8526 22.5624 20.0166 22.9725 20.2434C23.5612 20.5667 24.0872 20.9671 24.56 21.44C24.8061 21.686 25.0377 21.9418 25.2983 22.1734C26.0221 22.8247 26.4371 22.7861 27.0113 22.0238C27.3249 21.604 27.5662 21.1457 27.764 20.6632C27.9474 20.2096 28.1163 19.7465 28.3286 19.3026C29.2502 17.3726 30.2973 16.509 32.9753 16.5862C34.1623 16.6199 35.3108 16.977 36.3868 17.5029C36.6184 17.6139 36.8452 17.7538 37.0575 17.9034C37.873 18.4775 38.0467 19.0903 37.6317 20.0022C37.2602 20.8224 36.6956 21.5268 36.1745 22.2554C35.9236 22.6076 35.6534 22.9502 35.4459 23.3265C35.137 23.8814 35.1756 24.0985 35.6292 24.5568C36.8693 25.8017 38.6112 25.903 39.6439 24.2046C40.0395 23.5533 40.2856 22.8537 40.4738 22.1203C41.0432 19.9105 41.6367 19.4232 43.8949 19.3363C44.6766 19.3074 45.4583 19.317 46.2352 19.3122C46.6984 19.3122 47.1568 19.3798 47.6056 19.5004C48.2184 19.6644 48.6382 20.0118 48.6575 20.7018C48.6382 21.4786 48.2763 22.1396 47.9675 22.8247C47.6345 23.5581 47.1858 24.2432 46.9638 25.0297C46.7997 25.6231 46.9638 25.903 47.5573 26.0381C47.7793 26.0912 48.0157 26.0863 48.2473 26.0863C48.9711 26.0863 49.6949 26.067 50.4187 26.0863C51.8277 26.1201 53.1209 26.9548 53.5455 28.1707C54.0328 29.5699 53.8012 30.8871 52.7155 31.9051C51.3114 33.2271 49.5695 33.6855 47.6731 33.4732C46.8094 33.3767 45.9939 33.0727 45.1833 32.7591C44.3726 32.4455 44.1555 32.4889 43.6826 33.2127C43.2869 33.8158 42.9733 34.472 42.7224 35.1523C42.2013 36.5322 41.5209 37.8445 40.8454 39.1521C40.4786 39.8565 40.0588 40.503 39.1662 40.614C39.06 40.6285 38.9683 40.725 38.8718 40.7829H38.8525Z" fill="#A694BD"/>
<path d="M38.8533 40.7829C38.9498 40.725 39.0463 40.6237 39.1476 40.614C40.0403 40.503 40.4649 39.8565 40.8268 39.1521C41.5024 37.8445 42.1827 36.537 42.7039 35.1523C42.9596 34.4768 43.2684 33.8206 43.6641 33.2127C44.137 32.4889 44.3541 32.4503 45.1648 32.7591C45.9754 33.0727 46.7909 33.3767 47.6546 33.4732C49.5558 33.6855 51.2977 33.2271 52.697 31.9051C53.7779 30.8871 54.0143 29.5699 53.527 28.1707C53.1023 26.9548 51.814 26.1153 50.4002 26.0863C49.6764 26.0719 48.9526 26.0912 48.2288 26.0863C47.9972 26.0863 47.7608 26.0863 47.5388 26.0381C46.9405 25.903 46.7812 25.6231 46.9453 25.0297C47.1624 24.2432 47.6112 23.5581 47.9489 22.8247C48.2578 22.1444 48.6197 21.4786 48.639 20.7018C50.3954 20.6246 52.0553 21.2132 53.7634 21.4786C54.2749 21.5606 54.7864 21.6716 55.3027 21.7246C56.0313 21.797 56.6537 21.5317 57.2087 21.0588C58.4874 19.9636 59.0471 18.5065 59.3656 16.9143C59.4669 16.4076 59.5441 15.8914 59.6889 15.3944C60.2341 13.5175 61.5369 12.4512 63.4091 12.0411C63.8531 11.9446 64.3066 11.824 64.7795 11.9109C66.3188 12.1955 67.1391 13.5272 66.7531 15.1869C66.4394 16.5331 65.817 17.7297 64.8423 18.7284C64.379 19.2061 63.9013 19.6693 63.4477 20.1566C63.2113 20.4075 62.9652 20.6728 62.8205 20.9816C62.1353 22.405 62.3669 23.534 63.6987 24.3301C64.2729 24.6726 64.9146 24.8608 65.5564 25.0393C67.3659 25.5363 69.2236 25.8354 71.0524 26.2504C71.9788 26.4578 72.2008 26.7859 71.8293 27.6448C71.2213 29.0536 70.4155 30.3612 69.6241 31.6735C69.3732 32.0933 69.0982 32.5034 68.8086 32.899C68.0028 33.975 66.9026 34.3224 65.5853 33.9364C64.6155 33.6565 63.8241 33.0776 63.0665 32.4455C62.5406 32.0016 61.976 31.7218 61.2522 31.7652C59.6213 31.8713 58.7576 33.0872 59.2305 34.6505C59.5586 35.7264 60.3499 36.3199 61.4597 36.315C61.923 36.315 62.3814 36.3102 62.8398 36.2089C63.1438 36.1414 63.4719 36.1462 63.7903 36.1607C65.0835 36.2185 65.6722 37.0195 65.32 38.2643C65.1462 38.8722 64.9243 39.4705 64.712 40.0688C64.1185 41.7575 63.4767 43.4269 62.7819 45.077C62.5647 45.5884 62.2849 46.0565 61.8265 46.3942C60.6491 46.785 59.4717 46.8477 58.2461 46.5968C56.8612 46.3122 55.4812 46.0082 54.1398 45.5498C53.6717 45.3906 53.223 45.1928 52.8466 44.8599C52.2917 44.3726 52.0987 43.7984 52.3689 43.0747C52.6439 42.3268 53.1216 41.7141 53.6042 41.1013C54.2749 40.2618 54.8298 39.3547 55.2882 38.3801C55.4378 38.0616 55.5536 37.7336 55.5874 37.391C55.7369 35.8181 54.6223 35.1909 53.4835 35.3597C51.8381 35.601 50.9503 36.7445 50.3133 38.1437C49.9177 39.017 49.7825 39.9675 49.6185 40.9083C49.3048 42.6887 49.1649 42.8045 47.3844 42.7562C45.6714 42.708 44.0163 42.2738 42.3468 41.965C41.3576 41.7816 40.3732 41.5549 39.3889 41.3474C39.2345 41.1303 38.9015 41.0868 38.834 40.7877L38.8533 40.7829Z" fill="#85C0F0"/>
<path d="M36.783 19.1048C36.479 17.9372 35.403 17.5898 34.5103 17.2328C33.0338 16.6441 31.4607 16.3257 29.8346 16.4897C29.3135 16.5428 28.9757 16.6875 28.6862 17.1797C28.1602 18.0675 27.919 19.0517 27.5088 19.9781C27.1662 20.7501 26.7464 21.4786 26.3652 22.2313C25.5787 23.7849 23.7596 23.838 22.6401 22.6511C22.4037 22.4002 22.1914 22.1011 21.926 21.8936C21.2167 21.3291 20.4639 21.0155 19.494 21.3484C18.0271 21.8502 16.6761 23.3941 16.5265 24.6631C16.3286 26.318 18.1478 27.2395 19.33 26.8439C19.7739 26.6943 20.2516 26.6075 20.7148 26.5834C21.9549 26.5158 22.5002 27.2733 22.1962 28.4844C21.6895 30.5301 20.7148 32.3684 19.7498 34.2066C18.2395 37.0823 16.5361 39.8566 15.1368 42.7949C14.9293 43.2292 14.7556 43.6779 14.5674 44.1121C14.2345 44.8744 14.6253 45.4438 15.5083 45.4824C16.3238 45.5161 17.1489 45.5885 17.9451 45.2459C18.5193 44.9951 19.1852 45.0674 19.7594 45.1784C20.681 45.3569 21.1636 46.3557 20.8837 47.4027C20.4398 49.0286 19.3444 50.1673 17.8486 50.8573C16.9415 51.2722 15.7882 50.616 15.1706 49.487C14.9727 49.1251 14.8569 48.715 14.6398 48.3628C13.9932 47.3206 13.3273 47.311 12.5601 48.2711C11.6722 49.3857 11.0015 50.6498 10.2247 51.8367C9.66011 52.7052 9.19205 53.6364 8.6468 54.5193C8.32833 55.026 8.49721 55.2189 8.99904 55.4023C10.0992 55.8028 11.2621 55.8655 12.3912 56.0729C13.7519 56.3238 15.0741 56.6375 16.208 57.477C17.7618 58.6301 17.8052 59.8508 16.5651 60.9557C15.9909 61.4672 15.3539 61.8869 14.7315 62.3308C13.5493 63.1752 13.2549 64.4634 13.9498 65.3753C14.8135 66.5043 16.3335 66.7986 17.8583 66.3161C19.0356 65.9446 19.5761 64.7915 19.5375 63.3778C19.5133 62.5286 19.0935 61.6891 19.5037 60.8158C20.3867 58.9196 21.733 58.3841 23.8609 58.9389C26.7754 59.6964 29.5403 60.8978 32.4547 61.6505C34.0567 62.0654 35.6298 62.6396 37.3186 62.1619C38.4333 61.8483 39.3115 60.6904 39.3163 59.5613C39.3163 58.6639 39.3163 57.7665 39.3163 56.8691C39.3211 55.4264 40.6143 53.7281 42.0088 53.5013C43.9775 53.1829 45.565 53.5785 46.3612 55.1273C46.7713 55.9234 46.6845 57.1296 45.9124 58.0849C45.3527 58.7797 44.571 59.2284 43.9003 59.8026C42.7664 60.7772 42.4768 61.9834 42.612 63.3778C42.6747 64.0292 43.1669 64.3235 43.659 64.5888C45.179 65.3994 46.7906 65.9977 48.4361 66.4947C49.348 66.7745 50.2842 66.9868 51.2154 67.1894C51.8668 67.3342 52.1419 66.9386 52.3542 66.374C53.0346 64.5647 53.5219 62.6734 54.7572 61.1053C55.1287 60.6325 55.4665 60.1355 55.9104 59.735C56.5763 59.1367 57.4979 59.1995 58.1687 59.8122C58.4968 60.1162 58.7043 60.4974 58.9455 60.8592C59.7803 62.0944 61.0204 62.5479 62.4197 62.5769C63.3655 62.5962 63.9928 62.0172 64.4174 61.2018C65.5562 59.0161 64.3933 57.0669 62.2364 56.4493C61.7056 56.2997 61.1217 56.43 60.5765 56.7484C60.1567 56.9897 59.6404 57.091 59.1144 57.1392C57.7054 57.2743 56.8128 56.1164 57.3049 54.693C57.9322 52.8741 58.6753 51.0985 59.375 49.3037C59.8527 48.0685 60.3931 46.843 60.9963 45.6898C61.6622 44.4064 62.3474 43.123 63.0132 41.8348C63.7419 40.4211 64.2678 38.935 64.4222 37.3283C64.5139 36.373 63.9831 35.6975 63.0277 35.5817C62.3088 35.4949 61.5705 35.5817 60.9577 35.8085C59.539 36.3248 57.7199 35.0558 57.5945 33.5939C57.5028 32.5276 58.1397 31.6253 58.9455 30.9064C60.2387 29.7533 61.638 30.0621 63.0229 30.6555C63.8287 31.0029 64.567 31.5095 65.3776 31.8473C66.8156 32.4456 67.8482 32.2043 68.5671 31.2394C69.7445 29.6664 70.5117 27.8764 70.9171 25.9561C71.0956 25.1021 70.8833 24.9525 70.063 24.8223C67.5635 24.4218 65.0254 24.2336 62.6658 23.1239C60.8419 22.2651 60.8708 20.4461 61.8021 19.1868C62.4921 18.2556 63.3607 17.5029 64.1568 16.6779C64.6056 16.2147 64.9482 15.7129 65.2087 15.1195C65.8312 13.701 65.0978 12.3886 63.544 12.3452C61.86 12.3017 60.5089 13.0544 59.4715 14.3378C58.7477 15.2353 58.1687 16.1906 58.5692 17.4644C58.6898 17.8455 58.4437 18.3184 58.2314 18.6609C57.7875 19.3798 57.1747 19.9588 56.5184 20.504C55.9732 20.9527 55.3459 20.9238 54.7765 20.8176C52.8126 20.4509 50.7956 20.3641 48.8607 19.8092C48.576 19.7272 48.2575 19.7658 48.0742 20.1422C47.1574 22.0432 45.9655 23.8091 45.3768 25.8693C44.9667 27.3023 45.3865 27.9777 46.863 27.944C47.4421 27.9295 48.0404 27.8475 48.5953 27.6786C49.5169 27.3988 50.4482 27.3843 51.3795 27.447C52.6968 27.5339 53.4399 29.1695 52.6678 30.3757C51.5821 32.0789 49.4687 33.0342 47.3842 31.6832C47.3504 31.6591 47.3311 31.6205 47.2973 31.5964C44.9715 29.8836 43.1427 30.7376 42.308 33.261C41.5311 35.601 40.6095 37.8494 39.297 39.9193C38.1437 41.7286 37.3379 43.6875 36.5225 45.6561C36.1847 46.4715 35.7938 47.3062 35.1279 47.8996C34.3897 48.5558 33.9988 48.7054 33.1448 48.0058C32.2376 47.2579 31.316 46.6066 30.018 46.6838C28.5704 46.7706 27.0649 48.1264 26.978 49.569C26.9057 50.7463 27.6536 51.5327 28.8889 51.5617C29.8153 51.581 30.7418 51.5617 31.6682 51.5617C32.4982 51.5617 32.8408 51.9236 32.889 52.7776C32.9517 53.9983 32.5464 55.1128 32.0012 56.155C31.3015 57.4915 30.5777 58.8279 29.5885 59.9859C29.4486 60.15 29.3955 60.3671 29.41 60.589" stroke="#4C4C4C" stroke-linecap="round" stroke-linejoin="round"/>
<path d="M38.6934 40.6334C38.3122 40.4211 37.8925 40.4548 37.4775 40.4597C36.1505 40.4693 34.8477 40.3439 33.5642 39.9531C33.0479 39.7938 32.6088 39.5429 32.1793 39.2438C30.4712 38.0424 30.6883 36.5081 32.2662 35.2488C32.7342 34.8773 33.2071 34.5154 33.651 34.1198C35.0021 32.9087 34.7029 30.8485 32.7004 30.2165C31.3059 29.7774 29.9742 29.9801 28.8981 30.9305C27.8559 31.8569 27.6049 33.0873 27.9765 34.4768C28.0682 34.8242 28.1985 35.1957 28.1985 35.5962C28.1888 36.6094 27.8848 36.9423 26.8812 36.9906C25.588 37.0581 24.3768 36.6721 23.1416 36.3875C21.8532 36.0932 20.6517 35.5721 19.4116 35.1571" stroke="#4C4C4C" stroke-linecap="round" stroke-linejoin="round"/>
<path d="M60.7983 45.6704C59.8284 45.6463 58.8586 45.6366 57.8839 45.5208C56.0213 45.2989 54.3614 44.5559 52.7739 43.6536C51.9053 43.1566 51.8185 42.0132 52.5133 41.1688C53.213 40.3148 54.0188 39.5476 54.7571 38.7274C55.9151 37.4392 55.8572 36.6334 55.2637 35.6154C54.6943 34.6408 53.102 34.3416 51.8909 34.7228C50.3419 35.2101 48.9571 36.865 49.0295 38.9059C49.0391 39.1954 49.0295 39.4849 48.9474 39.7744C48.6338 40.9469 47.9824 41.41 46.7712 41.246C45.8689 41.1206 44.9714 40.9758 44.0787 40.8118C42.8145 40.5802 41.5406 40.4547 40.2571 40.474C39.8952 40.474 39.543 40.474 39.2148 40.2955" stroke="#4C4C4C" stroke-linecap="round" stroke-linejoin="round"/>
<path d="M48.0742 19.8864C47.4083 19.3701 46.5639 19.4714 45.8063 19.3122C44.6772 19.0758 43.5239 18.8683 42.3369 18.9166C40.8797 18.9745 40.0015 19.8526 39.7892 21.2663C39.6203 22.4098 39.6058 23.5629 38.993 24.6823C38.0279 26.4482 34.8722 26.7087 33.8927 25.3626C33.2557 24.4893 33.1641 23.2976 33.9168 22.405C34.3366 21.908 34.795 21.4207 35.3065 21.0202C35.9482 20.5184 36.6238 20.089 36.7396 19.1868C36.7492 19.0951 36.9181 19.0854 37.0339 19.0999" stroke="#4C4C4C" stroke-linecap="round" stroke-linejoin="round"/>
</g>
<defs>
<clipPath id="clip0_1659_4510">
<rect width="80" height="80" rx="8" fill="white"/>
</clipPath>
</defs>
</svg>
