<svg width="80" height="80" viewBox="0 0 80 80" fill="none" xmlns="http://www.w3.org/2000/svg">
<g clip-path="url(#clip0_1706_5187)">
<rect width="80" height="80" rx="8" fill="white"/>
<circle cx="40" cy="86" r="66" fill="#E3F2FF"/>
<path d="M38.131 53.1895C36.2578 55.4176 34.0025 57.9416 30.3988 58.6542C27.5143 59.2187 24.6224 59.7555 21.7082 60.209C18.5089 60.7091 15.4758 60.1081 12.7404 58.3411C10.8297 57.0971 8.98065 57.8604 7.17498 58.5079C-0.265148 61.2306 -0.90436 60.9555 -4.50626 53.8998C-6.04596 50.8748 -6.95244 47.7695 -6.8667 44.3685C-6.80713 42.3138 -6.22088 40.8918 -3.77401 40.638C0.239326 40.2323 4.2514 39.5442 8.26001 39.0653C10.6541 38.781 12.4726 38.0704 12.8961 35.2635C13.1717 33.404 14.5312 32.1468 16.3612 31.7011C20.559 30.6507 24.7818 29.6383 29.1352 31.0016C29.815 31.2063 30.5789 31.2248 31.3076 31.223C35.438 31.1431 35.9431 31.5286 36.8824 35.7561C36.9169 35.9403 36.9107 36.1949 37.0062 36.2735C41.4653 39.3644 38.31 44.1385 39.5007 47.9713C39.958 49.4559 39.3046 51.2381 38.1236 53.1617L38.131 53.1895Z" fill="#F7BCAA"/>
<path d="M63.7648 27.2881C66.9278 30.4287 70.4794 29.5217 74.1428 28.4211C76.9529 27.5788 79.8753 26.9892 82.7252 26.2404C84.1313 25.8786 85.168 26.3598 85.6565 27.6277C87.725 33.0705 87.4706 38.6744 86.1124 44.1574C85.5631 46.3284 82.9571 46.6546 81.0222 46.8755C76.5395 47.3623 72.555 48.6531 68.6812 51.1346C63.7758 54.2645 57.8615 54.629 52.2004 55.3274C49.8341 55.6043 47.6986 54.4652 46.567 52.0749C45.0809 48.9166 43.5215 45.763 42.1566 42.5572C40.5345 38.7805 42.2626 35.1776 42.9999 31.5425C43.1776 30.7062 43.9186 30.1952 44.7219 29.8609C47.6168 28.6685 50.4967 27.4207 53.4064 26.2839C57.0157 24.8703 60.591 24.329 63.7926 27.2807L63.7648 27.2881Z" fill="#F3A78F"/>
<path d="M38.3659 63.841C36.3089 64.8833 34.7896 65.7665 33.2006 66.4453C31.0962 67.3663 30.1361 66.6712 30.3955 64.4737C30.6658 62.0947 31.0621 59.7415 31.4129 57.3855C31.6444 55.8057 32.8818 55.3699 34.1415 55.0175C35.4846 54.6428 36.8323 54.3411 37.64 53.0235C37.9144 52.5482 38.5498 51.9762 38.1558 51.5609C36.3043 49.4826 38.153 47.6628 38.2424 45.7192C38.3698 43.1404 37.8953 40.4253 37.6042 37.8396C37.4132 36.0158 35.5121 34.3079 35.6592 31.8578C35.7748 30.2345 33.8265 30.072 32.6766 30.1123C29.4462 30.2189 27.2957 29.0243 25.4092 26.3155C23.658 23.7788 21.1177 21.7957 18.9771 19.527C18.3698 18.8713 17.5615 18.076 18.2113 17.1132C18.7215 16.3515 19.6661 16.5448 20.5153 16.6595C23.1008 16.9786 25.6192 17.658 27.9315 18.7348C29.7483 19.5725 30.1223 18.8026 30.4567 17.3291C31.1145 14.5635 31.8528 11.821 32.5384 9.04802C32.7771 8.10608 33.0686 7.19464 34.2185 7.15437C35.3962 7.10667 35.7094 8.10906 36.0234 8.94756C36.8009 11.016 37.5404 13.1096 38.1966 15.2254C38.704 16.7859 39.3568 16.8342 40.4787 15.7449C42.7806 13.5061 45.1251 11.3153 47.5225 9.15508C48.244 8.51534 49.0549 7.59865 50.1788 8.29452C51.338 9.01071 50.7912 10.0799 50.4969 11.0367C49.9953 12.7187 49.5037 14.3832 48.9039 16.032C48.0464 18.3302 49.0053 18.7429 51.0445 18.3007C52.3923 17.9991 53.7671 17.8539 55.1399 17.5903C56.7802 17.2698 57.9456 17.7313 58.0181 19.5571C58.0867 21.1459 59.2224 23.163 56.4537 23.771C53.4629 24.4384 50.6765 25.6464 48.1072 27.3318C46.4761 28.4088 44.3126 27.8873 42.7356 29.2771C41.794 30.0949 40.8938 30.6784 42.1923 31.8036C43.2823 32.7616 43.0436 33.7035 42.381 34.7293C40.6952 37.3239 40.2543 39.5105 42.7863 42.2398C44.6507 44.2551 45.6459 47.2474 46.4252 50.0446C46.9413 51.9152 48.2282 53.3859 49.9958 53.3736C52.7568 53.348 55.6953 53.0964 57.903 51.0614C58.655 50.3688 59.1459 50.5349 59.8122 50.9665C63.6966 53.4673 67.1677 56.4807 70.3651 59.8055C70.9826 60.4437 71.541 61.306 71.1709 62.3129C70.7778 63.4004 69.7491 63.3932 68.8389 63.3841C65.7149 63.3879 62.5705 63.4268 59.4371 63.2843C57.7204 63.2086 56.8229 63.7467 56.8704 65.5346C56.8771 65.7262 56.8838 65.9179 56.8099 66.0865C56.2731 67.7482 57.1383 70.4777 55.049 70.844C53.043 71.1881 52.5684 68.473 51.6546 67.0065C49.0859 62.918 49.1442 62.8577 45.7698 66.4256C44.0091 68.2962 42.2735 70.2047 40.5906 72.1438C39.9545 72.8797 39.4064 73.6664 38.3189 73.2733C37.1156 72.8368 37.529 71.7141 37.5984 70.8621C37.7569 68.6768 38.0238 66.5071 38.2853 63.8179L38.3659 63.841Z" fill="#FFCB63"/>
<path d="M24.9029 28.9807C23.0618 30.2181 20.9674 29.4548 19.0122 29.7109C15.6165 30.1446 12.8166 30.9692 12.0446 35.0302C11.6417 37.1918 9.87249 38.142 7.48461 38.1717C3.91158 38.2214 -3.62543 39.4929 -7.20663 39.6787" stroke="#4C4C4C" stroke-linecap="round" stroke-linejoin="round"/>
<path d="M29.0782 56.6714C27.3518 57.0596 25.6552 57.5589 23.9269 57.8285C21.0756 58.2949 18.2563 58.3806 15.8169 56.3854C15.018 55.7364 14.0863 55.4801 12.9986 55.6972C8.95329 56.4835 0.407891 58.56 -3.66244 59.3084" stroke="#4C4C4C" stroke-linecap="round" stroke-linejoin="round"/>
<path d="M83.155 24.8985C79.898 25.9052 72.8233 27.4946 69.6062 28.5947C68.1744 29.0826 67.2027 28.7328 66.2847 27.6395C65.1711 26.3158 63.6497 25.414 62.635 23.9597C61.9635 23.0086 60.6849 23.0685 59.623 23.1596C55.953 23.4584 52.6965 24.9113 49.7018 27.0084C48.9506 27.5371 48.4256 28.2432 48.4618 29.1562C48.7069 33.5697 49.8176 37.8257 51.1226 42.0296C54.7176 41.0068 56.1619 39.3995 55.2513 36.6673C54.231 33.6371 55.135 31.6241 57.3393 29.7983C57.5114 29.6629 57.4729 29.2417 57.517 28.962" stroke="#4C4C4C" stroke-linecap="round" stroke-linejoin="round"/>
<path d="M87.7927 43.8065C83.9284 44.1574 75.8247 44.8604 72.1394 46.3241C70.5254 46.9649 69.0671 47.7425 67.7584 48.9117C64.8624 51.4882 61.1694 51.8677 57.5191 52.2952" stroke="#4C4C4C" stroke-linecap="round" stroke-linejoin="round"/>
<path d="M35.2355 74.2629C37.2314 71.6596 40.058 69.935 42.2022 67.4408C43.5531 65.8734 44.7599 63.8239 47.1006 63.0628C49.2187 65.8583 50.0079 69.2481 51.8613 72.0551L55.1635 62.8392L65.9927 61.6525" stroke="#4C4C4C" stroke-linecap="round" stroke-linejoin="round"/>
<path d="M31.6502 8.68774C32.4377 9.07198 32.5243 12.1618 32.843 13.0734C33.6475 15.2984 34.5251 17.5186 36.156 19.3286C38.7862 17.5376 43.0434 12.5358 44.9369 10.2724L46.6155 8.53645" stroke="#4C4C4C" stroke-linecap="round" stroke-linejoin="round"/>
<path d="M27.5074 45.5302C26.1854 43.429 25.0958 41.2507 24.6605 38.793C24.5645 38.2681 24.1657 37.7797 23.9735 37.3401C23.512 36.2286 22.7164 35.9805 21.7933 36.0344C20.7693 36.1004 20.7514 37.3106 20.8223 37.7976C21.3066 41.7154 18.3014 42.7736 15.7587 44.1693C15.4099 44.3669 14.791 44.0565 14.3122 43.9914" stroke="#4C4C4C" stroke-linecap="round" stroke-linejoin="round"/>
<path d="M31.4526 8.77334C30.3508 12.7144 28.899 16.5707 28.0918 20.6114C27.7513 22.3396 26.2845 22.1969 24.8333 21.9458C22.8783 21.5917 18.7969 19.5364 16.7785 20.3897" stroke="#4C4C4C" stroke-linecap="round" stroke-linejoin="round"/>
<path d="M49.7587 40.7729C48.8369 41.1092 47.8807 41.2613 46.9534 41.6883C43.8079 43.1115 43.4293 45.4749 46.1226 47.6401C46.6351 48.0534 47.1578 48.4491 47.7055 48.8827C49.5174 47.9805 51.3915 47.2551 53.4699 47.0702C56.5825 46.8017 57.9589 47.9954 57.5394 51.0394C57.2815 52.9091 57.5783 54.1837 59.288 55.2881C61.89 57.0016 63.5388 59.8783 66.2647 61.4991" stroke="#4C4C4C" stroke-linecap="round" stroke-linejoin="round"/>
<path d="M30.4359 56.5162C31.4125 56.3289 32.3688 56.1769 33.3306 55.9341C36.3268 55.1759 38.0156 53.5924 37.5387 51.9791C37.1017 50.4593 34.5218 49.4392 31.9624 50.0506C26.9824 51.2362 26.9076 52.1789 29.0958 56.2354C29.5709 57.12 29.809 58.0086 29.7404 58.6966C29.565 60.7079 28.9989 62.7049 28.5967 64.7025L37.5842 62.8336" stroke="#4C4C4C" stroke-linecap="round" stroke-linejoin="round"/>
<path d="M47.9867 28.882C47.3691 28.854 46.7244 28.6696 46.1339 28.7981C42.2349 29.575 41.5021 31.6165 43.9032 34.8571" stroke="#4C4C4C" stroke-linecap="round" stroke-linejoin="round"/>
<path d="M48.8004 34.14C46.9354 33.9552 45.1555 34.4768 43.6714 35.3804C40.6958 37.1599 41.1627 40.4574 44.5597 42.5829" stroke="#4C4C4C" stroke-linecap="round" stroke-linejoin="round"/>
<path d="M16.8156 20.7906C19.5227 22.1188 20.8918 24.9513 23.3807 26.5761C24.8439 27.5382 25.866 29.0203 27.4829 30.0008C30.1709 31.6466 30.4665 34.9156 30.6051 37.7654C30.7187 40.5773 31.4506 43.2532 31.6853 46.0177" stroke="#4C4C4C" stroke-linecap="round" stroke-linejoin="round"/>
<path d="M46.6157 8.53638C46.9779 10.9989 46.7817 14.6659 46.1335 16.9676C45.9233 17.7382 46.2556 18.423 45.9703 19.0798" stroke="#4C4C4C" stroke-linecap="round" stroke-linejoin="round"/>
<path d="M35.0634 74.2276C34.9656 72.974 35.938 69.9975 36.1403 68.7528L37.584 62.8337" stroke="#4C4C4C" stroke-linecap="round" stroke-linejoin="round"/>
<path d="M32.0894 43.6924C33.339 43.3576 34.6163 43.0153 35.8659 42.6805C38.9809 45.2536 39.0049 46.6757 36.047 50.132" stroke="#4C4C4C" stroke-linecap="round" stroke-linejoin="round"/>
<path d="M56.7517 52.4856C54.7965 52.7416 52.8331 53.1338 50.861 53.2158C47.5094 53.3698 46.6219 52.2237 47.2745 48.9387" stroke="#4C4C4C" stroke-linecap="round" stroke-linejoin="round"/>
<path d="M55.7809 46.9722C57.687 43.5895 57.5878 42.6637 55.1221 40.3481" stroke="#4C4C4C" stroke-linecap="round" stroke-linejoin="round"/>
<path d="M53.9882 17.9581C51.1412 18.0513 48.4348 18.836 45.6857 19.5726" stroke="#4C4C4C" stroke-linecap="round" stroke-linejoin="round"/>
<path d="M34.6323 36.5226C35.1957 36.8478 35.759 37.1731 36.3047 37.4882C38.9102 38.9924 39 39.7719 36.9175 41.9966C36.6947 42.22 36.5923 42.5599 36.4297 42.8416" stroke="#4C4C4C" stroke-linecap="round" stroke-linejoin="round"/>
<path d="M54.4917 17.6151C54.0887 19.7767 53.4691 21.907 53.6079 24.1466" stroke="#4C4C4C" stroke-linecap="round" stroke-linejoin="round"/>
<path d="M57.4614 30.1976C57.6199 30.289 57.8718 30.3406 57.9368 30.472C59.2364 33.8043 61.7093 35.4433 65.3555 35.3889" stroke="#4C4C4C" stroke-linecap="round" stroke-linejoin="round"/>
<path d="M29.586 31.6845C30.5437 31.2047 31.5399 31.1461 32.5862 31.1633C34.2779 31.2011 35.563 31.9431 35.591 33.6023C35.6176 34.9791 34.9257 36.3401 33.2475 36.6856C32.5384 36.8161 31.8293 36.9465 31.1128 37.0492" stroke="#4C4C4C" stroke-linecap="round" stroke-linejoin="round"/>
<path d="M30.8391 45.8577C30.2512 45.9408 29.4906 46.3231 29.1135 46.0819C27.6401 45.1374 26.8909 45.7846 26.2851 47.0779C25.646 48.4694 25.9945 49.4921 27.3324 50.2645C27.6493 50.4475 27.8848 50.7713 28.1685 51.0524" stroke="#4C4C4C" stroke-linecap="round" stroke-linejoin="round"/>
</g>
<defs>
<clipPath id="clip0_1706_5187">
<rect width="80" height="80" rx="8" fill="white"/>
</clipPath>
</defs>
</svg>
