<svg width="80" height="80" viewBox="0 0 80 80" fill="none" xmlns="http://www.w3.org/2000/svg">
<g clip-path="url(#clip0_1658_4459)">
<rect width="80" height="80" rx="8" fill="white"/>
<circle cx="40" cy="86" r="66" fill="#E3EDF5"/>
<path d="M51.2903 57.9825C52.376 57.8501 53.4449 57.651 54.5197 57.6055C55.9275 57.5459 57.3413 57.4772 58.7501 57.6571C59.6086 57.7673 60.479 57.7946 61.3215 58.0119C62.2477 58.2504 63.2029 58.4121 64.0504 58.8942C64.8381 59.3419 65.6247 59.8008 66.19 60.5457C67.206 61.8859 66.9737 62.8541 66.3316 64.0003C65.8122 64.9271 64.9756 65.4991 64.0963 66.0287C62.4262 67.0324 60.6006 67.5943 58.7252 68.034C56.6155 68.5282 54.4987 68.986 52.3641 69.3539C51.0819 69.5743 49.8027 69.7643 48.4975 69.8168C47.1266 69.8724 45.7557 69.9614 44.3848 70.0362C43.0637 70.1089 41.7486 70.0139 40.4335 69.9816C39.6957 69.9634 38.9519 69.9492 38.2141 69.8896C37.0256 69.7936 35.8341 69.7532 34.6457 69.6662C33.1511 69.5571 31.6555 69.454 30.164 69.3236C27.5966 69.0992 25.0262 69.0659 22.4608 69.1609C19.8984 69.2559 17.355 69.5803 14.8913 70.3848C14.1186 70.6375 13.316 70.7911 12.5502 71.0772C12.1395 71.2308 11.7526 71.4239 11.3937 71.6755C10.942 71.9909 10.8612 72.2051 11.0168 72.7539C11.2999 73.7525 11.9101 74.4661 12.8783 74.8279C13.7796 75.1645 14.7078 75.3696 15.676 75.4313C16.7568 75.5 17.8365 75.592 18.9193 75.6385C19.1536 75.6486 19.3909 75.6708 19.5854 75.4828C19.6671 75.404 19.7878 75.4101 19.8964 75.409C20.0231 75.407 20.1507 75.4111 20.2773 75.407C24.2256 75.2837 28.1749 75.3363 32.1231 75.2867C32.9108 75.2766 33.7114 75.2483 34.4971 75.1068C34.5499 75.0977 34.6058 75.0927 34.6596 75.0947C35.8192 75.1392 36.9708 74.935 38.1303 74.9714C39.1084 75.0017 40.0805 74.7945 41.0576 74.8804C42.2321 74.9835 43.4086 74.9542 44.5842 74.9856C44.7267 74.9896 44.8673 75.0422 45.0109 75.0563C45.2432 75.0796 45.5164 75.1715 45.6989 75.023C46 74.7763 46.326 74.8461 46.6321 74.8845C47.6152 75.0088 48.5973 75.1543 49.5734 75.3292C50.8885 75.5637 52.2095 75.7931 53.4867 76.1913C55.5337 76.8301 57.5178 77.6184 59.2546 78.9344C59.8359 79.375 60.3912 79.848 60.8688 80.4009C61.5528 81.1913 61.9028 82.1575 62.176 83.152C62.2517 83.429 62.1371 83.6281 61.8669 83.7756C61.1919 84.1445 61.0832 84.1051 60.8748 83.3582C60.6435 82.5284 60.3055 81.737 59.9845 80.9396C59.6564 80.125 58.9994 79.6408 58.2925 79.2244C56.7989 78.3431 55.1937 77.7266 53.5236 77.292C52.4757 77.0191 51.4328 76.7128 50.355 76.5724C49.354 76.442 48.361 76.256 47.3519 76.1731C45.9461 76.0579 44.5363 76.0296 43.1315 75.9336C41.5731 75.8265 40.0157 75.8204 38.4633 75.8851C37.3965 75.9296 36.3277 75.9114 35.2638 75.9801C34.0016 76.062 32.7383 76.1216 31.4781 76.2136C30.6814 76.2722 29.8858 76.2408 29.0941 76.3035C27.7023 76.4127 26.3054 76.3379 24.9175 76.4309C24.0312 76.4905 23.1408 76.441 22.2634 76.537C20.9962 76.6744 19.7279 76.6633 18.4657 76.6027C16.7019 76.5168 14.9302 76.4005 13.2462 75.7598C12.4765 75.4667 11.7556 75.118 11.1793 74.4944C10.6638 73.9375 10.3228 73.3199 10.3109 72.5417C10.3099 72.4517 10.3119 72.3456 10.269 72.2749C10.1643 72.1 10.0387 71.9292 10.1135 71.7159C10.2052 71.4542 10.3607 71.2268 10.5811 71.056C10.7675 70.9114 10.957 70.7689 11.1544 70.6416C12.4366 69.8128 13.8314 69.2812 15.333 69.0315C16.2413 68.8799 17.1586 68.8031 18.0718 68.6929C18.7339 68.6131 19.3929 68.5029 20.053 68.4069C20.1427 68.3938 20.2374 68.3584 20.3212 68.3766C21.1497 68.5615 21.9822 68.3988 22.7988 68.3402C25.0093 68.1815 27.2177 68.2563 29.4252 68.2806C31.2109 68.2998 33.0035 68.3149 34.7793 68.5767C34.851 68.5868 34.9238 68.5848 34.9966 68.5848C36.1721 68.5868 37.3437 68.6697 38.5122 68.796C38.5481 68.8001 38.585 68.798 38.6209 68.7991C41.7167 68.9112 44.8125 68.9476 47.9103 68.9112C48.019 68.9102 48.1346 68.9284 48.2353 68.8971C48.8106 68.7192 49.4098 68.7728 49.9941 68.7243C51.0948 68.6323 52.1756 68.4322 53.2594 68.2452C55.2355 67.9046 57.1718 67.377 59.127 66.9384C59.5497 66.8433 60.0094 66.7837 60.3703 66.5684C61.2437 66.0479 62.2687 65.8872 63.1142 65.303C63.9377 64.735 64.7393 64.1407 65.5131 63.508C66.0604 63.0603 66.3207 62.4903 66.0993 61.7666C65.9797 61.3765 65.6895 61.1289 65.3854 60.8913C64.1341 59.918 62.6854 59.4299 61.165 59.1125C60.0503 58.88 58.9246 58.7527 57.79 58.6476C56.105 58.4919 54.424 58.5809 52.742 58.5849C51.9872 58.5869 51.2344 58.7244 50.4787 58.7871C50.2204 58.8083 50.0469 58.974 49.8685 59.1196C46.9252 61.519 43.5861 63.0825 39.916 63.9285C38.7924 64.1872 37.6497 64.3641 36.4902 64.4258C36.0046 64.452 35.5191 64.5046 35.0305 64.5096C32.186 64.5369 29.4132 64.1044 26.7321 63.1331C24.071 62.1699 21.6213 60.8186 19.4059 59.0296C18.4248 58.2372 17.5125 57.3751 16.671 56.4412C15.4616 55.099 14.4047 53.6406 13.5104 52.0578C12.4146 50.1183 11.602 48.0686 11.0447 45.9138C10.7346 44.712 10.5412 43.4871 10.4086 42.2469C10.259 40.8532 10.279 39.4594 10.3418 38.0717C10.4086 36.5941 10.6529 35.1286 11.0268 33.6934C11.5402 31.7195 12.2531 29.8224 13.2183 28.0264C14.0079 26.5578 14.9372 25.1873 15.99 23.8977C16.662 23.0739 17.4118 22.3301 18.1735 21.5983C19.5724 20.2561 21.1437 19.1484 22.8237 18.1953C24.8747 17.032 27.0492 16.1971 29.3394 15.6787C30.5538 15.4037 31.7832 15.2188 33.0324 15.146C33.7184 15.1066 34.4034 15.0389 35.0903 15.0682C36.6966 15.1359 38.2918 15.2966 39.8672 15.6453C42.1823 16.1577 44.3728 17.0027 46.4466 18.1539C47.9412 18.9847 49.3331 19.966 50.6232 21.1011C51.2673 21.6681 51.8845 22.2603 52.4658 22.889C53.8058 24.3393 54.9474 25.9373 55.9245 27.6625C56.6573 28.9562 57.2436 30.3136 57.7272 31.7165C58.2705 33.2911 58.6225 34.9113 58.8538 36.5668C59.0861 38.2294 59.131 39.8981 59.0153 41.5566C58.8628 43.7488 58.4261 45.8996 57.6943 47.9817C56.769 50.6135 55.4559 53.018 53.737 55.2051C53.0809 56.04 52.3601 56.8081 51.6173 57.5611C51.4966 57.6834 51.3202 57.7713 51.2923 57.9886L51.2903 57.9825Z" fill="#A694BD"/>
<path d="M62.0903 83.5583C61.9378 82.8347 61.8152 82.1029 61.546 81.4096C61.0833 80.2159 60.2119 79.3669 59.2039 78.6595C56.8868 77.0332 54.2945 76.1024 51.5407 75.5607C49.3282 75.125 47.0949 74.9906 44.8505 74.8916C43.8535 74.8481 42.8494 74.8016 41.8594 74.8238C39.5213 74.8764 37.1803 74.7774 34.8422 74.9532C33.4503 75.0583 32.0515 75.0765 30.6556 75.1271C27.8639 75.2281 25.0752 75.3727 22.2805 75.4161C20.4619 75.4444 18.6533 75.3878 16.8406 75.2494C15.36 75.1362 13.9034 74.929 12.4925 74.462C11.7777 74.2255 11.1186 73.89 10.5802 73.3159C9.88728 72.5771 9.99496 71.9151 10.5373 71.2743C11.1824 70.5132 12.0738 70.1524 12.9811 69.8401C14.3401 69.3731 15.7459 69.1387 17.1667 68.9446C19.1907 68.6687 21.2236 68.6272 23.2586 68.5585C24.4919 68.5171 25.7253 68.5049 26.9566 68.5221C29.3675 68.5555 31.7793 68.6161 34.1901 68.6838C36.6917 68.7546 39.1923 68.8233 41.6949 68.8627C43.3639 68.889 45.032 68.8759 46.698 68.8365C48.2963 68.7991 49.8915 68.6899 51.4858 68.5373C52.5746 68.4332 53.6663 68.3362 54.7451 68.1714C57.163 67.8015 59.5499 67.2729 61.8142 66.3057C63.1442 65.7377 64.3596 64.9816 65.3567 63.8921C65.912 63.2847 66.2739 62.5853 66.4275 61.7909C66.5481 61.1673 66.2719 60.6083 65.8871 60.1465C65.2839 59.4208 64.4673 58.9761 63.6068 58.6627C61.7494 57.9866 59.8171 57.6904 57.8459 57.5995C56.3025 57.5277 54.7631 57.5358 53.2227 57.651C52.9953 57.6682 52.7969 57.7865 52.5706 57.7713" stroke="#4C4C4C" stroke-linecap="round" stroke-linejoin="round"/>
<path d="M63.7756 18.6482C63.7636 17.2665 63.3489 16.0335 62.6549 14.8338C61.8912 13.5138 60.7316 13.1297 59.3707 13.0297C59.1723 13.0155 58.9719 13.0277 58.7725 13.0277" stroke="#4C4C4C" stroke-linecap="round" stroke-linejoin="round"/>
<path d="M66.3372 18.648C66.3491 17.2664 66.7639 16.0334 67.4579 14.8337C68.2216 13.5137 69.3811 13.1296 70.7421 13.0296C70.9405 13.0154 71.1409 13.0275 71.3403 13.0275" stroke="#4C4C4C" stroke-linecap="round" stroke-linejoin="round"/>
<path d="M63.7756 5.02285C63.7636 6.40448 63.3489 7.63753 62.6549 8.83723C61.8912 10.1572 60.7316 10.5413 59.3707 10.6413C59.1723 10.6555 58.9719 10.6434 58.7725 10.6434" stroke="#4C4C4C" stroke-linecap="round" stroke-linejoin="round"/>
<path d="M66.3372 5.02285C66.3491 6.40448 66.7639 7.63753 67.4579 8.83723C68.2216 10.1572 69.3811 10.5413 70.7421 10.6413C70.9405 10.6555 71.1409 10.6434 71.3403 10.6434" stroke="#4C4C4C" stroke-linecap="round" stroke-linejoin="round"/>
<path d="M20.4321 25.0954C19.8159 24.9489 19.2047 24.7669 18.5815 24.6648C18.0571 24.5789 17.6314 24.2403 17.1149 24.1585L17.6503 23.7623C18.2884 23.2013 19.0581 22.8052 19.6584 22.2159C20.4689 21.4185 21.4431 21.4458 22.3863 21.5953C23.4631 21.7672 24.5309 22.0552 25.5469 22.5009C26.3595 22.8577 27.2309 23.1023 28.0963 22.8729C29.4244 22.5211 30.7803 22.4959 32.1244 22.3342L34.1912 22.2291C34.1932 21.8116 33.8722 21.6519 33.593 21.4579C32.2231 20.5008 30.6537 20.0399 29.0814 19.577C28.4552 19.392 27.7613 19.387 27.2299 18.9231L27.5071 18.5976C27.6377 18.445 27.852 18.4248 28.0435 18.3651C29.6587 17.8669 31.3367 17.8345 32.9958 17.7294C34.4993 17.6344 36.0148 17.6556 37.5074 17.9356C38.4685 18.1165 39.4755 18.1994 40.33 18.7128C42.345 19.9236 44.2733 21.2648 45.9902 22.8921C47.5934 24.4112 48.8886 26.2041 50.2805 27.9112C50.2805 27.9112 50.5487 28.2933 50.6145 28.8411C50.3513 28.9836 50.1249 28.8491 49.9086 28.7289C47.7251 27.513 45.4917 26.4164 43.1117 25.6371C41.67 25.1651 40.2064 24.8468 38.7058 24.6436C36.1953 24.303 33.6748 24.1241 31.1453 24.1676C29.2289 24.2009 27.3306 24.399 25.4292 24.7285C23.2367 25.1085 21.2008 25.8848 19.1848 26.756C18.2545 27.1582 17.2934 27.4837 16.4469 28.1032C15.7091 28.643 15.4488 29.5688 15.7539 30.4946C15.9364 31.0454 16.1817 31.5669 16.5197 32.0339C16.8696 32.518 17.3173 32.5594 17.8786 32.3785C19.5507 31.8408 21.1838 31.1859 22.8768 30.7088C24.2776 30.3137 25.6865 29.965 27.1202 29.7244C29.6946 29.2918 32.2968 29.1625 34.8961 28.9987C36.5073 28.8966 38.0627 29.1564 39.6311 29.4879C42.022 29.9933 44.378 30.6179 46.6941 31.387C48.7221 32.0601 50.6364 33.0031 52.466 34.126C53.484 34.7506 53.9117 35.6633 54.0613 36.8286C54.1689 37.6635 54.1779 38.4619 53.9257 39.2543C53.7053 39.9476 53.5647 40.0386 52.9027 39.7374C51.7491 39.2139 50.6554 38.562 49.5337 37.9717C47.4309 36.864 45.2005 36.1292 42.9432 35.4591C41.5594 35.0488 40.1755 34.6384 38.7597 34.3383C37.7656 34.128 36.7726 33.939 35.7685 33.7854C34.6828 33.6186 33.595 33.4792 32.5032 33.4822C30.4902 33.4883 28.4931 33.6328 26.516 34.1098C25.0434 34.4646 23.5458 34.7102 22.1171 35.2378C21.5378 35.451 20.9445 35.6299 20.4261 35.9999C19.4201 36.7174 19.2037 37.3512 19.6753 38.4821C19.8129 38.8126 19.9844 39.1532 20.2217 39.413C20.8089 40.0588 20.9635 40.0942 22.1181 39.7586C23.496 39.3574 24.8828 38.9289 26.3066 38.7853C28.0365 38.6105 29.7713 38.4316 31.5281 38.6226C32.3317 38.7095 33.1623 38.7015 33.9699 38.7833C35.0776 38.8955 36.1873 39.0188 37.292 39.1846C38.5503 39.3736 39.7986 39.5909 41.0449 39.8476C42.6003 40.167 44.1198 40.5965 45.6073 41.1372C47.3063 41.7558 49.0122 42.3652 50.6115 43.2274C51.1848 43.5366 51.7661 43.8449 52.2935 44.2239C53.5229 45.1083 53.8569 46.4394 53.801 47.8513C53.7532 49.0399 53.2277 50.1001 52.5128 51.0451C52.4102 51.1816 52.2795 51.412 52.0911 51.3059C51.9635 51.2341 51.8628 51.0411 51.8578 50.8278C51.8379 50.0193 51.784 49.2117 51.7591 48.4032C51.7471 48.0201 51.6733 47.6482 51.5308 47.3045C51.2616 46.6547 50.5218 46.4788 50.0651 46.9104C49.9405 47.0276 49.9046 47.1408 49.9036 47.3005C49.8946 48.2081 50.0362 49.1026 50.099 50.0021C50.1957 51.3736 50.4629 52.7765 50.0033 54.1288C49.7251 54.9475 49.2326 55.6489 48.4369 56.0582C47.8916 56.3392 47.5546 56.1219 47.5117 55.5104C47.399 53.8771 47.5247 52.2388 47.404 50.6065C47.2983 49.1703 47.3123 47.725 46.9813 46.306C46.7091 45.1396 46.056 44.3412 45.0131 43.8277C44.4428 43.5468 43.8785 43.2951 43.2194 43.2557C42.8954 43.2365 42.677 43.3062 42.4367 43.4891C42.6142 44.4422 43.0669 45.2882 43.3281 46.1978C43.6402 47.2833 43.8565 48.387 44.045 49.5028C44.2803 50.8935 44.4398 52.2944 44.5515 53.6942C44.6322 54.715 44.8047 55.752 44.6711 56.7758C44.5525 57.6854 44.5784 58.6497 43.9293 59.4269C43.35 60.1212 42.6142 60.478 41.7478 60.573C41.2632 60.6256 41.0319 60.3931 41.0449 59.9191C41.0598 59.4016 41.1207 58.8771 41.2244 58.3808C41.3978 57.5571 41.4587 56.7243 41.5165 55.8955C41.6621 53.8205 41.6052 51.7385 41.4058 49.6716C41.2563 48.1182 41.0279 46.5617 40.4377 45.0982C40.1406 44.3624 39.8195 43.6387 39.2502 43.0535C38.3808 42.1601 37.304 42.15 36.2023 42.2975C35.7825 42.3541 35.6529 42.8039 35.8214 43.3871C36.1444 44.5079 36.4934 45.6227 36.7945 46.7497C37.1524 48.0899 37.3907 49.4553 37.628 50.8238C37.8534 52.1225 37.987 53.4304 38.0268 54.7393C38.0548 55.6711 37.959 56.6141 37.8454 57.55C37.7227 58.5567 37.5712 59.5522 37.284 60.5225C37.0687 61.2522 36.8214 61.9779 36.3069 62.5611C35.6978 63.2514 34.2949 63.2706 33.591 62.836C33.1882 62.5873 32.9908 61.9011 33.1573 61.2957C33.5412 59.9039 33.7416 58.4839 33.931 57.0538C34.2361 54.7554 34.2311 52.452 33.9978 50.1668C33.7605 47.8483 33.3976 45.5318 32.3926 43.3871C32.3228 43.2385 32.26 43.0849 32.1732 42.9474C31.6109 42.0489 30.4094 41.7528 29.5101 42.2854C29.0894 42.534 28.887 42.9717 29.0256 43.4962C29.4882 45.2387 29.7993 47.0114 30.1303 48.7832C30.5391 50.9764 30.6896 53.1878 30.7315 55.4003C30.7624 57.0527 30.5769 58.7123 30.3496 60.3618C30.1971 61.4695 29.9957 62.5651 29.8112 63.6648C29.7195 64.2095 29.8102 64.2651 30.3247 64.3359C31.1213 64.446 31.923 64.4582 32.7196 64.4733C33.6967 64.4915 34.6858 64.445 35.6539 64.3116C37.4137 64.07 39.1455 63.6718 40.8225 63.0593C43.0898 62.2306 45.2105 61.1057 47.1208 59.628C49.3044 57.9391 51.1908 55.94 52.6774 53.58C53.8608 51.7011 54.8001 49.7141 55.4641 47.5784C56.3554 44.7141 56.6645 41.8013 56.491 38.8126C56.3106 35.6966 55.5169 32.7484 54.1959 29.9437C53.129 27.6788 51.7202 25.6462 50.0143 23.8239C47.4808 21.1173 44.4667 19.1484 41.0379 17.8234C39.5613 17.2534 38.0278 16.8511 36.4695 16.6217C34.4694 16.3276 32.4594 16.273 30.4334 16.4782C28.2329 16.7015 26.1202 17.2241 24.0732 18.0417C21.5228 19.0605 19.2286 20.4967 17.1588 22.3291C14.1686 24.9751 12.0021 28.1861 10.5923 31.9267C9.97609 33.56 9.55434 35.2479 9.32003 36.9914C9.05582 38.9592 9.03289 40.9129 9.21235 42.8908C9.51346 46.215 10.5394 49.2966 12.1157 52.1973C13.3999 54.5614 15.059 56.6414 17.0601 58.4243C19.2226 60.3507 21.6455 61.8596 24.3464 62.8855C25.2697 63.2362 26.2089 63.5425 27.1691 63.785C27.3914 63.8416 27.536 63.8214 27.6586 63.6597C27.8171 63.4495 27.9856 63.2372 28.0913 62.9987C28.6726 61.6797 28.5659 61.6231 27.6018 60.9702C24.7273 59.0216 21.9844 56.9011 19.5168 54.4462C18.0481 52.9847 16.741 51.3655 15.5266 49.6706C14.053 47.6128 12.7668 45.4469 11.677 43.1607C11.2124 42.1864 10.7727 41.1938 10.5374 40.1306C10.4517 39.7425 10.5943 39.3493 10.6989 38.9774C11.0738 37.6392 11.5943 36.3516 12.1078 35.0639C12.2124 34.8012 12.37 34.5748 12.6043 34.3989C13.1836 34.9972 13.3092 35.8179 13.5614 36.5567C15.2724 41.583 17.8437 46.0947 21.4201 49.9849C23.0622 51.7708 24.9686 53.2768 26.9058 54.7291C27.1222 54.8909 27.3994 55 27.6636 55.0576C28.2538 55.187 28.7185 54.8494 28.9159 54.241C29.227 53.2818 28.887 52.4621 28.3625 51.7102C27.6117 50.6328 26.6875 49.6999 25.8071 48.7357C22.7153 45.3519 19.7431 41.873 17.2844 37.9788C16.5466 36.8104 15.9523 35.5531 15.3631 34.2968C14.7459 32.9809 14.2414 31.6326 13.8885 30.2186C13.8147 29.9215 13.7409 29.6375 13.7399 29.3333" stroke="#4C4C4C" stroke-linecap="round" stroke-linejoin="round"/>
</g>
<defs>
<clipPath id="clip0_1658_4459">
<rect width="80" height="80" rx="8" fill="white"/>
</clipPath>
</defs>
</svg>
