<svg width="80" height="80" viewBox="0 0 80 80" fill="none" xmlns="http://www.w3.org/2000/svg">
<g clip-path="url(#clip0_1658_4463)">
<rect width="80" height="80" rx="8" fill="white"/>
<circle cx="40" cy="86" r="66" fill="#EBE3F5"/>
<path d="M55.2431 36.1324C57.3682 37.7637 58.7947 39.8005 59.8059 42.1449C60.1088 42.8433 60.1821 42.9166 60.9197 42.7408C62.1166 42.4575 63.2988 42.14 64.5202 41.9691C65.2041 41.8714 65.8685 41.9691 66.5182 42.1302C66.9823 42.2475 67.4318 42.4917 67.5001 43.0241C67.5685 43.5467 67.2217 43.8984 66.8064 44.1572C65.6828 44.8557 64.4322 45.1292 63.1327 45.2024C62.527 45.2366 61.9114 45.2073 61.3057 45.2073C61.1787 45.7104 61.3448 46.1109 61.418 46.4968C61.76 48.2698 61.5206 49.989 61.0077 51.6888C60.8465 52.2211 60.6852 52.7584 60.4654 53.2615C60.2602 53.7206 60.3775 54.0283 60.7439 54.3263C61.5402 54.9661 62.3218 55.6352 63.1132 56.28C63.8851 56.91 64.6032 57.5987 65.2774 58.3313C65.5607 58.6439 65.9418 58.981 65.634 59.4791C65.4288 59.8113 65.0966 59.8504 64.4371 59.572C62.8738 58.9028 61.3838 58.0871 59.8694 57.3154C59.7668 57.2617 59.6593 57.208 59.5568 57.1542C58.5406 56.6414 58.609 56.4851 57.9642 57.5792C57.0409 59.1519 55.9221 60.5683 54.4517 61.6917C54.0023 62.0336 53.5333 62.3023 52.9812 62.4292C52.8054 62.4683 52.6246 62.4537 52.5318 62.2534C52.4585 62.0971 52.5318 61.9555 52.6344 61.8578C52.947 61.555 53.2744 61.2668 53.6261 60.9444C53.4698 60.7295 53.245 60.6953 53.0252 60.6807C52.2631 60.6221 51.8234 60.2948 51.6769 59.4694C51.5401 58.6977 51.3496 57.9308 51.2128 57.1542C50.9294 55.5278 50.2357 54.1016 49.0975 52.8952C48.9509 52.7438 48.8044 52.6265 48.5894 52.5777C47.3632 52.2944 46.1517 51.9476 44.9157 51.7229C43.8556 51.5325 42.8248 51.8109 41.8234 52.1625C41.5498 52.2602 41.2713 52.3628 41.0027 52.4751C40.7242 52.5923 40.4799 52.5582 40.3089 52.2993C40.1087 52.0013 40.3236 51.8206 40.5141 51.6253C40.6314 51.5032 40.8317 51.4641 40.8805 51.2736C39.3026 50.9415 39.3172 50.9268 39.2489 49.3003C39.1609 47.2294 38.5698 45.2708 37.7491 43.3855C37.412 42.6089 37.0114 41.8567 36.5571 41.1387C36.1516 40.494 36.2054 40.2449 36.7183 39.6735C37.9982 38.2473 39.4785 37.0604 41.0857 36.0396C41.8966 35.5218 42.2044 34.8283 42.2435 33.9198C42.2826 32.9185 42.1067 31.9368 41.9944 30.9551C41.838 29.5875 42.0188 28.2736 42.5415 27.0086C42.7418 26.525 43.0007 25.9584 43.6162 26.0024C44.2318 26.0464 44.4077 26.6129 44.5298 27.1453C44.7008 27.8584 44.8082 28.5813 44.8376 29.3091C44.9011 30.7108 44.9548 32.1126 45.0183 33.5144C45.0232 33.6609 45.0232 33.8075 45.0427 33.954C45.1404 34.838 45.4238 35.1116 46.3178 35.2239C47.6221 35.3802 48.9265 35.5756 50.1967 35.9175C50.3921 35.9712 50.607 35.9956 50.7829 36.0933C51.4424 36.445 51.8821 36.1617 52.2778 35.6439C53.0887 34.5743 53.9094 33.5046 54.7302 32.4399C55.3066 31.6926 55.9857 31.0527 56.7575 30.5106C57.1435 30.2419 57.5734 30.0515 58.0179 29.9049C58.3941 29.7779 58.7654 29.6851 59.0731 30.027C59.3711 30.3494 59.3272 30.7401 59.1757 31.1016C58.7605 32.0833 58.1107 32.9136 57.461 33.7391C56.7917 34.5889 56.0052 35.3314 55.2236 36.147L55.2431 36.1324Z" fill="#FFDC7D"/>
<path d="M10.3968 51.2785C10.4114 49.7693 10.6068 48.3528 10.9586 46.9755C11.8721 43.4051 13.6357 40.3085 16.4544 37.9005C18.5991 36.0689 21.0563 34.8576 23.9044 34.462C27.2899 33.9931 30.4213 34.5988 33.2889 36.4401C37.1922 38.9458 39.4248 42.5748 40.3188 47.0781C40.5777 48.3724 40.7145 49.6667 40.6705 50.9855C40.6608 51.2443 40.6168 51.513 40.7487 51.7816C41.0955 51.8744 41.3496 51.6204 41.6231 51.4934C44.2465 50.2724 47.6711 50.5557 49.9085 52.6412C51.2519 53.8965 51.9896 55.5278 52.0922 57.3839C52.1606 58.6049 52.2046 59.8358 51.6769 61.1301C52.312 61.0568 52.8103 60.9982 53.3135 60.9445C55.4239 60.7296 57.2168 61.3059 58.6189 62.9715C59.6643 64.2121 60.1773 65.6431 60.1724 67.2354C60.1675 68.9937 59.42 70.3906 57.8714 71.304C57.72 71.3919 57.549 71.5238 57.3976 71.514C56.5573 71.4701 55.7415 71.8803 54.8865 71.6068C54.6472 71.5287 54.3638 71.5726 54.1 71.5726C51.1396 71.5726 48.1742 71.4505 45.2236 71.6068C42.268 71.768 39.3075 71.5726 36.3618 71.7729C32.7027 72.022 29.0437 71.8559 25.3895 71.8852C24.3441 71.895 23.284 71.6166 22.2483 71.7729C21.3104 71.9145 20.3773 71.9585 19.4491 71.895C14.4173 71.5482 9.38062 71.8706 4.34395 71.7192C2.86373 71.6752 1.43235 71.3284 0.0547185 70.6593C-2.74452 69.3063 -4.01468 66.9766 -4.5374 64.0802C-5.08454 61.0471 -4.30779 58.2679 -2.72986 55.7281C-1.05911 53.0417 1.34442 51.2394 4.48074 50.5703C5.94142 50.2577 7.42653 50.2724 8.87256 50.7608C9.34154 50.9171 9.81052 51.0783 10.3968 51.2785Z" fill="white"/>
<path d="M38.8238 52.2212C38.433 51.3811 38.5942 50.4531 38.516 49.5788C38.2034 46.0719 37.0798 42.9265 34.8667 40.1815C32.7905 37.6026 30.1378 35.942 26.8598 35.4633C24.4075 35.1019 21.9697 35.2875 19.6492 36.3132C14.466 38.6137 11.4274 42.7067 9.79574 48.0012C9.33653 49.4958 9.25836 51.0588 8.91151 52.6266C7.97355 52.3043 7.00627 52.2408 6.02434 52.2017C3.53287 52.1089 1.35406 52.9148 -0.560953 54.4289C-2.87167 56.2507 -4.4496 58.5512 -4.8795 61.5355C-5.28009 64.3098 -4.70851 66.8203 -2.76419 68.9108C-1.56731 70.1953 0.000848214 70.6691 1.71556 70.6691C18.5403 70.674 35.365 70.6691 52.1898 70.6691C53.2792 70.6691 54.3539 70.9231 55.4433 70.8449C56.2836 70.7863 57.1581 70.757 57.8127 70.1367C58.8728 69.1208 58.9802 67.8118 58.7848 66.454C58.2426 62.7029 54.5982 60.6515 51.4032 60.8224C51.0662 60.8419 50.6802 60.9348 50.436 60.5635" stroke="#4C4C4C" stroke-linecap="round" stroke-linejoin="round"/>
<path d="M50.1673 60.5294C50.7047 59.7967 50.7145 58.9224 50.5826 58.1165C50.1527 55.4888 48.6822 53.4911 46.3715 52.2554C44.2513 51.1174 41.9846 50.6827 39.7032 51.9624C39.3221 52.1773 38.7603 52.104 38.604 52.6657" stroke="#4C4C4C" stroke-linecap="round" stroke-linejoin="round"/>
<path d="M53.9485 35.0872C54.6617 34.9504 55.1795 34.4718 55.7023 34.0273C56.7672 33.1286 57.6319 32.0541 58.3256 30.8574C58.5015 30.5546 58.7213 30.0955 58.4233 29.734C58.0569 29.2847 57.544 29.5631 57.2167 29.7487C55.4336 30.7402 54.095 32.1127 53.6895 34.208C53.6602 34.3545 53.5528 34.5597 53.6114 34.6378C54.2269 35.4193 53.5674 35.4291 53.074 35.6245C52.395 35.8931 51.8136 35.8101 51.1248 35.5512C49.1512 34.8137 47.1043 34.4571 44.9792 34.7209C44.6079 34.7697 44.2024 34.7306 43.8409 34.6281C43.4941 34.5304 43.1179 34.3594 42.8883 34.1006C42.5415 33.7147 43.0446 33.407 43.113 33.0553C43.4648 31.2237 43.8653 29.3775 43.2205 27.5215C43.0446 27.0184 42.8834 26.4176 42.2532 26.403C41.6572 26.3883 41.496 27.0184 41.3983 27.4384C40.8756 29.6754 41.0515 31.7903 42.6929 33.5828" stroke="#4C4C4C" stroke-linecap="round" stroke-linejoin="round"/>
<path d="M53.6846 35.5267C54.3001 37.2948 55.8683 38.3254 56.9479 39.737C57.5097 40.4647 58.1057 41.1778 58.4135 42.0375C58.858 43.2829 59.6983 43.7958 60.9782 43.9912C62.5952 44.2403 64.1585 44.0644 65.7267 43.7714C66.0979 43.703 66.5132 43.5711 66.6109 43.0827C66.7086 42.5747 66.2934 42.3647 65.9856 42.2182C64.3539 41.4513 61.5107 41.803 60.2747 43.3416C60.2015 43.4295 60.1868 43.5076 60.1917 43.6102" stroke="#4C4C4C" stroke-linecap="round" stroke-linejoin="round"/>
<path d="M59.8399 43.874C59.5077 44.6067 59.4491 45.3442 59.8497 46.0671C59.9376 46.2282 59.9181 46.365 59.923 46.5115C60.0451 48.8462 59.8888 51.1613 59.029 53.3593C58.731 54.1261 58.9557 54.512 59.5566 54.9711C60.1233 55.4058 60.4799 56.0749 61.0612 56.5438C62.0774 57.3644 63.1277 58.1165 64.3246 58.6343C64.5981 58.7515 64.9059 58.9078 65.199 58.8052C65.8194 58.5805 65.5605 58.1019 65.3651 57.7698C64.4858 56.2459 63.0837 55.44 61.4179 55.0395C60.9245 54.9222 60.4213 54.678 59.923 55.0395" stroke="#4C4C4C" stroke-linecap="round" stroke-linejoin="round"/>
<path d="M42.7807 34.2959C42.302 35.136 41.5497 35.6098 40.6752 35.9761C39.3122 36.5475 38.0958 37.3486 37.0504 38.4133C36.8892 38.5794 36.9136 38.7064 36.8892 38.8676" stroke="#4C4C4C" stroke-linecap="round" stroke-linejoin="round"/>
<path d="M59.1366 54.7708C58.2915 55.0296 57.7639 55.6401 57.2754 56.3435C56.7184 57.1445 56.0589 57.8674 55.3555 58.5512" stroke="#4C4C4C" stroke-linecap="round" stroke-linejoin="round"/>
</g>
<defs>
<clipPath id="clip0_1658_4463">
<rect width="80" height="80" rx="8" fill="white"/>
</clipPath>
</defs>
</svg>
