<svg width="80" height="80" viewBox="0 0 80 80" fill="none" xmlns="http://www.w3.org/2000/svg">
<g clip-path="url(#clip0_1659_4491)">
<rect width="80" height="80" rx="8" fill="white"/>
<circle cx="40" cy="86" r="66" fill="#FFE3E3"/>
<path d="M12.3388 38.3599C12.4654 36.472 12.7748 34.6158 13.274 32.7842C14.29 29.0576 15.9951 25.6791 18.3962 22.6627C20.6075 19.8854 23.2689 17.6178 26.3591 15.853C29.2173 14.2182 32.2688 13.1425 35.5102 12.5483C37.8305 12.1229 40.1649 12.0632 42.4922 12.2249C45.6773 12.4499 48.7394 13.269 51.6679 14.5663C55.2679 16.1624 58.3722 18.4299 61.0159 21.3268C63.2624 23.7912 65.0026 26.5861 66.2436 29.6834C66.9749 31.5045 67.5163 33.3783 67.8467 35.3084C68.0014 36.2154 68.1069 37.133 68.1702 38.0576C68.2194 38.7923 68.2792 39.5236 68.2651 40.2583C68.2159 42.7896 67.8749 45.2751 67.1928 47.7149C66.7323 49.3602 66.1206 50.9493 65.3612 52.4786C64.2116 54.7848 62.7737 56.8977 61.037 58.8207C58.896 61.1902 56.4316 63.1168 53.6331 64.6461C51.0246 66.0734 48.2613 67.0367 45.3433 67.5711C44.2887 67.7644 43.227 67.8769 42.1582 67.9718C41.3145 68.0457 40.4778 68.0668 39.6375 68.0527C38.27 68.0281 36.9129 67.884 35.5665 67.6484C33.7418 67.332 31.9594 66.8433 30.2262 66.1754C27.8145 65.2437 25.5716 64.0133 23.5009 62.4699C22.0771 61.4117 20.7693 60.2199 19.574 58.9121C18.0763 57.2774 16.8037 55.4774 15.7384 53.5297C14.4377 51.1532 13.492 48.6466 12.9189 45.9958C12.6869 44.9306 12.5463 43.8513 12.4267 42.765C12.272 41.3763 12.3388 39.9911 12.3283 38.6025C12.4478 38.5216 12.4513 38.4372 12.3318 38.3494L12.3388 38.3599Z" fill="white"/>
<path d="M38.7211 12C38.4117 12.0984 38.0953 12.1336 37.7719 12.1266C35.6977 12.0914 33.6797 12.4957 31.704 13.0336C28.7649 13.8351 26.0087 15.0937 23.4704 16.8058C20.5525 18.7746 18.0915 21.1968 16.0595 24.0761C14.4459 26.3648 13.2154 28.8433 12.3506 31.487C11.6299 33.6948 11.1974 35.9764 11.0568 38.3108C10.881 41.2428 11.106 44.1291 11.8303 46.9768C12.4209 49.2971 13.2646 51.5189 14.4177 53.6213C15.722 55.9978 17.3111 58.1669 19.2376 60.0618C22.1134 62.8919 25.4286 65.0505 29.2255 66.4673C30.9376 67.1071 32.6954 67.5852 34.4848 67.8876C36.0668 68.1548 37.677 68.32 39.2906 68.2848C42.5883 68.2145 45.8121 67.6696 48.9058 66.5095C52.8011 65.047 56.2323 62.8321 59.1538 59.872C62.5112 56.4689 64.821 52.4259 66.1604 47.8521C66.5436 46.5443 66.7827 45.1838 66.9725 43.8162C67.2256 41.9811 67.31 40.1354 67.1729 38.3108C66.7475 32.6542 64.8632 27.5109 61.3722 23.0074C58.1062 18.7921 53.9648 15.7301 48.9726 13.8351C47.2289 13.1742 45.4254 12.7066 43.5938 12.3937C42.0082 12.1195 40.391 12.102 38.7879 12" stroke="#4C4C4C" stroke-linecap="round" stroke-linejoin="round"/>
<path d="M36.8223 21.3586C36.1895 21.5906 35.511 21.5836 34.8571 21.7242C31.5805 22.4309 28.6907 23.8828 26.1946 26.1047C23.5966 28.4215 21.779 31.2586 20.7595 34.5808C20.1056 36.7148 19.849 38.905 19.965 41.155C20.074 43.2397 20.5134 45.2401 21.2728 47.1561C22.0357 49.0792 23.0974 50.8545 24.4825 52.412C26.286 54.444 28.3884 56.0893 30.8739 57.2178C32.4489 57.935 34.0907 58.4096 35.8063 58.6943C37.0754 58.9053 38.3375 58.9615 39.6067 58.9193C41.6106 58.8525 43.5582 58.4447 45.4285 57.7205C48.0265 56.7151 50.3328 55.2455 52.2593 53.2311C54.671 50.7034 56.3163 47.7538 57.0827 44.319C57.4659 42.6034 57.6804 40.8773 57.5679 39.13C57.3218 35.4281 56.1652 32.0144 53.9609 29.0191C51.7074 25.9535 48.7613 23.7492 45.1754 22.4379C43.85 21.9528 42.4789 21.6469 41.0656 21.4641C39.67 21.2813 38.2778 21.4219 36.8856 21.3551" stroke="#4C4C4C" stroke-linecap="round" stroke-linejoin="round"/>
<path d="M55.9684 30.4183C55.9368 30.6609 55.9052 30.9035 55.877 31.1461C55.7891 31.2164 55.7716 31.3113 55.7786 31.4168C55.4727 34.3839 54.1017 36.6621 51.4544 38.1245C50.4911 38.6554 49.4821 39.0773 48.4626 39.4745C47.3341 39.914 46.2689 40.487 45.397 41.3273C44.7185 41.9847 44.0962 42.7089 43.5091 43.4507C40.4084 47.3354 37.4553 51.3327 34.692 55.467C33.8588 56.7115 32.9588 57.9069 31.869 58.944C31.0709 59.7033 30.1428 60.2272 29.0002 60.2342C28.0721 60.2412 27.5272 59.8369 27.2459 58.9861C27.1897 58.8104 27.2495 58.6522 27.2776 58.4904C27.3725 57.9596 27.6608 57.5096 27.9455 57.0701C29.6366 54.4897 31.5596 52.0956 33.7709 49.9405C36.84 46.9522 39.7017 43.7847 42.2927 40.378C43.2841 39.0738 43.8958 37.5902 44.2544 35.9765C44.708 33.948 45.1896 31.9125 46.29 30.0984C47.1548 28.6746 48.2271 27.4547 49.6474 26.5547C50.5439 25.9852 51.5353 25.6512 52.5653 25.6688C53.8063 25.6863 54.9981 26.0098 55.6098 27.293C55.9157 27.9293 55.9438 28.6254 56.0036 29.3144C56.0247 29.5429 56.0001 29.7785 55.9966 30.0105C55.87 30.1371 55.8805 30.2777 55.9649 30.4219L55.9684 30.4183Z" fill="#AFC199"/>
<path d="M55.9678 30.4183C55.8834 30.2741 55.8729 30.1335 55.9994 30.007C56.1611 30.1581 56.1154 30.2917 55.9678 30.4183Z" fill="#AFC199"/>
<path d="M55.7749 31.4167C55.7714 31.3112 55.7854 31.2163 55.8733 31.146C56.0315 31.3077 55.9226 31.371 55.7749 31.4167Z" fill="#AFC199"/>
<path d="M51.6307 25.7881C50.7026 26.0166 49.8026 26.2732 48.9623 26.783C46.9866 27.9853 45.6788 29.7045 44.7928 31.7927C44.1565 33.2904 43.9034 34.8654 43.7803 36.4755C43.6714 37.9099 43.0245 39.0911 42.0753 40.1458C39.7585 42.7192 37.403 45.254 35.0019 47.7501C33.005 49.8243 30.9273 51.8317 29.166 54.1239C28.4171 55.0977 27.714 56.0996 27.2043 57.2211C27.0601 57.5445 27.0144 57.8891 26.9371 58.2301C26.7332 59.1301 27.9004 59.8508 28.723 59.3727C29.6406 58.8348 30.4421 58.1703 31.1347 57.3547C33.346 54.7356 35.3605 51.9618 37.4663 49.2583C39.762 46.3087 41.9733 43.2923 44.4131 40.4552C45.3975 39.3091 46.6069 38.6904 48.087 38.4232C50.8748 37.9204 52.8084 36.2611 54.0318 33.7544C54.7174 32.3447 55.1955 30.8611 55.1744 29.2685C55.1428 26.8533 54.0775 25.8021 51.6975 25.7881" stroke="#4C4C4C" stroke-linecap="round" stroke-linejoin="round"/>
<path d="M26.767 30.5378C26.4436 29.9401 25.9549 29.4655 25.5577 28.9241C25.1604 28.3792 24.7421 27.8518 24.3483 27.3034C24.176 27.0644 24.0354 26.8042 23.8983 26.544C23.8069 26.3647 23.7999 26.1749 23.9616 26.0202C24.1268 25.8655 24.3131 25.9077 24.4924 25.9886C24.8194 26.1398 25.1112 26.3472 25.3854 26.5792C25.7581 26.8921 26.1167 27.2155 26.4928 27.5214C26.6229 27.6269 26.7635 27.8835 26.9499 27.7042C27.0905 27.5741 26.8901 27.4054 26.8057 27.2753C26.4752 26.762 26.1307 26.2558 25.8038 25.7425C25.6807 25.5491 25.5753 25.3382 25.4733 25.1308C25.3467 24.8706 25.2764 24.5999 25.5331 24.3784C25.7651 24.178 26.0147 24.273 26.2327 24.4171C26.5667 24.6351 26.9006 24.8601 27.2135 25.1062C29.1577 26.639 30.8451 28.4319 32.4658 30.2917C33.1443 31.0686 33.8158 31.8526 34.4275 32.6858C35.3627 33.962 35.8795 35.3823 36.0166 36.9502C36.0553 37.3686 36.1045 37.787 36.1572 38.2053C36.2451 38.8979 36.5721 39.4744 37.0361 39.9877C37.8131 40.8526 38.7166 41.5803 39.5709 42.3608C41.406 44.0377 43.2341 45.7217 45.0728 47.3916C46.3384 48.5377 47.5618 49.7259 48.6904 51.0091C49.8048 52.2818 50.7997 53.6353 51.4888 55.1927C51.756 55.7939 51.9458 56.4161 52.0126 57.07C52.0759 57.7134 51.9915 58.3321 51.6259 58.8876C51.2919 59.3939 50.8243 59.6083 50.2161 59.4958C49.629 59.3868 49.1087 59.1829 48.6446 58.7646C46.7743 57.0771 45.1747 55.1576 43.649 53.1607C41.7189 50.633 39.9435 47.9892 37.9889 45.4826C36.0412 42.9865 33.6998 40.9545 30.7959 39.6502C28.9362 38.8135 27.3541 37.6393 25.9479 36.1838C24.3694 34.5456 22.7768 32.9214 21.353 31.1425C20.9839 30.6819 20.6569 30.1897 20.3475 29.687C20.2702 29.5604 20.1999 29.4268 20.1612 29.2862C20.0382 28.8679 20.33 28.5515 20.7448 28.6815C20.9804 28.7554 21.2054 28.889 21.4163 29.0296C22.26 29.5921 23.0264 30.2495 23.7085 31.0018C24.2885 31.6417 24.8686 32.2815 25.4557 32.9143C25.5717 33.0409 25.6667 33.2307 25.9233 33.1885C25.969 32.9319 25.7756 32.8053 25.6526 32.6542C24.6753 31.4378 23.719 30.2108 22.8155 28.9382C22.5835 28.6112 22.3374 28.2948 22.1827 27.9222C22.0983 27.7183 22.0667 27.5073 22.253 27.3386C22.4464 27.1593 22.6538 27.2472 22.8331 27.3597C23.371 27.6972 23.821 28.1472 24.2991 28.5585C24.9354 29.1104 25.5506 29.687 26.1729 30.253C26.6897 30.8823 27.2768 31.4307 27.9413 31.8948C27.9623 31.9581 27.9799 31.9686 27.9905 31.9264C27.9905 31.9229 27.9553 31.9124 27.9377 31.9018C27.653 31.3534 27.3049 30.8577 26.767 30.5237V30.5378ZM27.6916 35.3225C27.6916 35.3225 27.7163 35.3401 27.7303 35.3471C27.7163 35.3401 27.7022 35.3331 27.6881 35.326C27.3541 34.5456 26.8409 33.962 26.2081 33.7651C26.6827 34.419 27.1573 34.8936 27.6916 35.319V35.3225ZM27.2452 28.0663C27.3471 28.4038 27.6038 28.5866 27.878 28.7554C27.7163 28.4811 27.6424 28.1296 27.2452 28.0663Z" fill="#FFDC7D"/>
<path d="M26.7674 30.5377C27.3053 30.8717 27.6533 31.3674 27.9381 31.9158L27.9451 31.9088C27.2807 31.4412 26.6936 30.8927 26.1768 30.267C26.3736 30.3584 26.5705 30.4498 26.7674 30.5412V30.5377Z" fill="#FFDC7D"/>
<path d="M27.6911 35.3226C27.1567 34.8972 26.6821 34.4191 26.2075 33.7687C26.8403 33.9656 27.3536 34.5456 27.6876 35.3296H27.6911V35.3226Z" fill="#FFDC7D"/>
<path d="M27.2417 28.0665C27.639 28.1298 27.7128 28.4814 27.8745 28.7556C27.6003 28.5868 27.3401 28.404 27.2417 28.0665Z" fill="#FFDC7D"/>
<path d="M27.9375 31.9123C27.9548 31.9192 27.9928 31.9296 27.9893 31.9365C27.9824 31.9779 27.9652 31.9676 27.941 31.9054L27.9341 31.9123H27.9375Z" fill="#FFDC7D"/>
<path d="M27.6846 35.3261C27.6846 35.3261 27.7122 35.3399 27.726 35.3468C27.7122 35.3399 27.7018 35.3295 27.688 35.3226L27.6846 35.3261Z" fill="#FFDC7D"/>
<path d="M27.3797 38.6131C27.3797 38.6131 19.7086 30.71 19.9371 29.0647C20.1656 27.4194 28.7718 36.9713 28.7718 36.9713C28.7718 36.9713 20.9918 28.1155 21.7512 27.4827C22.5106 26.8499 30.4804 35.6424 30.4804 35.6424C30.4804 35.6424 23.1434 27.103 23.3965 26.2803C23.6496 25.4577 31.8726 34.5034 31.8726 34.5034C31.8726 34.5034 24.5355 25.8374 24.852 25.0147C25.1684 24.1921 33.771 34.1237 33.771 34.1237C33.771 34.1237 34.5937 34.6229 34.7835 38.6096C34.7835 38.6096 51.1663 54.4263 51.2928 57.8399C51.4194 61.2536 48.8881 59.9915 48.8881 59.9915L32.1257 40.8912C32.1257 40.8912 29.1304 40.4693 27.3832 38.6096L27.3797 38.6131Z" stroke="#4C4C4C" stroke-miterlimit="10"/>
</g>
<defs>
<clipPath id="clip0_1659_4491">
<rect width="80" height="80" rx="8" fill="white"/>
</clipPath>
</defs>
</svg>
