<svg width="80" height="80" viewBox="0 0 80 80" fill="none" xmlns="http://www.w3.org/2000/svg">
<g clip-path="url(#clip0_1659_4534)">
<rect width="80" height="80" rx="8" fill="white"/>
<circle cx="40" cy="86" r="66" fill="#FFE3E3"/>
<path d="M27.5596 12.122C27.8819 12.122 28.2042 12.1245 28.5265 12.122C29.2736 12.1151 30.017 12.1724 30.7591 12.2511C30.9756 12.2744 31.196 12.2618 31.415 12.2587C32.4725 12.2455 33.528 12.2858 34.5803 12.3916C34.6487 12.3985 34.7184 12.3941 34.7874 12.3947C35.5934 12.3991 36.3995 12.3865 37.2049 12.4149C37.6057 12.4287 38.0033 12.4249 38.4029 12.4079C39.1734 12.3745 39.9415 12.4457 40.7108 12.4633C41.7334 12.4866 42.7535 12.4136 43.7729 12.3431C43.9565 12.3305 44.1414 12.3431 44.325 12.3368C45.877 12.2889 47.4289 12.2612 48.9808 12.2429C49.5874 12.236 50.2003 12.1648 50.805 12.2096C51.6788 12.2744 52.5532 12.2278 53.4239 12.282C53.9291 12.3135 54.4357 12.2952 54.9378 12.3424C55.6217 12.4067 56.3125 12.4048 56.9906 12.5339C57.3116 12.595 57.3635 12.6586 57.3724 12.9892C57.3775 13.1762 57.3369 13.3513 57.28 13.5257C57.1134 14.037 56.888 14.5251 56.6803 15.02C56.3701 15.76 56.1903 16.5408 55.9509 17.3028C55.7052 18.0849 55.471 18.8727 55.3241 19.6832C55.1664 20.5566 54.9745 21.425 54.8314 22.301C54.7808 22.6127 54.7365 22.9307 54.7384 23.2531C54.746 24.3841 54.6649 25.5126 54.6693 26.6442C54.6763 28.364 54.8599 30.0555 55.3361 31.7117C55.7774 33.2495 56.3036 34.7589 56.8367 36.2671C57.1337 37.1072 57.4079 37.9548 57.6662 38.8074C58.0398 40.0411 58.4127 41.276 58.6901 42.5354C58.9864 43.8812 59.2903 45.2263 59.5544 46.5783C59.6766 47.2024 59.6981 47.8447 59.7893 48.4757C59.8925 49.1873 59.933 49.9052 59.9697 50.6193C60.009 51.3813 60.0185 52.1476 59.9444 52.9134C59.8963 53.4128 59.9628 53.9228 59.9089 54.421C59.8254 55.1943 59.9115 55.9732 59.795 56.744C59.7728 56.8895 59.788 57.0413 59.7861 57.1899C59.7753 57.9884 59.6772 58.7799 59.5911 59.5728C59.498 60.4336 59.3657 61.2882 59.2257 62.1414C59.1206 62.7819 58.9763 63.4154 58.8642 64.0546C58.7401 64.7605 58.5919 65.4626 58.533 66.1793C58.4748 66.894 58.4001 67.6075 58.3253 68.3204C58.3076 68.4891 58.2722 68.6585 58.2259 68.8222C58.1569 69.0685 58.0638 69.1428 57.8125 69.1547C57.6288 69.1636 57.4414 69.1736 57.2603 69.1491C56.5081 69.0458 55.7508 69.042 54.9942 69.0074C54.2267 68.9721 53.4581 68.9331 52.6932 68.8682C52.2911 68.8342 51.8916 68.8147 51.4901 68.8134C50.755 68.8122 50.0224 68.7668 49.2917 68.6887C49.1549 68.6743 49.0156 68.6818 48.8776 68.6818C48.3603 68.6806 47.8487 68.6182 47.3364 68.5559C47.2453 68.5445 47.1528 68.5452 47.061 68.5445C46.4981 68.5408 45.9396 68.4828 45.3818 68.4148C45.3476 68.4104 45.3128 68.4098 45.2786 68.4079C43.6583 68.3342 42.0354 68.2971 40.4157 68.3537C39.7154 68.3783 39.012 68.3518 38.3155 68.4161C37.6722 68.4753 37.027 68.4293 36.3874 68.4866C35.249 68.588 34.1099 68.5628 32.9739 68.5193C32.3344 68.4948 31.6873 68.5307 31.0503 68.4154C30.9611 68.3991 30.8667 68.4104 30.7743 68.4104C29.7498 68.4104 28.7246 68.3984 27.7008 68.4142C26.9783 68.4255 26.2571 68.4772 25.5359 68.5231C24.9306 68.5615 24.3183 68.5767 23.7136 68.4696C23.511 68.4337 23.3913 68.3204 23.3116 68.1377C23.1951 67.8714 23.1577 67.5848 23.126 67.3065C22.9943 66.1591 22.6366 65.0577 22.4523 63.9236C22.1801 62.246 21.6963 60.6143 21.4019 58.9437C21.2797 58.2497 21.1701 57.5526 21.091 56.8498C20.9517 55.6118 20.9283 54.3706 20.8738 53.1288C20.8263 52.0425 20.8238 50.9581 20.8402 49.8737C20.8554 48.8957 20.9561 47.9196 21.1245 46.9524C21.2297 46.3472 21.3158 45.7389 21.4177 45.1331C21.5785 44.1759 21.8818 43.2521 22.1117 42.3113C22.2877 41.5909 22.4473 40.866 22.6948 40.1658C23.1932 38.7552 23.6396 37.3263 24.2354 35.9504C24.2987 35.8036 24.3475 35.6506 24.3968 35.4988C24.6697 34.6626 24.9566 33.832 25.2903 33.0165C25.5499 32.3817 25.6708 31.7022 25.8696 31.0473C26.2134 29.9113 26.544 28.7727 26.8346 27.6222C26.9087 27.33 26.9099 27.0353 26.9505 26.7431C27.0784 25.8294 27.1822 24.9118 27.1784 23.9861C27.1765 23.5063 27.1189 23.0321 27.0587 22.5573C27.0499 22.4893 27.048 22.4206 27.0473 22.352C27.0378 21.3942 27.0283 20.4382 26.9226 19.4817C26.8257 18.6064 26.713 17.7411 26.4471 16.8998C26.2679 16.3343 26.0754 15.7732 25.8987 15.2064C25.6442 14.3891 25.3947 13.5704 25.151 12.7499C25.0326 12.3525 25.1946 12.1359 25.6258 12.129C26.2704 12.1176 26.915 12.1258 27.5596 12.1258V12.1233V12.122Z" fill="#CABCDB"/>
<path d="M24.5843 26.3969C24.7015 26.3887 24.7851 26.4473 24.8439 26.5379C25.4132 27.4139 26.3041 27.8648 27.2057 28.3006C27.8231 28.3988 28.3993 28.6664 29.0312 28.7181C29.3807 28.7464 29.7252 28.8453 30.0709 28.9152C30.2665 28.9548 30.416 29.0581 30.4527 29.2621C30.4875 29.4599 30.3951 29.6205 30.2437 29.7407C29.8569 30.0468 29.4554 30.3339 29.0242 30.5758C27.231 31.5789 26.1648 33.106 25.7304 35.0859C25.6943 35.2502 25.6196 35.4008 25.6038 35.5746C25.5867 35.7673 25.4315 35.8183 25.241 35.7452C25.101 35.6917 25.0282 35.5809 24.9573 35.4599C24.6667 34.9669 24.3539 34.4895 23.9752 34.0557C23.3591 33.3497 22.6215 32.7905 21.8408 32.2817C21.6299 32.1444 21.4203 32.0065 21.186 31.9045C20.9252 31.7905 20.9081 31.5934 21.1538 31.4517C22.113 30.8982 22.6652 30.0021 23.1831 29.0827C23.6162 28.3144 23.9581 27.5014 24.2842 26.6834C24.3418 26.5392 24.4045 26.4095 24.5843 26.3962V26.3969Z" fill="#FFDC7D"/>
<path d="M42.3767 43.4273C42.3767 44.0791 42.3767 44.7309 42.3767 45.3833C42.3767 45.4746 42.3837 45.5678 42.3685 45.6572C42.3254 45.9104 42.1836 46.0288 41.9189 46.0307C41.4814 46.0338 41.0439 46.0281 40.607 46.0313C40.355 46.0332 40.1055 46.0275 39.8535 46.0835C39.604 46.139 39.3552 46.0464 39.1127 45.9803C39.0228 45.9557 38.9506 45.8953 38.9309 45.7926C38.9094 45.6805 38.8588 45.5684 38.8651 45.4589C38.8923 44.9891 38.7866 44.5275 38.7885 44.0596C38.791 43.3417 38.7296 42.627 38.6587 41.9129C38.6359 41.6861 38.6485 41.4557 38.6517 41.2271C38.6536 41.0848 38.5973 41.0111 38.4485 41.0212C37.9305 41.0558 37.4208 40.9437 36.9022 40.945C35.9955 40.9475 35.0907 40.853 34.1821 40.8801C33.8344 40.8908 33.6894 40.7271 33.6793 40.3719C33.673 40.132 33.666 39.8908 33.6787 39.6515C33.7129 38.9884 33.6122 38.3303 33.6097 37.6691C33.6084 37.3347 33.7452 37.1748 34.0865 37.1855C34.8805 37.21 35.6681 37.0841 36.4615 37.1074C37.0365 37.1244 37.6127 37.1068 38.1882 37.1105C38.3497 37.1118 38.4225 37.0734 38.4542 36.8895C38.5105 36.5595 38.508 36.2308 38.5092 35.9008C38.5124 35.1231 38.5143 34.3454 38.5143 33.5677C38.5143 33.2597 38.4972 33.2408 38.2313 33.135C37.4936 32.8416 36.8104 32.4386 36.0981 32.0941C35.9664 32.0305 35.8499 31.9304 35.7353 31.8359C34.0573 30.4518 33.0138 28.6948 32.5592 26.5745C32.3509 25.6029 32.3154 24.6243 32.3807 23.6482C32.4427 22.7187 32.765 21.8478 33.2431 21.0379C33.5299 20.5512 33.9326 20.1588 34.2802 19.7224C34.8824 18.9661 35.6504 18.4139 36.4596 17.9094C37.2277 17.4309 38.0723 17.1462 38.9645 17.0001C39.2577 16.9523 39.5515 16.9113 39.8453 16.866C39.9016 16.8572 39.9782 16.8628 40.0093 16.8288C40.2416 16.5751 40.5487 16.638 40.8204 16.6708C41.2503 16.723 41.6828 16.7564 42.1102 16.8465C42.8674 17.0052 43.5829 17.2766 44.2908 17.5744C44.7347 17.7615 45.1811 17.9441 45.5851 18.2136C46.0334 18.5127 46.4481 18.8572 46.8432 19.2187C47.2326 19.5751 47.5156 20.0253 47.7879 20.475C48.4053 21.4945 48.7674 22.5997 48.9625 23.7729C49.0429 24.2565 49.0809 24.7426 49.1372 25.2269C49.1885 25.6671 49.0809 26.1098 49.041 26.5512C48.9587 27.4662 48.6604 28.3308 48.3774 29.1955C48.1197 29.9826 47.6866 30.6785 47.1896 31.3422C46.6938 32.0041 46.0397 32.4877 45.3837 32.9644C44.7157 33.4499 43.9932 33.8529 43.2189 34.1552C43.1866 34.1678 43.1568 34.188 43.1239 34.1961C42.6908 34.3038 42.7161 34.2585 42.7326 34.7604C42.7554 35.4443 42.8124 36.1263 42.7997 36.8114C42.7959 37.0324 42.8149 37.0274 43.0777 37.0457C44.306 37.1294 45.5357 37.1068 46.7653 37.1105C46.7767 37.1105 46.7881 37.1105 46.8001 37.1105C47.2864 37.1131 47.4194 37.2403 47.4213 37.7126C47.4232 38.1817 47.4156 38.6502 47.4238 39.1194C47.4302 39.506 47.3934 39.8939 47.4814 40.28C47.5137 40.4198 47.5017 40.574 47.4675 40.722C47.382 41.0923 47.2161 41.2088 46.8331 41.149C46.7204 41.1314 46.6134 41.0885 46.4956 41.0904C45.473 41.1068 44.4536 40.9903 43.4297 41.0161C43.1296 41.0237 42.8396 41.103 42.5395 41.0917C42.3938 41.086 42.3805 41.1937 42.3805 41.3039C42.3805 41.6811 42.3805 42.0589 42.3799 42.4362C42.3799 42.768 42.3799 43.0993 42.3799 43.4311L42.3767 43.4273ZM45.2134 25.3245C45.3362 22.9082 43.2119 20.8761 40.8546 20.8345C38.3433 20.7898 36.2557 22.7735 36.2329 25.3107C36.2114 27.7093 38.2902 29.7547 40.6823 29.7861C43.0954 29.8183 45.3419 27.7458 45.2134 25.3245Z" fill="#FFF5F2"/>
<path d="M41.0317 67.5769C41.7915 67.6096 42.5551 67.5007 43.3111 67.6443C43.3554 67.6524 43.4029 67.6474 43.4491 67.6449C44.3831 67.6039 45.3164 67.682 46.2459 67.7299C48.2607 67.8344 50.2749 67.8571 52.2909 67.8477C53.1888 67.8439 54.0879 67.7715 54.9845 67.7929C55.6867 67.8099 56.3908 67.7841 57.0917 67.8489C57.3577 67.8735 57.5122 67.8074 57.5527 67.4749C57.6515 66.6745 57.7357 65.8722 57.8268 65.0712C57.9187 64.2683 58.032 63.466 58.1479 62.665C58.3011 61.5988 58.5018 60.5409 58.6519 59.4748C58.7994 58.4238 58.9482 57.3746 59.0343 56.316C59.0723 55.8469 59.0976 55.3765 59.1242 54.9073C59.223 53.1649 59.1071 51.4275 58.9995 49.6888C58.9115 48.2605 58.6468 46.8657 58.3809 45.4645C58.0694 43.8197 57.7496 42.1792 57.3355 40.5564C56.9005 38.853 56.2464 37.2245 55.6405 35.5791C54.7648 33.2018 54.1031 30.7673 53.7137 28.2654C53.5529 27.2333 53.442 26.1904 53.5041 25.1425C53.5484 24.3969 53.6206 23.6532 53.6934 22.9095C53.751 22.3232 53.8011 21.7389 53.9131 21.1595C54.0455 20.4737 54.1898 19.7898 54.2899 19.099C54.5102 17.5776 54.9978 16.1217 55.3752 14.6393C55.5778 13.8427 55.9697 13.1053 56.2622 12.3364C56.4801 11.7646 56.2091 11.5801 55.7449 11.5883C54.0056 11.6185 52.2694 11.4755 50.5294 11.5089C49.8734 11.5215 49.2136 11.473 48.5615 11.4957C47.8352 11.5202 47.1102 11.4201 46.384 11.5064C46.1357 11.536 45.878 11.4793 45.6248 11.4806C44.1513 11.4881 42.676 11.468 41.2045 11.5228C39.8001 11.575 38.3944 11.6726 36.9907 11.6361C35.4596 11.5958 33.9254 11.5731 32.3963 11.4497C31.9847 11.4163 31.5675 11.4485 31.1534 11.444C30.4163 11.4359 29.6799 11.4151 28.9429 11.4119C27.6651 11.4063 26.3874 11.4119 25.109 11.4094C24.7563 11.4088 24.4068 11.4377 24.075 11.5536C23.942 11.6002 23.8679 11.4982 23.7622 11.4963" stroke="#4C4C4C" stroke-linecap="round" stroke-linejoin="round"/>
<path d="M41.8255 40.3512C43.1488 40.4167 44.4754 40.3556 45.7974 40.4557C46.0051 40.4715 46.2084 40.4192 46.4205 40.4457C46.6339 40.4727 46.7713 40.3657 46.7681 40.1107C46.7586 39.241 46.7624 38.3713 46.7668 37.5017C46.7668 37.3997 46.7592 37.2995 46.7915 37.1906C46.8758 36.9079 46.7327 36.7372 46.4192 36.7492C45.1282 36.7976 43.8415 36.6119 42.5511 36.6818C42.256 36.6975 42.1484 36.5678 42.1357 36.3002C42.1041 35.6251 42.0661 34.95 42.0338 34.2743C42.0148 33.8839 42.056 33.848 42.4473 33.7233C44.3012 33.1326 45.9171 32.1987 47.0049 30.5312C47.7533 29.3832 48.1535 28.1105 48.2795 26.7554C48.3371 26.1407 48.3618 25.5236 48.3276 24.9014C48.2441 23.3995 47.8198 22.0204 47.0125 20.744C46.3844 19.7502 45.534 19.0286 44.526 18.4379C43.5648 17.8749 42.5517 17.4612 41.4798 17.1835C41.1917 17.1085 40.8884 17.0733 40.5838 17.0714C39.7892 17.067 38.9964 16.975 38.1999 17.1035C36.7562 17.3359 35.4993 17.9322 34.4369 18.9284C33.5371 19.7723 32.8014 20.7244 32.3214 21.8768C31.742 23.2673 31.5382 24.6785 31.7699 26.1729C32.1618 28.6974 33.3288 30.7617 35.374 32.3108C36.0781 32.8442 36.881 33.2246 37.7187 33.5155C37.9795 33.6062 38.065 33.7756 38.0656 34.0338C38.0663 34.8241 38.0409 35.6144 38.1252 36.4034C38.1435 36.5741 38.039 36.6893 37.8225 36.7196C37.3514 36.7857 36.8772 36.8285 36.4054 36.8417C35.4734 36.8669 34.5407 36.8487 33.608 36.8493C33.4808 36.8493 33.3516 36.8361 33.2351 36.8827C33.0705 37.1755 33.1914 37.479 33.1984 37.7756C33.2136 38.394 33.3117 39.0093 33.2971 39.6295C33.2902 39.9148 33.382 40.0962 33.7119 40.1144C34.2995 40.1466 34.8858 40.219 35.4734 40.2435C36.2801 40.2769 37.0823 40.3852 37.8909 40.384C38.1587 40.384 38.2208 40.5408 38.2011 40.7624C38.1518 41.3122 38.1676 41.86 38.198 42.4104C38.2385 43.1422 38.2455 43.8752 38.2721 44.6076C38.2898 45.1006 38.3784 45.2316 38.8584 45.2518C39.6866 45.2864 40.5142 45.3588 41.3449 45.3324C41.6229 45.3236 41.6583 45.1731 41.6577 44.9508C41.6539 43.5433 41.6552 42.1352 41.6564 40.7278C41.6564 40.5867 41.6153 40.428 41.7938 40.35" stroke="#4C4C4C" stroke-linecap="round" stroke-linejoin="round"/>
<path d="M23.9696 11.6154C23.9544 11.8622 24.0709 12.0757 24.1393 12.303C24.6262 13.9145 25.0479 15.5442 25.4538 17.1778C25.74 18.3308 25.9287 19.504 26.0661 20.6803C26.2212 22.0122 26.3086 23.351 26.2877 24.6961C26.2681 25.97 26.0724 27.2144 25.7254 28.4367C25.6805 28.5954 25.569 28.7358 25.4886 28.8844" stroke="#4C4C4C" stroke-linecap="round" stroke-linejoin="round"/>
<path d="M31.9826 46.4967C31.9687 46.6743 32.0238 46.8216 32.1149 46.981C32.4873 47.6308 32.8532 48.2864 33.3332 48.8626C34.2557 49.9697 35.3638 50.8721 36.5795 51.6416C37.0304 51.9269 37.4919 52.2014 37.9896 52.408" stroke="#4C4C4C" stroke-linecap="round" stroke-linejoin="round"/>
<path d="M25.5933 29.1936C25.2767 29.909 25.1393 30.6772 24.943 31.4266C24.8284 31.8643 24.774 32.3177 24.6967 32.7642C24.6853 32.8309 24.6682 32.9172 24.6993 32.9676C25.0101 33.4739 24.7233 34.001 24.7619 34.5154C24.7765 34.7094 24.7493 34.9065 24.7987 35.0992" stroke="#4C4C4C" stroke-linecap="round" stroke-linejoin="round"/>
<path d="M28.4256 29.9139C28.1913 29.9498 28.0115 30.0506 27.8677 30.254C27.6676 30.5386 27.3308 30.674 27.0712 30.9014C26.369 31.5179 25.6864 32.1388 25.278 33.0015L24.7993 35.0979" stroke="#4C4C4C" stroke-linecap="round" stroke-linejoin="round"/>
<path d="M48.1121 46.8406C48.1285 46.9892 48.0798 47.1038 47.9772 47.2209C47.1477 48.1687 46.3385 49.1322 45.3881 49.9691C44.4953 50.755 43.5227 51.4219 42.4799 51.9848C41.6631 52.4256 40.8089 52.7921 39.9263 53.0869C39.6534 53.1782 39.5318 53.3331 39.5394 53.6379C39.554 54.2097 39.516 54.7821 39.5134 55.3545C39.4989 59.1883 39.5546 63.0227 39.4431 66.8559C39.4412 66.9132 39.4596 66.9774 39.4393 67.0259C39.3944 67.1349 39.3646 67.2803 39.2013 67.2652C38.9423 67.2419 38.6947 67.3194 38.4414 67.3345C37.8893 67.3672 37.3346 67.3691 36.7831 67.3861C35.1369 67.4371 33.4919 67.536 31.8449 67.5354C30.3025 67.5347 28.7601 67.5839 27.2164 67.4837C25.9867 67.4044 24.7527 67.497 23.5217 67.5473C23.385 67.553 23.2425 67.5568 23.1076 67.5801C22.7189 67.6475 22.5802 67.5587 22.5587 67.1645C22.5479 66.9667 22.5118 66.7696 22.4751 66.5832C22.0205 64.286 21.4044 62.0265 20.8681 59.7475C20.6921 59.0006 20.5641 58.2412 20.4546 57.4817C20.3609 56.8331 20.2969 56.1795 20.2292 55.5271C20.1197 54.4641 20.0475 53.3998 19.9956 52.3331C19.9468 51.3368 19.9373 50.3394 20.0088 49.3469C20.0905 48.2096 20.2976 47.0887 20.5787 45.9797C20.8124 45.0578 21.0701 44.1441 21.3493 43.236C21.7286 42.0042 22.0724 40.7605 22.5536 39.5609C22.9424 38.5917 23.3919 37.644 23.6895 36.6415C23.9384 35.8033 23.8643 34.9677 23.3039 34.2825C22.546 33.3568 21.5709 32.6824 20.4445 32.2586L19.8955 31.9393C19.9987 31.7989 20.1019 31.6811 20.2685 31.5841C20.7009 31.3335 21.1157 31.0514 21.4873 30.7069C22.672 29.6087 23.3673 27.7868 23.6598 26.3435L23.9688 27.2371C24.3651 28.2094 25.1509 28.8039 26.0083 29.3309C26.4452 29.5992 26.9213 29.7692 27.4253 29.8379L28.4258 29.9141" stroke="#4C4C4C" stroke-linecap="round" stroke-linejoin="round"/>
<path d="M39.5463 20.6452C39.0759 20.734 38.6035 20.8246 38.1653 21.0243C36.6774 21.7025 35.7054 22.824 35.3749 24.4229C35.007 26.2038 35.5212 27.7447 36.8578 28.9809C37.5872 29.6553 38.468 30.0376 39.476 30.1623C41.102 30.3631 42.4653 29.843 43.5784 28.7038C44.4301 27.8329 44.8321 26.7624 44.879 25.5199C44.9645 23.2522 43.3182 21.2302 41.1356 20.744C40.6189 20.6288 40.101 20.6477 39.5805 20.6445" stroke="#4C4C4C" stroke-linecap="round" stroke-linejoin="round"/>
</g>
<defs>
<clipPath id="clip0_1659_4534">
<rect width="80" height="80" rx="8" fill="white"/>
</clipPath>
</defs>
</svg>
