<svg width="80" height="80" viewBox="0 0 80 80" fill="none" xmlns="http://www.w3.org/2000/svg">
<g clip-path="url(#clip0_1659_4520)">
<rect width="80" height="80" rx="8" fill="white"/>
<circle cx="40" cy="86" r="66" fill="#FFDBC9"/>
<g clip-path="url(#clip1_1659_4520)">
<path d="M46.3214 53.8107C42.4727 53.7265 38.641 53.9959 34.8093 54.3159C33.1325 54.4563 31.4501 54.6528 29.7622 54.6023C28.4568 54.563 27.956 53.9847 28.3217 52.716C28.9182 50.65 28.6143 48.5785 28.5299 46.5069C28.4286 44.1041 27.5284 41.9203 26.5268 39.787C25.514 37.6256 24.5969 35.4193 23.5335 33.2748C22.1493 30.4959 20.4557 27.9022 18.7958 25.2917C17.0065 22.4791 15.2792 19.6328 13.715 16.6911C13.1185 15.5739 12.5728 14.4006 12.5728 13.0701C12.5728 11.6554 13.2705 10.8975 14.694 10.8189C15.9544 10.7515 17.1022 11.1613 18.1656 11.762C21.8961 13.8729 23.8767 17.1178 24.0792 21.3619C24.1636 23.0573 24.822 24.3935 25.8685 25.6229C26.8082 26.7289 27.6071 27.9303 28.4061 29.1373C30.6962 32.5955 31.9734 36.4298 32.7949 40.4438C33.3126 42.9869 33.6614 45.5469 33.6277 48.1462C33.6277 48.1799 33.6277 48.2136 33.6277 48.2472C33.6896 50.1391 34.4379 50.8746 36.3622 51.0037C37.6395 51.0879 38.8379 50.7735 40.0308 50.403C42.8216 49.5384 45.6743 49.0949 48.6002 49.1848C49.3823 49.2072 50.1475 49.3307 50.879 49.589C51.9818 49.982 52.657 50.7679 52.9045 51.9132C53.1184 52.9068 52.6907 53.5861 51.6892 53.7265C51.1603 53.8051 50.6145 53.7938 50.0743 53.7938C48.8252 53.8051 47.5761 53.7938 46.327 53.7938L46.3214 53.8107Z" fill="#FFCB63"/>
<path d="M23.4717 63.5285C23.2579 62.9222 23.466 62.4226 23.6236 61.9173C24.2763 59.7952 24.8952 57.6675 25.4072 55.5061C26.7858 49.662 25.9305 44.0929 23.4267 38.7035C22.3013 36.2839 20.8384 34.0608 19.4205 31.8152C17.513 28.8005 15.6337 25.7689 13.867 22.6644C12.179 19.7171 10.9805 16.5957 10.2941 13.2778C10.0859 12.2898 9.95084 11.2905 10.1309 10.2744C10.2265 9.71857 10.3841 9.19086 10.9974 9.03928C11.5938 8.89332 12.0327 9.23577 12.4041 9.64559C12.7248 9.99927 12.9217 10.4315 13.1018 10.8638C13.4112 11.6105 13.6588 12.3796 13.8332 13.1712C14.8742 17.915 17.0348 22.1479 19.8143 26.0945C22.3126 29.6482 24.8502 33.1737 27.3653 36.7162C27.6072 37.0586 27.8042 37.3281 28.3218 37.2439C30.9213 36.8172 33.5546 36.6881 36.1766 36.5141C41.3306 36.1716 46.4846 35.9078 51.6499 35.8741C53.8443 35.8628 56.0387 35.9246 58.2274 36.0425C58.7676 36.0706 59.3078 36.1435 59.8198 36.312C60.7426 36.6095 60.9282 37.4235 60.2305 38.0972C59.5835 38.726 58.7507 39.0067 57.9236 39.3154C57.1865 39.5905 57.1528 39.4109 57.2203 40.3709C57.3553 42.3919 57.2203 44.4073 57.0909 46.4171C56.8433 50.2346 57.631 53.8388 59.3303 57.2577C60.1686 58.9475 61.1308 60.5643 62.0367 62.2148C62.2505 62.6022 62.4868 62.5236 62.785 62.4057C64.2029 61.8668 65.6152 61.3166 67.0388 60.7945C67.6071 60.5868 68.1922 60.424 68.7662 60.2275C70.1334 59.7559 71.3319 60.9798 70.9212 62.5404C70.8086 62.9727 70.5385 63.3208 70.2234 63.6352C69.7621 64.0843 69.2332 64.4492 68.6649 64.7523C64.5012 66.9811 60.2587 69.0302 55.7405 70.4561C52.7977 71.3881 49.7818 71.8765 46.6928 71.9663C42.5347 72.0842 38.3935 71.9663 34.2748 71.3768C27.3259 70.3832 20.9059 67.9804 15.0204 64.1629C14.8235 64.0338 14.621 63.9103 14.4353 63.7643C13.8332 63.2871 13.7713 62.9278 14.2327 62.3103C15.977 59.9468 17.0742 59.9243 19.1448 61.2492C20.2195 61.9397 21.3279 62.5854 22.4364 63.231C22.7177 63.3938 22.9878 63.6296 23.4829 63.5341L23.4717 63.5285ZM59.5778 63.6913C59.3584 63.4331 59.2234 63.2815 59.0996 63.1243C56.7476 60.2331 55.0428 57.0219 54.3844 53.3223C53.8893 50.5322 53.8443 47.7027 53.7261 44.8845C53.6642 43.3182 53.6474 41.7519 54.1256 40.2361C53.9512 40.1912 53.8893 40.1575 53.8274 40.1631C50.9128 40.5224 47.987 40.7021 45.0555 40.8256C40.1378 41.0333 35.2145 41.213 30.2912 41.2466C29.4809 41.2466 28.6763 41.2972 27.8717 41.4038C27.3428 41.4712 27.2753 41.7182 27.3934 42.1505C27.5622 42.768 27.731 43.3856 27.8717 44.0031C28.5356 46.8999 29.0083 49.8136 28.6144 52.7946C28.1643 56.2191 27.1909 59.4921 25.7505 62.6303C25.4691 63.2478 25.2328 63.8878 24.5464 64.3088C26.1781 65.106 27.7423 65.7236 29.3853 66.1165C33.0032 66.9755 36.683 67.3853 40.3966 67.5257C41.4375 67.5649 42.4953 67.5762 43.5307 67.4864C47.233 67.172 50.8678 66.4983 54.4463 65.499C56.1625 65.0218 57.8561 64.4941 59.5778 63.6857V63.6913ZM23.6798 63.478C23.4098 63.5173 23.4379 63.6183 23.4604 63.6969C23.4773 63.7474 23.5561 63.8204 23.5842 63.8148C23.663 63.7924 23.7699 63.7643 23.7192 63.6352C23.6855 63.551 23.6461 63.478 23.6742 63.478H23.6798Z" fill="#E76943"/>
<path d="M24.6306 63.6857C25.0358 63.9215 25.4184 64.2247 25.8516 64.3818C30.1729 65.9425 34.6348 66.9194 39.2205 67.0822C42.8272 67.2057 46.4564 67.3011 50.0575 66.7397C52.3194 66.386 54.5644 66.0155 56.7363 65.3025C59.7353 64.3201 62.7061 63.2759 65.4463 61.6703C66.3691 61.1314 67.1737 60.4184 67.9896 59.7559C69.4019 61.2436 69.3568 62.0071 67.7645 62.9671C66.4873 63.7418 65.1425 64.4043 63.8202 65.1004C61.1194 66.5264 58.2442 67.5088 55.3127 68.3341C52.5219 69.1144 49.6805 69.7095 46.7996 69.9004C44.4871 70.052 42.1464 70.0463 39.8113 69.7825C36.7167 69.4288 33.6502 69.0021 30.5893 68.3678C26.8419 67.593 23.2521 66.4534 19.8649 64.6962C18.4526 63.9608 17.0853 63.1299 15.8193 62.1643C15.116 61.631 15.0991 60.7328 15.7124 60.0591C16.5339 59.1552 17.0347 59.0149 17.8562 59.7279C18.9421 60.671 20.0224 61.6422 21.2772 62.3777C22.2618 62.9559 22.6782 62.7987 23.1058 61.7713C24.0342 59.5201 24.6419 57.1791 25.137 54.8044C26.1892 49.7238 25.5928 44.8621 23.4209 40.1519C21.8848 36.8172 19.9662 33.7127 17.9574 30.6531C16.2976 28.1212 14.5139 25.6567 13.096 22.9788C11.4474 19.863 9.95073 16.6911 9.57937 13.0926C9.48934 12.228 9.74817 11.5375 9.81006 10.7628L10.7497 10.106C11.8638 10.3979 11.7569 11.487 11.8131 12.1831C12.0776 15.5571 13.383 18.4932 15.2004 21.2721C17.5917 24.9268 19.9099 28.6208 22.3068 32.2699C23.0496 33.3983 23.6122 34.6502 24.6081 35.6271C25.1764 36.1829 25.7841 36.4186 26.5493 36.4243C30.4092 36.4411 34.2466 36.0313 38.0952 35.8516C41.6119 35.6888 45.106 35.3183 48.6283 35.1836C51.3347 35.0825 54.0299 34.9646 56.7307 35.1948C58.233 35.3239 59.3414 35.7281 60.011 36.6825C59.3921 37.6481 58.3286 37.8446 57.3327 38.0186C54.0524 38.5856 50.7326 38.6698 47.4129 38.6474C44.4083 38.6306 41.4037 38.5913 38.399 38.6586C35.597 38.7204 32.7893 38.8383 29.9985 39.0853C28.9181 39.1807 27.8266 39.366 26.7463 39.6186C25.846 39.8263 25.9585 40.2979 26.1555 40.8649C26.6506 42.3133 27.2752 43.7168 27.6915 45.2045C28.1979 46.9954 28.1079 48.7525 27.911 50.5715C27.7984 51.5876 27.4327 52.5532 27.4383 53.5974C27.4496 54.7539 27.6353 55.1076 28.7831 55.2086C31.6527 55.4612 34.5223 55.2367 37.3919 55.1019C39.9576 54.9784 42.5234 54.7539 45.0891 54.6135C47.4523 54.4844 49.8155 54.4002 52.1787 54.3104C52.5219 54.2991 52.7976 54.142 53.0902 54.0016" stroke="#4C4C4C" stroke-linecap="round" stroke-linejoin="round"/>
<path d="M59.8761 61.8668C59.5948 61.0022 58.8689 60.4296 58.4469 59.6492C57.2597 57.4542 56.4326 55.1468 56.0106 52.6767C55.6561 50.6332 55.3016 48.5897 55.431 46.5125C55.5267 45.0192 55.6449 43.5259 56.0275 42.0663C56.2244 41.3196 55.8137 40.9716 55.0147 41.0445C53.8668 41.1456 52.9384 42.2515 52.7978 44.1884C52.6121 46.7708 52.9047 49.3308 53.4223 51.857C53.5405 52.4521 53.3323 52.9574 53.2535 53.4739C53.1354 54.2598 53.3436 54.9391 53.6136 55.596C54.3901 57.4654 55.2397 59.2956 56.4213 60.9629C57.3047 62.2092 58.4019 62.5853 59.7692 61.9566C60.0111 61.8443 60.2418 61.8836 60.4838 61.8611" stroke="#4C4C4C" stroke-linecap="round" stroke-linejoin="round"/>
<path d="M28.2768 35.0039C27.0333 31.7141 25.396 28.6882 22.4983 26.5268C21.8006 26.0047 21.3561 25.6229 21.5192 24.4889C21.885 21.9739 21.3673 19.4756 20.6921 17.0223C20.3601 15.8153 19.8256 14.7431 19.1785 13.682C18.2558 12.1606 15.0373 11.3522 13.4844 12.4806" stroke="#4C4C4C" stroke-linecap="round" stroke-linejoin="round"/>
<path d="M53.1913 53.1819C52.0998 52.6879 51.9872 51.5988 51.689 50.65C51.4358 49.8529 50.9519 49.3588 50.1529 49.3644C49.0614 49.3644 48.0036 49.1399 46.912 49.1174C43.2828 49.0332 39.8112 49.7799 36.3733 50.8465C34.8428 51.3237 33.318 51.8065 31.827 52.3904L29.3906 53.1819" stroke="#4C4C4C" stroke-linecap="round" stroke-linejoin="round"/>
<path d="M30.606 40.5562C31.0842 42.3246 31.5175 44.1042 31.8157 45.9119C32.1308 47.8206 31.827 49.6396 30.9211 51.3687C30.5272 52.1153 30.1502 52.8451 29.3906 53.283" stroke="#4C4C4C" stroke-linecap="round" stroke-linejoin="round"/>
<path d="M26.9602 57.5778C25.9193 59.363 25.4185 61.3616 24.7433 63.2872C24.6758 63.4837 24.6645 63.6521 24.4282 63.6858" stroke="#4C4C4C" stroke-linecap="round" stroke-linejoin="round"/>
</g>
</g>
<defs>
<clipPath id="clip0_1659_4520">
<rect width="80" height="80" rx="8" fill="white"/>
</clipPath>
<clipPath id="clip1_1659_4520">
<rect width="62" height="63" fill="white" transform="translate(9 9)"/>
</clipPath>
</defs>
</svg>
