<svg width="80" height="80" viewBox="0 0 80 80" fill="none" xmlns="http://www.w3.org/2000/svg">
<g clip-path="url(#clip0_1706_5086)">
<rect width="80" height="80" rx="8" fill="white"/>
<circle cx="40" cy="86" r="66" fill="#E3F2FF"/>
<g clip-path="url(#clip1_1706_5086)">
<path d="M41.1593 74.9252C40.2439 74.7526 39.4594 74.3498 38.7323 73.879C36.4623 72.4092 34.3648 70.7301 32.4975 68.7633C30.2745 66.4198 28.1405 64.0032 26.0797 61.5133C25.4258 60.7235 25.1382 59.8394 25.044 58.8613C25.0126 58.5527 25.0283 58.2283 25.0911 57.9302C25.2428 57.2345 25.7031 57.0096 26.3516 57.2763C26.791 57.4594 27.1781 57.7262 27.5076 58.0662C30.4838 61.121 33.6169 64.0189 36.4884 67.1731C37.885 68.7057 39.3704 70.1442 41.0651 71.3473C41.3894 71.5774 41.5254 71.7971 41.4574 72.1947C41.3057 73.0839 41.3999 74.0046 41.154 74.9252H41.1593Z" fill="#A694BD"/>
<path d="M49 71.6821C48.8535 73.7482 47.9957 75.2495 46.3638 76.2434C45.2758 76.9024 44.1094 76.9338 42.9744 76.2747C42.4356 75.9609 42.1846 75.532 42.3206 74.8676C42.467 74.1353 42.603 73.3925 42.4461 72.6393C42.3624 72.2365 42.5716 72.0064 42.9325 71.8442C44.486 71.1485 44.6482 70.6777 43.8322 69.2131C43.4974 68.6063 43.1731 68.0048 43.1575 67.2882C43.1261 65.8497 44.2297 65.0964 45.5478 65.6771C45.8041 65.7869 46.0552 65.9386 46.2592 66.1269C47.9015 67.6752 48.728 69.6159 49 71.6821Z" fill="#9AAD82"/>
<path d="M9.55131 41.8348C9.55131 42.201 9.42578 42.5096 9.14333 42.745C8.79288 43.0379 8.29598 43.1007 8.00307 43.5192C7.88277 43.6866 7.54802 43.6447 7.43295 43.425C7.23419 43.0536 6.8419 42.8758 6.62744 42.5253C5.70687 40.9979 4.69738 39.528 3.95987 37.9013C3.82911 37.6188 3.69312 37.3311 3.61989 37.0277C3.45251 36.3006 3.90234 35.8822 4.63461 36.0495C4.91706 36.1123 5.15243 36.2692 5.37735 36.4366C7.05635 37.6973 8.3326 39.2979 9.34732 41.1182C9.47285 41.3379 9.53562 41.5785 9.55131 41.8348Z" fill="#9AAD82"/>
<path d="M24.8662 60.5037C24.8662 61.4139 24.8767 62.324 24.8662 63.229C24.8558 63.9927 24.6099 64.2019 23.8724 64.0084C22.8995 63.7573 21.8953 63.5324 20.9119 63.5742C18.9139 63.6631 17.0309 64.1915 15.3623 65.3736C14.0024 66.3361 13.1969 67.7013 12.4803 69.1398C11.9886 70.1232 11.6539 71.1642 11.3714 72.2313C11.1099 73.2199 10.8432 73.314 9.99581 72.8276C7.15563 71.1851 4.32069 71.4676 1.82572 73.6122C0.434402 74.8048 -0.742467 76.1753 -1.74673 77.7027C-1.85134 77.8596 -1.96118 78.0113 -2.07102 78.163C-2.19132 78.3304 -2.36393 78.3984 -2.56269 78.3461C-2.78761 78.2886 -2.82422 78.095 -2.82422 77.9015C-2.82422 77.6818 -2.80853 77.4621 -2.8033 77.2424C-2.55223 77.0018 -2.55746 76.7507 -2.77191 76.4944C-2.84514 74.7316 -2.60454 72.9845 -2.60977 71.2269C-2.35347 70.9235 -2.36393 70.6097 -2.58361 70.2906C-2.64115 69.7152 -2.4267 69.166 -2.4267 68.5958C-2.25409 68.4807 -2.23317 68.3552 -2.40055 68.2192C-2.34824 67.8426 -2.29594 67.466 -2.24363 67.0893C-2.01349 66.9167 -2.04487 66.6918 -2.12856 66.4616C-2.09717 66.2315 -2.07102 66.0013 -2.03964 65.7712C-1.88272 65.6561 -1.86703 65.5044 -1.93503 65.337C-1.90888 65.1696 -1.88795 65.0022 -1.8618 64.8296C-1.69442 64.7198 -1.67873 64.5681 -1.74673 64.3955C-1.40674 62.1828 -0.658779 60.0905 0.178106 58.0295C2.47431 52.3802 5.62832 47.2435 9.71859 42.7189C13.971 38.0111 19.1545 34.8151 25.4102 33.4969C28.0935 32.932 30.8081 32.8849 33.5384 33.183C37.0063 33.5597 40.3747 34.3809 43.717 35.312C44.2558 35.4637 44.8207 35.5735 45.2182 36.0286C45.6942 36.5726 45.5373 36.9702 44.8468 37.1585C41.8602 37.9797 39.3182 39.4391 37.6026 42.1278C36.4832 43.8801 36.2374 45.7946 36.3786 47.8032C36.4466 48.7762 36.4518 48.7919 35.4946 49.0796C34.0563 49.5085 32.5917 49.8537 31.2632 50.5965C27.5233 52.6941 25.4677 55.9163 24.8871 60.1219C24.7093 60.2369 24.6884 60.3625 24.861 60.4985L24.8662 60.5037Z" fill="#7FA1BD"/>
<path d="M26.3833 59.3582C27.4189 60.5508 28.4232 61.7696 29.4955 62.9308C31.64 65.2428 33.8054 67.5287 35.9918 69.7989C37.2837 71.138 38.5704 72.5033 40.3174 73.2879C41.0916 73.6331 40.9242 74.5276 41.3426 75.103C42.1638 74.8885 42.2266 74.1928 42.3835 73.586C42.6607 73.4448 42.9536 73.4971 43.2361 73.471C44.5699 73.3559 45.1609 72.4509 44.5385 71.1275C44.2089 70.4214 43.5708 69.914 43.0582 69.3229C42.4044 68.5644 42.5718 67.5601 43.325 67.0684C43.9265 66.6761 44.4862 66.9272 44.9151 67.2776C46.0187 68.1773 46.9968 69.2549 47.5303 70.5678C48.0482 71.8494 47.5042 73.1466 46.7824 74.2033C45.867 75.5371 44.4914 76.3636 42.8542 76.5624C41.5571 76.7193 40.3436 76.2015 39.1981 75.7045C37.7231 75.0664 36.3998 74.1144 35.2386 72.995C32.6338 70.4737 30.1545 67.8373 27.8688 65.0179C27.0423 63.9979 26.2368 62.957 25.3477 61.9893" stroke="#4C4C4C" stroke-linecap="round" stroke-linejoin="round"/>
<path d="M5.96329 46.7257L3.88154 49.4719C1.72656 52.5581 -0.297657 55.728 -1.86159 59.1647C-3.35752 62.4549 -4.16825 65.902 -4.42455 69.5165C-4.61285 72.1424 -4.21533 74.7264 -4.13164 77.3314L-3.63474 78.4769C-2.22772 77.1535 -1.18162 75.4692 0.486922 74.4073C1.73702 73.6123 3.0185 73.1153 4.54058 73.063C5.92144 73.0159 7.19769 73.4135 8.4844 73.7064C9.14345 73.8581 9.30037 73.7587 9.5462 73.199C10.2366 71.6298 10.88 70.0396 11.9679 68.6691C13.5476 66.6814 15.5613 65.6248 18.0981 65.5777C19.2907 65.5515 20.4885 65.5149 21.6758 65.5881C23.0619 65.6718 23.3548 65.0808 23.564 63.977C23.8151 62.6536 24.0766 61.3302 24.4114 60.0278C25.6719 55.1422 28.5278 51.8153 33.6276 50.7012C34.2082 50.5756 34.5952 50.2252 34.6684 49.5765C34.9509 47.05 35.8767 44.7223 37.2419 42.6352C38.7221 40.365 40.9189 38.9475 43.6074 38.3773" stroke="#4C4C4C" stroke-linecap="round" stroke-linejoin="round"/>
<path d="M43.0479 37.1847L39.2924 36.1699C36.1279 35.3643 32.9478 34.7366 29.6787 34.9093C26.3155 35.0871 23.0934 35.9554 19.9761 37.2422C18.454 37.8699 16.9894 38.6127 15.5406 39.3921L14.1388 40.4487C17.5805 40.8515 21.0117 41.2438 24.3122 42.4155C26.9431 43.3466 29.3178 44.7014 31.4623 46.4746L32.3096 47.9811C31.6297 48.2531 31.0857 47.8765 30.5208 47.6045C27.8114 46.3177 25.1177 45.0205 22.2461 44.0841C19.4896 43.1844 16.707 42.8601 13.8563 43.0118C12.8782 43.0641 11.8949 43.31 10.9429 43.5715C9.79221 43.8801 9.67191 44.4503 10.5663 45.2454C12.1198 46.6211 13.5687 48.091 14.7978 49.7701C16.5814 52.2076 18.1088 54.8074 19.5001 57.4908L21.5557 63.3598L18.5795 58.6102C15.6922 54.572 12.3656 50.8947 9.23777 47.05C8.87687 46.6054 8.48458 46.1556 7.89876 45.8626C7.44893 46.2183 7.36524 46.7414 7.27632 47.2279C6.72712 50.1205 6.60158 53.0498 6.62774 55.9791C6.66435 59.6825 7.05141 63.3598 7.83076 66.99L8.75133 70.3743" stroke="#4C4C4C" stroke-linecap="round" stroke-linejoin="round"/>
<path d="M4.25824 37.9013C3.57827 38.4348 4.07517 39.0887 4.29486 39.481C4.98006 40.6893 5.60249 41.9447 6.41845 43.0798C7.00427 43.8958 7.82547 43.9847 8.48451 43.2629C8.71466 43.0066 8.87157 42.766 8.61005 42.3161C7.75224 40.8149 6.7689 39.4339 5.47173 38.2884C5.16836 38.0216 4.79699 37.8176 4.34716 37.9065" stroke="#4C4C4C" stroke-linecap="round" stroke-linejoin="round"/>
</g>
<path d="M35 27L49 8" stroke="#4C4C4C" stroke-linecap="round" stroke-dasharray="6 6"/>
<path d="M47 29L60 11" stroke="#4C4C4C" stroke-linecap="round" stroke-dasharray="6 6"/>
<path d="M39 57L69 15" stroke="#4C4C4C" stroke-linecap="round" stroke-dasharray="6 6"/>
</g>
<defs>
<clipPath id="clip0_1706_5086">
<rect width="80" height="80" rx="8" fill="white"/>
</clipPath>
<clipPath id="clip1_1706_5086">
<rect width="54" height="46" fill="white" transform="translate(-5 33)"/>
</clipPath>
</defs>
</svg>
