<svg width="80" height="80" viewBox="0 0 80 80" fill="none" xmlns="http://www.w3.org/2000/svg">
<g clip-path="url(#clip0_1706_5090)">
<rect width="80" height="80" rx="8" fill="white"/>
<circle cx="40" cy="86" r="66" fill="#EBE3F5"/>
<path d="M47.3391 34.9923C52.0759 34.8208 55.9063 38.6053 56.4667 42.7879C56.5953 43.7524 56.5279 44.6618 56.3932 45.5865C56.2493 46.5602 55.3123 47.4665 54.354 47.6655C53.4384 47.8554 52.627 47.4451 51.9779 46.5112C51.2675 45.4946 50.6368 44.4322 49.8499 43.4554C48.5731 41.8693 46.9656 40.9538 45.0335 41.2355C43.083 41.5233 41.8032 42.9012 41.1847 44.8425C40.8754 45.81 40.6825 46.8388 40.0517 47.6839C39.6476 48.2259 39.2097 48.6974 38.5116 48.8842C37.7676 49.0863 37.0297 49.1261 36.5091 48.5198C35.9335 47.8493 35.4528 47.1879 35.7834 46.0887C36.5183 43.6575 37.3297 41.2631 38.876 39.2392C40.5631 37.0285 42.8075 35.5985 45.6061 35.1546C46.2093 35.0596 46.8063 34.9188 47.3361 34.9923H47.3391Z" fill="#85C0F0"/>
<path d="M53.7101 50.4265C53.603 50.6684 53.5417 50.8827 53.4254 51.0634C53.1865 51.4338 52.9079 51.4859 52.663 51.0695C50.6972 47.6922 52.2496 43.0993 56.8915 42.5175C57.8223 42.4012 58.6643 42.6737 59.3747 43.2677C59.7666 43.5953 59.9136 43.6198 60.3055 43.1697C61.8273 41.4275 63.5787 40.2027 66.1201 40.7968C67.9021 41.2132 68.8268 42.3798 69.2218 44.0118C69.3933 44.716 69.6688 44.7313 70.2414 44.6058C72.0602 44.2077 73.2605 45.1385 74.2372 46.5287C75.0302 47.6585 75.2936 48.8312 74.5985 50.1172C74.1362 50.9715 73.3156 51.3573 72.4858 51.642C70.5139 52.3157 68.4685 52.6494 66.3956 52.8944C65.3821 53.0138 64.3595 52.9311 63.349 53.1608C62.3692 53.3843 61.368 53.0475 60.379 52.9801C58.7653 52.8699 57.1578 52.6923 55.6238 52.0554C54.7879 51.7094 54.1694 51.2011 53.7132 50.4265H53.7101Z" fill="white"/>
<path d="M16.4937 71.5759C15.9548 71.6402 15.7864 71.2176 15.566 70.8717C13.3614 67.4301 11.5028 63.8047 9.82794 60.0815C9.37171 59.071 8.91548 58.0606 8.45619 57.0502C8.2786 56.6613 8.23575 56.3459 8.66442 56.0459C10.1219 55.0293 11.561 53.9852 13.0001 52.9441C13.5818 52.5247 13.9554 52.6073 14.3014 53.2779C16.3774 57.3012 18.8269 61.1072 21.1723 64.9744C22.5686 67.277 22.5992 67.3351 20.5477 69.0651C19.6353 69.8337 18.6769 70.5471 17.6511 71.1656C17.2929 71.383 16.9163 71.5483 16.4937 71.5759Z" fill="#9E718A"/>
<path d="M47.884 25.9497C53.8456 26.2712 58.9253 28.7942 62.6302 33.9138C63.7478 35.46 64.0479 37.3217 64.5807 39.0884C64.7521 39.6518 64.5409 40.2734 63.9744 40.5122C63.2702 40.8123 62.7037 41.2807 62.1066 41.7216C61.5463 42.135 61.0901 42.0186 60.6553 41.5226C60.2419 41.0511 60.0184 40.4816 59.798 39.912C59.0355 37.9371 58.2456 35.9989 56.7912 34.3792C54.9877 32.3705 52.7494 31.1764 50.1131 31.0294C43.5943 30.6712 38.6616 33.5739 35.0944 38.8832C34.1054 40.353 33.8329 42.184 33.1899 43.8313C32.8041 44.8142 32.4275 45.8032 31.6988 46.5962C30.3883 48.0292 28.5879 47.7107 27.8224 45.9379C27.6907 45.6348 27.6509 45.3439 27.7152 45.0499C28.3337 42.1197 29.0808 39.2292 30.3852 36.5164C32.7123 31.6632 36.656 28.7054 41.6378 26.9969C43.5606 26.3386 45.557 26.0018 47.884 25.9467V25.9497Z" fill="#EB7D5C"/>
<path d="M31.8785 56.4643C32.9165 56.994 33.8963 56.945 34.7934 56.9664C36.3336 57.0032 37.8615 57.3859 39.4322 57.0736C40.4978 56.8623 41.4041 56.3939 42.3288 55.8856C45.4366 54.1801 48.3148 52.0459 51.6829 50.8242C52.8618 50.3986 54.0345 49.9332 55.3174 50.2945C57.1852 50.8181 57.7517 52.7441 56.5177 54.2291C55.5226 55.4232 54.2213 56.204 52.9475 57.0369C49.3926 59.3608 45.5836 61.2562 41.9767 63.4914C39.3036 65.1479 36.3489 65.4847 33.238 65.105C31.3212 64.8723 29.38 64.808 27.4632 64.5355C25.5311 64.2599 23.6787 64.4406 21.8078 65.0009C20.6688 65.3408 19.8482 64.5967 19.2297 63.7088C17.7202 61.5409 16.6455 59.1159 15.2339 56.8899C14.8726 56.3204 14.94 55.7937 15.6014 55.4263C18.106 54.0423 20.4484 52.4011 22.806 50.7936C24.0216 49.9669 25.277 49.6913 26.7436 49.9608C28.097 50.2088 29.4933 50.2455 30.8711 50.3405C32.0285 50.4201 33.1829 50.5732 34.3372 50.6375C35.5436 50.7079 36.7592 50.6405 37.9625 50.8457C38.235 50.8916 38.5075 50.9375 38.777 50.9926C39.7323 51.1947 40.5192 51.6387 40.7427 52.6644C40.905 53.4177 40.164 54.4924 39.2087 54.9517C37.739 55.6559 36.159 55.9284 34.5454 56.0234C33.6911 56.0724 32.8522 56.1979 31.8785 56.4551V56.4643Z" fill="#F7BCAA"/>
<path d="M58.7255 44.2572C59.1511 42.6221 60.235 41.6239 61.8211 41.1861C62.3355 41.0422 62.2804 40.7176 62.2222 40.4175C61.9282 38.9264 61.5608 37.4352 60.8811 36.0819C57.8038 29.9427 52.7425 26.7155 45.9481 26.2348C41.0552 25.8888 36.6858 27.3524 32.837 30.3928C30.8345 31.9758 29.1596 33.8406 28.0941 36.1645C26.8479 38.8835 25.9324 41.7342 25.4425 44.6797C25.1516 46.4189 25.8313 47.5151 27.742 47.4048C28.7034 47.3497 29.2392 46.5904 29.674 45.7636C30.4579 44.2756 30.957 42.6711 31.3856 41.0728C32.3808 37.3556 34.6251 34.7377 37.9259 32.8883C40.2468 31.587 42.7086 30.7939 45.3633 30.8246C50.7033 30.8889 54.6684 33.865 56.6342 38.66C56.7444 38.9264 56.7903 39.2203 56.8914 39.4928C57.3874 40.8585 56.772 41.4249 55.8779 41.8995C55.0512 42.3374 54.3714 41.9424 53.7131 40.8309C52.5588 38.8835 51.1013 37.2087 49.1202 36.0757C45.0969 33.7793 39.9131 34.5846 37.0012 38.3936C35.2345 40.7023 34.2883 43.3264 33.5841 46.0851C33.3881 46.8506 33.627 47.3681 34.2639 47.7569C34.913 48.1519 35.8377 48.1366 36.3521 47.76C37.2676 47.0925 37.5217 46.0453 37.9412 45.087C38.5719 43.6479 39.2211 42.2149 40.357 41.0759C42.1911 39.2326 45.5899 38.5743 48.1129 40.2614C49.4019 41.1218 50.2562 42.3404 50.3083 44C50.3266 44.6369 50.0266 45.1329 49.7939 45.6718C49.503 46.3454 49.0284 46.9455 48.8814 47.6773C48.6702 48.7153 48.8998 49.1869 49.7112 49.5145C50.149 49.6921 51.1779 49.3308 51.4442 48.7551C51.8882 47.7968 52.4394 47.0435 53.5478 46.8292C53.7101 46.7986 53.8264 46.5873 53.808 46.3423C53.7101 44.9216 54.647 44.3337 55.8075 44.0153C56.8179 43.7397 57.8406 43.6632 58.7285 44.4225" stroke="#4C4C4C" stroke-linecap="round" stroke-linejoin="round"/>
<path d="M5.69939 56.9488C5.51874 57.4938 5.93822 57.8827 6.14031 58.2715C7.76925 61.4375 9.45329 64.576 11.1312 67.7175C11.765 68.9055 12.4295 70.0752 13.1337 71.3489C14.876 70.4794 16.5661 69.6343 18.3267 68.7555C17.2918 67.0561 16.2661 65.4425 15.3138 63.7891C14.4626 62.3102 13.691 60.7884 12.8826 59.285C12.852 59.2299 12.8153 59.1778 12.8 59.1166C12.7387 58.8594 12.5795 58.5379 12.8888 58.3817C13.1245 58.2623 13.3021 58.4522 13.4797 58.6879C14.1319 59.5514 14.7382 60.4485 15.3015 61.3732C15.9629 62.4633 16.6121 63.5594 17.2459 64.6219C17.745 64.6648 18.0083 64.377 18.3145 64.132C19.5301 63.1522 20.8467 62.2704 22.4083 62.0805C23.4677 61.9519 24.5761 62.1938 25.66 62.2918C29.2792 62.6194 32.8861 63.091 36.5145 63.2961C37.9107 63.3757 39.1477 62.9715 40.3633 62.3041C43.0701 60.816 45.8564 59.4748 48.5264 57.9225C50.5258 56.7589 52.5834 55.6658 54.3838 54.1869C54.8247 53.8256 55.2994 53.4674 55.6209 53.0081C56.0495 52.3988 56.3343 51.7313 55.9087 50.926C55.5106 50.1727 54.8982 49.9217 54.1358 49.8513C52.8743 49.7349 51.7689 50.286 50.6299 50.6841C48.0365 51.5904 45.7584 53.0969 43.4589 54.539C41.9831 55.4668 40.4001 55.8893 38.6915 56.0394C36.8084 56.2047 34.956 56.0026 33.0943 55.7883C32.8035 55.7546 32.6075 55.6413 32.4269 55.4423" stroke="#4C4C4C" stroke-linecap="round" stroke-linejoin="round"/>
<path d="M58.0581 51.5228C58.3643 51.7341 58.6705 51.5228 58.9767 51.5167C61.5946 51.4738 64.2095 51.434 66.8274 51.3483C68.1104 51.3054 69.4086 51.3208 70.6671 51.0176C71.9224 50.7145 72.6083 49.9031 72.6757 48.7702C72.7308 47.8363 71.9194 46.6728 70.9212 46.2563C69.9536 45.8552 68.934 45.7297 67.8562 45.6225C67.9328 44.3426 67.5102 43.271 66.5733 42.4259C65.817 41.7461 64.9413 41.3114 63.9033 41.2532" stroke="#4C4C4C" stroke-linecap="round" stroke-linejoin="round"/>
<path d="M5.27979 55.6132C7.05876 54.4742 8.93878 53.528 10.9168 52.6738C11.5261 53.3321 11.7221 54.2506 12.2824 54.9549C12.8978 55.7326 13.005 55.8122 13.795 55.2764C16.0853 53.7271 18.3511 52.1441 20.6506 50.6131C21.511 50.0405 22.3775 49.4526 23.4002 49.1893C23.6421 49.1281 23.8993 49.1066 24.1504 49.1036C28.4309 49.0638 32.6992 49.2505 36.9247 49.9487C38.8812 50.2732 39.4783 50.953 39.4201 52.6891C39.3864 53.7271 38.6914 54.367 37.3411 54.5967C36.1561 54.7987 34.9405 54.8416 33.7556 55.0406C32.5063 55.2519 31.2571 55.3805 29.9956 55.4448" stroke="#4C4C4C" stroke-linecap="round" stroke-linejoin="round"/>
</g>
<defs>
<clipPath id="clip0_1706_5090">
<rect width="80" height="80" rx="8" fill="white"/>
</clipPath>
</defs>
</svg>
