<svg width="80" height="80" viewBox="0 0 80 80" fill="none" xmlns="http://www.w3.org/2000/svg">
<g clip-path="url(#clip0_1706_5212)">
<rect width="80" height="80" rx="8" fill="white"/>
<circle cx="40" cy="86" r="66" fill="#EDF5E3"/>
<path d="M23.2234 16.2454C24.7245 15.3743 25.0729 13.8732 25.8369 12.6804C26.574 11.5412 27.4719 11.1392 28.8658 11.5412C34.4813 13.1763 35.0174 14.3423 32.6988 19.6362C31.573 22.196 30.0854 24.2867 27.2039 24.9032C24.7513 25.4259 22.4193 25.56 20.878 22.9063C19.7522 20.963 17.7956 19.9176 15.9595 18.7382C15.1419 18.2155 14.4316 17.3846 14.6996 16.3393C15.0347 15.066 16.1069 14.4764 17.3399 14.2083C18.5863 13.9403 19.7254 14.2083 20.7976 14.8382C21.6152 15.3207 22.4461 15.8032 23.1967 16.2454H23.2234Z" fill="#AFC199"/>
<path d="M49.1563 28.6291C48.9687 23.4291 50.2686 20.2394 53.6192 18.0012C55.5759 16.6878 58.3636 17.7331 58.6316 20.0919C59.1409 24.6353 57.7337 28.6962 54.9058 32.2209C54.1821 33.1189 52.9491 33.7354 51.6625 33.5343C50.2419 33.3199 49.8263 32.0601 49.5181 30.9209C49.2098 29.7549 49.1429 28.5353 49.1563 28.6291Z" fill="#AFC199"/>
<path d="M36.1562 37.7694C33.5696 37.2199 30.9695 36.7374 28.4097 36.1209C25.3942 35.3838 22.9684 34.0436 22.754 30.425C22.7004 29.5136 22.0169 28.6425 21.7354 27.7178C21.3065 26.3507 21.8292 25.2786 23.1292 24.8095C24.9519 24.1528 26.8148 23.6033 28.6912 23.161C30.1118 22.826 31.5057 22.6517 32.7521 21.7404C35.2583 19.9043 38.0325 19.3414 40.9542 20.6012C41.9996 21.0569 42.6026 20.628 43.514 20.2394C45.9934 19.1806 46.9986 20.0517 46.744 22.6785C46.5697 24.4744 46.1408 26.0157 44.0501 26.4848C43.1119 26.6992 42.0933 26.9002 41.316 27.4095C38.7964 29.0446 36.7459 31.0549 36.9067 34.4189C36.9603 35.5983 37.2954 36.8447 36.1696 37.7694H36.1562Z" fill="#EF9175"/>
<path d="M36.6252 34.191C36.786 29.2188 41.5304 25.1043 46.4222 25.761C49.0892 26.1229 50.7378 27.825 51.5955 30.291C52.279 32.2745 51.3944 34.2714 49.1964 35.8797C46.5562 37.8096 43.6882 38.9622 40.351 38.1848C38.3943 37.7292 36.5716 35.7055 36.6252 34.191Z" fill="#FFDC7D"/>
<path d="M61.5798 45.5428C61.2314 49.215 60.8293 53.3027 60.4407 57.4037C60.2664 59.2533 59.2479 60.4595 57.653 61.3574C52.5602 64.2121 47.1859 66.3966 41.758 68.474C39.8951 69.1843 37.9518 69.2379 36.0352 68.7822C31.2641 67.6431 26.9888 65.3915 22.8073 62.9121C21.6949 62.2554 21.1991 61.143 21.0918 59.8697C20.5558 52.8738 19.6578 45.8913 20.0733 38.8551C20.2341 36.1613 21.1454 35.317 23.7455 35.7324C26.131 36.1211 28.6104 36.4695 30.7816 37.4211C36.7992 40.0345 42.4817 39.6056 48.1776 36.4963C50.9385 34.9953 53.9004 33.8829 56.8087 32.6633C59.154 31.6849 60.5747 32.3551 60.8964 34.9685C61.3119 38.319 61.352 41.7232 61.5798 45.5562V45.5428Z" fill="#B3D9F7"/>
<path d="M34.1728 65.2439L18.251 58.3954V32.2477L37.2016 38.4395V40.9591C34.3604 40.9591 31.3985 40.8385 28.5573 40.8385C27.6995 40.8385 26.8283 40.8384 25.9974 40.6508C24.5366 40.3158 23.2901 39.391 22.1241 38.4529C22.0303 38.3725 21.9366 38.292 21.9098 38.1714C21.8963 38.0508 21.9767 37.9302 22.0572 37.8363C22.5664 37.2735 23.3304 37.0054 24.0809 36.9786C24.8314 36.9518 25.582 37.1796 26.2789 37.4611C27.9005 38.1446 29.3346 39.257 30.4068 40.6642C30.9027 41.3343 31.3449 42.0715 32.0016 42.5674C33.3821 43.6127 35.3656 43.3313 36.9336 44.055V66.4902L57.7472 57.9263V30.3311L40.4316 37.4343C38.5955 37.059 36.88 36.4694 35.245 35.5714C35.245 34.0034 35.2315 32.4487 35.2181 30.8806C35.2181 30.3714 35.2182 29.862 35.3388 29.3796C35.58 28.4816 36.2367 27.7579 36.9471 27.1682C39.4131 25.1445 42.9244 24.461 45.9801 25.4125C46.3688 25.5331 46.7709 25.694 47.0657 25.9754C47.2801 26.1765 47.4141 26.4311 47.5482 26.6857C48.4193 28.3342 48.9956 30.1435 49.21 31.993C48.6873 32.0868 48.1513 32.1673 47.6286 32.2611C46.9853 30.0899 45.0822 28.3342 42.8708 27.8785C42.4285 27.7847 41.9728 27.7445 41.5172 27.7981C40.5656 27.9187 39.7213 28.4951 39.0378 29.1652C37.8182 30.3446 36.9068 31.9528 37.0006 33.6415" stroke="#4C4C4C" stroke-miterlimit="10"/>
<path d="M39.9351 31.2024C40.5918 31.6983 41.1948 32.2746 41.7309 32.9045C41.8113 33.0117 41.9052 33.1189 42.0124 33.1859C42.401 33.4138 42.8835 33.1591 43.2454 32.9179C43.8485 32.5158 44.4382 32.1137 45.0413 31.7117" stroke="#4C4C4C" stroke-miterlimit="10"/>
<path d="M21.5475 31.3631V29.0981C23.6383 28.0528 25.8094 27.1816 28.0208 26.4847C25.0455 26.5517 22.097 27.061 19.1486 27.5703L19.0681 25.3857C19.0681 25.2785 19.0681 25.1713 19.1083 25.0775C19.1619 24.9837 19.2557 24.9301 19.363 24.8899C21.8692 23.6971 24.9517 24.4208 27.4579 23.2414C27.3507 20.6279 28.0476 18.0681 29.428 15.8568C29.6693 15.4681 29.9373 15.0794 29.9641 14.6371C29.9909 14.1949 29.6961 13.6722 29.2538 13.6722C28.9723 13.6722 28.7177 13.8598 28.5033 14.0474C26.9084 15.4413 25.5683 17.1032 24.5497 18.9527C24.161 19.663 23.7991 20.5207 24.1074 21.2713C24.1208 19.7568 24.1475 18.2021 24.563 16.7413C24.8847 15.6155 25.4208 14.5568 25.7827 13.4444C26.1445 12.332 26.3321 11.099 25.9301 10C23.9063 11.0454 22.2981 12.8815 21.5074 15.0258C20.7166 17.1702 20.7836 19.6094 21.6548 21.7135C21.5073 20.4537 20.797 19.3548 20.0733 18.3094C19.4032 17.3444 18.6929 16.3661 17.6743 15.7898C16.6692 15.2269 15.463 15.1062 14.3238 15.2403C13.1846 15.3743 12.0856 15.763 11 16.1382C12.1124 17.0094 13.3052 17.7599 14.5784 18.3898C16.6558 19.4218 19.0815 20.2661 20.2073 22.3032" stroke="#4C4C4C" stroke-miterlimit="10"/>
<path d="M30.8756 33.3332C30.5406 29.5672 30.4602 25.761 30.6612 21.9816C33.3685 20.8022 36.1561 19.9444 39.0643 19.4083V24.0053" stroke="#4C4C4C" stroke-miterlimit="10"/>
<path d="M42.2939 23.6301V18.6847C43.0311 18.6847 43.7816 18.7517 44.5187 18.6847V23.8311" stroke="#4C4C4C" stroke-miterlimit="10"/>
<path d="M47.1729 24.5147C48.2584 22.3972 49.4378 20.3332 50.7111 18.3095C52.2121 20.0116 54.2626 21.2312 56.474 21.727C56.1255 19.5157 54.276 17.626 52.0647 17.2373C51.6358 18.4033 51.6224 19.7033 52.0111 20.8827C52.1451 21.2982 52.3327 21.7002 52.641 22.0085C53.4585 22.8394 54.8792 22.826 55.6967 23.657C53.9678 26.391 52.5874 29.3395 51.5822 32.4086" stroke="#4C4C4C" stroke-miterlimit="10"/>
</g>
<defs>
<clipPath id="clip0_1706_5212">
<rect width="80" height="80" rx="8" fill="white"/>
</clipPath>
</defs>
</svg>
