<svg width="80" height="80" viewBox="0 0 80 80" fill="none" xmlns="http://www.w3.org/2000/svg">
<g clip-path="url(#clip0_1706_5192)">
<rect width="80" height="80" rx="8" fill="white"/>
<circle cx="40" cy="86" r="66" fill="#F5E3ED"/>
<g clip-path="url(#clip1_1706_5192)">
<path d="M63.5581 37.3852C66.0447 36.4792 68.5257 35.5788 71.0124 34.6728C71.1707 34.6176 71.3176 34.5458 71.4758 34.485C71.9901 34.6121 72.4592 34.8441 73.0243 34.8606C74.7594 34.9048 76.2118 34.2198 77.6303 33.3581C78.4159 32.883 78.8793 32.0931 79.6197 31.5848C80.1227 31.4025 80.6313 31.2313 81.1343 31.0435C81.3829 30.9496 81.592 30.8336 81.7842 30.6126C82.3776 29.9331 83.2027 29.8834 83.9487 30.4137C84.7964 31.0103 85.1977 32.2809 84.8982 33.2697C84.7569 33.7392 84.3613 33.8387 83.9883 33.9713C81.3547 34.9325 78.7211 35.8937 76.0875 36.8383C50.6274 45.9476 25.1674 55.0624 -0.298362 64.1772C-0.518771 64.2546 -0.73918 64.354 -0.970892 64.4037C-1.66603 64.5584 -2.16336 64.3153 -2.44594 63.669C-2.61548 63.2768 -2.72851 62.857 -2.8698 62.4482C-3.14672 61.6803 -3.06195 61.371 -2.30465 61.0064C-1.7621 60.7467 -1.16304 60.5976 -0.59224 60.3932C4.04765 58.7249 8.68189 57.0456 13.3218 55.3773C15.102 54.7365 16.8879 54.1178 18.6681 53.488C19.465 53.1897 20.2618 52.8914 21.0644 52.5876C33.0569 48.2898 45.0494 43.992 57.0419 39.6943C58.4378 39.1916 59.8394 38.7054 61.2353 38.2083C62.0435 38.0205 62.8234 37.7553 63.5694 37.3852H63.5581Z" fill="#EB7D5C"/>
<path d="M63.5583 37.3851C62.8123 37.7497 62.0324 38.0204 61.2242 38.2082C60.7325 37.7608 60.546 37.1863 60.4839 36.551C60.3426 35.076 60.1165 33.6011 60.0318 32.1206C59.9413 30.5076 59.7492 28.8945 59.7944 27.276C59.8057 26.8451 59.8735 26.4252 59.9526 25.9999C60.0487 25.4917 60.3369 25.1436 60.8456 25.0332C61.3825 24.9171 61.8515 25.116 62.185 25.5359C62.5693 26.0109 62.7671 26.5799 62.8971 27.1655C63.1401 28.2648 63.2983 29.3696 63.3435 30.4965C63.4057 31.9825 63.5074 33.463 63.5639 34.949C63.5922 35.761 63.5639 36.5786 63.5526 37.3906L63.5583 37.3851ZM62.3602 31.0434C62.281 30.154 62.2471 29.2978 62.1172 28.4526C62.0041 27.74 61.8628 27.0218 61.4955 26.381C61.4107 26.2374 61.292 26.0772 61.1055 26.1601C61.0095 26.2043 60.9586 26.3645 60.9134 26.4805C60.8456 26.6407 60.8512 26.8009 60.9756 26.939C61.3372 27.3367 61.3203 27.8394 61.439 28.32C61.6594 29.226 61.5068 30.1651 61.7498 31.0655C61.8346 31.3859 61.5972 31.9825 62.0493 31.9659C62.6427 31.9438 62.2076 31.3251 62.3715 31.0379L62.3602 31.0434ZM62.4506 36.678C62.4789 36.6062 62.4506 36.5399 62.3771 36.5344C62.2415 36.5289 62.1172 36.5952 62.055 36.7112C62.0098 36.7996 62.055 36.899 62.168 36.899C62.3093 36.899 62.3997 36.8051 62.4506 36.678Z" fill="#FFDC7D"/>
<path d="M21.0588 52.593C20.262 52.8913 19.4594 53.1896 18.6626 53.4935C18.0748 53.2062 17.7018 52.7532 17.3853 52.1787C16.3455 50.2839 15.2773 48.4057 14.4353 46.4115C14.277 46.0414 14.164 45.6658 14.1696 45.257C14.1753 44.7267 14.3505 44.2792 14.8422 44.0085C15.3621 43.7213 15.8425 43.9146 16.2494 44.235C16.8089 44.6659 17.3232 45.1575 17.7244 45.732C18.8604 47.3782 19.9511 49.0521 21.104 50.6817C21.5901 51.3667 21.4883 51.9688 21.0475 52.5985L21.0588 52.593Z" fill="#FFDC7D"/>
<path d="M79.6255 31.5848C78.8851 32.0931 78.4161 32.883 77.6362 33.3581C76.2176 34.2198 74.7652 34.9048 73.0302 34.8606C72.465 34.8441 71.9959 34.6121 71.4817 34.485C70.7187 33.5293 70.7018 33.115 71.5269 32.2533C73.1884 30.5021 75.2286 29.4249 77.6418 29.0161C78.0261 28.9498 78.3822 28.9885 78.7382 29.0879C79.6424 29.342 79.9928 29.9221 79.795 30.817C79.7385 31.0711 79.5972 31.3086 79.6255 31.5848ZM76.4437 31.1926C75.7467 31.3436 75.3266 31.6106 75.1834 31.9936C75.709 31.8445 76.065 31.502 76.4437 31.1926Z" fill="#FFDC7D"/>
<path d="M61.8401 25.6297C61.9927 25.8176 62.0718 26.0496 62.1396 26.2816C62.9873 29.1652 62.3939 32.2366 62.4504 35.2362C62.4504 35.3909 62.4335 35.5842 62.2865 35.6395C62.4278 36.1477 62.5691 36.6614 62.7104 37.1697C62.4222 37.2415 62.1227 37.2746 61.8231 37.2746C61.727 37.2746 61.631 37.2746 61.5462 37.2249C61.4106 37.1476 61.354 36.9818 61.3201 36.8327C60.6815 34.1756 60.9697 31.3693 60.365 28.7012C60.2464 28.1653 60.0881 27.6405 60.0486 27.0936C60.009 26.5467 60.0881 25.801 60.5233 25.3977C60.8963 25.0552 61.5349 25.2596 61.8288 25.6242L61.8401 25.6297Z" fill="#FFDC7D"/>
<path d="M74.5674 30.6567C74.8387 30.5407 75.1495 30.6015 75.4434 30.6015C76.2346 30.6015 77.0202 30.1596 77.7888 30.3474C77.8905 30.3695 77.9866 30.4082 78.0601 30.48C78.1448 30.5684 78.1787 30.6899 78.1844 30.8114C78.207 31.1208 78.094 31.4246 77.9414 31.6953C77.574 32.3361 76.958 32.8277 76.2629 33.1095C75.5677 33.3912 74.7991 33.4741 74.0475 33.4243C74.0136 33.4243 73.9797 33.4188 73.9514 33.3967C73.9175 33.3691 73.9119 33.3249 73.9062 33.2862C73.8158 32.6233 73.8158 30.9827 74.5731 30.6567H74.5674Z" fill="#FFDC7D"/>
<path d="M8.5802 55.786C8.34849 55.9186 8.10548 56.0346 7.87942 56.1837C5.96356 57.4488 3.85554 57.6532 1.64015 57.2554C0.628529 57.0731 -0.117471 56.5704 -0.756091 55.7418C-1.85814 54.3111 -2.16897 52.7698 -1.85248 51.0629C-1.60947 49.7592 -1.3608 48.461 -1.06692 47.1684C-0.897379 46.4281 -0.654364 45.6989 -0.388743 44.9863C0.125545 43.5998 1.02979 42.517 2.34094 41.7602C2.60656 41.6111 2.84957 41.4343 3.12085 41.2907C4.41504 40.6112 5.27972 39.6666 5.50013 38.164C5.66968 37.0095 6.39872 36.1698 7.58554 35.8163C8.7554 35.4682 9.89701 35.5456 10.8352 36.3687C11.762 37.1807 11.8524 38.2745 11.632 39.3959C11.502 40.0533 11.1686 40.6333 10.7899 41.1912C10.5921 41.484 10.3096 41.7437 10.27 42.1635C10.8804 42.2905 11.3664 41.9867 11.8863 41.8873C12.638 41.7437 13.367 41.705 14.0678 42.0585C15.3112 42.6772 15.5203 43.8428 14.5652 44.8317C13.887 45.5277 13.8983 45.5222 14.5482 46.1906C15.605 47.2788 15.7463 48.6046 15.492 49.9967C15.2546 51.3059 14.7404 52.5378 14.1865 53.7476C13.8135 54.5652 13.4462 55.3827 13.124 56.2169C12.7397 57.2112 12.8245 57.388 13.7626 57.8631C14.243 58.1061 14.7404 58.3326 15.1981 58.6088C16.6619 59.5038 16.7975 60.929 15.5372 62.0725C15.4129 62.183 15.2942 62.3211 15.1416 62.3818C14.4408 62.647 14.1809 63.0779 14.3504 63.8292C14.4747 64.376 14.1187 64.7738 13.6214 65.0168C13.1297 65.2599 12.5928 65.3483 12.0502 65.3759C10.886 65.4311 9.74442 65.2765 8.63672 64.9561C7.18993 64.5418 6.55131 63.5529 6.74912 62.0835C6.92996 60.7577 7.46121 59.5369 7.92463 58.294C8.21286 57.5206 8.69889 56.819 8.81192 55.9849C8.83452 55.9075 8.90234 55.7971 8.87408 55.7529C8.77801 55.6092 8.67628 55.7142 8.5802 55.7805V55.786Z" fill="#9AAD82"/>
<path d="M41.9807 66.9945C40.2852 66.9945 38.5898 66.9945 36.8943 66.9945C36.1087 66.9945 35.3401 66.8785 34.5941 66.652C33.6616 66.3703 33.4412 65.9505 33.6503 65.0058C33.8934 63.8955 34.4359 62.8956 34.888 61.8626C36.7982 57.4764 38.5615 53.035 39.8953 48.4445C40.223 47.312 41.116 47.185 41.845 47.8755C42.5345 48.5218 43.1336 49.2289 43.6761 49.9968C45.6937 52.8693 47.3383 55.9518 49.1411 58.9459C50.0171 60.3987 50.8705 61.8681 51.5487 63.4259C51.7352 63.8513 51.9386 64.2711 51.9951 64.7407C52.1138 65.6908 51.8143 66.1493 50.8761 66.4697C49.6102 66.9006 48.2764 66.9117 46.9653 66.9724C45.3094 67.0442 43.6422 66.989 41.9807 66.989C41.9807 66.989 41.9807 67 41.9807 67.0056V66.9945Z" fill="#FFDC7D"/>
<path d="M15.2832 45.5884C15.5545 45.9862 15.8144 46.3949 16.097 46.7816C17.233 48.3173 18.3746 49.853 19.5218 51.3777C20.07 52.1069 20.59 52.129 21.2795 51.8473C22.7488 51.2562 24.2578 50.7811 25.7555 50.2563C29.2876 49.0189 32.8029 47.7263 36.3407 46.4888C42.0657 44.4836 47.802 42.5115 53.5326 40.5228C55.4655 39.8544 57.3757 39.1307 59.3254 38.523C59.8115 38.3739 60.1449 38.048 60.0488 37.4403C59.9075 36.5178 59.7945 35.5897 59.7436 34.6561C59.6363 32.6675 59.3593 30.6898 59.4272 28.6956C59.4441 28.1874 59.4159 27.635 59.6645 27.2207C59.9358 26.7732 60.5518 26.5301 61.0548 26.6406C61.6934 26.7843 61.8008 27.4251 61.8799 27.9996C62.1794 30.2147 62.0834 32.4354 62.0721 34.6561C62.0664 35.6726 62.0495 36.6669 62.6937 37.5397L65.7399 36.2305C67.5201 35.6505 69.2721 34.9876 71.0354 34.3578" stroke="#4C4C4C" stroke-linecap="round" stroke-linejoin="round"/>
<path d="M11.4175 57.7139C11.7227 58.0122 12.0844 57.7802 12.3274 57.6918C17.5155 55.7749 22.7657 54.0238 28.0103 52.2671C31.5199 51.096 34.8939 49.505 38.5786 48.8477" stroke="#4C4C4C" stroke-linecap="round" stroke-linejoin="round"/>
<path d="M8.77265 54.4381C6.74941 56.2997 4.51706 57.7471 1.77042 58.5204C0.0580154 59.001 -1.49615 60.0285 -3.12944 60.7964C-3.47418 60.9566 -3.42897 61.2217 -3.43462 61.498C-3.44592 61.9565 -3.23682 62.3763 -3.09553 62.7796C-2.87512 63.4148 -2.36083 63.5364 -1.6996 63.1994C0.402758 62.1222 2.57294 61.1941 4.80529 60.4042C5.13872 60.2882 5.46651 60.1777 5.82256 60.3047" stroke="#4C4C4C" stroke-linecap="round" stroke-linejoin="round"/>
<path d="M38.5786 48.9692C38.7651 49.7205 38.2734 50.3116 38.053 50.9524C36.8492 54.3884 35.4307 57.736 33.8031 61.0008C33.3849 61.8404 33.0401 62.7188 32.6841 63.5861V64.0777C32.9723 64.5031 33.3962 64.6025 33.8992 64.5804C35.4251 64.4975 36.9566 64.492 38.4769 64.4312C41.5909 64.3097 44.7161 64.2655 47.8358 64.4644C48.497 64.5086 49.2091 64.6135 49.8251 64.0335C46.5529 58.7635 44.1171 53.0736 41.1953 47.5661C42.2408 47.2733 43.1224 47.0689 43.9701 46.7761C51.5036 44.1687 59.0314 41.5503 66.5536 38.9318C70.7244 37.479 74.9122 36.0703 79.0773 34.5954C80.5693 34.0651 82.0331 33.3746 83.6438 33.1702" stroke="#4C4C4C" stroke-linecap="round" stroke-linejoin="round"/>
<path d="M78.3542 31.6787C75.9636 31.4301 73.9065 32.209 71.855 33.5182C72.7875 34.6285 73.7934 34.9103 74.9972 34.6617C76.7774 34.2861 78.179 33.5016 78.5577 31.5792" stroke="#4C4C4C" stroke-linecap="round" stroke-linejoin="round"/>
<path d="M7.45023 55.9241C7.65934 56.3439 7.52935 56.7195 7.35415 57.1173C6.56859 58.9182 5.87911 60.7356 5.46655 62.669C5.28005 63.5529 5.51176 63.8291 6.2182 64.1882C7.13374 64.6577 8.13406 64.597 9.08352 64.7295C10.1121 64.8676 11.1859 64.8456 12.2314 64.6633C14.0625 64.3429 14.2886 63.8678 13.4521 62.1829" stroke="#4C4C4C" stroke-linecap="round" stroke-linejoin="round"/>
<path d="M13.2485 44.9918C13.4406 45.8978 13.531 46.8424 13.9718 47.671C14.5766 48.8035 14.9722 49.8033 14.1075 51.0849C13.3502 52.2063 13.0224 53.5929 12.4233 54.8248C11.8525 55.9959 11.2987 57.1615 10.8918 58.4044C10.6318 59.1889 10.0553 59.8517 9.8858 60.6969C9.7106 61.5698 9.78973 61.7299 10.7109 61.7852C11.3608 61.8239 12.0221 61.8846 12.6324 62.0227C13.5367 62.2326 14.0962 61.6581 14.7687 61.3654C15.2265 61.1665 15.2773 60.7577 14.7913 60.3876C14.5313 60.1942 14.2883 60.0617 13.9718 59.9954C12.9037 59.7634 11.943 59.2717 11.0218 58.7138" stroke="#4C4C4C" stroke-linecap="round" stroke-linejoin="round"/>
<path d="M13.9608 50.6596C13.7291 50.527 13.6952 50.2563 13.5539 50.063C12.7062 48.8532 11.915 48.5659 10.5021 49.0797C9.64309 49.3946 8.75015 49.6929 8.15674 50.4607" stroke="#4C4C4C" stroke-linecap="round" stroke-linejoin="round"/>
<path d="M14.2661 54.3386C15.1591 53.7586 16.3515 53.7752 17.058 53.1012C17.171 52.7532 16.9449 52.6758 16.9223 52.5488L15.679 48.8752" stroke="#4C4C4C" stroke-linecap="round" stroke-linejoin="round"/>
<path d="M4.70351 42.7103C5.53428 43.1909 6.30289 43.6439 6.38201 44.7929C6.41592 45.3122 6.6985 46.0193 7.55753 46.2126C9.00431 44.9642 10.2985 43.3511 12.4404 43.0086L13.1525 43.1081C13.7064 43.2241 14.0455 43.6218 14.0342 44.1024C14.0229 44.4891 13.6612 44.9531 13.1582 44.7819C11.8696 44.3455 11.0728 45.2128 10.4454 45.9254C9.3434 47.1683 8.03225 48.2234 7.02063 49.5492C6.86804 49.7481 6.58547 49.969 6.24072 50.0906C5.14433 50.4828 4.02533 49.9967 3.28498 48.6709C2.53898 47.3396 1.95123 45.9364 1.44824 44.5001" stroke="#4C4C4C" stroke-linecap="round" stroke-linejoin="round"/>
<path d="M1.24507 58.5094C0.72513 58.0288 0.00173718 57.852 -0.489944 57.3217C-1.17378 56.587 -1.19638 56.1506 -0.484293 55.4269L3.48307 51.6484C3.12137 51.5711 2.95183 51.8417 2.77663 52.0517C1.45418 53.5763 -0.495596 54.0569 -2.21366 54.9905C-2.36625 54.7419 -2.57535 54.5486 -2.60926 54.3276C-2.90879 52.2063 -3.06138 50.063 -2.50188 47.9748C-1.6485 44.7708 0.267358 42.3071 3.40395 40.9592C4.23472 40.6001 4.32514 40.1969 4.30254 39.5229C4.28558 38.9097 4.29689 38.3021 4.60207 37.7331C5.2859 36.4515 6.85702 36.0206 8.06079 36.3521C9.33803 36.7056 10.1745 38.1087 10.1066 39.5229C10.0106 41.4729 8.18513 43.3069 6.12232 42.0198C5.43849 41.5945 5.18982 42.169 5.01463 42.6993" stroke="#4C4C4C" stroke-linecap="round" stroke-linejoin="round"/>
<path d="M83.2367 33.0652C83.1746 32.0764 82.4794 31.3804 82.0895 30.5297C80.9253 30.8666 79.9193 31.4356 78.7607 31.4743" stroke="#4C4C4C" stroke-linecap="round" stroke-linejoin="round"/>
<path d="M10.2983 46.4833C11.3156 46.8423 12.4403 46.5827 13.4519 46.9804" stroke="#4C4C4C" stroke-linecap="round" stroke-linejoin="round"/>
<path d="M8.06055 42.5115C8.39964 43.2075 8.73873 43.9036 9.07782 44.5996" stroke="#4C4C4C" stroke-linecap="round" stroke-linejoin="round"/>
</g>
</g>
<defs>
<clipPath id="clip0_1706_5192">
<rect width="80" height="80" rx="8" fill="white"/>
</clipPath>
<clipPath id="clip1_1706_5192">
<rect width="89" height="42" fill="white" transform="translate(-4 25)"/>
</clipPath>
</defs>
</svg>
