<svg width="80" height="80" viewBox="0 0 80 80" fill="none" xmlns="http://www.w3.org/2000/svg">
<g clip-path="url(#clip0_1659_4538)">
<rect width="80" height="80" rx="8" fill="white"/>
<circle cx="40" cy="86" r="66" fill="#E3F2FF"/>
<path d="M49.3785 83.8491C45.715 83.8082 41.5475 83.5041 37.4097 82.7965C36.5087 82.6445 36.2656 82.4047 36.1056 81.5334C35.9455 80.6738 35.821 79.8083 35.6787 78.9429C35.6372 78.7031 35.5839 78.4633 35.5187 78.2294C34.914 76.0833 34.1019 75.1301 31.2564 74.826C29.6025 74.6506 27.9248 74.7617 26.2531 74.9079C24.5932 75.0482 22.9156 75.0892 21.2617 74.7442C19.3528 74.3465 18.0961 73.2822 17.6633 71.3291C17.3551 69.9198 17.2365 68.4929 17.1001 67.066C17.0172 66.2298 16.9579 65.3936 16.8334 64.5632C16.7504 64.0135 16.5666 63.4697 16.3117 62.9668C15.9145 62.189 15.298 61.7153 14.3732 61.7329C13.7686 61.7446 13.1639 61.7037 12.5711 61.8498C12.0494 61.9726 11.51 61.9668 10.9764 61.9551C9.74933 61.9259 9.27509 61.306 9.51814 60.0955C9.6367 59.5107 9.80861 58.9435 10.0398 58.388C10.7927 56.5693 11.587 54.7682 12.5533 53.0548C13.6737 51.0549 14.1302 48.8737 14.5333 46.6632C14.9186 44.5405 14.6993 42.4002 14.7467 40.2657C14.8356 36.4647 15.4225 32.7455 16.6496 29.1316C18.9319 22.4301 23.627 17.9682 30.0115 15.0619C33.3727 13.5415 36.9177 12.869 40.5813 13.021C44.2448 13.1731 47.8609 13.7403 51.2814 15.1204C54.4826 16.4069 57.0435 18.5588 59.1954 21.1845C60.9205 23.2897 62.3907 25.5586 63.3984 28.0965C64.0268 29.6754 64.4003 31.3187 64.6196 32.9794C65.0464 36.2074 65.3132 39.4471 65.5325 42.6926C65.6985 45.172 65.2302 47.5696 64.507 49.9321C63.8549 52.0431 63.0902 54.1191 62.2484 56.16C61.9935 56.774 61.703 57.3822 61.3473 57.9435C60.1617 59.8207 59.5511 61.8908 59.1421 64.0369C58.733 66.1655 58.3655 68.3058 58.1699 70.4636C58.0632 71.6156 58.0394 72.7735 58.0335 73.9255C58.0217 75.5395 58.0572 77.1476 58.0691 78.7616C58.0691 79.4282 57.9802 80.089 57.9387 80.7498C57.826 82.51 56.5219 83.3813 54.9272 83.6152C53.2673 83.8608 51.5956 83.8316 49.3963 83.8433L49.3785 83.8491Z" fill="#C4D4B2"/>
<path d="M38.1449 50.3707C37.8485 50.8092 37.6351 51.1309 37.4098 51.4466C36.1353 53.2536 34.3806 54.312 32.1694 54.4875C30.385 54.6278 28.8319 53.9144 27.5158 52.7507C25.2158 50.7098 24.1961 48.0959 23.9946 45.1077C23.9768 44.8621 23.9649 44.6165 23.9946 44.3708C24.0598 43.8212 23.8523 43.4995 23.3425 43.2013C21.3921 42.0668 20.005 40.4587 19.5663 38.2248C19.1573 36.1606 19.4655 34.2425 21.0957 32.7046C21.9316 31.921 22.9275 31.5058 24.0716 31.4648C25.0557 31.4297 26.0457 31.4297 27.0653 31.6169C27.1602 31.1549 27.255 30.7456 27.3321 30.3362C27.913 27.1024 29.6796 24.7516 32.6911 23.3306C34.5703 22.4417 36.5265 21.9037 38.6488 21.9622C41.0141 22.0324 42.8874 22.9797 44.3812 24.7458C45.4246 25.9796 46.0826 27.4006 46.5153 28.9444C46.7584 29.8158 46.794 29.8567 47.6298 29.5234C51.738 27.8626 57.3934 30.8918 58.662 34.5174C59.7646 37.6693 58.7509 41.3476 55.9469 43.5989C55.3956 44.0375 54.8028 44.4293 54.21 44.8153C53.8602 45.0375 53.7417 45.2539 53.8958 45.6749C55.0162 48.7625 53.3682 51.8384 50.3745 53.0723C47.2386 54.3647 44.0908 54.4173 40.9963 52.8735C39.864 52.3063 38.963 51.4817 38.1508 50.3765L38.1449 50.3707Z" fill="#FFDC7D"/>
<path d="M47.3928 64.4404C47.1023 64.4287 46.9126 64.6801 46.6636 64.7854C45.6855 65.2064 44.8555 65.0018 44.2212 64.1538C43.8774 63.6977 43.6877 63.1714 43.5869 62.6159C43.4328 61.7446 43.5039 60.8674 43.5869 60.0019C43.6818 58.9961 44.6303 58.1482 45.7566 57.9903C46.3198 57.9143 46.9126 57.8558 47.4461 58.0605C48.1041 58.3178 48.5428 58.2067 49.0052 57.6628C49.5921 56.9728 50.3983 56.581 51.3527 56.6336C52.6865 56.7096 53.6706 57.616 53.9492 59.0078C54.4235 61.3352 53.2912 64.0252 51.2816 65.3351C50.9259 65.569 50.5465 65.762 50.1315 65.8731C49.0704 66.1479 48.2583 65.8088 47.701 64.8673C47.618 64.7211 47.6121 64.5281 47.3987 64.4404H47.3928Z" fill="#FFDC7D"/>
<path d="M41.8204 41.9734C39.4077 41.874 37.0009 42.1254 34.6 42.2599C33.7404 42.3067 33.4914 42.102 33.2958 41.2483C33.1298 40.529 33.0528 39.8039 33.0765 39.0671C33.1002 38.184 33.3669 37.88 34.268 37.7922C35.3943 37.687 36.5148 37.5408 37.6589 37.5642C39.4669 37.5993 41.2809 37.5642 43.0949 37.5466C43.6996 37.5466 44.2924 37.5466 44.8911 37.4121C45.3002 37.3186 45.7329 37.3478 46.1538 37.4765C46.6458 37.6227 46.9245 37.8683 46.9778 38.418C47.0549 39.1431 47.2268 39.8623 47.1675 40.605C47.0904 41.5056 46.6695 41.95 45.7566 41.9675C44.4406 41.9968 43.1305 41.9734 41.8145 41.9734H41.8204Z" fill="white"/>
<path d="M52.3603 60.1482C52.5085 58.2067 52.1765 57.622 50.5997 57.0957C49.5148 56.7331 48.1573 57.1366 47.5348 58.1658C47.2681 58.6044 46.8887 58.9962 46.7583 59.5225C45.7564 59.2593 44.7605 58.9202 43.7705 59.6102C42.9406 60.1891 42.4248 61.1131 42.6027 61.8265C42.7924 62.5867 43.7705 63.3586 44.7368 63.3937C45.8513 63.4288 46.9657 63.2709 47.8668 64.2182C48.0209 64.382 48.6256 64.3469 49.0109 64.1481C49.746 63.768 50.5345 63.4639 51.1391 62.8791C51.4177 62.6101 51.7082 62.4347 52.1113 62.4698C52.5263 62.8089 52.4255 63.2826 52.4255 63.727C52.4255 66.2182 52.467 68.7093 52.4196 71.1946C52.3603 74.1185 52.716 77.019 52.8523 79.9253C52.8701 80.323 53.1072 80.6563 53.0895 81.0832C53.0598 81.8843 53.4155 82.1475 54.1328 81.9136C54.5596 81.7732 54.9687 81.5978 55.4073 81.4808C56.3025 81.2411 56.3558 80.4341 56.255 79.7207C55.8282 76.7792 55.9883 73.8203 56.1128 70.8847C56.2195 68.493 56.5929 66.0954 57.085 63.7212C57.7134 60.7213 58.7448 57.8793 60.0075 55.1016C61.1161 52.6572 62.3669 50.2596 62.9834 47.6281C63.3332 46.1369 63.5881 44.6341 63.7718 43.1078C63.8963 42.0494 64.009 40.9968 63.9378 39.95C63.677 35.8975 62.7581 32.0146 60.8671 28.3714C59.1717 25.1084 57.1502 22.0968 54.4588 19.5355C51.7319 16.9391 48.4122 15.6584 44.7486 14.9918C42.7212 14.6233 40.6998 14.5649 38.6605 14.6C35.5838 14.6584 32.5902 15.2432 29.8218 16.5239C26.6087 18.0092 23.5143 19.7635 21.0601 22.3833C17.7818 25.8803 15.6418 29.9913 14.4443 34.5876C13.8041 37.0378 13.5314 39.529 13.3298 42.0552C13.0986 44.9908 13.2646 47.9731 12.328 50.8502C11.6759 52.8385 10.7689 54.7215 10.0635 56.6805C9.07941 59.3997 9.58922 59.6687 12.2035 60.2476C14.3969 60.733 14.8119 61.2885 15.1142 63.4112C15.4639 65.8322 15.5232 68.3175 16.5488 70.6332C17.4143 72.5864 18.9259 73.3758 20.9474 73.5162C23.4906 73.6975 25.9448 73.1361 28.4227 72.715C29.7328 72.4928 31.1674 72.4636 32.4597 72.9139C33.3845 73.2355 34.0425 73.9372 34.3034 74.984C34.7658 76.8202 34.7243 78.7031 34.914 80.5627C35.0088 81.5042 34.997 82.4574 35.0325 83.4048" stroke="#4C4C4C" stroke-linecap="round" stroke-linejoin="round"/>
<path d="M25.7373 33.8508C25.0615 34.1665 24.3917 33.763 23.7099 33.8391C19.91 34.2718 17.6989 38.3068 20.0938 42.1546C20.5977 42.9616 21.2557 43.7803 22.1271 44.1194C23.4847 44.6457 23.4669 45.71 23.6092 46.7919C23.8404 48.552 24.279 50.2128 25.6247 51.5344C27.4624 53.3414 31.2801 53.6981 33.5209 52.2537C34.2738 51.7683 35.0563 51.2713 35.5602 50.4818C36.0107 49.7742 36.5205 49.973 36.9414 50.4818C38.8206 52.7624 41.2511 53.9378 44.2033 53.7098C47.6001 53.4466 51.2399 51.9204 52.5263 48.4819C52.9235 47.4176 52.9887 46.3182 52.7279 45.2247C52.5678 44.5463 52.6567 44.096 53.2555 43.6224C54.5774 42.5815 55.7927 41.3944 56.6819 39.9558C59.7764 34.9443 56.8301 30.0556 51.8802 28.7398C49.6986 28.1609 47.4815 28.5761 45.3771 29.4357C44.1144 29.9503 44.1025 29.9386 43.569 28.6989C42.3774 25.9329 40.4805 23.816 37.4749 23.0499C34.0663 22.1845 31.0845 23.2605 28.7547 25.775C26.6443 28.0556 25.7373 30.8509 25.9626 33.9619C25.9626 33.997 26.0278 34.032 26.0634 34.0671" stroke="#4C4C4C" stroke-linecap="round" stroke-linejoin="round"/>
<path d="M45.2642 36.8975C44.0253 37.1431 42.7744 36.9793 41.5295 36.991C39.182 37.0203 36.8345 37.0086 34.487 36.9969C33.7756 36.9969 33.0643 36.9969 32.3529 37.4355C32.3529 38.1606 32.4003 39.0027 32.341 39.8389C32.2817 40.5991 32.5959 40.8155 33.3132 40.7979C35.9097 40.7394 38.5062 40.7219 41.1027 40.681C42.3121 40.6634 43.5214 40.7277 44.7307 40.5932C45.2168 40.5406 45.531 40.4354 45.697 39.95C45.9697 39.1605 45.9341 38.336 46.0052 37.529C46.0408 37.0846 45.6258 37.0612 45.365 36.8975" stroke="#4C4C4C" stroke-linecap="round" stroke-linejoin="round"/>
</g>
<defs>
<clipPath id="clip0_1659_4538">
<rect width="80" height="80" rx="8" fill="white"/>
</clipPath>
</defs>
</svg>
