<svg width="80" height="80" viewBox="0 0 80 80" fill="none" xmlns="http://www.w3.org/2000/svg">
<g clip-path="url(#clip0_1659_4488)">
<rect width="80" height="80" rx="8" fill="white"/>
<circle cx="40" cy="86" r="66" fill="#EDF5E3"/>
<g clip-path="url(#clip1_1659_4488)">
<path d="M21.549 20.3227C21.9754 20.9462 21.8495 21.6435 21.8008 22.3245C21.7033 23.715 21.5084 25.0973 21.6546 26.5084C21.7439 27.3329 21.7033 28.1779 21.683 29.0106C21.6302 31.123 21.7967 33.2273 21.9551 35.3316C21.9632 35.43 21.9632 35.5285 21.9673 35.6269C22.0282 39.335 22.1541 43.0391 22.1987 46.7472C22.2353 49.5939 22.2475 52.4406 22.2637 55.2873C22.2637 55.4842 22.2718 55.6811 22.2637 55.878C22.2231 56.6574 21.9104 56.9896 21.151 57.0552C20.9561 57.0716 20.7612 57.0799 20.5703 57.0922C19.819 57.0019 19.0637 57.0593 18.3124 57.0511C17.7317 57.047 17.1632 57.1455 16.6069 57.3055C15.9043 57.3096 15.7825 57.2111 15.7175 56.5589C15.6485 55.8739 15.6038 55.193 15.6079 54.5039C15.6201 51.7556 15.6079 49.0032 15.6363 46.2549C15.6607 44.1958 15.6485 42.1325 15.5591 40.0775C15.4008 36.4473 15.5348 32.813 15.4048 29.1828C15.3439 27.4641 15.4454 25.7536 15.4779 24.0391C15.4982 22.9603 15.6119 21.8856 15.5916 20.8068C15.5835 20.454 15.7094 20.1874 16.014 20.011C17.0454 20.3186 18.1094 20.4089 19.1693 20.4499C19.9652 20.4827 20.7734 20.5688 21.5571 20.3309L21.549 20.3227Z" fill="#FFDC7D"/>
<path d="M26.1054 57.3014C25.4029 57.3055 25.281 57.2071 25.2161 56.5549C25.147 55.8699 25.1023 55.1889 25.1064 54.4998C25.1186 51.7516 25.1064 48.9992 25.1348 46.2509C25.1592 44.1918 25.147 42.1285 25.0577 40.0735C24.8993 36.4433 25.0333 32.809 24.9034 29.1788C24.8424 27.4601 24.944 25.7496 24.9765 24.035C24.9968 22.9562 25.1105 21.8815 25.0902 20.8027C25.082 20.45 25.2079 20.1833 25.5125 20.007C26.544 20.3146 27.6079 20.4048 28.6678 20.4459C29.4638 20.4787 30.2719 20.5648 31.0556 20.3269C31.482 20.9504 31.3562 21.6477 31.3074 22.3286C31.21 23.7192 31.015 25.1015 31.1612 26.5126C31.2506 27.3371 31.21 28.182 31.1897 29.0147C31.1369 31.1272 31.3034 33.2315 31.4617 35.3358C31.4699 35.4342 31.4699 35.5326 31.4739 35.6311C31.5348 39.3392 31.6607 43.0432 31.7054 46.7513C31.7419 49.5981 31.7541 52.4448 31.7704 55.2915C31.7704 55.4884 31.7785 55.6853 31.7704 55.8822C31.7298 56.6615 31.4171 56.9938 30.6577 57.0594C30.4628 57.0758 30.2678 57.084 30.077 57.0963C29.3257 57.0061 28.5704 57.0635 27.8191 57.0553C27.2384 57.0512 26.6699 57.1497 26.1135 57.3096L26.1054 57.3014Z" fill="#FFDC7D"/>
<path d="M40.7249 22.4517C43.0355 22.5337 45.3462 22.5871 47.6569 22.6814C48.396 22.7101 48.5868 22.907 48.6193 23.6618C48.6518 24.4247 48.5584 25.1795 48.465 25.9383C48.3188 27.1566 48.1726 28.3707 48.0386 29.5931C47.9696 30.2371 47.6203 30.6063 47.0193 30.7868C46.6173 30.9098 46.2112 30.9467 45.7929 30.9467C42.7756 30.9549 39.7625 30.877 36.7533 30.635C35.6772 30.5489 35.0762 30.1223 34.9909 29.3142C34.9503 28.9327 34.8975 28.543 34.9015 28.1616C34.9178 27.0048 34.7066 25.8645 34.6782 24.7119C34.666 24.2196 34.6173 23.7315 34.6213 23.2393C34.6213 22.7347 34.7513 22.5953 35.2548 22.5173C36.2213 22.3656 37.2 22.4681 38.1706 22.4599C39.0234 22.4517 39.8721 22.4599 40.7249 22.4599V22.4517Z" fill="#AFC199"/>
<path d="M56.6274 22.0866C56.9076 22.1727 57.1919 22.2096 57.4883 22.2178C59.2426 22.2547 60.9929 22.2137 62.735 22.0004C62.8812 21.984 63.0274 21.9799 63.1736 21.984C64.002 22.0004 64.3147 22.2835 64.3716 23.1326C64.4568 24.3877 64.2863 25.6347 64.1766 26.8817C64.1157 27.6159 64.132 28.3543 63.9898 29.0844C63.8274 29.9458 63.6325 30.1673 62.7838 30.315C61.3624 30.5652 59.9249 30.5898 58.4914 30.5529C57.3462 30.5242 56.2051 30.5119 55.0599 30.4914C54.2315 30.475 53.4071 30.4134 52.5827 30.3355C51.7381 30.2576 51.2995 29.8925 51.2223 28.949C51.0924 27.3083 51.0233 25.6634 50.8487 24.0268C50.8447 23.9775 50.8406 23.9283 50.8365 23.8791C50.7716 22.7716 51.0477 22.4147 52.1401 22.2547C53.1553 22.1071 54.1746 22.0538 55.198 22.0702C55.6731 22.0743 56.1482 22.0784 56.6233 22.0866H56.6274Z" fill="#AFC199"/>
<path d="M44.6721 64.1228C43.7584 64.5371 42.7838 64.574 41.8132 64.5166C40.0183 64.4059 38.2234 64.3115 36.4284 64.2664C36.0142 64.2582 35.6081 64.2008 35.198 64.1433C34.7472 64.0818 34.5036 63.8234 34.4386 63.3804C34.3939 63.0645 34.3249 62.7487 34.3208 62.4329C34.2843 60.4229 34.2031 58.413 34.4305 56.4072C34.5523 55.3407 34.6944 55.1807 35.7218 55.1725C38.398 55.1561 41.0701 55.1356 43.7462 55.1192C44.1076 55.1192 44.4772 55.0781 44.8142 55.2791C44.6843 55.6811 44.6883 56.0995 44.6965 56.5179C44.7411 58.6058 44.6315 60.6895 44.5015 62.7692C44.4731 63.2368 44.4122 63.6962 44.6762 64.1228H44.6721Z" fill="#B3D9F7"/>
<path d="M51.5186 59.5739C51.5186 58.3967 51.5186 57.2153 51.5186 56.0381C51.5186 55.5089 51.616 55.3695 52.1114 55.2956C53.3378 55.1069 54.5642 54.9306 55.7906 54.7501C56.2008 54.6885 56.5581 54.7788 56.8546 55.0946C57.0048 55.2546 57.1795 55.39 57.3541 55.5212C57.9389 55.956 58.5602 56.0052 59.2099 55.6812C59.2546 55.6607 59.3033 55.6443 59.3358 55.6115C60.2211 54.8444 61.2851 54.8526 62.3693 54.869C63.2424 54.8813 64.1196 54.8157 64.9927 54.7747C65.6627 54.7419 65.8698 54.9059 65.9186 55.5951C66.012 56.9938 66.0363 58.3885 65.9348 59.7872C65.8617 60.8127 65.8901 61.8464 65.8779 62.8759C65.8698 63.4748 65.7683 63.6184 65.1957 63.6922C64.2779 63.8153 63.3602 63.9096 62.4465 64.0368C61.7521 64.1352 61.212 63.9465 60.818 63.3312C60.3592 62.6175 59.7054 62.2606 58.8485 62.3017C58.2556 62.3304 57.7277 62.5601 57.3825 63.0195C56.68 63.9424 55.75 64.1803 54.6739 64.1352C53.9713 64.1065 53.2607 64.1352 52.5581 64.0983C51.7947 64.0532 51.5795 63.7948 51.5795 63.0359C51.5795 61.8833 51.5795 60.7265 51.5795 59.5739C51.5592 59.5739 51.5429 59.5739 51.5226 59.5739H51.5186ZM57.9673 61.4895C59.4252 61.51 60.8871 61.5633 62.345 61.4731C62.7307 61.4485 63.1165 61.3828 63.4983 61.3172C63.8191 61.2639 64.0465 61.0588 64.079 60.7388C64.1439 60.0784 64.1724 59.4139 64.1114 58.7535C64.0871 58.4869 63.8759 58.2162 63.6444 58.2777C63.1003 58.4295 62.5886 58.1875 62.0647 58.2572C61.147 58.3843 60.217 58.3351 59.2952 58.3556C57.545 58.3926 55.7906 58.2859 54.0485 58.5074C53.8292 58.5361 53.614 58.4992 53.3988 58.4623C52.7368 58.3515 52.4485 58.5935 52.4323 59.2827C52.4241 59.7257 52.4323 60.1687 52.4729 60.6076C52.5378 61.3459 52.6881 61.4813 53.4394 61.4854C54.946 61.4936 56.4566 61.4854 57.9632 61.4854L57.9673 61.4895Z" fill="#EB7D5C"/>
<path d="M56.6029 42.7725C56.6719 44.4215 56.611 46.0622 56.3511 47.6948C56.3064 47.9819 56.2333 48.2731 56.1277 48.548C55.7135 49.6432 54.8973 50.2626 53.7602 50.3528C52.6516 50.4389 51.7054 50.0411 51.0597 49.0648C50.8364 48.7285 50.6942 48.3634 50.7024 47.9614C50.7633 45.2582 50.4262 42.5633 50.5237 39.8601C50.5521 39.0726 50.5846 38.2891 50.743 37.518C51.1166 35.6967 51.8881 35.1102 53.7074 35.2332C54.877 35.3111 55.6526 35.9141 56.0668 37.0175C56.4445 38.0184 56.5419 39.0726 56.5907 40.1268C56.6313 41.0087 56.5988 41.8947 56.5988 42.7807L56.6029 42.7725Z" fill="#CABCDB"/>
<path d="M64.7936 42.7396C64.8585 44.4378 64.8098 46.1319 64.5215 47.8055C64.2697 49.2617 63.3926 50.1682 62.0525 50.3404C60.4118 50.5496 58.7997 49.3314 58.8728 47.6209C58.9743 45.1146 58.625 42.6166 58.7103 40.1062C58.7428 39.1464 58.7712 38.1906 58.9946 37.2554C59.0555 36.9929 59.1367 36.7344 59.2342 36.4842C59.4657 35.8977 59.8839 35.5244 60.4931 35.3562C61.0657 35.2003 61.6504 35.1757 62.2311 35.266C63.2423 35.4218 63.888 36.0371 64.2494 36.9806C64.6393 38.006 64.7367 39.0848 64.7895 40.1636C64.8301 41.0209 64.7976 41.8823 64.7976 42.7437L64.7936 42.7396Z" fill="#CABCDB"/>
<path d="M40.5217 42.8422C40.5866 44.4666 40.5298 46.0827 40.2821 47.6907C40.2333 48.0065 40.1562 48.3183 40.0425 48.6136C39.6404 49.635 38.9135 50.279 37.8252 50.3938C36.6557 50.521 35.6648 50.16 34.9785 49.1263C34.7552 48.7859 34.6171 48.4208 34.6252 48.0229C34.6821 45.2952 34.3409 42.5756 34.4506 39.8478C34.479 39.1874 34.5359 38.5229 34.609 37.8666C34.6658 37.3539 34.8242 36.8576 35.0394 36.3899C35.2465 35.9428 35.5795 35.6311 36.0465 35.4875C36.5623 35.3275 37.0902 35.2455 37.6303 35.2947C38.8851 35.4055 39.681 36.07 40.0587 37.2883C40.3552 38.2358 40.4689 39.2079 40.5135 40.1883C40.5501 41.0702 40.5217 41.9562 40.5217 42.8422Z" fill="#CABCDB"/>
<path d="M48.8466 41.9521C48.8954 43.7487 48.7938 45.5372 48.5908 47.3174C48.5502 47.6578 48.4608 47.9901 48.3756 48.3224C47.9086 50.0862 45.7035 51.1281 43.8273 49.7129C43.2182 49.2535 42.8811 48.6218 42.8974 47.8096C42.9421 45.9186 42.7674 44.0318 42.6943 42.1449C42.6415 40.7913 42.7065 39.4458 42.8243 38.0963C42.873 37.5303 43.0192 36.9847 43.2304 36.4597C43.4334 35.9551 43.7827 35.5901 44.2984 35.4219C45.1309 35.1471 45.9715 35.1265 46.804 35.4342C47.3806 35.6475 47.7827 36.0495 48.0547 36.6032C48.4974 37.5015 48.6517 38.4696 48.7248 39.4499C48.7857 40.2826 48.802 41.1194 48.8385 41.9521H48.8466Z" fill="#CABCDB"/>
<path d="M20.6759 62.3713C21.9226 62.8636 22.4059 63.6183 22.28 64.9473C22.2272 65.5052 22.1297 66.063 22.0039 66.6086C21.5937 68.4175 20.7572 68.6349 19.4211 68.8236C18.7754 68.9139 18.1094 68.8811 17.4556 68.8359C16.1155 68.7457 15.283 67.8925 15.145 66.5389C15.0597 65.7103 15.0719 64.8858 15.149 64.0613C15.2343 63.163 15.5389 62.8759 16.4201 62.802C16.8506 62.7651 17.281 62.7118 17.6709 62.5026C18.077 62.5067 18.4871 62.5272 18.8932 62.5149C19.4902 62.4944 20.0952 62.601 20.6759 62.3754V62.3713Z" fill="#F7B3B3"/>
<path d="M30.1784 62.3713C31.4251 62.8636 31.9083 63.6183 31.7824 64.9473C31.7296 65.5052 31.6322 66.063 31.5063 66.6086C31.0961 68.4175 30.2596 68.6349 28.9236 68.8236C28.2779 68.9139 27.6119 68.8811 26.9581 68.8359C25.618 68.7457 24.7855 67.8925 24.6474 66.5389C24.5621 65.7103 24.5743 64.8858 24.6515 64.0613C24.7368 63.163 25.0413 62.8759 25.9225 62.802C26.353 62.7651 26.7835 62.7118 27.1733 62.5026C27.5794 62.5067 27.9895 62.5272 28.3956 62.5149C28.9926 62.4944 29.5977 62.601 30.1784 62.3754V62.3713Z" fill="#F7B3B3"/>
<path d="M20.6761 62.3713C20.0954 62.5969 19.4903 62.4903 18.8933 62.5108C18.4873 62.5231 18.0771 62.5026 17.671 62.4985C17.135 62.4697 16.6111 62.3754 16.1076 62.1949C15.5999 62.0144 15.3035 61.6617 15.3116 61.0915C15.3197 60.4516 15.2913 59.8117 15.336 59.1759C15.3928 58.3473 15.7461 57.7156 16.6111 57.4941C17.4639 57.3383 18.3086 57.1537 19.1857 57.1988C19.6446 57.2234 20.0832 57.4039 20.5502 57.3383C21.5532 57.5926 21.8375 57.9618 21.8578 58.9749C21.87 59.6435 21.7847 60.2998 21.6832 60.952C21.5857 61.5878 21.338 62.1334 20.6761 62.3713Z" fill="#BDBDBD"/>
<path d="M30.1785 62.3713C29.5978 62.5969 28.9927 62.4903 28.3958 62.5108C27.9897 62.5231 27.5795 62.5026 27.1735 62.4985C26.6374 62.4697 26.1136 62.3754 25.61 62.1949C25.1024 62.0144 24.8059 61.6617 24.8141 61.0915C24.8222 60.4516 24.7938 59.8117 24.8384 59.1759C24.8953 58.3473 25.2486 57.7156 26.1136 57.4941C26.9663 57.3383 27.811 57.1537 28.6882 57.1988C29.1471 57.2234 29.5856 57.4039 30.0526 57.3383C31.0557 57.5926 31.34 57.9618 31.3603 58.9749C31.3724 59.6435 31.2872 60.2998 31.1856 60.952C31.0882 61.5878 30.8405 62.1334 30.1785 62.3713Z" fill="#BDBDBD"/>
<path d="M44.6717 64.1228C44.4078 63.7003 44.4687 63.2409 44.4971 62.7692C44.623 60.6854 44.7326 58.6058 44.692 56.5179C44.6839 56.0995 44.6798 55.6852 44.8098 55.2791C45.3986 55.1397 45.9834 54.9879 46.5722 54.8648C46.759 54.8238 46.9621 54.8279 47.1529 54.8607C48.0788 55.0207 48.1804 55.152 48.1804 56.1077C48.1804 57.5516 48.0585 58.9831 47.9042 60.4147C47.8555 60.8741 47.8636 61.3458 47.8961 61.8134C47.9326 62.3385 47.8027 62.8348 47.7215 63.3393C47.6646 63.6962 47.4738 63.9136 47.0677 64.0121C46.2677 64.209 45.4717 64.0859 44.6758 64.1228H44.6717Z" fill="#FFF5F2"/>
<path d="M41.9307 12.8122C42.8607 12.8122 43.815 12.9639 44.7449 13.288C45.5856 13.5833 46.0891 14.1822 46.2475 15.0272C46.414 15.9009 46.2191 16.7459 45.4556 17.2545C44.546 17.8616 44.2455 18.6697 44.3186 19.7034C44.351 20.1915 44.347 20.6837 44.351 21.176C44.351 21.4713 44.2739 21.7297 43.9287 21.7543C43.6079 21.7748 43.4333 21.5533 43.3886 21.2662C43.2262 20.2161 43.1977 19.166 43.4536 18.1241C43.5673 17.6565 43.8312 17.275 44.1845 16.9592C44.3104 16.8443 44.4566 16.7541 44.5866 16.6434C45.48 15.8558 45.3541 15.06 44.2414 14.6662C43.0637 14.2478 41.8455 14.0427 40.5866 14.0838C40.1805 14.0961 39.8272 14.2684 39.4901 14.4488C39.1571 14.6252 39.0597 14.9616 39.1653 15.3389C39.3439 15.9747 39.685 16.5285 40.217 16.8895C41.0008 17.4227 41.281 18.12 41.1389 19.0348C41.0414 19.6624 40.9642 20.2981 40.8668 20.9257C40.8465 21.0693 40.7977 21.2129 40.7328 21.34C40.6637 21.4795 40.5378 21.5656 40.3754 21.5451C40.1967 21.5205 40.0505 21.4221 40.0262 21.2252C40.0099 21.1062 39.9977 20.975 40.0262 20.8601C40.1805 20.2366 40.1236 19.5885 40.2495 18.9609C40.351 18.4605 40.2373 18.079 39.8028 17.7468C39.2018 17.2874 38.6942 16.7254 38.3896 15.9953C38.0201 15.1092 38.1135 14.0715 39.1571 13.4603C40.0099 12.9598 40.9155 12.7753 41.9307 12.8122Z" fill="#BDBDBD"/>
<path d="M21.549 20.3228C20.7612 20.5648 19.953 20.4746 19.1612 20.4418C18.0972 20.4007 17.0332 20.3105 16.0058 20.0029C15.9855 19.3301 16.1845 18.6943 16.3591 18.0627C16.7206 16.7418 17.1469 15.4374 17.5449 14.1248C17.5936 13.9608 17.6464 13.7967 17.7195 13.6408C17.8414 13.3824 17.9063 13.0665 18.3002 13.0747C18.686 13.0829 18.8525 13.3455 18.9865 13.6449C19.352 14.4735 19.7297 15.298 20.0667 16.1389C20.4525 17.0946 20.8302 18.0503 21.2688 18.9774C21.4678 19.3999 21.6464 19.8306 21.553 20.3187L21.549 20.3228Z" fill="#FFE9E3"/>
<path d="M31.0514 20.3228C30.2636 20.5648 29.4555 20.4746 28.6636 20.4418C27.5996 20.4007 26.5357 20.3105 25.5083 20.0029C25.488 19.3301 25.687 18.6943 25.8616 18.0627C26.223 16.7418 26.6494 15.4374 27.0474 14.1248C27.0961 13.9608 27.1489 13.7967 27.222 13.6408C27.3438 13.3824 27.4088 13.0665 27.8027 13.0747C28.1885 13.0829 28.355 13.3455 28.489 13.6449C28.8545 14.4735 29.2321 15.298 29.5692 16.1389C29.955 17.0946 30.3326 18.0503 30.7712 18.9774C30.9702 19.3999 31.1489 19.8306 31.0555 20.3187L31.0514 20.3228Z" fill="#FFE9E3"/>
<path d="M56.627 22.0866C56.1519 22.0825 55.6768 22.0784 55.2016 22.0702C55.5306 21.861 55.9245 22.0702 56.2981 21.8897C56.0707 21.0365 56.3631 20.2079 56.4727 19.3752C56.558 18.723 56.4524 18.2431 55.9489 17.8083C55.5225 17.4473 55.1448 17.0289 54.8037 16.5736C53.756 15.1708 54.4626 13.489 55.9529 12.927C56.5783 12.6891 57.2199 12.6112 57.89 12.726C58.4179 12.8163 58.9499 12.8778 59.4778 12.9434C60.3265 13.0501 61.0412 13.4234 61.6991 13.9607C62.6331 14.7237 62.5194 16.2906 61.8412 17.0125C61.622 17.2422 61.3986 17.4719 61.159 17.677C60.7367 18.0339 60.5255 18.4564 60.5742 19.0266C60.6148 19.4901 60.6067 19.9577 60.6839 20.4212C60.7407 20.7576 60.7732 21.1103 60.692 21.4467C60.6352 21.701 60.4768 21.8979 60.1885 21.8979C59.9123 21.8979 59.7945 21.6805 59.7783 21.459C59.7011 20.4581 59.5184 19.4573 59.6199 18.4482C59.6687 17.9683 59.892 17.5622 60.2331 17.2258C60.4768 16.9838 60.7286 16.7541 60.9763 16.5162C61.3458 16.1634 61.4433 15.7245 61.3702 15.2364C61.3418 15.06 61.2808 14.8795 61.0981 14.8344C60.4768 14.6827 59.9854 14.252 59.3681 14.0756C58.6859 13.8828 57.9915 13.7884 57.3011 13.6736C56.8585 13.5998 56.4199 13.7146 56.0423 13.9566C55.3154 14.4201 54.893 15.1257 55.6077 16.0568C55.9489 16.4998 56.359 16.8936 56.7692 17.2792C57.2321 17.7099 57.4311 18.2144 57.4067 18.8502C57.3742 19.6911 57.1996 20.5032 57.0615 21.3236C57.0088 21.6354 56.7326 21.8036 56.6352 22.0784L56.627 22.0866Z" fill="#BDBDBD"/>
<path d="M20.546 57.3383C20.079 57.408 19.6404 57.2234 19.1816 57.1988C18.3044 57.1537 17.4597 57.3383 16.6069 57.4941C16.6069 57.4285 16.6069 57.367 16.6069 57.3014C17.1633 57.1414 17.7318 57.0429 18.3125 57.047C19.0638 57.0552 19.8191 56.9978 20.5704 57.0881C20.5623 57.1701 20.5541 57.2521 20.546 57.3342V57.3383Z" fill="#FFE9E3"/>
<path d="M30.0485 57.3383C29.5815 57.408 29.1429 57.2234 28.684 57.1988C27.8068 57.1537 26.9622 57.3383 26.1094 57.4941C26.1094 57.4285 26.1094 57.367 26.1094 57.3014C26.6657 57.1414 27.2342 57.0429 27.815 57.047C28.5662 57.0552 29.3216 56.9978 30.0728 57.0881C30.0647 57.1701 30.0566 57.2521 30.0485 57.3342V57.3383Z" fill="#FFE9E3"/>
<path d="M57.9674 61.4894C56.4608 61.4894 54.9501 61.4976 53.4435 61.4894C52.6882 61.4853 52.542 61.3499 52.477 60.6116C52.4364 60.1727 52.4283 59.7297 52.4364 59.2867C52.4527 58.5976 52.741 58.3555 53.4029 58.4663C53.6222 58.5032 53.8374 58.5401 54.0527 58.5114C55.7989 58.2899 57.5532 58.3966 59.2994 58.3596C60.2212 58.3391 61.1511 58.3884 62.0689 58.2612C62.5928 58.1874 63.1085 58.4294 63.6486 58.2817C63.876 58.2202 64.0912 58.4868 64.1156 58.7575C64.1725 59.4179 64.144 60.0824 64.0831 60.7429C64.0506 61.0669 63.8232 61.2679 63.5024 61.3212C63.1207 61.3868 62.7349 61.4525 62.3491 61.4771C60.8912 61.5673 59.4293 61.514 57.9714 61.4935L57.9674 61.4894ZM56.408 60.6116C56.408 60.6362 56.3999 60.6649 56.3958 60.6895H62.341C62.341 60.6649 62.341 60.6362 62.341 60.6116H56.408ZM53.7806 60.6772C53.6791 60.6075 53.6425 60.5706 53.6019 60.5583C53.5126 60.5255 53.3461 60.3778 53.3583 60.5952C53.3704 60.7757 53.5775 60.7059 53.7806 60.6772ZM63.1369 60.4967C63.007 60.4106 62.8852 60.386 62.7714 60.5255C62.9014 60.6034 63.0232 60.6444 63.1369 60.4967Z" fill="#FFF5F2"/>
<path d="M56.4077 60.6116H62.3407C62.3407 60.6362 62.3407 60.6649 62.3407 60.6895H56.3955C56.3955 60.6649 56.4036 60.6362 56.4077 60.6116Z" fill="#F7B3B3"/>
<path d="M53.7765 60.6814C53.5734 60.7101 53.3663 60.7798 53.3541 60.5993C53.342 60.3778 53.5085 60.5296 53.5978 60.5624C53.6425 60.5788 53.675 60.6117 53.7765 60.6814Z" fill="#EB7D5C"/>
<path d="M63.1326 60.5008C63.0189 60.6485 62.897 60.6075 62.7671 60.5295C62.8808 60.3901 63.0026 60.4188 63.1326 60.5008Z" fill="#F7B3B3"/>
<path d="M52.4893 58.4745C55.3848 58.2694 58.2883 58.3391 61.1878 58.3227C61.6264 58.3227 62.0528 58.1299 62.5035 58.175C62.7066 58.1955 62.9137 58.1627 63.0152 58.4006C63.2914 59.0487 63.1776 59.7338 63.137 60.3901C63.1127 60.792 62.6538 60.6854 62.3573 60.6854C59.3604 60.6895 56.3634 60.6854 53.3665 60.6854C52.3959 60.6854 52.3431 60.7387 52.3431 61.7191C52.3431 62.1375 52.3472 62.5559 52.3431 62.9743C52.335 63.4296 52.534 63.6511 53.001 63.6429C53.6589 63.6265 54.3167 63.6388 54.9746 63.6429C55.401 63.6429 55.6853 63.3516 55.998 63.126C57.2243 62.24 58.9299 61.8257 60.3066 63.0563C60.4243 63.1588 60.5259 63.204 60.6761 63.204C61.9431 63.1999 63.2101 63.204 64.4609 63.204C64.5868 62.8717 64.7046 62.6174 64.6964 62.318C64.6558 60.0291 64.7614 57.7402 64.6315 55.4555C64.603 54.9756 64.4447 54.7787 63.9614 54.7869C62.8406 54.8074 61.7198 54.7951 60.599 54.7869C60.1888 54.7869 59.8721 54.955 59.5716 55.2258C58.3127 56.3661 56.5015 56.5261 55.1289 55.5088C54.2639 54.8648 53.3665 54.8115 52.4162 55.0289C51.9776 55.1273 51.4416 54.8648 51.1046 55.3119C50.7675 55.7549 50.9746 56.2923 50.9624 56.7845C50.9137 58.7534 50.9056 60.7182 50.8771 62.6871C50.8771 62.884 50.8325 63.0809 50.8081 63.2778" stroke="#4C4C4C" stroke-linecap="round" stroke-linejoin="round"/>
<path d="M53.5854 47.5511C53.6098 45.3853 53.6748 43.2195 53.6342 41.0578C53.622 40.3277 53.6707 39.573 53.4555 38.8387C53.3215 38.3916 53.3499 37.8994 52.7083 37.883C52.0423 37.8625 51.9327 38.4408 51.8636 38.851C51.7743 39.3514 51.7093 39.8765 51.6849 40.3933C51.5834 42.8545 51.5834 45.3115 51.6849 47.7726C51.7052 48.2444 51.7662 48.7243 51.8596 49.1673C51.9976 49.8195 53.1103 50.0984 53.7966 49.68C54.4951 49.2534 54.9337 48.634 55.0514 47.7726C55.3844 45.3238 55.4129 42.8545 55.4697 40.3933C55.49 39.454 55.3926 38.5106 55.1895 37.5876C54.9824 36.6606 54.2514 36.0494 53.289 36.0412C52.5499 36.033 51.8149 35.9961 51.0961 36.2545C50.4545 36.4842 50.1012 36.8575 50.0646 37.5876C49.9794 39.335 49.9672 41.0825 50.0687 42.8299C50.1052 43.4903 50.1052 44.1589 50.0687 44.8234C50.0118 45.7668 50.1986 46.6938 50.223 47.6291" stroke="#4C4C4C" stroke-linecap="round" stroke-linejoin="round"/>
<path d="M37.5044 47.5511C37.5288 45.3853 37.5937 43.2195 37.5531 41.0578C37.5409 40.3277 37.5897 39.573 37.3744 38.8387C37.2404 38.3916 37.2689 37.8994 36.6272 37.883C35.9612 37.8625 35.8516 38.4408 35.7826 38.851C35.6932 39.3514 35.6283 39.8765 35.6039 40.3933C35.5024 42.8545 35.5024 45.3115 35.6039 47.7726C35.6242 48.2444 35.6851 48.7243 35.7785 49.1673C35.9166 49.8195 37.0293 50.0984 37.7156 49.68C38.414 49.2534 38.8526 48.634 38.9704 47.7726C39.3034 45.3238 39.3318 42.8545 39.3887 40.3933C39.409 39.454 39.3115 38.5106 39.1085 37.5876C38.9013 36.6606 38.1704 36.0494 37.2079 36.0412C36.4689 36.033 35.7338 35.9961 35.0151 36.2545C34.3734 36.4842 34.0201 36.8575 33.9836 37.5876C33.8983 39.335 33.8861 41.0825 33.9876 42.8299C34.0242 43.4903 34.0242 44.1589 33.9876 44.8234C33.9308 45.7668 34.1176 46.6938 34.142 47.6291" stroke="#4C4C4C" stroke-linecap="round" stroke-linejoin="round"/>
<path d="M61.7722 47.182C61.7722 45.9022 61.7032 44.6183 61.7885 43.3467C61.8981 41.7839 61.7804 40.2416 61.6098 38.6993C61.5692 38.326 61.358 37.9773 60.891 37.9609C60.5012 37.9445 60.0991 38.4368 60.0139 38.9905C59.8474 40.0898 59.7946 41.2014 59.7946 42.3131C59.7986 44.2081 59.7702 46.1032 59.8595 47.9942C59.8799 48.4208 59.9692 48.8351 60.0382 49.2453C60.1438 49.8852 61.0088 50.0903 61.8453 49.7703C62.7996 49.4052 63.0758 48.6013 63.2342 47.6988C63.4291 46.5995 63.4494 45.4838 63.5103 44.3763C63.62 42.4853 63.6687 40.5903 63.5306 38.6952C63.4941 38.2071 63.4007 37.7189 63.2098 37.3046C62.8849 36.6032 62.3895 36.0823 61.4798 36.0946C60.5986 36.1069 59.7377 36.0618 58.9174 36.476C58.4707 36.7017 58.2799 37.0175 58.2555 37.5179C58.154 39.7576 58.1458 41.9931 58.2555 44.2327C58.2839 44.7988 58.2555 45.3649 58.2595 45.9309C58.2595 46.5011 58.2108 47.0754 58.4057 47.6291" stroke="#4C4C4C" stroke-linecap="round" stroke-linejoin="round"/>
<path d="M45.6912 47.182C45.6912 45.9022 45.6221 44.6183 45.7074 43.3467C45.8171 41.7839 45.6993 40.2416 45.5287 38.6993C45.4881 38.326 45.277 37.9773 44.81 37.9609C44.4201 37.9445 44.0181 38.4368 43.9328 38.9905C43.7663 40.0898 43.7135 41.2014 43.7135 42.3131C43.7176 44.2081 43.6892 46.1032 43.7785 47.9942C43.7988 48.4208 43.8881 48.8351 43.9572 49.2453C44.0628 49.8852 44.9277 50.0903 45.7643 49.7703C46.7186 49.4052 46.9947 48.6013 47.1531 47.6988C47.348 46.5995 47.3683 45.4838 47.4293 44.3763C47.5389 42.4853 47.5876 40.5903 47.4496 38.6952C47.413 38.2071 47.3196 37.7189 47.1287 37.3046C46.8039 36.6032 46.3084 36.0823 45.3988 36.0946C44.5176 36.1069 43.6567 36.0618 42.8364 36.476C42.3897 36.7017 42.1988 37.0175 42.1744 37.5179C42.0729 39.7576 42.0648 41.9931 42.1744 44.2327C42.2029 44.7988 42.1744 45.3649 42.1785 45.9309C42.1785 46.5011 42.1298 47.0754 42.3247 47.6291" stroke="#4C4C4C" stroke-linecap="round" stroke-linejoin="round"/>
<path d="M45.2523 55.1519C45.7396 55.0945 46.2269 55.2299 46.7224 55.0248C47.0919 54.8689 47.4046 55.2093 47.3681 55.6688C47.2381 57.4203 47.1366 59.1718 46.8645 60.911C46.7874 61.4073 47.0594 62.0021 46.564 62.3754C46.0848 62.7363 45.496 62.4533 44.964 62.5271C44.8219 62.5476 44.6716 62.5189 44.5254 62.5312C44.0909 62.5682 43.9203 62.3754 43.9366 61.9406C43.9731 60.7592 43.9366 59.5738 44.03 58.4006C44.1112 57.4408 44.0219 56.4768 44.1478 55.5211C44.2127 55.0289 44.0503 54.6474 43.429 54.7089C40.6269 54.9878 37.8249 54.8771 35.0229 54.7171C34.1498 54.6679 34.1579 54.7089 34.1457 55.5949C34.1173 57.8346 33.8777 60.066 33.9264 62.3097C33.9467 63.3229 33.9914 63.3762 34.9539 63.4952C35.5143 63.5649 36.0747 63.5567 36.6351 63.5649C38.365 63.5895 40.095 63.6059 41.8249 63.6429C42.4178 63.6552 42.9985 63.5772 43.5792 63.4911" stroke="#4C4C4C" stroke-linecap="round" stroke-linejoin="round"/>
<path d="M20.6191 21.7214C20.6191 22.4844 20.6191 23.2473 20.6191 24.0103C20.6435 28.022 20.611 32.0295 20.7085 36.0371C20.8019 39.9011 20.741 43.7609 20.7613 47.6249C20.7775 50.6029 20.9806 53.5768 20.9156 56.5548C20.9075 56.8255 20.944 57.1044 20.8425 57.3669" stroke="#4C4C4C" stroke-linecap="round" stroke-linejoin="round"/>
<path d="M39.551 22.0168C38.6698 21.947 37.8048 21.9552 36.9155 22.0414C36.3145 22.0988 35.6566 21.9922 35.0191 22.0127C34.3368 22.0373 34.1541 22.1931 34.146 22.9028C34.1297 24.4533 34.1175 26.0038 34.146 27.5502C34.1703 28.7726 34.9906 29.5479 36.4038 29.6053C38.6698 29.6996 40.9317 29.995 43.2018 29.8965C44.2495 29.8514 45.3013 29.8965 46.3449 29.7776C46.8647 29.716 47.0922 29.4904 47.08 28.9572C47.0556 27.9727 47.1328 26.9883 47.2221 26.0038L47.3927 23.2063" stroke="#4C4C4C" stroke-linecap="round" stroke-linejoin="round"/>
<path d="M21.3866 63.6388C21.5124 64.3074 21.3744 64.9719 21.3297 65.6282C21.2607 66.625 21.017 67.593 19.9652 68.0647C18.6454 68.6554 17.2526 68.6677 15.8759 68.4831C14.8891 68.3519 14.6617 67.9089 14.4749 66.8137C14.3084 65.821 14.5196 64.8447 14.5074 63.8603C14.4993 63.1301 14.9013 62.6994 15.5104 62.6174C15.9896 62.5559 16.5053 62.5108 16.9642 62.6215C18.0038 62.8717 19.019 62.7569 20.0383 62.5928C20.3632 62.5395 20.7449 62.3918 20.749 62.0103C20.7571 61.6124 20.416 61.5017 20.0424 61.4032C19.4292 61.2392 18.8119 61.354 18.2109 61.2597L14.5399 60.9069C14.5399 60.9069 18.9135 59.8158 19.5957 59.7748C19.949 59.7543 20.3388 59.5656 20.4729 59.1308L20.1114 58.7575C19.8718 58.5196 19.5916 58.536 19.3033 58.5401C18.0363 58.5647 16.7693 58.5975 15.5023 58.6098C14.7795 58.6181 14.6211 58.4499 14.6251 57.7279C14.6414 55.636 14.6495 53.544 14.6779 51.4561C14.7226 48.1623 14.6576 44.8644 14.6211 41.5665C14.6008 39.696 14.5967 37.8255 14.5723 35.9592C14.5114 31.041 14.548 26.1187 14.5561 21.2005C14.5561 20.376 14.7023 20.0766 15.6485 20.0807C17.1348 20.0848 18.6251 20.1833 20.1074 20.0192L17.48 12.4102L15.3805 18.5507" stroke="#4C4C4C" stroke-linecap="round" stroke-linejoin="round"/>
<path d="M29.9712 21.7214C29.9712 22.4844 29.9712 23.2473 29.9712 24.0103C29.9956 28.022 29.9631 32.0295 30.0605 36.0371C30.1539 39.9011 30.093 43.7609 30.1133 47.6249C30.1296 50.6029 30.3326 53.5768 30.2676 56.5548C30.2595 56.8255 30.2961 57.1044 30.1945 57.3669" stroke="#4C4C4C" stroke-linecap="round" stroke-linejoin="round"/>
<path d="M30.7386 63.6388C30.8645 64.3074 30.7264 64.9719 30.6818 65.6282C30.6127 66.625 30.3691 67.593 29.3173 68.0647C27.9975 68.6554 26.6046 68.6677 25.228 68.4831C24.2411 68.3519 24.0137 67.9089 23.8269 66.8137C23.6604 65.821 23.8716 64.8447 23.8594 63.8603C23.8513 63.1301 24.2533 62.6994 24.8625 62.6174C25.3417 62.5559 25.8574 62.5108 26.3163 62.6215C27.3559 62.8717 28.3711 62.7569 29.3904 62.5928C29.7153 62.5395 30.097 62.3918 30.101 62.0103C30.1092 61.6124 29.7681 61.5017 29.3944 61.4032C28.7813 61.2392 28.164 61.354 27.563 61.2597L23.8919 60.9069C23.8919 60.9069 28.2655 59.8158 28.9477 59.7748C29.301 59.7543 29.6909 59.5656 29.8249 59.1308L29.4635 58.7575C29.2239 58.5196 28.9437 58.536 28.6554 58.5401C27.3884 58.5647 26.1214 58.5975 24.8543 58.6098C24.1315 58.6181 23.9731 58.4499 23.9772 57.7279C23.9934 55.636 24.0016 53.544 24.03 51.4561C24.0747 48.1623 24.0097 44.8644 23.9731 41.5665C23.9528 39.696 23.9488 37.8255 23.9244 35.9592C23.8635 31.041 23.9 26.1187 23.9082 21.2005C23.9082 20.376 24.0543 20.0766 25.0005 20.0807C26.4868 20.0848 27.9772 20.1833 29.4594 20.0192L26.828 12.4102L24.7285 18.5507" stroke="#4C4C4C" stroke-linecap="round" stroke-linejoin="round"/>
<path d="M36.7736 22.1644C36.6477 23.5714 36.0994 24.8717 35.738 26.2212C35.5309 26.9842 35.5025 27.8374 34.873 28.4403" stroke="#4C4C4C" stroke-linecap="round" stroke-linejoin="round"/>
<path d="M44.8179 28.3665L43.9326 27.0416C43.8189 26.8857 43.8798 26.7422 43.8676 26.5945C43.693 24.601 43.5022 22.6116 43.3641 20.618C43.3032 19.7525 43.2138 18.8091 43.6727 18.0543C43.6727 18.0543 45.5732 16.5982 45.3986 15.7491C45.224 14.9 44.6311 14.5636 43.8676 14.3339C42.4951 13.9237 41.094 13.9524 39.6971 13.9894C38.8362 14.014 38.1824 14.6908 38.1539 15.3758C38.1377 15.7245 38.2961 16.0034 38.4626 16.2536C38.7956 16.7458 39.1367 17.2422 39.559 17.6524C40.2169 18.2882 40.3509 19.0388 40.2006 19.8756C39.8636 21.7461 39.3681 23.5755 38.8849 25.4091L38.6331 26.6847L37.4839 28.1409" stroke="#4C4C4C" stroke-linecap="round" stroke-linejoin="round"/>
<path d="M55.9285 21.6476C55.0473 21.5779 54.1823 21.5861 53.2929 21.6722C52.6919 21.7297 52.0341 21.623 51.3965 21.6435C50.7143 21.6681 50.5315 21.824 50.5234 22.5336C50.5072 24.0842 50.495 25.6347 50.5234 27.1811C50.5478 28.4035 51.3681 29.1787 52.7813 29.2361C55.0473 29.3305 57.3092 29.6258 59.5792 29.5274C60.627 29.4823 61.6787 29.5274 62.7224 29.4084C63.2422 29.3469 63.4696 29.1213 63.4574 28.588C63.433 27.6036 63.5102 26.6191 63.5995 25.6347L63.7701 22.8372" stroke="#4C4C4C" stroke-linecap="round" stroke-linejoin="round"/>
<path d="M53.151 21.7953C53.0251 23.2022 52.4769 24.5025 52.1155 25.8521C51.9084 26.615 51.8799 27.4682 51.2505 28.0712" stroke="#4C4C4C" stroke-linecap="round" stroke-linejoin="round"/>
<path d="M61.1958 27.9932L60.3105 26.6683C60.1968 26.5124 60.2578 26.3689 60.2456 26.2212C60.071 24.2277 59.8801 22.2383 59.742 20.2447C59.6811 19.3792 59.5918 18.4358 60.0506 17.6811C60.0506 17.6811 61.9512 16.2249 61.7765 15.3758C61.6019 14.5267 61.009 14.1903 60.2456 13.9606C58.873 13.5504 57.472 13.5792 56.075 13.6161C55.2141 13.6407 54.5603 14.3175 54.5319 15.0025C54.5156 15.3512 54.674 15.6301 54.8405 15.8803C55.1735 16.3726 55.5146 16.8689 55.9369 17.2791C56.5948 17.9149 56.7288 18.6655 56.5786 19.5023C56.2415 21.3728 55.7461 23.2022 55.2628 25.0358L55.0111 26.3115L53.8618 27.7676" stroke="#4C4C4C" stroke-linecap="round" stroke-linejoin="round"/>
<path d="M47.2994 21.943C46.1583 21.7871 45.005 21.8446 43.8639 21.8856C42.5684 21.9348 41.2811 21.9799 39.9897 21.8692" stroke="#4C4C4C" stroke-linecap="round" stroke-linejoin="round"/>
</g>
</g>
<defs>
<clipPath id="clip0_1659_4488">
<rect width="80" height="80" rx="8" fill="white"/>
</clipPath>
<clipPath id="clip1_1659_4488">
<rect width="52" height="57" fill="white" transform="translate(14 12)"/>
</clipPath>
</defs>
</svg>
