<svg width="80" height="80" viewBox="0 0 80 80" fill="none" xmlns="http://www.w3.org/2000/svg">
<g clip-path="url(#clip0_1659_4541)">
<rect width="80" height="80" rx="8" fill="white"/>
<circle cx="40" cy="86" r="66" fill="#EDF5E3"/>
<path d="M44.786 -6.7685C50.395 -6.92876 55.6738 -5.82637 60.8749 -4.19951C62.0598 -3.83043 63.2253 -3.4128 64.4054 -3.03401C65.3087 -2.74263 66.11 -2.29585 66.7461 -1.57712C67.5474 -0.678702 67.5329 0.185719 66.6976 1.09385C66.2168 1.61833 65.6583 2.05054 64.9833 2.26421C64.1966 2.51189 63.6867 2.92953 63.4196 3.76967C62.8854 5.44995 61.6859 6.67859 60.4087 7.83924C59.8794 8.32002 59.2918 8.68423 58.6264 8.91248C57.7863 9.20386 57.1744 8.98533 56.7227 8.12576C56.4994 7.69355 56.3585 7.22735 55.8001 7.24677C53.5905 7.30991 51.5702 6.34349 49.4238 6.05212C48.5788 5.94042 47.7435 5.78988 46.8936 5.78016C45.1065 5.7656 43.3194 5.79474 41.5323 5.75589C38.2737 5.68304 35.5299 7.02338 32.8978 8.75708C29.6829 10.8793 27.7113 14.0407 25.7736 17.2167C24.9286 18.6056 24.2244 20.0868 23.5591 21.5728C22.6316 23.6368 22.0391 25.7881 22.1362 28.0948C22.1799 29.1972 22.515 30.2316 22.7918 31.2709C23.0152 32.1159 23.1172 32.9463 23.0589 33.7961C23.0055 34.6023 22.549 35.0054 21.7089 35.1219C20.0577 35.3453 18.6591 34.7334 17.3625 33.8204C15.8813 32.7812 15.891 32.7715 14.6187 34.0389C14.235 34.4226 13.8805 34.8597 13.4386 35.1608C12.0643 36.0932 10.6608 36.5836 8.87855 36.166C6.68836 35.6512 5.11976 34.3789 3.73086 32.786C2.65762 31.5525 -1.48527 25.5589 -2.00003 24C-2.83046 21.5039 -5.20438 20.4962 -4.00002 18C-2.6014 15.1105 -6.802 -0.426175 -5.00032 -3.03401C-3.14521 -5.71468 -1.86016 -4.50548 0.5 -6.76851C2.75332 -8.92471 21.7089 -15.4105 21.7089 -6.76847C24.9966 -8.88581 27.3082 -3.44193 30.9407 -4.78712C33.33 -5.67097 35.8553 -6.07405 38.4097 -6.37514C40.5707 -6.62767 42.7221 -6.77335 44.7714 -6.7685H44.786Z" fill="#FFDC7D"/>
<path d="M64.8025 48.7965C64.4674 50.5302 64.0886 52.599 62.2772 53.983C61.7867 54.357 61.5924 54.7746 61.5827 55.3477C61.5779 55.8139 61.539 56.2752 61.5245 56.7366C61.4953 57.6058 61.2136 58.3246 60.6746 59.0627C60.0141 59.9708 59.4945 61.0441 59.8442 62.2922C59.9413 62.6418 59.9413 63.074 59.8345 63.4188C59.6499 63.9967 59.781 64.4726 60.0336 64.9728C60.2764 65.4488 60.6552 65.9538 60.3444 66.4929C59.9656 67.1485 59.5091 67.7701 59.0138 68.348C58.8244 68.5713 58.4067 68.5713 58.159 68.348C57.8822 68.0954 57.6248 67.7895 57.4452 67.4593C56.3865 65.4827 55.2404 63.5548 54.3711 61.4763C53.7495 59.9806 52.9677 58.548 52.2926 57.0668C51.9721 56.3675 51.7099 55.6342 51.4816 54.896C51.3408 54.4395 51.3845 53.9685 51.8896 53.6917C52.2732 53.4828 52.7588 53.648 52.9725 54.2307C53.3125 55.1437 53.9438 55.7993 54.6334 56.4209C54.8762 56.6394 55.2744 56.756 55.4735 56.5277C55.9883 55.945 56.9158 55.8236 57.2072 55.0708C57.5131 54.2696 58.0134 53.7936 58.8292 53.58C59.242 53.4683 59.3731 53.0652 59.5091 52.701C59.747 52.0648 60.1987 51.6811 60.8786 51.6083C61.505 51.5452 61.8012 51.1227 62.0586 50.6225C62.656 49.4473 63.0979 48.2138 63.4816 46.9511C63.5495 46.7229 63.7972 46.616 64.04 46.6792C64.1808 46.718 64.3411 46.8006 64.4285 46.9123C64.7879 47.3639 64.8024 47.9127 64.7927 48.7965H64.8025Z" fill="#F3A78F"/>
<path d="M16.5298 46.7969C16.2967 46.7969 16.0539 46.8503 15.8353 46.7872C14.6989 46.4666 13.6597 46.4618 12.5428 47.0737C11.5861 47.5982 10.6537 47.1708 9.84267 46.3792C7.74475 44.3396 9.01225 41.6443 10.5177 40.576C10.9353 40.2797 11.387 40.2603 11.8289 40.4934C12.5622 40.8868 13.1207 40.6634 13.6937 40.1243C15.5245 38.4052 16.9474 38.6092 18.7005 40.3477C19.0259 40.6731 19.3707 40.9985 19.6184 41.387C20.0894 42.1203 20.3857 42.8973 19.9389 43.7811C19.8029 44.0531 19.7884 44.3784 19.6767 44.665C19.0405 46.3064 18.312 46.7969 16.5346 46.7969H16.5298Z" fill="#FFDC7D"/>
<path d="M18.5941 50.089C19.2983 50.0452 19.949 50.3075 20.5269 50.7154C21.5711 51.4487 21.8139 52.6676 21.1971 53.7846C20.8523 54.411 20.3618 54.9112 19.7985 55.3192C18.7884 56.0476 17.7249 56.3536 16.5545 55.6203C15.3404 54.8627 14.6703 53.8137 14.7237 52.352C14.748 51.6624 15.117 51.1282 15.6852 50.8514C16.5836 50.4143 17.5257 50.0307 18.599 50.0841L18.5941 50.089Z" fill="#FFDC7D"/>
<path d="M52.6091 91.9504C51.5504 92.1349 50.5937 91.7659 49.6322 91.4793C48.5492 91.154 47.9616 90.3673 47.8839 89.2552C47.8305 88.483 47.7576 87.6817 47.8936 86.9339C48.253 84.9622 48.6269 83.0003 49.5253 81.15C51.395 77.3087 53.4346 73.5596 55.7511 69.9854C58.1598 66.2752 59.6021 62.2542 60.3306 57.9369C60.3548 57.8009 60.3209 57.6067 60.2335 57.5047C60.0684 57.3056 59.8304 57.3736 59.6216 57.4659C59.4807 57.529 59.3205 57.5776 59.2039 57.6698C56.1542 60.1222 52.5071 61.5597 49.1854 63.5411C47.0292 64.8231 44.6302 65.469 42.0903 65.4788C41.2356 65.4788 40.3809 65.4787 39.5262 65.469C36.8601 65.4447 34.9613 64.1384 33.7229 61.8559C32.7954 60.1514 31.9747 58.3934 31.1005 56.6597C30.8577 56.1741 30.6246 55.6787 30.3187 55.232C29.9059 54.6298 29.3377 54.2558 28.5607 54.2704C28.0168 54.2801 27.468 54.2947 26.929 54.2461C25.4818 54.1102 24.7242 53.0661 25.0496 51.6529C25.1516 51.2061 25.3798 50.7836 25.5498 50.3562C26.4773 48.0544 27.2301 45.6942 27.6283 43.2418C27.7497 42.4842 27.8031 41.678 27.6768 40.9302C27.1669 37.963 26.7444 34.9764 25.6081 32.1451C24.7388 29.9744 24.4863 27.6482 24.1123 25.3657C23.821 23.5786 24.2823 21.7867 24.7145 20.0918C25.5207 16.9255 26.8853 13.9826 28.8764 11.3311C29.6097 10.3549 30.5178 9.69448 31.5085 9.11173C35.7383 6.63016 40.3129 5.36266 45.2275 5.34324C46.2328 5.34324 47.238 5.36752 48.2238 5.04215C48.6512 4.90132 49.1514 4.91589 49.6079 4.94988C54.0708 5.29953 58.3104 6.30964 62.0449 8.95632C64.0505 10.3792 65.6773 12.1323 66.7069 14.342C68.0521 17.2315 68.8437 20.2812 69.305 23.4524C69.6547 25.8465 69.475 28.2601 69.8003 30.6203C70.1694 33.3301 70.1257 36.0302 70.1889 38.7351C70.2229 40.1337 70.5725 41.4886 70.7328 42.8678C70.961 44.8443 71.2135 46.8354 71.772 48.7877C72.6413 51.8083 74.0205 54.5472 75.6716 57.1745C77.3665 59.8649 79.3673 62.3319 81.3826 64.7843C83.1018 66.8725 84.8646 68.9364 86.6663 70.9566C87.4481 71.8356 87.5744 72.6563 87.0402 73.7005C86.0107 75.7207 84.6606 77.5175 83.1697 79.1929C80.9407 81.7085 78.2406 83.6267 75.3171 85.2973C72.7433 86.7639 70.1306 88.1188 67.3139 88.9881C63.5503 90.1536 59.7478 91.2171 55.7948 91.5765C54.7216 91.6736 53.692 92.1495 52.5945 91.9407L52.6091 91.9504Z" fill="#FBD3C6"/>
<path d="M32.5135 19.2208C28.113 15.9269 34.3471 13.8835 38.0142 13.2736C40.0144 12.0536 44.2148 9.33924 45.0149 8.24128C46.015 6.86884 49.5154 11.9011 53.0159 9.61373C56.5163 7.32634 57.0163 15.5609 60.0167 16.9334C63.0171 18.3058 58.5165 26.0829 55.0161 33.8601C52.2158 40.0818 42.5147 31.2677 38.0142 26.0829C38.0142 25.168 36.9141 22.5146 32.5135 19.2208Z" fill="#EF9175"/>
<path d="M82.9844 71.8552C80.3425 69.1357 77.691 66.4259 75.0589 63.6966C71.2321 59.729 70.0666 54.5765 68.7554 49.4823C67.3957 44.1937 67.3762 38.813 67.3228 33.3982C67.2645 27.7649 66.5992 22.0976 64.4819 16.8868C62.0003 10.7824 57.6928 6.67401 50.5929 5.81444C43.425 4.94517 36.8059 5.65418 31.26 10.5882C25.4616 15.7456 22.3244 22.151 23.048 30.1396C23.1451 31.208 24.5097 32.3978 22.8489 33.4079C20.8675 34.6074 18.8133 35.5593 16.5648 34.3015C14.87 33.3545 13.6268 33.2428 11.8348 34.486C7.34757 37.5989 1.66085 34.8211 0 28.9693" stroke="#4C4C4C" stroke-linecap="round" stroke-linejoin="round"/>
<path d="M23.543 33.3978C24.723 36.1902 25.6263 39.0894 26.2868 42.0323C26.7821 44.2274 25.8546 46.403 25.3689 48.5398C24.7182 51.3953 24.6017 51.4147 27.2726 52.0217C28.3653 52.2694 28.6275 53.1532 29.1423 53.9011C30.1718 55.3968 30.9925 57.0383 31.8569 58.6069C34.0811 62.6521 39.6173 63.9342 43.5752 62.963C49.529 61.5061 54.8418 58.5243 60.2809 55.5085C60.9365 57.6016 60.1303 59.617 59.3533 61.3264C56.9592 66.6052 55.1672 72.1996 51.7338 76.9734C49.5533 79.9988 47.0717 82.8058 45.2021 86.0595C44.3959 87.4678 43.5509 88.8421 43.347 90.4933" stroke="#4C4C4C" stroke-linecap="round" stroke-linejoin="round"/>
<path d="M54.5467 27.8033C53.998 25.5548 53.5754 23.2383 51.3221 21.6649C53.1092 20.2711 54.775 19.0425 57.1351 19.9846C56.8826 21.7426 56.7612 23.4034 56.3581 24.9915C56.193 25.6422 56.0376 26.3512 56.2221 26.8514C57.4314 30.1246 57.1788 31.2949 54.5467 33.3929C51.8855 35.5151 47.6216 35.2091 45.4654 32.6838C44.5282 31.5863 44.1057 30.3382 44.9895 28.9639" stroke="#4C4C4C" stroke-linecap="round" stroke-linejoin="round"/>
<path d="M13.2872 40.8579C9.4702 40.8579 8.33384 41.6689 8.13959 44.3545C8.04246 45.6899 8.52808 46.8894 9.59161 47.2925C10.5192 47.6422 11.8401 47.7199 12.8113 46.9089C13.399 46.4184 13.9089 45.8308 14.4722 45.2674C15.6863 46.8506 17.0218 46.7875 18.4107 45.52C19.5276 44.4953 19.6636 43.3249 18.8817 42.0234C17.8522 40.3092 16.439 39.8187 14.6713 40.348C14.1468 40.5034 13.8846 40.8239 13.5204 41.0959" stroke="#4C4C4C" stroke-linecap="round" stroke-linejoin="round"/>
<path d="M65.7352 -0.858765C63.885 0.505854 62.5252 2.14727 61.9571 4.48801C61.5685 6.08087 60.0582 6.90159 58.7422 7.76116" stroke="#4C4C4C" stroke-linecap="round" stroke-linejoin="round"/>
<path d="M47.3206 15.9203C44.1154 18.9263 40.3809 21.3982 37.7877 25.0258C36.8067 26.4002 36.0151 27.8376 37.6857 29.5131C38.1761 30.0035 37.8362 31.4167 38.4675 32.2277C40.6383 35.0201 43.4889 35.2241 46.6213 34.3305" stroke="#4C4C4C" stroke-linecap="round" stroke-linejoin="round"/>
<path d="M20.746 52.9736C19.9059 51.0942 18.143 51.1913 16.5502 51.1476C15.4575 51.1184 14.797 51.9634 14.4571 52.9736C14.054 54.1682 14.8019 55.3289 16.0839 55.5377C18.1819 55.8825 19.5659 55.188 20.746 53.2066" stroke="#4C4C4C" stroke-linecap="round" stroke-linejoin="round"/>
<path d="M57.344 20.1165C59.1408 21.0003 59.777 22.4863 58.9465 24.2977C58.4852 25.303 57.7324 26.1771 57.1108 27.1095" stroke="#4C4C4C" stroke-linecap="round" stroke-linejoin="round"/>
<path d="M51.7495 60.4332C53.6677 62.4826 54.5904 65.1633 56.1785 67.4263" stroke="#4C4C4C" stroke-linecap="round" stroke-linejoin="round"/>
<path d="M34.0334 17.5513C33.9508 19.4355 33.1252 21.2226 33.3243 23.1457C33.3972 23.8402 33.2175 24.5443 34.0188 25.03C34.8929 25.5593 35.296 24.8211 35.903 24.554C36.7626 24.1801 37.2337 22.9418 38.4623 23.374" stroke="#4C4C4C" stroke-linecap="round" stroke-linejoin="round"/>
<path d="M43.1236 13.8223C41.2491 15.8668 39.6125 18.1055 38.0196 20.3686C36.893 21.9711 35.5623 22.8987 33.5664 22.6802" stroke="#4C4C4C" stroke-linecap="round" stroke-linejoin="round"/>
<path d="M45.2229 11.0252C43.6786 10.1753 42.0663 9.81111 40.3277 10.2967C40.2597 12.4141 41.0513 13.1474 43.5912 13.3562" stroke="#4C4C4C" stroke-linecap="round" stroke-linejoin="round"/>
<path d="M40.7939 22.9128C41.7409 24.3017 42.4596 25.8412 43.6397 27.0504C42.1585 28.7307 40.7939 30.4498 38.4629 30.8383" stroke="#4C4C4C" stroke-linecap="round" stroke-linejoin="round"/>
<path d="M43.8223 27.337C47.7267 29.838 48.8485 29.804 52.2625 27.0651C53.0347 27.1476 53.4717 28.0412 54.3119 28.0363" stroke="#4C4C4C" stroke-linecap="round" stroke-linejoin="round"/>
<path d="M38.4617 11.2584C37.165 12.7542 35.1157 13.74 35.1982 16.1536" stroke="#4C4C4C" stroke-linecap="round" stroke-linejoin="round"/>
<path d="M52.2159 14.2892C52.3373 16.3191 51.8468 16.5473 49.1855 15.6878" stroke="#4C4C4C" stroke-linecap="round" stroke-linejoin="round"/>
<path d="M39.3943 14.7548C36.0289 16.0757 32.5664 17.2412 30.1431 20.0918C30.8618 21.2509 31.8476 22.1137 33.1006 22.6802" stroke="#4C4C4C" stroke-linecap="round" stroke-linejoin="round"/>
<path d="M39.8603 9.85957C39.2775 9.66531 38.6948 9.47592 37.7915 9.17969C38.2237 10.6172 38.7919 11.1562 39.8603 11.0251" stroke="#4C4C4C" stroke-linecap="round" stroke-linejoin="round"/>
<path d="M44.522 24.7781C41.3702 24.1807 39.9231 26.3564 38.4565 28.5028C38.3351 28.6825 38.1505 28.8185 37.9951 28.9739" stroke="#4C4C4C" stroke-linecap="round" stroke-linejoin="round"/>
<path d="M48.9516 28.7362C48.5048 27.459 49.5101 26.2741 49.3644 24.8609C47.1208 24.6764 46.4603 26.3761 45.4551 27.5707" stroke="#4C4C4C" stroke-linecap="round" stroke-linejoin="round"/>
<path d="M46.1552 20.5822C44.9897 19.8635 43.8242 21.063 42.6587 20.5822" stroke="#4C4C4C" stroke-linecap="round" stroke-linejoin="round"/>
<path d="M35.4319 36.4285C33.6787 37.3949 31.7654 37.4337 29.8374 37.3609" stroke="#4C4C4C" stroke-linecap="round" stroke-linejoin="round"/>
<path d="M53.3806 31.067C53.4583 29.746 54.1382 28.7262 54.9298 27.5898C55.8427 29.9354 55.2746 30.6153 51.3847 32.1936C50.1026 31.538 49.4421 30.4356 48.9517 29.2021" stroke="#4C4C4C" stroke-linecap="round" stroke-linejoin="round"/>
<path d="M44.0566 12.8909C45.6349 11.2883 47.4852 12.6675 49.1849 12.4247" stroke="#4C4C4C" stroke-linecap="round" stroke-linejoin="round"/>
<path d="M34.0326 40.6248C33.4547 41.8 32.2115 41.6446 31.2354 42.0234" stroke="#4C4C4C" stroke-linecap="round" stroke-linejoin="round"/>
<path d="M50.1164 13.5889C49.8833 13.1227 49.4026 12.6177 49.4657 12.1952C49.6502 10.9617 48.6061 10.9957 48.0185 10.5586C47.4843 11.4327 45.7798 10.3449 45.6875 11.9572" stroke="#4C4C4C" stroke-linecap="round" stroke-linejoin="round"/>
<path d="M46.8532 20.3499C48.446 21.3309 50.2526 20.0051 51.9231 19.5632C53.7297 19.0873 55.4488 18.2811 56.9688 17.1982C57.4156 16.8777 57.8915 16.4406 57.8576 15.8918C57.8284 15.4985 57.5467 15.1828 57.3379 14.8526C56.9543 14.2504 56.76 13.4928 56.1724 13.0849C55.4294 12.5653 54.4144 12.8372 53.5597 13.1286C52.1562 13.6045 50.7237 14.0999 49.5387 14.9934C49.1405 15.2945 48.7569 15.6587 48.5966 16.1347C48.4898 16.4455 48.4849 16.7757 48.48 17.1059C48.4752 17.8101 48.48 18.5337 48.752 19.1844C49.1648 20.18 50.1409 20.8501 51.1704 21.1561C52.2 21.462 53.2975 21.462 54.3707 21.4523C54.8127 21.4523 55.2983 21.428 55.6188 21.1269C56.0413 20.7287 55.9684 20.0537 55.8665 19.4807C55.7111 18.6162 55.5605 17.7518 55.4051 16.8922C55.3371 16.4989 55.2594 16.1007 55.0506 15.7607C54.7835 15.3382 54.327 15.0711 53.89 14.8235C53.4772 14.5904 53.0595 14.3524 52.6468 14.1193C51.826 13.6531 50.8694 13.1723 49.9758 13.4831C48.8249 13.8862 48.3004 15.2023 47.0863 15.2217C46.1782 14.7021 45.0855 14.5612 44.2891 13.8231" stroke="#4C4C4C" stroke-linecap="round" stroke-linejoin="round"/>
<path d="M49.6514 25.4725L51.7493 26.8711" stroke="#4C4C4C" stroke-linecap="round" stroke-linejoin="round"/>
<path d="M41.4928 13.3564C39.7882 13.9781 39.1909 15.1193 39.8611 16.853" stroke="#4C4C4C" stroke-linecap="round" stroke-linejoin="round"/>
<path d="M45.2222 24.3112C45.8438 24.5443 46.4654 24.7774 47.087 25.0105" stroke="#4C4C4C" stroke-linecap="round" stroke-linejoin="round"/>
<path d="M51.0502 32.4652C50.9045 33.3976 49.7098 33.1062 49.4185 33.8638" stroke="#4C4C4C" stroke-linecap="round" stroke-linejoin="round"/>
<path d="M36.3635 53.4391C36.1352 54.1141 34.9794 53.677 34.9648 54.6046" stroke="#4C4C4C" stroke-linecap="round" stroke-linejoin="round"/>
</g>
<defs>
<clipPath id="clip0_1659_4541">
<rect width="80" height="80" rx="8" fill="white"/>
</clipPath>
</defs>
</svg>
