<svg width="80" height="80" viewBox="0 0 80 80" fill="none" xmlns="http://www.w3.org/2000/svg">
<g clip-path="url(#clip0_1706_5208)">
<rect width="80" height="80" rx="8" fill="white"/>
<circle cx="40" cy="86" r="66" fill="#FFEAB0"/>
<path d="M33.368 85.9075C32.7782 85.7928 31.0417 85.4652 29.3053 85.0884C26.291 84.4004 24.5873 82.4346 24.7839 79.3875C25.0296 75.6033 21.3098 73.703 19 70.6724C15.3632 65.8561 18.5097 60.5484 22.7525 56.1417C25.2262 53.5862 27.8637 51.2108 30.5011 48.8027C31.7789 47.6396 33.0239 46.0833 35.0553 46.673C36.7754 47.1645 36.5952 49.0156 37.1849 50.2934C37.9876 51.9807 39.4456 52.9636 40.9855 53.8974C43.2462 55.3062 45.4414 56.8134 47.7021 58.2386C53.3702 61.8426 56.2697 61.5969 61.774 57.1083C63.5269 55.683 65.0176 55.8305 66.2627 57.4687C69.4571 61.7116 69.965 66.1346 66.9998 70.6724C64.5426 74.4402 61.4136 77.4872 57.4984 79.8298C50.4051 84.0727 42.509 85.1048 33.3843 85.9075H33.368Z" fill="#AFC199"/>
<path d="M62.0431 45.9851C61.7646 46.9517 61.65 48.1803 61.0602 49.1468C60.6834 49.7693 59.6514 50.2772 58.8814 50.3263C58.1279 50.3591 56.8173 49.9168 56.6535 49.3925C55.7361 46.5257 54.5402 43.9702 51.9847 42.1026C50.7397 41.2016 50.4612 39.6126 50.4939 38.0727C50.5267 36.8769 50.7069 35.6974 50.6905 34.5179C50.5758 27.8013 48.1677 25.9174 41.8116 27.8341C39.5181 28.5221 37.4376 29.374 34.9312 28.604C33.162 28.0634 32.2118 29.505 31.9333 31.0449C31.7368 32.1753 31.6548 33.4858 32.0152 34.5342C34.9148 42.8398 31.8023 49.0158 25.1185 53.7173C22.5793 55.503 20.7282 57.5998 19.303 60.2865C18.3364 62.1049 17.1897 63.8577 15.8955 65.4631C15.4532 66.0037 14.241 66.3477 13.5366 66.1675C10.4895 65.414 9.39458 55.5883 11 53C14.6859 47.0698 15.1256 45.9196 16.731 39.2686C17.3863 36.5164 19.6736 31.2942 21.9999 30C26.554 27.4444 29.3286 25.0705 31.9333 20.5C35.1606 14.8647 41.6805 16.7764 47.021 16.7272C51.2803 16.6781 54.9662 20.4459 55.8836 24.5086C57.2105 30.3569 59.1108 35.8776 61.3059 41.3982C61.8302 42.7415 61.7974 44.3142 62.0431 46.0015V45.9851Z" fill="#757575"/>
<path d="M36.4222 27.8995C38.9614 29.1609 40.8781 27.3753 43.0241 26.507C48.7577 24.1972 53.0006 27.2278 52.9187 33.4857C52.9187 34.3703 53.1317 35.4679 52.7057 36.1231C48.6267 42.3974 54.9009 44.8383 57.3582 48.6061C58.1936 49.9002 60.0939 49.3433 61.5191 49.6381C64.6317 50.2606 66.6467 52.4067 66.5811 54.7984C66.4992 57.6652 64.1566 60.9744 61.6338 61.5477C60.5035 61.8098 59.1602 62.1047 58.1281 61.7443C52.0668 59.6638 45.2356 58.5335 42.3524 51.6531C41.0091 48.4423 39.3218 45.985 35.7505 45.1004C35.0953 44.9365 34.1615 43.8553 34.1943 43.2492C34.4072 39.0227 33.0148 35.1075 32.1793 31.0775C31.6223 28.3909 32.9493 27.5063 36.4222 27.9158V27.8995ZM47.1523 44.5925L46.8083 45.084L47.3816 45.1495L47.1687 44.5762L47.1523 44.5925Z" fill="#F7BCAA"/>
<path d="M47.1526 44.5925L47.382 45.1659L46.8086 45.1004L47.1526 44.5925Z" fill="white"/>
<path d="M54.4917 44.2322C54.2787 44.7564 54.1804 45.3789 53.8364 45.772C50.3799 49.5071 45.4162 49.4088 41.0095 50.6374C40.2559 50.8504 39.4696 49.933 39.3549 48.9337C38.716 42.9707 44.9575 37.9579 50.1833 40.2841C51.5102 40.8739 52.7061 41.7585 53.8528 42.6595C54.246 42.9544 54.2951 43.6916 54.4917 44.2322Z" fill="#757575"/>
<path d="M39.7318 52.931C40.813 53.4879 41.8942 54.0777 42.7952 54.8968C43.6471 55.6831 44.3515 56.6824 45.4163 57.1411C46.2354 57.5015 47.1692 57.4687 48.0374 57.2394C48.6436 57.0756 49.2497 56.8135 49.692 56.3711C50.4456 55.6176 50.6421 54.4872 50.7404 53.4388C50.8879 51.948 50.937 50.4245 50.8551 48.9338C52.1493 48.8683 53.2305 47.525 53.0011 46.2636C52.7718 45.0022 51.2974 44.1175 50.0688 44.5107C48.8401 44.9039 48.1685 46.4929 48.7255 47.656C46.7924 47.6232 44.9576 46.0342 43.1229 46.624C40.8622 47.3448 40.2233 50.8996 37.8643 51.1453C37.5858 51.1617 37.2746 51.1453 37.0616 50.9651C36.6193 50.6375 36.7012 49.9822 36.7831 49.4416C37.0125 47.8854 36.8814 46.2799 36.39 44.7728C36.0459 43.6916 35.4562 42.8398 34.3586 42.5449C31.6884 43.6425 29.0345 44.74 26.3643 45.8376C24.2019 46.7222 22.0231 47.6233 20.2047 49.0812C18.6321 50.3263 17.387 51.9481 16.2076 53.5862C14.4711 55.978 12.8001 58.4353 11.2275 60.9581C8.34429 58.124 8.246 52.9473 11.0145 49.9822C12.0793 48.8355 13.4718 48.0492 14.6677 47.0499C15.8635 46.0506 17.256 44.5762 17.2232 43.02C17.1413 40.2678 17.0758 37.4665 17.6819 34.7799C18.288 32.0933 19.6477 29.4722 21.9084 27.8832C23.7596 26.589 26.1186 26.0648 27.7567 24.5085C29.2966 23.0669 29.9683 20.9373 31.0659 19.1189C32.1634 17.3005 34.0965 15.6296 36.177 16.0719C37.4712 16.3504 38.4377 17.3824 39.2568 18.4145C40.7311 20.2656 41.9762 22.3133 42.9427 24.4757C41.5994 25.3276 39.9284 25.475 38.4213 25.9665C36.9142 26.458 35.407 27.9487 35.3579 29.5377C35.276 28.391 34.9156 27.1951 34.0637 26.4088C33.2119 25.6225 31.7539 25.4423 30.9184 26.2286C30.2632 26.8511 30.1321 27.8176 30.0666 28.7186C29.9683 30.0783 29.8864 31.4544 30.1649 32.7977C30.4434 34.141 31.0659 35.4679 32.1962 36.2379C31.6392 37.7778 31.3444 39.4324 31.5573 41.0705C29.6734 45.4445 27.4619 49.8512 23.7923 52.8818C21.4006 54.8476 18.4519 56.2073 16.5352 58.6318C14.1926 61.5969 13.8486 66.0037 15.7325 69.2964C17.7802 72.8676 21.9576 74.899 23.7596 78.6013L23.7923 84" stroke="#4C4C4C" stroke-miterlimit="10"/>
<path d="M37.3721 43.3149C38.2239 40.8576 40.8614 39.3341 43.4661 39.1539C46.0708 38.9737 48.61 39.8911 50.9526 41.0542C52.214 41.6767 53.4918 42.4139 54.1962 43.6425C55.0808 45.1824 54.8187 47.0827 54.6713 48.852C54.6549 49.0322 54.6549 49.2451 54.7696 49.3925C54.8679 49.5072 55.0317 49.54 55.1791 49.5727C55.8508 49.6874 56.5388 49.7202 57.2104 49.6547C59.0944 49.4745 60.9291 49.9332 62.4199 51.1126C64.4021 52.6853 65.2048 55.2736 66.4989 57.436C67.4491 59.0414 68.776 60.696 68.4484 62.5472C69.3057 64.8648 67.6555 71.8 54.1962 81M59.5 60C58 61.1667 53.6 64.6 48 69L42 74C39.6667 69.7907 33.7 60.5848 28.5 57.436" stroke="#4C4C4C" stroke-miterlimit="10"/>
<path d="M60.7652 52.1446C61.1748 53.8974 61.5352 55.9451 60.3884 57.354C59.7823 58.0912 58.8813 58.4844 58.0131 58.8611C55.8343 59.7949 53.5736 60.745 51.2146 60.6467C50.4447 60.614 49.6583 60.4502 49.0686 59.9751C48.4788 59.5 48.184 58.5826 48.5444 57.9274C48.6754 57.698 48.872 57.5014 49.0686 57.3212C49.6911 56.7315 50.33 56.1253 50.9525 55.5356C51.6569 54.8639 52.4105 54.1759 53.3606 53.9793C53.9012 53.8647 54.4582 53.9302 55.0152 54.0121C55.6868 54.1104 56.3913 54.2251 56.8663 54.7001C57.3414 55.1588 57.5052 55.9124 57.2595 56.5185C57.0138 57.1246 56.3585 57.5506 55.7032 57.5506C54.8022 57.5506 54.0323 56.7479 53.8357 55.8633C53.6391 54.9786 53.934 54.0449 54.4091 53.2749C55.0316 52.2593 56.2438 51.3746 57.3414 51.8169C57.1284 49.1795 57.3086 46.2471 57.2923 43.6096C57.2923 43.2984 57.2595 42.9708 57.0465 42.7578C57.0957 40.6773 55.949 38.7934 54.6876 37.1225C53.4262 35.4515 52.0665 33.7314 51.788 31.6509C51.6242 30.3895 51.8863 29.0954 52.132 27.8503" stroke="#4C4C4C" stroke-miterlimit="10"/>
<path d="M37.3232 43.4622C38.4044 44.1338 39.7805 44.2321 41.0255 43.8881C42.2706 43.5441 43.3518 42.8397 44.3347 42.037C45.6944 40.9066 46.8902 39.5142 47.4308 37.8432C47.7912 36.7292 47.824 35.5498 47.8568 34.3866C47.8895 32.7976 47.8568 31.2086 47.8568 29.6195C47.8568 28.866 47.8076 28.0469 47.2834 27.5063C46.7264 26.9329 45.6944 26.7527 45.5142 25.9828C46.9066 26.6053 48.3646 27.0476 49.8717 27.3097C50.5761 27.0148 50.9693 26.0811 50.9365 25.3111C50.9038 24.5412 50.5761 23.8204 50.2485 23.1159C49.8553 22.2641 49.4458 21.4122 49.0526 20.5604C48.5776 19.5447 48.0533 18.4963 47.1032 17.8901C46.2186 17.3332 45.1046 17.284 44.0562 17.2513C42.7784 17.2185 41.5006 17.1694 40.2228 17.1366" stroke="#4C4C4C" stroke-miterlimit="10"/>
</g>
<defs>
<clipPath id="clip0_1706_5208">
<rect width="80" height="80" rx="8" fill="white"/>
</clipPath>
</defs>
</svg>
