<svg width="80" height="80" viewBox="0 0 80 80" fill="none" xmlns="http://www.w3.org/2000/svg">
<g clip-path="url(#clip0_1659_4504)">
<rect width="80" height="80" rx="8" fill="white"/>
<circle cx="40" cy="86" r="66" fill="#F5E3ED"/>
<path d="M38.3333 39.5125C37.2607 38.8737 36.148 38.2953 35.2361 37.4195C34.1996 36.4233 33.3761 35.3467 33.9144 33.78C34.3402 33.7599 34.5933 33.4586 34.8665 33.1934C38.7551 29.3851 42.4951 25.4282 46.211 21.4512C46.2994 21.3588 46.3918 21.2704 46.4722 21.166C48.6455 18.378 51.3973 16.1364 53.7594 13.5252C54.1892 13.0512 54.6954 12.8865 55.302 12.9187C55.4185 13.9872 55.531 15.0598 55.6193 16.1244C55.8081 18.4343 55.4185 20.716 54.5989 22.8933C54.153 24.0784 53.6629 25.2555 52.9439 26.32C51.6825 27.2078 50.7304 28.417 49.6417 29.4856C46.9141 32.161 44.335 34.9891 41.3864 37.4356C40.9525 37.7931 40.4825 38.1466 40.2375 38.693C39.6309 39.0304 39.1528 39.6571 38.3374 39.5165L38.3333 39.5125Z" fill="#C4D4B2"/>
<path d="M55.297 12.9143C54.6904 12.8822 54.1842 13.0469 53.7544 13.5209C51.3963 16.1321 48.6445 18.3737 46.4672 21.1616C46.3869 21.2621 46.2945 21.3504 46.2061 21.4469C42.4902 25.4239 38.7502 29.3768 34.8615 33.1891C34.5884 33.4583 34.3353 33.7555 33.9095 33.7756C33.2506 33.4783 33.094 32.8597 32.9614 32.241C32.6923 30.9555 32.4593 29.662 32.1861 28.3765C32.0977 27.9507 31.937 27.5409 31.8125 27.1231C32.4673 27.1352 32.8449 26.6692 33.2506 26.2635C34.5161 24.994 35.7895 23.7246 37.0429 22.4431C41.7028 17.6827 46.3547 12.9184 51.0026 8.14593C51.3119 7.82857 51.5691 7.45496 51.8503 7.10547C54.5257 7.65582 56.1085 10.0179 55.5501 12.6412C55.526 12.7456 55.3813 12.8219 55.293 12.9143H55.297Z" fill="#EDF5E3"/>
<path d="M51.8553 7.10946C51.5741 7.45896 51.317 7.82853 51.0077 8.1499C46.3598 12.9183 41.7039 17.6867 37.0479 22.4471C35.7946 23.7286 34.5251 24.998 33.2557 26.2675C32.85 26.6732 32.4764 27.1352 31.8176 27.1271C31.2913 24.52 31.5725 21.9329 32.0465 19.3579C32.1269 18.92 32.4041 18.4138 32.2715 18.0563C31.8939 17.0159 32.4081 16.4173 33.095 15.8067C33.3762 15.5576 33.5771 15.2202 33.8141 14.9189C35.3808 13.8945 36.6221 12.5045 37.9558 11.219C39.6149 9.62422 41.1776 7.94101 42.9693 6.47072C44.0338 5.59899 45.1265 5.16515 46.4522 5.18122C47.6815 5.46242 48.9147 5.73157 50.14 6.03286C50.8229 6.20158 51.4696 6.45466 51.8553 7.10946Z" fill="#C4D4B2"/>
<path d="M40.2369 38.6887C40.482 38.1424 40.952 37.7889 41.3858 37.4314C44.3345 34.9849 46.9135 32.1568 49.6412 29.4813C50.7298 28.4128 51.6819 27.2036 52.9433 26.3158C53.0719 26.9666 52.9192 27.5692 52.7023 28.1838C52.1278 29.8067 51.6056 31.4498 51.0552 33.0848C50.7017 34.1332 50.3 35.0733 49.0024 35.3585C48.3316 35.5071 47.9258 36.2061 47.5442 36.8127C47.034 37.6202 46.56 38.4517 45.849 39.1186C45.3227 39.6127 44.7563 40.0184 44.0653 40.1912C43.2056 40.4041 42.3018 40.4523 41.6269 41.1513C41.4341 41.3521 41.1488 41.2276 40.9118 41.1191C39.9838 40.6933 39.1001 40.2032 38.3408 39.5083C39.1523 39.6489 39.6343 39.0222 40.2409 38.6847C40.3133 38.8575 40.3374 39.1186 40.4659 39.1949C42.3379 40.3197 44.7 39.5926 45.9735 37.3872C44.0533 38.1906 42.2335 38.8534 40.245 38.6847L40.2369 38.6887Z" fill="#EDF5E3"/>
<path d="M46.4522 5.18143C45.1265 5.16537 44.0338 5.59921 42.9693 6.47094C41.1776 7.94123 39.6149 9.62845 37.9558 11.2193C36.6181 12.5048 35.3808 13.8947 33.8141 14.9191C33.6976 14.2804 33.7217 13.6577 33.8864 13.023C34.2038 11.7897 34.4528 10.5404 34.7782 9.30707C35.4089 6.89274 37.072 5.47468 39.4221 4.96851C41.0973 4.60696 42.8086 4.32175 44.552 4.4503C45.2711 4.50654 45.95 4.59492 46.4522 5.18143Z" fill="#EDF5E3"/>
<path d="M37.4092 44.5981C37.5177 44.6624 37.7266 44.7267 37.827 44.8673C37.9877 45.0922 37.9475 45.3614 37.7547 45.5703C37.1521 46.2291 36.5335 46.8799 35.9309 47.5387C34.8904 48.6715 33.7053 49.6638 32.7854 50.9171C32.4198 51.4153 31.8293 51.7487 31.3593 52.1745C31.295 52.2308 31.279 52.4316 31.3312 52.4959C31.3914 52.5762 31.5722 52.6485 31.6606 52.6164C32.5805 52.295 33.3639 51.7487 34.0468 51.0618C34.9547 50.1539 35.8465 49.2259 36.7584 48.322C37.0758 48.0087 37.4212 47.7195 37.7788 47.4503C37.9957 47.2856 38.2729 47.2976 38.5139 47.3981C39.6749 47.8801 40.2976 49.1777 39.94 50.3748C39.6227 51.4314 39.1647 52.4075 38.3773 53.211C38.1082 53.4841 37.8672 53.7894 37.6301 54.0867C37.0517 54.8098 36.7423 55.5891 36.8026 56.5653C36.8749 57.7102 36.7464 58.8471 36.5495 60C36.3045 61.4301 36.2041 62.9165 36.662 64.3788C37.2164 66.1463 36.4491 67.5805 35.1274 68.6209C33.625 69.806 32.0262 70.9308 30.106 71.3767C29.0093 71.6338 28.3223 72.3971 27.7278 73.2206C26.8962 74.3816 25.8678 75.3417 24.8555 76.3219C23.9757 77.1735 23.4053 77.1856 22.5657 76.2777C21.6015 75.2332 20.5169 74.5865 19.0707 74.5021C18.448 74.4659 17.8254 74.2249 17.2228 74.012C16.5399 73.771 15.9775 73.3733 15.6802 72.6622C15.0214 71.0995 15.0334 70.6295 16.3872 69.4926C17.8615 68.2553 19.2836 66.9698 20.6374 65.6C22.0595 64.1578 23.12 62.4786 23.7226 60.5624C24.739 57.3125 26.5869 54.5969 28.7602 52.0219C30.1702 50.3507 31.6767 48.784 33.2434 47.2655C34.0227 46.5103 34.8864 45.8354 35.7461 45.1726C36.2 44.8231 36.7223 44.5459 37.4092 44.6021V44.5981Z" fill="#FBD3C6"/>
<path d="M39.8716 63.0733C39.502 63.0532 39.2409 63.0613 38.9918 63.0171C38.0759 62.8564 37.5738 62.1454 37.8027 61.2214C37.9152 60.7715 38.0357 60.3698 37.8188 59.9279C37.4974 59.2731 37.6501 58.6866 38.104 58.1483C38.3169 57.8952 38.4576 57.5899 38.4134 57.2645C38.2808 56.2803 38.9075 55.7098 39.5583 55.1795C40.0001 54.818 40.5144 54.5488 41.0045 54.2475C42.1895 53.5204 43.1496 52.6206 43.3987 51.1704C43.471 50.7566 43.6116 50.4352 44.0856 50.387C44.5034 50.3469 44.8569 50.4915 45.0899 50.8289C45.5439 51.4797 45.8412 52.1707 45.4997 52.9862C45.3511 53.3397 45.2787 53.7253 45.1301 54.0788C44.9614 54.4806 45.0257 54.814 45.2908 55.1434C45.8452 55.8344 45.8412 56.5976 45.3752 57.2846C44.9453 57.9153 44.8489 58.5701 44.8931 59.2891C44.9172 59.6788 44.865 60.0685 44.6119 60.3818C43.3545 61.9284 41.8963 63.1055 39.8716 63.0733Z" fill="#FBD3C6"/>
<path d="M57.2173 14.5178C57.0607 19.2259 56.1809 23.8256 54.9195 28.3369C54.1803 30.9802 53.0435 33.5191 52.0191 36.078C51.6656 36.9658 51.1393 37.7894 50.6412 38.6089C49.9261 39.7859 48.9459 40.6938 47.6926 41.2923C46.9976 41.6258 46.3147 41.9873 45.5956 42.2565C44.1896 42.7827 43.4585 43.7509 43.2455 45.2453C43.0567 46.579 42.8599 47.9087 42.7715 49.2544C42.7273 49.8932 42.6068 50.5239 42.5385 51.1586C42.4541 51.95 42.0203 52.4561 41.2771 52.6931C40.5299 52.9302 39.859 53.2716 39.3248 53.8662C38.8146 54.4366 38.5615 55.0392 38.8548 55.7985C38.9712 56.0957 39.0396 56.4131 39.144 56.7144C39.2806 57.108 39.2565 57.4937 38.9672 57.795C37.8143 58.9921 38.3406 60.4664 38.3084 61.8323C38.2964 62.3063 38.7423 62.6236 39.2243 62.6839C39.5979 62.7281 39.9876 62.6839 40.3652 62.6237C41.5382 62.4509 41.6869 62.6036 41.474 63.7886C41.3133 64.6764 41.1164 65.5522 40.5179 66.2753C39.7948 67.151 38.9271 67.3238 37.9589 66.7453C37.0028 66.1749 36.5047 65.2991 36.4766 64.2024C36.4364 62.7924 36.4565 61.3864 36.7297 59.9844C37.0832 58.1606 37.5492 56.3528 37.6335 54.4848C37.6536 54.0269 37.8103 53.6171 38.0513 53.2234C38.3526 52.7333 38.682 52.2432 38.8869 51.7129C39.3248 50.5761 39.6662 49.4553 39.2766 48.1698C38.9632 47.1414 38.8347 46.0126 38.8748 44.94C38.9431 43.1081 38.1076 41.7262 36.9707 40.4688C36.0708 39.4685 35.0906 38.5366 34.1185 37.6046C31.9653 35.5437 30.8766 32.9607 30.744 30.0603C30.5994 26.9269 30.6717 23.7854 30.965 20.644C31.202 18.0891 31.4792 15.5462 31.8367 13.0073C32.0818 11.2799 32.5478 9.6208 33.1021 7.98179C33.3753 7.17835 33.9056 6.52356 34.3635 5.82858C34.697 5.3184 35.175 5.07736 35.7776 4.94077C37.979 4.44666 40.1965 4.1052 42.4542 4.16546C45.7282 4.25384 48.9861 4.57922 52.1918 5.29027C53.5135 5.58352 54.7789 6.03347 55.7711 7.04178C56.5183 7.80103 57.0446 8.65266 57.1209 9.73328C57.2214 11.1353 57.5227 12.5333 57.2495 13.9473C57.2133 14.1361 57.2294 14.333 57.2214 14.5218L57.2173 14.5178ZM54.9998 13.6661C54.9998 12.9591 55.0199 12.2521 54.9998 11.5491C54.9195 9.29541 54.4535 8.67678 52.2963 7.89342C52.1758 7.84923 52.0512 7.8211 51.9267 7.78093C48.6085 6.66415 45.1979 6.19014 41.6989 6.23834C40.2005 6.25843 38.7825 6.59587 37.3644 7.04178C36.0106 7.4676 35.2714 8.3112 34.9179 9.70918C33.3271 15.968 32.4835 22.291 32.9254 28.7547C33.1142 31.5145 34.0663 34.0172 35.7294 36.2146C38.6981 40.1354 44.0048 40.1394 47.0177 37.5564C48.3876 36.3793 49.5485 35.0255 50.36 33.3745C51.2679 31.5225 51.8905 29.5702 52.5654 27.6339C54.1482 23.1145 54.7468 18.4265 54.9998 13.6741V13.6661ZM33.0057 34.1016C32.1902 31.4141 31.9572 28.6382 31.5515 25.7137C31.4631 28.7346 31.0654 31.631 33.0057 34.1016Z" fill="#EF9175"/>
<path d="M24.0319 78.0693C24.052 78.6679 23.8431 79.2021 23.5739 79.7204C23.3088 80.2346 22.8789 80.4716 22.3085 80.3912C21.9309 80.335 21.3574 80.6285 20.9999 80.5C17.2237 79.1663 6.61735 82.2713 3.50001 79.7204C2.7729 79.1258 9.39742 74.7633 10 74C10.7191 73.0881 12.4514 71.4851 13.4999 70.9428C13.9739 70.6978 14.0331 70.4929 14.2822 70.9428C14.3746 71.1075 14.4348 71.2923 14.5031 71.4731C15.2503 73.4415 16.7889 74.3132 18.7814 74.5462C19.1631 74.5904 19.5527 74.5743 19.9344 74.6105C21.2078 74.727 22.2482 75.3416 23.1401 76.2093C23.7025 76.7557 24.0118 77.4707 24.0279 78.0773L24.0319 78.0693Z" fill="#EF9175"/>
<path d="M42.2018 50.6278C41.2256 49.3423 42.3826 48.0728 42.25 46.7673C42.1536 45.8313 42.6196 44.8752 42.6035 43.8789C42.5834 42.6175 43.648 41.8984 44.5318 41.6212C48.9507 40.2433 50.9955 36.7082 52.5742 32.8718C54.4221 28.3806 55.5951 23.6965 56.1656 18.8237C56.4548 16.3611 56.3865 13.9307 56.4508 11.4883C56.5271 8.56378 55.0769 6.28602 52.4095 5.35403C50.3768 4.64701 48.2316 4.26538 46.0583 4.15692C44.2586 4.06854 42.4991 3.92391 40.6512 4.04845C35.6337 4.39794 32.8819 6.68773 31.8616 11.6932C30.7649 17.0641 30.094 22.5476 30.2627 28.0632C30.4234 33.3137 31.7852 37.9977 36.7987 40.7977C37.6664 41.2838 38.2127 41.9948 38.4015 43.0915C38.5341 43.8749 38.5181 44.361 37.7668 44.6381C32.9342 46.4338 29.9333 50.3626 26.7919 54.1027C24.8676 56.3925 23.317 58.9354 22.3368 61.7996C21.2321 65.0294 18.5205 66.9336 16.1704 69.127" stroke="#4C4C4C" stroke-linecap="round" stroke-linejoin="round"/>
<path d="M54.5419 12.4564C52.5413 13.4567 51.4245 15.389 49.9422 16.9195C44.4065 22.636 38.9873 28.4609 33.5239 34.2416" stroke="#4C4C4C" stroke-linecap="round" stroke-linejoin="round"/>
<path d="M33.139 15.1564C32.3155 10.5888 36.2363 5.7642 40.852 5.71599C44.3189 5.67984 47.7375 5.92489 51.0798 7.02962C53.3977 7.79289 54.8359 9.31542 54.9202 11.6856C55.0809 16.0683 54.0686 20.3185 53.3174 24.5888C53.2169 25.1512 52.7188 25.822 52.1042 26.4126C47.5848 30.7552 42.9088 34.9531 38.6426 39.6774C34.2719 37.2429 31.9499 33.6034 32.1628 28.4573C32.2191 27.0473 32.2673 25.6212 32.1508 24.2192C31.9419 21.7486 32.7293 19.3503 32.5646 16.8918C32.4882 15.759 33.4363 15.2408 34.1031 14.586C37.0196 11.7177 40.3338 9.26318 42.9691 6.09763" stroke="#4C4C4C" stroke-linecap="round" stroke-linejoin="round"/>
<path d="M50.6861 7.25073C46.7412 11.5933 42.471 15.6185 38.5181 19.9531C36.5577 22.1023 34.7821 24.4283 32.5605 26.3364" stroke="#4C4C4C" stroke-linecap="round" stroke-linejoin="round"/>
<path d="M52.4212 26.5292C52.8269 28.5418 51.7182 30.2089 51.0272 31.9082C49.6815 35.2304 47.8577 38.2714 44.1217 39.4244C42.563 39.9064 40.9521 40.5251 39.3091 39.6373" stroke="#4C4C4C" stroke-linecap="round" stroke-linejoin="round"/>
<path d="M33.9101 55.834C36.1276 55.4363 36.1678 55.5046 35.6536 57.5695C34.7337 61.2613 32.8657 64.2902 29.668 66.4354" stroke="#4C4C4C" stroke-linecap="round" stroke-linejoin="round"/>
<path d="M3 78.7481C4.15695 77.3139 12.3541 70.553 13.973 69.6732C14.9773 70.0227 15.146 70.9547 15.3549 71.6537C16.0378 73.9596 17.5162 74.7791 19.8341 74.763C21.678 74.7509 23.1282 76.165 23.2849 77.808C23.3331 78.3222 23.5821 79.0293 22.9113 79.3265C22.3689 79.5676 22.0154 78.977 21.5213 78.7481C21.7061 77.9808 22.3207 77.6112 22.9193 77.2296" stroke="#4C4C4C" stroke-linecap="round" stroke-linejoin="round"/>
<path d="M40.6589 57.5695C41.2213 56.9187 42.1412 56.8906 42.7639 56.3925C43.3585 55.9144 43.8606 55.7979 44.3065 56.4246C44.6761 56.9468 44.6399 57.5856 44.3186 58.1439C43.5031 59.5419 42.1934 60.1807 40.5826 60.2851C40.7553 61.4943 41.0325 62.5187 41.0204 63.5431C40.9883 66.0297 39.2127 67.0139 36.8988 65.8047C35.537 66.4957 34.8862 67.982 33.7373 68.9622C32.1465 70.316 30.5637 70.9789 28.7158 69.5126C28.5189 69.3559 28.3462 69.3238 28.1293 69.3278C28.0007 69.3278 27.8722 69.3278 27.7838 69.3278C27.4865 69.7135 27.5548 69.9866 27.9244 70.304C28.6475 70.9267 28.3783 71.4529 27.7557 72.0394C26.3014 73.4093 24.9155 74.8515 23.5015 76.2655" stroke="#4C4C4C" stroke-linecap="round" stroke-linejoin="round"/>
<path d="M37.3806 55.2561C37.1917 57.8432 36.3039 60.3419 36.4044 62.9691C36.4204 63.3749 36.4646 63.7525 36.6093 64.1261" stroke="#4C4C4C" stroke-linecap="round" stroke-linejoin="round"/>
<path d="M36.9953 47.5426C36.2039 47.8158 35.758 48.5188 35.284 49.1013C33.7133 51.0215 31.9779 52.7047 29.668 53.709" stroke="#4C4C4C" stroke-linecap="round" stroke-linejoin="round"/>
<path d="M39.1166 48.3145C38.4819 48.4431 38.3091 49.3108 37.582 49.2947C36.863 47.3584 36.8951 47.2861 38.735 46.5791C40.0687 49.13 39.0764 51.2029 37.3852 53.1352C36.6661 53.9587 35.5534 54.3885 35.0713 55.4491" stroke="#4C4C4C" stroke-linecap="round" stroke-linejoin="round"/>
<path d="M43.5515 55.8342C44.6442 54.384 45.4878 52.8695 44.5036 51.0216C44.3389 50.7163 44.0054 50.4954 43.7443 50.2463C43.1176 49.6477 42.9329 50.3829 42.5874 50.6319" stroke="#4C4C4C" stroke-linecap="round" stroke-linejoin="round"/>
<path d="M43.3589 59.6868C44.078 60.2974 43.6401 60.7232 43.1781 61.2414C42.6117 61.8721 41.9127 62.2979 41.2378 62.772" stroke="#4C4C4C" stroke-linecap="round" stroke-linejoin="round"/>
<path d="M42.5872 52.7491C42.2016 53.0062 41.824 53.2794 41.4303 53.5164C39.0842 54.9305 38.9396 55.5893 40.5344 58.0559C38.8673 58.4897 38.7789 59.5342 39.506 60.8438" stroke="#4C4C4C" stroke-linecap="round" stroke-linejoin="round"/>
<path d="M40.2735 60.6511C39.6066 60.8319 38.996 61.089 38.6987 61.8523C39.2571 62.3424 39.7954 62.7682 40.4663 62.0009" stroke="#4C4C4C" stroke-linecap="round" stroke-linejoin="round"/>
<path d="M40.6582 54.677C41.2728 55.2515 41.5299 55.9866 41.6223 56.7981" stroke="#4C4C4C" stroke-linecap="round" stroke-linejoin="round"/>
<path d="M21.5361 11.0769L26.464 11.9231" stroke="#4C4C4C" stroke-linecap="round"/>
<path d="M24.21 6.755L27.7904 10.2451" stroke="#4C4C4C" stroke-linecap="round"/>
</g>
<defs>
<clipPath id="clip0_1659_4504">
<rect width="80" height="80" rx="8" fill="white"/>
</clipPath>
</defs>
</svg>
