<svg width="80" height="80" viewBox="0 0 80 80" fill="none" xmlns="http://www.w3.org/2000/svg">
<g clip-path="url(#clip0_1659_4501)">
<rect width="80" height="80" rx="8" fill="white"/>
<circle cx="40" cy="86" r="66" fill="#E3F2FF"/>
<g clip-path="url(#clip1_1659_4501)">
<path d="M38.8851 14.0134C44.5449 13.9552 49.0828 15.6008 53.1327 18.6549C55.0983 20.135 56.7539 21.8968 58.227 23.833C58.6648 24.4098 58.6374 24.8793 58.1312 25.398C54.6924 28.9082 50.7976 31.8103 46.2324 33.7778C43.7787 34.8375 41.2202 35.5619 38.5203 35.781C37.7313 35.8436 36.9423 35.9018 36.1533 35.9018C33.3895 35.9018 30.7443 35.3473 28.1903 34.3278C25.2168 33.1383 22.6217 31.4033 20.3414 29.1899C19.0188 27.9066 17.7692 26.5651 16.702 25.0671C16.1547 24.298 16.1638 24.1594 16.8935 23.5199C18.7269 21.9102 20.7063 20.4837 22.7859 19.2004C25.3125 17.6398 27.9623 16.3118 30.8082 15.3996C33.5993 14.5052 36.4452 13.9105 38.8851 14.0134ZM36.9924 16.4191C33.2937 16.7097 29.3989 19.5805 29.3442 24.5082C29.2986 28.6265 32.3588 32.007 36.6641 32.5436C37.2661 32.7806 37.8726 32.7716 38.4747 32.5436C42.6431 32.168 45.9815 28.5415 45.8766 24.2801C45.7763 20.1707 42.4607 16.6963 38.3105 16.4146C37.8726 16.2 37.4303 16.2044 36.9879 16.4146L36.9924 16.4191Z" fill="#C4D4B2"/>
<path d="M24.4321 53.4348C20.4963 53.3588 17.1396 52.1426 14.1843 49.8218C12.7066 48.6592 11.4205 47.3177 10.294 45.8332C9.765 45.1356 9.75587 44.9165 10.4263 44.3531C13.7419 41.5762 17.395 39.3896 21.6364 38.2315C23.8484 37.6278 26.1196 37.4758 28.3726 37.7217C31.3233 38.0437 34.005 39.1392 36.3446 40.977C37.7356 42.0726 38.967 43.3157 40.016 44.7287C40.3671 45.2027 40.3763 45.3592 39.9749 45.7706C37.0333 48.7933 33.6721 51.2035 29.5857 52.5495C27.8663 53.1129 26.0922 53.3633 24.4367 53.4304L24.4321 53.4348ZM25.6726 39.412C25.3397 39.2152 25.0113 39.2152 24.6784 39.412C21.9192 39.5282 18.9821 42.1307 19.2512 45.6856C19.4838 48.762 22.2293 51.0247 25.1436 51.0381C28.2312 51.056 30.849 48.61 31.0953 45.7392C31.4054 42.1575 28.4911 39.488 25.6681 39.412H25.6726Z" fill="#C4D4B2"/>
<path d="M52.1247 65.991C48.0474 66.1475 44.7865 64.7613 41.8586 62.4629C40.5041 61.3986 39.3593 60.1511 38.3195 58.8007C37.795 58.1165 37.8452 57.7633 38.5065 57.2356C40.3307 55.7779 42.2189 54.4051 44.3122 53.3498C46.629 52.1827 49.0462 51.3197 51.664 50.9978C54.2317 50.6803 56.7401 50.8502 59.1664 51.7177C61.9757 52.7193 64.3062 54.4096 66.1898 56.6856C66.4634 57.0165 66.7508 57.3429 67.0107 57.6872C67.3208 58.0986 67.3163 58.3803 66.956 58.7559C65.0451 60.7324 62.9107 62.4316 60.4707 63.7418C58.5415 64.7747 56.5212 65.5483 54.332 65.8881C53.5111 66.0178 52.6947 65.9507 52.1338 65.9999L52.1247 65.991ZM53.5978 52.6165C52.9866 52.3795 52.3755 52.3795 51.7644 52.6165C51.55 52.6522 51.3265 52.6612 51.1213 52.7238C46.7111 54.101 45.8355 59.0108 48.3256 61.8548C50.2274 64.0235 53.5202 64.3007 55.6181 62.9816C57.7252 61.658 58.6236 59.7889 58.3591 57.3385C58.1128 55.049 55.9602 52.8669 53.5886 52.6165H53.5978Z" fill="#C4D4B2"/>
<path d="M59.1984 45.6855C56.3708 45.5827 53.7849 44.7733 51.5091 43.1009C50.1682 42.1172 49.0326 40.9233 47.9928 39.6399C47.5185 39.0542 47.5276 38.7903 48.1251 38.285C51.1077 35.772 54.4188 33.885 58.3455 33.1606C61.1093 32.6509 63.7636 32.9505 66.3267 34.0549C67.2526 34.4574 68.0963 35.0119 68.8944 35.6155C69.957 36.4204 70.8965 37.3505 71.6855 38.4147C72.1325 39.0184 72.1051 39.2017 71.5943 39.7249C69.4736 41.9026 67.02 43.6062 64.1467 44.7062C62.9199 45.1757 61.6566 45.4888 60.334 45.5469C59.9509 45.5648 59.5906 45.7347 59.1984 45.6766V45.6855ZM59.1573 43.6554C59.6499 43.8656 60.147 43.8656 60.6441 43.6554C62.6508 43.4363 64.5891 41.7595 64.7168 39.1972C64.8354 36.8497 63.0613 34.7883 60.8174 34.4395C60.2063 34.207 59.5952 34.2025 58.984 34.4395C56.69 34.909 55.1394 36.8899 55.1576 39.1704C55.1759 41.4867 57.1461 43.4452 59.1573 43.6509V43.6554Z" fill="#C4D4B2"/>
<path d="M36.6685 32.5436C32.3587 32.007 29.303 28.6265 29.3486 24.5082C29.4034 19.5805 33.2982 16.7097 36.9969 16.4191C37.4393 16.4191 37.8771 16.4191 38.3195 16.4191C42.4697 16.7008 45.7853 20.1752 45.8857 24.2846C45.9906 28.5415 42.6521 32.168 38.4837 32.5481C37.8817 32.5481 37.2751 32.5481 36.6731 32.5481L36.6685 32.5436ZM42.2599 25.3712C42.2599 25.0224 42.2919 24.6736 42.2508 24.3293C42.1778 23.7346 41.9863 23.1846 41.5302 22.7508C41.0057 22.2545 40.5086 22.2992 40.0754 22.8626C39.8656 23.1354 39.9385 23.4305 39.9978 23.7077C40.1757 24.5663 40.1027 25.4069 39.8929 26.2476C39.7789 26.7126 39.633 27.1732 39.5828 27.6561C39.4962 28.4655 39.9796 28.8501 40.7686 28.5594C41.366 28.3403 41.7491 27.911 41.9954 27.3387C42.2645 26.7037 42.2964 26.0419 42.2599 25.3712ZM40.3034 20.7789C40.3034 19.3882 38.9854 18.163 37.5715 18.2882C37.1246 18.3284 36.5956 18.4134 36.4314 18.9142C36.2581 19.4284 36.6549 19.7459 37.0197 20.0366C37.1018 20.1036 37.2021 20.1528 37.2888 20.2199C37.8224 20.6268 38.3651 21.0293 38.8896 21.4541C39.1769 21.6911 39.4779 21.8699 39.8519 21.7224C40.276 21.5524 40.3125 21.1679 40.308 20.7833L40.3034 20.7789Z" fill="#A694BD"/>
<path d="M36.6685 32.5436C37.2705 32.5436 37.877 32.5436 38.479 32.5436C37.8725 32.7672 37.2705 32.7761 36.6685 32.5436Z" fill="#A694BD"/>
<path d="M38.3148 16.4235C37.8724 16.4235 37.4346 16.4235 36.9922 16.4235C37.4346 16.2178 37.8724 16.2134 38.3148 16.4235Z" fill="#A694BD"/>
<path d="M25.6728 39.4075C28.4959 39.488 31.4102 42.1575 31.1 45.7348C30.8492 48.6055 28.2359 51.0515 25.1484 51.0336C22.2341 51.0157 19.4886 48.7575 19.256 45.6811C18.9869 42.1262 21.924 39.5237 24.6832 39.4075C25.0161 39.4522 25.3445 39.4567 25.6774 39.4075H25.6728ZM26.8313 44.1205C27.0182 45.1087 26.9863 46.0835 26.6625 47.0449C26.6306 47.1433 26.6306 47.2551 26.626 47.3624C26.5759 48.1047 26.927 48.3417 27.6202 48.0421C27.9714 47.8901 28.1721 47.6128 28.2998 47.2775C28.5369 46.6693 28.6464 46.0388 28.578 45.3904C28.5324 44.9656 28.4457 44.5408 28.1949 44.1742C27.8574 43.6778 27.5518 43.6242 26.9818 43.9461C26.886 43.964 26.8313 44.0177 26.8267 44.116L26.8313 44.1205ZM27.1231 42.3945C27.1095 42.3453 27.0912 42.1843 27.041 42.0323C26.7537 41.1872 25.8963 40.6327 25.0161 40.7713C24.7789 40.8071 24.446 40.8428 24.3594 41.1603C24.2818 41.4465 24.3867 41.688 24.6193 41.8713C25.1073 42.2514 25.6044 42.627 26.0924 43.0071C26.3068 43.1725 26.512 43.3738 26.8176 43.1949C27.0821 43.0384 27.1459 42.7835 27.1231 42.3945Z" fill="#A694BD"/>
<path d="M25.6725 39.4074C25.3395 39.4566 25.0112 39.4566 24.6782 39.4074C25.0112 39.2107 25.3395 39.2107 25.6725 39.4074Z" fill="#A694BD"/>
<path d="M53.5933 52.6166C55.9649 52.867 58.113 55.0491 58.3638 57.3386C58.6283 59.789 57.7299 61.6581 55.6228 62.9817C53.5249 64.3008 50.2321 64.0236 48.3303 61.8549C45.8402 59.0109 46.7158 54.1011 51.126 52.7239C51.3313 52.6613 51.5547 52.6523 51.7691 52.6166C52.3802 52.6166 52.9913 52.6166 53.6025 52.6166H53.5933ZM53.7439 56.1715C53.8989 56.3682 54.0677 56.3816 54.2501 56.2117C54.6742 55.9211 54.6104 55.5186 54.4872 55.1251C54.2455 54.3471 53.6663 53.9581 52.8682 53.8463C52.4805 53.7926 52.1202 53.882 51.9469 54.2174C51.7554 54.5885 52.0017 54.8747 52.3072 55.1028C52.7861 55.456 53.265 55.8138 53.7393 56.1715H53.7439ZM55.9193 58.6756C55.9056 58.4565 55.9056 58.1613 55.8691 57.8707C55.819 57.4548 55.6183 57.1105 55.2899 56.8422C55.1075 56.6947 54.9068 56.6186 54.697 56.7841C54.4964 56.9406 54.1999 57.03 54.2957 57.3967C54.51 58.2284 54.3778 59.0378 54.1361 59.8471C54.0768 60.0483 54.054 60.2719 54.0585 60.4821C54.0631 60.9114 54.241 61.0544 54.6788 61.0008C55.1987 60.9427 55.486 60.5849 55.7049 60.1691C55.9421 59.7219 55.8965 59.23 55.9239 58.6756H55.9193Z" fill="#A694BD"/>
<path d="M53.5932 52.6165C52.982 52.6165 52.3709 52.6165 51.7598 52.6165C52.3709 52.3795 52.982 52.3795 53.5932 52.6165Z" fill="#A694BD"/>
<path d="M60.8172 34.4396C63.0565 34.7884 64.8351 36.8498 64.7166 39.1973C64.5889 41.7596 62.6506 43.4319 60.6439 43.6555C60.1468 43.6555 59.6542 43.6555 59.1571 43.6555C57.1458 43.4453 55.1756 41.4868 55.1574 39.175C55.1391 36.8945 56.6898 34.9136 58.9838 34.444C59.5949 34.444 60.2061 34.444 60.8172 34.444V34.4396ZM62.6323 39.5193C62.6323 39.0319 62.6232 38.5534 62.2994 38.1465C62.1398 37.9498 61.9528 37.7888 61.6746 37.8648C61.3645 37.9498 61.2505 38.1823 61.2869 38.4819C61.3781 39.2331 61.2276 39.962 61.0452 40.6819C60.9859 40.9234 60.9586 41.1738 61.2185 41.3213C61.4466 41.451 61.702 41.4152 61.9209 41.2856C62.2948 41.0665 62.491 40.7177 62.5685 40.3108C62.6187 40.0514 62.6141 39.7786 62.6323 39.5148V39.5193ZM61.4648 36.8721C61.4694 36.1388 61.0361 35.7363 60.1878 35.5619C59.8412 35.4904 59.5037 35.4189 59.335 35.7542C59.1343 36.1477 59.449 36.3847 59.7546 36.5949C60.0464 36.7916 60.3155 37.0197 60.5983 37.2298C60.7579 37.3461 60.8537 37.5876 61.141 37.4311C61.3918 37.2924 61.4922 37.1136 61.4648 36.8721Z" fill="#A694BD"/>
<path d="M60.8173 34.4396C60.2061 34.4396 59.595 34.4396 58.9839 34.4396C59.595 34.2026 60.2061 34.2026 60.8173 34.4396Z" fill="#A694BD"/>
<path d="M59.1616 43.6555C59.6587 43.6555 60.1513 43.6555 60.6484 43.6555C60.1513 43.8657 59.6587 43.8657 59.1616 43.6555Z" fill="#A694BD"/>
<path d="M42.2554 25.3712C42.2919 26.042 42.2645 26.7082 41.9909 27.3387C41.7492 27.9111 41.3661 28.3403 40.7641 28.5595C39.9751 28.8501 39.4871 28.4655 39.5783 27.6562C39.633 27.1733 39.7744 26.7127 39.8884 26.2476C40.0982 25.407 40.1712 24.5663 39.9933 23.7078C39.934 23.4305 39.8611 23.1354 40.0709 22.8627C40.5041 22.3037 41.0012 22.259 41.5257 22.7509C41.9818 23.1801 42.1733 23.7346 42.2463 24.3293C42.2873 24.6736 42.2554 25.0224 42.2554 25.3712Z" fill="#FFDC7D"/>
<path d="M40.2989 20.7789C40.308 21.1679 40.267 21.5525 39.8428 21.7179C39.4688 21.8655 39.1724 21.6866 38.8805 21.4496C38.3606 21.0248 37.8179 20.6268 37.2797 20.2155C37.1931 20.1484 37.0973 20.0992 37.0106 20.0321C36.6458 19.7415 36.249 19.424 36.4223 18.9098C36.591 18.4089 37.1155 18.324 37.5625 18.2837C38.9763 18.1585 40.2943 19.3837 40.2898 20.7744L40.2989 20.7789Z" fill="#FFDC7D"/>
<path d="M26.9859 43.9506C27.556 43.6287 27.8616 43.6823 28.1991 44.1787C28.4499 44.5453 28.5366 44.9701 28.5822 45.3949C28.6506 46.0389 28.5366 46.6738 28.304 47.282C28.1763 47.6129 27.971 47.8946 27.6244 48.0466C26.9312 48.3462 26.58 48.1092 26.6302 47.3669C26.6393 47.2596 26.6302 47.1478 26.6667 47.0494C26.9905 46.088 27.0224 45.1132 26.8354 44.125C26.8856 44.0669 26.9403 44.0132 26.9905 43.9551L26.9859 43.9506Z" fill="#FFDC7D"/>
<path d="M27.1273 42.3944C27.1455 42.7835 27.0817 43.0383 26.8217 43.1948C26.5207 43.3782 26.3109 43.1725 26.0966 43.007C25.604 42.627 25.1115 42.2513 24.6235 41.8713C24.3909 41.6879 24.2814 41.4465 24.3635 41.1603C24.4502 40.8428 24.7877 40.8115 25.0203 40.7712C25.9005 40.6282 26.7579 41.1826 27.0452 42.0322C27.0954 42.1798 27.1182 42.3408 27.1273 42.3944Z" fill="#FFDC7D"/>
<path d="M26.9861 43.9506C26.936 44.0087 26.8812 44.0623 26.8311 44.1205C26.8356 44.0221 26.8903 43.9684 26.9861 43.9506Z" fill="#FFDC7D"/>
<path d="M55.9234 58.6755C55.8961 59.23 55.9417 59.7218 55.7045 60.169C55.4856 60.5849 55.1983 60.9381 54.6784 61.0007C54.2405 61.0499 54.0627 60.9068 54.0581 60.482C54.0581 60.2718 54.0764 60.0483 54.1356 59.847C54.3774 59.0422 54.5096 58.2283 54.2953 57.3966C54.1995 57.0299 54.4959 56.9405 54.6966 56.784C54.9064 56.6186 55.1071 56.6991 55.2895 56.8421C55.6224 57.106 55.8231 57.4547 55.8687 57.8706C55.9052 58.1613 55.9052 58.4564 55.9189 58.6755H55.9234Z" fill="#FFDC7D"/>
<path d="M53.7436 56.1715C53.2648 55.8138 52.7905 55.456 52.3116 55.1028C52.006 54.8747 51.7598 54.5885 51.9513 54.2174C52.1246 53.882 52.4849 53.7926 52.8726 53.8463C53.6752 53.9581 54.2499 54.3471 54.4916 55.1251C54.6147 55.5186 54.674 55.9211 54.2544 56.2117C54.0857 56.1983 53.917 56.1849 53.7482 56.1715H53.7436Z" fill="#FFDC7D"/>
<path d="M53.7437 56.1714C53.9124 56.1848 54.0811 56.1982 54.2499 56.2116C54.0675 56.3816 53.8987 56.3726 53.7437 56.1714Z" fill="#FFDC7D"/>
<path d="M62.6367 39.5192C62.6185 39.783 62.623 40.0558 62.5729 40.3151C62.4953 40.7221 62.2992 41.0708 61.9252 41.2899C61.7063 41.4152 61.4555 41.4509 61.2229 41.3257C60.9629 41.1782 60.9857 40.9322 61.0496 40.6863C61.232 39.9619 61.3825 39.2375 61.2913 38.4863C61.2548 38.1867 61.3643 37.9542 61.679 37.8692C61.9572 37.7932 62.1441 37.9542 62.3038 38.1509C62.6276 38.5578 62.6413 39.0363 62.6367 39.5237V39.5192Z" fill="#FFDC7D"/>
<path d="M61.4694 36.8721C61.4968 37.1136 61.3965 37.2925 61.1456 37.4311C60.8583 37.5921 60.758 37.3506 60.6029 37.2299C60.3201 37.0197 60.0511 36.7916 59.7592 36.5949C59.449 36.3847 59.1389 36.1522 59.3396 35.7542C59.5083 35.4189 59.8458 35.4904 60.1924 35.562C61.0407 35.7363 61.474 36.1388 61.4694 36.8721Z" fill="#FFDC7D"/>
<path d="M57.3559 24.5843C55.5089 22.3037 53.2559 20.4525 50.7794 18.883C47.5961 16.8663 44.0935 15.5159 40.3583 14.9614C36.6231 14.4069 32.9016 14.5813 29.1892 15.5382C23.8486 16.9155 19.4248 19.6879 15.5664 23.4485C15.2153 23.7928 14.9462 24.1863 14.6406 24.6156C17.7829 28.1615 21.5409 30.8624 25.9967 32.6286C29.7137 34.1042 33.5811 34.7526 37.5717 34.538C42.0366 34.301 46.2005 33.0266 50.0543 30.7774C52.4897 29.3554 54.6606 27.6205 56.6171 25.6217C56.8999 25.3355 57.2237 25.0761 57.3149 24.6558" stroke="black" stroke-linecap="round" stroke-linejoin="round"/>
<path d="M39.9523 45.2564C38.2283 43.3202 36.2672 41.6702 33.9595 40.4316C30.8902 38.786 27.6156 37.9141 24.1085 37.9409C19.639 37.9767 15.6347 39.4031 12.0455 41.9653C10.7411 42.8954 9.53254 43.9418 8.45166 45.2654C12.31 49.415 16.9573 52.0711 22.7904 52.4959C29.5904 52.9878 35.0997 50.3987 39.6969 45.6544C39.779 45.5694 39.8109 45.4442 39.8656 45.3369" stroke="black" stroke-linecap="round" stroke-linejoin="round"/>
<path d="M66.8786 58.291C63.1206 53.9849 58.4231 51.539 52.5945 51.1991C46.2734 50.828 40.1712 53.8508 36.4224 58.2106C44.5951 67.583 58.5918 67.7395 66.7965 58.3715" stroke="black" stroke-linecap="round" stroke-linejoin="round"/>
<path d="M71.3936 39.2242C68.9172 36.2238 65.6791 34.4084 61.8664 33.7063C58.9202 33.1653 55.9876 33.5006 53.1691 34.6275C50.866 35.5486 48.9049 36.9303 47.1764 38.6564C47.0077 38.8263 46.8617 39.0051 46.7568 39.2824C47.9609 40.7267 49.4659 41.8625 51.1168 42.8507C54.2409 44.7243 57.6751 45.2832 61.2142 44.8942C64.6849 44.5097 67.7132 42.9759 70.2443 40.5836C70.6593 40.1901 71.1656 39.8592 71.3982 39.3047" stroke="black" stroke-linecap="round" stroke-linejoin="round"/>
<path d="M53.9902 60.7057C54.2912 61.1931 54.6196 60.9248 54.8887 60.7012C55.8829 59.865 55.737 57.6963 54.6242 56.9093C54.3505 56.9987 54.1362 57.1463 54.1544 57.4906C54.2228 58.5414 54.0951 59.5833 53.9902 60.6297" stroke="black" stroke-linecap="round" stroke-linejoin="round"/>
<path d="M35.7656 19.8354C36.281 20.8683 37.2798 21.3289 38.233 21.8432C38.6753 22.0801 38.9627 21.8521 39.1314 21.4452C39.4096 20.7879 38.9946 19.8801 38.1463 19.272C37.4668 18.7846 36.5592 18.7935 36.0073 19.272C35.8477 19.4106 35.8386 19.5939 35.7656 19.7594" stroke="black" stroke-linecap="round" stroke-linejoin="round"/>
<path d="M61.1323 38.6608C61.2508 39.5999 60.927 40.5389 61.0456 41.5092C62.1995 41.0576 62.6783 39.336 61.9532 38.4999C61.6111 38.1019 61.3147 38.1734 61.0502 38.5803" stroke="black" stroke-linecap="round" stroke-linejoin="round"/>
<path d="M24.1084 41.7194C24.3364 42.6539 25.1984 42.8909 25.9235 43.2263C26.2701 43.3873 26.5529 43.119 26.5757 42.6852C26.603 42.2023 26.0603 41.3616 25.4994 41.1649C24.9886 40.986 24.4869 41.0173 24.1084 41.4824C24.081 41.5137 24.1084 41.5852 24.1084 41.6389" stroke="black" stroke-linecap="round" stroke-linejoin="round"/>
<path d="M58.9978 36.5681C59.2714 37.0108 59.691 37.297 60.1471 37.5295C60.3523 37.6324 60.5712 37.8112 60.7993 37.6055C60.9954 37.4312 60.9087 37.1673 60.8722 36.9706C60.7719 36.4027 60.3158 36.0718 59.8096 35.9511C59.4584 35.8661 59.0206 35.9958 58.9111 36.4877" stroke="black" stroke-linecap="round" stroke-linejoin="round"/>
<path d="M58.6692 34.7169C57.6932 35.0254 56.772 35.3831 56.0286 36.1523C54.8337 37.3998 54.4962 38.8531 54.9979 40.4181C55.5132 42.0234 56.6762 43.0608 58.4184 43.4052C61.059 43.9328 63.1889 42.2068 63.6495 40.0962C64.2196 37.4714 62.4728 35.2445 60.2335 34.851C59.7364 34.7616 59.2484 34.7258 58.7513 34.7124" stroke="black" stroke-linecap="round" stroke-linejoin="round"/>
<path d="M23.8623 39.5462C21.9148 39.8637 20.3551 40.7759 19.4384 42.5287C18.1705 44.9568 18.654 47.6129 20.9936 49.5178C22.8954 51.065 25.9419 51.0247 27.8893 49.5312C29.7957 48.0645 30.4524 46.1239 29.9872 43.897C29.5449 41.782 28.0763 40.4047 25.9921 39.7206C25.3445 39.5104 24.6376 39.5059 23.9443 39.5462" stroke="black" stroke-linecap="round" stroke-linejoin="round"/>
<path d="M27.2281 43.9685C26.8632 44.0356 26.6033 44.2681 26.7492 44.6079C27.1369 45.4978 26.7082 46.334 26.6352 47.188C26.6124 47.4653 26.5668 47.7246 26.6078 47.9929C27.3968 48.2791 27.7206 47.7515 27.9532 47.2641C28.3591 46.4145 28.3272 45.5067 28.0399 44.6169C27.935 44.2905 27.7298 43.9953 27.3102 43.9685" stroke="black" stroke-linecap="round" stroke-linejoin="round"/>
<path d="M40.0342 22.8136C39.6328 23.064 39.4367 23.2607 39.5736 23.8688C39.8062 24.8884 39.5781 25.9615 39.3546 26.99C39.2999 27.2315 39.3455 27.4774 39.2269 27.7278C39.0947 28.0051 39.309 28.3002 39.5508 28.4209C39.7104 28.5014 40.0159 28.4522 40.1893 28.3494C40.8095 27.9916 41.1835 27.4193 41.334 26.7485C41.5529 25.7872 41.6076 24.8168 41.2656 23.851C41.0649 23.2831 40.7593 22.8762 40.1117 22.8091" stroke="black" stroke-linecap="round" stroke-linejoin="round"/>
<path d="M50.9525 52.7373C49.5342 53.0816 48.2891 53.7166 47.4271 54.9105C45.5937 57.4414 46.2459 60.889 48.8227 62.548C50.7519 63.791 52.7677 63.8134 54.7197 62.6955C56.7218 61.5508 57.561 59.704 57.3375 57.4861C57.0547 54.6869 54.4825 52.5584 51.7735 52.7373C51.5272 52.7552 51.2809 52.7373 51.0346 52.7373" stroke="black" stroke-linecap="round" stroke-linejoin="round"/>
<path d="M52.102 54.1862C51.3313 54.6736 51.2948 54.9106 51.9424 55.4695C52.2845 55.7646 52.6676 56.015 53.0917 56.1939C53.6572 56.4354 53.9902 56.1671 53.9126 55.5545C53.8077 54.763 53.1236 54.2219 52.1887 54.1862" stroke="black" stroke-linecap="round" stroke-linejoin="round"/>
<path d="M35.1089 16.8574C34.028 17.1928 32.9426 17.4834 31.9848 18.1363C26.9544 21.5794 27.8574 28.725 32.8058 31.1039C35.5832 32.4409 38.2649 32.2933 40.755 30.5896C43.2451 28.886 44.2804 26.4624 43.9885 23.453C43.6967 20.4213 40.9785 17.5282 37.9821 16.996C37.0381 16.8261 36.1168 16.9334 35.1864 16.8619" stroke="black" stroke-linecap="round" stroke-linejoin="round"/>
</g>
</g>
<defs>
<clipPath id="clip0_1659_4501">
<rect width="80" height="80" rx="8" fill="white"/>
</clipPath>
<clipPath id="clip1_1659_4501">
<rect width="64" height="52" fill="white" transform="translate(8 14)"/>
</clipPath>
</defs>
</svg>
