<svg width="80" height="80" viewBox="0 0 80 80" fill="none" xmlns="http://www.w3.org/2000/svg">
<g clip-path="url(#clip0_1659_4516)">
<rect width="80" height="80" rx="8" fill="white"/>
<circle cx="40" cy="86" r="66" fill="#F5E3ED"/>
<path d="M33.1855 47.7577C33.6906 48.3555 33.7308 48.1867 34.2538 47.8992C39.4967 45.0196 44.9765 42.8155 50.8631 41.7613C53.3437 41.3187 55.8468 41.0449 58.3632 40.9034C59.208 40.8532 59.8248 40.5885 60.303 39.8447C60.9064 38.9092 61.6171 38.0467 62.52 37.3804C62.958 37.0564 63.4229 36.8009 63.9682 36.7142C64.9336 36.5636 65.5951 37.1066 65.6443 38.0923C65.689 38.9457 65.385 39.6987 64.9962 40.4243C64.9068 40.5931 64.804 40.7528 64.7101 40.9171C64.4777 41.3187 64.4956 41.6975 64.7638 42.0534C67.088 45.1611 68.6077 48.6704 69.6357 52.4078C70.1318 54.2104 70.2302 56.0677 70.0335 57.9341C69.9709 58.5274 69.8055 59.18 69.9709 59.7139C70.1318 60.2295 70.8291 60.3984 71.2671 60.7498C71.6694 61.0738 72.0583 61.4069 72.3041 61.8769C72.5857 62.4154 72.684 62.9767 72.313 63.5015C71.9331 64.04 71.3655 64.1997 70.7442 64.1039C70.1855 64.0218 69.6625 63.8118 69.1396 63.5882C68.2501 63.2095 68.2501 63.2186 67.5886 63.9259C67.4768 64.0446 67.3517 64.1495 67.2131 64.2317C64.4598 65.9201 61.7601 67.709 58.8146 69.0461C55.4981 70.552 52.0163 71.524 48.4584 72.2131C46.6929 72.5554 44.9139 72.7836 43.1127 72.7334C42.0668 72.706 41.0253 72.6056 39.9973 72.4139C39.4297 72.309 38.9782 72.3683 38.5894 72.8794C38.2139 73.3722 37.7491 73.7966 37.2351 74.1526C36.7479 74.4903 36.2204 74.6819 35.6528 74.399C35.0851 74.1115 34.9242 73.5685 34.8706 72.9661C34.8036 72.1766 35.1343 71.4693 35.2818 70.7254C35.5142 70.5475 35.5053 70.2372 35.6483 70.0135C35.921 69.5983 35.8718 69.2743 35.4785 68.964C34.9823 68.5715 34.8259 67.9919 34.7231 67.3896C34.4594 65.8563 34.6024 64.3001 34.437 62.7531C34.3521 61.9454 34.3342 61.1194 34.2001 60.3208C33.6638 57.1219 32.5151 54.1465 30.9015 51.3582C30.6646 50.9475 30.468 50.4821 30.0478 50.1991C29.9808 50.0531 29.945 49.8797 29.8467 49.761C29.0198 48.7936 28.3136 47.7394 27.6744 46.6351C27.661 46.3887 27.6387 46.1468 27.6387 45.9004C27.6476 45.0926 28.1929 44.6819 28.9706 44.9101C29.2254 44.9831 29.4712 45.0926 29.7171 45.1976C31.0535 45.7908 32.2022 46.6579 33.1945 47.7486L33.1855 47.7577Z" fill="#EF9175"/>
<path d="M33.1858 47.7576C32.1935 46.6715 31.0448 45.8045 29.7084 45.2067C29.467 45.0971 29.2167 44.9922 28.9619 44.9192C28.1842 44.691 27.6389 45.1017 27.63 45.9094C27.63 46.1559 27.6523 46.3977 27.6613 46.6442C27.1651 47.4108 27.1785 48.0269 27.8177 48.6612C28.4747 49.3183 29.1944 49.9161 29.8872 50.5413C29.9006 51.13 29.914 51.7141 29.9274 52.3028C29.5475 53.1607 29.4268 54.0689 29.4044 54.9998C29.3865 55.6843 29.3866 56.3597 29.2837 57.0442C29.1944 57.6192 28.9217 57.9888 28.4479 58.2626C27.7864 58.6414 27.0936 58.9289 26.3427 59.0339C25.708 59.1251 25.0644 59.2301 24.4252 59.2301C22.9011 59.2301 21.3858 59.4537 19.8527 59.2803C18.6415 59.1434 17.4615 58.9517 16.3887 58.3448C16.0312 58.144 15.7853 58.1577 15.4635 58.4132C14.9361 58.8331 14.3774 59.2164 13.7606 59.4948C13.4924 59.6134 13.2153 59.7229 12.9158 59.7412C12.2275 59.7823 11.7895 59.4081 11.7403 58.6962C11.6911 58.0254 11.8878 57.3956 12.1604 56.7978C12.4063 56.2547 12.7013 55.7299 12.9739 55.196C13.0857 54.9815 13.1751 54.7899 13.0588 54.5115C12.3348 52.7591 12.08 50.8836 11.7671 49.0308C11.4453 47.1187 11.2978 45.1793 11.271 43.2398C11.2352 40.771 11.5302 38.3296 12.1113 35.9338C12.2498 35.3497 12.156 34.8705 11.8833 34.3685C11.5481 33.7479 11.2352 33.109 10.9313 32.4701C10.7659 32.1279 10.6363 31.7628 10.6095 31.3749C10.5469 30.4622 11.1458 29.9876 12.004 30.3025C12.661 30.5444 13.2734 30.8821 13.7829 31.3886C14.2657 31.8678 14.7037 32.3834 15.0925 32.9402C15.2669 33.1866 15.3875 33.2961 15.7228 33.2277C18.6906 32.6435 21.6942 32.2785 24.6934 31.8997C25.3326 31.8176 25.9762 31.7902 26.6154 31.7445C31.5812 31.3886 36.5157 31.6213 41.3966 32.6937C41.7631 32.7759 42.1206 32.89 42.4827 32.9904C42.876 33.0999 43.1934 33.0223 43.5018 32.712C44.208 31.9955 45.0304 31.4251 45.9065 30.9414C46.3579 30.6904 46.8406 30.5079 47.3502 30.4759C48.1681 30.4212 48.6508 31.0509 48.4318 31.8586C48.2486 32.534 47.8463 33.0816 47.4083 33.6019C47.2697 33.7661 47.1133 33.9213 46.9747 34.0856C46.5322 34.6104 46.5054 34.6423 46.8406 35.2264C47.5647 36.4905 47.7524 37.8961 47.9133 39.3107C47.9536 39.6621 47.9849 40.018 48.0251 40.3694C48.1234 41.1589 47.891 41.5377 47.0999 41.7248C46.635 41.8389 46.1478 41.8571 45.674 41.9393C43.6001 42.3135 41.6603 43.0938 39.7562 43.9882C37.6867 44.9602 35.7022 46.1102 33.7445 47.2967C33.5389 47.4245 33.3333 47.5568 33.1902 47.7622L33.1858 47.7576Z" fill="#BD94AA"/>
<path d="M29.9318 52.3029C29.9184 51.7142 29.905 51.1301 29.8916 50.5414C29.9408 50.4319 29.9944 50.3178 30.0436 50.2083C30.4637 50.4912 30.6604 50.9567 30.8973 51.3674C32.5108 54.1556 33.6595 57.131 34.1959 60.3299C34.33 61.124 34.3479 61.9545 34.4328 62.7623C34.5982 64.3047 34.4551 65.8654 34.7188 67.3987C34.8216 68.0011 34.9826 68.5806 35.4742 68.9731C35.8676 69.288 35.9167 69.612 35.6441 70.0227C35.4966 70.2463 35.5055 70.5566 35.2776 70.7346C32.5064 65.7604 30.6067 60.4897 30.0838 54.758C30.0078 53.9411 29.981 53.1243 29.9274 52.3029H29.9318Z" fill="#E76943"/>
<path d="M45.5045 33.5835C45.8621 33.0496 46.3672 32.6571 46.7918 32.1871C47.507 31.3976 47.6902 30.8181 47.355 30.38C46.9751 29.8826 46.3001 29.8962 45.3392 30.2887C44.4139 30.6675 43.6183 31.2607 42.8674 31.8813C42.34 32.3149 41.9199 32.2464 41.3165 32.1369C39.5554 31.8266 37.8078 31.4204 36.0154 31.2516C33.7314 31.0325 31.4474 31.0964 29.1768 31.1603C27.6259 31.206 26.0615 31.3976 24.506 31.5756C22.6288 31.7855 20.7515 32.0228 18.8787 32.2829C17.4216 32.4883 15.9645 32.753 14.5387 33.1226C13.9129 33.2869 13.4704 33.1728 13.0905 32.7575C12.5944 32.2145 11.982 31.8448 11.3831 31.4706C11.0657 31.2744 10.6501 31.0873 10.2657 31.4524C9.90362 31.7992 9.97513 32.2008 10.1092 32.6024C10.3819 33.4192 10.6411 34.2361 11.2222 34.9115C11.4591 35.1853 11.535 35.5458 11.4099 35.9747C11.0032 37.362 10.8288 38.7995 10.6545 40.237C10.3774 42.4822 10.4534 44.732 10.5428 46.968C10.6188 48.8254 10.9451 50.6781 11.4814 52.467C11.7541 53.3751 12.0714 54.2741 12.3619 55.1777C12.4737 55.529 12.5631 55.8759 12.2055 56.1634C11.839 56.46 11.7228 56.9346 11.5082 57.327C11.2758 57.7469 11.106 58.3401 11.4948 58.7782C11.8837 59.2163 12.4335 59.0931 12.9296 58.9516C13.8816 58.6778 14.7398 58.1621 15.4862 57.537C16.2595 56.8889 17.0953 56.9802 17.9177 57.0852C19.9783 57.3499 22.0164 57.7241 24.1172 57.4183C25.0379 57.2814 25.99 57.3499 26.9331 57.2631C27.5946 57.2038 27.7555 56.8935 27.9119 56.3368C28.1443 55.5108 28.1801 54.5616 29.0204 54.0322" stroke="#4C4C4C" stroke-linecap="round" stroke-linejoin="round"/>
<path d="M29.3332 52.9598C28.8282 53.8634 29.2885 54.7852 29.3779 55.6659C29.5433 57.3225 29.8517 58.979 30.2942 60.599C30.9334 62.9309 31.6396 65.2354 32.7034 67.4168L33.5481 68.8497L33.8521 67.4943C33.8342 65.272 33.9549 63.0359 33.5034 60.8454C32.9805 58.2945 32.3905 55.7526 31.4161 53.334C30.9378 52.1475 30.4953 50.9428 29.3511 50.1442C28.6226 49.6376 28.0192 48.9121 27.5767 48.1089C27.3532 47.7073 27.228 47.1916 27.5811 46.8174C27.8582 46.5208 28.2605 46.5208 28.6941 46.6212C29.7444 46.8631 30.7233 47.292 31.6575 47.8031C32.1849 48.0906 32.5827 48.0313 33.0341 47.7073C34.2007 46.8813 35.4477 46.1922 36.7305 45.5625C41.7813 43.0846 47.1762 41.8616 52.6649 40.9808C54.7835 40.6431 56.9066 40.3419 59.0208 39.9905C59.6197 39.8901 60.0533 39.6072 60.3974 39.087C60.9249 38.2747 61.4612 37.4578 62.3194 36.9467C62.8289 36.641 63.343 36.5908 63.848 36.9467C64.4157 37.3529 64.5453 37.9826 64.3889 38.5804C64.2101 39.2604 64.0268 39.9905 63.5933 40.5427C62.972 41.3322 63.1463 41.9391 63.6737 42.7012C65.5688 45.4347 66.8874 48.4466 67.6338 51.7186C68.2819 54.557 68.5769 57.432 68.5054 60.3389C68.492 60.9048 68.6395 61.247 69.1535 61.5026C69.8642 61.8539 70.5212 62.3331 70.9906 62.9811C71.2006 63.2732 71.5269 63.6063 71.1962 64.1311C70.9146 64.5829 70.6062 64.738 70.1234 64.7791C69.1401 64.8704 68.2819 64.4825 67.4774 64.0124C66.9589 63.7067 66.4762 63.6976 66.0248 63.9623C63.3698 65.4956 60.5494 66.6456 57.7335 67.8184C54.2561 69.2741 50.6983 70.4651 46.9482 70.812C44.7402 71.0173 42.5054 71.2135 40.2705 70.8667C39.3274 70.7207 38.3486 70.6751 37.8301 71.8981C37.5664 72.5187 36.9898 73.0024 36.4043 73.3812C35.9483 73.6778 35.4746 74.0566 34.8801 73.6413C34.3571 73.2762 34.2052 72.7332 34.3974 71.9117C34.5851 71.0995 34.8801 70.3374 35.2868 69.6118" stroke="#4C4C4C" stroke-linecap="round" stroke-linejoin="round"/>
<path d="M45.2632 33.5835C45.9739 34.1767 46.1258 35.0712 46.3717 35.888C46.7426 37.1065 46.8946 38.3751 46.8723 39.662C46.8678 39.9449 46.7963 40.2461 47.0287 40.4834" stroke="#4C4C4C" stroke-linecap="round" stroke-linejoin="round"/>
<path d="M52.6335 62.7028C49.4511 62.4974 46.9883 61.3885 45.5803 58.6368C44.159 55.8576 44.6194 53.1469 46.3581 50.6325C46.7737 50.0301 47.2341 49.4597 47.8509 49.049C48.0968 48.8847 48.3158 48.6474 48.6287 48.9303C48.9102 49.1859 48.8432 49.446 48.6957 49.7381C48.2666 50.596 47.9806 51.495 47.8331 52.4487C47.5738 54.1737 47.9761 55.6796 49.1114 56.9985C50.4165 58.5135 52.1508 59.1844 54.0101 59.5814C55.0829 59.8096 56.1735 59.9145 57.273 59.9282C57.4339 59.9282 57.5993 59.9282 57.7468 59.9784C57.9479 60.0423 58.0507 60.2111 57.9881 60.4256C57.9077 60.6903 57.7736 60.9002 57.5278 61.0691C56.4148 61.8175 55.208 62.3149 53.8939 62.5157C53.3933 62.5887 52.9017 62.7758 52.629 62.7073L52.6335 62.7028Z" fill="#FBD3C6"/>
<path d="M29.8738 42.3635C29.838 42.6647 29.6592 42.8244 29.4313 42.9294C29.1631 43.0526 28.8904 43.1712 28.6088 43.2579C27.4601 43.6002 26.6735 44.3805 26.0924 45.4119C26.0522 45.4849 26.0164 45.5579 25.9762 45.6264C25.851 45.8408 25.7125 46.0599 25.4264 46.0234C25.1493 45.9914 25.0331 45.7633 24.9526 45.526C24.6174 44.5585 24.0676 43.7234 23.4598 42.9248C23.2452 42.6464 22.9949 42.3954 22.7804 42.1171C22.539 41.8068 22.4943 41.5101 22.7893 41.1724C23.5939 40.2461 24.2151 39.201 24.6845 38.0556C24.756 37.8822 24.8454 37.6997 24.9705 37.5673C25.2745 37.2479 25.641 37.3392 25.7617 37.7681C26.1729 39.2102 27.1204 40.1913 28.3362 40.9534C28.7474 41.209 29.172 41.4417 29.5341 41.7748C29.7128 41.9391 29.8827 42.1171 29.8782 42.3726L29.8738 42.3635Z" fill="#F5E3ED"/>
<path d="M25 38C24.5429 40.6667 22.1429 41.7778 21 42C23.2857 42 24.619 44.6667 25 46C25.4571 43.3333 27.8571 42.2222 29 42C26.7143 42 25.381 39.3333 25 38Z" stroke="#4C4C4C" stroke-linecap="round" stroke-linejoin="round"/>
<path d="M32.7252 37.7317C32.8324 37.4989 33.0112 37.3347 33.2481 37.2525C33.999 36.9833 34.3611 36.3581 34.665 35.6781C34.741 35.5047 34.7857 35.3131 34.884 35.1533C35.1299 34.7518 35.5366 34.7518 35.6528 35.1898C35.9031 36.1162 36.6138 36.5269 37.3423 36.9285C38.4061 37.5218 38.4374 37.8914 37.4541 38.5759C36.6942 39.1007 36.0595 39.7578 35.5098 40.5017C34.9779 41.2136 34.6784 41.2227 34.3208 40.4515C33.9141 39.5753 33.2481 38.8999 32.7296 38.1104C32.7296 37.9872 32.7252 37.8595 32.7207 37.7362L32.7252 37.7317Z" fill="#F5E3ED"/>
<path d="M34 35C33.6571 37 31.8571 37.8333 31 38C32.7143 38 33.7143 40 34 41C34.3429 39 36.1429 38.1667 37 38C35.2857 38 34.2857 36 34 35Z" stroke="#4C4C4C" stroke-linecap="round" stroke-linejoin="round"/>
<path d="M32.7256 37.7317C32.7256 37.8549 32.7301 37.9827 32.7345 38.1059C32.4842 37.9872 32.4887 37.8595 32.7256 37.7317Z" fill="#FBD3C6"/>
<path d="M57.3713 59.1159C57.2908 59.5266 57.197 59.9328 56.9288 60.2659C55.3599 62.2054 51.9183 63.2276 49.527 62.4837C46.2105 61.457 43.6136 58.1257 44.2036 54.1053C44.4897 52.1567 45.4104 50.6371 46.8005 49.3547C46.8005 49.3547 44.3243 63.4649 57.3757 59.1159H57.3713Z" stroke="#4C4C4C" stroke-linecap="round" stroke-linejoin="round"/>
</g>
<defs>
<clipPath id="clip0_1659_4516">
<rect width="80" height="80" rx="8" fill="white"/>
</clipPath>
</defs>
</svg>
