<svg width="80" height="80" viewBox="0 0 80 80" fill="none" xmlns="http://www.w3.org/2000/svg">
<g clip-path="url(#clip0_1706_5082)">
<rect width="80" height="80" rx="8" fill="white"/>
<circle cx="40" cy="86" r="66" fill="#F5E3ED"/>
<g clip-path="url(#clip1_1706_5082)">
<path d="M66.7409 31.6552C66.8048 32.285 66.8687 32.9148 66.9327 33.5446C66.6653 34.8042 66.6653 36.0639 66.9327 37.3177C66.799 38.1807 66.6828 39.0438 66.5317 39.9011C66.2644 41.429 65.5089 42.7178 64.4628 43.8258C62.4056 46.0184 60.1682 48.0129 57.7099 49.7449C56.2513 50.7712 54.6938 51.6576 52.9446 52.06C50.2423 52.684 47.5341 51.7626 46.0987 49.7915C45.1747 48.526 44.4483 47.1206 43.9311 45.6277C43.0187 43.0152 42.5421 40.2976 42.1121 37.5743C41.868 36.023 41.438 34.5185 41.2113 32.9673C40.9091 30.9262 41.4787 29.1067 42.3329 27.3223C43.3441 25.2112 44.9016 23.6017 46.8775 22.3887C49.1439 21.0008 51.4801 19.7587 54.1185 19.2338C55.3447 18.9889 56.5883 18.8256 57.8494 18.8897C58.8025 18.9364 59.7265 19.1288 60.5285 19.6712C62.1266 20.75 63.562 22.0213 64.6197 23.6542C65.8285 25.5145 66.2644 27.6313 66.5549 29.789C66.6188 30.2731 66.6712 30.7571 66.7351 31.2411C66.5549 31.3869 66.5607 31.5269 66.7467 31.661L66.7409 31.6552Z" fill="#FFDC7D"/>
<path d="M66.9383 37.3176C66.671 36.058 66.671 34.8042 66.9383 33.5446C66.9964 33.6262 67.101 33.7137 67.0952 33.7953C67.0661 34.9675 67.3625 36.163 66.9383 37.3176Z" fill="#FFDC7D"/>
<path d="M66.7411 31.6551C66.5552 31.521 66.5435 31.381 66.7295 31.2352C66.9213 31.3694 66.9329 31.5093 66.7411 31.6551Z" fill="#FFDC7D"/>
<path d="M65.4275 41.2948C65.8227 40.7 65.9738 40.0877 66.119 39.487C66.3108 38.6997 66.1016 38.0408 65.3868 37.5859C64.6546 37.1135 64.149 36.4779 63.934 35.6148C63.7654 34.9267 63.8933 34.2969 64.1897 33.6845C64.4454 33.1597 64.9045 32.9323 65.4624 32.9089C66.0493 32.8798 66.6363 32.8739 67.2755 33.1189C67.322 32.629 67.0837 32.3199 66.9268 32.005C66.0667 30.2789 65.381 28.4944 64.98 26.6049C64.6952 25.2695 65.3287 24.2315 66.6711 24.1732C68.74 24.0799 71.4365 25.2112 71.884 27.9171C72.1745 29.6782 71.9305 31.4277 70.9193 32.9439C70.4834 33.5912 70.4195 34.0869 70.867 34.7226C71.1459 35.1191 71.3028 35.5973 71.3726 36.0872C71.5469 37.2943 71.977 38.449 71.9886 39.6853C71.9944 40.7058 71.7038 41.6097 71.1459 42.4436C70.2626 43.7499 69.1236 44.7588 67.6416 45.3186C67.107 45.5169 66.892 45.8376 66.7699 46.3508C66.3806 47.9662 65.4856 49.2141 64.242 50.3338C61.5629 52.7481 58.4131 54.3926 55.3214 56.1304C53.1363 57.3609 50.9106 58.5272 48.7138 59.7402C45.349 61.5947 41.775 62.5977 37.9162 62.4636C37.7419 62.4578 37.5559 62.4927 37.3932 62.4461C36.074 62.0729 34.9815 62.5744 34.0168 63.385C31.2215 65.7176 28.124 67.6012 25.102 69.6073C18.6223 73.9111 12.2995 78.4189 6.06965 83.0725C4.90156 83.9473 3.64048 84.7112 2.39102 85.4693C0.833563 86.4082 -0.351965 86.1283 -1.36896 84.6121C-2.17094 83.4166 -2.6591 82.0578 -3.13564 80.7107C-4.4897 76.891 -5.55319 72.9897 -6.37841 69.0242C-6.70966 67.4496 -6.76777 65.8343 -6.68641 64.2247C-6.63992 63.2684 -6.30286 62.3819 -5.86119 61.5422C-5.61711 61.0757 -5.22775 60.7957 -4.72215 60.545C0.821941 57.8391 6.67404 55.833 12.1484 52.9755C16.414 50.7537 20.3716 48.112 23.8177 44.7588C25.6425 42.986 27.2174 40.9741 28.74 38.933C30.774 36.2096 32.3431 33.2122 33.9935 30.2555C35.3418 27.8471 36.8586 25.5378 38.9042 23.6483C40.2931 22.3654 41.8331 21.2865 43.4022 20.2427C44.7969 19.3154 46.2266 18.4523 47.6329 17.5426C48.371 17.0644 49.1497 16.6854 49.9401 16.318C50.9047 15.8748 51.8985 15.6473 52.9736 15.6882C54.5427 15.7465 56.1118 15.6882 57.6809 15.7756C59.7323 15.8981 61.499 16.7845 63.068 18.0616C63.7189 18.5923 63.9863 19.3737 63.9863 20.2135C63.9863 21.0532 63.5911 21.3915 62.7484 21.409C62.2138 21.4206 61.7198 21.2574 61.22 21.0941C59.7962 20.6392 58.3957 20.1027 56.9138 19.8403C55.8677 19.6537 54.8391 19.6187 53.8105 19.8986C50.6839 20.7442 47.5632 21.6189 44.7388 23.2693C43.0477 24.2548 41.8971 25.7185 41.2171 27.5438C40.4151 29.6957 40.3861 31.9234 40.6708 34.1569C40.9265 36.163 41.2055 38.1574 41.2578 40.1926C41.3217 42.5369 41.6123 44.9221 43.2046 46.7999C45.0585 48.9867 47.3133 50.5496 50.3469 50.5846C51.5963 50.5962 52.6482 50.0422 53.6594 49.4299C55.0657 48.5785 56.2513 47.4355 57.5065 46.38C57.8261 46.1117 57.6925 45.9251 57.4833 45.6977C57.059 45.237 56.629 44.7763 56.2338 44.2923C55.6004 43.5108 55.2226 42.6186 55.2168 41.6039C55.211 40.2276 56.0072 39.2887 57.338 39.0146C58.2446 38.828 59.1395 38.9563 60.0171 39.1429C61.9232 39.5512 63.7829 40.111 65.4159 41.3123L65.4275 41.2948Z" fill="#F7BCAA"/>
<path d="M57.2272 19.2921C57.5294 18.3532 57.5527 17.4668 57.0355 16.5571C56.4717 15.5657 56.2451 15.4199 55.1351 15.7231C53.4266 16.1955 51.6773 16.5512 49.9048 16.4346C47.5454 16.283 45.5579 17.0644 43.8435 18.569C41.0424 21.0299 37.9914 23.1818 35.1671 25.6019C33.7433 26.8207 32.7205 28.3778 31.8953 30.0922C29.8322 34.361 27.8156 38.6589 24.8053 42.3853C23.12 44.4672 20.9872 45.9718 18.7208 47.2955C13.4382 50.398 7.83017 52.8706 2.30932 55.5065C-0.89277 57.0343 -4.2169 58.2765 -7.4248 59.7927" stroke="#4C4C4C" stroke-linecap="round" stroke-linejoin="round"/>
<path d="M67.2691 34.2969C67.2691 34.6118 67.1762 34.9617 67.2866 35.2358C67.5597 35.9064 67.1703 36.3438 66.7287 36.5712C66.3044 36.7928 65.7814 36.8511 65.2584 36.4196C64.6482 35.9239 64.3809 35.1891 63.7939 34.6759C63.4917 34.4135 63.6602 33.7545 63.9334 33.358C64.1949 32.9731 64.5668 32.8506 64.9736 33.2355C65.0608 33.3172 65.2468 33.218 65.3921 33.3405C66.6357 34.4135 67.8328 33.9645 69.0591 33.2588C69.5182 32.9964 69.5007 32.559 69.6809 32.1917C70.1981 31.1303 70.4596 30.0281 70.4364 28.8326C70.4306 28.4594 70.3434 28.0045 70.1807 27.8646C68.751 26.64 67.5539 24.9196 65.2874 25.2637C64.7702 25.3453 64.439 25.1646 64.2298 24.6397C63.9683 23.9866 63.637 23.3626 63.2941 22.7503C62.2248 20.8258 60.2489 20.4526 58.3951 19.7761C56.733 19.1696 55.2337 19.747 53.6762 20.0269C51.3517 20.4409 49.0445 20.9308 46.8769 21.9105C43.6457 23.3684 41.327 25.7011 40.6354 29.2583C40.2286 31.3636 40.3274 33.5446 40.9202 35.6498C41.4258 37.4401 41.5536 39.2538 41.5536 41.1082C41.5536 44.4206 42.6462 47.3072 45.3194 49.3774C47.0222 50.7012 48.9806 51.0861 51.1715 50.7012C52.5198 50.4621 53.8738 50.2172 54.7804 49.2492C55.7335 48.2344 56.8144 47.3714 57.8198 46.3858C57.413 45.4761 56.4657 45.342 55.8613 44.7821C54.7397 43.7383 53.9203 42.4553 55.1349 40.6825C55.6521 39.9302 56.4657 39.7261 57.3316 40.1577" stroke="#4C4C4C" stroke-linecap="round" stroke-linejoin="round"/>
<path d="M60.9933 40.9099C61.0514 41.2248 60.97 41.528 61.0804 41.8604C61.3942 42.8052 60.7027 43.54 59.7438 43.3184C58.7036 43.0793 57.8783 42.4611 57.2565 41.6272C57.0764 41.3823 56.902 41.0265 57.1984 40.5717C57.4541 40.1809 57.6633 40.0701 58.0759 40.0643C58.6164 40.0526 59.1569 40.0643 59.6392 40.2917C60.848 40.8457 62.2078 40.7466 63.4282 41.3997C65.7819 42.6594 66.7814 46.7007 63.713 48.3394C62.603 48.9342 61.679 49.7098 60.7957 50.5671C59.0755 52.2291 57.4192 53.9611 55.6874 55.6172C53.6011 57.6117 51.0034 58.4806 48.3476 59.2678C45.2792 60.1776 42.0887 60.2067 38.9447 60.6091C36.6318 60.9065 35.2138 60.2067 34.1154 58.3289C33.9295 58.014 31.0063 53.9027 31.0063 53.9027C30.2973 54.9058 33.3367 60.8774 33.4297 61.3322C32.2325 62.4927 30.71 63.2275 29.2978 64.0731C22.1497 68.3477 15.0133 72.6223 8.4929 77.8416C6.5577 79.3928 4.70967 81.0373 2.83258 82.6585L0.473145 84.3613" stroke="#4C4C4C" stroke-linecap="round" stroke-linejoin="round"/>
<path d="M47.2895 25.9052C45.4008 27.5788 44.5 29.7773 44.2908 32.2033C44.0816 34.6001 45.3485 36.8336 48.0159 37.271C50.0034 37.5917 51.6074 36.8278 53.252 35.9822C54.0656 35.5623 54.6468 34.8392 55.4487 34.4077" stroke="#4C4C4C" stroke-linecap="round" stroke-linejoin="round"/>
<path d="M59.5287 25.1704C58.9592 24.7797 58.4943 25.2346 58.1921 25.5086C57.0588 26.535 55.9314 27.5905 55.0539 28.856C54.8679 29.1243 54.682 29.4858 54.711 29.894C54.7633 30.5822 55.2747 30.9146 55.8617 30.5122C57.6574 29.2817 58.9475 27.6314 59.7321 25.5903C59.7611 25.5086 59.6682 25.3862 59.6333 25.2812" stroke="#4C4C4C" stroke-linecap="round" stroke-linejoin="round"/>
<path d="M50.4281 26.22C50.8058 26.774 51.2765 26.5699 51.6775 26.3192C53.1304 25.4036 54.345 24.2373 55.2399 22.7619C55.4433 22.4295 55.606 22.0212 55.3213 21.7355C55.1237 21.5314 54.746 21.5431 54.3973 21.7005C52.4969 22.5636 50.8697 23.6658 50.4164 25.9051C50.399 25.9926 50.3177 26.1967 50.1143 26.115" stroke="#4C4C4C" stroke-linecap="round" stroke-linejoin="round"/>
<path d="M68.0016 34.1919C69.1 34.9908 70.2042 35.7898 70.5122 37.236C70.855 38.863 70.4715 40.4201 69.9659 41.948C69.8962 42.1637 69.6056 42.3795 69.2685 42.5078C68.0307 42.9801 66.8916 43.7091 65.5957 44.059" stroke="#4C4C4C" stroke-linecap="round" stroke-linejoin="round"/>
<path d="M64.4448 26.7449C64.6308 27.538 64.4739 28.3661 64.7354 29.165C64.8574 29.5324 64.933 29.9698 65.1887 30.1855C66.1592 31.0078 66.473 32.4482 67.7806 32.9497C67.9433 33.0139 68.1641 33.183 68.1002 33.4629" stroke="#4C4C4C" stroke-linecap="round" stroke-linejoin="round"/>
<path d="M66.2233 25.4852C65.4853 27.0131 65.8223 28.0861 67.2694 28.8442C68.0132 29.235 68.2922 29.095 68.5305 28.2669C68.6467 27.8587 68.6002 27.3922 68.9431 27.0598" stroke="#4C4C4C" stroke-linecap="round" stroke-linejoin="round"/>
<path d="M61.8297 20.9716C62.2365 20.2543 61.975 19.6012 61.5043 19.0938C60.4699 17.9917 59.1565 17.5543 57.6455 17.7176" stroke="#4C4C4C" stroke-linecap="round" stroke-linejoin="round"/>
<path d="M63.6082 34.8217C62.8934 35.9005 63.0503 36.8044 64.015 37.6675C64.2823 37.9066 64.5903 38.064 64.8693 38.2798C66.1187 39.2537 66.3105 40.0818 65.4736 41.4172C65.2935 41.703 65.1482 42.1578 64.66 42.1637" stroke="#4C4C4C" stroke-linecap="round" stroke-linejoin="round"/>
<path d="M55.0308 32.6173C55.0308 34.2385 55.0889 34.3085 57.1229 35.0316" stroke="#4C4C4C" stroke-linecap="round" stroke-linejoin="round"/>
<path d="M46.9761 24.4355C47.2492 25.9693 47.8885 26.4008 49.0682 26.43" stroke="#4C4C4C" stroke-linecap="round" stroke-linejoin="round"/>
</g>
</g>
<defs>
<clipPath id="clip0_1706_5082">
<rect width="80" height="80" rx="8" fill="white"/>
</clipPath>
<clipPath id="clip1_1706_5082">
<rect width="80" height="71" fill="white" transform="translate(-8 15)"/>
</clipPath>
</defs>
</svg>
