<svg width="80" height="80" viewBox="0 0 80 80" fill="none" xmlns="http://www.w3.org/2000/svg">
<g clip-path="url(#clip0_1659_4494)">
<rect width="80" height="80" rx="8" fill="white"/>
<circle cx="40" cy="86" r="66" fill="#FFDBC9"/>
<path d="M61.7819 44.8317C61.6939 49.5272 61.8005 54.1382 61.9581 58.7539C62.0693 61.9328 61.9488 65.1117 61.4945 68.2671C61.4018 68.9057 61.3925 69.5583 61.3045 70.1969C61.1747 71.136 60.9012 71.4506 59.9833 71.5351C58.435 71.6854 56.8867 71.9624 55.3292 71.8591C53.0716 71.7089 50.828 71.8967 48.5751 71.9624C46.8784 72.0141 45.1818 71.9953 43.4852 71.9859C39.3687 71.9624 35.2523 71.9249 31.1359 71.8685C28.3545 71.831 25.5731 71.7746 22.801 71.568C22.4116 71.5398 22.0269 71.4882 21.6421 71.4225C20.9282 71.3004 20.6918 71.0609 20.5852 70.3284C20.5296 69.9387 20.5064 69.5442 20.5157 69.1498C20.715 61.2473 20.7938 53.3447 20.8402 45.4374C20.868 41.0189 20.9468 36.6051 20.8309 32.1867C20.7474 29.0829 21.0719 26.012 21.6931 22.9693C22.2308 20.3398 23.4176 18.0484 25.1791 16.0669C26.8757 14.1558 28.7485 12.4655 30.9226 11.0897C32.6842 9.97683 34.5662 9.29128 36.5827 8.97198C38.8913 8.61043 41.2183 8.40383 43.5593 8.41791C49.4466 8.44609 54.1749 10.8502 57.8556 15.4941C59.0655 17.0248 59.9138 18.6729 60.3264 20.584C60.5952 21.8189 61.031 23.0116 61.2488 24.2606C61.6011 26.2656 61.6011 28.2941 61.5594 30.3178C61.5455 31.0222 61.5223 31.7218 61.5733 32.4261C61.8932 36.5864 61.6939 40.7513 61.768 44.8364L61.7819 44.8317Z" fill="#E76943"/>
<path d="M43.8703 66.9054C41.2976 67.065 38.2659 66.9523 35.2342 66.9805C33.1528 66.9993 31.0714 67.1495 28.99 67.2622C27.5159 67.3421 26.0464 67.328 24.5769 67.22C24.2153 67.1918 24.0113 67.0275 23.9186 66.6894C23.8213 66.3372 23.7378 65.9804 23.7703 65.6094C23.9511 63.5903 23.8074 61.5619 23.8352 59.5428C23.8491 58.3924 23.7796 57.2373 23.7935 56.0822C23.8723 48.5975 23.5941 41.1176 23.5617 33.6329C23.5524 31.5763 23.5941 29.5243 23.8955 27.4911C24.4239 23.9413 25.6848 20.6545 27.4927 17.5836C28.1602 16.4473 29.1522 15.6068 30.2972 14.9917C32.2627 13.9399 34.2885 13.0195 36.4163 12.3481C37.4593 12.0194 38.544 11.8973 39.6241 11.8691C41.7889 11.8081 43.9723 11.7424 46.1093 12.1368C49.5536 12.7754 52.5019 14.3531 54.7177 17.1704C55.4362 18.0813 55.9508 19.1143 56.2984 20.2178C57.1189 22.8473 57.8235 25.5049 58.2686 28.2283C58.7182 31.0128 58.7553 33.8254 58.658 36.6427C58.6116 37.9622 58.5884 39.2863 58.5977 40.6057C58.6255 43.7893 58.3335 46.9541 58.1527 50.1283C57.856 55.298 57.9255 60.4772 57.9255 65.6517C57.9255 66.5955 57.6103 66.9476 56.7481 66.8209C55.1395 66.5908 53.5263 66.6659 51.9224 66.7316C49.3914 66.8303 46.8649 66.8068 43.8796 66.9054H43.8703Z" fill="#F3A78F"/>
<path d="M58.0317 50.1845C57.9066 50.7715 57.7814 51.3631 57.6562 51.95C57.4986 52.0487 57.4245 52.1848 57.494 52.3726C57.2298 53.617 56.8265 54.8284 56.2331 55.9365C55.2504 57.7725 53.7299 58.8525 51.6114 59.1201C49.5439 59.3784 47.7036 58.9276 46.0116 57.749C45.1957 57.1809 44.5421 56.4484 44.0275 55.6079C42.6415 53.354 42.1177 50.8889 42.4561 48.2547C42.5998 47.1277 43.3507 46.5455 44.5931 46.63C45.7844 46.7098 46.9665 46.8648 48.1532 46.9963C49.4466 47.1371 50.7399 47.3015 52.0379 47.4189C53.0345 47.5081 54.0127 47.6583 54.9908 47.8649C55.6954 48.0152 56.4139 48.0668 57.0907 48.3392C57.5774 48.5364 57.99 48.8087 57.9529 49.4332C57.9483 49.6868 57.9066 49.9451 58.0271 50.1845H58.0317ZM47.0639 55.7206C47.0778 56.0258 47.0082 56.3779 47.3142 56.6315C47.7777 57.0118 48.3201 57.1386 48.881 57.0024C49.3863 56.8757 49.4929 56.4061 49.5764 55.9506C49.6135 55.7581 49.6691 55.5703 49.7108 55.3778C49.924 54.3119 50.2578 53.3305 51.1896 52.645C51.6114 52.3351 51.7505 51.8327 51.7412 51.2927C51.7227 49.56 50.5684 48.4847 48.8254 48.6115C48.0095 48.6679 47.3884 49.0623 47.0778 49.8371C46.7811 50.5696 46.7116 51.3631 47.2354 51.9923C47.6433 52.4806 47.6294 52.9173 47.4903 53.4667C47.3049 54.1992 47.1009 54.9317 47.0639 55.7206Z" fill="#FFCB63"/>
<path d="M54.6012 44.7377C54.6012 44.287 54.6151 43.8362 54.6012 43.3854C54.5641 42.4041 54.1191 41.6856 53.2476 41.2255C51.1291 40.0939 49.3768 40.9907 48.1948 42.944C47.8888 43.4512 47.6941 44.0005 47.555 44.5828C47.3603 45.4186 47.1332 45.5266 46.3034 45.2589C45.9604 45.1462 45.6127 45.0383 45.2743 44.9115C44.6161 44.6626 44.426 44.3527 44.6485 43.6812C45.0889 42.343 45.6498 41.0658 46.4518 39.9013C47.3325 38.6242 48.5471 37.779 49.9795 37.3517C51.9033 36.7788 53.8363 36.8493 55.5747 37.9997C56.7985 38.8073 57.466 39.9906 57.6051 41.5025C57.7395 42.9769 57.5355 44.4044 57.2574 45.8318C57.2249 45.9961 57.1786 46.1605 57.1322 46.3201C56.7799 47.4893 55.6535 47.7476 54.8191 46.8648C54.629 46.6629 54.578 46.4281 54.5734 46.1699C54.5734 45.6909 54.5734 45.212 54.5734 44.733H54.6012V44.7377Z" fill="#BDBDBD"/>
<path d="M47.0593 55.7205C47.0964 54.927 47.3004 54.1945 47.4858 53.4667C47.6249 52.9173 47.6388 52.4806 47.2308 51.9923C46.7024 51.3584 46.7765 50.5695 47.0732 49.837C47.3838 49.0623 48.005 48.6678 48.8208 48.6115C50.5638 48.4894 51.7181 49.56 51.7366 51.2926C51.7413 51.8326 51.6069 52.335 51.185 52.645C50.2486 53.3258 49.9195 54.3119 49.7062 55.3777C49.6692 55.5703 49.6089 55.7581 49.5718 55.9506C49.4884 56.4061 49.3818 56.8803 48.8765 57.0024C48.3156 57.1386 47.7732 57.0165 47.3096 56.6315C47.0037 56.3779 47.0732 56.0257 47.0593 55.7205Z" fill="#B37210"/>
<path d="M57.5125 38.4599C57.4013 35.4172 57.4105 32.3651 57.1417 29.3412C56.9145 26.8009 56.7337 24.1667 55.6397 21.8377C54.0126 18.363 51.4955 15.7148 47.838 14.2826C45.8539 13.5079 43.8282 12.8693 41.7375 12.6533C39.517 12.4232 37.3105 12.7941 35.1457 13.4374C32.2716 14.292 29.6895 15.6209 27.6545 17.8606C25.8281 19.8703 24.6274 22.265 23.7977 24.8616C23.2321 26.6225 23.056 28.4302 22.9493 30.2709C22.7825 33.1446 22.5924 36.0229 22.6712 38.8872C22.8705 46.1793 22.7639 53.4762 22.7825 60.7683C22.7825 62.1723 22.7454 63.5856 22.7037 64.9896C22.6851 65.5859 22.8752 65.7691 23.4685 65.7597C27.1399 65.708 30.816 65.7784 34.4828 65.6423C38.2376 65.5014 41.9971 65.6235 45.7473 65.4638C48.8949 65.3324 52.0332 65.3793 55.1762 65.3183C55.7046 65.3089 56.298 65.3699 56.7476 65.0929C57.3688 64.7173 56.8635 64.0693 56.9099 63.5481C57.1602 60.5429 56.845 57.5143 57.1834 54.5092C57.2807 53.6593 57.4013 52.8047 57.6145 51.9783C57.7582 51.4101 57.7443 50.8514 57.7628 50.2832C57.7721 49.9686 57.7721 49.6399 57.3456 49.6118C56.9423 49.5836 56.8172 49.8043 56.7476 50.1987C56.5529 51.335 56.3536 52.476 56.0106 53.5795C55.5841 54.9647 55.0278 56.2935 54.1702 57.4627C53.2246 58.7492 51.8941 59.308 50.3366 59.416C49.0711 59.5052 47.8055 59.5381 46.5817 59.1531C44.1944 58.3971 42.7805 56.6363 42.011 54.3355C41.4455 52.6451 41.3157 50.8936 41.6309 49.0999C41.7607 48.3768 41.7792 47.6302 41.9647 46.9024C42.0759 46.4517 42.3772 46.339 42.66 46.339C43.7216 46.339 44.7831 46.4517 45.8261 46.6066C47.0824 46.7944 48.3386 46.9823 49.5856 47.2405C50.9717 47.5269 52.3716 47.7335 53.753 48.0247C54.0961 48.0951 54.4252 48.0716 54.759 48.0857C55 48.0998 55.2225 48.0857 55.1762 48.4285" stroke="#4C4C4C" stroke-linecap="round" stroke-linejoin="round"/>
<path d="M38.8217 14.6348C38.8171 30.9376 38.8542 47.2452 38.7383 63.548" stroke="#4C4C4C" stroke-linecap="round" stroke-linejoin="round"/>
<path d="M33.7317 15.649C33.9125 16.6915 33.7503 17.7339 33.7317 18.7763C33.6436 24.857 33.6946 30.9424 33.6205 37.0231C33.5787 40.4602 33.6622 43.8973 33.5463 47.3298C33.4443 50.4288 33.5741 53.5278 33.4628 56.6222C33.3701 59.1296 33.4397 61.637 33.3979 64.1397" stroke="#4C4C4C" stroke-linecap="round" stroke-linejoin="round"/>
<path d="M28.3079 19.875C28.3079 22.0725 28.3172 24.27 28.3079 26.4628C28.2848 30.8015 28.3126 35.1355 28.2106 39.4741C28.0947 44.2354 28.1828 48.9919 28.1457 53.7532C28.1225 57.2749 28.1689 60.7918 28.0576 64.3134" stroke="#4C4C4C" stroke-linecap="round" stroke-linejoin="round"/>
<path d="M55.176 48.1749C56.0893 47.6959 56.2608 46.724 56.4833 45.8882C57.0118 43.8644 56.8541 41.8359 55.825 39.9906C54.8794 38.2955 53.2708 37.6569 51.4212 37.7132C49.5252 37.7696 47.824 38.3377 46.3081 39.6149C44.9916 40.7184 44.44 42.1552 44.0135 43.7047C43.9578 43.9019 43.8605 44.0945 43.8373 44.2917C43.7863 44.7143 43.8327 45.0899 44.4121 45.0523C45.0287 45.0148 45.6916 45.428 46.2293 45.1791C46.8644 44.8833 46.6187 44.0146 46.9015 43.4371C47.4021 42.4229 47.7451 41.3006 48.7511 40.662C50.6007 39.4835 52.3205 39.9014 53.6648 41.5072C54.3555 42.3336 54.6337 43.2352 54.3834 44.3856C54.235 45.0664 54.0959 45.8318 54.2536 46.5737" stroke="#4C4C4C" stroke-linecap="round" stroke-linejoin="round"/>
<path d="M44.1621 14.8038C44.1621 23.1947 44.1852 31.5856 44.0786 39.9765" stroke="#4C4C4C" stroke-linecap="round" stroke-linejoin="round"/>
<path d="M49.5024 17.0013C49.5024 23.6455 49.5348 30.2944 49.4189 36.9385" stroke="#4C4C4C" stroke-linecap="round" stroke-linejoin="round"/>
<path d="M47.0823 53.0723C46.9803 54.0865 46.7022 55.0585 46.4009 56.0258C46.3499 56.1808 46.2803 56.3357 46.3777 56.4484C46.7949 56.918 47.3975 56.7677 47.9167 56.8663C48.3478 56.9461 48.4266 56.5705 48.4962 56.2465C48.6352 55.6126 48.7928 54.9834 48.9087 54.3448C49.0385 53.6546 49.2239 53.077 49.8034 52.537C50.7027 51.7012 50.508 50.4146 49.6597 49.4521C49.0107 48.7149 47.5551 48.6726 46.577 49.607C45.8121 50.3348 45.789 51.5275 46.577 52.4009C46.7485 52.5934 46.9108 52.7953 47.0777 52.9925" stroke="#4C4C4C" stroke-linecap="round" stroke-linejoin="round"/>
<path d="M55.0092 24.4343C54.9814 28.773 54.9536 33.107 54.9258 37.4456" stroke="#4C4C4C" stroke-linecap="round" stroke-linejoin="round"/>
<path d="M44.0787 59.6648C44.1297 61.1016 43.9768 62.5385 44.1622 63.9753" stroke="#4C4C4C" stroke-linecap="round" stroke-linejoin="round"/>
<path d="M54.9261 59.7494C54.9817 61.1017 54.8195 62.454 55.0095 63.8063" stroke="#4C4C4C" stroke-linecap="round" stroke-linejoin="round"/>
<path d="M49.5854 60.7635V63.9753" stroke="#4C4C4C" stroke-linecap="round" stroke-linejoin="round"/>
<path d="M39.9899 8.46954C38.9098 8.63388 37.8158 8.66675 36.7311 8.86396C33.6484 9.42743 30.8809 10.6811 28.3081 12.442C25.1374 14.6113 22.7732 17.5131 21.1647 20.9878C20.117 23.2511 19.4958 25.6505 19.519 28.2377C19.5932 36.1215 19.5839 44.0053 19.5329 51.8891C19.4958 57.5472 19.468 63.21 19.4634 68.8681C19.4634 69.5442 19.7971 69.8823 20.4647 69.8823C33.3146 69.8823 46.1645 69.8823 59.0145 69.8823C59.3204 69.8823 59.6357 69.9246 59.9277 69.7931C60.0575 69.4973 60.0158 69.1827 60.0158 68.8681C59.9972 67.234 60.0529 65.6 60.0297 63.9659C60.0019 61.853 60.1317 59.74 60.0853 57.6317C60.025 54.9552 60.0853 52.2788 60.1178 49.607C60.1919 42.4276 60.2429 35.2434 60.1641 28.064C60.0946 21.5278 57.6516 16.0998 52.3346 12.1884C49.7479 10.282 46.8506 9.13161 43.6613 8.70432C42.4653 8.54467 41.274 8.46484 40.0733 8.46484" stroke="#4C4C4C" stroke-linecap="round" stroke-linejoin="round"/>
</g>
<defs>
<clipPath id="clip0_1659_4494">
<rect width="80" height="80" rx="8" fill="white"/>
</clipPath>
</defs>
</svg>
