<svg width="32" height="32" viewBox="0 0 32 32" fill="none" xmlns="http://www.w3.org/2000/svg">
<g clip-path="url(#clip0_336_17799)">
<path fill-rule="evenodd" clip-rule="evenodd" d="M15.8347 0.000699994C22.7231 -0.0215089 29.2249 4.08415 31.3362 10.9709C33.4318 17.8066 30.3804 25.0725 24.7875 29.2035C19.4616 33.1374 12.4204 32.8311 7.12265 28.8555C1.68394 24.7741 -1.39713 17.7621 0.623412 11.0699C2.6849 4.24219 9.01501 0.0226874 15.8347 0.000699994Z" fill="white"/>
<path d="M24.7062 18.5475C24.7696 19.9979 24.2275 21.2984 23.5095 22.5384C22.9069 23.5793 22.1514 24.479 21.0643 25.0586C19.5216 25.8833 17.8751 26.3158 16.1392 26.1284C15.1847 26.0246 14.2447 25.6728 13.4373 25.1249C10.6085 23.2045 8.18632 20.9351 7.03866 17.57C6.51674 16.0417 6.43889 14.5163 6.74743 12.9419C7.16266 10.834 8.1892 9.12406 9.95106 7.87836C11.6783 6.65285 13.6045 6.10209 15.6749 6.61248C17.5781 7.0825 19.3514 7.91297 20.7702 9.33168C21.5256 10.0872 21.9986 11.0503 22.5637 11.9471C23.4836 13.4033 24.1699 14.946 24.5303 16.6328C24.663 17.2528 24.7091 17.8843 24.7091 18.5475H24.7062ZM22.6329 16.9241C22.5839 16.356 22.4426 15.7072 22.2292 15.07C22.1543 14.8422 21.8919 14.7874 21.8284 14.5682C21.5372 13.533 20.8884 12.7141 20.2598 11.8692C19.2967 10.5745 17.9443 9.91127 16.4737 9.4845C15.3462 9.15866 14.1985 9.2394 13.0365 9.54506C9.69442 10.4245 7.9787 13.83 8.838 16.8866C8.9793 17.3883 9.39165 17.8987 9.01678 18.4754C9.00813 18.487 9.02255 18.5216 9.03408 18.5389C9.29072 18.8849 9.40606 19.2915 9.57908 19.675C9.85301 20.2777 10.3375 20.7419 10.7729 21.235C11.5831 22.152 12.3819 23.0891 13.6535 23.3977C14.2908 23.5534 14.9223 23.7264 15.5625 23.859C16.5832 24.0695 17.5954 24.0782 18.57 23.6197C18.8814 23.4726 19.2015 23.3371 19.5302 23.2304C20.4357 22.9363 20.9778 22.2904 21.3151 21.434C21.5574 20.8226 21.7506 20.1998 21.8976 19.5596C21.9524 19.3203 21.9611 19.0579 22.2696 18.9628C22.3619 18.9339 22.408 18.8128 22.4253 18.7061C22.5061 18.1496 22.6156 17.5959 22.6329 16.9298V16.9241Z" fill="#9AAD82"/>
<path d="M10.6084 14.9401C10.5997 12.6246 12.4798 10.8109 14.5848 10.658C14.7434 10.6465 14.9049 10.658 14.977 10.4533C15.0202 10.3351 15.1529 10.3783 15.2538 10.3783C17.5433 10.387 19.1293 11.5519 20.2827 13.4291C20.3433 13.5272 20.3577 13.6598 20.5567 13.5993C20.7124 13.5502 20.7902 13.7204 20.8392 13.8472C21.2314 14.8565 21.6236 15.8686 21.6611 16.9673C21.6928 17.8525 21.3871 18.6484 21.0238 19.4442C20.6086 20.3525 19.8329 20.8485 19.0745 21.3877C18.9649 21.4656 18.8265 21.4916 18.789 21.3503C18.7198 21.0936 18.5728 21.1859 18.4199 21.2234C17.0041 21.5492 15.5854 21.529 14.1926 21.1426C13.5438 20.961 12.9844 20.6178 12.4942 20.1017C11.2918 18.8358 10.7987 17.3104 10.6574 15.6264C10.6488 15.5111 10.6199 15.3986 10.6113 15.2861C10.6026 15.1708 10.6113 15.0555 10.6113 14.9401H10.6084ZM17.1685 19.8652C17.8519 19.8393 18.5814 19.7528 19.0399 19.1069C19.8444 17.9736 20.2077 16.7366 19.6858 15.3669C18.9995 13.5618 17.5837 12.6044 15.7988 12.1113C15.0923 11.9181 14.3916 12.0537 13.8264 12.4891C12.6759 13.3801 12.0444 14.6287 12.4423 16.1195C12.6499 16.898 13.1084 17.5324 13.6188 18.1293C14.5358 19.202 15.6748 19.845 17.1656 19.8623L17.1685 19.8652Z" fill="#9AAD82"/>
<path d="M18.2729 16.3762C18.2672 17.5902 17.108 18.2909 16.0238 17.7401C14.8703 17.1547 14.3311 16.1916 14.334 14.9258C14.334 14.0463 15.2798 13.3196 16.1103 13.5935C17.3531 14.003 18.1864 14.9748 18.2758 16.3762H18.2729Z" fill="#9AAD82"/>
<path d="M28.6574 5.57563C28.6286 6.23308 28.5075 6.87611 28.4123 7.52491C28.3979 7.62872 28.3893 7.73253 28.3662 7.83345C28.3114 8.08432 28.4123 8.14199 28.6459 8.09297C29.0035 8.018 29.3524 7.88247 29.7272 7.90266C29.8339 7.90843 29.9666 7.84787 30.0329 7.99205C30.0992 8.14199 30.0329 8.26022 29.9291 8.36403C29.6465 8.6495 29.3668 8.94362 29.0698 9.21756C28.9112 9.36174 28.865 9.43959 29.09 9.55782C29.932 10.0048 30.7307 10.5411 31.6275 10.8814C31.7832 10.9419 31.9677 10.9909 31.9966 11.2014C32.0283 11.4379 31.8322 11.5186 31.6852 11.6138C30.4885 12.3866 29.162 12.8912 27.8731 13.4766C27.4809 13.6554 27.0744 13.615 26.6649 13.4593C25.9094 13.168 25.2202 12.747 24.4936 12.3981C24.2571 12.2857 24.0841 12.2943 23.8621 12.427C22.0108 13.5227 20.1509 14.6098 18.291 15.6911C18.0344 15.8411 17.7518 15.9478 17.4808 16.0718C17.3078 16.1525 17.1203 16.1583 16.9387 16.1237C16.509 16.0429 16.3821 15.72 16.6417 15.3682C16.9963 14.8837 17.4923 14.5666 17.9825 14.2407C19.7472 13.0642 21.5956 12.0348 23.4786 11.0659C23.5881 11.0082 23.7121 10.9621 23.8332 10.939C24.1966 10.867 24.2831 10.619 24.309 10.2931C24.3725 9.44248 24.3638 8.59183 24.3696 7.74118C24.3696 7.43552 24.4676 7.21637 24.7358 7.05201C25.8575 6.37149 26.9705 5.67944 28.0922 5.0018C28.4498 4.78553 28.669 4.92394 28.6603 5.33341C28.6603 5.41415 28.6603 5.49489 28.6603 5.57563H28.6574Z" fill="#EB7D5C"/>
<path d="M20.3211 12.1902C20.1481 11.9941 19.978 12.1354 19.8252 12.2104C19.6089 12.3171 19.3897 12.4324 19.2081 12.5853C19.0005 12.7612 18.8736 12.6833 18.7063 12.5334C17.971 11.8759 17.1608 11.305 16.2178 11.0137C14.0667 10.3505 12.005 10.8465 10.7939 12.7986C10.1422 13.8483 9.98935 15.0392 10.2777 16.2358C10.6958 17.9804 11.5926 19.4625 13.0719 20.5006C14.2772 21.3455 15.6786 21.556 17.1319 21.4262C17.5587 21.3888 17.971 21.2878 18.3805 21.161C19.4705 20.8236 20.0328 19.9672 20.4913 19.0127C21.1516 17.6373 21.019 16.2647 20.4768 14.8921C20.3903 14.6701 20.2865 14.6326 20.0645 14.7508C19.4849 15.0622 19.4647 15.0536 19.6204 15.6937C19.8771 16.7607 19.6983 17.7497 19.1446 18.684C18.5247 19.7307 17.0915 20.2988 15.7738 20.071C13.4265 19.6644 11.6791 17.3316 11.5782 15.3477C11.5205 14.2087 11.9819 13.3552 12.8902 12.7323C14.4963 11.6308 16.1429 11.9019 17.5731 12.8679C17.8355 13.0466 17.847 13.2658 17.5962 13.4128C17.2155 13.6349 16.8811 13.9146 16.5523 14.2029C16.3764 14.3586 16.1861 14.4221 15.9497 14.3385C15.719 14.2577 15.471 14.2693 15.2288 14.2952C14.4502 14.3817 14.1359 14.7537 14.1561 15.5351C14.182 16.4781 14.7991 17.2941 15.693 17.5767C16.5725 17.8535 17.4578 17.0951 17.328 16.1839C17.3222 16.1493 17.3165 16.1147 17.3078 16.083C17.2761 15.9273 17.2617 15.7572 17.4549 15.7168C17.6452 15.6764 17.7115 15.8437 17.7519 15.9907C17.9191 16.5992 17.7692 17.1355 17.3367 17.5825C16.8349 18.1015 16.2178 18.2543 15.5287 18.0496C14.3551 17.7007 13.5851 16.5934 13.6515 15.3708C13.6976 14.4653 14.1734 13.9578 15.0904 13.8569C15.2951 13.8338 15.52 13.8021 15.7074 13.8627C16.091 13.9838 16.3447 13.8223 16.5869 13.5686C16.61 13.5426 16.6359 13.5195 16.6648 13.4993C16.9801 13.2302 16.9387 13.0072 16.5408 12.8304C15.0846 12.1902 13.5592 12.4901 12.5615 13.606C12.0396 14.1914 11.9819 14.8863 12.0742 15.6188C12.3308 17.6171 14.1763 19.6529 16.4975 19.6442C18.0201 19.6384 19.0206 18.5773 19.2542 17.0173C19.3378 16.4636 19.2427 15.9158 19.0841 15.3794C18.9832 15.0305 19.0697 14.8085 19.3897 14.6384C19.5916 14.5288 19.7992 14.4307 20.0068 14.3327C20.4336 14.128 20.572 14.1568 20.771 14.5864C21.5265 16.2185 21.6101 17.8391 20.794 19.5087C19.9607 21.2129 18.542 21.8501 16.7686 21.9309C15.4883 21.9885 14.2541 21.7867 13.1497 21.1091C12.3481 20.6188 11.7051 19.9412 11.163 19.1713C10.295 17.9429 9.67793 16.6222 9.72118 15.0795C9.79039 12.5737 11.4196 10.7513 13.5678 10.3649C15.1855 10.0737 16.6792 10.4514 18.0143 11.4145C18.3228 11.6366 18.6458 11.8355 18.937 12.0835C19.2023 12.3084 19.3465 11.9941 19.5137 11.8903C19.6983 11.7779 19.4993 11.6769 19.4215 11.602C18.2565 10.4745 16.8234 9.86895 15.2634 9.55753C13.7034 9.24322 12.1866 9.51139 10.8083 10.2525C8.85899 11.2992 7.9103 13.5686 8.35726 15.7341C8.65426 17.1701 9.15312 18.5225 9.97205 19.7394C11.3158 21.7406 13.1526 22.9632 15.5604 23.3813C17.403 23.7014 19.0178 23.2573 20.4595 22.1587C21.1429 21.6367 21.5928 20.8957 21.8235 20.045C22.1724 18.7705 22.3483 17.4758 22.2185 16.1551C22.1464 15.4342 21.8667 14.7768 21.5524 14.1337C21.3592 13.7387 21.3909 13.5686 21.7658 13.335C21.9792 13.1995 22.1926 13.061 22.4175 12.9457C22.6251 12.839 22.8615 12.8505 22.9567 13.0755C23.2825 13.8569 23.7381 14.5807 23.8996 15.4371C24.1707 16.8529 24.4389 18.2572 24.237 19.7105C24.139 20.4055 23.8535 21.0283 23.6228 21.6742C23.2595 22.6892 22.5126 23.4159 21.7687 24.1397C21.2237 24.6731 20.5259 24.9528 19.8569 25.2729C19.0754 25.6449 18.2334 25.8554 17.3886 25.9332C16.7426 25.9938 16.0737 25.9851 15.4076 25.8986C14.5108 25.7833 13.6803 25.5122 12.8643 25.1518C11.7627 24.6645 10.7593 24.0186 9.81634 23.2775C8.67157 22.3778 7.80073 21.2388 7.175 19.9383C6.65596 18.8628 6.27822 17.7295 6.09944 16.5386C6.09367 16.5069 6.11097 16.4723 6.11385 16.4377C6.12538 16.2906 6.04464 16.0917 6.2984 16.0744C6.52043 16.0599 6.50025 16.2445 6.53485 16.3858C6.66461 16.9221 6.77707 17.4614 6.93855 17.989C7.20672 18.8714 7.56428 19.7163 8.02277 20.5208C8.74654 21.7867 9.82499 22.6864 10.9957 23.5024C12.2529 24.379 13.5967 25.0768 15.1221 25.3623C16.659 25.6478 18.1815 25.5295 19.6002 24.9096C22.677 23.563 24.1707 20.7601 23.7641 17.4758C23.6401 16.4838 23.5161 15.4832 23.1384 14.5461C22.9971 14.1943 22.801 13.8656 22.6453 13.5195C22.579 13.3754 22.5011 13.4013 22.4002 13.4561C22.2906 13.5195 22.1839 13.5916 22.0743 13.6493C21.9129 13.7329 21.9129 13.8396 21.9936 13.9896C22.7981 15.4313 22.8212 16.9769 22.6078 18.5571C22.5242 19.1771 22.4002 19.7913 22.1954 20.3737C21.8062 21.4897 21.1256 22.3865 20.0616 22.9834C19.0697 23.5399 18.0316 23.9667 16.8926 23.9349C14.4416 23.8686 12.2702 23.1074 10.5632 21.2388C9.78462 20.3853 9.13293 19.4539 8.7004 18.3956C8.10062 16.9308 7.60177 15.4169 7.88724 13.8021C8.27652 11.6049 9.50203 10.0795 11.6618 9.37298C14.4819 8.45313 16.9964 9.15671 19.309 10.8494C19.6233 11.0772 19.8626 11.403 20.1625 11.6539C20.3615 11.8211 20.2 12.0403 20.3067 12.2104L20.3211 12.1989V12.1902Z" fill="#4C4C4C"/>
<path d="M20.321 12.1901L20.3066 12.2017C20.5979 11.9969 20.8891 11.7893 21.1861 11.5932C21.3678 11.4721 21.362 11.3597 21.2236 11.2097C19.9721 9.84581 18.5851 8.6722 16.7973 8.06089C16.0447 7.80137 15.2748 7.63124 14.4876 7.50436C13.2188 7.30251 12.0337 7.62835 10.8687 8.03782C8.05728 9.02688 6.73373 11.1751 6.30408 14.001C6.23199 14.4653 6.24641 14.9439 6.08781 15.3938C6.00995 15.6158 5.8975 15.8148 5.66105 15.907C5.56012 15.9445 5.46208 15.9589 5.37557 15.8696C5.27465 15.7686 5.38134 15.6735 5.41883 15.6331C5.87443 15.1631 5.75909 14.5547 5.81387 13.9981C5.88596 13.2657 6.02437 12.5535 6.30408 11.8701C6.71066 10.8839 7.23547 9.96692 7.97942 9.19989C8.74645 8.4098 9.67784 7.87057 10.7332 7.54185C12.0683 7.12662 13.3976 6.78924 14.8279 7.04876C15.9553 7.25349 17.0396 7.57933 18.0603 8.06666C18.9456 8.48765 19.7386 9.07878 20.4566 9.76507C20.8833 10.1745 21.3418 10.5552 21.6994 11.031C21.9329 11.3395 21.8522 11.6163 21.5494 11.8643C20.4739 12.7438 19.2455 13.3897 18.0632 14.0991C17.6912 14.3211 17.3452 14.5893 16.9877 14.8344C16.9329 14.8718 16.8723 14.918 16.9242 15.0304C17.4058 14.8949 17.847 14.6556 18.2853 14.4249C20.0673 13.4877 21.7801 12.4295 23.5247 11.426C23.8332 11.2501 24.1562 11.2213 24.5051 11.4058C25.2692 11.8124 26.0564 12.1757 26.8235 12.5765C27.0224 12.6803 27.1724 12.6515 27.3627 12.5708C28.2104 12.2017 28.9861 11.7028 29.8022 11.2761C30.2289 11.054 30.6442 10.8089 31.0767 10.5696C30.1828 10.1111 29.3062 9.66126 28.4296 9.21431C28.0893 9.0413 28.0692 8.8481 28.369 8.59435C28.5594 8.43287 28.741 8.26274 28.9688 8.05512C28.7035 8.03782 28.5392 8.13586 28.369 8.2166C28.072 8.35789 27.8212 8.25409 27.8414 7.92248C27.8875 7.23907 27.651 6.56432 27.8269 5.87804C27.9106 5.54931 27.8904 5.19752 27.8558 4.80535C27.4723 5.03604 27.1147 5.24654 26.7629 5.4628C26.0507 5.9011 25.3586 6.37112 24.6291 6.77771C24.1331 7.05453 24.0812 7.50148 24.012 7.9715C23.9168 8.60876 23.8822 9.24891 23.8793 9.89195C23.8793 10.4052 23.7179 10.8003 23.219 11.0136C23.0114 11.103 22.798 11.1895 22.6077 11.3107C22.4376 11.4202 22.3482 11.3395 22.2674 11.2184C22.1665 11.0684 22.3309 11.0108 22.403 10.9531C22.5529 10.8378 22.7173 10.7166 22.8961 10.6647C23.3574 10.5321 23.4151 10.1601 23.4151 9.78814C23.4151 9.0759 23.493 8.36655 23.542 7.65719C23.5766 7.1468 23.7611 6.74022 24.2081 6.43168C25.2663 5.69926 26.388 5.06776 27.4896 4.41031C27.5847 4.35263 27.7001 4.3238 27.8068 4.29496C28.0461 4.23153 28.2018 4.26036 28.2595 4.56313C28.3662 5.12543 28.2797 5.68484 28.2797 6.24713C28.2797 6.66813 28.2797 7.08913 28.297 7.51013C28.3027 7.65431 28.3777 7.73216 28.5536 7.65719C28.8073 7.54762 29.0842 7.51878 29.3552 7.48994C29.5138 7.47264 29.6609 7.50725 29.7243 7.67449C29.7849 7.82732 29.6868 7.93401 29.5946 8.03205C29.3725 8.26562 29.1534 8.50207 28.9227 8.72987C28.7612 8.88847 28.9285 8.91154 29.0121 8.95767C29.4475 9.18836 29.8858 9.41039 30.3212 9.63819C30.7278 9.84869 31.1373 10.0592 31.5467 10.2668C31.6967 10.3418 31.7601 10.4542 31.7659 10.6244C31.7745 10.8031 31.6592 10.8522 31.5352 10.9185C30.3991 11.5183 29.2716 12.1354 28.1239 12.7121C27.775 12.888 27.4463 13.1561 26.9907 13.0985C26.5899 13.0466 26.2756 12.8303 25.9324 12.6688C25.3471 12.3949 24.7733 12.0921 24.1965 11.7951C24.0437 11.7172 23.9514 11.7172 23.7842 11.8326C22.9912 12.3747 22.1175 12.7813 21.2986 13.2801C19.7876 14.2029 18.2132 15.0131 16.6041 15.7542C16.4369 15.8321 16.261 15.8984 16.0822 15.9301C15.791 15.982 15.6497 15.7917 15.7477 15.512C15.8227 15.2986 15.9755 15.14 16.1284 14.9843C16.6878 14.4105 17.3596 13.9866 18.0401 13.5742C18.7985 13.1158 19.5569 12.6544 20.3124 12.193L20.321 12.1901Z" fill="#4C4C4C"/>
</g>
<defs>
<clipPath id="clip0_336_17799">
<rect width="32" height="32" fill="white" transform="translate(0 0.000610352)"/>
</clipPath>
</defs>
</svg>
