<svg width="48" height="48" viewBox="0 0 48 48" fill="none" xmlns="http://www.w3.org/2000/svg">
<path d="M23.9641 47.9903C23.621 47.9903 23.2778 47.9795 22.9346 47.9903C19.7211 48.1054 16.747 47.1848 13.8873 45.8292C11.2921 44.5959 8.90427 43.0353 6.91679 40.9389C5.50124 39.4503 4.26443 37.8178 3.26711 35.9875C2.02314 33.7042 1.19383 31.2914 0.553978 28.7851C0.425292 28.2745 0.350226 27.7783 0.343077 27.2605C0.335928 26.6312 0.321626 26.0127 0.139321 25.3871C-8.88369e-05 24.9052 -0.0251063 24.3587 0.0213636 23.8552C0.332355 20.3673 0.925738 16.9585 2.41993 13.7366C3.90339 10.5436 6.10178 7.93661 8.68623 5.65328C10.7559 3.82661 13.1652 2.52493 15.764 1.56844C17.6978 0.856472 19.6889 0.33508 21.7121 0.119332C23.4494 -0.0676502 25.2152 -0.0424795 26.9883 0.248781C28.8006 0.550829 30.545 0.996708 32.2644 1.59721C34.0517 2.21928 35.7282 3.07508 37.2939 4.13585C39.8247 5.85464 41.9873 7.97976 43.7103 10.4968C45.4333 13.0139 46.6701 15.7899 47.2742 18.8139C47.4529 19.7093 47.6388 20.5939 47.6853 21.5216C47.7353 22.5392 48.0821 23.5424 47.982 24.5852C47.6638 27.843 47.0633 31.0217 45.6835 34.0314C44.6719 36.2392 43.3493 38.2277 41.8622 40.1155C40.8685 41.3812 39.5995 42.3772 38.3126 43.3301C35.1384 45.6818 31.5781 47.1812 27.7211 47.886C26.5057 48.109 25.2152 47.922 23.9605 47.922C23.9605 47.9436 23.9605 47.9615 23.9605 47.9831L23.9641 47.9903Z" fill="white"/>
<path d="M38.0971 20.0686C38.0841 21.1152 38.0711 21.9532 37.8893 22.7912C37.6945 23.6788 37.7789 24.5598 38.2626 25.3945C38.5743 25.9343 38.7561 26.557 38.9606 27.1532C39.0808 27.501 38.9217 27.7659 38.5418 27.862C38.0419 27.9878 37.5289 28.0706 37.0193 28.1601C36.6135 28.2329 36.3732 28.4615 36.2986 28.8755C36.1752 29.5478 36.081 30.2334 35.9122 30.8959C35.4123 32.8235 34.3767 33.529 32.3736 33.3534C31.7795 33.3004 31.4971 33.4826 31.3802 34.0821C31.299 34.4928 31.2893 34.9201 31.2698 35.3407C31.2471 35.8176 31.2731 36.2946 31.2341 36.7682C31.1854 37.3445 30.9289 37.636 30.3446 37.6757C29.0038 37.7619 27.6825 38.0566 26.3223 37.9904C25.4847 37.9506 24.6731 37.7817 23.8712 37.6029C22.9979 37.4075 22.9005 37.0696 22.907 36.3973C22.9135 35.6554 22.8843 34.9134 22.907 34.1748C22.92 33.8105 22.92 33.3932 23.0921 33.0951C23.6667 32.0982 23.7219 30.9952 23.868 29.9022C24.04 28.6503 24.2608 27.3983 24.3646 26.1397C24.5075 24.4041 24.6146 22.6587 24.2543 20.9297C24.1829 20.5886 24.0887 20.3468 23.6504 20.4396C23.2998 20.5124 23.0953 20.2044 22.8843 19.9825C21.7935 18.8199 20.5241 18.8166 19.1703 19.3863C18.2808 19.7606 17.8004 20.5356 17.8945 21.5193C17.9529 22.1519 18.1217 22.768 18.5016 23.2913C19.1833 24.2253 19.8748 25.1461 20.7286 25.9277C21.3844 26.5272 22.0012 27.1731 22.644 27.7891C23.0596 28.1899 23.2576 28.6238 22.9882 29.2034C22.5272 30.1904 22.5304 31.2469 22.5467 32.3101C22.5629 33.4727 22.5466 34.6385 22.5337 35.8044C22.5337 36.1224 22.5304 36.4436 22.4752 36.7517C22.3616 37.3843 22.0597 37.6625 21.4169 37.6824C20.4852 37.7055 19.5469 37.7221 18.6185 37.6757C17.7679 37.6327 17.4303 37.2485 17.3653 36.3774C17.3426 36.0627 17.3523 35.7415 17.3523 35.4235C17.3523 33.4826 17.3426 33.5389 15.424 33.5257C14.9565 33.5224 14.489 33.5323 14.0247 33.5157C13.7163 33.5058 13.4014 33.4926 13.1028 33.4197C12.4048 33.2408 11.8724 32.8368 11.7003 32.0882C11.4763 31.1145 11.2685 30.1341 11.0932 29.1504C11.0153 28.7099 10.8075 28.4946 10.379 28.4946C9.91151 28.4946 9.44402 28.5145 8.97978 28.4847C8.13895 28.4283 7.78834 27.8686 8.12922 27.0604C8.49606 26.1861 8.88563 25.315 9.35312 24.4936C9.97319 23.4006 10.2426 22.2612 10.1485 21.0059C10.1063 20.4263 10.1647 19.8401 10.142 19.2604C10.0186 16.0543 12.3528 12.8085 15.3428 11.6923C16.0603 11.424 16.7388 11.0928 17.5536 11.0199C19.2742 10.8643 20.667 11.6492 22.1051 12.358C22.5694 12.5866 23.0206 12.8548 23.4589 13.1364C23.8712 13.4013 24.2413 13.3483 24.6114 13.0768C26.5625 11.6559 28.7863 11.3313 31.1075 11.381C32.6496 11.4141 34.0812 11.8612 35.3603 12.7157C36.7368 13.6365 37.4705 15.0541 37.7497 16.6571C37.9542 17.8429 38.2399 19.0452 38.1003 20.0752L38.0971 20.0686Z" fill="#F0AF75"/>
<path d="M27.3043 20.7304C25.786 20.819 24.3295 20.3415 22.8514 19.9779C21.6664 19.6839 20.5061 19.2318 19.2378 19.3709C18.9231 19.4057 18.5682 19.2255 18.2565 19.0864C16.1551 18.1473 14.5874 16.5855 13.3469 14.6442C13.2945 14.5588 13.2451 14.4703 13.2019 14.3786C12.8717 13.6767 12.9303 13.2878 13.4981 12.7693C14.68 11.6912 16.0779 11.1474 17.6548 11.0241C19.5989 10.8723 21.3609 11.4509 23.0211 12.3994C25.1966 13.6451 26.792 15.4473 27.7672 17.8154C27.9029 18.1442 28.1004 18.4761 28.014 18.8271C27.8258 19.5922 28.014 20.3321 28.0788 21.0814C28.1467 21.8971 28.0696 22.7001 27.8875 23.4874C27.4185 25.5109 27.6344 27.4996 28.122 29.4788C28.3627 30.4557 28.6466 31.4232 28.9151 32.3939C29.1033 33.0768 28.9984 33.3613 28.3998 33.5795C26.7581 34.1834 25.1133 34.1106 23.4809 33.5289C23.1013 33.3929 22.947 33.0894 22.981 32.7005C23.0273 32.1978 23.089 31.6983 23.1692 31.2019C23.2988 30.4052 23.4593 29.6147 23.592 28.818C23.7216 28.0497 23.7123 28.0402 24.6041 27.8347C25.2645 27.6798 25.6935 27.1866 26.1841 26.7629C26.6964 26.3203 27.0049 25.8365 27.0451 25.1093C27.0944 24.2589 27.3197 23.4178 27.4308 22.5674C27.5079 21.9761 27.6499 21.3659 27.3012 20.7336L27.3043 20.7304Z" fill="#728759"/>
<path d="M29.9906 21.4081C29.9316 22.2296 29.6956 23.0039 29.3172 23.72C28.3384 25.5775 26.9778 27.0897 25.4331 28.4384C25.2631 28.5874 25.0722 28.711 24.8778 28.8164C24.3918 29.0745 23.899 29.0891 23.4928 28.6747C21.8649 27.0207 20.1086 25.4903 18.8486 23.4764C18.5779 23.0439 18.3106 22.5786 18.1683 22.0915C17.4879 19.7541 18.9215 17.5985 21.5491 18.0638C22.219 18.1837 22.8403 18.4418 23.3228 18.9471C24.0933 19.7577 24.2044 19.5651 24.9958 18.9907C25.1763 18.8599 25.3533 18.7181 25.5442 18.5981C26.5196 17.9947 27.5227 17.8493 28.5293 18.4927C29.5602 19.1507 30.0774 20.1212 29.9906 21.4117V21.4081Z" fill="#EB7D5C"/>
<path d="M39.9346 26.3191C39.7696 25.7561 39.4428 25.2782 39.0479 24.8625C37.9735 23.7299 37.5464 22.4239 37.747 20.8494C37.925 19.4386 37.7664 18.0344 37.3393 16.6629C36.2616 13.2096 33.3653 11.0132 29.7958 11.0001C27.8897 10.9903 26.1163 11.4846 24.5079 12.5353C24.0808 12.8135 23.7216 12.9117 23.2491 12.568C21.4724 11.2751 19.4078 11.1213 17.3237 11.1769C16.6635 11.1933 15.971 11.1769 15.3335 11.4322C12.5892 12.5419 10.6152 14.3749 9.81584 17.3568C9.4987 18.545 9.49546 19.7398 9.5796 20.9378C9.66373 22.126 9.4275 23.2193 8.87088 24.2602C8.62493 24.7184 8.38869 25.1865 8.20423 25.6742C7.75441 26.8788 8.02624 27.4058 9.23333 27.7495C9.38219 27.792 9.53429 27.828 9.68315 27.8673C9.95499 27.9393 10.1394 28.1063 10.1977 28.3878C10.2818 28.7969 10.3498 29.2094 10.4437 29.6152C10.5828 30.2274 10.6896 30.8493 10.8935 31.4385C11.1912 32.3124 11.7834 32.8263 12.764 32.7609C13.2267 32.7281 13.6927 32.7216 14.1587 32.7216C14.6247 32.7216 15.094 32.6987 15.5503 32.7674C16.314 32.8852 16.6053 33.2257 16.6991 34.008C16.7509 34.4237 16.7347 34.8492 16.8091 35.2584C16.9095 35.805 16.6182 36.4204 17.0875 36.8983C17.6894 36.4204 17.3269 35.7657 17.3528 35.1995C17.3787 34.6299 17.2946 34.0505 17.2072 33.4843C17.1198 32.9245 16.7638 32.5514 16.2364 32.3582C15.6959 32.1619 15.1425 32.044 14.5665 32.0767C14.1005 32.1029 13.6377 32.1455 13.1717 32.1488C11.9614 32.1619 11.6475 31.936 11.2915 30.7347C11.1588 30.2863 11.065 29.8182 11.0262 29.3501C10.9194 28.1063 10.5957 27.0916 9.09093 27.0261C8.7026 27.0097 8.6314 26.6497 8.67671 26.3191C8.76408 25.6284 9.13948 25.049 9.44691 24.4467C10.0294 23.3044 10.3304 22.1162 10.1945 20.8167C10.133 20.2471 10.133 19.6645 10.1621 19.0917C10.243 17.478 10.7899 16.0312 11.764 14.7513C12.1006 14.3094 12.4015 14.3258 12.7251 14.7971C12.9031 15.0525 13.0552 15.3274 13.23 15.586C14.1846 16.9935 15.4079 18.0999 16.9159 18.8691C17.4208 19.1277 17.958 19.3175 18.534 19.563C18.4402 19.766 18.369 19.9493 18.2784 20.1228C17.6214 21.3928 17.7412 22.6432 18.3787 23.8772C18.6926 24.486 19.1198 25.0098 19.6084 25.4844C20.4272 26.2863 21.2265 27.1046 22.0679 27.8771C22.6083 28.3714 22.8057 28.8526 22.6698 29.6447C22.2912 31.8116 22.2426 34.0145 22.3688 36.2174C22.385 36.4728 22.3656 36.7444 22.5792 36.9408C22.6148 36.9736 22.6698 37.003 22.7119 36.9998C22.7572 36.9965 22.8316 36.9572 22.8381 36.9212C22.8834 36.6692 22.9416 36.4171 22.9449 36.1618C22.9611 34.9049 22.9222 33.6479 22.9805 32.3943C23.0387 31.1471 23.097 29.8869 23.5727 28.6234C24.0743 28.9148 24.55 28.8657 25.029 28.6398C25.3558 28.4827 25.6924 28.3485 26.0289 28.2143C26.4917 28.031 26.6859 28.1259 26.7732 28.6431C26.9448 29.6742 27.0871 30.7085 27.4367 31.7036C27.9933 33.2879 28.0936 33.5137 26.139 33.1831C23.9448 32.8132 24.1778 33.098 24.3785 35.0849C24.4109 35.3958 24.4659 35.7101 24.5662 36.0047C24.6471 36.2436 24.7895 36.4662 24.9351 36.6757C24.9772 36.7379 25.1325 36.7673 25.2134 36.7412C25.2814 36.7182 25.3688 36.584 25.3558 36.5153C25.249 35.9523 25.0969 35.3991 25.0063 34.8328C24.8769 34.0276 24.9578 33.5988 25.948 33.8345C26.605 33.9916 27.2813 33.9982 27.9512 33.8476C28.5467 33.7134 28.7473 33.4122 28.5046 32.8165C27.8444 31.2061 27.5273 29.517 27.291 27.8019C27.2716 27.648 27.2328 27.4909 27.1616 27.3567C27.0548 27.157 26.8444 27.1112 26.6341 27.085C26.4076 27.3534 26.1163 27.5138 25.7733 27.6709C25.5403 27.8804 25.2879 28.0703 24.9934 28.1717C24.796 28.2372 24.7118 27.923 24.906 27.8575C25.1584 27.7724 25.3752 27.5891 25.5694 27.4156C25.7668 27.2389 25.9513 27.0555 26.1454 26.8755C26.4173 26.6267 26.6859 26.378 26.9512 26.1259C27.4269 25.3338 27.9318 24.558 28.3687 23.7463C28.7149 23.0982 28.9091 22.3944 28.8638 21.635C28.7441 19.5532 26.4399 18.3159 24.7798 19.3765C24.44 19.5925 24.194 19.9755 23.7572 20.0213C23.7021 19.9951 23.6471 19.9886 23.6115 19.9558C22.3753 18.7447 20.9644 18.3748 19.3528 19.0982C18.8673 19.3175 18.5761 18.9738 18.2363 18.7742C18.1845 18.7447 18.1295 18.6989 18.0939 18.64C17.9968 18.6138 17.8997 18.581 17.8124 18.545C17.5891 18.4534 17.3787 18.3355 17.1619 18.2275C17.0163 18.2275 16.8577 18.1424 16.725 18.0671C16.6603 18.0311 16.5956 17.9951 16.5341 17.9591C16.0842 17.7725 15.6894 17.4681 15.327 17.1408C14.9322 16.7807 14.573 16.388 14.2105 15.9952C14.0681 15.8413 14.2979 15.6089 14.4403 15.7628C14.6539 15.9952 14.8739 16.2243 15.094 16.4501C15.094 16.4501 15.094 16.4501 15.0972 16.4501C15.2202 16.5451 15.3432 16.64 15.4661 16.7316C16.0066 17.0164 16.5503 17.2979 17.081 17.5958C17.1845 17.6547 17.3464 17.7005 17.4305 17.7856C17.6182 17.8118 17.8059 17.8904 17.9709 17.9624C18.1133 18.0246 18.2557 18.0999 18.3884 18.1915C18.5987 18.1555 18.877 18.2177 18.8576 17.8642C18.8447 17.6154 18.5761 17.5925 18.3949 17.5107C18.0162 17.3405 17.6311 17.1866 17.259 17.0066C15.7542 16.2767 14.3982 15.334 13.2397 14.113C12.9452 13.8053 12.9581 13.5991 13.2817 13.3373C14.4435 12.4044 15.7348 11.8054 17.2396 11.7203C18.547 11.6483 19.8123 11.9036 21.0712 12.1851C21.686 12.3225 22.2265 12.6335 22.7442 12.9805C23.1649 13.2652 23.207 13.4715 22.9319 13.8675C22.5468 14.424 22.1294 14.9608 21.7702 15.5336C21.4077 16.1097 21.1197 16.7251 21.1197 17.4321C21.1197 17.5041 21.2265 17.6154 21.3009 17.6383C21.3786 17.6613 21.5339 17.622 21.563 17.5631C21.6537 17.3798 21.6957 17.1735 21.7669 16.9771C22.1197 15.9755 22.7248 15.1277 23.4044 14.3356C23.7216 13.9657 23.9966 13.9625 24.3138 14.2996C24.8898 14.9084 25.3461 15.6056 25.7183 16.3552C25.9966 16.9149 26.2587 17.4845 26.5338 18.0442C26.6017 18.1817 26.7021 18.3323 26.8768 18.2766C27.1422 18.1883 27.0904 17.9722 27.0224 17.7693C26.6179 16.5713 26.0516 15.4485 25.2684 14.4698C24.3008 13.2587 24.3267 13.3634 25.6665 12.6139C26.5338 12.1294 27.5014 11.8872 28.469 11.7464C32.43 11.1704 35.8442 13.4191 36.8344 17.2848C37.1386 18.4698 37.2195 19.6678 37.0868 20.8658C36.8991 22.5483 37.3749 23.9558 38.5205 25.1669C38.8408 25.504 39.1386 25.8674 39.2874 26.3322C39.3683 26.5907 39.213 26.9115 38.9638 26.9213C38.501 26.9344 38.035 26.9148 37.5723 26.9148C36.8409 26.9148 36.692 27.0621 36.6564 27.8411C36.6241 28.5187 36.6435 29.2061 36.5658 29.8771C36.3975 31.3206 35.7536 31.9196 34.3426 31.9753C33.6209 32.0047 32.8928 31.9622 32.1711 32.0015C31.1906 32.0571 30.799 32.4106 30.579 33.3926C30.3395 34.4728 30.3136 35.5693 30.3751 36.6724C30.3815 36.7673 30.443 36.8655 30.4981 36.9507C30.5175 36.9801 30.5854 36.9834 30.6307 36.9834C30.676 36.9834 30.7343 36.9736 30.7667 36.9474C30.9932 36.7444 30.922 36.4662 30.9349 36.2142C30.9899 35.2747 30.9511 34.3288 31.2229 33.4122C31.3556 32.9605 31.6275 32.6921 32.0999 32.6659C32.5142 32.643 32.9252 32.6365 33.3394 32.6234C33.8572 32.607 34.375 32.6136 34.8863 32.571C35.8571 32.4925 36.4914 31.9327 36.8959 31.0653C37.0965 30.6332 37.2163 30.1848 37.2325 29.7069C37.2487 29.1832 37.2745 28.6627 37.3004 28.139C37.3198 27.756 37.5464 27.5924 37.9056 27.5825C38.3198 27.5727 38.734 27.5924 39.145 27.5498C39.8311 27.4811 40.1385 26.9966 39.9411 26.3289L39.9346 26.3191ZM20.0841 19.5139C21.0194 19.2292 21.919 19.3372 22.6763 20.0442C22.9028 20.257 23.1132 20.4861 23.3429 20.6956C23.7475 21.0655 23.8737 21.0622 24.2458 20.7152C24.5112 20.4697 24.7442 20.1784 25.0387 19.982C26.249 19.1866 27.8671 19.8936 28.1486 21.3306C28.2716 21.9623 28.168 22.5679 27.9156 23.1604C27.4205 24.3191 26.7506 25.3633 25.8671 26.2569C25.1422 26.9901 24.385 27.6938 23.5565 28.4925C22.3333 27.2978 21.22 26.2176 20.1165 25.1341C19.6731 24.6988 19.2751 24.2209 18.958 23.6808C18.547 22.9803 18.424 22.2275 18.5017 21.4288C18.602 20.4304 19.1651 19.7987 20.0777 19.5205L20.0841 19.5139Z" fill="#4C4C4C"/>
</svg>
