<svg width="32" height="32" viewBox="0 0 32 32" fill="none" xmlns="http://www.w3.org/2000/svg">
<g clip-path="url(#clip0_336_17719)">
<path d="M15.9761 31.9941C15.7473 31.9941 15.5185 31.987 15.2898 31.9941C13.1474 32.0709 11.1647 31.4572 9.25819 30.5534C7.52808 29.7312 5.93618 28.6908 4.61119 27.2932C3.66749 26.3008 2.84295 25.2125 2.17807 23.9923C1.34876 22.4701 0.795889 20.8615 0.369318 19.1907C0.283528 18.8503 0.233484 18.5195 0.228718 18.1743C0.223952 17.7548 0.214418 17.3424 0.0928808 16.9253C-5.92246e-05 16.6041 -0.0167376 16.2397 0.0142424 15.9041C0.22157 13.5788 0.617159 11.3063 1.61328 9.15838C2.60226 7.02966 4.06785 5.29169 5.79082 3.76946C7.17062 2.55168 8.77681 1.68389 10.5093 1.04624C11.7985 0.571592 13.1259 0.223997 14.4747 0.0801649C15.6329 -0.0444898 16.8102 -0.0277093 17.9922 0.166464C19.2004 0.367829 20.3633 0.665083 21.5096 1.06542C22.7011 1.48013 23.8188 2.05067 24.8626 2.75784C26.5498 3.90371 27.9916 5.32045 29.1402 6.9985C30.2888 8.67654 31.1134 10.5272 31.5161 12.5432C31.6353 13.1401 31.7592 13.7298 31.7902 14.3483C31.8235 15.0267 32.0547 15.6956 31.988 16.3907C31.7759 18.5626 31.3755 20.6817 30.4557 22.6882C29.7812 24.1601 28.8995 25.4857 27.9081 26.7443C27.2457 27.5881 26.3997 28.2521 25.5418 28.8874C23.4256 30.4551 21.052 31.4548 18.4807 31.9246C17.6705 32.0733 16.8102 31.9486 15.9737 31.9486C15.9737 31.963 15.9737 31.975 15.9737 31.9894L15.9761 31.9941Z" fill="white"/>
<g clip-path="url(#clip1_336_17719)">
<path d="M23.818 9.41327C23.8492 9.52144 23.793 9.60296 23.7415 9.67821C23.2159 10.4385 22.5982 11.1158 21.8901 11.7099C21.8418 11.7491 21.7887 11.7821 21.7357 11.8165C21.6 11.9043 21.4768 11.9137 21.327 11.8165C20.7031 11.4074 20.1338 10.9308 19.6035 10.4072C19.2338 10.0435 18.8564 9.68762 18.4664 9.34429C18.3791 9.26747 18.3183 9.24082 18.2418 9.34429C18.22 9.37408 18.1904 9.39916 18.1607 9.42268C18.1015 9.46971 18.0391 9.49009 17.9767 9.42895C17.9049 9.35997 17.9533 9.3051 17.9985 9.2518C18.1592 9.06367 18.3292 8.88652 18.507 8.71564C18.9749 8.26572 19.4148 7.78443 19.8702 7.32196C20.0106 7.1793 20.1635 7.04918 20.3194 6.92533C20.6407 6.67137 20.9153 6.78581 21.0135 7.19341C21.0775 7.45992 21.1492 7.72329 21.2584 7.97726C21.3754 8.25004 21.5844 8.42092 21.8355 8.53849C22.3206 8.76581 22.8369 8.9069 23.3547 9.04486C23.4733 9.07621 23.5902 9.11854 23.7041 9.16557C23.8164 9.21104 23.8289 9.31137 23.8149 9.41327H23.818Z" fill="#E8BC43"/>
<mask id="mask0_336_17719" style="mask-type:alpha" maskUnits="userSpaceOnUse" x="-2" y="2" width="28" height="28">
<path d="M12.2123 29.2364C9.94258 29.3363 7.93425 28.7635 6.02726 27.8379C4.86604 27.2733 3.76561 26.5801 2.89621 25.5792C2.64086 25.2856 2.35512 25.0186 2.07546 24.7475C0.839251 23.5447 0.0711807 22.0504 -0.561108 20.4726C-0.887385 19.6571 -1.12855 18.8132 -1.26433 17.9488C-1.38997 17.1517 -1.54197 16.3322 -1.49333 15.5372C-1.32918 12.9135 -0.717152 10.4162 0.770347 8.19216C2.07546 6.24327 3.73926 4.68988 5.79015 3.58089C6.95745 2.94893 8.2281 2.55752 9.52105 2.25785C10.8626 1.94799 12.2265 1.99895 13.5742 2.09069C14.6928 2.16612 15.7913 2.49636 16.8471 2.90408C18.0266 3.35868 19.1391 3.92949 20.1403 4.72657C22.2925 6.43898 23.9583 8.49999 24.848 11.142C25.2006 12.1898 25.5086 13.2438 25.5066 14.367C25.5066 14.524 25.5796 14.681 25.61 14.84C25.7194 15.3883 25.7234 15.9367 25.6039 16.4851C25.5633 16.6747 25.5025 16.8663 25.5005 17.0579C25.4823 18.4503 25.0405 19.7407 24.5197 20.9985C24.1103 21.9893 23.5773 22.9229 22.9491 23.7954C22.8923 23.8749 22.8498 23.9667 22.7809 24.034C21.875 24.9126 21.0563 25.8768 20.043 26.6515C18.6528 27.7156 17.1045 28.4006 15.4386 28.843C14.3443 29.1345 13.2358 29.3485 12.2123 29.2364Z" fill="#FEF6EC"/>
</mask>
<g mask="url(#mask0_336_17719)">
<path d="M14.762 12.1355C14.957 12.0916 15.06 11.9191 15.2081 11.811C15.2565 11.7765 15.2253 11.7577 15.1847 11.7185C14.734 11.2811 14.2567 10.8641 14.0009 10.2652C13.7045 9.56917 13.9042 8.85744 14.5172 8.44827C14.9539 8.15824 15.4078 8.23977 15.8601 8.40281C16.3702 8.58623 16.7804 8.92015 17.1734 9.27915C17.2421 9.34186 17.3154 9.40456 17.3731 9.47668C17.6273 9.79178 17.919 9.99559 18.3557 10.005C18.702 10.0128 18.9921 10.2135 19.2541 10.4565C19.7954 10.9582 20.19 11.5774 20.6548 12.1386C21.1648 12.7547 21.7248 13.3222 22.3144 13.8631C23.0646 14.5529 23.6308 15.3775 23.8929 16.3871C24.0785 17.1004 24.1986 17.8262 24.3452 18.5474C24.4887 19.2481 24.7913 19.8799 25.267 20.427C25.6881 20.9115 26.1779 21.3144 26.6739 21.7125C26.8626 21.8646 26.8891 21.9461 26.8034 22.1625C26.5959 22.683 26.2559 23.1156 25.8909 23.5264C25.1095 24.409 24.1377 25.0408 23.1301 25.6224C22.5405 25.9626 21.9182 26.2385 21.3099 26.5411C20.5113 26.9392 19.7423 27.3907 19.0295 27.9316C18.936 28.0021 18.8548 28.0915 18.7675 28.1715C18.6334 28.2937 18.5211 28.3 18.4197 28.1558C17.9954 27.5491 17.4854 27.0176 16.9847 26.4768C16.4825 25.9344 15.8851 25.5503 15.1535 25.3794C14.5374 25.2352 13.9931 24.9154 13.5174 24.5078C12.7874 23.8838 12.0886 23.2222 11.3555 22.6014C11.2479 22.5105 11.0654 22.4337 11.106 22.2581C11.1481 22.0778 11.3493 22.0857 11.4928 22.0418C11.7564 21.9602 11.9982 21.8615 12.1073 21.5793C12.1261 21.5652 12.1463 21.5401 12.1245 21.5291C12.098 21.5135 12.0995 21.5511 12.0917 21.5683C11.942 21.6922 11.7564 21.7455 11.5833 21.8239C11.4413 21.8881 11.3165 21.8129 11.1996 21.7392C10.9141 21.5589 10.6521 21.3441 10.3994 21.1231C9.85817 20.6512 9.32941 20.1621 8.84433 19.6322C8.31869 19.0569 7.77433 18.4956 7.28925 17.8827C7.09116 17.6318 6.93051 17.3559 6.82288 17.0518C6.66691 16.6097 6.84004 16.1127 7.26429 15.7772C7.83516 15.3258 8.52146 15.4026 8.98159 15.9701C9.10793 16.1253 9.2873 16.2554 9.22491 16.5C9.22023 16.5188 9.2561 16.5517 9.27638 16.5736C9.99699 17.3011 10.6037 18.1335 11.3228 18.8625C11.4351 18.9769 11.5411 19.0882 11.7221 19.0584C11.7891 19.0475 11.8219 19.0976 11.8562 19.1447C11.9248 19.2419 11.9904 19.3406 12.0637 19.4347C12.2274 19.6448 12.321 19.8736 12.2867 20.148C12.2758 20.2389 12.2898 20.3361 12.3007 20.4286C12.307 20.4788 12.3288 20.5305 12.399 20.4882C12.5363 20.4035 12.6517 20.4803 12.7671 20.5415C13.1071 20.7202 13.4596 20.8487 13.8901 20.8707C13.1305 20.4067 12.6657 19.7137 12.1479 19.0678C11.7969 18.6305 11.3743 18.2495 11.0327 17.8043C10.3245 16.8778 9.48539 16.0532 8.9192 15.0169C8.76478 14.7332 8.6556 14.4353 8.6244 14.1139C8.57293 13.6076 8.8802 13.1717 9.40272 12.9272C9.9112 12.6905 10.3807 12.7594 10.8377 13.0463C10.9968 13.1451 11.1528 13.2486 11.3041 13.3599C11.4429 13.4618 11.5708 13.5386 11.5677 13.7753C11.563 14.0324 11.8001 14.2237 11.9623 14.4181C12.5441 15.1125 13.143 15.7898 13.7544 16.4576C14.0165 16.743 14.266 17.0392 14.5203 17.3293C14.5936 17.4124 14.6575 17.5096 14.7979 17.4813C14.8338 17.4735 14.8837 17.5001 14.9165 17.5268C15.2269 17.7729 15.517 18.0347 15.6605 18.422C15.7104 18.5568 15.6449 18.7088 15.7416 18.8437C15.8055 18.7715 15.8118 18.6791 15.8414 18.5991C15.9131 18.4078 16.0301 18.3514 16.2282 18.3639C16.4731 18.3796 16.7211 18.2965 16.9207 18.1884C17.1485 18.0661 17.4074 17.9266 17.4963 17.635C17.5088 17.6224 17.5197 17.6099 17.5322 17.5958C17.7271 17.5519 17.7989 17.624 17.7615 17.8121C17.7334 17.9532 17.7162 18.0943 17.6944 18.237C17.632 18.6367 17.54 19.0365 17.5337 19.441C17.5213 20.2938 17.7006 21.1168 18.0032 21.9101C18.1077 22.1844 18.2372 22.4572 18.5055 22.6798C18.5023 22.1985 18.429 21.7611 18.4134 21.3206C18.3916 20.7155 18.2949 20.1119 18.3245 19.5052C18.3604 18.7512 18.3635 17.994 18.5055 17.2477C18.5507 17.0095 18.5585 16.7618 18.6412 16.5329C18.7472 16.2382 18.8736 16.1864 19.1559 16.3009C19.237 16.3338 19.3197 16.3604 19.4008 16.3902C19.4086 16.3949 19.4148 16.3996 19.4226 16.4043C19.4179 16.3981 19.4132 16.3902 19.4086 16.3839C19.393 16.2256 19.2978 16.1065 19.2089 15.9889C18.9375 15.6299 18.5975 15.3336 18.3183 14.9793C17.9299 14.487 17.5509 13.9932 17.4745 13.3395C17.4698 13.2987 17.4901 13.2203 17.4012 13.2078C17.3793 13.3802 17.32 13.5401 17.2421 13.6859C17.1578 13.8443 17.1391 13.9399 17.2857 14.0982C17.6492 14.4886 17.7989 15.0044 17.9861 15.4935C18.0796 15.7396 18.075 15.9732 17.9486 16.1958C17.841 16.3887 17.8067 16.5815 17.8254 16.801C17.8519 17.102 17.7006 17.3512 17.5275 17.5848C17.515 17.5958 17.501 17.6083 17.4869 17.6193C17.4526 17.635 17.4152 17.6444 17.3856 17.6663C16.8662 18.0473 16.3436 17.9391 15.8305 17.6663C14.8369 17.1349 14.1069 16.3024 13.3723 15.4747C13.0323 15.0922 12.6954 14.7065 12.3522 14.3287C12.0574 14.0042 11.8188 13.6373 11.5567 13.2877C11.4897 13.1984 11.4117 13.1169 11.3399 13.0291C11.2464 12.9115 11.1387 12.7986 11.2386 12.6277C11.2526 12.6027 11.2386 12.5525 11.2245 12.5196C11.0389 12.0963 11.1434 11.6746 11.2713 11.2748C11.5022 10.5537 12.0543 10.1963 12.8077 10.2151C12.9465 10.2182 13.0791 10.2511 13.2023 10.3154C13.7872 10.6258 14.2848 11.0459 14.7262 11.5366C14.7558 11.5696 14.7808 11.6056 14.8166 11.6307C14.9227 11.7059 14.9477 11.7796 14.8572 11.8925C14.8057 11.9568 14.7917 12.0524 14.762 12.1339C14.7449 12.1496 14.7293 12.1653 14.7121 12.181C14.7199 12.1857 14.7277 12.1904 14.7355 12.1951C14.7449 12.1747 14.7542 12.1543 14.762 12.1355ZM16.289 14.3867C15.8617 14.4682 15.4749 14.4196 15.0943 14.3162C14.8962 14.2629 14.6622 14.2174 14.5546 14.0434C14.4283 13.838 14.2489 13.7048 14.0835 13.5496C13.7326 13.2219 13.7279 13.1435 14.1085 12.8535C14.2286 12.7626 14.2894 12.6716 14.2723 12.5102C14.0227 12.6575 13.82 12.8394 13.6265 13.0353C13.5252 13.1388 13.5189 13.2219 13.6156 13.3395C13.9853 13.7863 14.4267 14.1515 14.8915 14.487C15.244 14.741 15.9584 14.7488 16.2875 14.3898L16.289 14.3867ZM15.2721 20.4725C15.3797 20.4098 15.4749 20.333 15.5248 20.2185C15.6495 19.9285 15.7962 19.6448 15.8586 19.3296C15.8679 19.2842 15.9131 19.2199 15.8523 19.2027C15.7962 19.1854 15.7416 19.2199 15.7275 19.3046C15.7026 19.4504 15.6698 19.5962 15.6121 19.7357C15.5092 19.9849 15.4109 20.2358 15.2721 20.4725Z" fill="#F0AF75"/>
<path d="M16.289 14.3867C15.9599 14.7473 15.2456 14.7379 14.8931 14.4839C14.4283 14.15 13.9868 13.7832 13.6172 13.3364C13.5205 13.2188 13.5267 13.1357 13.6281 13.0323C13.8215 12.8363 14.0243 12.6544 14.2738 12.5071C14.291 12.6686 14.2302 12.7595 14.1101 12.8504C13.7295 13.142 13.7326 13.2188 14.0851 13.5465C14.2504 13.7017 14.4298 13.8349 14.5562 14.0403C14.6638 14.2143 14.8977 14.2598 15.0958 14.3131C15.4764 14.4165 15.8632 14.4651 16.2906 14.3836L16.289 14.3867Z" fill="#F0AF75"/>
<path d="M15.2721 20.4725C15.4125 20.2358 15.5092 19.9849 15.6121 19.7357C15.6698 19.5961 15.7026 19.4504 15.7275 19.3046C15.7416 19.2215 15.7962 19.187 15.8523 19.2027C15.9132 19.2215 15.8664 19.2857 15.8586 19.3296C15.7962 19.6447 15.6511 19.9269 15.5248 20.2185C15.4749 20.333 15.3797 20.4098 15.2721 20.4725Z" fill="#F0AF75"/>
<path d="M14.7621 12.1355C14.7527 12.1559 14.7434 12.1762 14.7356 12.1951C14.7278 12.1903 14.72 12.1856 14.7122 12.1809C14.7293 12.1653 14.7449 12.1496 14.7621 12.1339V12.1355Z" fill="#F0AF75"/>
<path d="M12.0948 21.5699C12.1027 21.5526 12.0995 21.5166 12.1276 21.5307C12.1495 21.5432 12.1276 21.5683 12.1105 21.5808L12.0964 21.5683L12.0948 21.5699Z" fill="#F0AF75"/>
<path d="M19.4054 16.3823C19.4054 16.3823 19.4148 16.3964 19.4195 16.4026C19.4117 16.3979 19.4055 16.3932 19.3976 16.3886L19.4039 16.3823H19.4054Z" fill="#F0AF75"/>
<path d="M17.4854 17.6193C17.4994 17.6084 17.5119 17.5958 17.5259 17.5848L17.5353 17.5942C17.5228 17.6068 17.5119 17.6193 17.4994 17.6334C17.4947 17.6287 17.49 17.624 17.4854 17.6193Z" fill="#F0AF75"/>
<path d="M7.43742 25.8654C7.14887 25.8716 6.94454 25.7886 6.75113 25.6757C6.67002 25.6287 6.59671 25.5691 6.52029 25.5158C6.3066 25.3637 6.13971 25.1505 5.87455 25.0596C5.72793 25.0094 5.60471 24.8809 5.49553 24.7586C5.17266 24.398 4.8997 24.0029 4.6595 23.5844C4.50664 23.3179 4.53784 23.0592 4.65482 22.788C4.8685 22.2926 5.24597 21.943 5.64058 21.6028C5.78252 21.4805 5.94006 21.3833 6.06952 21.2438C6.1553 21.1513 6.26917 21.2281 6.33779 21.3002C7.03189 22.0198 7.77277 22.6924 8.50274 23.3743C8.73202 23.5891 8.94727 23.8148 9.11572 24.0798C9.28573 24.3478 9.27326 24.5046 9.07049 24.7398C8.81625 25.0345 8.53393 25.2994 8.2329 25.544C7.98334 25.7462 7.69166 25.8434 7.4343 25.8669L7.43742 25.8654Z" fill="#EB7D5C"/>
<path d="M23.598 10.4847C23.0053 10.4487 22.4703 10.3719 22.0258 9.99561C21.7591 9.76986 21.5813 9.47983 21.3988 9.18981C21.2319 8.9233 21.1508 8.61917 21.051 8.32444C21.0291 8.26017 21.012 8.19275 20.9823 8.13005C20.8622 7.88392 20.8732 7.82748 21.143 7.7099C21.3879 7.6033 21.6437 7.52648 21.8948 7.43242C22.6216 7.15964 23.3672 6.94644 24.1252 6.77869C24.3389 6.73166 24.5557 6.70344 24.7866 6.74107C25.2873 6.82416 25.3715 7.21138 25.3044 7.55627C25.1874 8.16297 24.9285 8.71793 24.615 9.24468C24.4138 9.58173 24.197 9.90938 23.9942 10.2449C23.8928 10.4126 23.7759 10.538 23.5996 10.4847H23.598Z" fill="#F7E3AB"/>
<path d="M10.752 22.8381C10.7878 23.0701 10.6833 23.2457 10.5398 23.3711C10.2294 23.6439 9.97051 23.9668 9.66012 24.238C9.39028 24.4732 9.22807 24.4732 9.0331 24.1769C8.3858 23.1971 7.52013 22.4179 6.71218 21.5871C6.5718 21.4428 6.48758 21.272 6.42831 21.087C6.36903 20.9067 6.47198 20.6825 6.67787 20.5963C6.88063 20.5132 6.97578 20.3705 7.02881 20.173C7.10368 19.8908 7.29553 19.6964 7.52481 19.5365C7.84924 19.3108 8.10504 19.3327 8.36552 19.629C8.80381 20.126 9.25146 20.612 9.66012 21.134C9.97519 21.5369 10.3324 21.9069 10.5975 22.349C10.6911 22.5042 10.7987 22.6562 10.7504 22.8397L10.752 22.8381Z" fill="#4E6137"/>
<path d="M25.9892 6.36792C26.0095 6.50902 25.9393 6.63757 25.8847 6.76925C25.6554 7.31011 25.4355 7.85567 25.1454 8.3683C25.0112 8.60659 24.9098 8.63168 24.6837 8.47961C24.1144 8.09866 23.7619 7.54056 23.4686 6.93857C23.4125 6.82412 23.5388 6.64697 23.6761 6.60308C24.0598 6.48237 24.4528 6.39301 24.8053 6.18294C25.0424 6.04028 25.3154 5.98384 25.5868 5.94621C25.8348 5.91172 25.9876 6.07476 25.9892 6.36636V6.36792Z" fill="#4E6137"/>
<path d="M11.2994 13.5481C11.1621 13.2345 10.9999 12.9304 10.9656 12.5777C10.9017 11.9365 11.0467 11.3768 11.5973 10.9896C12.1885 10.5742 12.8108 10.5459 13.4487 10.883C13.5579 10.941 13.6624 11.0115 13.7685 11.0758C13.781 11.0852 13.7934 11.0962 13.8059 11.1056C13.82 11.1087 13.8356 11.1134 13.8496 11.1166C13.8434 11.1025 13.8371 11.0899 13.8309 11.0758C13.8246 11.0586 13.8168 11.0413 13.8106 11.0241C13.1914 9.87026 14.1007 8.69606 15.1458 8.64903C15.8133 8.61924 16.3764 8.91554 16.8475 9.38585C16.9707 9.50969 17.0783 9.64922 17.1625 9.80442C17.292 10.0427 17.2779 10.1509 17.0689 10.3265C16.4388 10.8579 15.8009 11.3815 15.1738 11.9161C14.7511 12.2767 14.3394 12.6514 13.9213 13.0198C13.8137 13.1138 13.781 13.1718 13.9182 13.3004C14.3113 13.6657 14.7418 13.9698 15.2066 14.23C15.623 14.462 16.027 14.4338 16.456 14.2316C16.9426 14.0027 17.2031 13.628 17.2982 13.117C17.3185 13.0057 17.3435 12.8896 17.4776 12.8975C17.618 12.9053 17.6211 13.0323 17.6242 13.1405C17.6414 13.7096 17.7506 14.2426 18.1249 14.6988C18.4353 15.0782 18.8065 15.3948 19.1387 15.7507C19.2713 15.8934 19.3867 16.0486 19.4788 16.2194C19.5271 16.3104 19.5599 16.4076 19.4694 16.4938C19.3852 16.5737 19.2931 16.5392 19.2105 16.4922C19.1075 16.4326 19.0077 16.3699 18.911 16.2994C18.8159 16.2304 18.7784 16.243 18.7613 16.3668C18.6802 16.9563 18.5757 17.5426 18.5133 18.1336C18.4134 19.0695 18.3667 20.0086 18.401 20.9492C18.4197 21.4681 18.4649 21.987 18.5351 22.5028C18.5382 22.5278 18.5398 22.5529 18.5429 22.578C18.5538 22.6768 18.5491 22.774 18.4322 22.8038C18.3214 22.832 18.2762 22.7473 18.2403 22.6658C18.0953 22.3397 17.9627 22.0089 17.866 21.6656C17.5712 20.6231 17.4994 19.5618 17.5899 18.4848C17.6117 18.2261 17.632 17.9658 17.6538 17.7103C17.5868 17.6915 17.5712 17.7354 17.5493 17.7605C17.2421 18.1226 16.8475 18.3123 16.3811 18.3593C16.3 18.3672 16.2204 18.386 16.1409 18.3907C15.9646 18.4001 15.8929 18.4785 15.9069 18.665C15.9428 19.1369 15.9194 19.6057 15.7353 20.0509C15.4218 20.8112 14.8572 21.131 14.043 21.0354C13.5143 20.9743 13.0463 20.7767 12.6221 20.4601C12.5878 20.4334 12.5519 20.4083 12.516 20.3832C12.5113 20.3801 12.5035 20.3832 12.4817 20.3832C12.4926 20.54 12.5129 20.6968 12.5129 20.8535C12.5129 21.512 12.0325 22.0716 11.3852 22.1704C11.1107 22.2127 10.8705 22.1171 10.6412 21.9776C10.3074 21.7738 10.0313 21.501 9.75212 21.2329C9.20308 20.7046 8.63689 20.192 8.10813 19.6417C8.09098 19.6245 8.07382 19.6057 8.05354 19.59C7.58562 19.1902 7.69168 19.2467 7.24715 19.5821C7.07402 19.7123 7.07246 19.8518 7.22843 20.0117C7.59965 20.3911 7.99427 20.7501 8.33586 21.1577C8.57294 21.4399 8.81314 21.7205 9.04711 22.0058C9.12666 22.1014 9.18749 22.2112 9.23428 22.3287C9.26703 22.4118 9.26547 22.4887 9.20932 22.5576C9.14693 22.636 9.05959 22.6439 8.97068 22.6235C8.82562 22.589 8.71488 22.4965 8.60882 22.3977C8.24695 22.0622 7.91161 21.6985 7.57158 21.3395C7.32202 21.0762 7.06154 20.8238 6.7683 20.6074C6.6794 20.5431 6.59049 20.4695 6.45323 20.4883C6.50315 20.6325 6.59205 20.736 6.67784 20.8394C6.93364 21.1483 7.22375 21.4242 7.51075 21.7048C7.90069 22.0858 8.25319 22.4996 8.5979 22.9198C8.63377 22.9637 8.66653 23.0091 8.69928 23.0546C8.77883 23.169 8.83186 23.2929 8.7258 23.4152C8.61194 23.5453 8.46688 23.5312 8.33274 23.4559C7.99895 23.2647 7.72443 23.0013 7.47019 22.7128C7.02722 22.2112 6.58737 21.7079 6.10853 21.2392C5.99934 21.1326 5.93851 21.1373 5.82465 21.2392C5.44719 21.5763 5.05257 21.8945 4.76246 22.3178C4.70631 22.4009 4.64392 22.4792 4.594 22.5655C4.40683 22.8868 4.3694 23.2067 4.58776 23.5359C4.98238 24.1269 5.4082 24.6866 6.01494 25.0801C6.24111 25.2274 6.48911 25.298 6.75115 25.3278C6.96171 25.3513 7.14109 25.2776 7.30486 25.1506C7.74471 24.8088 8.16585 24.4467 8.54955 24.0422C8.92389 23.6472 9.32474 23.2803 9.73808 22.926C9.85194 22.8288 9.97516 22.7426 10.0984 22.658C10.2871 22.5278 10.4649 22.5028 10.6833 22.6376C10.9609 22.8085 11.2308 22.9872 11.4647 23.2129C11.9701 23.6989 12.4817 24.1755 12.9699 24.6787C13.611 25.3372 14.3284 25.8482 15.2425 26.0458C15.7026 26.1445 16.0941 26.3859 16.4591 26.6807C16.8989 27.035 17.2967 27.43 17.6726 27.8502C17.8348 28.032 18.011 28.2013 18.1826 28.3754C18.2466 28.4396 18.2871 28.5164 18.2169 28.5886C18.1545 28.6528 18.0781 28.6152 18.0157 28.565C17.7911 28.3848 17.5915 28.1763 17.398 27.963C17.0112 27.5351 16.5885 27.1478 16.13 26.7967C15.8118 26.5521 15.4577 26.3844 15.0709 26.3013C14.2099 26.1147 13.5189 25.6476 12.9044 25.0393C12.3709 24.511 11.8297 23.9921 11.2932 23.4685C11.0639 23.2443 10.8003 23.0656 10.546 22.8727C10.4493 22.8006 10.3713 22.8085 10.2778 22.8727C10.0079 23.0577 9.77707 23.285 9.53687 23.5061C8.92233 24.0736 8.35614 24.6913 7.71976 25.24C7.05218 25.8169 6.4158 25.6993 5.83401 25.334C5.19139 24.9296 4.73594 24.3401 4.32572 23.713C4.01065 23.2317 4.07928 22.7646 4.38032 22.3084C4.64859 21.9039 4.97302 21.5512 5.34581 21.2408C5.47994 21.1295 5.61408 21.0166 5.74978 20.9068C5.87768 20.8018 6.00714 20.7924 6.13504 20.9084C6.2645 21.026 6.39552 21.142 6.52654 21.258C6.55618 21.2847 6.58893 21.3395 6.6326 21.2925C6.6716 21.2502 6.62013 21.2157 6.59361 21.1859C6.45791 21.037 6.33157 20.8833 6.23331 20.7077C6.16 20.5776 6.10697 20.4428 6.22239 20.308C6.33625 20.1747 6.47975 20.1747 6.6326 20.2233C6.76518 20.2657 6.87749 20.344 6.98667 20.4256C7.50451 20.8159 7.91784 21.3129 8.36861 21.7722C8.41697 21.8208 8.45128 21.8992 8.54019 21.8976C8.56982 21.8412 8.52303 21.8145 8.49807 21.7848C8.09254 21.3082 7.68232 20.8363 7.21907 20.4146C7.13641 20.3393 7.05686 20.2594 6.98355 20.1732C6.75895 19.9129 6.76986 19.6527 7.00851 19.405C7.02566 19.3877 7.04438 19.3689 7.0631 19.3533C7.57158 18.9629 7.65892 18.8657 8.20952 19.3658C8.90829 19.9992 9.58366 20.6607 10.27 21.3082C10.4337 21.4634 10.6084 21.6045 10.8003 21.7236C11.3571 22.0685 12.1432 21.6703 12.2025 21.0119C12.2243 20.7595 12.1947 20.5118 12.1167 20.2704C12.0808 20.1606 12.0418 20.0446 12.151 19.96C12.2664 19.8722 12.3725 19.9364 12.4723 20.0101C12.8623 20.3033 13.2569 20.5917 13.7482 20.6921C14.0929 20.7626 14.4376 20.7924 14.7808 20.6733C15.2378 20.5134 15.4047 20.1261 15.5341 19.7107C15.6433 19.358 15.6137 18.9911 15.6121 18.6274C15.6121 18.2668 15.701 18.1634 16.0551 18.1054C16.2391 18.0756 16.4279 18.0615 16.6041 18.0066C17.2795 17.7965 17.6351 17.298 17.7802 16.6286C17.8192 16.4515 17.8348 16.2712 17.8613 16.0909C17.8675 16.0486 17.8753 16.0031 17.894 15.9655C17.9362 15.8824 17.9798 15.7805 18.0999 15.8212C18.2029 15.8557 18.206 15.9545 18.192 16.0423C18.1405 16.3511 18.0734 16.6568 18.0313 16.9657C17.8379 18.4048 17.7069 19.8439 18.0563 21.28C18.0656 21.316 18.0609 21.3568 18.1187 21.374C18.1187 20.9601 18.1171 20.5478 18.1187 20.1371C18.1249 18.8171 18.2777 17.5128 18.5024 16.2147C18.518 16.1238 18.5273 16.025 18.5991 15.9545C18.6459 15.909 18.6989 15.8824 18.7675 15.9075C18.8065 15.9216 18.8533 15.9921 18.8907 15.9216C18.9188 15.8683 18.8549 15.8353 18.8221 15.8024C18.5679 15.5453 18.3058 15.2945 18.0563 15.0311C17.7178 14.6753 17.4823 14.2629 17.3934 13.7237C17.2015 14.136 16.8553 14.321 16.5105 14.5044C16.0551 14.7474 15.5918 14.7599 15.1302 14.5263C14.5686 14.2441 14.0633 13.8789 13.6219 13.4305C13.4659 13.2722 13.455 13.1546 13.6 12.9884C14.0134 12.5165 14.5047 12.1262 14.9773 11.7201C15.5887 11.195 16.208 10.6776 16.8287 10.165C16.9488 10.0662 16.9473 9.99254 16.863 9.8734C16.4918 9.34822 15.9865 9.03938 15.3594 8.95159C14.826 8.87634 14.4251 9.14442 14.1319 9.55672C13.8543 9.94551 13.8168 10.3798 14.0368 10.8187C14.1522 11.0492 14.3066 11.2545 14.4595 11.4599C14.5219 11.5446 14.5764 11.6339 14.4953 11.7311C14.4049 11.8362 14.305 11.7876 14.2115 11.728C13.9276 11.5477 13.6453 11.3627 13.3567 11.1887C12.7079 10.7999 11.9124 10.9253 11.4912 11.5007C11.1762 11.9286 11.1668 12.4178 11.3368 12.8991C11.5661 13.5496 11.9358 14.1156 12.3975 14.6298C13.1025 15.4152 13.8137 16.1944 14.539 16.9625C14.6903 17.1224 14.8541 17.2651 15.0257 17.4015C15.1068 17.4658 15.2144 17.552 15.1083 17.6617C15.0147 17.7573 14.9196 17.7103 14.8182 17.6241C13.7607 16.7195 12.9434 15.5814 11.9311 14.6329C11.5802 14.3037 11.2448 13.9572 10.8502 13.6782C10.3386 13.3161 9.80515 13.3239 9.25923 13.5888C9.00811 13.7111 8.84122 13.9118 8.77415 14.1783C8.67901 14.5577 8.68524 14.9355 8.86618 15.2945C9.16565 15.8902 9.55091 16.4295 9.98608 16.928C10.557 17.5818 11.1356 18.2292 11.7408 18.8516C11.811 18.9237 11.8874 18.988 11.9576 19.0601C12.0278 19.1322 12.1105 19.2122 12.0106 19.3156C11.9233 19.405 11.8438 19.347 11.7658 19.2843C11.368 18.9676 11.0171 18.6039 10.6677 18.2371C10.089 17.6319 9.52907 17.0064 8.8693 16.4844C8.50587 16.1975 8.10657 16.025 7.63085 16.0423C6.95547 16.0658 6.47975 16.6929 6.65132 17.3544C6.74491 17.7134 6.92116 18.0254 7.19256 18.281C7.23311 18.3201 7.27678 18.3562 7.31266 18.3985C7.35789 18.4503 7.37037 18.513 7.32046 18.5678C7.27055 18.6227 7.20348 18.6196 7.15356 18.5725C7.03814 18.4675 6.91336 18.3672 6.81822 18.2465C6.26606 17.5426 6.16312 16.8214 6.68876 16.1771C6.88217 15.9388 7.13485 15.8118 7.44212 15.7711C7.97712 15.7005 8.45284 15.8416 8.89269 16.1395C8.94104 16.1724 8.98004 16.2304 9.05335 16.2226C9.09234 16.163 9.03931 16.1301 9.01435 16.0925C8.86306 15.862 8.71176 15.6315 8.60102 15.3791C8.37017 14.8524 8.3499 14.3178 8.63221 13.8068C8.90205 13.3192 9.64761 13.0292 10.2668 13.1217C10.6474 13.1797 10.9453 13.3882 11.2479 13.5982C11.262 13.6233 11.2807 13.6735 11.3025 13.6563C11.3368 13.6296 11.3228 13.5794 11.2963 13.5434L11.2994 13.5481ZM8.30466 23.1001C8.32026 23.1157 8.3343 23.1314 8.3499 23.1471C8.37173 23.1189 8.36082 23.0922 8.3499 23.064C7.88665 22.4479 7.32358 21.9243 6.78546 21.3772C6.75739 21.3489 6.72151 21.2925 6.68096 21.3348C6.63104 21.3881 6.69967 21.4211 6.72931 21.454C7.10365 21.8725 7.47799 22.2911 7.85701 22.705C7.99115 22.8524 8.12997 22.9966 8.30622 23.0969L8.30466 23.1001ZM18.9672 15.9655C18.9562 15.9749 18.9406 15.9843 18.9422 15.989C18.9469 16.0047 18.9562 16.0203 18.9656 16.036C18.9734 16.0282 18.9874 16.0203 18.9874 16.0125C18.9859 15.9968 18.9765 15.9827 18.9687 15.9655H18.9672ZM8.71644 22.0654C8.71644 22.0654 8.70396 22.0748 8.70552 22.0779C8.70708 22.0858 8.71332 22.0936 8.71644 22.1014C8.72112 22.0967 8.72892 22.092 8.72736 22.0905C8.7258 22.0826 8.72112 22.0748 8.71644 22.0654Z" fill="#4C4C4C"/>
<path d="M22.0523 9.78718C22.3986 9.9079 22.7277 10.0239 23.0568 10.1368C23.2112 10.1901 23.3547 10.2622 23.4904 10.3531C23.6324 10.4488 23.6573 10.5507 23.5559 10.698C23.3594 10.9818 23.1535 11.2561 22.932 11.5195C22.5374 11.9882 22.1397 12.4554 21.7419 12.921C21.5673 13.1264 21.4846 13.1248 21.3115 12.921C21.1773 12.7627 21.0635 12.5918 20.9745 12.4052C20.8123 12.0588 20.6345 11.7217 20.3818 11.4317C20.2664 11.2984 20.282 11.1809 20.3787 11.0445C20.6657 10.6447 21.0276 10.3202 21.3941 9.99882C21.4316 9.9659 21.4674 9.93298 21.5049 9.90006C21.4955 9.88438 21.4908 9.87341 21.483 9.86557C21.299 9.68058 21.1617 9.73702 20.9855 9.91103C20.7063 10.1885 20.4052 10.4425 20.1338 10.7294C20.087 10.7795 20.0387 10.8297 19.9841 10.8705C19.9233 10.9159 19.8546 10.9238 19.8001 10.8595C19.7455 10.7952 19.7642 10.7309 19.8156 10.6745C19.942 10.535 20.0637 10.3923 20.1978 10.2622C20.4863 9.98628 20.7827 9.71664 21.0775 9.44699C21.129 9.39996 21.1836 9.35764 21.157 9.27455C21.0354 8.88733 20.9823 8.47973 20.8357 8.09878C20.672 7.67706 20.6657 7.67079 20.3148 7.94984C19.7657 8.38723 19.3118 8.92495 18.808 9.41094C18.571 9.63982 18.3698 9.90946 18.0547 10.0741C18.3963 10.1211 18.6599 10.3061 18.9281 10.4958C19.4475 10.8626 19.7798 11.3847 20.1338 11.8926C20.5285 12.457 20.9714 12.9821 21.4503 13.4744C21.8465 13.8836 22.2411 14.2927 22.6497 14.6878C23.4171 15.4325 23.7728 16.3699 23.9287 17.4015C23.9974 17.853 24.0208 18.3123 24.0972 18.7622C24.2313 19.5586 24.6462 20.2014 25.2202 20.7517C25.6039 21.1201 25.9985 21.4744 26.4041 21.8177C26.5039 21.9023 26.5959 21.9964 26.6864 22.092C26.7378 22.1469 26.7581 22.2159 26.6942 22.2755C26.6411 22.3241 26.5788 22.3131 26.5257 22.2676C25.802 21.6531 25.0362 21.084 24.4559 20.3174C24.0176 19.7389 23.8055 19.0695 23.7447 18.3515C23.6885 17.6758 23.5949 17.0096 23.3766 16.3637C23.2237 15.9106 22.9944 15.5077 22.6762 15.1565C22.4033 14.8555 22.1272 14.5561 21.8324 14.2771C21.0135 13.4979 20.2945 12.6373 19.6675 11.6982C19.4164 11.322 19.12 10.9865 18.7503 10.7184C18.5133 10.5459 18.2762 10.3955 17.9783 10.3704C17.9533 10.3688 17.9299 10.361 17.9049 10.3547C17.7802 10.3155 17.632 10.2873 17.6211 10.1258C17.6117 9.98158 17.7287 9.90946 17.8472 9.85773C18.0562 9.76524 18.2263 9.62414 18.3869 9.4611C18.8642 8.97355 19.3446 8.4907 19.8266 8.00942C20.0169 7.81816 20.2399 7.66609 20.4567 7.50775C20.5986 7.40429 20.7156 7.4231 20.8326 7.55165C21.0931 7.83697 21.1758 8.19754 21.2725 8.55341C21.3146 8.71018 21.352 8.86851 21.3879 9.02685C21.4066 9.11151 21.4394 9.10994 21.5002 9.05977C21.6281 8.95631 21.6858 8.8544 21.6094 8.67569C21.4628 8.33863 21.3395 7.9906 21.2147 7.64258C21.1227 7.38704 21.1773 7.31649 21.4378 7.24595C21.7856 7.15189 22.1288 7.03744 22.475 6.93711C22.6996 6.87284 22.7667 6.90733 22.8431 7.12524C23.0069 7.58927 23.3391 7.91222 23.7119 8.20381C23.754 8.23673 23.8039 8.29474 23.8539 8.22733C23.91 8.15208 23.8227 8.13797 23.7852 8.10505C23.4468 7.80718 23.1816 7.45759 23.0272 7.02804C22.9617 6.84775 23.0069 6.71607 23.18 6.64395C23.8804 6.34923 24.5932 6.08899 25.3247 5.87892C25.4776 5.83502 25.5899 5.92438 25.6133 6.08899C25.6351 6.24105 25.6039 6.38685 25.5602 6.53265C25.423 6.98414 25.2015 7.39958 25.0034 7.82286C24.6727 8.52362 24.3233 9.21654 23.9802 9.91103C23.8273 10.2199 23.7603 10.2355 23.4639 10.0678C23.1598 9.89536 22.8431 9.75113 22.5125 9.63825C22.3315 9.57711 22.1849 9.61474 22.0555 9.79032L22.0523 9.78718ZM25.3434 6.17678C25.3107 6.18148 25.2873 6.18148 25.2654 6.18775C24.6353 6.38528 24.0208 6.62201 23.4 6.84775C23.283 6.89008 23.2861 6.95122 23.3313 7.04685C23.506 7.41369 23.7306 7.73821 24.0629 7.97963C24.1471 8.04077 24.2157 8.11288 24.1814 8.23046C24.0941 8.52519 23.8086 8.62866 23.5653 8.43897C23.1691 8.13013 22.7995 7.79464 22.6154 7.30552C22.5795 7.20832 22.5312 7.20832 22.447 7.23811C22.1693 7.33217 21.8932 7.42623 21.6109 7.49992C21.4846 7.53284 21.4846 7.57516 21.5267 7.67863C21.6593 8.01569 21.7778 8.35745 21.9088 8.6945C21.965 8.83716 21.951 8.95787 21.8543 9.07859C21.7716 9.18205 21.6702 9.26514 21.5766 9.35607C21.4612 9.46894 21.4893 9.57241 21.6374 9.63825C21.7435 9.68528 21.8153 9.64609 21.8823 9.57241C22.1147 9.31531 22.3908 9.29022 22.6996 9.41251C22.996 9.52851 23.2892 9.64923 23.5622 9.81227C23.6745 9.87968 23.7135 9.85303 23.7634 9.74642C24.0083 9.23379 24.2578 8.72272 24.5121 8.21478C24.7632 7.71155 25.005 7.20362 25.2186 6.68471C25.2842 6.52481 25.3512 6.36177 25.3434 6.17364V6.17678ZM21.5283 12.7329C21.5595 12.7 21.586 12.6733 21.6094 12.6467C21.6858 12.5557 21.7638 12.4664 21.8387 12.3739C22.2769 11.8283 22.7698 11.3267 23.18 10.7576C23.3313 10.5491 23.3313 10.5412 23.0849 10.444C22.8353 10.3469 22.5795 10.2669 22.33 10.1744C21.7825 9.97217 21.7778 9.96747 21.3645 10.3751C21.1118 10.6243 20.8435 10.8611 20.6298 11.1479C20.594 11.195 20.5409 11.2357 20.6127 11.3047C20.8513 11.532 20.9979 11.8205 21.1383 12.1136C21.2241 12.2939 21.3161 12.4711 21.4378 12.6294C21.4628 12.6623 21.4939 12.6921 21.5298 12.7313L21.5283 12.7329Z" fill="#4C4C4C"/>
<path d="M8.30468 23.1001C8.12999 22.9998 7.98961 22.854 7.85547 22.7082C7.47645 22.2943 7.10211 21.8757 6.72777 21.4572C6.69813 21.4242 6.6295 21.3913 6.67941 21.338C6.71997 21.2941 6.75584 21.3506 6.78392 21.3804C7.32359 21.9259 7.88511 22.4511 8.34835 23.0672C8.33432 23.0782 8.31872 23.0907 8.30468 23.1017V23.1001Z" fill="#4C4C4C"/>
<path d="M11.2994 13.5481C11.3275 13.5857 11.3416 13.6343 11.3057 13.661C11.2838 13.6782 11.2651 13.628 11.251 13.603C11.2666 13.5842 11.2823 13.5653 11.2979 13.5481H11.2994Z" fill="#4C4C4C"/>
<path d="M18.9672 15.9655C18.975 15.9827 18.9844 15.9968 18.9859 16.0125C18.9859 16.0188 18.9719 16.0282 18.9641 16.036C18.9563 16.0203 18.9454 16.0062 18.9407 15.989C18.9407 15.9843 18.9547 15.9749 18.9657 15.9655H18.9672Z" fill="#4C4C4C"/>
<path d="M8.34838 23.064C8.36086 23.0922 8.37179 23.1188 8.34838 23.1471C8.33276 23.1314 8.31871 23.1157 8.3031 23.1C8.31715 23.089 8.33276 23.0765 8.34681 23.0655L8.34838 23.064Z" fill="#4C4C4C"/>
<path d="M13.806 11.1056C13.7935 11.0962 13.781 11.0852 13.7685 11.0758C13.7825 11.0585 13.7966 11.0413 13.8106 11.024C13.8169 11.0413 13.8247 11.0585 13.8309 11.0758C13.8231 11.0852 13.8138 11.0962 13.806 11.1056Z" fill="#4C4C4C"/>
<path d="M13.8309 11.0758L13.8496 11.1166C13.8356 11.1134 13.82 11.1087 13.8059 11.1056C13.8137 11.0962 13.8231 11.0852 13.8309 11.0758Z" fill="#4C4C4C"/>
<path d="M8.71643 22.0654C8.72112 22.0748 8.7258 22.0827 8.72736 22.0905C8.72736 22.0936 8.71956 22.0984 8.71643 22.1015C8.71175 22.0936 8.70707 22.0858 8.70551 22.078C8.70551 22.0748 8.71175 22.0701 8.71643 22.0654Z" fill="#4C4C4C"/>
</g>
<path d="M14.762 12.1356C14.957 12.0917 15.06 11.9193 15.2081 11.8111C15.2565 11.7766 15.2253 11.7578 15.1847 11.7186C14.734 11.2812 14.2567 10.8642 14.0009 10.2654C13.7045 9.56929 13.9042 8.85756 14.5172 8.44839C14.9539 8.15837 15.4078 8.23989 15.8601 8.40293C16.3702 8.58635 16.7804 8.92027 17.1734 9.27927C17.2421 9.34198 17.3154 9.40469 17.3731 9.4768C17.6273 9.79191 17.919 9.99571 18.3557 10.0051C18.702 10.013 18.9921 10.2136 19.2541 10.4566C19.7954 10.9583 20.19 11.5775 20.6548 12.1387C21.1648 12.7549 21.7248 13.3224 22.3144 13.8632C23.0646 14.553 23.6308 15.3776 23.8929 16.3872C24.0785 17.1005 24.1986 17.8264 24.3452 18.5475C24.4887 19.2483 24.7913 19.88 25.267 20.4272C25.6881 20.9116 26.1779 21.3145 26.6739 21.7127C26.8626 21.8647 26.8891 21.9463 26.8034 22.1626C26.5959 22.6831 26.2559 23.1158 25.8909 23.5265C25.1095 24.4091 24.1377 25.0409 23.1301 25.6225C22.5405 25.9627 21.9182 26.2386 21.3099 26.5412C20.5113 26.9394 19.7423 27.3909 19.0295 27.9317C18.936 28.0023 18.8548 28.0916 18.7675 28.1716C18.6334 28.2939 18.5211 28.3001 18.4197 28.1559C17.9954 27.5492 17.4854 27.0178 16.9847 26.4769C16.4825 25.9345 15.8851 25.5504 15.1535 25.3795C14.5374 25.2353 13.9931 24.9155 13.5174 24.5079C12.7874 23.8839 12.0886 23.2224 11.3555 22.6016C11.2479 22.5106 11.0654 22.4338 11.106 22.2582C11.1481 22.0779 11.3493 22.0858 11.4928 22.0419C11.7564 21.9604 11.9982 21.8616 12.1073 21.5794C12.1261 21.5653 12.1463 21.5402 12.1245 21.5293C12.098 21.5136 12.0995 21.5512 12.0917 21.5684C11.942 21.6923 11.7564 21.7456 11.5833 21.824C11.4413 21.8883 11.3165 21.813 11.1996 21.7393C10.9141 21.559 10.6521 21.3443 10.3994 21.1232C9.85817 20.6513 9.32941 20.1622 8.84433 19.6323C8.31869 19.057 7.77433 18.4958 7.28925 17.8828C7.09116 17.632 6.93051 17.356 6.82288 17.0519C6.66691 16.6098 6.84004 16.1129 7.26429 15.7774C7.83516 15.3259 8.52146 15.4027 8.98159 15.9702C9.10793 16.1254 9.2873 16.2555 9.22491 16.5001C9.22023 16.5189 9.2561 16.5518 9.27638 16.5738C9.99699 17.3012 10.6037 18.1336 11.3228 18.8626C11.4351 18.977 11.5411 19.0883 11.7221 19.0586C11.7891 19.0476 11.8219 19.0978 11.8562 19.1448C11.9248 19.242 11.9904 19.3407 12.0637 19.4348C12.2274 19.6449 12.321 19.8738 12.2867 20.1481C12.2758 20.239 12.2898 20.3362 12.3007 20.4287C12.307 20.4789 12.3288 20.5306 12.399 20.4883C12.5363 20.4036 12.6517 20.4805 12.7671 20.5416C13.1071 20.7203 13.4596 20.8489 13.8901 20.8708C13.1305 20.4068 12.6657 19.7139 12.1479 19.068C11.7969 18.6306 11.3743 18.2496 11.0327 17.8044C10.3245 16.8779 9.48539 16.0533 8.9192 15.017C8.76478 14.7333 8.6556 14.4354 8.6244 14.114C8.57293 13.6077 8.8802 13.1719 9.40272 12.9273C9.9112 12.6906 10.3807 12.7596 10.8377 13.0464C10.9968 13.1452 11.1528 13.2487 11.3041 13.36C11.4429 13.4619 11.5708 13.5387 11.5677 13.7754C11.563 14.0325 11.8001 14.2238 11.9623 14.4182C12.5441 15.1127 13.143 15.7899 13.7544 16.4578C14.0165 16.7431 14.266 17.0394 14.5203 17.3294C14.5936 17.4125 14.6575 17.5097 14.7979 17.4815C14.8338 17.4736 14.8837 17.5003 14.9165 17.5269C15.2269 17.773 15.517 18.0349 15.6605 18.4221C15.7104 18.5569 15.6449 18.709 15.7416 18.8438C15.8055 18.7717 15.8118 18.6792 15.8414 18.5992C15.9131 18.408 16.0301 18.3515 16.2282 18.3641C16.4731 18.3797 16.7211 18.2967 16.9207 18.1885C17.1485 18.0662 17.4074 17.9267 17.4963 17.6351C17.5088 17.6226 17.5197 17.61 17.5322 17.5959C17.7271 17.552 17.7989 17.6241 17.7615 17.8122C17.7334 17.9533 17.7162 18.0944 17.6944 18.2371C17.632 18.6369 17.54 19.0366 17.5337 19.4411C17.5213 20.2939 17.7006 21.1169 18.0032 21.9102C18.1077 22.1845 18.2372 22.4573 18.5055 22.6799C18.5023 22.1987 18.429 21.7613 18.4134 21.3207C18.3916 20.7156 18.2949 20.1121 18.3245 19.5054C18.3604 18.7513 18.3635 17.9941 18.5055 17.2479C18.5507 17.0096 18.5585 16.7619 18.6412 16.533C18.7472 16.2383 18.8736 16.1865 19.1559 16.301C19.237 16.3339 19.3197 16.3606 19.4008 16.3903C19.4086 16.395 19.4148 16.3997 19.4226 16.4045C19.4179 16.3982 19.4132 16.3903 19.4086 16.3841C19.393 16.2257 19.2978 16.1066 19.2089 15.989C18.9375 15.63 18.5975 15.3337 18.3183 14.9794C17.9299 14.4872 17.5509 13.9933 17.4745 13.3396C17.4698 13.2988 17.4901 13.2205 17.4012 13.2079C17.3793 13.3804 17.32 13.5403 17.2421 13.6861C17.1578 13.8444 17.1391 13.94 17.2857 14.0984C17.6492 14.4887 17.7989 15.0045 17.9861 15.4936C18.0796 15.7397 18.075 15.9733 17.9486 16.1959C17.841 16.3888 17.8067 16.5816 17.8254 16.8011C17.8519 17.1021 17.7006 17.3513 17.5275 17.5849C17.515 17.5959 17.501 17.6084 17.4869 17.6194C17.4526 17.6351 17.4152 17.6445 17.3856 17.6664C16.8662 18.0474 16.3436 17.9392 15.8305 17.6664C14.8369 17.135 14.1069 16.3026 13.3723 15.4748C13.0323 15.0923 12.6954 14.7066 12.3522 14.3288C12.0574 14.0043 11.8188 13.6375 11.5567 13.2879C11.4897 13.1985 11.4117 13.117 11.3399 13.0292C11.2464 12.9116 11.1387 12.7987 11.2386 12.6279C11.2526 12.6028 11.2386 12.5526 11.2245 12.5197C11.0389 12.0964 11.1434 11.6747 11.2713 11.2749C11.5022 10.5538 12.0543 10.1964 12.8077 10.2152C12.9465 10.2183 13.0791 10.2512 13.2023 10.3155C13.7872 10.6259 14.2848 11.0461 14.7262 11.5368C14.7558 11.5697 14.7808 11.6057 14.8166 11.6308C14.9227 11.7061 14.9477 11.7797 14.8572 11.8926C14.8057 11.9569 14.7917 12.0525 14.762 12.134C14.7449 12.1497 14.7293 12.1654 14.7121 12.1811C14.7199 12.1858 14.7277 12.1905 14.7355 12.1952C14.7449 12.1748 14.7542 12.1544 14.762 12.1356ZM16.289 14.3868C15.8617 14.4683 15.4749 14.4197 15.0943 14.3163C14.8962 14.263 14.6622 14.2175 14.5546 14.0435C14.4283 13.8381 14.2489 13.7049 14.0835 13.5497C13.7326 13.222 13.7279 13.1436 14.1085 12.8536C14.2286 12.7627 14.2894 12.6718 14.2723 12.5103C14.0227 12.6577 13.82 12.8395 13.6265 13.0355C13.5252 13.1389 13.5189 13.222 13.6156 13.3396C13.9853 13.7864 14.4267 14.1517 14.8915 14.4872C15.244 14.7411 15.9584 14.749 16.2875 14.39L16.289 14.3868ZM15.2721 20.4726C15.3797 20.4099 15.4749 20.3331 15.5248 20.2187C15.6495 19.9286 15.7962 19.6449 15.8586 19.3298C15.8679 19.2843 15.9131 19.22 15.8523 19.2028C15.7962 19.1855 15.7416 19.22 15.7275 19.3047C15.7026 19.4505 15.6698 19.5963 15.6121 19.7358C15.5092 19.9851 15.4109 20.2359 15.2721 20.4726Z" fill="#F0AF75"/>
<path d="M16.289 14.3869C15.9599 14.7474 15.2456 14.738 14.8931 14.4841C14.4283 14.1501 13.9868 13.7833 13.6172 13.3365C13.5205 13.2189 13.5267 13.1358 13.6281 13.0324C13.8215 12.8364 14.0243 12.6546 14.2738 12.5072C14.291 12.6687 14.2302 12.7596 14.1101 12.8505C13.7295 13.1421 13.7326 13.2189 14.0851 13.5466C14.2504 13.7018 14.4298 13.835 14.5562 14.0404C14.6638 14.2144 14.8977 14.2599 15.0958 14.3132C15.4764 14.4167 15.8632 14.4653 16.2906 14.3837L16.289 14.3869Z" fill="#F0AF75"/>
<path d="M15.2721 20.4726C15.4125 20.2359 15.5092 19.9851 15.6121 19.7358C15.6698 19.5963 15.7026 19.4505 15.7275 19.3047C15.7416 19.2216 15.7962 19.1871 15.8523 19.2028C15.9132 19.2216 15.8664 19.2859 15.8586 19.3298C15.7962 19.6449 15.6511 19.9271 15.5248 20.2186C15.4749 20.3331 15.3797 20.4099 15.2721 20.4726Z" fill="#F0AF75"/>
<path d="M14.7621 12.1356C14.7527 12.156 14.7434 12.1764 14.7356 12.1952C14.7278 12.1905 14.72 12.1858 14.7122 12.1811C14.7293 12.1654 14.7449 12.1497 14.7621 12.134V12.1356Z" fill="#F0AF75"/>
<path d="M12.0948 21.57C12.1027 21.5527 12.0995 21.5167 12.1276 21.5308C12.1495 21.5433 12.1276 21.5684 12.1105 21.581L12.0964 21.5684L12.0948 21.57Z" fill="#F0AF75"/>
<path d="M19.4054 16.3824C19.4054 16.3824 19.4148 16.3965 19.4195 16.4027C19.4117 16.398 19.4055 16.3934 19.3976 16.3887L19.4039 16.3824H19.4054Z" fill="#F0AF75"/>
<path d="M17.4854 17.6195C17.4994 17.6085 17.5119 17.5959 17.5259 17.585L17.5353 17.5944C17.5228 17.6069 17.5119 17.6194 17.4994 17.6336C17.4947 17.6289 17.49 17.6242 17.4854 17.6195Z" fill="#F0AF75"/>
<path d="M7.43742 25.8654C7.14887 25.8716 6.94454 25.7886 6.75113 25.6757C6.67002 25.6287 6.59671 25.5691 6.52029 25.5158C6.3066 25.3637 6.13971 25.1505 5.87455 25.0596C5.72793 25.0094 5.60471 24.8809 5.49553 24.7586C5.17266 24.398 4.8997 24.0029 4.6595 23.5844C4.50664 23.3179 4.53784 23.0592 4.65482 22.788C4.8685 22.2926 5.24597 21.943 5.64058 21.6028C5.78252 21.4805 5.94006 21.3833 6.06952 21.2438C6.1553 21.1513 6.26917 21.2281 6.33779 21.3002C7.03189 22.0198 7.77277 22.6924 8.50274 23.3743C8.73202 23.5891 8.94727 23.8148 9.11572 24.0798C9.28573 24.3478 9.27326 24.5046 9.07049 24.7398C8.81625 25.0345 8.53393 25.2994 8.2329 25.544C7.98334 25.7462 7.69166 25.8434 7.4343 25.8669L7.43742 25.8654Z" fill="#EB7D5C"/>
<path d="M23.598 10.4847C23.0053 10.4487 22.4703 10.3719 22.0258 9.99561C21.7591 9.76986 21.5813 9.47983 21.3988 9.18981C21.2319 8.9233 21.1508 8.61917 21.051 8.32444C21.0291 8.26017 21.012 8.19275 20.9823 8.13005C20.8622 7.88392 20.8732 7.82748 21.143 7.7099C21.3879 7.6033 21.6437 7.52648 21.8948 7.43242C22.6216 7.15964 23.3672 6.94644 24.1252 6.77869C24.3389 6.73166 24.5557 6.70344 24.7866 6.74107C25.2873 6.82416 25.3715 7.21138 25.3044 7.55627C25.1874 8.16297 24.9285 8.71793 24.615 9.24468C24.4138 9.58173 24.197 9.90938 23.9942 10.2449C23.8928 10.4126 23.7759 10.538 23.5996 10.4847H23.598Z" fill="#F7E3AB"/>
<path d="M10.7519 22.8381C10.7878 23.0701 10.6833 23.2457 10.5398 23.3711C10.2294 23.6439 9.97045 23.9668 9.66006 24.238C9.39022 24.4732 9.22801 24.4732 9.03304 24.1769C8.38574 23.1971 7.52007 22.4179 6.71212 21.5871C6.57174 21.4428 6.48752 21.272 6.42824 21.087C6.36897 20.9067 6.47192 20.6825 6.67781 20.5963C6.88057 20.5132 6.97572 20.3705 7.02875 20.173C7.10362 19.8908 7.29547 19.6964 7.52475 19.5365C7.84918 19.3108 8.10498 19.3327 8.36546 19.629C8.80375 20.126 9.2514 20.612 9.66006 21.134C9.97513 21.5369 10.3323 21.9069 10.5975 22.349C10.6911 22.5042 10.7987 22.6562 10.7503 22.8397L10.7519 22.8381Z" fill="#4E6137"/>
<path d="M25.9891 6.36792C26.0094 6.50902 25.9392 6.63757 25.8846 6.76925C25.6553 7.31011 25.4354 7.85567 25.1453 8.3683C25.0112 8.60659 24.9098 8.63168 24.6836 8.47961C24.1143 8.09866 23.7618 7.54056 23.4686 6.93857C23.4124 6.82412 23.5387 6.64697 23.676 6.60308C24.0597 6.48237 24.4528 6.39301 24.8053 6.18294C25.0424 6.04028 25.3153 5.98384 25.5867 5.94621C25.8347 5.91172 25.9876 6.07476 25.9891 6.36636V6.36792Z" fill="#4E6137"/>
<path d="M11.2994 13.5481C11.1621 13.2345 10.9999 12.9304 10.9656 12.5777C10.9017 11.9365 11.0467 11.3768 11.5973 10.9896C12.1885 10.5742 12.8108 10.5459 13.4487 10.883C13.5579 10.941 13.6624 11.0115 13.7685 11.0758C13.781 11.0852 13.7934 11.0962 13.8059 11.1056C13.82 11.1087 13.8356 11.1134 13.8496 11.1166C13.8434 11.1025 13.8371 11.0899 13.8309 11.0758C13.8246 11.0586 13.8168 11.0413 13.8106 11.0241C13.1914 9.87026 14.1007 8.69606 15.1458 8.64903C15.8133 8.61924 16.3764 8.91554 16.8475 9.38585C16.9707 9.50969 17.0783 9.64922 17.1625 9.80442C17.292 10.0427 17.2779 10.1509 17.0689 10.3265C16.4388 10.8579 15.8009 11.3815 15.1738 11.9161C14.7511 12.2767 14.3394 12.6514 13.9213 13.0198C13.8137 13.1138 13.781 13.1718 13.9182 13.3004C14.3113 13.6657 14.7418 13.9698 15.2066 14.23C15.623 14.462 16.027 14.4338 16.456 14.2316C16.9426 14.0027 17.2031 13.628 17.2982 13.117C17.3185 13.0057 17.3435 12.8896 17.4776 12.8975C17.618 12.9053 17.6211 13.0323 17.6242 13.1405C17.6414 13.7096 17.7506 14.2426 18.1249 14.6988C18.4353 15.0782 18.8065 15.3948 19.1387 15.7507C19.2713 15.8934 19.3867 16.0486 19.4788 16.2194C19.5271 16.3104 19.5599 16.4076 19.4694 16.4938C19.3852 16.5737 19.2931 16.5392 19.2105 16.4922C19.1075 16.4326 19.0077 16.3699 18.911 16.2994C18.8159 16.2304 18.7784 16.243 18.7613 16.3668C18.6802 16.9563 18.5757 17.5426 18.5133 18.1336C18.4134 19.0695 18.3667 20.0086 18.401 20.9492C18.4197 21.4681 18.4649 21.987 18.5351 22.5028C18.5382 22.5278 18.5398 22.5529 18.5429 22.578C18.5538 22.6768 18.5491 22.774 18.4322 22.8038C18.3214 22.832 18.2762 22.7473 18.2403 22.6658C18.0953 22.3397 17.9627 22.0089 17.866 21.6656C17.5712 20.6231 17.4994 19.5618 17.5899 18.4848C17.6117 18.2261 17.632 17.9658 17.6538 17.7103C17.5868 17.6915 17.5712 17.7354 17.5493 17.7605C17.2421 18.1226 16.8475 18.3123 16.3811 18.3593C16.3 18.3672 16.2204 18.386 16.1409 18.3907C15.9646 18.4001 15.8929 18.4785 15.9069 18.665C15.9428 19.1369 15.9194 19.6057 15.7353 20.0509C15.4218 20.8112 14.8572 21.131 14.043 21.0354C13.5143 20.9743 13.0463 20.7767 12.6221 20.4601C12.5878 20.4334 12.5519 20.4083 12.516 20.3832C12.5113 20.3801 12.5035 20.3832 12.4817 20.3832C12.4926 20.54 12.5129 20.6968 12.5129 20.8535C12.5129 21.512 12.0325 22.0716 11.3852 22.1704C11.1107 22.2127 10.8705 22.1171 10.6412 21.9776C10.3074 21.7738 10.0313 21.501 9.75212 21.2329C9.20308 20.7046 8.63689 20.192 8.10813 19.6417C8.09098 19.6245 8.07382 19.6057 8.05354 19.59C7.58562 19.1902 7.69168 19.2467 7.24715 19.5821C7.07402 19.7123 7.07246 19.8518 7.22843 20.0117C7.59965 20.3911 7.99427 20.7501 8.33586 21.1577C8.57294 21.4399 8.81314 21.7205 9.04711 22.0058C9.12666 22.1014 9.18749 22.2112 9.23428 22.3287C9.26703 22.4118 9.26547 22.4887 9.20932 22.5576C9.14693 22.636 9.05959 22.6439 8.97068 22.6235C8.82562 22.589 8.71488 22.4965 8.60882 22.3977C8.24695 22.0622 7.91161 21.6985 7.57158 21.3395C7.32202 21.0762 7.06154 20.8238 6.7683 20.6074C6.6794 20.5431 6.59049 20.4695 6.45323 20.4883C6.50315 20.6325 6.59205 20.736 6.67784 20.8394C6.93364 21.1483 7.22375 21.4242 7.51075 21.7048C7.90069 22.0858 8.25319 22.4996 8.5979 22.9198C8.63377 22.9637 8.66653 23.0091 8.69928 23.0546C8.77883 23.169 8.83186 23.2929 8.7258 23.4152C8.61194 23.5453 8.46688 23.5312 8.33274 23.4559C7.99895 23.2647 7.72443 23.0013 7.47019 22.7128C7.02722 22.2112 6.58737 21.7079 6.10853 21.2392C5.99934 21.1326 5.93851 21.1373 5.82465 21.2392C5.44719 21.5763 5.05257 21.8945 4.76246 22.3178C4.70631 22.4009 4.64392 22.4792 4.594 22.5655C4.40683 22.8868 4.3694 23.2067 4.58776 23.5359C4.98238 24.1269 5.4082 24.6866 6.01494 25.0801C6.24111 25.2274 6.48911 25.298 6.75115 25.3278C6.96171 25.3513 7.14109 25.2776 7.30486 25.1506C7.74471 24.8088 8.16585 24.4467 8.54955 24.0422C8.92389 23.6472 9.32474 23.2803 9.73808 22.926C9.85194 22.8288 9.97516 22.7426 10.0984 22.658C10.2871 22.5278 10.4649 22.5028 10.6833 22.6376C10.9609 22.8085 11.2308 22.9872 11.4647 23.2129C11.9701 23.6989 12.4817 24.1755 12.9699 24.6787C13.611 25.3372 14.3284 25.8482 15.2425 26.0458C15.7026 26.1445 16.0941 26.3859 16.4591 26.6807C16.8989 27.035 17.2967 27.43 17.6726 27.8502C17.8348 28.032 18.011 28.2013 18.1826 28.3754C18.2466 28.4396 18.2871 28.5164 18.2169 28.5886C18.1545 28.6528 18.0781 28.6152 18.0157 28.565C17.7911 28.3848 17.5915 28.1763 17.398 27.963C17.0112 27.5351 16.5885 27.1478 16.13 26.7967C15.8118 26.5521 15.4577 26.3844 15.0709 26.3013C14.2099 26.1147 13.5189 25.6476 12.9044 25.0393C12.3709 24.511 11.8297 23.9921 11.2932 23.4685C11.0639 23.2443 10.8003 23.0656 10.546 22.8727C10.4493 22.8006 10.3713 22.8085 10.2778 22.8727C10.0079 23.0577 9.77707 23.285 9.53687 23.5061C8.92233 24.0736 8.35614 24.6913 7.71976 25.24C7.05218 25.8169 6.4158 25.6993 5.83401 25.334C5.19139 24.9296 4.73594 24.3401 4.32572 23.713C4.01065 23.2317 4.07928 22.7646 4.38032 22.3084C4.64859 21.9039 4.97302 21.5512 5.34581 21.2408C5.47994 21.1295 5.61408 21.0166 5.74978 20.9068C5.87768 20.8018 6.00714 20.7924 6.13504 20.9084C6.2645 21.026 6.39552 21.142 6.52654 21.258C6.55618 21.2847 6.58893 21.3395 6.6326 21.2925C6.6716 21.2502 6.62013 21.2157 6.59361 21.1859C6.45791 21.037 6.33157 20.8833 6.23331 20.7077C6.16 20.5776 6.10697 20.4428 6.22239 20.308C6.33625 20.1747 6.47975 20.1747 6.6326 20.2233C6.76518 20.2657 6.87749 20.344 6.98667 20.4256C7.50451 20.8159 7.91784 21.3129 8.36861 21.7722C8.41697 21.8208 8.45128 21.8992 8.54019 21.8976C8.56982 21.8412 8.52303 21.8145 8.49807 21.7848C8.09254 21.3082 7.68232 20.8363 7.21907 20.4146C7.13641 20.3393 7.05686 20.2594 6.98355 20.1732C6.75895 19.9129 6.76986 19.6527 7.00851 19.405C7.02566 19.3877 7.04438 19.3689 7.0631 19.3533C7.57158 18.9629 7.65892 18.8657 8.20952 19.3658C8.90829 19.9992 9.58366 20.6607 10.27 21.3082C10.4337 21.4634 10.6084 21.6045 10.8003 21.7236C11.3571 22.0685 12.1432 21.6703 12.2025 21.0119C12.2243 20.7595 12.1947 20.5118 12.1167 20.2704C12.0808 20.1606 12.0418 20.0446 12.151 19.96C12.2664 19.8722 12.3725 19.9364 12.4723 20.0101C12.8623 20.3033 13.2569 20.5917 13.7482 20.6921C14.0929 20.7626 14.4376 20.7924 14.7808 20.6733C15.2378 20.5134 15.4047 20.1261 15.5341 19.7107C15.6433 19.358 15.6137 18.9911 15.6121 18.6274C15.6121 18.2668 15.701 18.1634 16.0551 18.1054C16.2391 18.0756 16.4279 18.0615 16.6041 18.0066C17.2795 17.7965 17.6351 17.298 17.7802 16.6286C17.8192 16.4515 17.8348 16.2712 17.8613 16.0909C17.8675 16.0486 17.8753 16.0031 17.894 15.9655C17.9362 15.8824 17.9798 15.7805 18.0999 15.8212C18.2029 15.8557 18.206 15.9545 18.192 16.0423C18.1405 16.3511 18.0734 16.6568 18.0313 16.9657C17.8379 18.4048 17.7069 19.8439 18.0563 21.28C18.0656 21.316 18.0609 21.3568 18.1187 21.374C18.1187 20.9601 18.1171 20.5478 18.1187 20.1371C18.1249 18.8171 18.2777 17.5128 18.5024 16.2147C18.518 16.1238 18.5273 16.025 18.5991 15.9545C18.6459 15.909 18.6989 15.8824 18.7675 15.9075C18.8065 15.9216 18.8533 15.9921 18.8907 15.9216C18.9188 15.8683 18.8549 15.8353 18.8221 15.8024C18.5679 15.5453 18.3058 15.2945 18.0563 15.0311C17.7178 14.6753 17.4823 14.2629 17.3934 13.7237C17.2015 14.136 16.8553 14.321 16.5105 14.5044C16.0551 14.7474 15.5918 14.7599 15.1302 14.5263C14.5686 14.2441 14.0633 13.8789 13.6219 13.4305C13.4659 13.2722 13.455 13.1546 13.6 12.9884C14.0134 12.5165 14.5047 12.1262 14.9773 11.7201C15.5887 11.195 16.208 10.6776 16.8287 10.165C16.9488 10.0662 16.9473 9.99254 16.863 9.8734C16.4918 9.34822 15.9865 9.03938 15.3594 8.95159C14.826 8.87634 14.4251 9.14442 14.1319 9.55672C13.8543 9.94551 13.8168 10.3798 14.0368 10.8187C14.1522 11.0492 14.3066 11.2545 14.4595 11.4599C14.5219 11.5446 14.5764 11.6339 14.4953 11.7311C14.4049 11.8362 14.305 11.7876 14.2115 11.728C13.9276 11.5477 13.6453 11.3627 13.3567 11.1887C12.7079 10.7999 11.9124 10.9253 11.4912 11.5007C11.1762 11.9286 11.1668 12.4178 11.3368 12.8991C11.5661 13.5496 11.9358 14.1156 12.3975 14.6298C13.1025 15.4152 13.8137 16.1944 14.539 16.9625C14.6903 17.1224 14.8541 17.2651 15.0257 17.4015C15.1068 17.4658 15.2144 17.552 15.1083 17.6617C15.0147 17.7573 14.9196 17.7103 14.8182 17.6241C13.7607 16.7195 12.9434 15.5814 11.9311 14.6329C11.5802 14.3037 11.2448 13.9572 10.8502 13.6782C10.3386 13.3161 9.80515 13.3239 9.25923 13.5888C9.00811 13.7111 8.84122 13.9118 8.77415 14.1783C8.67901 14.5577 8.68524 14.9355 8.86618 15.2945C9.16565 15.8902 9.55091 16.4295 9.98608 16.928C10.557 17.5818 11.1356 18.2292 11.7408 18.8516C11.811 18.9237 11.8874 18.988 11.9576 19.0601C12.0278 19.1322 12.1105 19.2122 12.0106 19.3156C11.9233 19.405 11.8438 19.347 11.7658 19.2843C11.368 18.9676 11.0171 18.6039 10.6677 18.2371C10.089 17.6319 9.52907 17.0064 8.8693 16.4844C8.50587 16.1975 8.10657 16.025 7.63085 16.0423C6.95547 16.0658 6.47975 16.6929 6.65132 17.3544C6.74491 17.7134 6.92116 18.0254 7.19256 18.281C7.23311 18.3201 7.27678 18.3562 7.31266 18.3985C7.35789 18.4503 7.37037 18.513 7.32046 18.5678C7.27055 18.6227 7.20348 18.6196 7.15356 18.5725C7.03814 18.4675 6.91336 18.3672 6.81822 18.2465C6.26606 17.5426 6.16312 16.8214 6.68876 16.1771C6.88217 15.9388 7.13485 15.8118 7.44212 15.7711C7.97712 15.7005 8.45284 15.8416 8.89269 16.1395C8.94104 16.1724 8.98004 16.2304 9.05335 16.2226C9.09234 16.163 9.03931 16.1301 9.01435 16.0925C8.86306 15.862 8.71176 15.6315 8.60102 15.3791C8.37017 14.8524 8.3499 14.3178 8.63221 13.8068C8.90205 13.3192 9.64761 13.0292 10.2668 13.1217C10.6474 13.1797 10.9453 13.3882 11.2479 13.5982C11.262 13.6233 11.2807 13.6735 11.3025 13.6563C11.3368 13.6296 11.3228 13.5794 11.2963 13.5434L11.2994 13.5481ZM8.30466 23.1001C8.32026 23.1157 8.3343 23.1314 8.3499 23.1471C8.37173 23.1189 8.36082 23.0922 8.3499 23.064C7.88665 22.4479 7.32358 21.9243 6.78546 21.3772C6.75739 21.3489 6.72151 21.2925 6.68096 21.3348C6.63104 21.3881 6.69967 21.4211 6.72931 21.454C7.10365 21.8725 7.47799 22.2911 7.85701 22.705C7.99115 22.8524 8.12997 22.9966 8.30622 23.0969L8.30466 23.1001ZM18.9672 15.9655C18.9562 15.9749 18.9406 15.9843 18.9422 15.989C18.9469 16.0047 18.9562 16.0203 18.9656 16.036C18.9734 16.0282 18.9874 16.0203 18.9874 16.0125C18.9859 15.9968 18.9765 15.9827 18.9687 15.9655H18.9672ZM8.71644 22.0654C8.71644 22.0654 8.70396 22.0748 8.70552 22.0779C8.70708 22.0858 8.71332 22.0936 8.71644 22.1014C8.72112 22.0967 8.72892 22.092 8.72736 22.0905C8.7258 22.0826 8.72112 22.0748 8.71644 22.0654Z" fill="#4C4C4C"/>
<path d="M22.0523 9.78718C22.3986 9.9079 22.7277 10.0239 23.0568 10.1368C23.2112 10.1901 23.3547 10.2622 23.4904 10.3531C23.6324 10.4488 23.6573 10.5507 23.5559 10.698C23.3594 10.9818 23.1535 11.2561 22.932 11.5195C22.5374 11.9882 22.1397 12.4554 21.7419 12.921C21.5673 13.1264 21.4846 13.1248 21.3115 12.921C21.1773 12.7627 21.0635 12.5918 20.9745 12.4052C20.8123 12.0588 20.6345 11.7217 20.3818 11.4317C20.2664 11.2984 20.282 11.1809 20.3787 11.0445C20.6657 10.6447 21.0276 10.3202 21.3941 9.99882C21.4316 9.9659 21.4674 9.93298 21.5049 9.90006C21.4955 9.88438 21.4908 9.87341 21.483 9.86557C21.299 9.68058 21.1617 9.73702 20.9855 9.91103C20.7063 10.1885 20.4052 10.4425 20.1338 10.7294C20.087 10.7795 20.0387 10.8297 19.9841 10.8705C19.9233 10.9159 19.8546 10.9238 19.8001 10.8595C19.7455 10.7952 19.7642 10.7309 19.8156 10.6745C19.942 10.535 20.0637 10.3923 20.1978 10.2622C20.4863 9.98628 20.7827 9.71664 21.0775 9.44699C21.129 9.39996 21.1836 9.35764 21.157 9.27455C21.0354 8.88733 20.9823 8.47973 20.8357 8.09878C20.672 7.67706 20.6657 7.67079 20.3148 7.94984C19.7657 8.38723 19.3118 8.92495 18.808 9.41094C18.571 9.63982 18.3698 9.90946 18.0547 10.0741C18.3963 10.1211 18.6599 10.3061 18.9281 10.4958C19.4475 10.8626 19.7798 11.3847 20.1338 11.8926C20.5285 12.457 20.9714 12.9821 21.4503 13.4744C21.8465 13.8836 22.2411 14.2927 22.6497 14.6878C23.4171 15.4325 23.7728 16.3699 23.9287 17.4015C23.9974 17.853 24.0208 18.3123 24.0972 18.7622C24.2313 19.5586 24.6462 20.2014 25.2202 20.7517C25.6039 21.1201 25.9985 21.4744 26.4041 21.8177C26.5039 21.9023 26.5959 21.9964 26.6864 22.092C26.7378 22.1469 26.7581 22.2159 26.6942 22.2755C26.6411 22.3241 26.5788 22.3131 26.5257 22.2676C25.802 21.6531 25.0362 21.084 24.4559 20.3174C24.0176 19.7389 23.8055 19.0695 23.7447 18.3515C23.6885 17.6758 23.5949 17.0096 23.3766 16.3637C23.2237 15.9106 22.9944 15.5077 22.6762 15.1565C22.4033 14.8555 22.1272 14.5561 21.8324 14.2771C21.0135 13.4979 20.2945 12.6373 19.6675 11.6982C19.4164 11.322 19.12 10.9865 18.7503 10.7184C18.5133 10.5459 18.2762 10.3955 17.9783 10.3704C17.9533 10.3688 17.9299 10.361 17.9049 10.3547C17.7802 10.3155 17.632 10.2873 17.6211 10.1258C17.6117 9.98158 17.7287 9.90946 17.8472 9.85773C18.0562 9.76524 18.2263 9.62414 18.3869 9.4611C18.8642 8.97355 19.3446 8.4907 19.8266 8.00942C20.0169 7.81816 20.2399 7.66609 20.4567 7.50775C20.5986 7.40429 20.7156 7.4231 20.8326 7.55165C21.0931 7.83697 21.1758 8.19754 21.2725 8.55341C21.3146 8.71018 21.352 8.86851 21.3879 9.02685C21.4066 9.11151 21.4394 9.10994 21.5002 9.05977C21.6281 8.95631 21.6858 8.8544 21.6094 8.67569C21.4628 8.33863 21.3395 7.9906 21.2147 7.64258C21.1227 7.38704 21.1773 7.31649 21.4378 7.24595C21.7856 7.15189 22.1288 7.03744 22.475 6.93711C22.6996 6.87284 22.7667 6.90733 22.8431 7.12524C23.0069 7.58927 23.3391 7.91222 23.7119 8.20381C23.754 8.23673 23.8039 8.29474 23.8539 8.22733C23.91 8.15208 23.8227 8.13797 23.7852 8.10505C23.4468 7.80718 23.1816 7.45759 23.0272 7.02804C22.9617 6.84775 23.0069 6.71607 23.18 6.64395C23.8804 6.34923 24.5932 6.08899 25.3247 5.87892C25.4776 5.83502 25.5899 5.92438 25.6133 6.08899C25.6351 6.24105 25.6039 6.38685 25.5602 6.53265C25.423 6.98414 25.2015 7.39958 25.0034 7.82286C24.6727 8.52362 24.3233 9.21654 23.9802 9.91103C23.8273 10.2199 23.7603 10.2355 23.4639 10.0678C23.1598 9.89536 22.8431 9.75113 22.5125 9.63825C22.3315 9.57711 22.1849 9.61474 22.0555 9.79032L22.0523 9.78718ZM25.3434 6.17678C25.3107 6.18148 25.2873 6.18148 25.2654 6.18775C24.6353 6.38528 24.0208 6.62201 23.4 6.84775C23.283 6.89008 23.2861 6.95122 23.3313 7.04685C23.506 7.41369 23.7306 7.73821 24.0629 7.97963C24.1471 8.04077 24.2157 8.11288 24.1814 8.23046C24.0941 8.52519 23.8086 8.62866 23.5653 8.43897C23.1691 8.13013 22.7995 7.79464 22.6154 7.30552C22.5795 7.20832 22.5312 7.20832 22.447 7.23811C22.1693 7.33217 21.8932 7.42623 21.6109 7.49992C21.4846 7.53284 21.4846 7.57516 21.5267 7.67863C21.6593 8.01569 21.7778 8.35745 21.9088 8.6945C21.965 8.83716 21.951 8.95787 21.8543 9.07859C21.7716 9.18205 21.6702 9.26514 21.5766 9.35607C21.4612 9.46894 21.4893 9.57241 21.6374 9.63825C21.7435 9.68528 21.8153 9.64609 21.8823 9.57241C22.1147 9.31531 22.3908 9.29022 22.6996 9.41251C22.996 9.52851 23.2892 9.64923 23.5622 9.81227C23.6745 9.87968 23.7135 9.85303 23.7634 9.74642C24.0083 9.23379 24.2578 8.72272 24.5121 8.21478C24.7632 7.71155 25.005 7.20362 25.2186 6.68471C25.2842 6.52481 25.3512 6.36177 25.3434 6.17364V6.17678ZM21.5283 12.7329C21.5595 12.7 21.586 12.6733 21.6094 12.6467C21.6858 12.5557 21.7638 12.4664 21.8387 12.3739C22.2769 11.8283 22.7698 11.3267 23.18 10.7576C23.3313 10.5491 23.3313 10.5412 23.0849 10.444C22.8353 10.3469 22.5795 10.2669 22.33 10.1744C21.7825 9.97217 21.7778 9.96747 21.3645 10.3751C21.1118 10.6243 20.8435 10.8611 20.6298 11.1479C20.594 11.195 20.5409 11.2357 20.6127 11.3047C20.8513 11.532 20.9979 11.8205 21.1383 12.1136C21.2241 12.2939 21.3161 12.4711 21.4378 12.6294C21.4628 12.6623 21.4939 12.6921 21.5298 12.7313L21.5283 12.7329Z" fill="#4C4C4C"/>
<path d="M8.30468 23.1001C8.12999 22.9998 7.98961 22.854 7.85547 22.7082C7.47645 22.2943 7.10211 21.8757 6.72777 21.4572C6.69813 21.4242 6.6295 21.3913 6.67941 21.338C6.71997 21.2941 6.75584 21.3506 6.78392 21.3804C7.32359 21.9259 7.88511 22.4511 8.34835 23.0672C8.33432 23.0782 8.31872 23.0907 8.30468 23.1017V23.1001Z" fill="#4C4C4C"/>
<path d="M11.2994 13.5481C11.3275 13.5857 11.3416 13.6343 11.3057 13.661C11.2838 13.6782 11.2651 13.628 11.251 13.603C11.2666 13.5842 11.2823 13.5653 11.2979 13.5481H11.2994Z" fill="#4C4C4C"/>
<path d="M18.9672 15.9655C18.975 15.9827 18.9844 15.9968 18.9859 16.0125C18.9859 16.0188 18.9719 16.0282 18.9641 16.036C18.9563 16.0203 18.9454 16.0062 18.9407 15.989C18.9407 15.9843 18.9547 15.9749 18.9657 15.9655H18.9672Z" fill="#4C4C4C"/>
<path d="M8.34838 23.064C8.36086 23.0922 8.37179 23.1188 8.34838 23.1471C8.33276 23.1314 8.31871 23.1157 8.3031 23.1C8.31715 23.089 8.33276 23.0765 8.34681 23.0655L8.34838 23.064Z" fill="#4C4C4C"/>
<path d="M13.806 11.1056C13.7935 11.0962 13.781 11.0852 13.7685 11.0758C13.7825 11.0585 13.7966 11.0413 13.8106 11.024C13.8169 11.0413 13.8247 11.0585 13.8309 11.0758C13.8231 11.0852 13.8138 11.0962 13.806 11.1056Z" fill="#4C4C4C"/>
<path d="M13.8309 11.0758L13.8496 11.1166C13.8356 11.1134 13.82 11.1087 13.8059 11.1056C13.8137 11.0962 13.8231 11.0852 13.8309 11.0758Z" fill="#4C4C4C"/>
<path d="M8.71643 22.0654C8.72112 22.0748 8.7258 22.0827 8.72736 22.0905C8.72736 22.0936 8.71956 22.0984 8.71643 22.1015C8.71175 22.0936 8.70707 22.0858 8.70551 22.078C8.70551 22.0748 8.71175 22.0701 8.71643 22.0654Z" fill="#4C4C4C"/>
</g>
</g>
<defs>
<clipPath id="clip0_336_17719">
<rect width="32" height="32" fill="white" transform="translate(0 0.000610352)"/>
</clipPath>
<clipPath id="clip1_336_17719">
<rect width="26.7254" height="26.7582" fill="white" transform="translate(2.62238 0.251953)"/>
</clipPath>
</defs>
</svg>
