<svg width="48" height="48" viewBox="0 0 48 48" fill="none" xmlns="http://www.w3.org/2000/svg">
<g clip-path="url(#clip0_336_17647)">
<path d="M24.0539 47.9822C20.2659 48.1512 16.7278 47.1413 13.3647 45.5169C11.2582 44.4999 9.32674 43.1917 7.72014 41.42C6.37773 39.9429 4.88181 38.6168 3.86429 36.8451C2.43263 34.3474 1.30087 31.7598 0.690362 28.9207C0.401174 27.5695 0.461867 26.1966 0.119126 24.8525C-0.0700963 24.1086 -0.0343941 23.2569 0.229803 22.4699C0.301207 22.2542 0.379752 22.0242 0.376182 21.8014C0.369041 19.6415 1.00811 17.6182 1.72573 15.6344C2.72539 12.8672 4.11421 10.3192 6.18137 8.1809C7.37025 6.95182 8.55914 5.7443 9.91582 4.68772C11.6974 3.3077 13.6539 2.29785 15.7353 1.50362C17.4918 0.831576 19.3162 0.281725 21.1692 0.120004C25.1107 -0.225001 28.988 0.14516 32.726 1.65815C34.7539 2.47754 36.5997 3.54849 38.3562 4.83866C39.3345 5.55742 40.0985 6.48463 40.9804 7.29323C44.2078 10.2545 46.0037 14.0568 47.1676 18.1932C47.4567 19.2175 47.7388 20.292 47.6603 21.4025C47.6353 21.7367 47.6959 22.0961 47.8066 22.4123C48.0244 23.0305 48.028 23.6666 47.9637 24.2883C47.6781 27.0699 47.3532 29.8443 46.325 32.4858C45.4681 34.6924 44.3614 36.7552 42.9618 38.642C42.2514 39.6015 41.2874 40.3598 40.477 41.2511C38.9168 42.9653 37.0424 44.2447 35.0395 45.348C32.9759 46.4836 30.7124 47.0586 28.4524 47.6408C26.9958 48.0146 25.5249 47.9822 24.0468 47.9822H24.0539Z" fill="white"/>
<path d="M34.9825 23.9185C35.136 25.6291 34.1613 26.7324 32.9367 27.656C32.2834 28.1484 31.3265 28.1951 30.7553 27.1744C30.3911 26.5275 30.0091 25.8735 29.7628 25.1799C29.3058 23.8897 29.5343 22.6894 30.5125 21.6903C31.1909 20.9967 31.987 20.5798 32.9724 20.8745C34.0471 21.1979 34.6861 21.9706 34.9218 23.0631C34.9825 23.3399 34.9646 23.6345 34.9825 23.9185Z" fill="#F0AF75"/>
<path d="M20.1773 24.4318C19.9952 25.6393 19.6311 27.1164 18.1066 27.9645C17.5639 28.2664 17.3354 28.2412 16.9106 27.7848C16.1679 26.987 15.5753 26.0849 15.1076 25.0966C14.8827 24.6187 14.8291 24.1227 14.7863 23.6052C14.6685 22.1857 15.5896 21.3699 16.5571 20.9746C17.5353 20.5756 18.485 20.8488 19.3169 21.74C19.931 22.3977 20.2523 23.1632 20.1809 24.4318H20.1773Z" fill="#F0AF75"/>
<path d="M25.0894 9.02863C26.2819 9.03941 27.4636 8.99628 28.5739 9.62879C30.2627 10.5883 30.9517 12.1049 30.027 13.7976C29.3701 14.9979 29.4487 15.9287 30.1234 16.9673C30.1841 17.0608 30.2234 17.1722 30.2698 17.28C30.4055 17.5962 30.5947 17.9592 30.2163 18.1928C29.8699 18.4084 29.5736 18.1317 29.313 17.9089C29.0559 17.6825 28.8203 17.4309 28.5632 17.2081C27.8135 16.5576 27.0887 16.0797 25.9605 16.4426C25.1787 16.6942 24.254 16.6655 23.4328 16.3815C22.1975 15.9575 21.3478 16.4103 20.6695 17.4273C20.4481 17.758 20.1839 18.0598 19.9162 18.3545C19.7591 18.527 19.5341 18.6169 19.2985 18.5306C18.9736 18.412 18.9486 18.1102 18.9272 17.8227C18.8844 17.3375 19.1271 16.9278 19.3485 16.5361C19.7198 15.8748 19.6662 15.2854 19.3592 14.5882C18.4238 12.4499 19.1486 10.6243 21.2621 9.64676C22.0369 9.28738 22.8509 9.01784 23.7256 9.03222C24.1826 9.03941 24.636 9.03222 25.093 9.03222L25.0894 9.02863Z" fill="#C4D4B2"/>
<path d="M17.3882 35.8666C16.5885 35.8666 15.7888 35.8989 14.9926 35.8558C14.4285 35.8234 13.8608 35.7228 13.3075 35.597C12.8112 35.4892 12.5434 35.1191 12.4649 34.6231C12.422 34.3392 12.4042 34.0517 12.3899 33.7642C12.2078 30.156 13.2753 29.1174 16.2029 27.8596C17.7417 27.1983 19.0055 27.6475 20.0909 29.0707C20.5086 29.6169 20.8121 30.2638 20.9406 30.9395C21.1762 32.1793 21.369 33.43 21.494 34.6842C21.5832 35.5827 21.2441 35.9169 20.2908 35.96C19.3233 36.0031 18.3522 35.9708 17.3847 35.9708C17.3847 35.9384 17.3847 35.9025 17.3847 35.8702L17.3882 35.8666Z" fill="#728759"/>
<path d="M30.6342 35.5948C29.8987 35.5948 29.1597 35.6127 28.4242 35.5876C27.9279 35.5732 27.6102 35.2965 27.4031 34.8221C26.5641 32.903 27.3496 30.3442 29.1525 29.302C30.1343 28.7342 31.1412 28.2095 32.1372 27.6633C32.7977 27.3003 33.4582 27.3722 34.0866 27.7208C34.8006 28.1125 35.354 28.6803 35.711 29.4242C36.3644 30.7899 36.6179 32.2453 36.6036 33.7476C36.5965 34.5634 36.3501 34.8509 35.5218 35.0377C33.9116 35.3971 32.2801 35.5876 30.6306 35.5948H30.6342Z" fill="#EB7D5C"/>
<path d="M35.6509 31.332C35.5045 30.0526 34.8441 29.0895 33.6873 28.4857C33.2482 28.2557 32.7305 28.1479 32.3949 27.731C32.4234 27.2171 32.8019 26.908 33.0197 26.5163C33.3553 25.9125 33.623 25.2872 33.798 24.6116C33.9801 23.9 33.873 23.2244 33.5659 22.5991C33.1196 21.6862 32.4234 20.9603 31.3774 20.8633C30.3241 20.7626 29.5316 21.3448 28.9425 22.1966C27.8821 23.7383 28.0892 25.7257 29.4316 27.0697C29.7351 27.3716 30.1778 27.5477 30.3563 27.9466C29.7958 28.5935 29.0746 28.6079 28.4462 28.8271C27.2502 29.244 26.5576 30.0598 26.3362 31.2997C26.2362 31.8603 26.1327 32.4209 26.0327 32.9672C24.519 33.3086 22.3982 33.4452 21.063 33.2834C20.938 32.4533 20.8452 31.5979 20.6703 30.7606C20.4382 29.6357 19.8562 28.7552 18.7745 28.2593C18.4781 28.1227 18.139 28.0221 17.9462 27.6663C18.0319 27.0985 18.4639 26.6852 18.7102 26.1785C19.1743 25.2261 19.4457 24.2486 19.2636 23.1813C19.0565 21.9558 18.014 20.8381 16.9608 20.6872C15.7148 20.5075 14.4474 21.2119 13.9011 22.4266C13.7619 22.732 13.6905 23.0806 13.6548 23.4184C13.5262 24.6332 13.9511 25.6646 14.7151 26.5918C15.0257 26.9691 15.5434 27.2027 15.6362 27.8532C15.0829 28.0365 14.5402 28.1766 14.0296 28.3959C12.6837 28.9745 11.7947 29.9268 11.559 31.447C11.4019 32.4748 11.3734 33.5062 11.4127 34.5377C11.4198 34.7749 11.5483 35.0085 11.8268 34.9581C12.473 34.8395 12.9764 35.3642 13.6191 35.3031C14.2403 35.2456 14.8722 35.296 15.5006 35.2924C16.7537 35.2852 18.0104 35.2852 19.2636 35.2636C20.024 35.2492 20.913 35.5044 21.1915 34.3795C21.2165 34.2753 21.4664 34.1927 21.6235 34.1603C21.8449 34.11 22.0769 34.1136 22.3054 34.0992C23.3872 34.0273 24.469 33.9663 25.5472 33.88C26.429 33.8081 26.6647 33.5817 26.7896 32.7731C26.861 32.3203 26.9146 31.8639 26.9967 31.4147C27.1752 30.4156 27.7643 29.7867 28.7175 29.4704C29.4209 29.2368 30.1385 29.0248 30.7918 28.6906C31.3667 28.3959 31.8593 28.4138 32.3949 28.7013C32.7947 28.917 33.2232 29.0895 33.6123 29.3195C34.2871 29.7184 34.7298 30.3401 34.8441 31.102C34.9904 32.0544 35.1368 33.0283 34.8583 33.9698C34.3835 34.1927 33.9229 34.1028 33.4802 34.11C31.5987 34.1424 29.7172 34.1567 27.8357 34.1927C27.5572 34.1963 27.2752 34.2538 27.0038 34.322C26.936 34.34 26.8575 34.5053 26.8646 34.5952C26.8753 34.6886 26.9753 34.8324 27.0538 34.8431C27.3894 34.8935 27.7322 34.9294 28.0713 34.9258C30.1813 34.9006 32.2913 34.8647 34.4013 34.836C34.5727 34.836 34.7441 34.8395 34.9155 34.818C35.451 34.7533 35.7188 34.4909 35.7223 33.9052C35.7295 33.0462 35.733 32.1765 35.6366 31.3248L35.6509 31.332ZM15.165 25.9305C14.5259 25.2189 14.3295 24.3313 14.4152 23.3789C14.4581 22.9009 14.658 22.502 14.9722 22.157C16.0254 20.9962 17.6391 21.2226 18.3425 22.6242C18.5495 23.0339 18.6281 23.5011 18.5888 24.1983C18.5745 24.6475 18.4424 25.1399 18.2175 25.6071C17.1643 27.7813 16.7751 27.7346 15.165 25.9305ZM20.049 34.5161C19.9634 34.5664 19.8205 34.5556 19.7241 34.5664C19.5064 34.588 19.2921 34.6024 19.0744 34.6095C18.6281 34.6275 18.1818 34.6275 17.7355 34.6275C17.7034 34.6275 17.6748 34.6203 17.6534 34.6059C16.718 34.7102 15.7719 34.7174 14.8294 34.7174C14.6009 34.7174 14.6009 34.358 14.8294 34.358C15.904 34.358 16.9929 34.3652 18.0604 34.1999C18.4103 34.1459 18.7566 34.0669 19.1101 34.0238C19.4064 33.9878 19.7277 33.9627 20.0062 34.092C20.0133 34.092 20.0133 34.0992 20.0169 34.1028C20.0847 34.128 20.1276 34.1927 20.1383 34.2717C20.149 34.3652 20.1419 34.4622 20.049 34.5161ZM20.0776 33.3625C19.41 33.6464 18.7138 33.5422 18.0426 33.6212C16.2932 33.8225 14.5366 33.9591 12.8122 34.3292C12.3731 34.4227 12.1553 34.2466 12.1338 33.8225C12.091 33.0786 12.116 32.3383 12.2445 31.6015C12.4587 30.3617 13.1585 29.5171 14.3045 29.0859C15.0472 28.8056 15.8147 28.5827 16.5895 28.4282C17.6784 28.2054 19.3993 29.3231 19.8027 30.509C20.1133 31.429 20.3061 32.385 20.0776 33.3661V33.3625ZM31.0525 27.2602C29.835 26.793 29.0353 25.6466 29.0282 24.245C29.0781 23.2459 29.4673 22.3439 30.4812 21.8012C31.0418 21.4994 31.5844 21.564 32.0914 21.9055C32.884 22.4337 33.3267 23.5155 33.1232 24.4607C32.9126 25.431 32.4663 26.2899 31.8094 27.0338C31.6094 27.2602 31.3595 27.3788 31.0525 27.2602Z" fill="#4C4C4C"/>
<path d="M17.6394 18.2789C17.7501 17.9231 17.7786 17.6824 17.8929 17.4955C18.6033 16.3311 18.5676 15.2637 17.9536 13.9879C17.1681 12.3599 17.7394 11.0015 19.2424 10.006C19.3388 9.9449 19.4316 9.88021 19.528 9.82271C21.7523 8.42113 26.1544 8.74098 27.7717 9.67177C29.4069 10.6133 30.1245 12.2701 29.5604 14.0311C29.3997 14.5378 29.0891 14.9403 28.7392 15.3176C28.4607 15.6159 28.4572 15.9142 28.6571 16.2448C28.7464 16.3922 28.8428 16.5359 28.8999 16.6977C29.057 17.1289 29.7853 17.5278 29.2569 17.9914C28.8178 18.376 28.3322 17.7902 27.8824 17.5961C27.6253 17.4847 27.3861 17.3158 27.1576 17.1505C26.8042 16.8953 26.4329 16.863 26.0258 16.978C24.4514 17.42 22.8769 17.3517 21.3096 16.9277C20.8776 16.8091 20.5313 16.8845 20.2385 17.2152C20.1992 17.2583 20.1493 17.2906 20.1171 17.3338C19.5352 18.1244 18.714 18.3292 17.6394 18.2789ZM27.2254 16.2053C27.2933 16.288 27.3504 16.3958 27.4361 16.4497C27.5146 16.5 27.6539 16.5395 27.7253 16.5036C27.9466 16.3922 27.8003 16.2233 27.7396 16.0867C27.6967 15.9897 27.6039 15.9178 27.5361 15.8351C27.5039 15.2925 27.9288 15.0661 28.2358 14.7354C29.464 13.4165 29.1748 11.4076 27.6467 10.4552C27.0576 10.0887 26.4079 9.85865 25.7295 9.76521C24.4835 9.59271 23.2304 9.55318 21.9808 9.71849C21.0061 9.84787 20.1028 10.2001 19.3245 10.8146C18.4855 11.4759 18.1249 12.324 18.4677 13.3949C18.5534 13.6681 18.5998 13.97 18.7462 14.2036C19.1853 14.9115 19.4174 15.6339 19.1639 16.4748C19.0996 16.6869 19.4566 16.8917 19.628 16.7192C20.3456 15.9933 21.1596 16.1478 22.0093 16.3634C23.1911 16.6653 24.3764 16.6437 25.5582 16.3419C26.1008 16.2017 26.6471 15.9717 27.2254 16.2017V16.2053ZM19.2246 17.1109C19.1889 17.075 19.146 17.0031 19.1175 17.0103C19.0425 17.0247 18.9711 17.0714 18.8961 17.1073C18.9318 17.1433 18.9747 17.2152 19.0032 17.208C19.0782 17.1936 19.1496 17.1469 19.2246 17.1109Z" fill="#4C4C4C"/>
</g>
<defs>
<clipPath id="clip0_336_17647">
<rect width="48" height="48" fill="white" transform="translate(0 0.000610352)"/>
</clipPath>
</defs>
</svg>
