<svg width="48" height="48" viewBox="0 0 48 48" fill="none" xmlns="http://www.w3.org/2000/svg">
<g clip-path="url(#clip0_336_17674)">
<path d="M23.9415 47.948C20.2124 48.1601 16.733 47.1537 13.4214 45.5615C11.3159 44.5515 9.37108 43.2611 7.76522 41.4891C6.42701 40.0083 4.92464 38.6892 3.90404 36.9208C2.43379 34.3797 1.26687 31.7487 0.674485 28.8373C0.399705 27.4859 0.442528 26.1129 0.11422 24.7686C-0.0713454 24.021 -0.0356597 23.1692 0.256963 22.3892C0.335471 22.1808 0.371157 21.9435 0.385431 21.7171C0.663779 17.1704 2.41238 13.1807 4.98888 9.52175C5.60981 8.63756 6.35921 7.82885 7.14072 7.08484C8.83579 5.47461 10.6129 3.93986 12.697 2.85799C14.8738 1.72579 17.1898 0.94943 19.5879 0.406696C21.9003 -0.118067 24.2413 -0.0389944 26.5537 0.119153C28.6378 0.262924 30.6718 0.88833 32.6417 1.65031C34.6722 2.43386 36.535 3.48698 38.28 4.80608C39.2971 5.57166 40.1214 6.50976 41.0278 7.37598C44.4465 10.6432 46.3771 14.7047 47.3584 19.3053C47.6475 20.6532 47.6225 22.0262 47.9187 23.3705C48.0864 24.1253 47.9758 24.9483 47.7581 25.7499C47.4762 26.7922 47.5619 27.8956 47.3335 28.9703C47.0052 30.4943 46.5305 31.9536 45.9489 33.3805C45.2102 35.1884 44.2217 36.8669 43.1047 38.4664C42.9727 38.6533 42.8371 38.8402 42.6765 39.0019C41.0171 40.6517 39.5183 42.4884 37.5592 43.7967C36.0461 44.8067 34.5045 45.7591 32.763 46.3845C30.8824 47.0567 28.9661 47.5778 27.0141 47.9157C26.0184 48.0882 24.9693 47.9445 23.9451 47.9445L23.9415 47.948Z" fill="white"/>
<path d="M24.1716 8.35972C26.9765 8.42801 29.4709 9.26547 31.7191 11.0662C33.0858 12.1589 34.1707 13.4564 35.1984 14.8186C37.4823 17.8306 37.3289 21.0942 35.9728 24.4225C35.6481 25.2168 35.2341 25.9752 34.8452 26.7408C34.003 28.4049 33.5926 30.1841 33.5569 32.0351C33.5176 34.0983 33.1108 36.1362 33.1929 38.2101C33.225 38.9757 32.9574 39.1985 32.1687 39.3099C30.7627 39.5076 29.3674 39.7952 27.9328 39.7269C27.5938 39.7089 27.2298 39.7089 26.9158 39.8131C25.7632 40.2013 24.664 39.6622 23.5364 39.6586C23.2295 39.6586 23.0261 39.3962 22.9333 39.1194C22.8262 38.796 22.7549 38.4581 22.7049 38.1238C22.6478 37.7285 22.6763 37.3151 22.5943 36.9269C22.3552 35.7983 21.9412 35.5503 20.7814 35.7552C20.0535 35.8846 19.329 36.0176 18.5975 36.1182C16.9345 36.3483 15.5963 35.4533 15.1003 33.8323C14.9147 33.2213 14.8077 32.6102 14.8041 31.974C14.8041 31.5715 14.8184 31.1617 14.7399 30.7736C14.6043 30.1014 14.3437 29.5443 13.4659 29.8319C13.002 29.9828 12.5809 29.8714 12.1312 29.7851C11.389 29.645 11.2391 29.1669 11.5103 28.52C12.1241 27.0391 12.7165 25.5475 13.3767 24.0882C13.7228 23.3191 13.8156 22.5643 13.6265 21.7484C13.4159 20.8426 13.4231 19.9261 13.6372 19.0203C13.8763 18.0139 13.7835 16.9788 14.019 15.958C14.59 13.46 15.9496 11.5766 18.0515 10.2359C19.9036 9.05701 21.9055 8.25189 24.1716 8.36331V8.35972ZM21.6486 17.615C22.6335 17.2627 22.7334 17.1046 22.4373 16.3354C22.3338 16.0694 22.2089 15.8106 22.0947 15.5483C21.8877 15.0702 21.5201 14.8725 21.0063 14.8797C20.4924 14.8869 20.1534 15.1169 19.925 15.5734C19.5753 16.2707 19.5003 16.9967 19.693 17.7479C19.7501 17.9672 19.8322 18.19 19.9464 18.3877C20.8885 20.0267 21.9127 21.6154 23.0832 23.0962C23.258 23.3191 23.4828 23.5095 23.7112 23.6749C24.1038 23.9588 24.6498 23.8187 24.896 23.4017C25.1601 22.9596 25.0851 22.3953 24.6355 22.2444C24.0966 22.0611 23.804 21.7196 23.5292 21.2595C23.0618 20.4724 22.5514 19.714 22.0269 18.9664C21.7557 18.5818 21.5166 18.2044 21.5594 17.712L21.6522 17.6185L21.6486 17.615ZM15.7533 19.0311C15.814 19.5415 15.7747 20.095 15.9567 20.5551C16.7525 22.5355 17.7553 24.3973 19.3754 25.8458C19.8072 26.234 20.3104 26.5 20.8457 26.7048C21.3524 26.8989 21.8306 26.6905 22.1161 26.1693C22.3016 25.8314 22.0376 25.339 21.5237 25.0874C21.3738 25.0155 21.2025 24.9293 21.0419 24.9293C20.3889 24.9293 20.0213 24.5088 19.6502 24.0559C18.7759 22.9812 18.1122 21.7843 17.5233 20.5371C17.1094 19.6637 17.0701 18.7939 17.3449 17.863C17.8766 16.0802 18.9936 14.7324 20.3996 13.6109C21.1561 13.0071 21.9305 12.4176 22.8084 11.9863C23.0725 11.8569 23.233 11.5946 23.1652 11.2747C23.1081 11.0015 22.6656 10.7679 22.3373 10.793C21.8056 10.8362 21.3631 11.095 20.9313 11.3753C19.329 12.4105 17.998 13.726 16.9238 15.3146C16.1601 16.4432 15.7426 17.6581 15.7533 19.0347V19.0311Z" fill="#F0AF75"/>
<path d="M15.7562 19.0283C15.7455 17.6517 16.1631 16.4404 16.9267 15.3082C18.0009 13.7195 19.3319 12.404 20.9342 11.3689C21.366 11.0885 21.8085 10.8298 22.3402 10.7866C22.6686 10.7615 23.1111 10.9987 23.1682 11.2683C23.236 11.5881 23.0754 11.8505 22.8113 11.9799C21.9334 12.4112 21.1591 13.0007 20.4025 13.6045C18.9965 14.7259 17.8795 16.0738 17.3478 17.8565C17.0695 18.7839 17.1123 19.6537 17.5263 20.5307C18.1151 21.7779 18.7788 22.9748 19.6531 24.0495C20.0242 24.5059 20.3918 24.9229 21.0449 24.9229C21.2054 24.9229 21.3732 25.0055 21.5266 25.081C22.0405 25.329 22.3046 25.825 22.119 26.1629C21.8335 26.6841 21.3553 26.8889 20.8486 26.6984C20.3133 26.4936 19.8101 26.2276 19.3783 25.8394C17.7582 24.3909 16.7554 22.5291 15.9597 20.5487C15.7741 20.0886 15.8169 19.5351 15.7562 19.0247V19.0283Z" fill="#F0AF75"/>
<path d="M21.5554 17.7043C21.5126 18.1967 21.7517 18.5741 22.0229 18.9587C22.5475 19.7063 23.0578 20.4683 23.5253 21.2518C23.8 21.7119 24.0927 22.0534 24.6315 22.2367C25.0812 22.3876 25.1561 22.9519 24.892 23.394C24.6422 23.811 24.0998 23.9511 23.7073 23.6672C23.4789 23.5018 23.2541 23.3078 23.0792 23.0885C21.9051 21.6041 20.8845 20.019 19.9424 18.38C19.8282 18.1823 19.7462 17.9631 19.6891 17.7402C19.4964 16.989 19.5713 16.2666 19.921 15.5657C20.1494 15.1092 20.4884 14.8792 21.0023 14.872C21.5162 14.8648 21.8802 15.0625 22.0907 15.5405C22.2049 15.8029 22.3298 16.0617 22.4333 16.3277C22.7295 17.0933 22.6296 17.255 21.6446 17.6073C21.5733 17.5641 21.5019 17.521 21.4305 17.4779C21.4698 17.5533 21.5126 17.6252 21.5518 17.7007L21.5554 17.7043Z" fill="#F0AF75"/>
<path d="M21.555 17.7048C21.5158 17.6293 21.473 17.5574 21.4337 17.4819C21.5051 17.5251 21.5765 17.5682 21.6478 17.6113L21.555 17.7048Z" fill="#F0AF75"/>
<path d="M23.952 27.2943C23.5523 27.2943 23.1562 27.2943 22.7565 27.2943C22.4639 27.2943 22.2034 27.208 21.9607 27.0355C19.9338 25.5834 18.1852 23.8726 17.2645 21.4896C16.5222 19.5666 16.2796 17.579 17.3573 15.6956C18.906 12.9855 21.0722 11.1632 24.3089 10.7355C26.0039 10.5127 27.5955 10.6816 29.1514 11.2315C31.2854 11.9863 32.6307 13.4923 33.1981 15.7459C33.7727 18.0247 33.4836 20.228 32.5415 22.2803C30.7572 26.1621 30.5967 25.853 26.9888 26.9349C25.9932 27.2332 24.9762 27.2907 23.9484 27.2943H23.952ZM20.958 14.9085C20.6297 14.8725 20.3228 15.0091 20.1087 15.3038C19.4806 16.1664 19.4485 17.0902 19.8267 18.0678C20.6297 20.1345 22.1035 21.7376 23.4488 23.4305C23.5487 23.5563 23.7129 23.6497 23.8663 23.718C24.2196 23.8761 24.5301 23.7755 24.7835 23.4952C25.0333 23.222 25.0475 22.8518 24.7621 22.575C23.6023 21.4608 22.8208 20.059 21.8751 18.7795C21.6467 18.474 21.5967 18.1541 21.8751 17.8486C22.1856 17.5107 22.1927 17.1621 22.0178 16.7487C21.818 16.2815 21.686 15.7819 21.5182 15.3002C21.4362 15.0594 21.2435 14.9516 20.9651 14.9049L20.958 14.9085Z" fill="#C4D4B2"/>
<path d="M20.9582 14.909C21.2366 14.9557 21.4293 15.0636 21.5114 15.3044C21.6791 15.786 21.8111 16.2856 22.011 16.7529C22.1894 17.1698 22.1787 17.5149 21.8682 17.8527C21.5899 18.1546 21.6434 18.4781 21.8682 18.7836C22.8139 20.0632 23.599 21.465 24.7552 22.5792C25.0407 22.8523 25.03 23.2226 24.7766 23.4993C24.5197 23.7797 24.2128 23.8803 23.8595 23.7222C23.706 23.6539 23.5454 23.5604 23.4419 23.4346C22.093 21.7453 20.6192 20.1387 19.8199 18.072C19.4416 17.0943 19.4737 16.1706 20.1018 15.308C20.3195 15.0133 20.6228 14.8767 20.9511 14.9126L20.9582 14.909Z" fill="#C4D4B2"/>
<path d="M29.5807 16.6451C29.57 17.7989 29.256 18.6543 28.7992 19.4558C27.9677 20.9079 26.8651 22.1371 25.6089 23.2226C24.9809 23.7653 24.5669 23.715 23.9959 23.0753C22.5863 21.4866 21.398 19.7506 20.7307 17.7018C20.5701 17.2094 20.4416 16.7134 20.4666 16.1922C20.5344 14.6467 22.1367 13.1802 23.8746 14.2873C24.0673 14.4095 24.2529 14.5425 24.4242 14.6898C24.7275 14.945 25.0344 14.927 25.3663 14.7509C25.6161 14.6179 25.873 14.4778 26.1442 14.4095C26.5796 14.2945 27.0292 14.1794 27.4753 14.1651C28.5708 14.1291 29.1739 14.6036 29.4416 15.6711C29.5379 16.0556 29.5593 16.4582 29.5843 16.6487L29.5807 16.6451Z" fill="#EB7D5C"/>
<path d="M34.4555 13.4562C33.7953 12.227 32.9032 11.1703 31.8397 10.2969C29.3846 8.28766 26.676 6.91105 23.3787 7.32439C21.6265 7.54364 19.8351 7.72336 18.3042 8.70819C15.5992 10.4478 13.7899 12.8811 13.0334 16.0477C12.6195 17.7873 12.5088 19.5737 12.5517 21.3564C12.5731 22.2442 12.4446 23.0601 12.0806 23.858C11.6774 24.7458 11.3062 25.6444 10.9208 26.5393C10.2214 28.1711 10.3784 28.4874 12.0699 28.8433C12.8098 28.999 13.2142 29.4866 13.2832 30.3061C13.3082 30.5937 13.3082 30.8812 13.3546 31.1652C13.4723 31.8445 13.5723 32.5274 13.7543 33.1887C14.1254 34.5402 14.9783 35.3489 16.4164 35.4747C17.3871 35.5609 18.347 35.4819 19.3141 35.4064C21.2804 35.2482 21.5516 35.4998 21.7835 37.4839C21.862 38.1668 21.912 38.8533 21.9941 39.5362C22.0012 39.5937 22.1689 39.6836 22.251 39.6728C22.3402 39.662 22.4865 39.5578 22.4937 39.4859C22.6186 38.1596 22.4508 36.8549 22.144 35.5717C22.0476 35.1656 21.7122 34.9104 21.2768 34.8313C20.4881 34.6839 19.6959 34.6157 18.8966 34.7199C18.0437 34.8313 17.1944 34.8241 16.3415 34.7127C15.378 34.5869 14.7642 34.0478 14.5215 33.1348C14.3145 32.362 14.1932 31.5641 14.0612 30.7734C13.9791 30.263 13.9684 29.7454 13.8934 29.235C13.8185 28.7282 13.508 28.4191 13.0013 28.3257C12.5516 28.243 12.102 28.1711 11.6595 28.0669C11.3205 27.9878 11.1956 27.7218 11.3205 27.4163C11.7309 26.4099 12.1662 25.4107 12.6052 24.4151C13.0049 23.5094 13.2297 22.5856 13.1833 21.5793C13.1119 20.1379 13.326 18.711 13.4973 17.2877C13.847 14.4051 15.2887 12.1155 17.4049 10.2286C18.2649 9.46298 19.2606 8.91665 20.3954 8.62911C21.8406 8.26609 23.2895 8.02887 24.7847 8.02887C25.5983 8.02887 26.3763 8.15108 27.1257 8.43862C28.4103 8.92744 29.6486 9.52049 30.7335 10.3723C33.0209 12.1695 34.5554 14.4087 34.9337 17.4027C35.1763 19.3292 35.0051 21.1839 34.4484 23.017C34.1664 23.9479 33.8845 24.8932 33.4813 25.7773C32.5178 27.8836 31.9504 30.0941 31.6006 32.3764C31.5721 32.5633 31.5364 32.7466 31.4936 32.9263C31.4936 32.9335 31.4936 32.9371 31.4936 32.9443C31.4579 33.8968 31.4686 34.8493 31.49 35.8053C31.5007 36.2906 31.5186 36.7758 31.5257 37.2646C31.5293 37.6492 31.5507 38.0338 31.49 38.4148C31.4686 38.5514 31.3366 38.5693 31.2438 38.5154C31.1938 38.5514 31.1332 38.5658 31.0582 38.5442C30.9119 38.5047 30.7085 38.3932 30.6764 38.271C30.5693 37.8936 30.4765 37.4982 30.4801 37.1101C30.4837 36.3193 30.5336 35.5286 30.6014 34.7414C30.6122 34.6013 30.6407 34.4647 30.6764 34.3461C30.6764 34.3353 30.6693 34.3281 30.6693 34.3173C30.6264 33.7099 30.7727 33.1097 30.944 32.5238C30.9547 32.1536 30.9726 31.7834 31.0261 31.4204C31.2081 30.166 31.333 28.9116 31.3152 27.6428C31.2938 26.0613 31.2438 25.9355 30.2446 24.735C30.2946 24.6344 30.3267 24.5194 30.398 24.4331C32.8282 21.4283 33.1744 18.1108 31.8005 14.5704C31.0225 12.572 29.5594 11.2601 27.5039 10.6994C22.847 9.43423 19.0286 11.1667 16.6127 14.7717C15.4029 16.5724 15.0889 18.5637 15.6527 20.6987C15.981 21.9423 16.5163 23.0673 17.23 24.1132C19.1749 26.9635 21.8549 28.0453 25.2308 27.5206C26.8223 27.2762 28.3354 26.8161 29.7985 26.1476C30.2089 25.9607 30.4908 26.108 30.5336 26.5357C30.605 27.2187 30.6835 27.9123 30.6443 28.5917C30.5765 29.7382 30.423 30.8776 30.2946 32.0206C30.1447 33.3325 29.9662 34.6408 29.8271 35.9563C29.7557 36.6428 29.7414 37.3365 29.9056 38.0158C30.0983 38.803 30.5551 39.3349 31.3794 39.5074C31.8433 39.6045 32.1502 39.3852 32.1609 38.8856C32.1823 37.5629 32.193 36.2439 32.1966 34.9212C32.2073 32.0098 32.8175 29.2278 33.9702 26.5573C34.6304 25.0297 35.1906 23.459 35.5261 21.8237C36.1185 18.9231 35.8794 16.1124 34.4626 13.4634L34.4555 13.4562ZM28.9207 24.1168C27.8465 24.2246 26.7688 24.3181 25.6911 24.3972C25.2914 24.4259 24.8882 24.3756 24.5349 24.1599C24.41 24.0844 24.2565 23.8796 24.4492 23.7682C24.8275 23.5453 25.2486 23.4519 25.5341 23.0313C26.4655 21.6619 27.6824 20.501 28.471 19.0201C28.9171 18.1899 29.1241 17.3524 28.967 16.3783C28.6816 14.6064 26.8223 13.7761 25.3057 14.3692C24.8346 14.5525 24.41 14.8544 23.9104 15.1275C23.3751 14.7897 22.9683 14.4626 22.5044 14.2577C20.9806 13.5856 19.4354 14.4662 19.182 16.1232C19.0108 17.2482 19.2784 18.2941 19.8315 19.2645C20.7986 20.961 21.9941 22.4958 23.2002 24.0234C23.7676 24.7422 24.5313 25.0873 25.4484 25.0333C26.5832 24.9686 27.7181 24.8896 28.8564 24.8249C29.0741 24.8141 29.2954 24.8428 29.513 24.8644C29.563 24.868 29.6415 24.9183 29.6451 24.9543C29.6593 25.0657 29.6915 25.231 29.6344 25.2849C29.4738 25.4395 29.2811 25.5761 29.0812 25.6695C27.2399 26.5142 25.3128 26.9419 23.2823 26.8916C21.416 26.8448 19.8601 26.1116 18.6253 24.7099C17.512 23.4447 16.7197 22.007 16.3343 20.3464C15.9097 18.5097 16.1773 16.7665 17.2229 15.239C19.7744 11.5225 22.8826 10.6096 26.6832 11.2853C29.2525 11.7417 30.7692 13.4095 31.4615 15.8823C32.1288 18.2581 31.8255 20.5405 30.7263 22.7294C30.3409 23.495 29.7842 24.0234 28.9099 24.1132L28.9207 24.1168ZM23.8355 23.6244C23.6998 23.5237 23.5678 23.4051 23.4715 23.2686C22.5187 21.9171 21.5551 20.5693 20.6273 19.1963C20.1384 18.4774 19.8529 17.6687 19.8743 16.6443C19.8851 16.5473 19.8922 16.3172 19.9421 16.0944C20.1456 15.1707 20.9378 14.6675 21.862 14.8508C22.3902 14.955 22.7899 15.2569 23.1539 15.6307C23.3894 15.8716 23.5607 16.2202 23.9247 16.2669C24.3458 16.3208 24.4314 15.8716 24.6669 15.6523C24.749 15.5732 24.8204 15.4834 24.9096 15.4115C25.6697 14.8184 26.676 14.7609 27.4575 15.2605C28.1142 15.6775 28.4782 16.6443 28.264 17.5357C28.1713 17.9203 28.0178 18.3049 27.8108 18.6391C27.3969 19.3185 26.9579 19.9942 26.4726 20.6232C25.7411 21.5685 24.8632 22.3987 24.4064 23.5453C24.3136 23.7753 24.0389 23.7753 23.8319 23.6208L23.8355 23.6244Z" fill="#4C4C4C"/>
<path d="M35.4228 8.77957C35.2765 9.39778 35.2051 10.0771 34.5984 10.5156C34.5628 10.5408 34.4486 10.53 34.4414 10.5156C34.2166 9.78237 34.6413 9.20729 34.9303 8.60704C34.9624 8.53875 35.123 8.47765 35.198 8.49922C35.28 8.52438 35.3264 8.65377 35.4228 8.78316V8.77957Z" fill="#4C4C4C"/>
<path d="M38.3235 11.2678C38.2664 11.3864 38.2486 11.523 38.1772 11.5697C37.8096 11.8105 37.4278 12.0298 37.046 12.249C36.8961 12.3317 36.7105 12.3677 36.5963 12.2167C36.4215 11.9795 36.5928 11.8141 36.7783 11.6919C37.1887 11.4224 37.5777 11.0845 38.1058 11.0881C38.1808 11.0881 38.2557 11.2103 38.3235 11.2714V11.2678Z" fill="#4C4C4C"/>
<path d="M37.9272 15.1279C37.7667 15.0632 37.6025 15.0273 37.474 14.9374C37.4241 14.9015 37.4134 14.6858 37.4491 14.6679C37.9915 14.3552 38.5767 14.2869 39.1834 14.4235C39.2655 14.4414 39.3618 14.5708 39.3725 14.6571C39.3832 14.7326 39.294 14.8835 39.2298 14.8979C38.8015 14.9914 38.3626 15.0561 37.9308 15.1279H37.9272Z" fill="#4C4C4C"/>
</g>
<defs>
<clipPath id="clip0_336_17674">
<rect width="48" height="48" fill="white" transform="translate(0 0.000610352)"/>
</clipPath>
</defs>
</svg>
