<svg width="101" height="100" viewBox="0 0 101 100" fill="none" xmlns="http://www.w3.org/2000/svg">
<g clip-path="url(#clip0_49_4088)">
<path d="M100.317 31.6596C100.333 39.6526 99.1936 46.5275 97.2718 53.2856C96.0218 57.6909 94.3753 61.9293 92.4205 66.0676C90.2399 70.6898 87.6848 75.084 84.5736 79.1166C80.9117 83.8612 76.7762 88.1441 71.7156 91.4147C68.1749 93.7008 64.3203 95.3138 60.317 96.5431C58.3897 97.1382 56.4458 97.7 54.491 98.1784C51.589 98.8903 48.6485 99.3353 45.6419 99.263C44.5846 99.2352 43.5273 99.2519 42.47 99.263C40.2234 99.2797 38.0207 98.9181 35.8291 98.462C33.1529 97.9002 30.5427 97.1215 28.1363 95.7866C25.2839 94.2014 22.6077 92.3936 20.2013 90.1242C17.1286 87.2263 14.5791 83.9335 12.2498 80.4348C10.8786 78.3768 9.44692 76.3577 8.04824 74.3164C7.17269 73.0371 6.40727 71.6854 5.72996 70.2893C4.62313 68.0199 3.28503 65.8729 2.3434 63.5145C1.48987 61.3619 0.939213 59.1537 0.597803 56.8621C0.305953 54.9098 0.267406 52.9574 0.394058 51.0218C0.625336 47.5454 0.702428 44.0412 1.9249 40.6927C4.25419 34.3184 8.7641 30.3803 15.1352 28.6004C17.1892 28.0275 19.3368 27.8106 21.4899 27.6493C23.2024 27.5213 24.9095 27.5325 26.6165 27.4212C30.5537 27.1654 34.491 26.8984 38.2465 25.5189C41.5339 24.3119 44.5626 22.6878 47.2278 20.3405C49.4249 18.4048 51.4073 16.3079 53.2355 14.0162C55.5813 11.0738 58.3456 8.54301 61.3192 6.22912C62.9216 4.98318 64.48 3.68718 66.3192 2.80279C69.3919 1.33436 72.5747 0.327597 75.9723 -0.117382C79.9811 -0.645794 83.665 0.199665 87.1176 2.1242C90.5372 4.03204 93.0813 6.88547 95.0967 10.2506C97.404 14.1052 98.6705 18.327 99.48 22.7044C100.086 25.975 100.411 29.279 100.311 31.6708L100.317 31.6596Z" fill="#ECEAD0"/>
<path d="M77.8225 93.6451C75.5263 94.0178 73.2025 94.04 70.8897 94.2236C65.4767 94.6574 60.0692 94.2959 54.6617 94.4405C54.3534 94.4461 54.045 94.4572 53.7366 94.4405C52.9051 94.3849 52.7399 94.2403 52.7179 93.3948C52.7014 92.7329 52.6188 92.0654 52.8611 91.4091C52.9492 91.1644 52.9767 90.8863 52.9657 90.6248C52.7785 87.1596 53.3402 83.711 53.241 80.2457C53.1639 77.5035 53.0538 74.7614 52.7179 72.0359C52.7069 71.9469 52.7069 71.8579 52.7069 71.7689C52.806 68.1256 52.5858 64.4935 52.4426 60.8558C52.4316 60.5888 52.4426 60.3218 52.4481 60.0548C52.4591 59.76 52.5582 59.5487 52.9217 59.5931C55.2454 59.8879 57.5858 59.7934 59.9095 59.7044C67.4756 59.404 75.0417 59.4819 82.6078 59.4708C83.0538 59.4708 83.4723 59.3484 83.9018 59.2594C84.4965 59.1315 84.7554 59.3651 84.6672 59.9825C84.2708 62.619 84.2818 65.2777 84.0891 67.9198C83.9569 69.7387 83.7201 71.5853 83.9624 73.3541C84.2542 75.4733 83.9844 77.5981 84.3644 79.7117C84.5957 80.9966 84.447 82.3594 84.6948 83.672C84.9646 85.1182 84.1111 86.1417 83.3181 87.1206C81.958 88.8004 80.741 90.5915 79.4139 92.2935C79.0615 92.744 78.7036 93.189 78.3512 93.6396C78.175 93.6396 77.9987 93.6396 77.8225 93.6396V93.6451Z" fill="#FEF6EC"/>
<path d="M22.5803 53.3247C21.5616 53.2301 20.6089 53.6862 19.5792 53.6083C18.131 53.4971 17.9052 53.2412 17.8116 51.7561C17.4041 45.1482 17.6684 38.5347 17.5142 31.9212C17.4812 30.4305 17.294 28.9287 17.294 27.4214C17.294 26.9764 17.294 26.5314 17.294 26.0864C17.0407 25.0352 16.9856 23.9617 17.0296 22.8826C17.0296 22.6156 17.0296 22.3486 17.0296 22.0816C17.0021 21.3307 16.6607 20.6243 16.7598 19.8512C16.8204 19.3561 16.9911 19.0891 17.5032 19.1893C20.4988 19.7733 23.5274 19.6843 26.5506 19.6843C27.8722 19.6843 29.1937 19.6843 30.5153 19.6843C30.6915 19.6843 30.8677 19.6843 31.044 19.6843C32.8006 19.5007 34.5572 19.3283 36.3303 19.4173C36.5946 19.4173 36.8589 19.4173 37.1233 19.4173C38.4503 19.3784 39.7499 19.0001 41.088 19.1503C41.4404 19.1503 41.7929 19.1503 42.1453 19.1503C44.0836 18.8945 46.0219 18.5941 47.9823 18.6219C49.2213 18.6386 49.5351 18.9445 49.5407 20.1905C49.5517 23.0661 49.5296 25.9418 49.5572 28.8119C49.5572 29.3626 49.3589 29.8465 49.2818 30.3638C49.2818 31.3427 49.2818 32.3217 49.2818 33.3006C49.2818 36.8549 49.2268 40.4092 49.3094 43.9579C49.3369 45.1704 48.9625 46.1327 48.2411 46.9949C47.3655 48.0406 46.4514 49.0584 45.5098 50.043C43.8193 51.8117 41.6166 52.5515 39.3204 53.0299C38.5164 53.1967 37.7014 53.447 36.8534 53.3191C36.1486 53.3191 35.4437 53.3191 34.7389 53.3191C33.5935 53.8531 32.4481 53.4081 31.3028 53.3191C28.3953 53.3191 25.4878 53.3191 22.5803 53.3191V53.3247Z" fill="#FEF6EC"/>
<path d="M26.2807 76.436C26.3908 78.5663 25.5153 80.2405 24.1496 81.8258C22.3765 83.8894 20.1739 84.707 17.5582 84.8739C15.4492 85.0074 13.5604 84.568 11.9139 83.2664C9.81593 81.6088 9.2102 79.3617 9.63972 76.7753C9.89302 75.2345 10.2069 73.6771 11.2697 72.4923C12.5417 71.074 13.9844 69.6056 15.9888 69.6779C18.4117 69.7613 20.8732 69.9282 23.1034 71.1963C25.1298 72.3477 26.2752 74.0998 26.2752 76.4415L26.2807 76.436Z" fill="#FEF6EC"/>
<path d="M22.5802 53.3247C25.4877 53.3247 28.3952 53.3247 31.3027 53.3247C31.2476 53.7919 30.9337 53.8587 30.5483 53.8587C28.1419 53.8587 25.7355 53.8587 23.3291 53.8587C22.9436 53.8587 22.6298 53.7919 22.5747 53.3247H22.5802Z" fill="#FEF6EC"/>
<path d="M49.2762 33.3006C49.2762 32.3217 49.2762 31.3427 49.2762 30.3638C49.4414 30.4027 49.6672 30.425 49.7003 30.6085C49.8655 31.4262 49.8655 32.2494 49.7003 33.0615C49.6617 33.245 49.4414 33.2673 49.2762 33.3006Z" fill="#FEF6EC"/>
<path d="M34.7389 53.3247C35.4437 53.3247 36.1486 53.3247 36.8534 53.3247C36.2367 54.0867 35.3556 54.0867 34.7389 53.3247Z" fill="#FEF6EC"/>
<path d="M17.2884 26.0864C17.2884 26.5314 17.2884 26.9764 17.2884 27.4214C16.545 26.9486 16.5395 26.5592 17.2884 26.0864Z" fill="#FEF6EC"/>
<path d="M42.1397 19.1447C41.7872 19.1447 41.4348 19.1447 41.0824 19.1447C41.1099 18.7776 41.3082 18.6051 41.6771 18.6274C42.002 18.6496 42.1066 18.8554 42.1397 19.1391V19.1447Z" fill="#FEF6EC"/>
<path d="M37.1177 19.4118C36.8533 19.4118 36.589 19.4118 36.3247 19.4118C36.3633 19.1393 36.4293 18.8834 36.7818 18.9279C37.0571 18.9613 37.0791 19.1949 37.1177 19.4118Z" fill="#FEF6EC"/>
<path d="M17.0241 22.0815C17.0241 22.3485 17.0241 22.6155 17.0241 22.8825C16.7543 22.8436 16.501 22.7768 16.5451 22.4208C16.5781 22.1427 16.8094 22.1205 17.0241 22.0815Z" fill="#FEF6EC"/>
<path d="M31.0384 19.6789C30.8622 19.6789 30.686 19.6789 30.5098 19.6789C30.5483 19.4842 30.5428 19.2228 30.8347 19.2728C31.0054 19.3062 31.0219 19.512 31.0384 19.6789Z" fill="#FEF6EC"/>
<path d="M77.8225 93.6455C77.9987 93.6455 78.1749 93.6455 78.3511 93.6455C78.3126 93.8402 78.3181 94.1016 78.0318 94.0516C77.8611 94.0237 77.8445 93.8124 77.8225 93.6455Z" fill="#FEF6EC"/>
<path d="M71.4844 83.216C71.4844 83.5275 71.4844 83.839 71.4844 84.1449C71.4954 84.9737 71.2036 85.6245 70.3831 85.9137C69.8104 86.1139 69.5461 86.4922 69.5461 87.1096C69.5461 87.8827 69.2653 88.5391 68.4943 88.7782C67.5913 89.0563 66.8038 88.667 66.2972 87.9439C65.752 87.1652 65.2234 86.3587 65.0582 85.3575C64.893 84.3396 64.849 83.3273 64.9426 82.3149C65.0472 81.1914 65.5979 80.6129 66.6551 80.4349C67.6023 80.2736 68.5604 80.1457 69.5186 80.0344C70.7025 79.8954 71.099 80.1957 71.3798 81.3638C71.4128 81.4917 71.4459 81.6252 71.4514 81.7531C71.4624 82.2426 71.4514 82.7265 71.4514 83.216C71.4624 83.216 71.4679 83.216 71.4789 83.216H71.4844Z" fill="#A8BE8D"/>
<path d="M69.2982 35.1585C72.4315 35.3421 75.4821 36.0374 78.5658 36.5491C79.2156 36.6548 79.4799 37.0552 79.3863 37.6838C79.3092 38.2066 79.2046 38.7406 79.0339 39.2356C77.8775 42.5952 76.7927 45.9771 75.7575 49.3756C75.5812 49.954 75.5152 50.705 74.7883 50.8384C74.0174 50.9775 73.8136 50.1932 73.4502 49.7316C72.5416 48.5857 71.6826 47.4065 70.785 46.2496C70.0691 45.3263 70.0361 45.3096 69.111 45.9771C65.763 48.4022 63.0923 51.4225 61.187 55.1214C60.9832 55.5163 60.8125 55.9279 60.5923 56.3117C60.3059 56.8067 59.9039 56.8679 59.5185 56.4396C58.307 55.088 57.1121 53.7252 55.9172 52.3569C55.6583 52.0621 55.6088 51.7228 55.8235 51.3724C56.1044 50.9219 56.3577 50.4491 56.6771 50.0264C59.4909 46.2941 63.0978 43.4629 66.9194 40.8876C67.9931 40.1645 68.0262 40.1812 67.6517 38.9909C67.4425 38.3123 67.1561 37.6615 66.9249 36.9885C66.4898 35.7481 66.8312 35.2253 68.1198 35.153C68.5163 35.1307 68.9127 35.153 69.3092 35.153L69.2982 35.1585Z" fill="#A8BE8D"/>
<path d="M27.2774 76.5973C27.2994 77.7153 27.1177 78.8111 26.8699 79.8957C26.0549 83.4389 22.0021 86.7985 17.773 86.2089C15.3556 85.8696 13.186 85.1409 11.3137 83.4834C9.69479 82.0539 9.06153 80.2795 9.00096 78.177C8.87981 73.8273 10.4932 70.5845 14.2818 68.6767C16.3523 67.631 18.5274 67.7033 20.73 68.215C24.9977 69.2051 27.3049 72.1475 27.2829 76.5973H27.2774ZM23.8468 70.7403C23.9128 70.7681 23.9789 70.8015 24.045 70.8293C24.012 70.7625 23.9789 70.7014 23.9459 70.6346C23.8523 70.5512 23.7587 70.4677 23.6651 70.3843C23.588 70.2675 23.4943 70.1785 23.3457 70.2008C23.3126 70.2008 23.2851 70.2619 23.2576 70.2897C23.3677 70.3454 23.4778 70.401 23.588 70.4566C23.6706 70.5512 23.7587 70.6457 23.8413 70.7403H23.8468ZM10.9283 75.229C11.2477 74.9898 11.2807 74.6895 11.0935 74.3168C10.9999 74.4225 10.8952 74.5059 10.8512 74.6116C10.7686 74.8007 10.73 75.0065 10.6695 75.2068C9.88752 75.5294 9.93708 76.2246 9.95911 76.8921C9.95911 77.0979 10.1133 77.2036 10.3005 77.2259C10.4988 77.2481 10.6254 77.148 10.6584 76.9366C10.7466 76.3693 10.8402 75.8019 10.9283 75.2346V75.229ZM24.9206 76.9589C24.9701 76.1357 24.8325 75.4404 24.6177 74.7618C23.6871 71.8694 21.5175 70.5011 18.7421 69.8281C16.936 69.3887 15.4602 69.8726 14.2102 71.2186C12.0186 73.5715 11.088 76.2914 11.7928 79.5119C12.1838 81.2974 12.9106 82.777 14.8214 83.3109C14.86 83.3221 14.8985 83.3554 14.9371 83.3721C17.0902 84.4178 19.2157 84.4011 21.1761 82.9883C23.2576 81.4921 25.1188 79.7845 24.9206 76.9477V76.9589ZM24.8765 71.697C25.0582 71.7304 25.1463 71.6358 25.1463 71.4856C25.1463 71.2298 24.9701 71.0963 24.7443 71.0351C24.5847 70.9962 24.4855 71.0907 24.491 71.2409C24.5021 71.4968 24.6728 71.6247 24.882 71.6914L24.8765 71.697Z" fill="#A8BE8D"/>
<path d="M35.8842 61.9126C35.4547 61.5677 35.1738 61.3563 34.9095 61.1283C34.7718 61.0059 34.7058 60.8335 34.8049 60.6499C34.904 60.4664 35.0637 60.4553 35.2509 60.4831C36.4458 60.6388 37.3434 62.1573 36.9194 63.3198C36.4403 64.6436 35.1243 65.3389 33.5934 65.0608C33.3346 65.0163 33.0813 64.9328 32.8335 64.8438C31.7267 64.4267 31.5339 64.5157 31.567 65.6893C31.6276 67.8252 32.404 69.6663 33.9513 71.157C34.2707 71.4685 34.5681 71.6631 34.9425 71.2404C35.7355 70.3449 37.0461 70.1335 37.7234 69.0767C37.8996 68.7986 38.2795 68.8542 38.5879 68.8487C39.8434 68.8264 40.8566 69.5272 41.2146 70.6786C41.5395 71.7188 41.0879 72.859 40.0472 73.5432C39.4029 73.9715 38.698 74.194 37.9161 74.0549C37.1782 73.927 36.4458 73.7712 35.708 73.6433C34.9701 73.5154 34.8434 73.6099 34.8269 74.372C34.7608 77.2643 36.0273 79.4058 38.4392 80.8964C40.0196 81.8698 41.7322 82.3593 43.5879 82.3315C44.0284 82.3259 44.469 82.287 44.9095 82.3148C45.5262 82.3538 45.8732 82.7487 45.8456 83.3549C45.8181 83.9557 45.4602 84.2393 44.893 84.2282C43.4833 84.206 42.0681 84.1893 40.7024 83.7888C38.6705 83.1936 36.9304 82.1424 35.5317 80.5015C33.8357 78.5103 33.1088 76.302 33.8522 73.7212C33.9679 73.3207 33.9183 73.0871 33.5604 72.8312C31.1925 71.1514 30.4547 68.6262 30.1077 65.9118C30.0857 65.7394 30.0306 65.4779 30.1187 65.3945C30.8621 64.6714 30.7465 63.6535 31.0549 62.7858C31.1265 62.5745 31.2366 62.4243 31.1485 62.1962C30.7245 61.1227 30.763 60.0158 30.9888 58.9145C31.121 58.2637 30.9668 57.9467 30.2564 57.8243C29.491 57.6964 29.4249 57.5017 29.8489 56.8787C30.3721 56.1111 30.9282 55.3602 31.5229 54.6483C32.1011 53.953 32.415 53.953 33.0317 54.5815C33.6925 55.249 34.1331 56.0778 34.5571 56.9065C34.8214 57.4238 34.6397 57.7631 34.078 57.8799C33.8632 57.9244 33.643 57.9856 33.4282 57.9801C32.035 57.93 32.035 58.3527 32.0626 59.632C32.0791 60.3496 32.2553 61.0448 32.5747 61.6845C33.219 62.9749 34.1881 63.1863 35.3555 62.3075C35.4877 62.2074 35.6199 62.1128 35.8732 61.9237L35.8842 61.9126ZM32.6132 55.4659C32.5361 55.3936 32.4535 55.3158 32.3765 55.2434C32.3489 55.2879 32.3214 55.3324 32.2939 55.3825C32.404 55.4047 32.5196 55.427 32.6298 55.4492C32.7509 56.7619 32.7619 56.7786 33.5934 56.9955C33.3621 56.3726 33.1033 55.8497 32.6132 55.4659ZM35.3005 72.1804C36.8038 73.2706 38.2795 72.7144 39.7002 72.2138C40.1793 72.0469 40.4877 71.4685 40.2234 70.8677C39.9921 70.3282 39.5791 70.0501 38.9569 70.178C37.5527 70.4728 36.3192 71.068 35.3005 72.1804Z" fill="#A8BE8D"/>
<path d="M93.7531 30.0688C93.7256 32.7443 92.8831 34.7967 90.9447 36.2374C90.0967 36.8659 89.8599 37.5278 90.0857 38.4956C90.1848 38.9239 90.1573 39.38 90.2013 39.8194C90.2454 40.2533 90.0967 40.5815 89.7718 40.8707C89.2872 41.299 88.9789 41.2712 88.8577 40.6538C88.6044 39.3856 88.5934 38.0951 88.7916 36.8158C88.8853 36.2207 89.3368 35.8313 89.7608 35.4308C90.9833 34.285 91.8148 32.8722 92.2553 31.2647C92.9381 28.7617 91.7102 26.6703 90.0251 25.8304C88.9899 25.3131 87.5912 25.4077 86.6055 26.2865C85.9557 26.865 85.5923 27.6159 85.2289 28.3779C85.0086 28.8396 84.7553 29.2345 84.1275 29.0621C83.2024 28.8173 83.0813 28.4725 83.6209 27.6437C84.0064 27.0486 84.3753 26.4478 84.8434 25.9083C87.2113 23.1884 90.4767 23.3497 92.5031 26.331C93.3181 27.5269 93.7201 28.8841 93.7586 30.0688H93.7531Z" fill="#A8BE8D"/>
<path d="M90.4656 46.8888C89.6506 46.8721 89.2652 46.4828 89.2707 45.6929C89.2817 44.4915 89.7387 43.9353 90.7244 43.9186C91.4954 43.9075 92.3269 44.6695 92.3103 45.3648C92.2883 46.1546 91.3742 46.9111 90.4656 46.8888Z" fill="#A8BE8D"/>
<path d="M24.9205 76.9639C25.1132 79.8006 23.2575 81.5082 21.176 83.0044C19.2157 84.4117 17.0846 84.4339 14.937 83.3882C14.8985 83.3715 14.8599 83.3382 14.8214 83.327C12.9106 82.7931 12.1837 81.308 11.7928 79.528C11.0879 76.3075 12.0185 73.5876 14.2102 71.2348C15.4602 69.8887 16.9359 69.4048 18.7421 69.8442C21.5174 70.5172 23.687 71.8855 24.6176 74.7779C24.8379 75.4565 24.9701 76.1518 24.9205 76.975V76.9639Z" fill="#FFF6EE"/>
<path d="M10.9282 75.2285C10.8401 75.7958 10.7464 76.3632 10.6583 76.9305C10.6253 77.1419 10.4987 77.242 10.3004 77.2198C10.1132 77.2031 9.96451 77.0918 9.959 76.886C9.94248 76.2186 9.88742 75.5289 10.6694 75.2007C10.7575 75.2007 10.8401 75.2062 10.9282 75.2229V75.2285Z" fill="#7C9A57"/>
<path d="M24.8764 71.7026C24.6672 71.6303 24.4965 71.5024 24.4855 71.2521C24.4855 71.1019 24.5791 71.0018 24.7388 71.0463C24.9645 71.1019 25.1408 71.241 25.1408 71.4968C25.1408 71.647 25.0527 71.736 24.8709 71.7082L24.8764 71.7026Z" fill="#7C9A57"/>
<path d="M10.9282 75.2286C10.8456 75.2119 10.7575 75.2008 10.6694 75.2064C10.73 75.0061 10.7741 74.8003 10.8512 74.6112C10.8952 74.5055 10.9998 74.4277 11.0934 74.3164C11.2807 74.6891 11.2476 74.9894 10.9282 75.2286Z" fill="#7C9A57"/>
<path d="M23.5935 70.4619C23.4833 70.4063 23.3732 70.3507 23.2631 70.2951C23.2906 70.2617 23.3181 70.2116 23.3512 70.2061C23.4998 70.1838 23.5935 70.2728 23.6706 70.3896L23.599 70.4675L23.5935 70.4619Z" fill="#7C9A57"/>
<path d="M23.6705 70.3838C23.7641 70.4672 23.8577 70.5507 23.9513 70.6341C23.9128 70.6675 23.8797 70.7008 23.8467 70.7398C23.7641 70.6452 23.676 70.5507 23.5934 70.4561L23.665 70.3838H23.6705Z" fill="#7C9A57"/>
<path d="M23.9513 70.6348C23.9843 70.7015 24.0174 70.7627 24.0504 70.8294C23.9843 70.8016 23.9183 70.7683 23.8522 70.7404C23.8852 70.7015 23.9183 70.6681 23.9568 70.6348H23.9513Z" fill="#7C9A57"/>
<path d="M32.6188 55.4718C33.1089 55.8556 33.3677 56.3784 33.5989 57.0014C32.7619 56.7845 32.7564 56.7678 32.6353 55.4551L32.6188 55.4718Z" fill="#7C9A57"/>
<path d="M32.6297 55.4495C32.5196 55.4272 32.404 55.405 32.2938 55.3827C32.3214 55.3382 32.3489 55.2937 32.3764 55.2437C32.4535 55.316 32.5361 55.3938 32.6187 55.4661L32.6352 55.4495H32.6297Z" fill="#7C9A57"/>
<path d="M73.3125 22.5766C70.6033 22.7546 67.6242 22.432 64.6396 22.204C63.4447 22.1094 62.5306 22.3987 61.7266 23.322C60.9116 24.2509 59.9755 25.0741 59.0669 25.9084C58.6649 26.2755 58.296 26.8818 57.6187 26.5314C57.1011 26.2644 57.0845 25.3856 57.5471 24.6569C58.1418 23.7225 58.687 22.7546 59.1495 21.7479C59.5515 20.8802 59.535 20.6521 58.6429 20.3295C56.9083 19.6954 56.231 18.4161 56.0713 16.6751C55.8235 14.0053 55.829 11.3521 56.4293 8.72114C56.8257 6.98572 57.8665 5.87884 59.5185 5.20024C62.1616 4.11561 64.8984 3.98212 67.6848 4.0878C68.6539 4.12673 69.6176 4.19348 70.5812 4.21017C74.6727 4.28804 78.7586 4.40485 82.839 4.7497C83.7641 4.82758 84.6616 5.02225 85.4986 5.45055C86.8147 6.12357 87.6022 7.2249 87.8004 8.66551C88.1749 11.3743 88.0372 14.072 87.4315 16.7419C86.7927 19.5508 84.6341 21.9592 80.84 22.2985C79.6121 22.4098 78.3841 22.5043 77.1561 22.5488C75.9722 22.5933 74.7828 22.56 73.3015 22.56L73.3125 22.5766Z" fill="#EA7C5B"/>
<path d="M69.7443 64.2989C71.6827 64.2489 73.1915 64.8329 74.067 66.6239C74.5296 67.5751 74.5626 68.6319 74.5516 69.6164C74.5241 71.7245 74.056 73.7436 72.5031 75.3511C71.6661 76.2188 71.121 77.2923 70.7631 78.4548C70.6309 78.8775 70.5318 79.3169 70.3556 79.723C70.0527 80.4294 69.5516 80.8354 68.7201 80.8132C67.6133 80.7854 66.5395 80.5907 65.4877 80.2625C64.9481 80.0901 64.6342 79.8175 64.7994 79.0833C65.1463 77.5259 64.9371 76.0019 64.1937 74.5668C63.643 73.5044 63.1584 72.4087 62.9271 71.2183C62.3269 68.0979 63.8468 65.0498 67.4811 64.5715C68.2631 64.4658 69.023 64.1821 69.7443 64.3045V64.2989Z" fill="#FEDD94"/>
<path d="M17.2167 74.7782C17.2167 74.1997 17.2002 73.6268 17.2222 73.0483C17.2333 72.7424 17.2828 72.4254 17.3764 72.1361C17.5471 71.6022 17.9711 71.3741 18.4998 71.4075C18.9844 71.4409 19.1716 71.8358 19.2156 72.2418C19.2982 73.0317 19.4139 73.8437 19.3423 74.6224C19.2432 75.6292 19.6341 76.3078 20.3555 76.9085C21.2035 77.6149 22.0185 78.3603 22.6738 79.2613C23.2189 80.0122 23.1859 80.3182 22.5802 80.8521C21.9359 81.4195 21.4623 81.4529 20.8566 80.88C19.7993 79.8788 18.7751 78.8442 17.7289 77.8319C17.459 77.5704 17.3159 77.2868 17.3048 76.903C17.2883 76.1966 17.2278 75.4846 17.1892 74.7782C17.2002 74.7782 17.2112 74.7782 17.2222 74.7782H17.2167ZM18.241 72.5756C18.0372 73.8716 18.0482 75.1787 18.1474 76.6193C18.6815 75.1954 18.687 73.8938 18.241 72.5756Z" fill="#EA7C5B"/>
<path d="M22.7289 43.1513C23.2465 42.3559 23.7311 41.5884 24.2377 40.8375C24.4855 40.4759 24.7278 40.0921 25.0527 39.8084C25.4547 39.458 25.9503 39.4747 26.3908 39.7918C26.7597 40.0587 26.8258 40.4425 26.6771 40.8597C26.1485 42.317 25.5538 43.7576 24.6397 45.0036C23.7036 46.2718 21.9965 46.0159 21.2586 44.5975C20.9503 44.0079 20.6694 43.4183 20.5923 42.7397C20.5483 42.3226 20.5648 41.9388 20.8787 41.6329C21.121 41.3881 21.3467 41.0599 21.7487 41.1267C22.1617 41.199 22.2443 41.5772 22.3544 41.9165C22.4756 42.2892 22.3875 42.7175 22.7399 43.1513H22.7289Z" fill="#EA7C5B"/>
<path d="M22.9711 27.138C23.4997 26.8266 23.8191 26.3538 24.2046 25.9477C24.9315 25.1801 25.6418 24.3959 26.4127 23.6728C27.024 23.0999 27.5086 23.0999 27.905 23.5448C28.3456 24.0343 28.2519 24.5516 27.8555 24.9799C26.4568 26.5039 25.0581 28.0502 23.4557 29.3574C22.5086 30.1305 21.7156 29.8858 21.2586 28.7678C20.9392 27.9835 20.8731 27.138 20.9392 26.287C20.9667 25.9143 21.1484 25.6196 21.4182 25.3693C21.9469 24.8742 22.3268 24.9855 22.5636 25.6863C22.7123 26.1368 22.6682 26.643 22.9711 27.138Z" fill="#EA7C5B"/>
<path d="M22.1837 34.8417C22.9437 33.8182 23.5329 33.0117 24.1386 32.2163C24.4304 31.827 24.7223 31.4376 25.0417 31.0816C25.3335 30.759 25.7135 30.6255 26.1044 30.8702C26.556 31.1539 26.5725 31.5878 26.3798 32.0383C26.2751 32.2831 26.1595 32.5278 26.0053 32.7336C25.0196 34.0296 24.0505 35.3478 23.0097 36.5993C22.1397 37.645 21.5229 37.5394 20.9888 36.3212C20.7025 35.676 20.4877 35.003 20.2454 34.3355C20.1188 33.9907 20.1022 33.6402 20.306 33.3121C20.5152 32.9783 20.697 32.5556 21.165 32.6112C21.578 32.6613 21.6551 33.0673 21.7597 33.4066C21.8754 33.7849 21.9855 34.1687 22.1837 34.8417Z" fill="#EA7C5B"/>
<path d="M18.241 72.5752C18.6871 73.8934 18.6816 75.195 18.1474 76.6189C18.0483 75.1728 18.0373 73.8712 18.241 72.5752Z" fill="#EA7C5B"/>
<path d="M30.6584 56.7286C31.3265 56.7286 31.6202 57.0234 31.5394 57.613C31.4403 58.3639 31.3192 59.1092 31.2476 59.8601C31.2035 60.3329 31.1264 60.8224 31.4458 61.4009C32.2553 60.8669 33.1253 60.4942 34.1055 60.4275C35.4436 60.3385 36.198 60.8613 36.3797 62.0739C36.578 63.381 36.0328 64.232 34.7773 64.5713C33.5273 64.9106 32.7564 64.7716 31.2751 63.9372C29.8764 66.1733 30.9227 70.039 33.5438 72.0803C34.2927 70.979 35.2013 70.0501 36.4293 69.4883C37.0405 69.2102 37.6573 69.0044 38.3346 69.0267C39.3148 69.0545 40.0086 69.5273 40.4106 70.4172C40.8126 71.3072 40.5427 72.0803 39.8875 72.72C38.4227 74.1439 36.7597 74.8503 34.7167 74.0994C34.513 74.0271 34.3258 73.8769 33.9899 73.9993C33.4998 75.3676 33.709 76.7471 34.3643 78.0264C36.0328 81.258 38.7145 83.0824 42.2938 83.5107C43.1639 83.6164 44.0504 83.5163 44.9315 83.5385C45.3335 83.5497 45.9337 83.2271 46.0824 83.8111C46.2476 84.473 45.5372 84.5119 45.1297 84.6899C43.4667 85.4186 41.7211 85.8802 39.9425 86.214C34.7057 87.2096 29.9976 86.0527 25.8181 82.6764C25.1463 82.1313 24.9095 81.6196 25.1793 80.7463C25.6639 79.1722 25.9612 77.5703 25.8071 75.8849C25.4381 71.8467 22.9491 69.1435 18.9789 68.5817C18.5879 68.5261 18.1914 68.515 17.7949 68.476C14.6176 68.1645 12.1121 69.2714 10.328 71.9969C8.48327 74.817 8.11433 77.7983 9.57908 80.852C11.1375 84.0948 14.0009 85.1516 17.3489 85.0682C19.3753 85.0181 21.2366 84.3784 22.7839 82.9601C23.1419 82.6319 23.4502 82.376 23.0538 81.881C22.5857 81.2914 22.8004 80.7407 23.1198 80.1567C24.6562 77.3422 23.2024 71.5241 18.7531 70.534C16.9469 70.1336 15.328 70.5841 13.8412 71.513C12.6242 72.275 11.7652 73.4264 11.2035 74.7725C10.1242 77.3589 11.187 80.5461 13.6154 81.9366C16.0604 83.3383 18.4943 83.0824 20.9117 81.881C20.9337 81.386 20.5648 81.2413 20.317 81.0188C19.3258 80.1345 18.3401 79.2501 17.3269 78.3935C16.8919 78.0264 16.6661 77.6036 16.6055 77.0363C16.4073 75.2564 16.6991 73.482 16.6551 71.7021C16.6441 71.1793 16.9965 71.0569 17.4645 71.0736C18.3456 71.107 18.7035 71.2905 18.7311 71.9079C18.7751 72.7923 18.8302 73.7045 18.698 74.5722C18.4557 76.1352 18.8577 77.3311 20.2123 78.2044C20.763 78.5603 21.2256 79.0554 21.7267 79.4892C21.9524 79.6895 22.3104 79.8563 22.2112 80.2123C22.1121 80.5683 21.7046 80.4348 21.4513 80.4459C21.4293 80.6184 21.3852 80.7185 21.4128 80.7741C22.1672 81.9978 22.1176 82.287 20.8676 82.8655C18.7035 83.8667 16.4899 84.1226 14.2046 83.2382C12.6573 82.6375 11.5009 81.6251 10.7245 80.1345C8.7586 76.3633 10.6969 71.5519 14.6672 70.039C19.9535 68.0255 24.1716 71.8634 24.502 76.9195C24.5846 78.171 24.502 79.4336 23.8302 80.5349C23.4612 81.1412 23.7641 81.5528 24.0725 81.9756C24.4469 82.4873 24.2982 82.8377 23.8742 83.2215C20.6639 86.1194 17.0075 86.7313 13.0648 85.1738C8.86873 83.5163 6.75419 78.8385 8.18041 74.3664C9.2597 70.9735 11.2696 68.3314 14.9701 67.6083C17.4976 67.1133 19.9921 67.4359 22.2993 68.6262C25.2509 70.1503 26.5009 72.7867 26.7817 76.0017C26.9194 77.5814 26.6386 79.1166 26.154 80.5961C25.8952 81.386 26.1154 81.8087 26.7212 82.2703C31.4183 85.8524 36.5615 86.4531 42.1727 84.7567C41.8863 84.2783 41.4623 84.3673 41.1209 84.295C38.1253 83.672 35.7795 82.0645 34.067 79.5226C32.9822 77.9151 32.4921 76.1241 32.8775 74.1996C33.0427 73.3708 32.7674 72.9147 32.2388 72.3696C30.3886 70.4673 29.4469 68.1923 29.6727 65.4835C29.6947 65.2166 29.6562 64.9162 29.7663 64.6937C30.4712 63.2364 30.372 61.7179 30.2123 60.1716C30.1408 59.4819 30.2729 58.7755 30.317 58.0858C29.7608 57.9467 29.4194 58.3305 28.9954 58.4195C28.7311 58.4751 28.4667 58.5196 28.2795 58.2582C28.1253 58.0413 28.2134 57.8299 28.3346 57.6408C29.089 56.4338 29.937 55.2991 30.9392 54.2923C31.3302 53.8974 31.7267 53.953 32.0626 54.3869C32.5471 55.0154 33.0152 55.6495 33.5383 56.3392C34.1441 55.555 34.4194 54.7095 34.7553 53.903C35.2894 52.6292 36.1705 51.8227 37.4921 51.4055C38.4667 51.0996 39.4579 50.8938 40.4546 50.7659C41.7046 50.6046 42.7013 50.0094 43.5824 49.1806C44.1936 48.6077 44.7388 47.9625 45.3004 47.334C45.4932 47.1226 45.8456 46.8334 45.5813 46.5664C45.2068 46.1937 44.9645 46.6888 44.7498 46.9057C44.0615 47.5954 43.4172 48.3241 42.7454 49.0305C42.5692 49.214 42.4425 49.5144 42.1286 49.4365C41.7211 49.3308 41.7927 48.9582 41.8093 48.6634C41.8643 47.6844 41.9469 46.711 42.0185 45.7376C42.0901 44.6697 41.98 43.6073 41.9139 42.5393C41.8919 42.2056 41.7542 41.7829 42.1672 41.5882C42.5527 41.4046 42.828 41.7217 43.0978 41.9331C43.9128 42.556 44.7883 43.0455 45.774 43.3459C46.3357 43.5183 46.6551 43.3626 46.98 42.8842C47.6683 41.8719 47.85 40.7761 47.7619 39.5858C47.4976 35.9926 47.3489 32.3938 47.4205 28.7895C47.4866 25.5078 47.5857 22.2316 47.8665 18.9777C47.4921 18.7719 47.1397 18.8721 46.7927 18.8721C41.154 18.9332 35.5262 19.2169 29.893 19.4227C25.796 19.5673 21.7046 19.4227 17.6187 19.0334C16.5174 18.9277 16.4954 18.9444 16.5615 20.0624C17.035 28.7283 17.046 37.3998 17.0295 46.0769C17.0295 47.5009 17.1231 48.9248 17.1176 50.3432C17.1176 51.0885 17.437 51.3499 18.1364 51.3833C19.7608 51.4612 21.3852 51.667 23.0097 51.6948C26.2256 51.7448 29.4414 51.7115 32.6573 51.7115C32.9601 51.7115 33.263 51.6781 33.687 51.6558C33.4007 50.3876 32.6793 49.57 31.6165 49.0416C30.774 48.6189 29.8599 48.5021 28.9238 48.4854C27.1617 48.4576 25.4051 48.3908 23.6705 48.0293C22.2663 47.7345 21.2861 46.9724 20.7024 45.6486C20.2674 44.6752 19.8599 43.6963 19.6452 42.6395C19.5405 42.1166 19.5901 41.6883 20.0637 41.349C20.7575 40.8429 21.1044 40.9096 21.4789 41.6994C21.6881 42.1333 21.7817 42.6339 22.2167 43.0455C22.7509 42.1111 23.3015 41.21 23.7751 40.2755C24.133 39.5802 24.6286 39.4801 25.3115 39.6637C26.1925 39.9084 26.3412 40.1253 25.9612 40.9708C25.4546 42.0944 24.893 43.1957 24.3478 44.3137C25.3941 44.6864 25.4932 44.6808 25.9888 43.891C26.8203 42.5783 27.6022 41.2378 28.4337 39.9307C28.7035 39.5024 28.9073 38.8238 29.546 38.9573C30.2178 39.0963 30.0141 39.8194 30.1242 40.3089C30.2564 40.8985 30.1903 41.5437 30.5482 42.0443C30.9062 42.0832 31.1044 41.8719 31.3302 41.7495C31.9965 41.3991 32.5637 41.4603 33.1474 41.9664C33.9954 42.7118 34.0174 42.6895 34.8819 42.0832C35.9612 41.3323 35.9833 41.3157 36.8919 42.3614C37.1672 42.6728 37.415 42.6951 37.6738 42.4726C38.7531 41.5604 39.6397 42.6895 40.6198 42.7563C40.8676 42.773 40.7465 43.1456 40.5868 43.2847C40.1518 43.674 39.6837 43.5517 39.2542 43.2624C38.8908 43.0233 38.5769 42.9843 38.1584 43.1679C36.8313 43.7352 36.8203 43.713 35.9282 42.5505C35.5372 42.5505 35.3115 42.8564 35.0251 43.0511C34.1 43.6852 33.7421 43.674 32.9161 42.9899C32.3287 42.5004 31.7083 42.4856 31.0549 42.9454C30.35 43.4404 30.0802 43.3904 29.7663 42.6117C29.5075 41.9609 29.3478 41.2712 29.089 40.4034C28.2134 41.8274 27.4425 43.1178 26.6386 44.3804C25.9998 45.3761 25.2564 45.6319 24.1496 45.326C23.3786 45.1147 23.2024 44.8087 23.5383 44.069C23.9734 43.1011 24.48 42.1611 24.948 41.2044C25.0416 41.0209 25.0967 40.8151 25.1738 40.6259C24.7167 40.3812 24.5626 40.6704 24.4139 40.943C23.9293 41.8385 23.4667 42.7507 22.9601 43.6351C22.3819 44.6419 22.2167 44.6363 21.4568 43.6852C21.3632 43.5684 21.2586 43.535 21.1209 43.5628C20.9833 44.9311 21.9469 46.5108 23.23 46.9502C24.3203 47.3229 25.4546 47.4786 26.6055 47.4897C27.839 47.5009 29.0725 47.5565 30.2949 47.7233C32.1397 47.9736 33.4502 48.9804 34.2652 50.6658C34.4414 51.0329 34.5736 51.4111 34.6011 51.8116C34.6341 52.3066 34.524 52.6459 33.8852 52.6515C28.5163 52.7015 23.1419 52.8684 17.7839 52.2399C16.5835 52.1008 16.4183 51.9951 16.3357 50.7826C16.209 48.8302 16.1264 46.8723 16.1209 44.92C16.0989 38.3788 16.0218 31.8432 15.8346 25.3076C15.7795 23.3496 15.6474 21.3973 15.5868 19.445C15.5482 18.1323 15.6143 18.0711 16.9029 18.1323C19.056 18.238 21.209 18.3993 23.3676 18.4938C27.7729 18.6885 32.1727 18.4549 36.567 18.1935C39.5185 18.0155 42.4645 18.11 45.4161 17.971C46.165 17.9376 46.9139 17.9042 47.6573 17.8486C48.3291 17.7985 48.6595 18.1378 48.687 18.7664C48.72 19.5618 48.7311 20.3683 48.687 21.1637C48.3676 26.9373 48.1914 32.7164 48.6319 38.4956C48.7696 40.3089 48.7971 42.061 47.5747 43.5461C48.6319 44.3693 48.643 44.3749 47.9932 45.3538C46.9579 46.9057 45.774 48.3463 44.4579 49.6646C43.3071 50.8159 41.9745 51.6169 40.3004 51.7838C39.4745 51.8672 38.665 52.1175 37.85 52.3011C36.7322 52.5569 35.9998 53.2355 35.5758 54.3146C35.2509 55.1378 34.8819 55.9499 34.4634 56.7286C33.8302 57.9078 33.4833 57.9133 32.7013 56.8676C32.2883 56.3114 31.9634 55.6773 31.4238 55.2045C30.9117 55.5105 30.6253 55.9554 30.3445 56.406C30.2949 56.5117 30.1738 56.6618 30.2068 56.723C30.317 56.9121 30.4877 56.8176 30.6363 56.7397L30.6584 56.7286ZM21.0273 80.0232C20.6474 79.6617 20.306 79.2278 19.8764 78.9441C18.1914 77.8484 17.459 76.3744 17.883 74.3497C17.9656 73.9659 17.9216 73.5488 17.8886 73.1539C17.861 72.8034 17.9987 72.403 17.6463 72.1026C17.4701 73.7212 17.2883 75.3231 17.4205 76.9417C17.448 77.281 17.6022 77.5202 17.85 77.7316C18.8137 78.5659 19.6782 79.5226 20.7575 80.229C20.8566 80.3013 20.9667 80.3792 21.0604 80.2401C21.0879 80.1956 21.0438 80.0955 21.0273 80.0232ZM36.1705 73.3597C37.3654 73.3875 38.1859 72.8869 38.9348 72.2416C39.3863 71.8579 39.7663 71.4129 39.4634 70.7454C39.2211 70.2114 38.6319 69.95 37.8885 70.0557C36.9855 70.1836 36.2421 70.662 35.5648 71.2404C35.0967 71.6409 34.4139 72.1582 34.5956 72.7089C34.8104 73.3485 35.6694 73.3318 36.176 73.3597H36.1705ZM33.8522 63.7314C33.9789 63.7147 34.3368 63.7036 34.6617 63.5979C35.2894 63.3921 35.5703 62.8749 35.4491 62.2575C35.3225 61.6122 34.937 61.3397 34.1936 61.412C33.8908 61.4398 33.5879 61.5121 33.296 61.6011C32.5086 61.8292 31.8093 62.4354 31.8698 62.8081C31.9469 63.2642 32.8115 63.7147 33.8522 63.7314ZM42.9271 47.5398C44.0449 46.4051 45.0416 45.504 45.8401 44.3026C44.7663 44.0801 43.9678 43.4237 42.9271 43.1345V47.5342V47.5398ZM46.7377 45.2037C46.2476 45.2593 46.0549 45.4984 45.8841 45.7543C45.8015 45.8822 45.6363 46.0213 45.8181 46.1993C45.9833 46.3662 46.1319 46.2716 46.2586 46.1548C46.5009 45.9267 46.7211 45.682 46.7377 45.2037ZM20.9062 42.595C20.8015 42.6728 20.6749 42.7229 20.6749 42.7785C20.6694 42.9621 20.763 43.1234 20.9227 43.2124C20.9557 43.2291 21.1264 43.0956 21.1209 43.0733C21.0659 42.912 20.9833 42.7618 20.9062 42.6005V42.595ZM47.035 44.7865C47.0075 44.8143 46.9524 44.8477 46.9579 44.8699C46.9689 44.9311 47.0075 44.9867 47.0295 45.0423C47.0571 45.0145 47.1121 44.9812 47.1066 44.9589C47.0956 44.8977 47.0626 44.8421 47.035 44.7809V44.7865ZM20.6529 42.3447C20.6859 42.3113 20.7189 42.2779 20.7465 42.2501C20.6859 42.2223 20.6308 42.1834 20.5703 42.1667C20.5482 42.1667 20.5152 42.2223 20.4822 42.2501C20.5372 42.2835 20.5978 42.3169 20.6529 42.3447Z" fill="#4C4C4C"/>
<path d="M85.0912 59.5099C86.0493 59.3375 86.7762 58.7646 87.3984 58.0582C90.1517 54.9322 91.3852 51.3168 90.8346 47.1173C90.752 46.5054 90.5097 46.4498 89.9755 46.4776C88.9568 46.5333 88.5713 46.244 88.3401 45.4931C88.1804 44.9814 88.2354 44.503 88.6209 44.1359C89.0449 43.7355 89.5405 43.6854 90.0912 43.9246C90.405 44.0636 90.5757 44.4641 91.0108 44.4252C91.2475 43.1848 90.7079 42.3171 89.6451 41.8443C88.7806 41.4549 88.4887 40.8264 88.4392 39.9698C88.4392 39.8808 88.4227 39.7918 88.4172 39.7028C88.1638 36.4267 87.6462 36.6158 89.9535 34.3464C91.1429 33.1728 91.7156 31.6042 91.6495 29.8577C91.5669 27.8108 90.4326 26.1421 88.7531 25.6749C87.1782 25.2355 85.0581 26.1254 84.0339 27.655C83.9127 27.8386 83.8136 28.0388 83.7145 28.2391C83.5713 28.5228 83.4006 28.8732 83.0372 28.6451C82.7288 28.4504 82.8445 28.0889 82.9821 27.7997C83.8136 25.9975 85.2674 25.013 87.1506 24.6793C88.9183 24.3622 90.35 25.0074 91.4348 26.4369C92.6132 27.9888 92.8995 29.7298 92.47 31.6098C92.079 33.3174 91.1429 34.708 89.9149 35.8871C89.2872 36.4879 88.8962 37.0775 89.1495 37.9785C89.2321 38.2678 89.1936 38.596 89.2046 38.9074C89.2542 39.942 89.3753 40.7875 90.5262 41.3715C91.9193 42.0835 92.2828 43.5908 91.7266 45.0648C91.5614 45.5042 91.5119 45.8769 91.5945 46.3386C92.2993 50.26 91.4568 53.8253 89.2101 57.0904C88.0702 58.7535 86.6881 60.0773 84.7332 60.6335C83.9513 60.856 83.7255 61.3065 83.6374 62.0519C83.1143 66.5295 83.1804 71.0238 83.285 75.5125C83.3345 77.8152 83.263 80.1458 83.8577 82.4096C84.0614 83.1828 83.4502 83.6166 83.1583 84.1451C83.274 84.629 83.9017 84.54 83.9568 85.0183C84.0119 85.5412 83.6099 85.8193 83.3401 86.1475C81.7046 88.1276 80.0361 90.0799 78.4116 92.0712C77.9601 92.6274 77.4149 92.8722 76.7431 93.0168C73.0647 93.8122 69.3147 93.8456 65.5923 94.1181C65.0141 94.1626 64.2486 94.4296 63.8797 93.8066C63.5218 93.2059 64.2266 92.7832 64.4744 92.2993C65.2674 90.753 66.3467 89.5237 68.0978 89.0176C68.6374 88.8618 69.133 88.5281 69.524 88.0831C70.2453 87.271 70.1132 86.7593 68.9678 86.1753C68.9017 87.0541 68.676 87.8495 67.7398 88.1332C66.9689 88.3668 66.6991 87.6715 66.22 87.221C65.6363 87.7772 65.4381 88.5114 65.1738 89.1956C64.6616 90.5416 63.9127 91.7319 62.9601 92.7999C62.3984 93.4284 61.7486 93.7399 60.8731 93.7177C58.4061 93.6565 55.9447 93.5007 53.4887 93.3394C53.2244 93.3227 52.9656 93.2671 52.7068 93.2115C51.6495 93.0001 51.4733 92.8166 51.4513 91.7041C51.4127 89.7462 51.4072 87.7883 51.3907 85.8304C51.3357 79.1613 51.4403 72.4866 51.0328 65.8175C50.9227 63.9987 50.8015 62.1798 50.6749 60.361C50.5757 58.9037 50.6308 58.8258 52.046 58.8703C55.0801 58.9648 58.1198 59.1317 61.1539 59.1651C68.2464 59.2374 75.3279 58.9704 82.4149 58.6367C82.9436 58.6089 83.4722 58.5977 83.9953 58.6367C84.4909 58.6756 84.5075 59.0316 84.3753 59.4209C84.0339 59.471 83.687 59.5211 83.3456 59.5656C83.1253 59.5544 82.905 59.5266 82.6903 59.5433C75.4381 60.005 68.1749 60.144 60.9061 60.0439C57.916 59.9994 54.926 59.8548 51.9359 59.7547C51.7542 59.7269 51.666 59.7936 51.6936 59.9883C51.7046 60.8282 51.6826 61.6792 51.7431 62.5135C52.057 66.8576 52.2442 71.2073 52.2277 75.5625C52.2112 80.7632 52.2442 85.9639 52.2553 91.159C52.2553 92.3215 52.2553 92.3772 53.3841 92.455C55.7519 92.6163 58.1308 92.6553 60.4931 92.8555C61.5614 92.9501 62.2057 92.5385 62.8279 91.7431C64.0229 90.2134 64.579 88.3835 65.3665 86.6592C65.5207 86.5924 65.6859 86.4812 65.6418 86.3199C65.5702 86.064 65.339 86.1808 65.1572 86.2031C64.5405 86.2031 64.0339 86.0084 63.8687 85.3354C63.7145 84.7068 63.687 84.1228 64.3863 83.739C64.7883 83.5165 64.6286 83.244 64.2872 83.0771C64.133 82.9992 63.9458 82.9937 63.7916 82.9102C63.4006 82.7044 63.2244 82.3707 63.285 81.9257C63.3511 81.4474 63.5823 81.0858 64.089 81.008C64.4304 80.9523 64.7828 80.9523 65.1297 80.9245C65.3224 80.9968 65.6088 81.1025 65.6528 80.8578C65.7244 80.4684 65.3665 80.5908 65.1517 80.5685C63.7751 80.2682 63.3896 79.3504 63.4997 78.0266C63.6429 76.2912 63.1804 74.7115 62.2608 73.2153C61.3962 71.808 61.0823 70.2562 61.5834 68.6153C62.5967 65.2724 66.1209 63.2311 69.4083 64.3268C72.9326 65.4949 74.2982 67.7643 73.0152 71.2852C72.5526 72.5478 71.8973 73.6992 71.0658 74.7393C70.3555 75.6293 69.8544 76.5415 70.003 77.7707C70.0912 78.466 69.981 79.2225 69.1165 79.5062C67.7453 79.4227 67.6077 79.3059 67.5141 77.9932C67.4425 77.0254 67.3709 76.0576 67.437 75.0842C67.459 74.7226 67.5912 74.3055 67.0901 73.8216C66.8312 75.7516 66.5449 77.4982 66.5559 79.2781C66.5559 79.7731 66.8092 79.9901 67.2993 79.9567C67.905 79.9178 68.5273 80.0234 69.122 79.8176C69.513 79.8566 69.9039 79.8733 70.2894 79.94C70.9887 80.0624 71.2751 80.4962 71.0823 81.1637C71.0108 81.4084 70.8235 81.6142 70.6914 81.8423C69.4524 82.1649 68.1638 81.7533 66.9193 81.9702C66.9193 82.0648 66.9194 82.1593 66.9138 82.2595L70.4381 82.4263C71.2365 83.4275 71.1154 83.9671 69.9975 84.3564C69.7112 84.4565 69.4083 84.5122 69.1165 84.59C68.4337 84.59 67.7123 84.3509 66.9799 84.8737C67.5746 85.2519 68.0923 85.0851 68.5934 85.074C68.9568 85.2241 69.3368 85.3521 69.6837 85.5356C70.9061 86.1697 71.1594 87.3044 70.3334 88.4002C69.981 88.8674 69.535 89.2234 69.0119 89.4792C68.4997 89.7295 67.9711 89.9465 67.4535 90.1912C66.2035 90.7919 65.5757 91.871 65.0526 93.2393C65.5207 93.2393 65.785 93.2616 66.0438 93.2393C69.2266 92.8889 72.437 92.9389 75.6088 92.3438C76.8092 92.1157 77.8059 91.8654 78.3786 90.7085C79.6782 89.3791 80.7575 87.8662 81.9744 86.4645C82.1782 86.2309 82.3764 85.9917 82.5471 85.7358C82.6077 85.6469 82.6297 85.4689 82.5801 85.3799C82.4645 85.1852 82.2663 85.2464 82.1286 85.3576C81.9249 85.5245 81.7376 85.7192 81.5669 85.9138C80.1903 87.4713 78.7861 89.0064 77.5801 90.7029C77.057 90.8197 76.7046 90.6974 76.7431 90.0633C76.7541 89.8408 76.7707 89.6183 76.8037 89.4014C77.079 87.3823 77.5086 85.3854 77.6077 83.3441C77.6407 82.621 77.9876 82.4263 78.6925 82.6989C79.546 83.0382 80.361 83.4887 81.2145 83.8391C82.0185 84.1729 83.2189 83.2829 82.9986 82.4597C82.5251 80.6742 82.5416 78.8498 82.47 77.0421C82.2773 72.3476 82.1727 67.6419 82.6738 62.953C82.7784 61.9684 82.6958 60.8894 83.4171 60.0439C84.0394 60.055 84.5956 59.8492 85.1077 59.5044L85.0912 59.5099ZM65.7079 79.6897C65.6638 78.0822 65.8951 76.5026 66.1044 74.9229C66.2145 74.0774 66.1374 73.3766 65.4326 72.7703C64.9315 72.342 64.6011 71.7413 64.5515 71.0293C64.502 70.245 64.7222 69.7834 65.2674 69.6221C65.8235 69.4608 66.2531 69.7166 66.5779 70.4508C66.8478 71.0683 66.9304 71.7302 66.9799 72.3976C66.9964 72.6368 66.9193 72.9427 67.2938 73.0262C67.7123 72.8482 67.5416 72.4143 67.6627 72.1084C67.861 71.6189 67.9601 71.0849 68.1749 70.601C68.4061 70.0782 68.8026 69.7278 69.4304 69.8891C69.9755 70.0281 70.2894 70.5843 70.2123 71.2629C70.1242 72.0083 69.7608 72.6813 69.1826 73.0651C68.3951 73.5879 68.2519 74.261 68.3015 75.1064C68.3511 75.9964 68.3345 76.8863 68.3621 77.7763C68.3676 77.9932 68.3951 78.2213 68.4612 78.4271C68.4942 78.5216 68.6484 78.6273 68.753 78.6329C68.8577 78.6329 69.0339 78.5439 69.0614 78.4549C69.1385 78.2046 69.2266 77.9265 69.1881 77.6817C68.9843 76.3691 69.568 75.3623 70.3224 74.3889C70.7519 73.8271 71.1539 73.2375 71.5009 72.6201C72.1121 71.5299 72.5471 70.373 72.5967 69.0937C72.6352 68.0869 72.2718 67.2804 71.5339 66.6185C70.0086 65.239 68.274 64.7829 66.2696 65.2947C62.8995 66.1568 61.2751 69.4886 62.9491 72.5422C63.9898 74.4445 64.557 76.3524 64.4193 78.5161C64.3533 79.5284 64.4249 79.534 65.7244 79.6953L65.7079 79.6897ZM78.4722 83.7001C78.3896 85.3966 78.0317 86.9707 78.0537 88.6115C79.1055 87.399 80.1517 86.1808 81.3081 84.8459C80.2729 84.5511 79.5185 83.917 78.4722 83.7001ZM70.2508 83.3886C69.2101 82.8713 68.2795 83.0994 67.3709 83.0882C67.1782 83.0882 67.035 83.2162 67.024 83.4108C67.0075 83.6111 67.1506 83.7501 67.3434 83.7501C68.2464 83.7501 69.1771 83.9392 70.2508 83.3886ZM70.2619 80.88C69.111 80.5964 67.9931 80.6965 66.8808 81.0024C68.0152 80.9412 69.155 81.5475 70.2619 80.88ZM63.9733 82.037C64.568 82.443 65.1297 82.3596 65.6694 82.354C65.796 82.354 65.9227 82.2595 65.9171 82.1037C65.9171 81.9702 65.8511 81.8423 65.7024 81.82C65.1627 81.7422 64.6066 81.5586 63.9733 82.037ZM65.3995 85.3854C65.6308 85.3687 65.807 85.3854 65.9777 85.3354C66.1705 85.2853 66.231 85.1184 66.2145 84.9293C66.187 84.5567 65.9061 84.5289 65.6528 84.5678C65.3059 84.6234 64.8434 84.3286 64.6341 84.8459C64.5625 85.0183 64.6561 85.2186 64.8268 85.2853C65.0251 85.3576 65.2453 85.3632 65.405 85.3854H65.3995ZM67.5306 87.2599C67.8445 87.221 68.0042 87.0207 68.0317 86.7371C68.0647 86.3533 67.8224 86.1753 67.481 86.153C67.2277 86.1363 67.0515 86.2865 67.0901 86.5479C67.1341 86.8316 67.1506 87.1765 67.5306 87.2599ZM66.0273 71.936C65.9282 71.452 66.0493 70.8624 65.4766 70.4286C65.3114 71.1684 65.5042 71.6133 66.0273 71.936ZM68.6925 72.2419C69.3753 71.5689 69.3753 71.5633 69.1936 70.8068C68.8742 71.2518 68.7072 71.7302 68.6925 72.2419ZM90.1793 45.2762C90.0581 45.0537 89.926 44.7756 89.5625 44.7533C89.3698 44.7422 89.2211 44.8312 89.2101 45.0426C89.1881 45.4375 89.4138 45.6099 89.7773 45.5877C89.937 45.5821 90.1352 45.5877 90.1793 45.2706V45.2762ZM66.1099 83.5332C66.1649 83.3608 66.0383 83.2718 65.9282 83.244C65.763 83.1995 65.5812 83.2217 65.5207 83.4275C65.4766 83.5777 65.5812 83.6778 65.7079 83.7112C65.8731 83.7557 66.0438 83.7335 66.1099 83.5332Z" fill="#4C4C4C"/>
<path d="M56.187 26.8984C55.5868 28.9731 55.9613 30.2023 57.6518 31.4205C59.0229 32.4106 60.5758 33.0446 62.1892 33.523C62.6518 33.6621 63.1254 33.7677 63.5879 33.9124C64.6066 34.2294 65.372 34.8524 65.8346 35.8369C66.4018 37.0439 66.9855 38.2342 67.5361 39.4468C67.9767 40.4146 67.9546 40.4702 66.9469 40.9208C63.1639 42.595 60.0306 45.1369 57.2884 48.2073C56.4624 49.1306 55.7575 50.1541 55.1628 51.2554C54.915 51.7226 54.8324 52.0897 55.2179 52.5736C56.132 53.7083 57.1837 54.6928 58.208 55.7107C58.6265 55.4938 58.676 55.1156 58.8412 54.8208C61.176 50.6213 64.1055 46.9224 67.9932 44.0968C70.1573 42.5171 69.8434 42.7341 71.0439 44.7587C71.7817 46.0102 72.5196 47.2728 73.6044 48.491C75.317 44.386 76.8258 40.3423 78.1859 36.1039C76.8809 35.8869 75.6859 35.6478 74.48 35.5031C71.991 35.2028 69.502 34.8524 66.9855 34.8746C66.6221 34.8746 66.0439 35.0359 66.0163 34.4908C65.9888 33.9068 66.578 34.0625 66.9359 34.0625C70.7795 34.0737 74.5736 34.6021 78.3456 35.264C79.2212 35.4197 79.2762 35.5866 78.9954 36.4487C77.6187 40.6705 76.0384 44.8143 74.4414 48.9526C74.0725 49.9093 73.7201 49.9872 73.0593 49.2196C71.958 47.9459 71.0659 46.5108 70.2013 45.0591C69.5791 44.0134 69.5681 43.9911 68.5714 44.742C64.6672 47.7067 61.6441 51.4389 59.4249 55.8053C58.6815 57.2682 58.3071 57.3905 57.2553 56.1001C56.3908 55.0377 55.317 54.17 54.458 53.0854C53.9183 52.4012 53.8412 51.8283 54.2542 51.044C55.4546 48.7691 57.1121 46.8835 58.9954 45.1926C61.2366 43.1735 63.632 41.3657 66.4183 40.1587C66.5339 40.1087 66.6165 39.9974 66.7872 39.8528C66.1595 38.5457 65.5317 37.233 64.8875 35.9314C64.4965 35.1416 63.7476 34.8579 62.9657 34.6521C61.4238 34.2572 59.926 33.751 58.5218 32.989C58.0593 32.7387 57.5912 32.4773 57.1672 32.1658C55.361 30.8643 54.6672 29.1511 55.2399 26.9373C55.6088 25.5078 56.1375 24.1506 56.7377 22.8157C56.969 22.2984 57.2994 21.8145 57.3875 21.1526C54.6507 20.4629 53.8853 18.5105 54.0064 15.913C54.0835 14.2276 54.0945 12.5367 54.2983 10.8569C54.6672 7.83662 56.2531 5.7786 59.067 4.70509C61.2806 3.85963 63.621 3.65382 65.9502 3.63158C70.5758 3.58708 75.1958 3.63158 79.8214 3.68164C80.741 3.69276 81.6661 3.82069 82.5747 3.96531C84.5516 4.27679 85.9888 5.72297 86.3192 7.73094C86.6881 9.95583 86.3412 12.164 86.1815 14.3778C86.0879 15.6794 85.774 16.9031 85.2839 18.1101C84.8544 19.1669 84.1551 19.89 83.2024 20.4184C82.3434 20.8912 81.4183 21.1749 80.4491 21.3028C75.8511 21.9035 71.2421 22.1037 66.6165 21.6532C65.741 21.5698 64.8544 21.592 63.9789 21.5308C63.0317 21.4641 62.2663 21.8089 61.6221 22.4931C60.4712 23.7168 59.3038 24.9294 58.1529 26.1586C57.7454 26.5925 57.3599 27.0374 56.6936 26.6425C56.4679 26.1085 57.0791 25.6413 56.8313 24.9182C56.4679 25.6524 56.2146 26.242 56.187 26.9039V26.8984ZM58.8247 23.9838C59.4524 23.6278 59.904 23.066 60.3335 22.5153C61.7157 20.7466 63.5328 20.2905 65.6364 20.563C69.2377 21.0247 72.85 20.8689 76.4569 20.6965C77.9491 20.6242 79.4359 20.4239 80.9117 20.1848C82.9491 19.8566 84.3533 18.7831 84.8985 16.6416C85.2399 15.2844 85.2234 13.9106 85.4051 12.5478C85.5923 11.1406 85.5923 9.70553 85.4877 8.2816C85.3445 6.35707 84.2542 5.17788 82.3875 4.87195C81.8258 4.7774 81.2476 4.72177 80.6804 4.71065C76.8478 4.63834 73.0207 4.59384 69.1881 4.52153C67.1617 4.4826 65.1353 4.57159 63.1198 4.78296C61.8478 4.91645 60.5813 5.09444 59.3809 5.56723C57.1617 6.43494 55.7245 7.99236 55.3225 10.4064C54.9591 12.6035 54.8324 14.8283 54.893 17.0532C54.937 18.7775 55.7575 19.7565 57.3985 20.207C58.2722 20.4443 58.5237 20.982 58.1529 21.8201C57.8225 22.5487 57.4811 23.2718 57.1452 23.9949C57.035 24.2285 56.8588 24.4566 57.0295 24.7458C57.2663 24.6791 57.3379 24.4621 57.4425 24.2786C58.1749 23.0215 58.6925 21.6476 59.535 20.4573C59.8985 19.94 59.8654 19.3671 59.7553 18.7887C59.6066 17.9988 59.2707 17.2702 58.9899 16.5248C58.7035 15.7739 58.9569 15.3401 59.7333 15.1788C60.0747 15.112 60.4326 15.1065 60.785 15.1009C61.622 15.0953 62.4591 15.1065 63.2961 15.112C68.5824 15.1454 73.8522 14.5669 79.1386 14.5335C79.6507 14.5335 80.1628 14.4056 80.719 14.3277C80.4932 13.8216 80.1077 13.8605 79.7773 13.7938C78.1254 13.4823 76.4513 13.4489 74.7773 13.4044C70.2399 13.2876 65.708 13.6102 61.1705 13.588C60.5097 13.588 59.8489 13.588 59.1881 13.5435C58.5273 13.499 58.1694 13.0651 58.0593 12.431C57.9051 11.5522 58.4227 10.7902 59.3864 10.601C60.0747 10.462 60.785 10.4008 61.4844 10.3786C67.4701 10.1894 73.4613 10.1004 79.4524 10.0949C79.7608 10.0949 80.0692 10.0949 80.3721 10.1338C80.5978 10.1616 80.785 10.3007 80.8016 10.5621C80.8236 10.8458 80.6088 10.957 80.3886 10.9848C80.0417 11.0293 79.6892 11.0238 79.3368 11.0293C74.6232 11.0627 69.9095 11.0794 65.2013 11.1406C63.4392 11.1628 61.6826 11.2963 59.926 11.3909C59.3974 11.4187 58.9183 11.6023 58.9789 12.2419C59.0284 12.7926 59.535 12.698 59.915 12.7258C60.0912 12.7425 60.2674 12.7369 60.4436 12.7258C62.5141 12.6702 64.5791 12.5979 66.6496 12.559C70.6088 12.4811 74.5736 12.3031 78.5273 12.7203C79.3588 12.8093 80.1903 12.8983 80.9723 13.2153C81.4954 13.4267 81.6716 13.8772 81.6276 14.4056C81.5835 14.9173 81.2311 15.1899 80.763 15.2844C80.4216 15.3568 80.0637 15.3901 79.7168 15.4013C78.4833 15.4458 77.2498 15.4402 76.0218 15.5069C71.143 15.7684 66.2641 16.1021 61.3687 15.9575C60.8621 15.9408 60.3445 15.9019 59.7884 16.1132C60.0196 16.7862 60.2289 17.3592 60.4161 17.9432C60.785 19.1001 60.752 20.1848 60.0417 21.2472C59.502 22.0537 58.9789 22.8825 58.6815 23.828C58.5879 23.9115 58.4778 24.0394 58.5934 24.134C58.7366 24.2452 58.7751 24.0783 58.8082 23.9671L58.8247 23.9838Z" fill="#4C4C4C"/>
<path d="M22.5857 27.666C22.1067 27.8829 21.7212 27.844 21.5835 27.2488C21.523 26.9874 21.5009 26.7204 21.4404 26.4646C21.3853 26.2309 21.2421 26.053 20.9723 26.1531C20.7961 26.2198 20.708 26.4034 20.7575 26.5869C20.9117 27.1432 21.099 27.6883 21.2531 28.2445C21.3247 28.4948 21.3908 28.8118 21.0824 28.9342C20.7686 29.0621 20.5923 28.7951 20.5097 28.5393C20.306 27.9052 20.0857 27.2711 19.9536 26.6259C19.7884 25.8305 20.2124 25.4077 21.2641 25.1519C22.002 24.9739 22.0461 25.4967 22.1562 25.9806C22.1838 26.103 22.2664 26.2087 22.36 26.3978C22.9492 26.0919 23.2575 25.5468 23.6595 25.1129C24.1992 24.5289 24.7388 23.9393 25.2509 23.3275C25.697 22.8046 26.1871 22.749 26.7818 23.0271C27.5802 23.3998 27.6959 23.7502 27.1397 24.4343C26.4679 25.2576 25.741 26.0363 25.0692 26.8595C24.8049 27.1821 24.3919 27.4379 24.3919 28.0387C25.5042 28.2055 26.567 28.0387 27.6078 27.7661C28.0648 27.6493 28.219 27.1543 28.4172 26.7649C28.8963 25.8193 29.2432 24.7903 29.9095 23.9504C30.306 23.4498 30.6474 22.66 31.4238 22.888C32.1342 23.0994 31.9635 23.9226 32.0626 24.5067C32.1617 25.1074 32.1782 25.7192 32.2388 26.4701C33.0538 26.1086 33.5769 25.3243 34.469 25.5913C35.3005 25.8472 35.5208 26.7538 36.143 27.1988C36.6001 27.0931 36.7873 26.7037 37.0791 26.4479C37.8666 25.7582 38.0703 25.7693 38.7972 26.5647C38.8853 26.6592 38.9789 26.7594 39.0615 26.8484C39.502 26.9207 39.6507 26.4979 39.9536 26.3533C40.284 26.1976 40.6199 26.0363 40.9503 26.281C41.6496 26.8039 42.4371 26.7482 43.23 26.7204C43.3622 26.7204 43.4998 26.7037 43.6265 26.7315C43.9844 26.8039 44.5516 26.6759 44.5296 27.2377C44.5131 27.6827 44.0064 27.6271 43.6705 27.6271C42.7124 27.6159 41.7212 27.8384 40.8512 27.2099C40.6034 27.0319 40.3666 27.1487 40.1188 27.2878C38.9349 27.9719 38.9349 27.9664 37.8941 26.954C37.4866 27.1042 37.2774 27.5103 36.9635 27.7995C36.2917 28.428 35.9393 28.4002 35.328 27.6771C35.2399 27.577 35.1738 27.4602 35.0912 27.3545C34.1606 26.1086 34.0505 26.103 32.8996 27.2377C32.806 27.3323 32.7289 27.4435 32.6298 27.5269C32.0516 28.0164 31.6882 27.933 31.5009 27.2043C31.3798 26.7371 31.3743 26.2365 31.3137 25.7526C31.2421 25.1908 31.3247 24.6012 31.0329 23.9782C30.3556 24.49 30.0527 25.1797 29.7498 25.8472C28.3236 28.9898 28.4062 28.5838 25.3225 28.9119C24.6232 28.9843 23.9128 28.9398 23.2135 28.9787C22.7234 29.0009 22.6023 28.7339 22.6243 28.3168C24.0505 26.9485 25.2069 25.3521 26.6606 23.778C25.6584 23.9059 24.1221 25.4411 22.5802 27.6604L22.5857 27.666Z" fill="#4C4C4C"/>
<path d="M20.8511 35.8425C20.9172 36.0539 20.9888 36.2653 21.0494 36.4766C21.0989 36.6546 21.0824 36.8604 20.9227 36.955C20.6859 37.0885 20.4767 36.9439 20.3831 36.7325C20.0031 35.8815 19.6122 35.036 19.3038 34.1572C19.067 33.5008 19.4194 33.067 20.273 32.7055C20.9998 32.3995 21.0769 32.9724 21.2641 33.4063C21.3522 33.6121 21.4128 33.8235 21.6771 33.957C22.404 33.2005 22.9271 32.2827 23.4833 31.3872C23.9514 30.6307 25.1573 30.5696 25.6749 31.2704C25.9558 31.6486 25.8236 32.038 25.5978 32.3884C25.0912 33.1671 24.5681 33.9347 24.056 34.7134C23.7201 35.2307 23.263 35.6646 23.0318 36.2542C24.2047 36.8882 24.6122 36.8438 25.35 35.8537C26.1265 34.8191 27.0075 33.9013 27.9051 32.978C28.9128 31.9379 30.2069 32.3439 30.5318 33.8513C30.6254 34.274 30.5648 34.7412 30.9117 35.1528C31.5009 34.9248 31.8478 34.3852 32.3104 34.0015C32.6188 33.7512 32.9106 33.473 33.2465 33.2672C34.1 32.7444 34.6122 32.9113 35.0307 33.829C35.1243 34.0293 35.2014 34.2406 35.2564 34.452C35.4161 35.036 35.7245 35.1862 36.1926 34.769C36.8809 34.1516 37.5637 33.7956 38.3842 34.5688C38.5824 34.7524 38.8963 34.7023 39.1441 34.6022C40.4932 34.0738 41.8423 34.5243 43.1859 34.6189C43.4503 34.6355 43.7696 34.6967 43.7586 35.036C43.7421 35.481 43.3567 35.4254 43.0648 35.4254C42.5802 35.4254 42.0956 35.3976 41.6166 35.3475C40.7851 35.2641 39.9646 35.1028 39.1496 35.4754C38.7311 35.6646 38.252 35.6145 37.8941 35.3141C37.4426 34.9415 37.1397 35.1417 36.7377 35.4198C35.4326 36.3265 35.0252 36.1818 34.4194 34.6745C34.0505 33.7623 33.9404 33.7289 33.1584 34.3908C32.6188 34.8469 32.1452 35.392 31.578 35.8036C30.6639 36.4655 30.1518 36.2597 29.8765 35.164C29.7663 34.7357 29.7553 34.2796 29.6232 33.8568C29.4304 33.2339 29.034 33.1171 28.5329 33.5453C27.6243 34.3241 26.8148 35.2085 26.1265 36.193C24.9315 37.8895 24.0835 37.5891 22.5527 37.2331C22.1232 37.133 21.7157 36.8437 21.947 36.2597C22.3159 35.3364 21.5505 35.6479 21.1815 35.5255C21.0879 35.3642 20.9998 35.2085 20.9062 35.0472C20.7575 34.5632 20.763 33.9959 20.1133 33.4285C20.0967 34.3241 20.35 34.808 20.6199 35.2863C20.697 35.4699 20.7741 35.659 20.8567 35.8425H20.8511ZM24.893 31.6653C24.8655 31.7432 24.6948 31.7265 24.5901 31.6931C24.4084 31.6375 24.2597 31.7043 24.1496 31.8711C23.621 32.6721 23.0923 33.473 22.5747 34.2796C22.4866 34.4186 22.3985 34.6022 22.5857 34.7412C22.7509 34.8636 22.9326 34.8135 23.0318 34.6689C23.61 33.8513 24.1716 33.0225 24.7388 32.1937C24.7829 32.127 24.7884 32.0324 24.893 31.6709V31.6653ZM22.1837 35.5644C22.4976 35.4866 22.6298 35.2752 22.6793 35.0138C22.6904 34.9526 22.5307 34.7969 22.4591 34.8024C22.1617 34.8247 22.0516 35.0694 22.013 35.3253C22.002 35.3976 22.1287 35.4921 22.1837 35.5644Z" fill="#4C4C4C"/>
</g>
<defs>
<clipPath id="clip0_49_4088">
<rect width="100" height="100" fill="white" transform="translate(0.666748)"/>
</clipPath>
</defs>
</svg>
