<svg width="101" height="100" viewBox="0 0 101 100" fill="none" xmlns="http://www.w3.org/2000/svg">
<path d="M94.1886 34.3542C94.2126 41.202 93.2201 47.1829 91.5421 53.067C90.449 56.8977 89.0202 60.5928 87.3182 64.1959C85.4196 68.2203 83.195 72.0461 80.4861 75.5572C77.2979 79.6881 73.6972 83.4171 69.2912 86.2647C66.2084 88.2551 62.8523 89.6596 59.3667 90.7298C57.6887 91.248 55.9962 91.7371 54.2942 92.1536C51.7675 92.7735 49.2073 93.1609 46.5896 93.098C45.669 93.0738 44.7485 93.0883 43.828 93.098C41.8719 93.1125 39.9541 92.7977 38.0459 92.3958C35.7158 91.9066 33.4433 91.2286 31.3481 90.0664C28.8646 88.6861 26.5345 87.1122 24.4393 85.1363C21.764 82.6132 19.5442 79.7462 17.5162 76.7001C16.3416 74.9373 15.1238 73.2084 13.9252 71.465C13.0909 70.2542 12.3862 68.9709 11.7341 67.6585C10.7944 65.7552 9.6821 63.9489 8.89102 61.9681C8.14309 60.094 7.66844 58.1713 7.37119 56.1761C7.11708 54.4762 7.08352 52.7764 7.19379 51.0911C7.39516 48.0643 7.46228 45.0133 8.52664 42.0979C10.5547 36.548 14.4813 33.1193 20.0285 31.5695C21.8168 31.0707 23.6866 30.8819 25.5612 30.7414C27.0523 30.63 28.5386 30.6397 30.0248 30.5429C33.4529 30.3201 36.8809 30.0876 40.1507 28.8866C43.0129 27.8357 45.6499 26.4216 47.9704 24.3779C49.8833 22.6926 51.6093 20.8668 53.1963 18.8716C55.2387 16.3097 57.6455 14.1062 60.2345 12.0916C61.6009 11.031 62.9242 9.922 64.4871 9.16167C67.1864 7.84926 69.9959 6.96302 72.9973 6.57074C76.4876 6.11552 79.6951 6.84679 82.7012 8.52241C85.6785 10.1835 87.8935 12.6679 89.6483 15.6027C91.6572 18.9588 92.7599 22.6345 93.4646 26.4458C93.992 29.2934 94.2701 32.1701 94.1838 34.3639L94.1886 34.3542Z" fill="#ECEAD0"/>
<path d="M35.4991 41.3974C35.9176 41.453 36.0883 41.809 36.3086 42.0538C37.8559 43.7837 39.8549 44.2175 42.0466 44.2286C45.6369 44.2509 48.4729 42.6601 50.8958 40.1292C52.1403 38.8276 52.5533 38.9111 53.3078 40.5575C53.4509 40.869 53.5005 41.136 53.2417 41.4085C52.3992 42.3041 52.4432 43.5333 52.0633 44.6069C52.0027 44.7793 51.9917 45.0129 52.1624 45.0797C53.1866 45.4913 52.7626 46.3757 52.7185 47.0376C52.5754 49.2125 52.2945 51.3707 52.1238 53.5455C51.8981 56.4658 51.4961 59.3804 51.9641 62.3229C52.1734 63.6467 52.5699 64.7481 53.7758 65.5435C55.1415 66.439 56.2814 67.6293 57.3056 68.9142C57.4653 69.1201 57.592 69.426 57.8783 69.4371C58.9797 69.4649 58.9356 70.3326 59.0017 71.0335C59.4422 75.7058 58.7539 80.3448 58.5612 85.0005C58.5336 85.6179 58.4455 86.2409 58.2913 86.8361C58.0325 87.8039 57.3166 88.3657 56.4521 88.7996C53.3188 90.3682 50.0092 91.1691 46.5125 91.0523C44.1446 90.9745 41.7547 91.1358 39.4254 90.4683C38.704 90.2625 37.9826 90.0567 37.3163 89.7174C35.7854 88.9442 34.9814 87.7427 34.7777 85.9628C34.2105 81.1013 33.9627 76.2176 33.814 71.3339C33.6653 66.3556 33.2248 61.394 33.2193 56.4101C33.2138 51.8991 33.5607 47.4437 34.8218 43.0939C34.9925 42.5099 35.1411 41.9091 35.5046 41.3974H35.4991ZM53.8584 66.6504C53.93 66.7672 53.9906 66.9007 54.1558 66.9118C54.0457 67.2678 54.2329 67.4347 54.5358 67.6516C54.5688 67.2233 54.332 67.0898 54.1338 66.9341C54.0347 66.8451 53.941 66.7561 53.8419 66.6671L53.8034 66.6226L53.8584 66.6504ZM50.7086 65.0874C50.9674 65.7048 51.072 66.4168 51.7549 66.9396C51.7163 66.1275 51.1877 65.6825 50.9234 65.1208C50.8077 63.8915 50.2681 62.7734 49.9597 61.5887C50.0258 62.7957 49.9377 64.0361 50.7086 65.0874ZM50.9729 52.3997C51.0665 51.0425 51.2868 49.6853 51.3309 48.3281C51.2758 49.0122 51.072 49.6853 50.9124 50.3472C50.7361 51.087 51.6668 51.6933 50.9729 52.4053V52.3997Z" fill="#657E47"/>
<path d="M39.7337 24.5827C39.7337 23.5593 39.7337 22.5358 39.7337 21.5123C39.7337 20.7058 39.4639 20.1106 38.7535 19.6211C37.4154 18.6978 37.3823 17.5241 38.6434 16.4673C40.3229 15.0545 40.4165 14.7819 38.4231 13.6027C37.2282 12.8963 37.2502 11.6336 38.368 10.777C38.759 10.4767 39.2161 10.3042 39.6786 10.1596C42.2117 9.38645 44.8164 9.42539 47.4101 9.62007C49.2108 9.75356 50.0918 11.2999 49.1337 12.8796C48.2856 14.2702 48.3021 15.1601 49.5742 16.178C50.2791 16.7454 50.235 17.6966 49.9982 18.5476C49.7339 19.4932 49.398 20.4221 48.6986 21.1396C48.0929 21.7626 47.9662 22.4969 47.9442 23.3312C47.8176 27.6976 48.8803 31.7804 50.7306 35.6907C51.6943 37.7321 51.6227 38.0714 49.789 39.4174C48.7262 40.1962 47.5918 40.9193 46.4684 41.5534C44.4309 42.7103 42.1071 42.8383 39.7888 42.4211C39.6511 42.3989 39.3482 42.3265 39.53 42.1152C40.1963 41.3531 39.3593 41.4866 39.0894 41.381C38.3956 41.0973 37.6632 40.9248 36.9748 40.6356C36.0332 40.2351 35.9286 39.9181 36.3911 38.9947C37.1676 37.4428 37.7788 35.8242 38.2799 34.1666C39.2326 31.0406 39.7172 27.8478 39.7282 24.5772L39.7337 24.5827ZM40.7194 41.9149C42.3549 42.6659 43.8913 42.054 45.4221 41.4811C43.8803 41.965 42.2998 41.9594 40.7194 41.9149ZM50.637 37.326C50.5819 37.1091 50.4387 37.0368 50.2515 37.1369C50.1414 37.1925 49.9872 37.3093 49.9872 37.3983C49.9872 37.6097 50.1799 37.6598 50.3561 37.6653C50.5764 37.6709 50.648 37.5263 50.637 37.326Z" fill="#92AE70"/>
<path d="M50.9729 52.3994C51.6723 51.693 50.7416 51.0867 50.9123 50.3414C51.0665 49.6795 51.2758 49.012 51.3308 48.3223C51.2868 49.685 51.072 51.0367 50.9729 52.3939V52.3994Z" fill="white"/>
<path d="M50.7086 65.0876C49.9377 64.0307 50.0258 62.7959 49.9597 61.5889C50.2681 62.7736 50.8077 63.8861 50.9234 65.1209C50.8518 65.1209 50.7802 65.1098 50.7086 65.0931V65.0876Z" fill="#749B4E"/>
<path d="M50.7086 65.0876C50.7802 65.1043 50.8518 65.1098 50.9234 65.1154C51.1877 65.6772 51.7163 66.1222 51.7549 66.9343C51.0721 66.4114 50.9674 65.705 50.7086 65.082V65.0876Z" fill="white"/>
<path d="M54.1337 66.9343C54.332 67.0957 54.5632 67.2292 54.5357 67.6519C54.2383 67.435 54.0456 67.2681 54.1557 66.9121L54.1337 66.9288V66.9343Z" fill="white"/>
<path d="M53.8584 66.65L53.8033 66.6279L53.8364 66.672L53.8584 66.65Z" fill="white"/>
<path d="M54.1503 66.9177C53.9851 66.9066 53.93 66.7731 53.8529 66.6562C53.8529 66.6562 53.8364 66.6785 53.8364 66.6729C53.9355 66.7619 54.0292 66.8509 54.1283 66.9344L54.1503 66.9121V66.9177Z" fill="white"/>
<path d="M40.7195 41.9202C42.2999 41.9647 43.8803 41.9703 45.4222 41.4863C43.8858 42.0592 42.355 42.6711 40.7195 41.9202Z" fill="white"/>
<path d="M50.637 37.3257C50.648 37.526 50.5709 37.6706 50.3506 37.665C50.1744 37.665 49.9817 37.6094 49.9817 37.398C49.9817 37.309 50.1359 37.1922 50.246 37.1366C50.4332 37.0365 50.5764 37.1088 50.6315 37.3257H50.637Z" fill="white"/>
<path d="M68.8532 96.5927C67.0911 96.5927 65.3289 96.5927 63.5668 96.5927C62.9996 96.5927 62.4324 96.5649 61.8707 96.7707C61.4137 96.9376 60.9236 96.882 60.4445 96.7262C59.6736 96.4759 58.8476 96.4815 58.0931 96.6595C56.5623 97.021 55.0259 96.7707 53.495 96.8541C52.8397 96.8875 52.5534 96.5538 52.5148 95.8919C52.4322 94.4901 53.038 93.7003 54.5138 93.4111C56.3145 93.0551 58.1372 92.8159 59.9159 92.3375C60.3949 92.2096 60.852 92.0372 61.243 91.7702C62.2177 91.1138 62.8785 90.3573 62.873 88.9723C62.8619 86.1745 62.5921 83.3877 62.482 80.601C62.4159 78.949 62.5205 77.2358 62.058 75.5894C61.8707 74.933 61.6835 74.2822 61.243 73.7983C60.3784 72.8527 59.4753 71.9516 58.6934 70.9281C58.2804 70.383 57.6691 70.116 57.0909 69.7878C54.0237 68.0802 51.8981 65.5494 51.0941 62.0952C50.626 60.0872 50.4774 58.0124 50.8628 55.9043C51.0886 54.6639 51.0446 53.3512 51.1877 52.0774C51.5236 49.0904 51.9091 46.1201 52.7406 43.2166C52.9389 42.5213 53.2803 41.9039 53.6162 41.2809C53.9135 40.7191 54.3706 40.3353 55.0259 40.1684C56.3861 39.8236 57.7572 39.6011 59.1449 39.4008C61.6064 39.0449 64.0624 39.284 66.5184 39.1784C68.4127 39.0949 70.2685 39.6289 72.1683 39.4565C72.8897 39.3897 73.3027 39.8848 73.6 40.4521C73.7817 40.797 73.9469 41.2197 73.9194 41.5924C73.7983 43.2444 74.1782 44.8575 74.2553 46.4984C74.3324 48.1671 74.382 49.8525 74.6848 51.51C74.8115 52.1998 74.7399 52.9284 74.7399 53.6404C74.7454 55.1979 74.7454 56.7553 74.7399 58.3128C74.7289 61.2775 74.0295 64.1087 72.9227 66.8287C72.3004 68.3528 71.2982 69.6822 70.1749 70.8614C69.2277 71.8515 68.3301 72.8916 67.4711 73.9485C66.601 75.0164 66.0173 76.2735 66.0228 77.7197C66.0228 79.1437 65.8301 80.601 66.0724 81.9805C66.3752 83.6937 66.0393 85.4458 66.5184 87.1312C66.612 87.4649 66.5845 87.8432 66.5459 88.1936C66.4248 89.2449 66.9589 89.84 67.818 90.2962C69.1396 90.997 70.5713 91.175 72.0141 91.2362C73.0769 91.2807 74.0956 91.5032 75.1089 91.7757C75.6816 91.9259 76.1331 92.2541 76.5516 92.6657C77.2785 93.3777 77.5979 94.1953 77.273 95.1966C76.9261 96.259 76.0395 96.5538 75.0813 96.576C73.0108 96.6261 70.9403 96.5927 68.8698 96.5927H68.8532Z" fill="#FFF6EE"/>
<path d="M36.9694 68.1022C36.9694 65.7438 36.9694 63.3854 36.9694 61.027C36.9694 59.3416 37.4815 57.8064 38.2635 56.3323C39.2437 54.4857 40.7801 53.5178 42.812 53.3899C43.8308 53.3231 44.811 53.1285 45.7967 52.9171C47.6304 52.5277 49.6679 54.1853 49.6734 56.0709C49.6734 57.6729 49.6624 59.2748 49.6459 60.8768C49.6348 61.878 49.9102 62.7735 50.3397 63.6802C51.3695 65.8551 52.8893 67.6072 54.6184 69.2147C54.9819 69.554 55.3949 69.7709 55.8684 69.9267C56.6614 70.1881 57.0854 70.7499 57.0303 71.6343C56.8651 74.332 56.711 77.0353 56.5568 79.7331C56.5292 80.2226 56.5237 80.712 56.5017 81.2015C56.4411 82.4864 55.8905 83.3041 54.6845 83.6879C53.4675 84.0772 52.1955 84.2386 50.9179 84.2608C48.4509 84.3053 45.9839 84.2497 43.5169 84.2997C42.2724 84.322 41.0664 84.0939 39.8439 83.9827C38.7811 83.8826 38.0377 83.2373 37.8285 82.1582C37.5807 80.8566 37.421 79.5328 37.2448 78.2145C36.7877 74.8549 36.9749 71.4674 36.9694 68.0967V68.1022Z" fill="#FEDD94"/>
<path d="M52.0137 54.9251C52.3606 54.3076 52.2284 53.6235 52.278 52.9671C52.3661 51.8435 52.7351 51.4263 53.8529 51.2039C55.4499 50.8868 57.0523 50.6866 58.6878 50.6977C62.515 50.7199 66.3146 50.3528 70.1087 49.9301C71.166 49.8133 71.8709 50.2805 72.1572 51.3596C72.416 52.3441 72.5922 53.3509 72.6088 54.3744C72.6363 56.2433 72.5702 58.1123 72.6528 59.9757C72.7409 61.9002 72.1297 63.5689 71.0118 65.054C70.0812 66.2944 69.0679 67.5015 67.7298 68.2969C65.4445 69.6541 63.0877 69.8933 60.5711 68.753C58.3023 67.7295 56.1602 66.5893 54.343 64.8427C52.4983 63.0683 51.7604 60.8934 51.8265 58.3793C52.4487 57.7173 52.4487 57.5338 51.832 57.0832C51.8265 56.7996 51.8154 56.5214 51.8099 56.2378C52.1734 55.8484 51.9586 55.3645 52.0137 54.9251Z" fill="#FEDD94"/>
<path d="M51.832 57.083C52.4487 57.5336 52.4487 57.7115 51.8265 58.379C51.4355 57.9452 51.4355 57.5169 51.832 57.083Z" fill="#FFDE96"/>
<path d="M52.0137 54.9248C51.9586 55.3642 52.1734 55.8482 51.8099 56.2375C51.3694 55.7202 51.5346 55.2975 52.0137 54.9248Z" fill="#FFDE96"/>
<path d="M56.4687 52.5667C56.2374 54.7415 56.4081 56.922 56.5788 59.0857C56.6449 59.9646 57.0249 60.7767 57.7077 61.433C58.396 62.0949 58.4511 62.5677 58.0711 63.0517C57.6416 63.6023 56.9092 63.6468 56.1878 63.0906C55.059 62.2173 54.3211 61.1271 54.299 59.603C54.2715 57.4671 54.1669 55.3367 54.0898 53.2008C54.0788 52.8448 54.1173 52.4332 53.5722 52.4721C53.1481 52.5055 52.647 52.4499 52.603 53.1062C52.4598 55.409 51.9257 57.6729 52.2285 60.0146C52.5369 62.3786 53.6658 64.1808 55.5546 65.5269C56.2705 66.0386 57.0139 66.5337 57.7848 66.9564C59.2276 67.7518 59.9159 68.9533 59.6516 70.583C59.5139 71.4452 59.7452 71.9959 60.395 72.5243C61.265 73.2363 61.612 74.2987 61.7386 75.35C62.2287 79.4494 62.7684 83.5488 62.3774 87.7095C62.1681 89.9455 61.1714 91.3083 59.0899 92.0036C57.3718 92.5765 55.6317 93.0382 53.864 93.4164C53.4345 93.5054 53.0105 93.6278 52.603 93.7946C52.2616 93.9281 51.9807 94.1951 52.0854 94.6123C52.1955 95.0295 52.5755 94.896 52.8563 94.8904C54.7065 94.8515 56.5513 94.8126 58.4015 94.7402C63.0712 94.5623 67.7409 94.6457 72.4051 94.6123C73.11 94.6123 73.8093 94.54 74.5142 94.4844C74.9382 94.451 75.3181 94.3398 75.2961 93.7946C75.2741 93.3107 74.8941 93.2662 74.5417 93.2217C73.534 93.0994 72.5262 92.9992 71.524 92.8824C70.0758 92.7211 68.6826 92.3318 67.2949 91.8645C65.9512 91.414 65.1803 90.4906 64.7838 89.1724C64.4259 87.9709 64.2607 86.7361 64.2001 85.4901C64.0404 82.0248 63.9358 78.5539 64.0184 75.083C64.0459 73.7981 64.4589 72.7524 65.318 71.8401C66.1715 70.9335 67.1076 70.1325 68.0768 69.3538C68.6275 68.9144 69.1782 68.4638 69.6903 67.9743C72.1243 65.6493 73.4293 62.8625 73.1485 59.3972C72.774 54.7415 72.2564 50.1026 71.4469 45.5025C71.3093 44.7127 71.1551 43.9284 71.0339 43.1385C70.7751 41.4364 70.4943 41.1583 68.8257 41.1973C65.786 41.264 62.7518 41.4476 59.7232 41.7201C57.6141 41.9092 55.4995 41.9037 53.3849 41.8481C52.5479 41.8258 51.8155 41.62 51.4906 40.7968C51.2098 40.7745 51.0941 40.908 50.9785 41.0304C47.6194 44.6626 42.7295 45.6972 38.1974 43.7337C37.3439 43.3666 36.5179 42.9494 35.78 42.3765C35.2128 41.9371 34.8163 41.3697 34.6456 40.6744C34.1665 40.7189 34.15 41.0805 34.0454 41.3419C33.0542 43.7671 32.8559 46.3369 32.7018 48.9178C32.3548 54.7026 32.6302 60.4819 32.8504 66.2611C32.9661 69.1925 32.944 72.1349 33.0377 75.0719C33.1588 78.6762 33.4727 82.2584 33.9848 85.8294C34.2051 87.3813 34.9815 88.2212 36.4078 88.5772C36.7492 88.6606 37.0906 88.7997 37.4375 88.8164C41.6171 89.0277 45.7967 89.3559 49.9543 88.5661C51.5953 88.2546 53.2418 87.9542 54.8387 87.4313C56.2044 86.9864 56.9698 86.1965 57.0194 84.6613C57.157 80.4784 57.1791 76.3011 57.2617 72.1183C57.2837 70.9947 56.4467 70.7833 55.7418 70.3772C55.3729 69.9156 54.8167 69.7153 54.3431 69.3983C51.1492 67.2401 49.3871 64.2921 49.4146 60.3539C49.4201 59.375 49.4587 58.396 49.4917 57.4226C49.5633 55.5258 47.9003 53.6402 46.0335 53.6235C44.1172 53.6068 42.2669 53.9795 40.5433 54.8528C38.1754 56.0598 36.7547 57.9621 36.4188 60.6543C36.2426 62.0671 36.1214 63.48 36.0884 64.9095C35.9837 69.2258 36.3086 73.5311 36.4408 77.8419C36.4683 78.8153 36.5564 79.7943 36.6941 80.7621C36.9034 82.225 37.2062 82.4531 38.66 82.4809C42.0907 82.5476 45.5269 82.6255 48.9575 82.7089C50.3232 82.7423 51.6834 82.8535 53.049 82.8424C54.4477 82.8313 54.7616 82.5143 54.8167 81.1125C54.8607 79.9166 54.7671 78.7152 54.7671 77.5137C54.7671 75.4723 54.8002 73.4254 54.8277 71.384C54.8332 70.9168 54.8662 70.4384 55.5546 70.5997C55.8244 71.74 55.6372 72.9025 55.6647 74.0484C55.7143 76.0508 55.6978 78.0533 55.6922 80.0557C55.6922 80.5897 55.6922 81.1292 55.6096 81.6521C55.3729 83.1539 54.7451 83.7546 53.2142 83.7602C51.5898 83.7713 49.9598 83.6267 48.3353 83.5878C45.257 83.5043 42.1733 83.4487 39.0895 83.3708C36.617 83.3097 36.0829 82.8758 35.7965 80.3894C35.4166 77.0743 35.4386 73.7313 35.2403 70.4051C35.0751 67.5572 35.0476 64.7148 35.345 61.878C35.4276 61.0826 35.5212 60.2816 35.6974 59.5029C36.3472 56.6216 38.2085 54.7749 40.8131 53.6346C42.4046 52.9393 44.1061 52.6445 45.8297 52.5945C48.115 52.5277 50.2681 54.6803 50.3728 57.0944C50.4168 58.2069 50.3893 59.3193 50.3563 60.4318C50.2516 63.9528 51.832 66.5726 54.6074 68.5472C55.472 69.1591 56.3475 69.7598 57.2451 70.3161C57.8233 70.6776 58.1427 71.1226 58.1207 71.829C57.9996 76.2288 58.1593 80.6397 57.7958 85.034C57.6581 86.7416 56.8046 87.8152 55.1856 88.3269C51.4135 89.5117 47.5588 90.1068 43.6105 90.0401C42.0246 90.0123 40.4387 89.9455 38.8582 89.8843C37.5256 89.8343 36.2426 89.5951 35.0311 88.9777C34.15 88.5271 33.6104 87.8763 33.3846 86.8751C32.878 84.6557 32.6742 82.3974 32.476 80.1391C32.2006 77.0354 32.1235 73.9205 32.0905 70.8056C32.052 67.3347 31.8702 63.8693 31.7326 60.404C31.5288 55.2922 31.5508 50.1749 32.1621 45.0798C32.4264 42.8882 33.1808 40.858 34.139 38.8945C35.2293 36.664 36.3031 34.4279 37.2283 32.114C38.5829 28.7377 38.5774 25.2668 38.2745 21.7402C38.2305 21.2507 38.0267 20.917 37.6523 20.6333C37.3384 20.3942 37.0245 20.1327 36.7767 19.8324C35.7249 18.553 35.9397 17.3571 37.3549 16.5172C37.4706 16.4505 37.5917 16.4004 37.7073 16.3336C38.616 15.7941 38.627 15.5772 37.7239 14.9931C37.2448 14.6816 36.7382 14.4035 36.3417 13.9752C35.5818 13.1353 35.6478 12.1341 36.5454 11.4332C37.1457 10.9604 37.856 10.7046 38.6049 10.5822C41.0224 10.1928 43.4453 10.4042 45.8352 10.7602C47.7791 11.0494 48.3188 12.7181 47.1403 14.3257C46.5126 15.1823 46.5016 15.2212 47.1624 16.0277C47.5258 16.4783 47.8948 16.9233 48.0489 17.4962C48.3353 18.5363 48.0985 19.4486 47.2945 20.1605C46.6778 20.7112 46.4905 21.3731 46.485 22.1741C46.463 25.3613 46.9586 28.4595 47.8287 31.5132C48.4454 33.6826 49.7891 35.4848 50.8353 37.4316C51.1988 38.1102 51.4356 38.6998 50.962 39.4507C51.419 39.701 52.0028 39.7177 52.1845 40.2183C52.5039 41.0916 53.2142 41.0526 53.9246 41.0693C56.7055 41.1305 59.4643 40.858 62.2342 40.6633C64.5635 40.4964 66.8929 40.3685 69.2222 40.3129C70.8632 40.2739 71.491 40.8246 71.7938 42.3932C72.8346 47.8109 73.5946 53.2675 73.969 58.7742C73.9745 58.8632 73.969 58.9522 73.9855 59.0412C74.4426 63.708 72.4712 67.2178 68.8918 69.9545C67.8731 70.7332 66.9039 71.5676 65.9843 72.4687C65.2794 73.1584 64.9325 73.9483 64.9435 74.955C64.9821 78.7819 64.8003 82.6144 65.2078 86.4246C65.6704 90.7632 66.155 90.524 69.4039 91.5475C70.8852 92.0147 72.4381 92.0703 73.958 92.3039C74.3049 92.3596 74.6573 92.3874 74.9988 92.4708C75.8248 92.6711 76.1937 93.0993 76.1992 93.8225C76.2047 94.6346 75.8358 95.1018 74.9657 95.3076C74.2774 95.4689 73.5725 95.5078 72.8677 95.5078C69.3874 95.5078 65.9072 95.519 62.4269 95.5357C59.2551 95.5523 56.0887 95.5635 52.9169 95.7359C52.8288 95.7359 52.7407 95.747 52.6525 95.747C52.0854 95.7137 51.4631 95.7748 51.2153 95.074C50.973 94.4009 51.3309 93.5221 52.0083 93.1272C52.5094 92.8324 53.0711 92.7044 53.6272 92.5765C54.9984 92.2594 56.3861 91.998 57.7187 91.5252C58.1758 91.3639 58.6273 91.1804 59.0844 91.0357C60.6648 90.5407 61.4247 89.4671 61.5018 87.7929C61.5734 86.1464 61.7221 84.5111 61.5624 82.8647C61.3531 80.6954 61.2045 78.5205 60.9787 76.3568C60.8355 74.9606 60.4666 73.6479 59.3046 72.7079C58.7485 72.2573 58.5943 71.7233 58.765 70.9446C59.145 69.2092 58.787 68.5528 57.2892 67.6406C56.689 67.2735 56.0887 66.8952 55.494 66.5226C52.6195 64.7259 51.3309 62.0504 51.2318 58.7075C51.1878 57.278 51.4576 55.8707 51.5732 54.4579C51.6118 54.0129 51.7384 53.5679 51.7054 53.134C51.6283 52.0494 51.8045 51.7379 52.9995 51.6155C53.9631 51.5154 53.9631 51.4486 53.9356 50.4419C53.8805 48.7064 53.9136 46.971 54.0127 45.2411C54.0898 43.9061 54.0017 43.7559 52.5589 43.2331C52.0468 45.0297 51.777 46.8764 51.4796 48.7064C51.2263 50.2416 51.0281 51.7824 50.8023 53.3231C50.7637 53.5846 50.7142 53.846 50.6481 54.1074C50.5985 54.3021 50.4223 54.4022 50.2461 54.3744C50.0699 54.3466 49.9488 54.1853 49.9377 53.9906C49.9267 53.8126 49.9377 53.6346 49.9598 53.4622C50.3673 50.2861 50.7582 47.11 51.4301 43.9784C51.8265 42.1151 52.7627 41.798 54.244 43.0217C54.5634 43.2887 54.7286 43.6447 54.9268 43.9895C54.9103 46.2034 54.8828 48.4172 54.8773 50.631C54.8773 50.9425 54.7726 51.3596 55.4224 51.4375V43.7281C55.7583 43.4667 56.0887 43.3888 56.2209 43.9061C56.3035 44.2454 56.2705 44.6125 56.276 44.9685C56.298 46.7485 56.2925 48.5284 56.342 50.3028C56.3751 51.4041 56.4136 51.4264 57.4544 51.3596C61.3201 51.1093 65.1858 50.8423 69.0515 50.5753C69.2718 50.5587 69.4865 50.5253 69.7068 50.5086C70.8577 50.4419 71.122 50.6365 71.2927 51.7657C71.4579 52.867 71.6011 53.9684 71.7168 55.0753C71.948 57.328 72.2234 59.5808 72.1022 61.8558C72.0472 62.8848 71.7388 63.7636 71.122 64.5535C69.3158 66.8897 66.97 68.5027 64.3047 69.6653C63.2089 70.1436 62.069 70.1269 60.9952 69.5151C60.7364 69.3649 60.428 69.148 60.6042 68.7864C60.7804 68.4137 61.1274 68.5083 61.4082 68.6585C62.6032 69.287 63.699 68.9533 64.8058 68.3859C66.7828 67.368 68.5834 66.1221 70.0648 64.4256C70.8522 63.5189 71.2927 62.5288 71.2762 61.2884C71.2322 58.1679 70.8192 55.0864 70.4998 51.9882C70.4392 51.3986 70.0647 51.4097 69.6572 51.4375C67.6363 51.571 65.6153 51.7101 63.5944 51.8491C61.3091 52.0049 59.0293 52.1606 56.744 52.3164C56.5678 52.2885 56.4412 52.3275 56.4412 52.5388L56.4687 52.5667ZM36.2701 40.9525C36.1214 40.8302 35.9562 40.6021 35.7635 40.7745C35.5487 40.9692 35.7525 41.1305 35.9177 41.2584C36.0113 41.5254 36.2205 41.6923 36.4408 41.8369C40.5103 44.4902 44.6458 44.5347 48.7538 42.1039C49.4642 41.6868 49.9598 41.036 50.3838 40.1905C49.7725 40.1126 49.5082 40.4352 49.1943 40.641C45.8132 42.8437 42.2559 43.5335 38.4067 41.9871C37.6688 41.6923 36.975 41.3141 36.2701 40.9581V40.9525ZM34.9099 39.9513C35.6919 39.7956 36.3086 39.9068 36.9529 40.2795C40.8186 42.5211 44.7064 42.4655 48.4124 39.9791C50.8794 38.3271 50.571 39.0725 49.2549 36.4915C49.0126 36.0187 48.7318 35.5682 48.4454 35.1176C47.6635 33.8661 47.1183 32.5089 46.7494 31.085C45.9894 28.148 45.5489 25.1722 45.6535 22.1185C45.6921 21.0895 45.9729 20.2217 46.6557 19.4541C47.4707 18.5363 47.4597 17.9857 46.7328 16.9844C46.6282 16.8398 46.5016 16.7119 46.3914 16.5784C45.4663 15.4214 45.4553 15.0432 46.3033 13.8862C46.4355 13.7082 46.6007 13.5525 46.6998 13.3578C47.0082 12.7348 46.7824 12.0729 46.1601 11.7948C45.8848 11.6724 45.5709 11.6112 45.2625 11.5779C43.203 11.3665 41.138 11.3053 39.0675 11.4332C38.4012 11.4777 37.7679 11.7058 37.2228 12.1007C36.6446 12.5179 36.606 12.924 37.1402 13.4079C37.6303 13.8473 38.2305 14.1588 38.7316 14.5871C39.6237 15.3491 39.5631 16.2224 38.6049 16.8899C38.4232 17.0178 38.2305 17.1291 38.0267 17.2125C36.6886 17.7743 36.8208 18.6698 37.7349 19.5765C37.8891 19.7322 38.0708 19.8713 38.2525 19.9881C38.8638 20.3886 39.1281 20.9504 39.1116 21.6791C39.1061 22.0295 39.1831 22.3855 39.2162 22.7359C39.5191 25.8675 39.3759 28.9379 38.2635 31.9304C37.4595 34.0997 36.5124 36.1967 35.4826 38.2604C35.2458 38.7276 34.921 39.167 34.8934 39.9569L34.9099 39.9513ZM55.2297 52.3219C55.0975 52.4721 54.9929 52.5333 54.9929 52.5945C54.9819 55.1142 54.8938 57.6395 55.2187 60.1426C55.3453 61.1104 55.9511 61.828 56.6669 62.4454C56.8211 62.5789 57.0359 62.7457 57.2451 62.5566C57.4764 62.3452 57.2947 62.1506 57.1405 62.0059C56.0667 61.0047 55.7693 59.692 55.6372 58.2903C55.494 56.744 55.4995 55.1921 55.472 53.6458C55.4665 53.2286 55.6262 52.7669 55.2297 52.3219ZM34.6897 40.2795C34.6621 40.3073 34.6071 40.3407 34.6126 40.3629C34.6236 40.4241 34.6566 40.4797 34.6842 40.5353C34.7117 40.5075 34.7668 40.4742 34.7613 40.4519C34.7502 40.3907 34.7172 40.3351 34.6897 40.2739V40.2795Z" fill="#5D5D5D"/>
</svg>
