<svg width="101" height="100" viewBox="0 0 101 100" fill="none" xmlns="http://www.w3.org/2000/svg">
<g clip-path="url(#clip0_49_4065)">
<path d="M61.5829 99.9828C55.0919 100.128 48.6957 99.0259 42.3768 97.3672C36.7045 95.8768 31.0975 94.1833 25.8228 91.6316C21.4203 89.4974 17.4687 86.7658 14.3715 82.9382C12.645 80.804 10.7048 78.8264 9.09684 76.5994C7.39398 74.239 6.10051 71.664 5.25205 68.8977C4.21966 65.5398 3.39493 62.1239 2.79566 58.6674C2.42186 56.539 1.9828 54.4164 1.787 52.2532C1.609 50.2814 1.2352 48.3328 1.0038 46.3668C0.891068 45.4041 0.831735 44.4414 0.724936 43.4787C0.262138 39.2741 0.274004 35.0521 0.434204 30.8475C0.582536 27.014 1.35387 23.2386 2.52866 19.5849C4.05946 14.841 6.58111 10.648 10.1352 7.0465C12.7696 4.36715 15.7481 2.21555 19.3259 0.928073C22.8443 -0.336209 26.3628 -0.365206 29.8041 1.17745C34.3668 3.21886 38.3718 6.03159 42.0504 9.36628C44.9459 11.9876 47.3667 14.9802 49.7697 18.0017C52.2379 21.1102 54.7952 24.1607 57.833 26.753C60.0877 28.6785 62.7162 30.0703 65.487 31.207C69.2013 32.7323 73.0757 33.8052 76.873 35.1043C81.1272 36.5541 85.2983 38.1838 89.1668 40.4804C92.8514 42.6726 95.7054 45.6419 97.7939 49.3071C98.4584 50.4786 99.0814 51.6791 99.4967 52.9724C100.405 55.7967 100.476 58.65 100.161 61.5904C99.5145 67.6044 97.3785 73.1893 95.0764 78.6988C93.5219 82.422 91.4274 85.8785 88.7337 89.0044C84.3549 94.0963 78.8488 97.257 72.3281 98.8229C67.9909 99.8668 67.1009 100.058 61.5829 99.977V99.9828Z" fill="#ECEAD0"/>
<path d="M31.2459 51.6094C31.1747 45.7114 32.4682 40.1323 35.2153 34.8606C37.2504 30.9633 40.3001 28.2376 44.489 26.6833C46.6191 25.8946 48.7076 25.0537 50.9979 24.7579C52.944 24.5027 54.8901 24.5259 56.8185 24.6535C59.0791 24.8043 61.3278 25.1349 63.4697 25.9758C67.9553 27.733 70.8923 30.8299 72.1917 35.3941C73.2893 39.2624 73.7877 43.2292 73.497 47.2192C73.1944 51.418 72.4824 55.5762 71.2542 59.6358C70.3642 62.5762 69.3437 65.4585 67.7892 68.1436C66.0685 71.113 63.8732 73.6183 60.5802 74.9928C58.5213 75.8569 56.3438 76.3615 54.1188 76.5529C48.1202 77.0748 42.7803 75.2828 37.9802 71.8843C36.4909 70.8288 35.3102 69.4659 34.5745 67.6971C32.925 63.7187 31.8274 59.6358 31.4298 55.35C31.3171 54.1032 31.2222 52.8563 31.234 51.6094H31.2459Z" fill="#A8BE8D"/>
<path d="M99.6333 37.2732C99.6451 41.7735 99.5858 46.2449 98.1855 50.6177C97.2303 53.6044 95.6164 56.017 93.1956 58.0468C91.475 59.4909 89.6 60.4072 87.3988 60.79C85.3696 61.1379 83.3285 61.0509 81.2993 60.8828C77.8936 60.6044 74.9329 59.1487 72.1027 57.4089C70.7084 56.5506 69.6107 55.4023 68.964 53.9002C67.4569 50.3973 65.8965 46.9119 65.1963 43.1422C64.0275 36.8846 64.0927 30.6792 66.2347 24.613C67.1365 22.0554 68.4241 19.695 70.7558 18.0132C72.1205 17.0273 73.6098 16.3661 75.2177 15.9312C77.33 15.3628 79.4897 15.0845 81.6672 14.9105C85.1679 14.6321 88.0692 16.1226 90.7036 18.0828C95.6045 21.7248 98.5831 26.5558 99.4019 32.564C99.6155 34.1183 99.568 35.7073 99.6392 37.2848L99.6333 37.2732Z" fill="#EA7C5B"/>
<path d="M4.5994 73.3575C4.6884 67.2506 5.26986 62.5763 6.69385 58.0179C7.46518 55.5532 8.62811 53.274 10.1708 51.2036C12.0516 48.6692 14.7335 47.1903 17.7417 46.2856C19.3259 45.8101 20.9457 45.4447 22.5536 45.0561C25.3778 44.3776 28.0894 44.8184 30.7534 45.8333C33.4709 46.8656 35.2627 48.8316 36.574 51.2848C37.9565 53.8655 38.6744 56.655 39.066 59.5084C39.7839 64.7105 39.1669 69.8662 38.2709 74.9929C38.0099 76.495 37.5945 77.9796 36.9834 79.3947C34.5863 84.9332 30.3262 88.2911 24.3633 89.5612C22.0255 90.0599 19.6403 89.8047 17.3085 89.3176C15.9676 89.0392 14.6445 88.6564 13.3214 88.3085C9.54184 87.3168 7.31092 84.8172 6.08272 81.2911C5.03253 78.2754 4.50446 75.1901 4.5994 73.3575Z" fill="#EA7C5B"/>
<path d="M5.53091 57.7162C4.91385 57.1189 5.10371 56.452 5.36478 55.7792C6.23697 53.5232 7.58977 51.5804 9.41723 49.974C13.3866 46.4827 18.1273 45.0212 23.3902 45.0212C26.1373 45.0212 28.7539 45.52 31.1331 46.9814C31.9104 47.4628 32.5571 48.0427 33.1564 48.7097C35.7493 51.5978 36.93 55.0833 37.6894 58.7601C38.5616 62.9821 38.5676 67.2389 38.1107 71.5015C38.0336 72.2207 38.259 72.5976 38.8346 72.963C41.7597 74.8188 44.8866 75.9265 48.4287 76.0657C55.0444 76.3151 60.0758 73.3922 64.3122 68.7874C65.3031 67.7087 65.9023 66.3864 66.3473 64.9945C67.1009 62.6516 67.8188 60.297 68.4299 57.9134C68.5842 57.3219 68.6139 56.7999 68.1985 56.2258C65.6294 52.6417 64.0986 48.6227 63.1137 44.3833C62.9891 43.8439 62.7814 43.2002 63.618 43.0494C65.3446 42.742 66.4541 41.5706 67.4806 40.3701C69.5632 37.9343 69.2843 38.5722 68.4774 35.8117C67.801 33.5035 66.3473 31.6303 64.8759 29.8035C64.3181 30.0064 64.4131 30.4008 64.3597 30.6792C63.7723 33.8863 63.3569 37.0992 63.8553 40.3585C63.8791 40.4977 63.8791 40.6368 63.885 40.776C63.9859 42.3303 63.7841 42.4927 62.2474 42.1795C59.6249 41.6517 57.0617 41.8083 54.5816 42.8696C54.2315 43.0204 53.7213 43.4554 53.4661 42.9392C53.1635 42.3303 53.8815 42.2201 54.2612 42.0287C56.593 40.8746 59.085 40.776 61.6244 41.0138C61.7668 41.0254 61.9033 41.0776 62.0457 41.095C62.906 41.1994 62.9653 41.1646 62.8823 40.3353C62.6865 38.4852 62.6449 36.6294 62.7933 34.7794C62.9297 33.1149 63.1433 31.4563 63.529 29.8267C63.6892 29.1423 63.5527 28.7016 62.9475 28.3014C62.1584 27.7794 61.3396 27.3329 60.4437 27.0023C54.279 24.7347 48.1736 25.0189 42.1276 27.4083C39.7424 28.3536 37.8675 29.9136 36.2417 31.8739C33.3047 35.4173 31.8511 39.5059 31.1806 43.9367C31.1035 44.4413 31.2993 44.6327 31.7977 44.5689C32.6343 44.4645 33.3107 44.0527 33.9159 43.5134C34.5804 42.916 35.2271 42.3071 36.0044 41.8431C39.2677 39.8887 42.7506 39.7843 46.2987 40.805C48.2329 41.356 49.3365 42.8 49.7222 44.7255C50.1791 46.9988 49.4671 49.046 48.316 50.9657C47.3073 52.6475 46.1563 54.2366 44.8569 55.727C43.9906 56.7129 44.0025 56.8637 45.0527 57.6698C46.1266 58.4992 47.3904 58.8761 48.7254 59.0443C48.9568 59.0733 49.2001 59.0617 49.4374 59.0733C49.74 59.0849 50.0248 59.1777 50.1375 59.4619C50.2503 59.7576 50.0485 59.9954 49.8349 60.1868C49.2713 60.7088 48.583 61.0103 47.8769 61.2945C46.6962 61.7643 45.4265 61.9498 44.2102 62.3268C44.2576 62.8024 44.5958 62.8893 44.8806 62.9937C47.4735 63.9448 50.1138 64.2754 52.8253 63.5505C53.7391 63.3069 54.6468 63.0401 55.5665 62.7966C55.881 62.7096 56.2726 62.5936 56.4387 62.9821C56.6167 63.3997 56.2132 63.5563 55.9225 63.6665C53.2763 64.6524 50.5766 65.2961 47.7167 64.7974C46.4529 64.577 45.1951 64.3508 44.05 63.7477C43.7177 63.5737 43.3973 63.3649 43.1006 63.1329C42.7565 62.8661 42.4598 62.5356 42.62 62.06C42.7624 61.6483 43.154 61.5903 43.5397 61.5323C44.7145 61.3525 45.8715 61.1089 46.981 60.6856C47.3667 60.5406 47.8057 60.4652 48.1736 60.007C47.6633 59.8736 47.2005 59.7576 46.7437 59.6243C45.4384 59.2415 44.317 58.5804 43.4804 57.5017C42.9048 56.7593 42.9108 56.5679 43.5278 55.814C44.8272 54.2192 46.0613 52.5721 47.1649 50.8381C47.871 49.7246 48.3813 48.5299 48.6423 47.2482C48.8975 45.9781 48.7907 44.7371 48.1499 43.6004C47.604 42.6203 46.7318 41.9939 45.6045 41.7445C41.558 40.8514 37.7725 41.1008 34.6041 44.1223C33.8447 44.8472 32.9487 45.375 31.857 45.4736C30.6585 45.5838 30.166 45.1198 30.2669 43.9541C30.7415 38.491 32.9191 33.7529 36.6986 29.7223C37.7607 28.5914 39.0244 27.6693 40.4603 27.0081C47.2895 23.8764 54.2374 23.511 61.2981 26.2194C61.7372 26.3876 62.1644 26.6022 62.5737 26.8283C62.9831 27.0545 63.3688 27.3213 63.7426 27.5591C64.1639 27.3097 64.1283 26.9037 64.241 26.5674C64.6445 25.3321 65.1013 24.1142 65.5819 22.9021C67.5933 17.8334 74.2624 14.8177 78.5344 15.8616C79.9999 16.2211 81.5188 16.4009 83.0081 16.6619C85.7908 17.1548 88.1879 18.3843 90.2764 20.246C91.8902 21.6842 93.516 23.0819 94.7798 24.8623C96.5953 27.4257 97.3489 30.337 97.7761 33.3237C98.1855 36.2119 98.3991 39.1406 98.3279 42.0635C98.2389 45.6534 97.7405 49.1968 96.2215 52.5025C93.6524 58.0874 89.244 61.2191 82.9665 61.8396C78.2674 62.3036 74.1971 60.7899 70.3879 58.3078C70.1565 58.157 69.9607 57.9308 69.5276 57.896C69.2013 59.0501 68.8809 60.239 68.5308 61.4163C68.1748 62.6168 67.7773 63.8057 67.4272 65.0119C66.5965 67.8885 64.8877 70.1909 62.5322 72.0177C59.7258 74.1983 56.676 75.9961 53.1042 76.7094C48.9449 77.5388 44.9044 77.0864 41.0536 75.306C39.9856 74.813 38.977 74.1983 37.9386 73.6415C37.6242 73.6821 37.6242 73.9663 37.5767 74.1635C36.2833 79.2322 33.6192 83.547 30.0117 87.3456C28.8548 88.5635 27.4486 89.3987 25.8703 89.9728C22.4586 91.2139 18.9283 91.6314 15.3683 90.9529C9.50029 89.8336 5.64958 86.3481 3.82805 80.8097C3.07452 78.5131 2.71852 76.1179 2.62952 73.6937C2.45745 68.8454 2.89059 64.0608 4.08318 59.3459C4.22558 58.7949 4.21965 58.0758 5.10964 58.0758C5.24611 58.3368 5.26391 58.6035 5.19271 58.8819C4.38578 62.0368 3.94078 65.2439 3.71532 68.4858C3.44832 72.4005 3.63225 76.2803 4.70618 80.0731C6.15391 85.1999 9.59523 88.5287 14.8284 89.8162C18.8453 90.8079 22.8384 90.1932 26.6535 88.6041C27.3596 88.3084 27.9766 87.8908 28.5522 87.3978C31.1747 85.1535 32.9369 82.2943 34.5151 79.3308C35.3873 77.6896 36.1349 75.9903 36.6155 74.1809C36.8469 73.311 36.7401 72.7832 35.9985 72.1627C32.6817 69.3789 30.5932 65.8993 29.9287 61.6193C29.5964 59.4793 29.1574 57.3509 29.0387 54.8745C26.078 56.8057 23.3486 58.5688 20.7083 60.6102C21.4974 61.4395 21.9721 62.3036 22.1382 63.3823C23.6216 62.553 25.0812 62.3094 26.6357 62.6284C27.0332 62.7096 27.6384 62.5936 27.6444 63.1445C27.6444 63.7129 27.051 63.6085 26.6416 63.6433C25.6448 63.7245 25.0851 64.2619 24.9625 65.2555C24.9625 65.3019 24.9566 65.3483 24.9506 65.3947C24.8854 65.9399 24.6658 66.427 24.0725 66.5198C23.408 66.6184 23.0104 66.1776 22.8087 65.6151C22.6663 65.2149 22.6248 64.7858 22.5298 64.3218C22.3103 64.432 22.1857 64.4958 22.067 64.5596C21.6814 64.7742 21.3906 65.3947 20.8685 65.0641C20.3523 64.7336 20.738 64.229 20.8685 63.8057C20.8804 63.7593 20.8863 63.7129 20.91 63.6723C21.272 62.9531 21.0643 62.3616 20.5718 61.7585C19.6463 60.6276 19.7175 60.1926 20.916 59.2647C23.2596 57.4437 25.7576 55.843 28.2377 54.2192C28.392 54.1148 28.564 54.0278 28.7361 53.9466C29.6261 53.5406 29.9643 53.7146 29.9821 54.6889C30.0355 57.3045 30.6347 59.833 31.1035 62.3848C31.4951 64.5248 32.4088 66.4502 33.6607 68.219C34.5685 69.5007 35.6603 70.6316 37.0843 71.7045C37.1851 71.0956 37.2919 70.6606 37.3216 70.2141C37.6954 64.461 37.2148 58.8123 35.0551 53.3956C33.5243 49.5506 30.8127 46.993 26.517 46.2797C21.5508 45.4562 16.8695 46.2739 12.5559 48.7851C9.71389 50.4379 7.60163 52.7925 6.31411 55.8024C5.87504 56.8289 5.91064 56.9275 6.9549 57.3567C9.00783 58.1976 11.0667 59.0269 13.1433 59.8214C14.0333 60.1636 14.8818 60.5638 15.6947 61.0335C16.5965 61.5497 17.0178 62.205 16.8042 63.3243C16.1575 66.6938 15.6235 70.0807 15.042 73.4618C14.8462 74.6042 14.9293 74.7376 16.0863 74.9232C16.8932 75.0508 17.6942 74.8768 18.5011 74.8478C19.0826 74.8246 19.2843 75.132 19.1182 75.6423C18.958 76.1295 18.6791 76.5645 18.3647 76.9762C18.1926 77.2024 17.801 77.3764 18.0917 77.8461C18.6673 77.7649 19.2725 77.6896 19.8717 77.5968C21.5805 77.3358 23.1766 77.649 24.6421 78.5421C25.0396 78.7856 25.8169 79.006 25.4431 79.6034C25.1524 80.0731 24.5768 79.6092 24.203 79.3772C22.8977 78.5653 21.4737 78.3797 19.9726 78.5247C18.2045 78.6929 16.555 79.267 14.9174 79.8876C14.4783 80.0557 14.0571 80.2935 13.5646 80.2935C13.0959 80.2935 12.8348 79.9687 13.0365 79.5628C13.1789 79.2786 13.4044 79.0234 13.6358 78.7972C14.3953 78.0781 15.2912 77.5736 16.2999 77.2372C16.911 77.0342 17.5874 76.8544 17.6586 75.9845C16.7983 75.8337 15.9379 75.9323 15.1251 75.6539C13.8909 75.2364 13.7841 75.1204 14.0037 73.8677C14.5199 70.8984 15.0361 67.9291 15.5641 64.9655C16.0863 62.0426 16.021 61.828 13.1611 60.8189C10.5742 59.9026 8.10003 58.7369 5.54871 57.7394L5.53091 57.7162ZM17.4747 77.9273C17.5755 77.8925 17.6823 77.8577 17.7832 77.8171C17.7061 77.7011 17.6052 77.6896 17.4865 77.7592C16.9525 77.9389 16.3829 78.0433 15.9498 78.4551C16.4423 78.2289 17.0415 78.3217 17.4747 77.9273ZM69.8243 36.7918C70.4888 35.8407 70.732 35.0868 71.0228 34.356C71.4381 33.3237 71.8653 32.2914 72.2866 31.2591C72.69 30.2558 73.3664 29.7397 74.5472 29.7165C77.5494 29.6527 80.522 29.3511 83.1386 27.6867C83.1801 27.6635 83.2217 27.6403 83.2632 27.6229C83.5539 27.5185 83.8387 27.5185 83.9989 27.82C84.1295 28.0694 83.9693 28.2666 83.7853 28.4174C83.192 28.8929 82.5156 29.2235 81.8214 29.5251C79.6973 30.4414 77.4486 30.7778 75.1524 30.6734C73.8233 30.6154 73.1825 31.1953 72.7375 32.3262C72.0789 34.0139 71.4915 35.7305 70.5956 37.3196C70.2811 37.8821 70.2514 38.3983 70.3879 39.0304C70.9872 41.7503 71.5746 44.4993 71.2364 47.2946C70.916 49.9102 70.7083 52.5547 70.0201 55.1123C69.7234 56.22 70.0734 56.8579 70.9753 57.4205C73.224 58.8297 75.544 60.0882 78.1962 60.5928C81.8451 61.2887 85.4111 60.9465 88.71 59.2415C92.5548 57.2523 94.9459 54.0858 96.1207 49.9856C97.8413 43.9831 97.4141 37.9575 96.4707 31.9203C96.0376 29.1307 95.0171 26.5558 93.1303 24.352C91.9377 22.9543 90.5078 21.806 89.1134 20.6113C87.5174 19.2427 85.6959 18.2973 83.6192 17.8102C81.9104 17.41 80.1601 17.2244 78.4513 16.8649C74.1496 15.966 68.9936 18.7729 67.1602 22.0554C66.1753 23.8126 65.5167 25.6916 64.9945 27.6287C64.8581 28.139 64.9115 28.5044 65.3387 28.8523C66.0744 29.4555 66.5787 30.2442 67.1127 31.0097C68.2935 32.6974 69.314 34.4546 69.8302 36.7744L69.8243 36.7918ZM68.8809 55.0949C69.9667 49.9334 71.0169 44.8182 69.403 39.6045C69.0055 39.7437 68.8868 40.0163 68.7088 40.2251C67.5043 41.5938 66.3711 43.0494 64.5317 43.6874C63.9859 43.8787 64.152 44.2615 64.2469 44.6037C64.5792 45.81 64.9233 47.0162 65.2912 48.2109C66.0566 50.7047 67.3501 52.9433 68.8809 55.0949Z" fill="#4C4C4C"/>
<path d="M60.7582 47.202C60.6988 48.0313 60.4912 48.7389 60.0046 49.3304C59.3638 50.1133 58.5391 49.9799 58.1712 49.0636C57.7678 48.0603 57.8152 47.0686 58.3374 46.1175C58.5925 45.6593 58.9544 45.265 59.5537 45.294C60.1826 45.3288 60.4081 45.8101 60.5624 46.3147C60.6573 46.6221 60.7107 46.941 60.7641 47.1962L60.7582 47.202Z" fill="#4C4C4C"/>
<path d="M42.5489 47.3006C42.537 47.9153 42.4005 48.4953 42.0979 49.0288C41.8843 49.4116 41.5877 49.6842 41.0833 49.6552C40.5731 49.632 40.3535 49.3304 40.1874 48.907C39.778 47.8457 39.8195 46.825 40.3713 45.8275C40.6087 45.3984 40.9231 45.0562 41.4809 45.12C41.9674 45.1722 42.1751 45.5317 42.3471 45.9377C42.537 46.3785 42.5607 46.8366 42.5429 47.3006H42.5489Z" fill="#4C4C4C"/>
<path d="M8.15936 66.2703C7.6135 66.0731 7.0795 66.9082 6.82437 66.3399C6.52177 65.6787 7.3287 65.4409 7.7915 65.238C9.15616 64.6232 10.598 64.4898 12.0694 64.8204C12.3067 64.8726 12.5441 64.977 12.5381 65.2554C12.5322 65.5917 12.2652 65.7019 11.9626 65.7135C11.7727 65.7135 11.5769 65.7309 11.3989 65.6903C10.6988 65.5337 10.3488 65.7077 10.3369 66.4906C10.331 66.9314 10.1233 67.3838 9.93342 67.8013C9.72575 68.2653 9.29262 68.5089 8.78236 68.3871C8.32549 68.2769 8.11783 67.8883 8.11189 67.436C8.11189 67.0706 8.14156 66.7052 8.16529 66.2761L8.15936 66.2703Z" fill="#4C4C4C"/>
<path d="M19.6463 80.1425C20.2277 80.1309 20.9813 80.3571 21.6755 80.7804C21.8772 80.9022 22.0374 81.0936 21.9306 81.3546C21.8238 81.6098 21.5449 81.6852 21.3432 81.5924C19.6937 80.8442 18.1511 81.0414 16.6796 82.0389C16.4719 82.1781 16.2168 82.1549 16.0922 81.894C15.9736 81.6446 16.11 81.4532 16.2999 81.2966C17.2017 80.5717 18.2223 80.1599 19.6463 80.1483V80.1425Z" fill="#4C4C4C"/>
<path d="M84.2185 47.7352C84.0108 47.0682 83.1208 47.0392 83.2691 46.4419C83.4293 45.775 84.2007 45.8736 84.705 45.7692C86.1468 45.4734 87.3335 44.7833 88.4193 43.8379C88.9355 43.3856 88.9829 42.9912 88.6507 42.3997C87.5233 40.4047 86.6452 38.3053 86.2536 36.0493C85.9154 34.0717 85.9273 32.0825 86.4435 30.1222C86.8291 28.6666 87.1377 28.5274 88.5201 29.1247C89.1669 29.4089 89.7958 29.7453 90.4425 30.0236C91.8131 30.6152 93.2786 30.7254 94.7442 30.8124C95.029 30.8298 95.385 30.8124 95.4265 31.1487C95.474 31.5605 95.0764 31.6881 94.756 31.7113C93.0769 31.8041 91.4512 31.5315 89.9026 30.8762C89.1669 30.563 88.4608 30.1976 87.6895 29.8323C87.108 30.7486 87.108 31.7229 87.0427 32.6682C86.8529 35.4751 87.6776 38.0675 88.8524 40.5787C89.1253 41.1702 89.4161 41.7559 89.7305 42.3243C90.1577 43.084 90.0153 43.6988 89.3983 44.3135C88.3599 45.34 87.3097 45.9953 85.1322 46.7957C85.15 47.2886 86.129 47.5322 85.5891 48.1643C85.2093 48.6109 84.5389 48.5065 83.8862 49.0401C84.6635 49.0401 85.239 49.0633 85.8086 49.0401C87.1733 48.9821 88.4252 49.4054 89.6593 49.8868C89.9975 50.0202 90.4662 50.171 90.312 50.6407C90.1518 51.1221 89.7068 51.0003 89.3567 50.8321C86.8232 49.6142 84.1769 50.0144 81.5425 50.2869C81.056 50.3391 80.4034 50.6929 80.1601 50.055C79.9228 49.4344 80.6348 49.2488 81.0501 48.9821C82.0053 48.3731 83.1445 48.1817 84.2422 47.741L84.2185 47.7352Z" fill="#4C4C4C"/>
<path d="M93.6644 36.3917C92.543 36.5135 91.6292 36.8209 90.6859 36.5541C90.0866 36.3859 89.517 36.1771 89.0186 35.8117C88.7516 35.6146 88.4431 35.3536 88.6448 35.0114C88.8703 34.6345 89.2025 34.8548 89.4992 35.023C89.8255 35.2028 90.1637 35.3826 90.5138 35.5102C91.297 35.7828 92.092 35.7654 92.8752 35.4812C93.2312 35.3536 93.5754 35.1854 93.9432 35.11C94.768 34.9418 95.124 35.3188 94.8748 36.1075C94.6671 36.7687 94.4179 37.424 94.139 38.0561C93.8542 38.6941 93.8305 39.216 94.2755 39.8482C94.9163 40.7471 95.0528 41.82 94.9697 42.9103C94.9044 43.7628 94.5069 44.2848 93.9076 44.3543C93.2668 44.4297 92.6201 43.9426 92.365 43.1597C92.187 42.6261 92.1929 42.0752 92.2522 41.5126C92.4006 40.0685 92.9168 38.7289 93.4092 37.3776C93.5042 37.1224 93.5457 36.8498 93.6584 36.3975L93.6644 36.3917ZM93.3855 40.3875C93.2134 41.4372 93.0888 42.2085 93.338 42.9741C93.3855 43.1191 93.5694 43.2988 93.7118 43.322C93.9076 43.351 94.0263 43.1655 94.0382 42.9625C94.0856 42.1448 94.0678 41.3444 93.3855 40.3817V40.3875Z" fill="#4C4C4C"/>
<path d="M76.6061 36.4729C75.2711 36.3917 74.1913 35.9799 73.2419 35.2434C73.0936 35.1274 72.975 34.965 73.0521 34.762C73.1589 34.4895 73.414 34.4953 73.6395 34.5649C73.865 34.6344 74.0785 34.7388 74.2803 34.8548C75.6568 35.632 77.0689 35.5972 78.4989 35.023C78.6709 34.9534 78.843 34.8722 79.021 34.82C79.3948 34.7098 79.8635 34.3213 80.1009 34.9128C80.2848 35.371 79.7805 35.5044 79.4601 35.6667C78.5285 36.1365 77.5317 36.3975 76.6002 36.4787L76.6061 36.4729Z" fill="#4C4C4C"/>
</g>
<defs>
<clipPath id="clip0_49_4065">
<rect width="100" height="100" fill="white" transform="translate(0.333374)"/>
</clipPath>
</defs>
</svg>
