<svg width="100" height="100" viewBox="0 0 100 100" fill="none" xmlns="http://www.w3.org/2000/svg">
<path d="M31.1779 99.9363C27.1247 100.118 23.2269 99.3791 19.4307 98.0067C17.6073 97.3497 16.1427 96.1239 14.6361 94.9919C12.5079 93.3965 10.6068 91.5372 8.84922 89.5724C5.16065 85.4608 2.0998 80.968 0.790565 75.5367C0.186763 73.0264 -0.159974 70.4574 0.0731771 67.8884C0.521544 62.9557 1.1373 58.0406 3.24762 53.4539C4.82587 50.0169 6.84651 46.8731 9.46498 44.0871C12.6693 40.691 16.316 37.8464 20.3394 35.4651C22.7068 34.0633 25.1817 32.855 27.6986 31.7113C32.3736 29.5822 37.0426 27.4062 41.2213 24.3914C42.1719 23.7052 43.1045 22.9661 43.9474 22.1274C46.2909 19.7813 48.6702 17.4704 51.0436 15.1536C53.5126 12.7371 56.1669 10.5376 59.0962 8.66656C61.6908 7.01255 64.5544 6.03891 67.5495 5.35853C70.413 4.70749 73.3364 4.60778 76.2299 4.83652C79.4641 5.0946 82.5668 5.95679 85.4602 7.52869C89.7825 9.86894 92.8792 13.2649 95.2287 17.488C97.5183 21.6171 98.8216 26.022 99.5808 30.6086C100.029 33.2949 100.113 36.0399 99.8558 38.732C99.3835 43.7293 98.1341 48.5564 96.1971 53.2252C94.2602 57.8998 91.7374 62.2284 88.6586 66.2461C85.6695 70.1465 82.3037 73.742 78.6211 77.0089C72.5891 82.3581 65.8696 86.7922 58.9348 90.9273C54.1044 93.8071 49.0468 96.206 43.6365 97.8659C40.773 98.7457 37.8496 99.4143 34.8964 99.9012C33.6888 100.101 32.4154 99.9363 31.1719 99.9363H31.1779Z" fill="#ECEAD0"/>
<path d="M36.1996 31.6995C36.8273 31.2361 37.18 30.4561 37.9632 30.1511C39.4757 29.5704 40.8925 29.7991 42.13 30.7786C42.7398 31.2596 43.0447 31.2596 43.4452 30.5792C44.0849 29.5117 45.1789 28.9545 46.3148 28.585C47.5702 28.1745 48.7778 28.6026 49.818 29.3123C50.4816 29.7698 50.374 30.3681 49.6028 30.7083C49.0468 30.9546 48.437 31.1482 47.8332 31.2185C47.0082 31.3065 46.5539 31.852 46.1534 32.4151C45.6273 33.1541 45.986 33.7934 46.9186 33.7875C49.9436 33.7699 52.8789 34.3037 55.7723 35.0896C56.3881 35.2539 57.0098 35.3008 57.6076 35.0955C59.3473 34.5031 62.2049 35.7641 63.2332 37.5531C64.2016 39.2423 63.9147 41.3714 61.8283 42.2512C61.4935 42.3919 61.3142 42.6207 61.1109 42.8905C60.1245 44.2043 59.1142 45.5064 58.0979 46.7968C57.8109 47.1604 57.518 47.5065 57.5299 48.0637C57.7571 48.0226 57.9365 48.0402 58.0082 47.9639C59.1142 46.785 60.5011 45.9404 61.7446 44.9257C65.3016 42.04 70.3951 41.5766 74.0777 44.2336C75.6201 45.348 76.995 46.6619 77.6945 48.4918C78.0173 49.3306 78.5972 49.7763 79.482 50.1165C81.7956 51.0022 83.2602 52.7794 84.0075 55.0551C84.8564 57.6593 84.4738 60.023 82.6026 62.2518C80.857 64.334 78.7168 65.9704 76.8037 67.8531C76.2956 68.3517 75.8293 68.8796 75.4586 69.4837C74.7114 70.7095 74.6396 71.9471 75.4885 73.1554C76.0684 73.9765 76.5168 74.8387 76.6722 75.8299C76.7918 76.5924 77.2342 77.091 77.9635 77.3784C78.9977 77.7831 79.8228 78.4635 80.6478 79.1966C82.6564 80.9679 82.5727 83.7598 80.9048 85.7775C79.6314 87.3083 78.095 88.4579 75.9309 88.4227C75.3809 88.4169 75.076 88.6515 74.9385 89.2145C74.1135 92.6399 70.6223 94.6047 67.4538 94.6106C66.5929 94.6106 65.7201 94.5285 64.8712 94.6282C63.1076 94.8276 61.5533 94.2997 60.1484 93.3672C59.5326 92.9566 59.2158 93.0504 58.6897 93.4727C58.0799 93.9654 57.4163 94.417 56.5914 94.6341C55.1984 94.9977 53.8533 94.6927 52.5321 94.4229C50.8881 94.0886 49.4055 93.3026 48.0066 92.3818C46.6017 91.4609 45.7708 90.1823 45.699 88.5576C45.6034 86.3933 44.4017 84.9563 42.8295 83.619C40.2409 81.4137 37.5447 79.3081 35.4643 76.5924C34.6752 75.5601 34.179 74.4164 34.1849 73.0909C34.1849 72.0292 33.4436 71.3899 32.6844 70.8151C31.7757 70.123 30.7475 69.5893 29.6774 69.1963C28.4518 68.7505 27.3578 68.123 26.3056 67.3839C25.917 67.1141 25.5105 66.8678 25.0921 66.6449C23.7828 65.9469 23.7171 65.9763 22.7486 67.0907C22.348 67.554 21.8459 67.9353 21.4573 68.4045C20.9432 69.0262 20.1959 69.1435 19.5263 69.1494C16.9198 69.1552 14.5823 68.293 12.5318 66.7211C11.6769 66.0642 10.8698 65.378 10.1704 64.5158C8.53235 62.4981 8.44866 58.0112 10.1823 56.058C10.3378 55.8821 10.4095 55.6357 10.565 55.4657C10.9894 55.0082 10.9416 54.6269 10.6008 54.099C9.75191 52.7911 9.04648 51.3775 8.82529 49.8408C8.25736 45.9404 8.55029 42.1632 11.1209 38.8845C12.5916 37.0076 14.6062 36.3448 16.9617 36.6615C17.5714 36.7436 18.1752 36.8903 18.7671 37.0662C19.5024 37.2891 19.7834 37.0369 19.9149 36.3155C20.1899 34.8316 20.8176 33.465 21.5529 32.1453C22.4018 30.6262 23.6154 29.5 25.1578 28.6495C28.404 26.8665 34.2985 28.022 35.9545 31.5411C35.9844 31.6057 36.104 31.6408 36.2116 31.7054L36.1996 31.6995Z" fill="#FFF6EE"/>
<path d="M69.2652 12.796C71.5608 12.796 73.8564 12.796 76.1521 12.796C76.5885 12.796 77.0189 12.7667 77.4075 12.5614C77.9396 12.2799 78.2863 11.9984 78.0113 11.2417C77.5988 10.1156 77.9216 8.91908 78.0412 7.75775C78.2923 5.37058 78.3102 5.37058 75.8831 5.18289C75.07 5.11837 74.257 5.09491 73.4499 5.0128C72.0391 4.86617 71.3575 4.27377 71.2798 3.20042C71.2021 2.09775 71.8896 1.15344 73.0793 0.813249C73.4858 0.695943 73.9282 0.660752 74.3526 0.643156C78.4716 0.519985 82.5727 0.754596 86.6379 1.44084C87.6901 1.61679 88.6585 1.99217 89.5314 2.60803C89.9259 2.88956 90.2488 3.22388 90.446 3.66378C90.8824 4.63742 90.6314 5.27087 89.6091 5.68144C88.7482 6.02749 87.8395 6.03922 86.9308 6.06268C85.6216 6.09788 85.5618 6.13893 85.789 7.32372C86.0401 8.62582 86.0879 9.93378 86.076 11.2476C86.064 12.45 86.339 12.8547 87.4928 13.1597C88.2281 13.3532 88.9933 13.4705 89.7466 13.5468C90.9841 13.6758 92.2216 13.8049 93.465 13.8166C94.3618 13.8225 94.9357 14.2213 95.2884 14.9369C96.1373 16.673 96.8188 18.4795 97.2194 20.3681C97.4645 21.5001 97.1416 21.8755 95.9161 22.0573C93.6743 22.3917 91.4265 22.1512 89.1846 22.028C81.5444 21.6116 73.9102 21.1365 66.2521 21.3476C65.2837 21.3711 64.357 21.5471 63.4483 21.8696C60.4831 22.9195 59.4011 25.248 59.0723 28.0751C59.0065 28.6323 59.1201 29.2071 59.0603 29.7643C58.9467 30.8142 59.0065 31.5298 60.3516 31.9169C61.8103 32.3392 62.3424 34.5621 61.5592 35.876C61.2962 36.3159 60.8777 36.5094 60.3875 36.5974C56.8783 37.2191 53.3511 37.3951 49.824 36.8437C47.349 36.4566 46.8348 35.571 47.2832 33.1134C47.4685 32.0752 47.9827 31.3831 49.0229 31.1192C49.806 30.9198 50.6011 30.738 51.3962 30.6031C52.006 30.5033 52.3348 30.3509 52.1734 29.6118C51.3125 25.7231 52.2392 22.0456 53.7756 18.5088C54.6305 16.5498 56.0533 14.9369 57.8826 13.7228C58.8929 13.0482 60.0288 12.7081 61.2364 12.579C63.9146 12.2858 66.5869 12.4089 69.2532 12.796H69.2652Z" fill="#92AE70"/>
<path d="M49.1903 64.868C52.0001 64.7155 54.8098 64.5689 57.5837 64.0762C59.0484 63.8181 60.4114 63.2375 61.7446 62.5982C65.3913 60.8444 68.9663 58.9499 72.6967 57.3605C73.6712 56.944 74.6217 56.551 75.7217 56.6332C77.1744 56.7446 77.9516 58.2168 77.1027 59.384C76.6902 59.947 76.1581 60.4632 75.5782 60.862C73.157 62.5336 70.8913 64.3988 68.5538 66.1818C67.8244 66.7391 67.0234 67.1027 66.1685 67.4312C63.4843 68.4576 60.6745 68.9737 57.8767 69.5544C57.4164 69.6482 56.968 69.7479 56.4539 70.0647C56.9022 70.27 57.2669 70.1937 57.6136 70.1996C60.1066 70.2524 62.5636 69.8301 65.0087 69.4899C67.9918 69.0793 70.5744 67.5837 72.9717 65.8241C74.275 64.868 75.6141 63.9589 77.1565 63.4193C78.4418 62.9677 79.0276 63.085 79.5717 63.8709C80.0858 64.6041 79.9782 65.6774 79.1771 66.4165C75.8532 69.4781 72.4038 72.3521 67.9321 73.7187C66.7723 74.0765 65.6424 74.5516 64.5304 75.0678C65.5527 75.3669 66.5033 74.9857 67.4598 74.8801C69.594 74.6396 71.6685 74.1469 73.6353 73.2143C75.2255 72.4636 76.8815 71.8419 78.4896 71.1263C79.0635 70.8682 79.6554 70.6981 80.2651 70.5926C81.126 70.4401 81.5505 70.7744 81.5744 71.619C81.6043 72.8683 81.1977 73.924 80.0559 74.5985C75.6619 77.2086 71.1244 79.4609 65.9772 80.2761C64.4468 80.5166 62.9044 80.7806 61.1826 81.3084C65.4989 81.9653 69.4984 81.7483 73.438 80.5929C74.6277 80.2468 75.8293 79.9418 77.0249 79.6251C77.2521 79.5664 77.4853 79.4961 77.7244 79.4843C78.7766 79.4139 79.1532 79.889 78.8005 80.8509C78.5016 81.6662 77.9874 82.3055 77.2581 82.8217C75.2554 84.2469 72.9358 84.7514 70.5565 85.0564C68.2908 85.3438 66.013 85.5432 63.7473 85.854C61.7027 86.1356 59.7598 86.8629 57.9006 87.6899C54.6365 89.1445 51.3664 90.5697 47.9528 91.6489C46.6376 92.0654 45.2865 92.3762 43.8876 92.3704C43.1224 92.3704 42.3572 92.388 41.592 92.3469C37.6523 92.1416 34.0355 93.2502 30.61 95.0215C29.0915 95.8074 27.7344 96.8632 26.5089 98.0597C26.0665 98.4879 25.6301 98.916 25.122 99.2797C24.4644 99.7548 23.8904 99.7841 23.0356 99.6492C20.7937 99.2914 19.0899 98.0597 17.3801 96.8104C15.6524 95.5552 13.7514 94.564 12.0894 93.2091C10.3976 91.8308 10.4454 91.866 12.1612 90.4231C16.5611 86.728 21.4872 83.7425 26.1203 80.37C26.9931 79.7307 27.6089 78.9565 28.0214 77.9711C28.4219 77.015 28.8942 76.0707 29.0616 75.056C29.7312 70.8975 32.3377 68.1995 35.8589 66.1584C39.6431 63.9648 42.8653 61.1318 45.6153 57.7769C46.3985 56.8208 46.9903 55.7475 47.5881 54.6859C48.3235 53.3955 49.3218 52.3398 50.4338 51.3661C51.205 50.6975 52.0599 50.4394 53.0702 50.7796C54.1164 51.1315 54.6783 52.0758 54.4392 53.2372C53.7995 56.334 52.7772 59.2843 50.9061 61.9119C50.2544 62.8269 49.5131 63.695 49.0947 64.7566C49.0648 64.8211 49.0349 64.8856 49.005 64.9501C49.0707 64.9208 49.1425 64.8974 49.2082 64.868H49.1903ZM63.6218 75.3552C63.6516 75.3845 63.6815 75.4431 63.7054 75.4431C63.7832 75.4314 63.8549 75.3962 63.9266 75.3669C63.8968 75.3376 63.8669 75.273 63.8429 75.2789C63.7652 75.2906 63.6935 75.3258 63.6218 75.3552Z" fill="#EFB8A3"/>
<path d="M36.6481 53.7065C37.9453 53.1669 39.0812 52.3282 40.3067 51.6536C45.6333 48.721 50.7686 45.4482 56.2387 42.7501C57.6077 42.0756 58.9767 41.4128 60.4593 41.0081C61.7028 40.668 62.486 40.8967 62.9822 41.7178C63.3528 42.3337 63.3169 43.0258 63.1197 43.6299C62.5039 45.5244 61.0572 46.7855 59.3713 47.7063C58.3789 48.2459 57.2072 47.7474 56.424 47.1374C55.5512 46.457 54.6963 46.3983 53.7518 46.5508C52.0241 46.8265 50.4398 47.5245 49.0589 48.5274C48.2339 49.1257 47.5822 49.982 46.9426 50.7973C46.4284 51.4542 45.7888 51.724 44.9996 51.8179C43.6486 51.9821 42.3453 52.3692 41.2931 53.1962C39.9181 54.2754 38.6687 55.5071 37.7241 56.9852C37.2578 57.7125 37.0187 58.4926 37.0605 59.3841C37.1084 60.4281 36.941 60.5689 35.9008 60.7859C35.6198 60.8446 35.3328 60.8621 35.0459 60.8563C31.9551 60.7918 28.7747 63.83 29.3068 67.8418C29.3546 68.182 29.4981 68.4518 29.6954 68.7275C30.4307 69.7774 30.3051 70.6161 29.1753 71.1029C28.5595 71.3669 28.2606 71.754 28.0872 72.2819C27.6269 73.7071 26.8497 75.021 26.6644 76.5401C26.497 77.9301 25.403 78.7278 24.4046 79.502C22.7546 80.7748 21.0329 81.9596 19.3112 83.1327C16.6449 84.9509 14.1819 87.0272 11.6411 89.0038C11.0792 89.4378 10.5112 89.866 9.95525 90.3059C9.45906 90.693 9.0645 90.6285 8.59222 90.1827C6.90038 88.5756 5.38788 86.8395 4.37159 84.728C3.983 83.9245 3.55257 83.1385 3.18192 82.3232C2.70964 81.2675 2.81725 80.8921 3.74387 80.1766C6.40418 78.1178 9.09439 76.1002 11.7129 73.9945C13.2612 72.7511 14.7976 71.4725 16.1607 70.0237C16.7465 69.3961 17.2547 68.7099 17.5715 67.924C18.1753 66.4459 18.8987 65.0265 19.4427 63.5191C20.3574 60.9795 21.7563 58.6803 23.6813 56.7447C25.7139 54.6977 27.6687 52.5745 29.5459 50.3926C30.8073 48.9263 31.7519 47.2195 32.7084 45.5479C33.8024 43.6241 34.8127 41.6592 35.8828 39.7178C36.1758 39.184 36.5165 38.6679 36.8932 38.1928C37.5388 37.3893 38.4236 37.096 39.4459 37.2602C40.4681 37.4245 41.0241 38.0579 41.0719 39.0961C41.0959 39.5184 41.0181 39.9289 40.9225 40.3454C40.3426 42.8147 39.3681 45.1608 38.6388 47.5831C38.0828 49.4248 37.5986 51.29 36.6421 52.9851C36.5285 53.1845 36.4209 53.4074 36.6481 53.7124V53.7065Z" fill="#EFB8A3"/>
<path d="M63.6218 75.3551C63.6936 75.3257 63.7653 75.2905 63.843 75.2788C63.8669 75.2788 63.8968 75.3375 63.9267 75.3668C63.855 75.3961 63.7832 75.4313 63.7055 75.443C63.6816 75.443 63.6517 75.3844 63.6218 75.3551Z" fill="white"/>
<path d="M49.1903 64.8678C49.1246 64.8971 49.0528 64.9206 48.9871 64.9499C49.017 64.8854 49.0468 64.8209 49.0767 64.7563C49.1186 64.7915 49.1544 64.8326 49.1903 64.8678Z" fill="white"/>
<path d="M67.8006 73.2963C69.4386 73.1497 70.981 72.6805 72.4457 71.9649C74.287 71.0734 76.1582 70.2288 78.0891 69.5484C78.6272 69.3607 79.1772 69.1848 79.7391 69.0792C81.4369 68.7566 82.4891 69.9473 82.0049 71.6071C81.7657 72.4283 81.1859 72.9855 80.4625 73.3843C79.213 74.0706 77.9397 74.7157 76.6723 75.3785C76.5109 75.4665 76.3554 75.5662 76.1283 75.7011C76.469 76.317 77.0489 76.8155 76.9712 77.5897C76.9353 77.9592 77.2283 78.0179 77.5331 78.0707C78.4897 78.2408 78.944 78.8449 78.8543 79.7658C78.8125 80.2174 79.0576 80.4403 79.2967 80.7277C81.0244 82.845 80.3369 85.4375 77.7902 86.4874C76.5527 87.0035 75.2734 86.9683 73.9522 86.7513C73.6055 87.2029 73.7011 87.7425 73.6174 88.2294C73.2527 90.3995 72.081 91.8893 69.9707 92.728C66.0071 94.2999 62.2349 94.0536 58.624 91.7309C58.5582 91.7485 58.4387 91.7427 58.3909 91.8013C56.2387 94.4876 53.3273 94.5404 50.3023 93.948C48.8675 93.6665 47.8692 92.6929 47.3252 91.3321C47.1458 90.8746 47.0083 90.4875 46.3328 90.6752C43.6366 91.4259 40.8388 91.3145 38.0768 91.5374C37.8377 91.555 37.5986 91.5608 37.3594 91.5726C35.0399 91.7251 32.8818 92.2705 30.8492 93.4905C28.1948 95.0859 25.5106 96.6109 23.2628 98.7576C23.1253 98.8866 22.9878 99.0274 22.8264 99.1212C22.5872 99.262 22.3242 99.4614 22.0731 99.1505C21.8938 98.9218 22.0133 98.6813 22.1688 98.5171C22.6889 97.9658 23.197 97.3968 23.7709 96.91C26.3954 94.687 29.3964 93.0272 32.4693 91.5022C34.3106 90.5931 36.373 90.4934 38.3578 90.4816C44.8023 90.4464 50.8224 88.7983 56.6093 86.1765C59.8615 84.7043 63.3109 84.0474 66.8441 83.6662C69.4087 83.3846 71.9495 82.9447 74.3826 82.018C75.1897 81.713 75.9728 81.3728 76.6902 80.8919C77.0011 80.6807 77.294 80.4344 77.563 80.1763C77.7783 79.971 77.8799 79.7012 77.7783 79.408C77.6647 79.0736 77.3418 79.0737 77.0668 79.0619C76.8337 79.0502 76.5886 79.0971 76.3614 79.1499C75.662 79.2965 74.9446 79.4021 74.269 79.6191C69.881 81.0327 65.3435 81.103 60.8001 81.1441C60.6088 81.1441 60.4175 81.1441 60.2262 81.1324C59.9631 81.1206 59.7479 81.0033 59.6881 80.757C59.6343 80.5165 59.736 80.2878 59.9332 80.1294C60.5849 79.625 61.368 79.3786 62.1512 79.1851C64.1419 78.6807 66.1327 78.1938 68.1413 77.7716C69.7913 77.4255 71.3397 76.8624 72.8402 76.0999C74.9565 75.0149 77.1207 74.0119 79.2489 72.9503C79.7152 72.7215 80.1456 72.4048 80.5522 72.0822C80.9945 71.7303 81.1141 71.2318 81.0244 70.6804C80.9407 70.1819 80.6657 69.9062 80.1337 70.0352C79.4402 70.1995 78.7288 70.352 78.0712 70.6159C76.5228 71.2318 74.9804 71.8711 73.468 72.569C72.1647 73.1673 70.8375 73.6717 69.4267 73.9708C66.0191 74.6923 62.6115 75.4196 59.2039 76.141C58.9229 76.1997 58.6419 76.2642 58.361 76.2994C57.9784 76.3463 57.6974 76.1821 57.6137 75.8008C57.542 75.4606 57.805 75.3023 58.0621 75.1674C58.3131 75.0383 58.5762 74.9152 58.8452 74.8213C59.6523 74.5281 60.4414 74.1585 61.2724 73.9767C66.7066 72.8037 71.3158 69.9238 75.9967 67.1964C76.8217 66.7155 77.5391 66.0879 78.1908 65.3958C78.4837 65.0849 78.7467 64.7389 78.8842 64.34C79.0397 63.8943 79.1772 63.4192 78.7886 63.0145C78.394 62.6039 77.9098 62.7271 77.4554 62.8972C76.5169 63.255 75.6381 63.7301 74.7951 64.2638C74.1555 64.6744 73.5218 65.0967 72.906 65.5366C70.9033 66.956 68.7451 67.9883 66.2702 68.3812C64.4827 68.6686 62.7191 69.1144 60.9436 69.5015C59.0604 69.9062 57.1474 69.9355 55.2344 69.9531C54.8398 69.9531 54.4034 69.9649 54.3376 69.4722C54.2778 69.0147 54.6724 68.8504 55.0371 68.7097C56.6811 68.0586 58.3729 67.5484 60.0827 67.1143C64.7039 65.9295 68.7093 63.6069 72.4756 60.815C73.2766 60.2226 74.1076 59.6537 74.825 58.9733C75.3929 58.4396 76.1701 57.7533 75.6859 56.9263C75.1478 56.0055 74.1913 56.5451 73.4919 56.8325C69.7375 58.3457 65.9713 59.8531 62.3843 61.7359C60.9794 62.4749 59.5207 62.9793 57.9485 63.2726C54.5708 63.9001 51.205 64.6157 47.8333 65.2902C47.4208 65.3723 46.9186 65.5952 46.6197 65.2374C46.2311 64.7741 46.6616 64.3342 46.9485 63.994C48.3893 62.2872 49.6148 60.4631 50.5056 58.4102C51.3186 56.5451 51.8806 54.6154 52.3768 52.6622C52.6219 51.6945 52.4066 51.1431 51.8148 50.8088C51.199 50.4628 50.4817 50.6035 49.7523 51.2956C48.6404 52.3397 47.7675 53.5772 46.9665 54.8617C45.0056 58.029 42.5246 60.727 39.4459 62.8796C37.0306 64.5688 34.6035 66.2345 32.278 68.041C30.335 69.5484 28.9421 71.3432 28.3562 73.7538C28.0932 74.8389 27.7763 75.924 27.2921 76.9563C26.2579 79.1909 24.4405 80.6749 22.4677 82.0356C20.5905 83.326 18.6954 84.6046 16.8362 85.9184C15.246 87.0446 13.6916 88.2118 12.1194 89.3614C11.6232 89.725 11.133 90.1063 10.6128 90.4347C10.2721 90.6517 9.78187 91.0682 9.48296 90.6283C9.15416 90.1415 9.81774 89.9772 10.1226 89.7367C14.5047 86.241 19.1617 83.1148 23.741 79.8772C25.5166 78.622 26.4372 76.8859 27.0171 74.9152C27.4535 73.4312 27.7106 71.8593 28.5834 70.5573C29.253 69.5602 29.51 68.8387 28.8883 67.6129C27.9378 65.7301 28.7926 63.3371 30.5801 61.7886C32.0328 60.5276 33.7665 59.9176 35.6855 59.8179C36.3372 59.7827 36.672 59.7006 36.7138 58.8971C36.935 54.8324 40.4083 51.366 44.5632 51.1079C45.5974 51.0434 46.0936 50.6505 46.6795 49.8528C48.6105 47.231 51.3067 45.8644 54.6246 45.7412C54.9534 45.7295 55.336 45.7412 55.605 45.8937C56.5376 46.4274 57.2311 46.011 57.9246 45.4597C58.3669 45.1019 58.8392 44.7852 59.2756 44.4157C59.718 44.0461 60.0648 43.5828 60.2561 43.049C60.4832 42.4097 60.555 41.7469 60.0289 41.1956C59.5506 40.6912 58.9588 40.8847 58.4207 41.0607C57.7871 41.266 57.1713 41.5299 56.5675 41.8056C54.7441 42.6443 53.0403 43.6766 51.3365 44.7265C48.4969 46.4685 45.6811 48.275 42.6562 49.6592C38.9317 51.3602 36.3431 54.1286 34.2388 57.4542C34.0654 57.7299 33.8741 57.9997 33.6529 58.2401C33.5872 58.3164 33.366 58.334 33.2644 58.2812C33.1687 58.2284 33.079 58.0583 33.079 57.941C33.085 57.765 33.1568 57.5774 33.2285 57.4131C34.1133 55.3779 34.7111 53.2605 35.1654 51.0962C35.6616 48.7442 36.4687 46.492 37.4431 44.2925C37.9393 43.1781 38.4535 42.0637 38.6507 40.8437C38.7464 40.2337 38.7942 39.6354 38.6149 39.0313C38.2861 37.911 37.5029 37.653 36.5883 38.4272C36.1578 38.7908 35.8051 39.2483 35.4643 39.7C33.7725 41.917 32.3138 44.2925 30.885 46.6797C28.7568 50.2223 26.3535 53.5186 23.1014 56.1638C22.3242 56.7973 21.7742 57.6301 21.2421 58.4748C19.8612 60.6742 18.6297 62.9558 17.5954 65.3254C16.7525 67.2551 15.5867 68.9443 14.134 70.4517C10.84 73.8711 7.22319 76.9328 3.27756 79.6133C2.96071 79.8244 2.56615 80.3699 2.1955 79.8772C1.85474 79.4197 2.43463 79.144 2.75745 78.9153C6.18298 76.4988 9.41122 73.8594 12.3585 70.8974C12.8906 70.3637 13.3867 69.8065 13.877 69.2786C13.7036 68.7801 13.309 68.8798 13.0161 68.8094C7.3308 67.3783 5.1069 60.8737 8.79546 56.3984C9.3335 55.7415 9.96122 55.1609 10.6128 54.4688C10.0569 53.7708 9.44111 53.0728 8.90905 52.3162C7.25906 49.9584 6.65526 47.3659 7.30689 44.5564C8.38894 39.8935 13.0161 37.348 17.7568 38.1515C18.8508 38.3333 18.8449 38.3627 18.9405 37.3949C19.4068 32.6792 24.0041 29.0662 28.7986 29.641C30.1856 29.8052 31.3394 30.4445 32.3318 31.3654C32.9595 31.9402 33.5154 32.5854 34.1013 33.1954C34.3225 33.2247 34.454 33.0898 34.5736 32.9431C35.9187 31.3185 37.6225 31.0956 39.4757 31.8581C40.3486 32.2158 40.9284 32.1689 41.592 31.4534C42.4589 30.5208 43.523 29.7759 44.6947 29.2128C46.2192 28.4855 47.7795 28.2802 49.4116 28.9489C49.9018 26.3857 49.9376 23.8519 50.5414 21.4003C50.7746 20.4442 51.0317 19.4882 51.3605 18.5615C52.9507 14.0452 56.3403 11.7225 61.0273 11.0539C63.6876 10.6726 66.3718 10.7841 69.05 10.9014C72.918 11.0715 76.7799 11.4175 80.6598 11.3589C81.132 11.353 81.9929 11.6169 82.0049 11.0773C82.0228 10.3794 81.1261 10.6198 80.6179 10.5377C79.6255 10.3794 78.6272 10.3031 77.6288 10.1858C76.5766 10.0568 76.3435 9.8339 76.2717 8.74882C76.212 7.81038 76.1821 6.87193 76.188 5.93348C76.188 5.33522 75.9549 5.12407 75.3511 5.09475C74.2511 5.04196 73.1571 4.93052 72.069 4.80148C70.8196 4.65485 69.9109 4.08005 69.6239 2.78969C69.3848 1.71634 69.7555 0.965582 70.7837 0.51982C71.3576 0.267612 71.9794 0.144441 72.5951 0.109249C77.6706 -0.137093 82.7282 -0.00805657 87.738 0.924525C88.2521 1.01837 88.7603 1.1826 89.2325 1.38788C90.2668 1.83364 90.6912 2.62546 90.5238 3.63429C90.3624 4.60206 89.7706 5.11821 88.6407 5.24138C87.3255 5.38214 86.0521 5.15926 84.8804 4.5786C83.5652 3.92169 82.2021 3.65188 80.7315 3.70467C79.8288 3.73986 78.9201 3.62842 78.0114 3.59323C77.7543 3.5815 77.5331 3.66361 77.563 3.97448C77.587 4.20322 77.7902 4.25014 77.9755 4.26774C79.3565 4.37918 80.7375 4.47889 82.1185 4.58447C83.2902 4.67244 83.4396 4.83667 83.3679 5.96281C83.3201 6.66664 83.2842 7.37048 83.2005 8.06845C83.0809 9.05968 82.8657 10.0744 84.2706 10.397C84.3902 10.4263 84.5337 10.5671 84.5695 10.6844C84.9163 11.8633 85.9146 11.8398 86.8711 11.9219C88.5869 12.0744 90.2967 12.2387 92.0064 12.4146C92.407 12.4557 93.0227 12.4146 92.9689 12.9777C92.9151 13.5584 92.2994 13.3824 91.9108 13.3648C89.9021 13.271 87.9054 13.0774 85.9146 12.8311C84.8983 12.702 84.0315 12.4674 83.7684 11.3295C83.7445 11.2298 83.5592 11.1653 83.4934 11.1125C83.1766 11.0773 83.0929 11.2474 83.0929 11.441C83.0929 12.18 82.6684 12.4029 81.9869 12.397C80.0261 12.3853 78.0652 12.4381 76.1103 12.3677C72.912 12.2563 69.7136 12.051 66.5093 11.9161C64.5963 11.834 62.6832 11.8516 60.7881 12.1683C56.9262 12.8076 54.0746 14.7314 52.586 18.3914C51.5996 20.8137 51.223 23.3651 50.8822 25.9224C50.8344 26.2919 50.7985 26.6673 50.7327 27.0368C50.5474 28.1043 50.5414 28.1043 51.5039 28.5676C51.8088 28.7143 52.1974 28.8433 52.2213 29.1952C52.2691 30.075 52.7773 30.0516 53.4827 30.0457C55.2523 30.0222 57.0218 30.1923 58.7555 30.5325C60.4055 30.8551 60.8539 31.5061 60.7523 33.2305C60.6686 34.6734 59.9392 35.4476 58.4447 35.6177C57.8767 35.6822 57.2968 35.6412 56.7289 35.6588C56.424 35.6646 56.3104 35.8582 56.3523 36.1221C56.3941 36.3626 56.6034 36.3567 56.7887 36.3274C57.1175 36.2746 57.4403 36.1749 57.7751 36.1456C60.1724 35.9286 62.4262 37.6236 62.743 39.8759C62.8865 40.9023 62.6772 41.8349 61.918 42.6033C61.7506 42.7734 61.5115 42.9083 61.4338 43.1077C60.836 44.6503 59.5626 45.5594 58.2653 46.4509C58.1099 46.5565 57.9365 46.6503 57.8947 46.9729C58.5343 47.4128 59.2218 47.8879 59.9273 48.3689C60.4414 48.1929 60.5071 47.665 60.7582 47.2896C63.3169 43.5065 68.4522 42.1927 72.2424 44.3335C74.2033 45.4421 75.2136 47.1899 75.8294 49.2252C75.937 49.5771 75.9011 50.0053 76.2239 50.2516C76.5707 50.5097 76.9533 50.2164 77.3179 50.1988C80.9646 50.0346 83.9179 53.2605 83.4934 56.9322C83.2483 59.0378 82.3755 60.8033 80.6717 62.123C80.1994 62.4866 80.0261 62.8033 80.1038 63.4075C80.2293 64.3928 79.775 65.2316 79.1293 65.9647C78.2087 67.0029 77.1027 67.8123 75.8891 68.4927C73.1929 70 70.4968 71.5133 67.8006 73.0207C67.2087 73.1321 66.6827 73.3843 66.2044 73.7714C66.6946 73.4488 67.3343 73.6893 67.8125 73.3198L67.8006 73.2963ZM50.398 29.207C50.2605 29.0896 50.0991 28.9782 49.9496 29.1483C49.9137 29.1894 50.0213 29.3594 50.0632 29.4709C50.4996 30.6557 50.386 30.8668 49.1963 31.0721C48.6822 31.1601 48.1442 31.1777 47.648 31.3126C47.0382 31.4768 46.5599 32.2334 46.6018 32.8317C46.6496 33.559 47.2534 33.5179 47.7496 33.6294C47.9349 33.6704 48.1203 33.7174 48.3116 33.7408C51.2409 34.1338 54.1822 34.3625 57.1235 34.5796C57.5898 34.6147 58.08 34.5972 58.5403 34.5033C59.437 34.3274 59.73 33.8816 59.736 32.8786C59.736 31.9754 59.5985 31.7877 58.618 31.5707C58.0142 31.4358 57.3985 31.3478 56.7827 31.295C55.4077 31.1718 54.0327 31.078 52.6518 30.9724C52.0121 30.9255 51.3844 30.8727 51.4023 29.9929C51.4143 29.3301 50.8284 29.3594 50.398 29.207ZM48.5148 29.9753C48.461 29.8932 48.4251 29.7817 48.3594 29.7524C48.186 29.682 48.0007 29.6234 47.8154 29.6058C46.4583 29.4826 45.2806 29.9518 44.1806 30.6674C43.3018 31.2422 42.5127 31.9343 41.7893 32.6792C41.1676 33.3127 40.5817 33.383 39.7448 33.037C37.1681 31.9636 36.6361 32.122 34.8187 34.1807C34.7888 34.2159 34.7649 34.257 34.735 34.2922C34.3464 34.7497 33.9578 34.779 33.5513 34.3098C32.9595 33.6294 32.3915 32.9373 31.7638 32.298C30.9867 31.5061 30.072 30.9255 28.9361 30.7437C25.0562 30.1337 20.8894 32.861 20.0046 36.5855C19.8313 37.3245 19.8313 38.0753 19.8193 38.826C19.8074 39.7879 19.64 39.9404 18.7253 39.5709C17.4878 39.0724 16.2443 38.9844 14.9351 39.1428C10.3677 39.7 7.39656 43.7118 8.27536 48.1284C8.6759 50.1343 9.59655 51.8646 11.0911 53.2429C12.4003 54.4453 12.2927 54.6858 10.9596 55.677C10.4335 56.07 9.99709 56.592 9.57861 57.1023C7.69547 59.4015 7.50417 62.5218 9.1422 64.9735C10.1764 66.5219 11.6291 67.5425 13.4944 67.9531C14.4867 68.1701 15.2699 67.9531 15.7422 66.9911C16.053 66.3577 16.4058 65.7419 16.6867 65.1025C17.703 62.8209 18.8269 60.6039 20.0824 58.4396C20.9193 56.9967 21.9595 55.7357 23.2389 54.6447C25.3432 52.8441 27.1128 50.7736 28.5595 48.4216C30.4367 45.3717 32.2839 42.3041 34.3942 39.395C34.8366 38.785 35.297 38.1808 35.8649 37.6706C36.5404 37.0664 37.3116 36.7028 38.2203 37.0254C39.1708 37.3656 39.5953 38.1457 39.7089 39.0958C39.8524 40.2748 39.7507 41.442 39.2964 42.5564C38.8181 43.7294 38.3279 44.9025 37.8377 46.0755C36.8812 48.3747 36.2535 50.756 35.8529 53.2312C36.3431 53.2136 36.5046 52.8851 36.7078 52.6447C37.7959 51.3602 39.1529 50.41 40.6475 49.6416C44.5811 47.6064 48.4012 45.3776 52.1615 43.049C53.9431 41.9464 55.7724 40.9258 57.7512 40.2044C59.6044 39.5357 60.1006 39.6765 61.3561 41.1076C61.3919 41.1487 61.5234 41.1076 61.6609 41.1076C61.9419 40.0108 61.6131 39.1017 60.8599 38.2864C59.7539 37.0958 58.3789 37.0078 56.9023 37.3069C55.5572 37.5767 55.5153 37.5826 55.3778 36.3157C55.3121 35.7292 55.1028 35.4945 54.511 35.4711C53.7458 35.4418 52.9865 35.3479 52.2273 35.2599C50.5654 35.0605 48.9034 34.8904 47.2534 34.6323C46.004 34.4329 45.4779 33.8112 45.5018 32.773C45.5257 31.6821 46.3926 30.5736 47.4686 30.2392C47.8213 30.1337 48.2279 30.2627 48.5328 29.9812L48.5148 29.9753ZM58.1338 68.8974C60.3398 68.7566 62.4202 67.9941 64.5783 67.7067C67.9022 67.2668 70.7837 65.9471 73.3962 63.9412C74.3766 63.1846 75.4766 62.6098 76.6125 62.1054C77.1326 61.8708 77.6946 61.5658 78.2565 61.7124C79.4581 62.0174 80.1277 61.337 80.8092 60.5804C81.6163 59.6771 82.1065 58.6214 82.3277 57.4425C83.0809 53.4541 80.0739 50.6153 76.0625 51.5596C75.5783 51.671 75.3152 51.5303 75.1837 51.1197C74.9924 50.539 74.8429 49.9525 74.6756 49.366C74.0957 47.3776 73.0136 45.8116 71.0109 44.9494C67.4718 43.4244 62.9104 45.0608 61.2245 48.4803C61.099 48.7325 61.0273 49.014 60.8957 49.2604C60.549 49.9056 60.2142 50.017 59.6762 49.5302C58.899 48.8205 58.0023 48.2809 57.1294 47.7178C56.2865 47.1723 55.3778 46.7324 54.3197 46.8263C51.2887 47.0961 48.8018 48.3337 47.2295 50.9496C46.7214 51.7942 46.1415 52.193 45.173 52.1285C44.886 52.1109 44.5991 52.1344 44.3121 52.1637C40.7252 52.4922 37.6643 55.7943 37.6882 59.3018C37.7002 60.5804 37.5567 60.7329 36.2415 60.8326C35.8589 60.8619 35.4763 60.8443 35.0937 60.8913C33.2225 61.1376 31.6084 61.8649 30.4426 63.3723C29.4383 64.6744 29.2948 66.1231 29.8568 67.6305C30.1138 68.3284 30.3231 68.3754 30.879 67.912C33.4557 65.7301 36.2953 63.906 39.0334 61.947C41.9687 59.8472 44.336 57.2372 46.2192 54.199C46.9425 53.0318 47.7496 51.935 48.6882 50.9261C49.1425 50.4393 49.6447 50.0111 50.2904 49.7765C51.8686 49.2017 53.4768 50.2692 53.5066 51.9174C53.5066 52.2927 53.4947 52.6798 53.399 53.0318C52.3409 56.8853 51.223 60.7212 48.4132 63.7946C48.3235 63.8943 48.2817 64.0233 48.3833 64.1758C51.3605 63.5893 54.3436 62.9617 57.3447 62.4221C59.0604 62.1171 60.6506 61.5599 62.1691 60.727C65.4272 58.9381 68.9006 57.6067 72.3022 56.1169C73.0853 55.7767 73.8984 55.4717 74.7772 55.4483C76.4332 55.4013 77.3478 56.68 76.7022 58.1815C76.3435 59.0144 75.7397 59.683 75.0044 60.2343C74.1674 60.8561 73.3424 61.5012 72.4995 62.1112C68.7332 64.821 64.7039 67.0205 60.1425 68.1759C59.455 68.3519 58.7316 68.4516 58.1458 68.9091L58.1338 68.8974ZM48.0186 90.247C48.5925 92.0301 49.292 92.8043 50.8643 93.0624C53.5007 93.4905 56.0534 93.4553 57.7512 90.9039C57.805 90.8277 57.8708 90.7573 57.9305 90.6869C58.361 90.2177 58.8034 90.1532 59.2637 90.6517C60.286 91.7427 61.655 92.1239 63.0599 92.4465C65.1881 92.9275 67.2267 92.6518 69.2354 91.901C71.5669 91.0271 72.5593 89.6957 72.637 87.2381C72.6489 86.9566 72.625 86.6751 72.637 86.3935C72.6788 85.3847 72.8343 85.2557 73.8625 85.59C75.1478 86.0005 76.3913 86.0182 77.6288 85.4551C79.0994 84.7806 79.6375 83.15 78.8543 81.7834C78.5136 81.1852 78.2266 81.0972 77.6348 81.496C76.2419 82.4345 74.6935 83.0269 73.0794 83.4961C70.7837 84.1647 68.4223 84.499 66.0549 84.804C63.3588 85.1501 60.6446 85.4375 58.1338 86.5812C54.8876 88.0593 51.5876 89.4142 48.0067 90.247H48.0186ZM76.487 0.924525C74.8609 0.895198 73.2348 0.94212 71.6386 1.25885C70.5446 1.47586 70.2457 2.4671 70.975 3.25304C71.244 3.54631 71.6027 3.64602 71.9913 3.7164C73.0734 3.91582 74.1734 3.94515 75.2674 4.02726C75.8891 4.07419 76.3853 4.09765 76.5168 3.28824C76.6005 2.77796 77.0489 2.53748 77.5989 2.56681C80.2532 2.70171 82.9554 2.4495 85.4424 3.72813C86.3391 4.19149 87.3374 4.33226 88.3657 4.26774C88.9576 4.22668 89.4059 4.00967 89.5075 3.41141C89.6092 2.80728 89.2385 2.42604 88.6885 2.25595C88.0548 2.05653 87.4092 1.8747 86.7576 1.7574C83.3679 1.14741 79.9244 1.09462 76.4929 0.93039L76.487 0.924525ZM77.3598 5.24138C77.1266 6.40857 77.3239 7.5699 77.3179 8.73123C77.3179 9.08901 77.569 9.20632 77.8799 9.24151C79.0636 9.37054 80.2473 9.48785 81.425 9.61689C81.9152 9.66967 82.1005 9.46439 82.1185 8.9893C82.1483 8.0098 82.1065 7.02443 82.3396 6.06252C82.4413 5.65781 82.25 5.45839 81.8195 5.44666C80.3489 5.38801 78.8842 5.31763 77.3658 5.24724L77.3598 5.24138ZM62.7311 80.1822C67.131 80.276 71.3756 79.5429 75.5424 78.2936C76.0386 78.1469 76.1103 77.8595 76.0565 77.4548C75.925 76.5457 75.0044 76.0589 74.1136 76.575C71.1663 78.276 67.8664 78.8332 64.6142 79.5781C63.9865 79.7247 63.287 79.7012 62.7311 80.1763V80.1822Z" fill="#5D5D5D"/>
<path d="M57.3925 27.8171C57.4343 26.9197 57.5539 26.0399 57.7093 25.1601C58.2892 21.8638 60.4832 19.723 63.8609 19.1599C65.0925 18.9546 66.3299 18.9077 67.5734 18.9018C75.7516 18.8549 83.9179 19.0895 92.0722 19.635C92.9809 19.6937 93.8896 19.7113 94.7923 19.7816C95.2646 19.8227 95.7369 19.9165 96.1972 20.0338C96.4423 20.0984 96.5738 20.3095 96.526 20.5793C96.4841 20.7905 96.3347 20.9136 96.1314 20.9195C95.7966 20.9312 95.4619 20.9254 95.1331 20.9019C85.8788 20.2978 76.6185 19.9107 67.3403 20.0045C66.1924 20.0163 65.0506 20.028 63.9147 20.2567C60.7881 20.8843 59.0784 22.6439 58.6419 25.7525C58.5224 26.5854 58.4746 27.43 58.3909 28.2687C58.361 28.5972 58.3311 28.9256 58.2832 29.2482C58.2414 29.5004 58.086 29.6822 57.811 29.6881C57.5061 29.694 57.4044 29.4711 57.3925 29.2248C57.3746 28.7555 57.3925 28.2863 57.3925 27.823V27.8171Z" fill="#5D5D5D"/>
<path d="M81.5565 39.6825C81.5744 40.879 80.6478 41.8174 79.4282 41.8292C78.1489 41.8409 77.1984 40.8145 77.2103 39.4361C77.2163 38.1868 78.3223 36.9375 79.4223 36.9317C80.4744 36.9258 81.5386 38.2924 81.5565 39.6825ZM78.1907 39.4361C78.1788 40.2455 78.6869 40.8614 79.3924 40.8849C80.05 40.9083 80.5641 40.4332 80.6 39.7822C80.6418 38.9962 79.9543 37.9464 79.3864 37.9229C78.8185 37.8936 78.2027 38.6737 78.1907 39.4361Z" fill="#5D5D5D"/>
<path d="M85.807 36.7322C84.7428 36.7087 83.9956 35.8055 84.0553 34.6148C84.1092 33.5415 85.0956 32.7145 86.3032 32.7262C87.2477 32.7321 88.0966 33.6705 88.1026 34.7145C88.1026 35.7996 87.0206 36.7615 85.807 36.7322ZM86.082 33.7644C85.3706 33.7526 84.976 34.1104 84.9999 34.7497C85.0238 35.3538 85.4064 35.782 85.9206 35.7703C86.5244 35.7527 87.0265 35.2835 87.0325 34.7321C87.0325 34.1456 86.6738 33.7761 86.082 33.7644Z" fill="#5D5D5D"/>
</svg>
