<svg width="100" height="100" viewBox="0 0 100 100" fill="none" xmlns="http://www.w3.org/2000/svg">
<g clip-path="url(#clip0_49_3948)">
<path d="M7.77064 54.0785C8.37598 51.2621 9.29425 48.5586 10.6896 46.0295C11.8798 43.8749 13.2854 41.8845 14.968 40.0685C17.6921 37.1341 20.806 34.6871 24.2123 32.6248C26.2027 31.4193 28.2906 30.3728 30.4145 29.3878C34.4672 27.5154 38.5045 25.5916 42.1314 22.9394C42.9522 22.3392 43.7473 21.6928 44.4707 20.9541C46.5124 18.8764 48.5747 16.8193 50.6421 14.7673C52.7351 12.6897 54.9872 10.7967 57.465 9.18587C59.6862 7.73921 62.1487 6.88763 64.7188 6.29768C67.1761 5.72825 69.6795 5.64104 72.1624 5.84111C74.9377 6.06683 77.5951 6.82094 80.0831 8.19578C83.7921 10.2426 86.4495 13.2078 88.4604 16.9065C90.4252 20.518 91.5384 24.3655 92.2002 28.3772C92.5849 30.7267 92.6568 33.1224 92.4362 35.4823C92.0309 39.853 90.9639 44.075 89.3017 48.1585C87.6396 52.242 85.4799 56.0279 82.8379 59.5471C80.2524 62.9944 77.3437 66.175 74.1375 69.0427C68.5765 74.0239 62.4052 78.1844 55.9619 81.9395C51.4885 84.5456 46.7689 86.5411 41.7466 87.9109C38.0941 88.9112 34.421 89.2908 30.7017 89.0035C28.0239 88.7983 25.3665 88.2443 22.8836 87.1106C21.5344 86.495 20.3956 85.5459 19.2362 84.643C17.4561 83.2528 15.8504 81.6676 14.3627 79.985C11.1616 76.3632 8.51962 72.3926 7.39615 67.6012C6.92932 65.6107 6.66769 63.5741 6.79594 61.5273C6.88828 60.0652 7.114 58.6083 7.36537 57.1668C7.45771 56.6332 7.49875 56.1151 7.49875 55.5867C7.69369 55.3354 7.90402 55.0994 8.07844 54.8377C8.34007 54.4479 8.28364 54.1606 7.76551 54.0888L7.77064 54.0785Z" fill="#ECEAD0"/>
<path d="M7.77059 54.0789C8.29385 54.1558 8.34515 54.438 8.08352 54.8278C7.9091 55.0895 7.69877 55.3306 7.50383 55.5768C7.28837 55.7512 7.07291 55.9257 6.85745 56.1001C6.65738 56.2642 6.42653 56.3822 6.21107 56.1924C5.93405 55.9462 6.07769 55.664 6.27776 55.4588C6.74972 54.9715 7.17038 54.4277 7.77059 54.0737V54.0789Z" fill="#ECEAD0"/>
<path d="M18.9848 46.808C19.4339 45.184 19.9195 43.6332 20.2955 42.0562C21.1467 38.4687 23.3503 35.8892 26.3476 33.931C28.8489 32.2965 31.5172 31.0433 34.5407 30.7039C38.9793 30.2078 42.786 31.4506 45.8564 34.756C48.8329 37.957 50.201 41.8107 50.4569 46.1135C50.4673 46.3224 50.483 46.5313 50.4987 46.7402C50.5352 47.137 50.7807 47.2258 51.1096 47.1213C51.3864 47.0326 51.6527 46.902 51.9242 46.8028C53.6213 46.1657 55.3445 45.8054 57.1774 46.0613C58.5978 46.2597 59.6839 46.996 60.5821 48.0038C62.4515 50.103 63.4489 52.573 63.4906 55.4084C63.5063 56.4737 63.522 56.4528 64.5507 56.3014C65.8196 56.1186 67.0728 55.8314 68.3887 56.1395C69.8665 56.4841 70.9683 57.2256 71.715 58.552C72.7072 60.317 73.0936 62.2073 72.9839 64.2125C72.9265 65.2516 72.6498 65.6589 71.6524 65.9148C70.3208 66.2594 68.9527 66.437 67.5741 66.4579C63.4019 66.5153 59.2296 66.6772 55.0573 66.6354C52.1801 66.6041 49.3029 66.7137 46.4309 66.6041C41.2142 66.4004 35.9924 66.5466 30.7757 66.39C23.721 66.1759 16.6663 66.2072 9.61159 66.1968C8.47845 66.1968 7.36619 66.0662 6.25394 65.8887C5.89885 65.8312 5.5751 65.6537 5.20957 65.9827C4.88582 66.2751 4.57773 65.9357 4.35841 65.7111C3.88322 65.2307 3.55424 64.6459 3.29837 64.0245C2.59865 62.3169 2.05035 60.5624 1.95636 58.7139C1.89892 57.5859 2.11301 56.4632 2.5151 55.4084C3.69001 52.3432 5.60643 49.8419 8.50978 48.2702C11.2721 46.7715 14.2538 46.0404 17.4287 46.4112C17.9143 46.4686 18.3895 46.6618 18.9796 46.8237L18.9848 46.808Z" fill="#EA7C5B"/>
<path d="M64.9578 26.7246C65.3443 26.0876 65.2503 25.4401 65.2294 24.8291C65.0988 21.226 66.8638 18.6099 69.5792 16.5368C72.4669 14.3332 75.8454 13.6491 79.3806 13.8476C81.8923 13.9885 83.6938 15.5342 85.156 17.4402C86.2003 18.8031 86.9732 20.3331 87.3126 22.0511C87.4797 22.897 87.558 22.9283 88.3987 22.6881C88.759 22.5837 89.1141 22.4479 89.4797 22.3748C91.866 21.9049 93.8608 22.8082 95.1088 24.9179C95.913 26.2756 96.3934 27.7168 96.3255 29.3147C96.3151 29.5653 96.3412 29.816 96.3255 30.0666C96.2837 30.594 96.4978 30.8447 97.0409 30.8133C97.8973 30.7663 98.5604 31.1736 99.1453 31.7533C100.299 32.8864 100.284 34.5209 99.1035 35.6331C98.0122 36.6618 96.7537 37.3563 95.2498 37.5443C94.4665 37.6435 93.678 37.7636 92.8895 37.8054C90.5136 37.9307 88.1324 37.9412 85.7669 38.15C82.6808 38.4216 79.5895 38.1657 76.5086 38.338C72.681 38.5521 68.8533 38.8393 65.0257 39.0273C62.984 39.1265 60.937 39.1161 58.8901 39.0743C57.6107 39.0482 56.3522 37.9464 56.0233 36.7401C55.7308 35.654 55.4227 34.5626 55.3392 33.4399C55.1355 30.7768 56.4984 27.2103 59.8561 26.1085C61.2921 25.6385 62.7229 25.581 64.0858 26.3957C64.3312 26.5419 64.5766 26.7194 64.9526 26.7351L64.9578 26.7246Z" fill="#FEDD94"/>
<path d="M20.5826 70.4624C20.4051 71.3449 20.1597 72.3162 19.6218 73.1726C19.3346 73.6269 18.9534 74.0237 18.426 74.2274C17.5226 74.5825 16.8438 74.076 16.9012 73.0995C16.9221 72.7548 17.0527 72.452 17.2198 72.1648C17.7733 71.2196 18.4991 70.4207 19.3398 69.7314C19.6218 69.5016 19.9403 69.2144 20.3372 69.4494C20.6818 69.6531 20.5774 70.0342 20.5878 70.4624H20.5826Z" fill="#A8BE8D"/>
<path d="M66.0702 44.3792C66.0546 43.9928 66.2008 43.6482 66.3836 43.3192C66.8483 42.468 67.5689 41.8362 68.2373 41.1678C68.3835 41.0216 68.5715 40.9015 68.7908 40.985C69.0571 41.0842 69.1616 41.3349 69.1407 41.5855C69.0467 42.6195 68.8639 43.6377 68.3 44.5306C68.0493 44.9223 67.6577 45.1782 67.1982 45.293C66.5037 45.4601 66.0755 45.1051 66.0702 44.3844V44.3792Z" fill="#A8BE8D"/>
<path d="M11.1365 83.5743C11.1678 82.2375 12.6038 80.6501 13.7892 80.5404C14.2591 80.4986 14.5307 80.765 14.3793 81.2036C14.0085 82.2532 13.6273 83.3184 12.8597 84.1644C12.5516 84.5038 12.1495 84.7806 11.6534 84.5195C11.2461 84.3054 11.0895 83.9346 11.1365 83.5743Z" fill="#A8BE8D"/>
<path d="M49.8669 69.6115C49.6789 70.4104 49.6371 71.2877 49.2977 72.0971C49.2194 72.2851 49.1254 72.4887 48.9844 72.6245C48.6189 72.9796 48.1907 73.2772 47.6581 73.0422C47.1359 72.8125 47.1724 72.306 47.2508 71.8569C47.4544 70.7081 48.1489 69.836 48.9479 69.0475C49.1097 68.8909 49.3656 68.7551 49.6267 68.9118C49.8773 69.0632 49.8669 69.3191 49.8669 69.6115ZM48.4152 71.9143C48.3734 71.7368 48.2586 71.6793 48.1594 71.7472C48.0862 71.7942 48.0706 71.9352 48.0497 72.0397C48.0497 72.0605 48.1698 72.1337 48.2272 72.1232C48.3526 72.1023 48.4152 72.0083 48.41 71.9143H48.4152Z" fill="#A8BE8D"/>
<path d="M30.6034 82.5247C30.4572 83.3759 30.2379 84.3001 29.486 84.9842C28.8907 85.522 28.358 85.3758 28.0552 84.6187C27.8933 84.2061 27.9403 83.8197 28.1178 83.4229C28.3737 82.8537 28.7183 82.3367 29.0891 81.8406C29.3658 81.4699 29.6792 81.0887 30.217 81.3393C30.6922 81.5587 30.6034 82.0182 30.5982 82.5247H30.6034Z" fill="#A8BE8D"/>
<path d="M46.3474 83.7252C46.4153 84.4406 46.2952 85.1769 46.0759 85.8923C45.9296 86.3675 45.6059 86.7069 45.0628 86.6077C44.5511 86.5137 44.2639 86.1273 44.2795 85.626C44.3265 84.3362 44.9427 83.25 45.6111 82.2004C45.8148 81.8819 46.2795 82.0438 46.3317 82.4511C46.3839 82.8584 46.3422 83.2761 46.3422 83.7304L46.3474 83.7252Z" fill="#A8BE8D"/>
<path d="M38.3682 77.7312C38.2116 78.6189 37.9557 79.5798 37.4179 80.4414C37.1777 80.8278 36.7965 81.0314 36.3474 80.88C35.8252 80.7025 35.679 80.2273 35.773 79.7625C36.0236 78.5563 36.833 77.7051 37.7468 76.9688C38.034 76.7339 38.3526 77.0837 38.3682 77.7312Z" fill="#A8BE8D"/>
<path d="M75.9708 49.0013C75.9552 49.6749 75.8351 50.3224 75.5426 50.9281C75.2398 51.5652 74.6236 51.8837 74.1588 51.6905C73.6993 51.4973 73.5218 51.0012 73.6941 50.2963C73.9082 49.4399 74.3051 48.6723 74.8116 47.9517C74.9839 47.7062 75.1458 47.466 75.5061 47.6018C75.8142 47.7167 75.9761 47.9203 75.9708 48.2598C75.9708 48.5104 75.9708 48.7558 75.9708 49.0065V49.0013ZM74.916 49.325C74.6602 49.9046 74.3468 50.2336 74.6288 50.7506C74.9787 50.3955 75.0988 50.0352 74.916 49.325Z" fill="#A8BE8D"/>
<path d="M34.6034 70.2168C34.3841 70.8539 34.3528 71.6267 33.8723 72.2377C33.6374 72.5301 33.3554 72.7703 33.0107 72.927C32.6191 73.1045 32.2745 73.021 31.9768 72.7599C31.6426 72.4675 31.6583 72.1019 31.8619 71.7468C32.3319 70.9166 32.8906 70.149 33.6582 69.5589C33.841 69.4179 34.0655 69.2351 34.3319 69.3866C34.6295 69.5589 34.6295 69.8565 34.6086 70.2168H34.6034Z" fill="#A8BE8D"/>
<path d="M23.7524 78.3109C23.554 79.491 23.3712 80.4675 22.5148 81.1411C22.1597 81.4179 21.7681 81.5693 21.3765 81.3187C20.9483 81.0471 21.037 80.6189 21.178 80.2012C21.46 79.3709 21.8725 78.6033 22.4469 77.9453C22.661 77.6999 22.9691 77.5015 23.3294 77.6738C23.6636 77.8357 23.7733 78.1438 23.7524 78.3109Z" fill="#A8BE8D"/>
<path d="M85.955 40.1554C85.8871 40.9909 85.5947 41.842 85.036 42.5887C84.7801 42.9282 84.4355 43.2154 83.9759 42.9804C83.5634 42.7715 83.4329 42.3694 83.5164 41.9256C83.6992 40.9595 84.1483 40.1397 84.9002 39.4974C85.1247 39.3042 85.3702 39.1319 85.6835 39.299C85.9916 39.4661 85.9707 39.7689 85.9602 40.1606L85.955 40.1554Z" fill="#A8BE8D"/>
<path d="M85.5478 55.0269C85.5217 55.4447 85.5373 55.8259 85.4642 56.1914C85.3389 56.818 84.8689 57.1522 84.305 57.0791C83.7567 57.006 83.5478 56.7084 83.6261 55.9669C83.7097 55.1314 83.9394 54.3272 84.3467 53.5909C84.4668 53.3716 84.6705 53.1784 84.9472 53.2045C85.2919 53.2411 85.4277 53.5283 85.4694 53.8207C85.5269 54.2332 85.5269 54.651 85.5478 55.0269Z" fill="#A8BE8D"/>
<path d="M93.5057 49.4603C93.464 49.7475 93.4483 50.0399 93.37 50.3167C93.2499 50.7396 93.0305 51.1051 92.5188 51.0738C92.0384 51.0477 91.7251 50.7292 91.6572 50.2958C91.5058 49.2671 91.7564 48.301 92.3308 47.4446C92.5919 47.0582 93.0253 47.1418 93.1715 47.6117C93.3543 48.207 93.5162 48.8128 93.5005 49.455L93.5057 49.4603Z" fill="#A8BE8D"/>
<path d="M48.415 71.9091C48.415 71.9979 48.3524 72.0971 48.2323 72.118C48.1748 72.1285 48.0495 72.0553 48.0547 72.0345C48.0704 71.93 48.0913 71.7943 48.1644 71.742C48.2636 71.6742 48.3785 71.7316 48.4203 71.9091H48.415Z" fill="#A8BE8D"/>
<path d="M74.9108 49.3296C75.0936 50.0398 74.9735 50.4001 74.6236 50.7552C74.3364 50.2382 74.6497 49.9092 74.9108 49.3296Z" fill="#A8BE8D"/>
<path d="M6.09213 65.6372C7.94066 66.0393 9.83619 65.8722 11.7004 66.1019C14.3531 66.4257 17.011 66.6816 19.6637 66.9844C20.071 67.0314 20.494 67.1306 20.8647 67.303C21.3347 67.5171 21.46 68.0601 21.0318 68.2951C19.8256 68.9635 19.8308 70.1384 19.5749 71.235C19.4705 71.6789 19.293 72.1123 19.0893 72.5196C18.8021 73.0992 18.3426 73.5065 17.7316 73.7519C17.1207 73.9974 16.5828 73.9399 16.1285 73.4543C15.7108 73 15.7056 72.4517 15.9458 71.9347C16.1181 71.564 16.3844 71.2246 16.6559 70.9165C17.2094 70.2846 17.8831 69.7833 18.5515 69.2873C19.0789 68.8956 19.5854 68.4779 20.2747 67.9348C19.0162 67.5902 17.9405 67.6215 16.8909 67.4753C13.1677 66.9583 9.41844 66.7286 5.67438 66.4205C5.1783 66.3787 4.677 66.3056 4.18615 66.2116C3.45509 66.0654 3.16789 65.7677 3.26188 65.2821C3.37154 64.7129 3.81018 64.5458 4.29581 64.598C5.5125 64.7234 6.71353 64.5197 7.92499 64.5458C12.6455 64.6346 17.3609 64.3839 22.0814 64.3735C31.4808 64.3526 40.8801 64.3735 50.2742 64.3892C55.9556 64.3944 61.6369 64.4257 67.3183 64.4205C69.8927 64.4205 71.219 62.6973 70.5663 60.1804C69.9449 57.7835 68.2269 56.452 65.9241 55.935C64.1486 55.5329 62.3523 55.7836 60.6291 56.4154C60.2636 56.5512 59.8876 57.0002 59.5012 56.6138C59.1252 56.2379 59.3602 55.7366 59.5116 55.3084C59.8928 54.2222 59.9503 53.1413 59.7675 51.9873C58.979 47.1101 53.564 45.0631 49.846 46.7602C48.5823 47.3346 47.3708 47.9873 46.645 49.2615C46.5249 49.4756 46.3421 49.7105 46.0549 49.6374C45.6842 49.5434 45.679 49.204 45.7364 48.9221C45.8931 48.144 46.1072 47.3816 46.269 46.6035C47.3291 41.5227 45.7103 37.2982 42.0132 33.8257C40.478 32.3845 38.4676 31.8414 36.4311 31.4654C28.097 29.925 20.4574 35.4758 18.5201 42.8438C18.2016 44.0657 18.0136 45.2929 18.0919 46.5618C18.118 46.9795 18.1442 47.4025 18.1024 47.815C18.0293 48.5043 17.7525 48.7027 17.0946 48.4625C15.904 48.0291 14.6716 47.8672 13.4184 47.7628C7.47592 47.2615 1.65878 51.9664 0.927717 57.8723C0.744952 59.3657 1.04782 60.7809 1.66922 62.1333C1.81021 62.4362 1.96687 62.7338 2.07652 63.0419C2.10786 63.1307 2.02953 63.3082 1.94598 63.3657C1.86243 63.4179 1.67966 63.4075 1.59611 63.35C1.23581 63.1046 1.06349 62.713 0.885942 62.337C-0.377745 59.7522 -0.210646 57.1465 0.88072 54.5773C2.46816 50.8489 7.26704 46.3633 13.2878 46.8176C14.374 46.9012 15.4445 46.9847 16.5045 47.2772C17.2617 47.486 17.3452 47.4234 17.293 46.6871C16.6559 37.7734 25.815 28.7762 36.1648 30.4994C36.8645 30.6142 37.5642 30.7344 38.2535 30.9119C41.961 31.8518 44.4205 34.2539 46.0497 37.6167C47.4596 40.5305 47.9296 43.5644 47.2873 46.7498C47.2246 46.8542 47.1724 46.9847 47.2716 47.0735C47.3865 47.178 47.4701 47.0579 47.5484 46.9795C48.0967 46.6819 48.645 46.379 49.1985 46.0918C53.3812 43.9613 60.274 45.9508 60.8328 52.8437C60.9007 53.6844 60.7544 54.4938 60.5038 55.418C61.4333 55.2614 62.274 55.1047 63.1199 54.9794C65.3288 54.6556 67.381 55.0682 69.1564 56.4467C70.9945 57.8775 71.9396 59.7417 71.5376 62.1385C71.2243 63.9975 70.1903 65.0001 68.3261 65.2456C66.4567 65.491 64.5768 65.397 62.7022 65.3761C49.5901 65.2247 36.4781 65.1516 23.366 65.1777C17.9823 65.1881 12.5985 65.4753 7.2096 65.3813C6.83885 65.3761 6.46288 65.4335 6.0869 65.4596C5.6796 65.4022 5.27752 65.4335 4.88588 65.6372H6.0869H6.09213ZM18.8439 70.1541C18.0606 70.6345 17.387 71.2402 16.8544 71.9922C16.6559 72.2689 16.4888 72.5979 16.7499 72.9008C17.0685 73.2715 17.4758 73.0835 17.7525 72.8486C18.588 72.1488 18.9953 71.2455 18.8334 70.1384C18.87 70.1384 18.9065 70.128 18.9431 70.128C18.7917 70.0549 19.0058 70.1071 18.8491 70.1593L18.8439 70.1541Z" fill="#4C4C4C"/>
<path d="M63.6631 26.698C63.6474 26.4891 63.6526 26.2802 63.6213 26.0766C62.885 21.5597 64.9111 17.236 68.9058 14.9592C71.4958 13.4867 74.3 12.9906 77.2451 13.4292C79.8821 13.8261 81.8769 15.2412 83.292 17.4762C84.1014 18.7555 84.6653 20.1445 84.9421 21.6432C84.9995 21.9513 84.916 22.3064 85.2084 22.6354C87.4329 21.0061 89.835 20.5257 92.1274 22.2698C94.4093 24.0087 95.1038 26.416 94.0647 29.3089C94.6339 29.3089 95.1247 29.2775 95.6103 29.3141C97.5685 29.4708 99.2709 31.6117 98.9889 33.5542C98.9105 34.1025 98.7278 34.6299 98.2891 34.985C97.3335 35.7579 96.284 36.3532 95.0203 36.4054C88.6339 36.6612 82.2633 37.1417 75.8874 37.4759C70.3836 37.7683 64.8902 38.2748 59.3759 38.374C58.906 38.3845 58.3994 38.3113 57.8042 38.6455C58.4934 39.0006 59.0939 39.0685 59.6945 39.1155C61.9399 39.2878 64.1905 39.4393 66.4359 39.622C67.0155 39.669 67.6003 39.7526 68.1591 39.9092C68.7596 40.0763 68.911 40.4627 68.4933 40.9223C68.0494 41.4079 67.9659 41.9249 68.0024 42.5202C68.0338 43.1154 67.8458 43.6742 67.6891 44.2381C67.5847 44.5985 67.4019 44.9327 67.1199 45.1937C66.5769 45.7003 65.8667 45.7786 65.2871 45.3922C64.697 45.0005 64.5299 44.353 64.8798 43.6272C65.2871 42.7865 65.9763 42.1651 66.6239 41.5123C66.9111 41.2251 67.3497 41.0841 67.5168 40.4836C66.2949 40.3792 65.1095 40.2539 63.9189 40.1808C61.9607 40.0607 59.9973 40.0293 58.0652 39.6325C57.6057 39.5385 57.1723 39.4079 56.8277 39.079C56.5457 38.8074 56.3159 38.4993 56.436 38.0868C56.5666 37.6325 56.9687 37.6273 57.3551 37.6116C59.0261 37.5437 60.6918 37.502 62.3628 37.3975C70.4462 36.9067 78.5297 36.3897 86.6183 35.9041C89.3702 35.737 92.1221 35.6221 94.8793 35.5177C95.5686 35.4915 96.1795 35.3297 96.7748 34.9798C97.5738 34.5046 98.2578 33.9459 98.0542 32.9067C97.8296 31.7684 97.3701 30.7397 96.143 30.3324C95.4537 30.1026 94.7644 30.1183 94.049 30.3063C93.0934 30.5569 92.8062 30.2279 93.0621 29.2775C93.1508 28.9538 93.2605 28.6405 93.3597 28.3219C93.8662 26.7136 93.4746 25.3089 92.5242 23.9565C90.8271 21.544 87.0517 21.6171 85.2763 23.9721C85.0204 24.3116 84.916 24.98 84.3364 24.8024C83.6784 24.604 83.9656 23.9669 84.0022 23.5022C84.3886 18.5153 80.5871 14.3013 75.6054 14.27C71.1877 14.2438 67.6787 15.8939 65.4333 19.8939C64.1853 22.1236 64.1905 24.4264 64.6187 26.8181C64.7074 27.3246 65.12 27.9146 64.5664 28.3219C64.0756 28.6823 63.6474 28.134 63.1931 27.9825C60.9999 27.2358 58.8485 27.1888 56.8016 28.4368C54.6606 29.7423 53.8408 31.8101 54.4361 34.2435C54.6345 35.0634 54.9687 35.8205 55.3655 36.5568C55.4909 36.7918 55.5274 37.0477 55.2402 37.1991C55 37.3296 54.8434 37.1469 54.7233 36.985C53.4544 35.2252 52.4152 31.5856 54.6606 29.0791C56.6971 26.8076 59.2454 26.1758 62.1592 26.698C62.5717 26.7711 62.9738 26.8859 63.3811 26.9799C63.7101 27.1418 63.7988 27.0374 63.684 26.7084L63.6631 26.698ZM67.1669 42.28C66.4933 42.7917 66.0964 43.3034 65.7361 43.8569C65.5377 44.165 65.4385 44.4836 65.8354 44.7133C66.227 44.9379 66.4829 44.6716 66.6604 44.3844C67.0207 43.8047 67.0729 43.1416 67.1617 42.28H67.1669Z" fill="#4C4C4C"/>
<path d="M10.7186 84.4364C10.0554 84.4103 9.56457 83.8254 9.67945 83.157C9.74211 82.7863 9.90921 82.4469 10.1233 82.1336C11.1259 80.6767 12.5776 79.7942 14.1076 79.0057C14.306 78.9012 14.5305 78.8908 14.6611 79.0944C14.7969 79.2981 14.6976 79.5331 14.5149 79.6323C13.9457 79.9508 13.836 80.5304 13.6219 81.0631C13.3243 81.7941 13.0162 82.5252 12.635 83.2145C12.2173 83.9664 11.3609 84.4573 10.7186 84.4312V84.4364ZM12.6037 80.9639C11.7577 81.3085 11.2773 82.0448 10.7552 82.7236C10.5828 82.9482 10.3896 83.2615 10.682 83.4965C10.9484 83.7106 11.2564 83.5017 11.4497 83.3137C12.1128 82.6662 12.5567 81.9038 12.588 80.9482C12.6298 80.9273 12.6716 80.9064 12.7133 80.8908C12.6925 80.8908 12.6663 80.8855 12.6559 80.8908C12.635 80.9116 12.6194 80.943 12.6037 80.9691V80.9639Z" fill="#4C4C4C"/>
<path d="M19.5487 80.6457C19.5591 80.348 19.627 80.0713 19.7785 79.8154C20.473 78.6718 21.3137 77.6483 22.3528 76.7972C22.5617 76.6248 22.8124 76.3481 23.0996 76.6614C23.3084 76.8912 23.1831 77.1366 22.9742 77.3089C22.4782 77.711 22.7445 78.2384 22.7497 78.7084C22.7654 79.9773 22.332 80.9955 21.1936 81.6169C20.3476 82.0765 19.5591 81.5856 19.5487 80.6457ZM21.8881 78.5413C20.6192 79.7684 20.4782 80.0295 20.5304 80.959C21.6166 80.5621 21.9508 79.7736 21.8881 78.5413Z" fill="#4C4C4C"/>
<path d="M45.6424 81.4131C45.9035 81.4392 46.0445 81.622 45.9191 81.8308C45.491 82.5462 45.7416 83.2825 45.8147 84.0136C45.9087 84.9692 45.6946 85.8256 45.1202 86.5827C44.8382 86.9535 44.4831 87.272 43.9557 87.0945C43.4127 86.9117 43.2194 86.4731 43.2038 85.93C43.1829 85.2042 43.4231 84.541 43.6946 83.8935C44.0184 83.1206 44.4831 82.4366 45.0366 81.8152C45.1985 81.6324 45.3656 81.4392 45.6424 81.4131ZM44.1176 86.2799C45.0784 85.4026 45.1829 84.9326 44.786 83.6585C44.1124 84.7133 44.0027 85.1102 44.1176 86.2799Z" fill="#4C4C4C"/>
<path d="M45.8877 72.3892C45.8773 71.961 46.0235 71.5223 46.2428 71.1203C46.7963 70.0863 47.4438 69.1151 48.3942 68.3892C48.5613 68.2587 48.7702 68.1647 48.9477 68.3475C49.0208 68.4206 49.0678 68.6138 49.0208 68.6817C48.5404 69.4075 48.8172 70.2325 48.7232 71.0001C48.6135 71.914 48.295 72.6973 47.5953 73.2978C47.2715 73.5745 46.8851 73.7886 46.4465 73.5954C45.9556 73.3761 45.872 72.9218 45.8877 72.3892ZM47.9033 70.337C46.9843 71.0837 46.7128 71.7208 46.9007 72.7808C47.778 72.1437 47.9556 71.303 47.9033 70.337Z" fill="#4C4C4C"/>
<path d="M38.1178 75.8618C38.5408 75.9976 38.5303 76.3109 38.3267 76.4467C37.5643 76.948 37.7 77.7208 37.6008 78.4466C37.4859 79.3082 37.3345 80.1803 36.6661 80.8382C36.311 81.1881 35.9142 81.5745 35.3659 81.3343C34.7967 81.0837 34.6714 80.5197 34.7184 79.9662C34.7758 79.2508 35.0787 78.6085 35.5173 78.0393C36.1283 77.2404 36.9585 76.6712 37.7209 76.0289C37.8358 75.9297 38.0134 75.9036 38.1178 75.867V75.8618ZM35.6061 80.6033C36.6296 79.8774 36.7079 79.0106 36.734 77.8879C35.9821 78.6921 35.5016 79.3866 35.6061 80.6033Z" fill="#4C4C4C"/>
<path d="M31.7262 73.0363C30.9847 73.0624 30.5617 72.6238 30.5931 71.877C30.6139 71.4384 30.8228 71.0781 31.0996 70.7596C31.8672 69.8718 32.7862 69.1512 33.7575 68.4985C33.982 68.3471 34.2588 68.0912 34.546 68.3314C34.8802 68.6134 34.5199 68.8118 34.405 69.0625C34.2014 69.5115 34.0813 70.0024 33.935 70.4776C33.7418 71.1199 33.5068 71.7413 33.0943 72.2791C32.7497 72.7282 32.3163 73.0311 31.7262 73.0415V73.0363ZM33.1257 70.0442C32.4625 70.4515 32.0082 70.9162 31.6113 71.4436C31.4651 71.6368 31.2928 71.8927 31.5121 72.0963C31.7732 72.3418 32.0604 72.1851 32.264 71.9658C32.7497 71.4488 33.0055 70.8274 33.1204 70.0442H33.1257Z" fill="#4C4C4C"/>
<path d="M26.5774 84.4522C26.6087 84.306 26.6348 84.0502 26.7288 83.8256C27.3137 82.4105 28.4781 81.5176 29.6478 80.6351C29.7993 80.5202 29.9716 80.5254 30.0917 80.656C30.1596 80.7343 30.2222 80.9379 30.1752 80.9902C29.3867 81.8988 29.58 83.1155 29.1935 84.1494C28.9794 84.7186 28.7236 85.2199 28.1596 85.5018C27.3659 85.8935 26.6087 85.4392 26.5774 84.4575V84.4522ZM28.6348 82.7082C27.9664 83.105 27.7158 83.6533 27.4808 84.2068C27.4024 84.3844 27.345 84.6193 27.6218 84.7133C27.7993 84.776 27.9455 84.6716 28.05 84.5462C28.4677 84.0449 28.5147 83.434 28.6348 82.7082Z" fill="#4C4C4C"/>
<path d="M82.3937 56.082C82.5556 54.7713 83.1195 53.6329 83.9707 52.6303C84.143 52.4267 84.3884 52.2857 84.6234 52.4528C84.8897 52.6408 84.7644 52.9019 84.5973 53.1003C84.2422 53.5128 84.5346 53.8888 84.66 54.2596C84.9524 55.1212 84.9524 55.9723 84.6234 56.8235C84.4041 57.3979 84.096 57.8887 83.3911 57.8731C82.8428 57.8574 82.4824 57.3196 82.4093 56.4788C82.3989 56.3535 82.3989 56.2282 82.3937 56.0924V56.082ZM83.7931 54.7661C83.3754 55.424 83.0516 56.0924 83.5634 57.0219C84.0856 56.1969 84.143 55.5024 83.7931 54.7661Z" fill="#4C4C4C"/>
<path d="M82.1117 42.2228C82.2788 40.8651 83.8767 39.0375 84.9994 38.7189C85.365 38.6145 85.6939 38.839 85.5007 39.1262C85.0412 39.7998 85.2135 40.557 85.0464 41.262C84.8532 42.0609 84.5242 42.7554 83.741 43.1314C83.3441 43.3246 82.942 43.3664 82.5608 43.0844C82.1848 42.8076 82.0909 42.4212 82.1117 42.2176V42.2228ZM84.1744 40.4735C83.5634 40.9434 82.9629 41.4343 83.0934 42.4108C84.1169 42.0922 84.1744 41.3037 84.1744 40.4735Z" fill="#4C4C4C"/>
<path d="M72.4931 50.5886C72.6967 49.1943 73.4905 47.9724 74.7385 47.0221C74.916 46.8863 75.1249 46.8341 75.3077 46.9907C75.5061 47.163 75.4643 47.3928 75.2816 47.5286C74.7594 47.9045 74.9108 48.3902 75.0048 48.881C75.0988 49.3771 75.0831 49.8784 75.0048 50.3745C74.9317 50.8392 74.7594 51.257 74.4513 51.6121C74.1014 52.0089 73.6941 52.2857 73.1354 52.1238C72.6654 51.988 72.4565 51.5233 72.4931 50.5886ZM74.1641 48.8967C73.527 49.7113 73.2137 50.3745 73.4382 51.3927C74.279 50.6982 74.279 49.9358 74.1641 48.8967Z" fill="#4C4C4C"/>
<path d="M92.8636 49.2141C92.8845 49.9713 92.8427 50.5927 92.5137 51.1566C92.0646 51.9242 91.3753 51.9765 90.7957 51.2924C90.4824 50.9216 90.3571 50.4987 90.4406 50.013C90.6443 48.8381 91.1665 47.8042 91.8558 46.8486C91.9967 46.6502 92.19 46.4413 92.4824 46.5823C92.7174 46.6972 92.639 46.9165 92.6181 47.1254C92.545 47.8773 92.9523 48.5822 92.8636 49.2141ZM91.8871 48.6919C91.485 49.3551 90.9889 50.0026 91.5999 50.9007C92.2213 50.1592 91.9968 49.4177 91.8871 48.6919Z" fill="#4C4C4C"/>
</g>
<defs>
<clipPath id="clip0_49_3948">
<rect width="100" height="100" fill="white"/>
</clipPath>
</defs>
</svg>
