<svg width="101" height="100" viewBox="0 0 101 100" fill="none" xmlns="http://www.w3.org/2000/svg">
<g clip-path="url(#clip0_35_4155)">
<path d="M61.5829 99.9828C55.0919 100.128 48.6957 99.0259 42.3768 97.3672C36.7045 95.8768 31.0975 94.1833 25.8228 91.6316C21.4203 89.4974 17.4687 86.7658 14.3715 82.9382C12.645 80.804 10.7048 78.8264 9.09684 76.5994C7.39398 74.239 6.10051 71.664 5.25205 68.8977C4.21966 65.5398 3.39493 62.1239 2.79566 58.6674C2.42186 56.539 1.9828 54.4164 1.787 52.2532C1.609 50.2814 1.2352 48.3328 1.0038 46.3668C0.891068 45.4041 0.831735 44.4414 0.724936 43.4787C0.262138 39.2741 0.274004 35.0521 0.434204 30.8475C0.582536 27.014 1.35387 23.2386 2.52866 19.5849C4.05946 14.841 6.58111 10.648 10.1352 7.0465C12.7696 4.36715 15.7481 2.21555 19.3259 0.928073C22.8443 -0.336209 26.3628 -0.365206 29.8041 1.17745C34.3668 3.21886 38.3718 6.03159 42.0504 9.36628C44.9459 11.9876 47.3667 14.9802 49.7697 18.0017C52.2379 21.1102 54.7952 24.1607 57.833 26.753C60.0877 28.6785 62.7162 30.0703 65.487 31.207C69.2013 32.7323 73.0757 33.8052 76.873 35.1043C81.1272 36.5541 85.2983 38.1838 89.1668 40.4804C92.8514 42.6726 95.7054 45.6419 97.7939 49.3071C98.4584 50.4786 99.0814 51.6791 99.4967 52.9724C100.405 55.7967 100.476 58.65 100.161 61.5904C99.5145 67.6044 97.3785 73.1893 95.0764 78.6988C93.5219 82.422 91.4274 85.8785 88.7337 89.0044C84.3549 94.0963 78.8488 97.257 72.3281 98.8229C67.9909 99.8668 67.1009 100.058 61.5829 99.977V99.9828Z" fill="#ECEAD0"/>
<path d="M29.8704 79.5374C29.8704 76.023 29.8964 72.4956 29.8704 68.9812C29.8444 67.0359 29.5326 66.7376 27.5449 66.4394C27.2331 66.4004 26.9213 66.4264 26.6095 66.3615C25.1545 66.0892 24.388 65.3241 24.2581 63.8975C24.0632 61.7189 24.284 59.5661 24.8946 57.4523C25.0505 56.8946 25.4403 56.5704 25.9989 56.5315C26.5186 56.5056 27.0382 56.5056 27.5449 56.6093C32.6766 57.543 37.8082 57.2707 42.9788 56.7649C46.0578 56.4667 49.1888 56.6482 52.2937 56.6223C53.0992 56.6223 53.6708 57.0373 54.0086 57.7505C54.2295 58.2174 54.5023 58.6972 54.5413 59.203C54.8531 62.3932 55.1519 65.5705 55.3467 68.7607C55.4507 70.3947 55.1259 70.693 53.5799 71.2117C53.2941 71.3155 52.9693 71.3414 52.6705 71.3933C51.943 71.51 51.5922 71.9639 51.5662 72.6642C51.5402 73.4942 51.5272 74.3241 51.5402 75.1541C51.5662 79.9135 51.6312 84.6729 51.6052 89.4323C51.5922 93.245 51.0855 93.7378 47.305 93.7638C42.745 93.7897 38.185 93.7638 33.6119 93.7508C33.0923 93.7508 32.5726 93.7378 32.053 93.686C31.2735 93.6081 30.7278 93.1931 30.3771 92.4799C29.9353 91.624 29.8444 90.7162 29.8574 89.7695C29.8704 86.3588 29.8574 82.9352 29.8574 79.5245L29.8704 79.5374Z" fill="#EA7C5B"/>
<path d="M57.5031 18.9884C58.3475 18.2751 58.3215 17.2636 58.6853 16.4466C60.712 11.9076 63.9858 8.84709 68.9486 7.75775C71.8587 7.1223 74.392 7.92634 76.2368 10.1699C79.2768 13.8529 80.4851 19.4552 77.4191 24.3832C75.7561 27.0547 73.4177 28.4683 70.2088 28.4942C67.2207 28.5201 64.4535 27.9236 61.9721 26.1729C61.3356 25.719 60.8029 24.9538 59.8415 25.0965C59.4648 28.0792 59.5817 29.2334 60.5431 32.0346C61.4135 32.1383 62.128 31.6196 62.9075 31.3732C64.3886 30.9193 65.8566 30.3617 67.3636 30.0115C68.364 29.7781 69.4293 29.7132 70.4556 29.7781C72.3264 29.8948 73.2228 31.1787 72.885 32.9813C72.6901 34.0187 72.1965 34.9265 71.6638 35.8214C69.78 38.9338 67.0518 41.1514 63.9209 42.8632C62.206 43.8099 60.3612 44.5491 58.5034 45.2105C56.3208 45.9886 55.3465 45.5866 54.0343 43.6024C53.1769 42.2926 52.5793 40.8531 52.2155 39.3228C51.6959 37.1312 51.2152 34.9265 50.7085 32.7349C49.955 32.7868 49.8641 33.3444 49.6952 33.8113C48.5779 37.0923 46.954 40.049 44.4206 42.5001C43.6151 43.2782 43.0175 44.2767 42.4069 45.0549C42.6798 45.9626 43.2644 45.7811 43.7451 45.7681C49.1625 45.6644 54.515 46.2609 59.8805 46.8834C60.699 46.9742 61.5304 47.0779 62.3619 47.1039C64.6484 47.1946 65.9475 48.4266 66.6231 50.5405C67.1298 52.1356 67.4546 53.7566 67.5975 55.4036C68.1691 61.81 69.1175 68.1645 70.4036 74.4542C70.8453 76.607 70.8713 78.7857 71.0922 80.9384C71.2221 82.1834 70.9233 83.4154 70.5206 84.5955C70.0399 86.022 69.1305 87.1503 67.8573 87.9413C65.7917 89.2252 63.6091 88.888 62.0111 87.0335C60.7639 85.5941 60.0364 83.8952 59.5427 82.0667C58.2566 77.2424 57.4511 72.3533 57.2562 67.3605C57.1783 65.4023 57.2302 63.4311 56.8665 61.4728C56.5157 59.5924 55.7102 57.9454 54.7489 56.3374C54.2162 55.4555 53.5017 55.0276 52.4494 55.0535C50.6825 55.1054 48.9287 55.1832 47.1748 55.4944C42.9786 56.2336 38.7563 56.6616 34.4691 56.5319C31.52 56.4411 29.0257 55.3777 26.9081 53.3546C24.5826 51.137 24.2578 49.6068 25.518 46.6759C26.5833 44.186 27.9864 41.8776 29.4284 39.6081C34.1054 32.2421 39.5618 25.4466 45.2001 18.7939C46.1485 17.6786 47.3437 16.8356 48.6429 16.1613C51.2671 14.7866 53.6446 15.1368 55.7882 17.1598C56.3858 17.7175 56.9055 18.3529 57.4771 18.9624L57.5031 18.9884Z" fill="#7C9A57"/>
<path d="M57.6849 24.3312C57.542 27.4177 57.9708 29.8168 58.5684 32.1252C59.5297 32.4235 60.0754 31.8269 60.699 31.4898C61.6084 30.997 62.4658 30.4004 63.4012 29.9335C64.3236 29.4797 65.311 29.1165 66.3893 29.1554C69.6371 29.2462 71.2351 31.8918 69.793 34.7708C69.3253 35.7175 68.5978 36.4566 67.8703 37.1958C64.9472 40.1915 61.4655 42.461 57.9448 44.6656C57.1783 45.1455 56.3988 45.5864 55.6713 46.0273C55.8531 46.8314 56.3728 46.585 56.7106 46.5979C57.8538 46.6239 58.9971 46.5461 60.1403 46.559C61.8682 46.559 63.1284 47.3501 63.791 48.9711C64.1417 49.8271 64.4795 50.7089 64.6744 51.6167C65.5838 55.7666 66.2983 59.9554 66.6621 64.209C67.0908 69.2667 67.7274 74.3114 68.2211 79.3691C68.4159 81.3273 68.6238 83.2985 68.5978 85.2567C68.5718 87.9282 66.844 89.7178 64.1807 89.9902C62.4658 90.1717 61.1926 89.3029 60.1793 88.006C58.9971 86.5147 58.3605 84.7509 57.8668 82.9483C56.7366 78.8503 55.9051 74.6745 55.2945 70.4727C55.1126 69.2407 54.9177 68.0217 54.7359 66.8157C54.3331 66.7638 54.1123 66.8805 54.0083 67.2177C53.6056 68.5405 52.7741 69.2278 51.3191 69.3964C50.007 69.539 49.955 69.7206 49.929 70.9785C49.8251 75.8546 49.7471 80.7308 49.6432 85.5939C49.6172 86.6314 49.5782 87.6688 49.4613 88.6933C49.3054 90.0161 48.8247 90.483 47.4866 90.6516C46.6681 90.7553 45.8237 90.7553 44.9922 90.7553C40.1074 90.7294 35.2226 90.6775 30.3378 90.6386C30.026 90.6386 29.7142 90.6386 29.4024 90.6127C27.5706 90.47 26.973 89.9642 26.947 88.1098C26.8951 84.0636 26.947 80.0175 26.999 75.9713C27.012 74.2076 27.1029 72.4439 27.1029 70.6802C27.1029 68.9425 26.947 68.8387 25.1152 68.735C24.4916 68.6961 23.868 68.735 23.2444 68.6831C22.2051 68.5664 21.7244 68.1255 21.6855 67.101C21.5815 64.611 21.5296 62.1211 21.4646 59.6441C21.4646 59.4366 21.4646 59.2291 21.5296 59.0346C21.6465 58.6196 21.8543 58.2565 22.374 58.3343C22.6988 58.3862 22.9586 58.5548 23.0106 58.9049C23.0755 59.4107 23.1145 59.9294 23.1405 60.4482C23.2444 62.2119 23.3094 63.9756 23.4393 65.7263C23.5173 66.6989 23.7771 66.8935 24.8294 66.9713C24.9333 66.9713 25.0373 66.9713 25.1412 66.9713C29.0906 67.0232 28.7788 67.3992 28.7398 70.9785C28.6879 75.8546 28.6229 80.7307 28.5839 85.6069C28.5839 86.3331 28.584 87.0593 28.6229 87.7856C28.6489 88.3951 29.0387 88.6804 29.6233 88.7322C29.7272 88.7322 29.8311 88.7452 29.9351 88.7582C35.2356 88.849 40.5361 88.9527 45.8237 89.0046C47.5386 89.0176 47.6945 88.8749 47.7594 86.9815C47.9283 81.8979 48.0322 76.8273 48.1622 71.7437C48.1881 70.9137 48.1622 70.0837 48.2271 69.2537C48.3311 67.9828 48.6558 67.6845 49.968 67.5549C50.3837 67.516 50.7994 67.5289 51.2152 67.503C51.8128 67.4641 52.1635 67.1139 52.2805 66.5563C52.5143 65.441 52.6962 64.3128 52.943 63.1975C53.1509 62.2897 53.3718 61.3819 53.6706 60.513C53.8524 59.9683 54.9437 59.9424 55.2555 60.4352C55.7752 61.2393 55.9831 62.147 56.113 63.0678C56.4897 65.7393 56.8535 68.4108 57.2562 71.0693C57.8538 75.0636 58.5943 79.0449 59.7116 82.9354C60.1403 84.4397 60.673 85.8922 61.6863 87.1242C62.3879 87.9801 63.2583 88.4988 64.4145 88.1876C65.7007 87.8504 66.714 87.1631 66.9349 85.7495C67.0518 85.0363 67.0648 84.2971 66.9869 83.5838C66.0385 74.8172 65.1031 66.0635 64.0898 57.3098C63.8819 55.4683 63.4012 53.6398 62.9855 51.8242C62.8036 51.0202 62.4918 50.2421 62.18 49.4769C61.8812 48.7507 61.2966 48.3357 60.4781 48.3357C59.7506 48.3357 59.0231 48.3357 58.2955 48.3487C54.554 48.3746 50.8124 48.4135 47.0709 48.4524C45.1871 48.4654 43.3423 48.2449 41.5105 47.8299C40.9129 47.6873 40.3153 47.4798 39.7696 47.1815C38.9902 46.7665 38.6913 45.9106 38.9902 45.0547C39.198 44.4711 39.4578 43.9005 39.7826 43.3818C40.3413 42.5129 40.9129 41.631 41.5755 40.84C44.7584 37.0402 46.4992 32.7218 46.6292 27.7549C46.6551 26.8341 46.6941 25.8874 47.1228 25.0185C47.3177 24.6295 47.5905 24.2923 48.0582 24.3182C48.4999 24.3442 48.8247 24.6424 48.9676 25.0574C49.7211 27.3269 50.0459 29.7001 50.3837 32.0604C50.6825 34.1094 50.7864 36.1843 50.9423 38.2593C51.0463 39.7117 51.1112 41.1642 51.5789 42.5518C52.2285 44.4711 53.4107 45.0677 55.1386 44.121C59.4258 41.7607 63.4792 39.0503 66.9609 35.5748C67.6235 34.9134 68.247 34.2261 68.4679 33.2664C68.7017 32.2808 68.1691 31.3601 67.1947 31.1266C66.2463 30.9062 65.3369 30.984 64.4795 31.4508C63.5701 31.9436 62.6737 32.4754 61.7643 32.9682C60.7639 33.5128 59.7636 34.0575 58.7113 34.5244C57.9967 34.8356 57.2172 34.4465 56.9444 33.7203C56.8015 33.3313 56.7106 32.9292 56.6456 32.5272C56.113 29.0387 55.4504 25.5632 55.4894 22.0228C55.5024 20.6611 54.9567 19.6366 54.1512 18.664C53.1639 17.445 52.1765 16.226 50.6046 15.7332C49.4743 15.383 48.357 15.4349 47.2528 15.9147C45.5119 16.6669 43.9659 17.6784 42.6018 18.9882C40.8869 20.6482 39.198 22.347 37.7819 24.2793C34.0404 29.3759 30.2209 34.4336 26.921 39.8414C25.8427 41.6181 24.7904 43.4077 24.0499 45.353C23.4913 46.8184 23.0626 48.2968 23.0885 49.8789C23.1405 52.9654 24.7255 55.0144 27.7915 55.5461C31.585 56.2075 35.4305 56.2724 39.289 56.1167C42.7187 55.9741 46.1355 55.8444 49.5652 55.7277C50.5006 55.7017 51.436 55.7147 52.3714 55.7536C52.8781 55.7666 53.4107 55.8314 53.6186 56.4409C53.7875 56.9208 53.2288 57.4265 52.3324 57.4265C45.7847 57.4265 39.263 58.2306 32.7023 57.7767C31.0523 57.66 29.3894 57.4914 27.7525 57.2061C23.8161 56.5188 21.5296 53.7824 21.4646 49.853C21.4386 48.0504 21.8284 46.3515 22.5039 44.7045C23.3224 42.6815 24.3877 40.7751 25.518 38.9206C28.9217 33.3313 32.8192 28.0791 36.6777 22.8009C38.1587 20.7779 39.9385 19.0401 41.7444 17.3283C43.1085 16.0314 44.7064 15.0329 46.4213 14.2807C48.8117 13.2303 51.0853 13.5545 53.1899 15.0718C53.5277 15.3182 53.8135 15.6164 54.1383 15.8758C55.3595 16.8484 55.5283 16.7966 55.996 15.4219C56.3598 14.3455 56.6846 13.2303 57.2043 12.2317C59.9325 6.86277 66.9479 4.64518 72.1835 7.43338C74.418 8.6135 75.8731 10.4161 76.5746 12.8282C77.445 15.8239 77.2372 18.8326 76.1459 21.6856C73.9763 27.3399 65.3889 30.984 59.7766 26.1338C59.2439 25.6669 58.7113 25.213 57.6849 24.3182V24.3312ZM75.1975 16.2908C75.1845 16.0185 75.1975 15.2922 75.0676 14.579C74.3271 10.2864 70.1828 7.27776 65.9346 8.18555C62.0371 9.01553 59.166 11.2072 58.0097 15.2404C56.8405 19.2735 57.3342 21.2058 60.3092 24.1885C62.4658 26.3543 65.0122 27.0935 67.9872 26.3543C69.3123 26.0301 70.5076 25.4465 71.6118 24.6424C74.3141 22.6842 75.1455 19.909 75.1975 16.3167V16.2908ZM48.1232 31.5935C47.5516 35.1209 45.8107 38.0388 43.771 40.814C43.0305 41.8126 42.277 42.8112 41.5625 43.8227C41.1467 44.4063 40.6401 44.9639 40.6401 46.0533C44.4856 46.8832 48.37 47.1815 52.5273 46.5461C50.0979 44.3414 49.968 44.1469 49.4483 41.1382C49.2275 39.8155 49.1235 38.4668 49.0586 37.131C48.9676 35.2636 48.8507 33.4091 48.1232 31.6065V31.5935Z" fill="#4C4C4C"/>
</g>
<defs>
<clipPath id="clip0_35_4155">
<rect width="100" height="100" fill="white" transform="translate(0.333374)"/>
</clipPath>
</defs>
</svg>
