<svg width="100" height="100" viewBox="0 0 100 100" fill="none" xmlns="http://www.w3.org/2000/svg">
<path d="M52.7454 0.0830601C56.8466 -0.139429 60.7038 0.570417 64.3793 2.12254C66.7466 3.12374 69.0153 4.31035 71.0295 6.0267C72.8361 7.56293 74.269 9.40641 75.7381 11.2234C77.7368 13.6973 79.5902 16.293 81.2566 19.0211C83.167 22.1466 84.8283 25.4044 86.2144 28.8106C87.2008 31.2315 88.3377 33.5889 89.4227 35.9621C90.4558 38.2241 91.5045 40.4807 92.278 42.8486C93.6329 46.9806 94.3026 51.2608 93.8354 55.5835C93.1086 62.237 90.9749 68.3925 86.8633 73.7481C85.1761 75.9519 83.437 78.092 81.4487 80.0202C79.5798 81.8319 77.4721 83.3205 75.3436 84.7825C73.4851 86.0592 71.5331 87.1823 69.55 88.2258C66.1548 90.0057 62.6402 91.6214 58.8193 92.0558C52.3145 92.7922 46.2042 91.5367 40.8882 87.4153C38.0848 85.2434 35.4164 82.8861 33.0388 80.2215C32.2289 79.3157 31.6371 78.235 31.0089 77.1914C29.275 74.3097 27.458 71.4968 25.397 68.8375C24.0368 67.0841 22.8221 65.2194 22.0537 63.0793C21.6228 61.8874 20.7559 60.9232 20.0602 59.8744C17.3607 55.806 15.4087 51.4145 14.2718 46.631C13.4671 43.2354 13.1089 39.7762 13.4619 36.3223C13.7267 33.7425 14.2199 31.1627 14.9519 28.6464C16.2965 24.0324 18.643 19.9852 21.5605 16.2612C23.5592 13.7132 25.8902 11.5042 28.2938 9.35344C30.8065 7.10736 33.5735 5.26388 36.5534 3.77002C39.9122 2.08546 43.432 0.840583 47.1594 0.358523C49.0387 0.114844 50.9439 -0.128834 52.7454 0.0777627V0.0830601Z" fill="#ECEAD0"/>
<path d="M71.222 65.6355C72.0874 66.8458 71.3733 68.0623 71.7122 69.1492C71.7545 67.7968 71.93 66.4568 72.1176 65.1229C72.4202 62.9678 73.1948 61.0288 74.732 59.4726C76.136 58.0523 77.6671 58.182 79.2587 59.3676C81.7157 61.2017 81.7762 63.5853 81.2073 66.2345C80.5114 69.4641 78.5264 71.7613 75.9665 73.5953C74.4415 74.6883 73.0617 74.429 71.8756 72.9716C71.5669 72.5949 71.2885 72.1812 71.0767 71.7428C70.7439 71.045 70.5623 70.2422 69.588 70.1681C69.4065 70.1557 69.2431 69.9458 69.3338 69.7235C69.3762 69.6061 69.5457 69.4518 69.6425 69.4579C70.5805 69.5444 70.6047 68.8836 70.6592 68.2229C70.7257 67.4078 70.7923 66.5803 71.222 65.6293V65.6355Z" fill="#657E47"/>
<path d="M19.9034 66.4195C20.3936 66.086 20.7325 65.7217 21.2711 65.802C21.5979 65.8514 21.8097 65.6785 21.8581 65.3141C21.9065 64.9189 22.1486 64.7089 22.5359 64.6657C22.8324 64.6287 22.9353 64.4434 22.9172 64.1594C22.893 63.8135 22.8627 63.338 23.2803 63.3319C23.7826 63.3195 24.3817 63.443 24.6116 64.0111C24.8114 64.5052 24.9203 65.0486 25.0292 65.5796C25.35 67.2284 25.7191 68.8587 26.3122 70.4272C26.3666 70.5631 26.4816 70.7174 26.4574 70.8409C26.058 72.9837 27.9098 73.7248 28.9447 74.966C29.3441 75.4415 29.6648 75.3241 29.8282 74.6696C29.9614 74.1508 29.9735 73.6013 30.04 73.064C30.0884 72.6935 29.9129 72.2612 30.4152 71.9401C30.9417 72.4897 30.8207 73.1813 30.8147 73.8236C30.8025 74.5646 30.7118 75.3056 30.2761 75.9355C30.0703 76.2381 29.7496 76.4727 29.4167 76.3678C28.2971 76.0034 28.3274 76.9853 28.0369 77.5657C27.9401 77.7634 28.0248 78.0536 27.9764 78.2944C27.9401 78.492 27.7343 78.739 27.5891 78.6464C26.9476 78.2574 26.0096 78.6464 25.5497 77.856C25.1139 77.1088 24.4967 77.0779 23.837 77.3928C23.3166 77.6398 22.9898 77.4608 22.7417 77.0408C22.3725 76.4172 22.0699 75.7749 21.3437 75.4415C21.1017 75.3303 21.0109 74.8672 20.8778 74.5522C20.2121 72.959 19.7642 71.2979 19.2619 69.6491C19.1651 69.3218 19.0138 68.9698 19.2741 68.6611C19.8066 68.0374 19.4979 67.4816 19.2014 66.9011C18.9593 66.4195 18.7173 65.9378 18.5055 65.4376C18.3844 65.1474 18.3905 64.8201 18.7415 64.7028C19.0199 64.6101 19.153 64.8386 19.2559 65.0856C19.4314 65.487 19.6311 65.8822 19.8974 66.4257L19.9034 66.4195ZM28.5029 76.1454C28.4666 76.1084 28.4363 76.0713 28.4 76.0405C28.3698 76.1022 28.3214 76.164 28.3093 76.2319C28.3093 76.2566 28.3637 76.2937 28.4 76.3245C28.4363 76.2628 28.4727 76.201 28.5029 76.1393V76.1454Z" fill="#657E47"/>
<path d="M28.5029 76.1398C28.4666 76.2016 28.4363 76.2633 28.4 76.3251C28.3697 76.2942 28.3032 76.251 28.3092 76.2324C28.3274 76.1645 28.3697 76.1028 28.4 76.041C28.4303 76.0719 28.4605 76.1028 28.5029 76.146V76.1398Z" fill="#657E47"/>
<path d="M31.9854 65.183C32.761 64.9755 33.3568 65.3182 33.9858 65.545C35.135 65.96 36.3457 66.0854 37.5469 66.1964C39.9162 66.4184 42.295 66.5922 44.6644 66.8238C46.575 67.0072 48.4335 66.6066 50.3016 66.3605C54.0093 65.8731 57.7122 65.3278 61.4246 64.8501C62.7252 64.6812 63.9689 64.4544 64.9337 63.4458C65.2553 63.1128 65.539 63.1949 65.7424 63.5954C66.0734 64.2469 66.3477 64.9225 66.8348 65.4774C67.5726 66.3171 67.9178 66.4088 68.911 65.9648C71.6823 64.7294 73.503 61.197 72.7511 58.0989C72.4106 56.6946 72.6139 55.7584 73.6638 54.7692C74.8887 53.6255 75.6926 52.0861 76.7189 50.7542C77.0641 50.3054 76.9553 49.8035 76.9601 49.3113C76.9601 48.9011 76.8371 48.462 77.381 48.2448C77.6836 48.129 77.5938 47.7815 77.6127 47.5258C77.6458 47.0239 77.6552 46.522 77.6742 46.025C77.6789 45.8464 77.7924 45.7258 77.939 45.692C78.0903 45.6582 78.2275 45.7451 78.3126 45.8898C78.4734 46.1649 78.5065 46.4689 78.5207 46.7778C78.7335 50.5949 78.9321 54.4072 78.5207 58.2244C78.1187 61.9691 76.4777 65.0431 73.6496 67.456C72.4579 68.4694 71.2661 69.4827 70.0412 70.4479C66.8821 72.9428 63.4818 74.9937 59.7127 76.3835C57.7217 77.117 55.7496 77.9326 53.6309 78.1883C51.6778 78.4248 49.7104 78.4489 47.7478 78.5889C41.2688 79.0618 35.2391 77.3294 29.3512 74.8393C27.8852 74.2216 26.4238 73.5798 24.972 72.9331C22.3236 71.7605 20.1151 69.975 18.1667 67.8275C17.6701 67.2822 17.358 66.6163 17.0837 65.9359C15.9061 63.026 15.2677 59.9906 14.965 56.8587C14.7002 54.0791 14.6009 51.3188 15.1258 48.5585C15.2251 48.0373 14.9366 47.4968 15.1116 46.9563C15.1684 46.773 15.1967 46.5654 15.4379 46.5558C15.6697 46.5461 15.7548 46.7536 15.821 46.9225C15.8872 47.0963 15.944 47.3038 15.9156 47.4823C15.7642 48.4378 16.0669 49.3161 16.3554 50.1944C16.6817 51.1885 16.7857 52.226 16.9655 53.2491C17.2114 54.6292 17.6748 55.8405 18.6018 56.9649C20.0016 58.6635 21.4724 60.2367 23.3357 61.4045C23.6856 61.6265 24.0025 61.8581 24.4754 61.7857C25.0004 61.7037 25.199 62.0463 25.1895 62.5723C25.1753 63.1128 25.2321 63.6533 25.2274 64.1889C25.2084 66.6308 27.1285 68.4452 29.3134 69.1498C29.9897 69.3669 30.3916 68.9181 30.7653 68.4838C31.1956 67.982 31.2382 67.3594 31.0774 66.7369C31.0112 66.4812 30.7369 66.4667 30.5335 66.375C29.3465 65.8538 28.7648 64.9032 28.5567 63.6195C28.377 62.5048 28.3959 61.3852 28.4148 60.2705C28.429 59.4115 28.1122 58.8855 27.3886 58.5332C26.7313 58.2099 26.1779 57.7514 25.7476 57.1386C25.6625 57.0131 25.5631 56.8828 25.4449 56.796C23.6951 55.5171 22.7351 53.6158 21.6426 51.8158C21.3589 51.3526 21.2832 50.8169 21.113 50.3102C20.4509 48.3268 21.2406 46.5703 21.8082 44.7751C22.2763 43.3033 22.91 41.9038 23.5911 40.5237C23.993 39.7129 23.9694 39.8432 24.849 40.2003C25.7665 40.5719 26.6414 40.9918 27.4832 41.5033C30.7984 43.5156 34.0379 45.6486 37.2963 47.7526C40.4223 49.7697 43.6429 51.6517 46.9911 53.2828C47.7714 53.6641 48.5565 54.1322 49.3463 54.3638C50.1219 54.5954 50.6988 54.856 51.1434 55.5268C51.2569 55.7005 51.5075 55.797 51.7156 55.8887C52.4533 56.2169 52.6283 56.1348 52.7418 55.3289C52.8222 54.7595 53.035 54.3204 53.489 53.9633C53.8485 53.6834 54.1464 53.3263 54.4775 53.0126C54.7943 52.7038 54.9882 52.3563 54.9125 51.8834C54.8369 51.396 54.9646 50.9761 55.3571 50.648C55.8536 50.2282 55.5131 50.0158 55.1348 49.8276C54.1133 49.3306 53.0918 48.8335 52.0656 48.3365C51.8291 48.2207 51.5737 48.1242 51.3514 47.989C48.5801 46.2663 45.8561 44.447 43.0186 42.8448C41.8552 42.1885 40.6445 41.5708 39.4386 40.9725C36.7146 39.6213 34.175 37.9467 31.5692 36.3832C31.0963 36.0985 30.9828 35.7317 31.1152 35.2202C31.2429 34.7328 31.3375 34.2358 31.2949 33.7339C31.2382 33.0583 31.5361 32.6191 32.1225 32.3682C36.2842 30.5875 40.5027 28.9516 45.09 28.9468C47.8849 28.9468 50.6799 29.2604 53.4512 29.632C54.7139 29.8009 55.934 30.2883 57.1684 30.6406C57.7453 30.8047 58.0385 31.2486 58.1189 31.8229C58.2088 32.4695 58.2561 33.1258 58.3034 33.7821C58.4074 35.3505 59.4667 36.2819 60.5828 37.0588C61.4814 37.6861 62.938 37.136 63.4866 36.1516C63.9217 35.3746 64.2953 34.5977 64.1959 33.6422C64.1439 33.1403 64.3189 33.1258 64.7918 33.3237C67.5584 34.4674 69.1805 36.9237 70.9492 39.1339C71.8383 40.2486 72.2072 41.7928 72.8031 43.144C72.8457 43.2454 72.8504 43.3708 72.8551 43.4866C72.9781 46.0829 72.8078 48.6405 71.7485 51.0534C71.4364 51.7627 71.1999 52.4962 71.0438 53.2442C70.9256 53.8185 70.7175 54.3493 70.5 54.8801C69.9372 56.27 69.5163 57.6887 69.6676 59.2185C69.7669 60.227 69.5636 61.2163 69.4927 62.2152C69.4123 63.3203 68.6414 63.7739 67.8847 64.2565C67.6388 64.4109 67.4118 64.2227 67.4213 63.9525C67.4449 63.3927 67.2699 62.8908 67.0713 62.389C66.8916 61.9402 66.6457 61.6603 66.1255 61.9064C65.4161 62.2442 65.0188 61.8533 64.631 61.2935C63.3825 59.4694 63.8413 59.6528 61.7557 60.3525C59.8167 60.9991 57.9061 61.7375 55.9813 62.4227C55.5604 62.5723 55.1632 62.775 54.6666 62.6399C54.4018 62.5675 54.0707 62.693 53.787 62.7847C51.9 63.4024 49.9563 63.716 47.9843 63.716C44.584 63.716 41.1742 63.7257 37.8023 63.1707C36.9794 63.0356 36.166 62.8764 35.414 62.4806C35.1823 62.36 34.9553 62.1814 34.681 62.3841C33.6548 63.1562 32.7515 64.049 31.9901 65.183H31.9854ZM24.6835 41.7639C24.6835 42.2754 24.6693 42.5746 24.6835 42.8738C24.693 43.0427 24.8065 43.1344 24.9814 43.0765C25.1375 43.0282 25.251 42.9124 25.1753 42.7435C25.0618 42.4732 24.9152 42.2223 24.6788 41.7639H24.6835ZM21.7656 47.7622C21.6284 48.1049 21.5291 48.4571 21.6095 49.0989C21.8507 48.5006 21.7987 48.1338 21.7656 47.7622Z" fill="#7C9A57"/>
<path d="M24.6835 41.7686C24.92 42.227 25.0666 42.4779 25.1801 42.7482C25.251 42.9171 25.1422 43.0329 24.9862 43.0811C24.8112 43.1391 24.6977 43.0474 24.6882 42.8785C24.6693 42.5841 24.6882 42.2849 24.6882 41.7686H24.6835Z" fill="white"/>
<path d="M21.7657 47.7676C21.7988 48.1392 21.8508 48.5059 21.6096 49.1043C21.5292 48.4625 21.6285 48.1102 21.7657 47.7676Z" fill="white"/>
<path d="M52.8791 47.8731C52.5386 46.9369 52.5764 45.7691 51.9521 44.8185C51.3279 43.8678 50.4577 43.1777 49.3984 42.8013C48.0458 42.3139 46.698 41.8313 45.4542 41.0785C43.799 40.0796 43.2173 38.5499 43.7564 36.6485C44.2246 35.0126 45.2698 33.8448 46.5514 32.8362C47.4925 32.0979 48.585 31.6973 49.6727 31.2486C52.2595 30.1869 54.4302 28.5703 55.622 25.8824C56.2604 24.4395 56.6719 22.9049 56.9225 21.351C57.1448 19.9757 56.5016 18.7982 55.6977 17.7414C54.1465 15.6905 52.1366 14.2379 49.8855 13.0798C48.8829 12.5634 47.9134 11.965 47.0243 11.2267C45.5346 9.98647 45.3171 7.7763 46.2062 6.20794C46.9534 4.88569 47.8992 3.742 49.2801 3.07605C50.0605 2.69965 50.8455 2.42941 51.7772 2.66587C52.4582 2.83959 53.2054 2.71895 53.9242 2.74308C55.1302 2.78651 56.3266 2.94093 57.4995 3.22082C58.5541 3.47659 58.7906 3.97364 58.4359 5.00634C58.4217 5.04012 58.4028 5.0739 58.3886 5.1125C57.4664 7.31303 57.7076 7.12 59.552 7.97415C61.1977 8.73661 62.9806 9.1854 64.6169 9.96234C67.0146 11.0964 68.9583 12.8095 69.7623 15.4878C70.4386 17.7414 70.2021 19.995 69.2232 22.1231C67.899 24.9993 65.9931 27.4025 63.4583 29.27C62.6212 29.8877 61.6564 30.2207 60.7011 30.5778C58.7102 31.3161 56.7854 32.1751 55.1018 33.5408C53.683 34.6893 52.9831 36.2335 52.6852 37.9756C52.5291 38.8732 52.9973 39.708 53.352 40.5091C53.8013 41.5273 54.3026 42.5262 54.8133 43.5155C55.6315 45.108 55.5369 46.7005 54.8984 48.3123C54.8275 48.486 54.7093 48.6452 54.5958 48.7948C54.26 49.234 53.8107 49.4415 53.2952 49.2243C52.775 49.0023 52.5433 48.5873 52.8838 47.878L52.8791 47.8731Z" fill="#BECEA9"/>
<path d="M51.5124 48.2502C51.484 48.3419 51.4225 48.5253 51.3658 48.7039C50.9685 50.0358 50.4578 51.3146 49.8146 52.5403C49.3038 53.5151 48.7647 53.7274 47.7716 53.2642C46.4001 52.6223 45.0665 51.9081 43.8038 51.0492C40.7014 48.9355 37.6038 46.817 34.4778 44.742C32.6807 43.5452 30.841 42.416 29.0061 41.2819C28.642 41.0599 28.3204 40.8042 28.0414 40.4905C27.5921 39.9838 27.6677 40.0176 28.188 39.4868C28.7649 38.898 29.2142 38.1838 29.706 37.513C29.8858 37.2669 30.0371 36.9967 30.2026 36.7409C30.9971 35.5104 31.6261 35.3511 32.8557 36.1377C34.4258 37.1366 36.0432 38.039 37.7031 38.8739C41.3919 40.7318 44.8962 42.9178 48.3438 45.2004C49.1336 45.7216 49.9612 46.1848 50.7557 46.6964C51.205 46.9859 51.5171 47.647 51.5076 48.2454L51.5124 48.2502Z" fill="#FFF6EE"/>
<path d="M10.9263 28.908C10.9452 28.0153 11.2668 27.3783 11.7775 26.8281C12.3734 26.1863 13.0875 25.6748 13.6172 24.9606C14.0523 24.3815 14.6529 24.4539 15.2677 24.6855C16.379 25.1054 17.3958 25.7038 18.2849 26.4807C20.1529 28.1263 22.2669 29.3906 24.2815 30.819C26.2394 32.204 28.3203 33.3766 30.3207 34.6844C30.543 34.8292 30.7558 34.9884 30.9592 35.1573C31.2666 35.4227 31.3659 35.7412 31.0206 36.0356C29.8573 37.0345 29.2945 38.4533 28.5047 39.7128C27.8237 40.7889 27.5541 40.8565 26.5042 40.1761C25.3551 39.4329 24.2248 38.6704 23.4681 37.4495C23.2127 37.0345 22.8013 36.716 22.4513 36.3637C21.9217 35.8281 21.2454 35.6447 20.5691 35.8522C20.03 36.0163 19.6138 35.9101 19.1835 35.6302C16.8851 34.1487 14.5819 32.6769 12.2883 31.1906C11.4323 30.6356 11.0161 29.8008 10.931 28.8984L10.9263 28.908Z" fill="#FEDD94"/>
<path d="M24.972 39.3077C25.0098 39.7806 24.8017 40.1377 24.4045 40.3452C23.7613 40.6878 23.4113 41.2669 23.0897 41.8894C22.2527 43.506 21.5764 45.1709 21.4913 47.0288C21.4109 48.7323 21.8743 50.2668 22.6452 51.7821C23.8275 54.1129 25.6577 55.8116 27.5541 57.4716C28.8263 58.5815 28.8168 58.5622 27.7953 59.952C27.2373 60.7145 26.4759 61.2019 25.7334 61.7376C25.2652 62.0754 24.8395 62.0464 24.3808 61.7134C23.8984 61.3612 23.4397 60.9655 22.7587 61.0234C22.5554 61.0427 22.3047 60.7724 22.1155 60.589C18.9186 57.4958 16.7905 53.8137 16.1378 49.3162C15.9865 48.2835 15.8399 47.2556 15.8966 46.2084C15.9297 45.6004 15.8588 44.9682 16.4169 44.5098C16.6344 44.3312 16.5634 44.0031 16.6155 43.7425C17.0978 41.4599 17.8498 39.2932 19.2307 37.3919C20.1955 36.06 20.8812 35.8621 22.3142 36.6342C23.1181 37.0685 23.8464 37.6235 24.4943 38.2798C24.7733 38.5597 24.9767 38.8733 24.9672 39.3028L24.972 39.3077Z" fill="#92AE70"/>
<path d="M78.5207 46.4885C78.4545 47.4729 78.114 48.4767 77.5512 49.5431C76.5723 51.3962 75.3143 53.008 74.0989 54.6729C73.4841 55.5174 72.4579 55.9227 71.9849 56.8927C71.9376 56.994 71.7154 57.0713 71.5877 57.0568C71.0296 56.9796 70.4669 56.8879 69.923 56.7479C69.4501 56.6225 69.365 56.2654 69.5683 55.8455C69.6676 55.6428 69.8048 55.445 69.9561 55.2809C71.8714 53.1673 72.6281 50.5903 72.8787 47.8011C73.0443 45.9383 72.8598 44.0901 72.3585 42.3094C71.9708 40.9389 71.129 39.7518 70.4196 38.5309C69.2467 36.5137 67.7097 34.8585 65.714 33.628C63.8413 32.4746 63.8602 32.2816 65.5012 30.8918C65.6194 30.7953 65.7991 30.7277 65.8464 30.6022C66.2437 29.5985 66.972 29.8205 67.7192 30.0425C68.9535 30.4092 69.9088 31.2489 70.883 32.0306C72.8456 33.6087 74.6617 35.3459 76.0379 37.5126C77.1729 39.303 77.6032 41.3394 78.0383 43.3759C78.2464 44.3507 78.5538 45.311 78.5254 46.503L78.5207 46.4885Z" fill="#92AE70"/>
<path d="M45.6576 68.03C42.8626 68.1458 39.8927 67.9769 36.9606 67.3206C35.7405 67.0455 34.5487 66.6691 33.409 66.1576C32.2172 65.6267 32.1605 65.2407 33.0638 64.3431C33.5225 63.8847 33.9812 63.4262 34.4636 62.9919C34.7473 62.7361 35.0689 62.5238 35.4898 62.7168C36.8849 63.3635 38.3888 63.5469 39.8785 63.7882C42.0067 64.1308 44.149 64.2804 46.3008 64.3528C46.6744 64.3672 47.048 64.3962 47.3743 64.1115C47.6202 63.8991 47.9418 63.9233 48.2445 63.9233C52.9595 63.9233 57.3151 62.4756 61.5193 60.4681C62.7962 59.86 63.7909 60.1077 64.5035 61.2112C64.7305 61.5635 65.052 61.8482 65.3074 62.1764C65.733 62.7168 65.7189 62.9919 65.1845 63.4407C64.4845 64.0294 63.6948 64.4927 62.8672 64.8739C60.3418 66.0369 57.6981 66.7849 54.9836 67.3351C51.9616 67.9479 48.916 68.0541 45.6576 68.0251V68.03Z" fill="#92AE70"/>
<path d="M48.4999 30.0419C44.953 30.1287 41.4061 30.2349 37.9396 31.1518C36.1047 31.6392 34.3217 32.2713 32.6381 33.1545C31.9193 33.5309 31.2761 33.555 30.5999 33.1786C29.8385 32.7539 29.0676 32.3437 28.344 31.8563C27.838 31.5185 27.8664 31.2097 28.3961 30.925C29.7581 30.177 31.0917 29.347 32.5578 28.8258C35.8351 27.6628 39.0888 26.384 42.5836 26.0414C42.6971 26.0317 42.8059 25.9931 42.9194 25.9931C45.3739 26.0027 47.8141 25.5974 50.2733 25.6794C50.9969 25.7036 51.711 25.7711 52.4015 25.9834C53.6121 26.355 53.9101 27.1802 53.2574 28.2612C53.0777 28.5555 52.8791 28.8354 52.69 29.125C52.2596 29.7861 51.7063 30.1287 50.8834 30.0563C50.0936 29.9888 49.2991 30.0419 48.5046 30.0419H48.4999Z" fill="#92AE70"/>
<path d="M48.8498 53.4033C48.8592 52.8001 49.2045 52.2114 48.9349 51.5937C48.9113 51.5406 48.9444 51.4248 48.9917 51.3814C49.7389 50.6141 50.0368 49.509 50.8881 48.8237C51.5596 48.2832 52.2548 48.0757 53.0919 48.428C53.7871 48.7224 54.5295 48.8913 55.2247 49.1808C56.1091 49.5524 56.2273 49.8757 55.9152 50.7878C55.8159 51.0822 55.7071 51.3427 55.7922 51.6709C55.972 52.3561 55.6835 52.9159 55.1254 53.2441C54.2222 53.7797 53.735 54.4939 53.8012 55.5845C53.8296 56.0478 53.5979 56.4049 53.1675 56.5786C52.6662 56.7861 52.146 56.7282 51.815 56.3132C51.4461 55.85 50.8975 55.5315 50.7178 54.8993C50.6327 54.5953 50.4151 54.3926 50.0368 54.465C49.1524 54.6387 48.8025 54.3154 48.8498 53.3937V53.4033Z" fill="#EA7C5B"/>
<path d="M20.6732 49.3062C20.1861 49.3111 20.1766 48.9443 20.1246 48.5968C19.9307 47.2794 20.0442 45.9765 20.3516 44.6928C20.7773 42.9122 21.5481 41.2859 22.494 39.7368C22.7351 39.346 23 38.9985 23.4776 38.8296C23.9647 38.6559 24.0499 38.1251 23.6195 37.8066C22.825 37.2178 21.9785 36.7063 21.1461 36.1658C20.8529 35.9728 20.6732 36.1658 20.4604 36.354C19.7416 37.0007 19.7226 37.0151 18.9139 36.5181C16.6108 35.109 14.3219 33.6806 12.0282 32.257C10.3399 31.205 9.79133 29.3278 10.6426 27.4892C11.1108 26.4758 11.8532 25.7326 12.8038 25.1873C13.3051 24.8978 13.7307 24.8978 14.2699 25.2211C18.1762 27.576 22.0447 29.9937 25.8611 32.5031C26.2016 32.7251 26.5611 32.9181 26.9063 33.1256C26.982 32.9953 27.0482 32.9326 27.0434 32.8795C26.8637 31.5862 27.261 30.6259 28.5048 30.0902C29.0581 29.8538 29.5499 29.4581 30.108 29.2313C33.7589 27.7256 37.4666 26.3986 41.3776 25.7954C44.4232 25.3224 47.483 25.3466 50.5475 25.5299C51.115 25.5637 51.6778 25.6361 52.2406 25.6795C52.9358 25.7326 53.5837 25.8581 53.8958 26.6688C54.6147 26.0704 54.8984 25.2935 55.0687 24.531C55.6267 22.0506 55.4517 19.6329 54.3073 17.3214C53.6735 16.0426 52.6237 15.256 51.3988 14.6817C50.0273 14.0399 48.618 13.4657 47.2466 12.8287C44.8299 11.7043 43.6287 8.77025 44.5462 6.2271C45.0049 4.95311 45.8467 3.9735 46.9486 3.23034C47.1662 3.08556 47.3932 2.93597 47.6816 2.9601C47.9985 2.98905 48.1688 3.2979 47.9465 3.5247C47.6864 3.79977 47.3648 4.00728 47.0669 4.24374C45.3407 5.59976 44.7448 7.43353 45.3407 9.46998C45.6859 10.6426 46.3528 11.5306 47.4688 12.0276C48.5424 12.5054 49.6206 12.9686 50.6942 13.4512C51.1434 13.6539 51.5927 13.8662 52.0231 14.0978C54.1559 15.2464 55.551 16.9788 55.9672 19.4399C56.4496 22.2967 56.3456 25.0425 54.5957 27.5278C53.404 29.2168 51.8859 30.4039 49.9375 31.0313C48.1971 31.591 46.4899 32.2184 45.1752 33.5985C44.9624 33.8205 44.7448 34.0328 44.5462 34.2693C42.5458 36.6532 42.5883 38.8489 44.8016 41.5175C45.6765 42.5744 46.9013 43.1438 48.2019 43.5009C48.8214 43.6698 49.4551 43.7953 50.0746 43.969C51.744 44.4371 52.723 45.5277 52.9311 47.3084C52.9642 47.5883 52.8696 48.0467 53.2763 48.0371C53.6594 48.0274 53.5932 47.5786 53.631 47.2891C53.8296 45.8172 53.2101 44.577 52.5385 43.3561C52.4629 43.221 52.3778 43.0907 52.2737 42.9797C49.1288 39.5004 50.4861 33.5889 54.9646 31.2339C56.9131 30.2109 58.975 29.4195 60.8714 28.2854C61.6564 27.8173 62.432 27.3396 63.2171 26.8763C64.8959 25.887 65.9884 24.3814 66.7403 22.6152C67.5301 20.7573 68.0314 18.8415 67.7098 16.7665C67.5112 15.4732 67.0193 14.4694 65.9174 13.7118C64.3568 12.6405 62.6023 12.0421 60.8903 11.3231C59.5614 10.7633 58.1947 10.3048 56.9745 9.49893C56.1422 8.95363 55.5605 8.23942 55.3193 7.24533C55.0261 6.04855 55.7071 3.94454 56.6387 3.25446C56.8185 3.11934 57.0218 2.97457 57.2488 3.1676C57.4947 3.37511 57.3529 3.60192 57.2252 3.78047C56.8894 4.24856 56.5678 4.72148 56.3503 5.26196C55.8111 6.59868 56.1422 7.79546 57.2914 8.62066C57.9109 9.06462 58.5872 9.4169 59.2918 9.70161C60.7673 10.3048 62.2334 10.9225 63.7136 11.5113C64.8155 11.9504 65.8087 12.5729 66.764 13.2775C67.5679 13.8662 68.1023 14.6431 68.3199 15.6179C68.6509 17.0994 68.7502 18.5906 68.3861 20.0914C68.107 21.2544 67.7997 22.4125 67.2605 23.4838C66.4187 25.1584 65.3405 26.6254 63.7089 27.5905C63.0232 27.9959 62.3469 28.4254 61.6754 28.85C61.1031 29.2071 60.1431 29.3519 60.0532 29.9599C59.9681 30.539 60.1525 31.2918 60.2897 31.9578C60.564 33.2607 61.1078 34.3755 62.3942 34.9111C62.7441 35.0559 62.9191 35.302 62.957 35.7894C63.5812 35.0366 63.742 34.2741 63.6947 33.531C63.6285 32.5465 63.9548 31.813 64.6311 31.176C64.8534 30.9637 65.0284 30.7079 65.2459 30.4956C65.8323 29.9165 65.9742 29.8972 66.745 30.2688C67.9132 30.8334 69.0009 31.5476 69.9845 32.3873C71.8668 33.9942 73.8341 35.5481 75.0448 37.7969C76.6527 40.7744 77.7121 43.9159 77.679 47.3759C77.6506 50.3486 77.8208 53.3212 77.9201 56.289C78.062 60.5164 76.2791 63.7158 73.347 66.4278C70.9351 68.6621 68.3577 70.6841 65.6337 72.5131C62.7962 74.424 59.7458 75.8235 56.4212 76.5763C54.1228 77.0975 51.7913 77.2857 49.4409 77.387C43.9598 77.6235 38.5496 77.2326 33.2907 75.5291C28.2305 73.8884 23.506 71.5914 19.6375 67.7742C17.7695 65.9308 16.3507 63.7737 15.6272 61.1726C14.7333 57.9539 14.2651 54.6676 14.3786 51.3378C14.5253 46.9609 15.665 42.8156 17.7316 38.9599C17.9492 38.5545 18.2187 38.1781 18.493 37.8114C18.6018 37.6666 18.7863 37.5315 18.9896 37.6521C19.245 37.8017 19.1788 38.0382 19.0937 38.2602C19.0511 38.3663 18.9802 38.4629 18.9187 38.5545C16.1095 42.7674 16.0433 47.3373 17.1358 52.1051C18.0674 56.1587 20.5692 58.9673 23.7756 61.2933C24.0877 61.5201 24.8585 61.6407 24.4802 62.215C24.2201 62.6107 23.7377 62.0992 23.4114 61.8869C21.6711 60.7625 20.1861 59.3389 18.8477 57.7464C17.533 56.178 16.9371 54.2622 16.3886 52.3271C16.0102 50.9904 15.8211 49.6199 15.6319 48.1481C15.2914 48.6644 15.2819 49.1663 15.2488 49.6488C14.9603 53.6976 15.3907 57.6692 16.5588 61.5394C17.2398 63.7978 18.5356 65.6847 20.2476 67.2723C25.1139 71.794 30.9308 74.3227 37.2869 75.7077C41.6094 76.6487 45.9839 76.7307 50.3867 76.4991C53.1959 76.3543 55.953 75.9972 58.6534 75.172C62.3469 74.0428 65.4634 71.8712 68.4996 69.5501C69.9562 68.4402 71.304 67.2 72.6802 65.9887C74.1652 64.6809 75.2576 63.0692 76.2555 61.3802C76.6669 60.6852 76.8939 59.918 76.9648 59.0879C77.2013 56.2456 77.0878 53.4033 77.0216 50.4789C76.596 50.6285 76.5487 50.9614 76.421 51.2076C75.5697 52.8049 74.7043 54.3974 73.1862 55.4638C72.8079 55.7292 72.8694 56.0333 72.9119 56.4483C73.1815 59.0107 73.0822 61.5394 71.985 63.933C71.1196 65.8198 69.4123 66.727 67.5632 66.3217C66.6646 66.1238 66.0593 65.6364 65.837 64.7051C65.6763 64.0391 65.5202 63.3732 65.3499 62.659C64.7919 62.7651 64.371 63.1174 63.917 63.3587C60.2093 65.3276 56.1895 66.1914 52.1129 66.9056C49.5639 67.3496 47.0006 67.4557 44.4327 67.5619C40.9615 67.7067 37.5564 67.2868 34.3169 65.926C33.6832 65.6606 33.3569 65.7715 33.0542 66.3603C32.8272 66.8091 32.5435 67.282 31.9713 66.9876C31.7395 67.1565 31.8199 67.311 31.8199 67.4509C31.801 68.6863 31.0632 69.4584 29.8573 69.5163C28.1122 69.5983 26.3813 68.4257 25.6909 66.674C25.3504 65.8102 25.1801 64.8981 25.043 63.9812C24.868 62.8037 25.1376 61.7759 25.9557 60.8928C26.4475 60.3668 26.8874 59.7877 27.417 59.1555C26.7644 58.6488 26.1685 58.1904 25.5821 57.7223C23.8276 56.3132 22.4656 54.5807 21.4677 52.5539C21.0042 51.6129 20.7489 50.6043 20.8529 49.533C20.9049 49.4124 20.957 49.2869 20.8245 49.1904C20.8151 49.1808 20.7394 49.2628 20.6921 49.3014L20.6732 49.3062ZM32.9644 65.1008C33.4562 64.845 33.9197 65.0477 34.369 65.2262C37.4429 66.4472 40.6588 66.9104 43.9267 66.8429C46.7547 66.7849 49.5733 66.5485 52.3825 66.0852C55.4943 65.5737 58.5162 64.7823 61.4483 63.6241C62.6259 63.156 63.7798 62.6107 64.8628 61.9303C64.6406 61.3705 64.2007 61.1003 63.8933 60.719C63.4961 60.2268 63.1036 60.2123 62.5172 60.4584C60.564 61.2836 58.6156 62.1426 56.5962 62.7603C49.6254 64.8884 42.6025 64.9464 35.5702 63.0499C35.1635 62.9389 34.8655 62.9437 34.5487 63.267C33.9906 63.8413 33.3947 64.3769 32.8178 64.9319C32.3969 65.1925 32.307 65.6026 32.2314 66.2203C32.6286 65.8102 32.8509 65.4917 32.9644 65.1008ZM53.7634 27.0645C53.8674 26.8618 53.8769 26.7219 53.5837 26.7846C53.4749 26.8908 53.3567 26.9873 53.2668 27.108C52.0372 28.7149 50.5334 29.4195 48.4478 29.212C45.7758 28.9465 43.0849 29.2457 40.4507 29.8538C37.0977 30.6259 33.792 31.5476 30.7464 33.2366C31.0443 33.5358 31.6449 33.6564 31.5362 34.3224C31.451 34.8339 31.295 35.3213 31.0065 35.7749C33.0211 37.0441 34.9223 38.3036 36.9416 39.3604C41.9262 41.9615 46.6933 44.9486 51.517 47.8344C51.7204 47.955 51.8812 48.2494 52.198 48.1046C52.2642 46.266 51.5832 45.2333 49.9233 44.7314C49.2376 44.5239 48.5187 44.4323 47.8283 44.2248C45.09 43.414 43.2031 41.7202 42.4181 38.8393C42.087 37.6184 42.2052 36.4795 42.7822 35.3696C43.7753 33.4731 45.2036 32.035 47.1283 31.1326C48.0222 30.7128 48.9585 30.4136 49.8855 30.0758C51.4887 29.4967 52.8649 28.5943 53.7634 27.0597V27.0645ZM25.2605 40.6972C25.2085 40.6537 25.1281 40.562 25.1092 40.5765C24.991 40.6489 25.0241 40.7551 25.0808 40.8564C25.095 41.6333 25.2842 42.3765 25.4308 43.1341C25.549 43.7422 25.4213 44.2248 24.9484 44.688C24.239 45.3781 23.5296 46.102 22.9763 46.9175C21.0232 49.8178 21.236 50.8987 22.6689 53.2585C23.8418 55.1888 25.3977 56.7426 27.1995 58.0649C27.6819 58.422 28.4149 58.6922 28.1075 59.5802C28.0649 59.7008 28.1974 59.7732 28.2967 59.8118C28.6514 59.9566 28.6419 60.2702 28.6608 60.5839C28.7034 61.3174 28.798 62.0461 28.8027 62.7748C28.8169 64.5893 29.5688 65.8729 31.3801 66.563C31.451 64.985 32.4962 64.0439 33.5886 63.1367C33.7069 63.0402 33.8298 62.9437 33.9291 62.8279C34.4352 62.2343 35.0169 62.1764 35.7593 62.3791C40.7203 63.7254 45.7616 63.8654 50.8313 63.2525C54.539 62.8086 58.0291 61.5346 61.472 60.1303C63.5197 59.2954 63.5245 59.2858 65.1135 60.941C65.4351 61.274 65.6904 61.6118 66.2532 61.4863C66.7309 61.3802 67.0193 61.7421 67.1612 62.1812C67.27 62.5094 67.3362 62.852 67.4308 63.185C67.6152 63.8075 67.8942 63.904 68.3719 63.4697C68.9725 62.9244 69.2042 62.1764 69.2373 61.3946C69.2894 60.2799 69.2657 59.1555 69.2846 58.0408C69.2941 57.5871 69.1428 57.066 69.5353 56.7282C69.942 56.3807 70.292 56.8681 70.675 56.9212C70.8878 56.9501 71.1621 57.0949 71.2614 56.8054C71.3844 56.4579 71.0391 56.4821 70.8547 56.4241C70.6041 56.3469 70.3345 56.3325 70.0791 56.2649C69.4454 56.0912 69.3319 55.8451 69.7244 55.2853C71.129 53.2585 71.7674 50.9084 72.4201 48.5775C72.8599 46.9995 72.841 45.3636 72.4957 43.7615C71.8005 40.5138 70.098 37.8838 67.5916 35.7846C66.6221 34.969 65.558 34.2886 64.3946 33.5358C64.3284 34.583 64.1062 35.4323 63.6758 36.2141C63.1745 37.1165 62.2949 37.5894 61.3017 37.4446C60.1478 37.2757 59.2398 36.7159 58.7101 35.6205C58.2041 34.5733 57.9251 33.4586 57.6603 32.3342C57.5089 31.702 57.6981 31.2195 58.1143 30.7851C58.1852 30.7224 58.4169 30.872 58.3318 30.6307C58.3176 30.5921 58.1332 30.6597 58.1285 30.8044C56.8563 31.0892 55.7497 31.7648 54.6619 32.4355C51.29 34.5058 50.103 39.4376 52.8743 42.5261C53.002 42.666 53.1013 42.8349 53.1912 43.0038C54.312 44.992 55.1822 47.4001 53.2243 49.9674C53.2905 49.9963 53.3567 50.0494 53.4229 50.0542C53.7303 50.0783 53.8722 49.8081 54.0802 49.6585C54.5106 49.3545 55.1916 49.4027 55.5274 49.7502C55.9578 50.2038 55.6976 50.585 55.3902 50.9614C55.2011 51.1931 54.8653 51.3813 54.9457 51.7239C55.2011 52.7856 54.5957 53.384 53.8722 53.9437C53.4087 54.3057 53.1486 54.7062 53.1486 55.3866C53.1486 56.2552 52.3115 56.7089 51.5076 56.4048C50.9968 56.2118 50.5475 55.903 50.3915 55.3384C50.2733 54.9137 50.1361 54.7207 49.701 55.0054C49.4173 55.1888 49.1241 55.1357 48.8592 54.9234C48.3816 54.5518 48.06 53.7652 48.3485 53.1909C48.6275 52.6263 48.164 52.1244 48.3863 51.6226C48.6228 51.0917 49.1903 50.8022 49.3889 50.2376C49.4031 50.199 49.422 50.1652 49.4267 50.1266C49.4882 49.2821 49.9138 48.7175 50.9117 48.4762C44.4705 44.273 37.8686 40.8178 31.4416 37.0296C31.2524 37.5749 30.8788 37.9175 30.5761 38.3036C30.0465 38.984 29.6871 39.7368 29.5546 40.591C29.427 41.4065 29.6019 42.0001 30.3822 42.5213C35.7593 46.1116 41.283 49.4558 46.8682 52.689C47.1898 52.8724 47.8661 52.9931 47.5918 53.4949C47.3317 53.9727 46.854 53.4756 46.5325 53.2923C40.8054 50.0735 35.1966 46.6521 29.7202 43.0038C29.1527 42.6226 28.8973 42.1497 28.8169 41.5031C28.6845 40.4607 28.9635 39.5245 29.4506 38.6221C29.6114 38.3229 29.8999 38.0961 29.9566 37.7342C30.1553 37.6956 30.2404 37.5556 30.2782 37.3674C30.2404 37.3626 30.1978 37.3385 30.1742 37.3481C30.0039 37.4253 29.8479 37.517 29.985 37.7486C29.8195 37.6425 29.7107 37.7486 29.6067 37.8596C28.7885 38.7765 28.3676 39.8478 28.4338 41.0929C28.4527 41.4355 28.5568 41.7781 28.2021 42.0146C27.8001 42.28 27.4927 42.0291 27.1806 41.8215C26.5563 41.4065 25.951 40.9577 25.2416 40.702L25.2605 40.6972ZM30.4343 36.3637C28.6986 35.2441 26.9299 34.1294 25.1896 32.976C21.5765 30.5776 17.8972 28.2951 14.2179 26.0029C13.7118 25.6892 13.3571 25.6892 12.8984 26.0125C11.5317 26.9777 10.8743 28.242 11.1155 29.9696C11.1959 30.5583 11.4087 30.9589 11.9147 31.2629C14.3172 32.7251 16.7054 34.2114 19.0889 35.7025C19.4956 35.9583 19.7983 36.0452 20.1577 35.6205C20.5786 35.1283 21.061 35.1862 21.567 35.5385C22.0967 35.9052 22.65 36.2479 23.2128 36.5663C24.0971 37.0682 24.6741 37.7583 24.7309 38.8296C24.7498 39.1867 24.8396 39.4956 25.1896 39.6982C26.003 40.1663 26.8023 40.6634 27.6677 41.1846C27.8474 39.0854 28.5 37.3771 30.4343 36.3588V36.3637ZM64.4798 32.4838C65.1986 33.2221 66.0215 33.6999 66.8018 34.2452C70.4054 36.7497 72.77 40.0988 73.4369 44.5625C73.7206 46.4639 73.4227 48.3266 72.8362 50.1459C72.2404 51.9941 71.6492 53.8472 70.5899 55.5845C71.1763 55.7389 71.5736 55.9947 72.0701 55.5748C73.7206 54.1705 75.0401 52.5153 75.9481 50.5223C76.1041 50.1845 76.1892 49.7261 76.596 49.6247C76.9601 49.533 76.9459 49.3255 76.9648 49.0408C77.2391 44.9341 76.2271 41.1459 74.0469 37.7245C72.4579 35.2345 70.221 33.3524 67.7665 31.8034C65.6479 30.4715 66.2674 30.3267 64.4845 32.4838H64.4798ZM30.5714 35.524C30.7322 34.5814 30.4295 33.9283 29.6634 33.5648C29.181 33.3379 28.7318 33.0532 28.3534 32.672C28.1784 32.4983 28.0791 32.2811 28.1548 32.0495C28.2588 31.7358 28.5379 31.6972 28.8122 31.7406C29.3371 31.8227 29.862 31.9095 30.3397 32.1508C30.7559 32.3583 31.1011 32.2956 31.5078 32.0833C34.596 30.4618 37.93 29.6125 41.302 28.9079C44.0638 28.3289 46.8635 28.3771 49.6632 28.4736C50.8644 28.5171 51.9899 27.7498 52.5291 26.5047C51.4272 26.4034 50.3442 26.2538 49.2612 26.2152C45.1232 26.0704 41.0229 26.3262 37.0315 27.5616C34.1751 28.4447 31.3281 29.3423 28.6987 30.8382C27.9656 31.2532 27.6393 31.7599 27.7339 32.59C27.7528 32.7733 27.7765 33.0725 27.6771 33.1401C27.2042 33.4682 27.54 33.6034 27.7859 33.7626C28.6797 34.332 29.5783 34.9015 30.5761 35.5336L30.5714 35.524ZM53.229 48.5148C52.1697 48.5148 51.465 49.1952 50.5996 49.3593C50.4151 49.3931 50.2733 49.5813 50.2496 49.7791C50.1645 50.503 49.8098 51.0773 49.3227 51.5888C49.2234 51.6901 49.1004 51.8832 49.1335 51.9797C49.3416 52.5346 49.1524 53.0172 48.9822 53.5384C48.8356 53.9968 49.2234 54.3298 49.6585 54.1995C50.5854 53.9244 50.7131 53.9679 51.011 54.9234C51.1529 55.377 51.3988 55.6713 51.8339 55.7775C52.1838 55.8644 52.5244 55.6906 52.4629 55.3335C52.2832 54.2815 53.0067 53.8134 53.6215 53.2585C53.9005 53.0075 54.3356 52.7807 54.2694 52.3754C54.1748 51.777 54.4255 51.2027 54.3782 50.5899C53.7303 50.7057 53.1202 51.0966 52.6379 50.4499C52.0372 49.6344 53.0067 49.2676 53.2243 48.5245L53.229 48.5148ZM27.9278 59.778C27.1617 60.5694 26.6415 61.2257 26.1402 61.9013C25.8564 62.2874 25.7003 62.7024 25.7476 63.1898C25.8422 64.2273 25.9794 65.26 26.353 66.2348C26.8779 67.5957 27.8521 68.4209 29.2614 68.7056C29.7154 68.7973 30.1647 68.7587 30.5714 68.4932C31.2099 68.0686 31.2335 67.6488 30.6423 67.1372C30.4674 66.9876 30.2877 66.8429 30.089 66.7319C28.798 66.0273 28.2778 64.8643 28.1122 63.4359C27.9798 62.3019 27.9704 61.163 27.9278 59.778ZM66.291 62.1426C66.1917 63.1271 66.414 64.3817 66.7119 64.8884C66.92 65.2407 67.2132 65.4627 67.6105 65.5254C68.7739 65.6992 70.2872 65.4144 71.0155 64.015C72.1505 61.8434 72.3728 59.5319 72.0749 57.066C71.6303 58.2869 70.7365 57.5292 70.0224 57.5727C70.0224 57.8333 70.0224 58.0263 70.0224 58.2145C70.0035 59.4113 70.1028 60.608 69.9467 61.8C69.8048 62.8713 69.3981 63.8171 68.4097 64.3576C67.5774 64.8161 67.0335 64.5748 66.7923 63.6531C66.6788 63.2139 66.6221 62.7603 66.291 62.1378V62.1426ZM20.9901 49.0119C21.567 47.2794 22.5081 46.0489 23.6195 44.9341C23.8891 44.6639 24.135 44.3695 24.414 44.1089C24.6221 43.9111 24.764 43.7084 24.7119 43.4092C24.5275 42.3862 24.3431 41.3631 24.1681 40.3401C24.1113 40.0071 23.9789 39.7368 23.6431 39.6693C23.3074 39.6065 23.2033 39.925 23.0804 40.1422C22.1534 41.7395 21.3306 43.3996 20.9995 45.2382C20.7914 46.3963 20.5786 47.5786 20.9995 49.0119H20.9901ZM59.3722 31.2725C58.294 31.5862 58.2656 31.6152 58.4642 32.4741C58.6723 33.3717 58.9229 34.2597 59.2966 35.1042C59.604 35.8039 60.1005 36.3058 60.8241 36.5519C61.3821 36.7401 61.9402 36.7642 62.4699 36.4698C62.6638 36.3637 62.8766 36.2189 62.834 35.9487C62.7962 35.7122 62.5597 35.7411 62.3847 35.6881C60.9802 35.2924 60.1856 34.2645 59.7458 32.9229C59.5803 32.4162 59.5094 31.8758 59.377 31.2725H59.3722ZM54.6525 50.5609C54.7896 50.5754 54.8795 50.4692 54.8795 50.3775C54.8795 50.2762 54.7707 50.1797 54.643 50.2231C54.5815 50.2424 54.4964 50.31 54.4917 50.3582C54.487 50.4499 54.4917 50.585 54.6525 50.5609Z" fill="#4C4C4C"/>
</svg>
