<svg width="101" height="100" viewBox="0 0 101 100" fill="none" xmlns="http://www.w3.org/2000/svg">
<g clip-path="url(#clip0_2544_1579)">
<path d="M61.9162 99.9823C55.4252 100.127 49.0291 99.0254 42.7101 97.3667C37.0379 95.8763 31.4309 94.1828 26.1562 91.6311C21.7537 89.4969 17.8021 86.7653 14.7049 82.9377C12.9783 80.8035 11.0381 78.8259 9.43018 76.5989C7.72732 74.2385 6.43386 71.6635 5.58539 68.8972C4.553 65.5393 3.72827 62.1234 3.129 58.667C2.75521 56.5386 2.31614 54.416 2.12034 52.2528C1.94234 50.2809 1.56854 48.3323 1.33714 46.3663C1.22441 45.4036 1.16508 44.4409 1.05828 43.4782C0.595481 39.2736 0.607348 35.0516 0.767547 30.847C0.91588 27.0135 1.68721 23.2381 2.86201 19.5844C4.3928 14.8405 6.91446 10.6475 10.4685 7.04601C13.1029 4.36666 16.0814 2.21506 19.6592 0.927584C23.1777 -0.336697 26.6961 -0.365694 30.1374 1.17696C34.7001 3.21837 38.7051 6.03111 42.3838 9.36579C45.2792 11.9871 47.7 14.9797 50.103 18.0012C52.5713 21.1097 55.1285 24.1602 58.1664 26.7526C60.421 28.678 63.0495 30.0698 65.8204 31.2065C69.5346 32.7318 73.4091 33.8047 77.2064 35.1038C81.4606 36.5536 85.6317 38.1833 89.5002 40.4799C93.1848 42.6721 96.0387 45.6414 98.1272 49.3066C98.7917 50.4781 99.4148 51.6786 99.8301 52.9719C100.738 55.7962 100.809 58.6496 100.495 61.5899C99.8479 67.6039 97.7119 73.1888 95.4098 78.6983C93.8552 82.4215 91.7608 85.878 89.0671 89.0039C84.6883 94.0958 79.1822 97.2565 72.6615 98.8224C68.3242 99.8663 67.4342 100.058 61.9162 99.9765V99.9823Z" fill="#ECEAD0"/>
<g clip-path="url(#clip1_2544_1579)">
<path d="M36.697 19.9675C37.1014 19.9675 37.5058 19.9706 37.9101 19.9675C38.8476 19.9589 39.7803 20.0302 40.7114 20.1283C40.9831 20.1573 41.2595 20.1416 41.5344 20.1377C42.8612 20.1212 44.1855 20.1714 45.5059 20.3031C45.5917 20.3118 45.6791 20.3063 45.7657 20.3071C46.777 20.3125 47.7884 20.2969 48.7989 20.3321C49.3018 20.3494 49.8007 20.3447 50.302 20.3235C51.2688 20.282 52.2325 20.3706 53.1978 20.3925C54.4808 20.4215 55.7607 20.3306 57.0397 20.2427C57.2701 20.2271 57.5021 20.2427 57.7325 20.2349C59.6797 20.1753 61.6269 20.1408 63.5741 20.1181C64.3352 20.1094 65.1042 20.0208 65.8629 20.0765C66.9593 20.1573 68.0564 20.0992 69.1488 20.1667C69.7827 20.2059 70.4183 20.1832 71.0483 20.242C71.9063 20.322 72.7731 20.3196 73.6239 20.4804C74.0267 20.5564 74.0919 20.6356 74.103 21.0473C74.1093 21.2802 74.0585 21.4982 73.987 21.7154C73.778 22.3522 73.4952 22.9599 73.2346 23.5763C72.8454 24.4977 72.6197 25.4701 72.3194 26.4189C72.0112 27.3929 71.7172 28.3739 71.5329 29.3831C71.3351 30.4708 71.0944 31.5522 70.9148 32.6429C70.8513 33.0311 70.7957 33.4271 70.7981 33.8286C70.8076 35.237 70.7059 36.6422 70.7115 38.0514C70.7202 40.193 70.9506 42.2993 71.548 44.3617C72.1017 46.2766 72.7619 48.1563 73.4309 50.0344C73.8035 51.0805 74.1475 52.136 74.4716 53.1978C74.9403 54.734 75.4083 56.2718 75.7562 57.8401C76.128 59.5159 76.5094 61.1909 76.8407 62.8745C76.994 63.6517 77.021 64.4515 77.1354 65.2373C77.2649 66.1234 77.3157 67.0173 77.3618 67.9066C77.4111 68.8555 77.423 69.8098 77.33 70.7634C77.2697 71.3852 77.3531 72.0204 77.2855 72.6407C77.1807 73.6036 77.2887 74.5737 77.1425 75.5335C77.1147 75.7147 77.1338 75.9036 77.1314 76.0887C77.1179 77.083 76.9948 78.0688 76.8867 79.056C76.7699 80.128 76.6039 81.1921 76.4283 82.2547C76.2965 83.0522 76.1153 83.8411 75.9747 84.637C75.819 85.5161 75.6331 86.3904 75.5592 87.2828C75.4861 88.1729 75.3924 89.0613 75.2986 89.949C75.2764 90.1592 75.2319 90.3701 75.1739 90.574C75.0873 90.8806 74.9705 90.9732 74.6551 90.9881C74.4247 90.9991 74.1896 91.0116 73.9624 90.981C73.0185 90.8524 72.0684 90.8477 71.119 90.8046C70.1561 90.7607 69.1917 90.712 68.232 90.6313C67.7275 90.5889 67.2262 90.5646 66.7225 90.563C65.8002 90.5615 64.881 90.505 63.9642 90.4078C63.7926 90.3897 63.6178 90.3992 63.4446 90.3992C62.7955 90.3976 62.1536 90.32 61.5109 90.2423C61.3965 90.2282 61.2805 90.229 61.1653 90.2282C60.4591 90.2235 59.7584 90.1514 59.0584 90.0667C59.0155 90.0612 58.9718 90.0604 58.9289 90.058C56.8959 89.9663 54.8598 89.92 52.8276 89.9906C51.9489 90.0212 51.0663 89.9883 50.1924 90.0682C49.3852 90.1419 48.5757 90.0847 47.7733 90.1561C46.3448 90.2823 44.9156 90.2509 43.4904 90.1968C42.688 90.1663 41.876 90.211 41.0768 90.0675C40.9648 90.0471 40.8464 90.0612 40.7304 90.0612C39.445 90.0612 38.1588 90.0463 36.8742 90.0659C35.9677 90.08 35.0628 90.1443 34.1579 90.2015C33.3985 90.2494 32.6302 90.2682 31.8715 90.1349C31.6173 90.0902 31.4671 89.949 31.367 89.7216C31.2209 89.3899 31.174 89.0331 31.1343 88.6865C30.969 87.2577 30.5202 85.8862 30.289 84.4739C29.9474 82.3849 29.3404 80.3531 28.971 78.2726C28.8176 77.4085 28.6802 76.5404 28.5809 75.6652C28.4061 74.1236 28.3767 72.5779 28.3084 71.0316C28.2488 69.6788 28.2456 68.3285 28.2663 66.9781C28.2854 65.7603 28.4117 64.5448 28.623 63.3403C28.7549 62.5867 28.8629 61.8292 28.9908 61.0749C29.1926 59.8829 29.5732 58.7325 29.8616 57.561C30.0824 56.6639 30.2826 55.7613 30.5932 54.8893C31.2185 53.1327 31.7786 51.3534 32.5261 49.64C32.6056 49.4573 32.6668 49.2667 32.7287 49.0777C33.0711 48.0363 33.431 47.002 33.8497 45.9865C34.1754 45.1961 34.3272 44.3499 34.5766 43.5344C35.008 42.1197 35.4227 40.7019 35.7874 39.2692C35.8803 38.9054 35.8819 38.5384 35.9328 38.1745C36.0932 37.0367 36.2235 35.8941 36.2188 34.7414C36.2164 34.1439 36.1441 33.5534 36.0686 32.9621C36.0575 32.8774 36.0551 32.7919 36.0543 32.7065C36.0424 31.5137 36.0305 30.3233 35.8978 29.1322C35.7762 28.0422 35.6348 26.9647 35.3012 25.9171C35.0763 25.2129 34.8348 24.5142 34.6132 23.8084C34.2938 22.7905 33.9808 21.7711 33.6749 20.7493C33.5264 20.2545 33.7297 19.9848 34.2708 19.9761C35.0795 19.962 35.8883 19.9722 36.697 19.9722V19.9691V19.9675Z" fill="#EA7C5B"/>
<path d="M32.9639 37.7431C33.1109 37.7329 33.2157 37.8059 33.2896 37.9188C34.0038 39.0096 35.1216 39.5711 36.2529 40.1137C37.0275 40.236 37.7505 40.5693 38.5433 40.6336C38.9819 40.6689 39.414 40.792 39.8478 40.8791C40.0933 40.9285 40.2808 41.0571 40.3269 41.3111C40.3706 41.5574 40.2546 41.7573 40.0647 41.9071C39.5793 42.2882 39.0756 42.6458 38.5346 42.9469C36.2847 44.1961 34.9468 46.0978 34.4019 48.5632C34.3566 48.7679 34.2628 48.9553 34.243 49.1717C34.2215 49.4117 34.0269 49.4752 33.7877 49.3842C33.6122 49.3176 33.5208 49.1796 33.4318 49.029C33.0672 48.415 32.6747 47.8206 32.1996 47.2803C31.4266 46.4012 30.5011 45.7049 29.5215 45.0713C29.257 44.9003 28.994 44.7286 28.7001 44.6015C28.3728 44.4596 28.3513 44.2142 28.6596 44.0377C29.8632 43.3484 30.5559 42.2326 31.2058 41.0877C31.7492 40.131 32.1782 39.1186 32.5873 38.0999C32.6596 37.9204 32.7383 37.7588 32.9639 37.7424V37.7431Z" fill="#FFDC7D"/>
<path d="M55.2872 58.9501C55.2872 59.7617 55.2872 60.5733 55.2872 61.3857C55.2872 61.4994 55.2959 61.6155 55.2769 61.7268C55.2228 62.0421 55.0449 62.1895 54.7128 62.1919C54.1638 62.1958 53.6149 62.1887 53.0667 62.1926C52.7505 62.195 52.4375 62.1879 52.1213 62.2577C51.8083 62.3267 51.4961 62.2115 51.1918 62.1291C51.079 62.0985 50.9884 62.0233 50.9638 61.8954C50.9368 61.7559 50.8732 61.6163 50.8812 61.4798C50.9153 60.8948 50.7827 60.32 50.785 59.7374C50.7882 58.8434 50.7112 57.9534 50.6222 57.0641C50.5936 56.7818 50.6095 56.4948 50.6134 56.2101C50.6158 56.0329 50.5451 55.9412 50.3584 55.9537C49.7086 55.9969 49.069 55.8573 48.4184 55.8588C47.2807 55.862 46.1454 55.7444 45.0054 55.7781C44.5692 55.7914 44.3873 55.5875 44.3746 55.1452C44.3667 54.8465 44.3579 54.5461 44.3738 54.2481C44.4167 53.4224 44.2904 52.6029 44.2872 51.7795C44.2856 51.3631 44.4572 51.164 44.8854 51.1773C45.8817 51.2079 46.87 51.051 47.8654 51.0801C48.5868 51.1012 49.3097 51.0793 50.0319 51.084C50.2345 51.0856 50.3258 51.0377 50.3656 50.8087C50.4363 50.3978 50.4331 49.9885 50.4347 49.5776C50.4387 48.6091 50.441 47.6407 50.441 46.6722C50.441 46.2887 50.4196 46.2652 50.0859 46.1335C49.1604 45.768 48.3032 45.2662 47.4094 44.8372C47.2442 44.758 47.098 44.6333 46.9542 44.5157C44.8489 42.7921 43.5396 40.6042 42.9692 37.9639C42.7078 36.7539 42.6634 35.5353 42.7452 34.3198C42.823 33.1624 43.2274 32.0779 43.8272 31.0694C44.1871 30.4633 44.6924 29.9747 45.1285 29.4313C45.8841 28.4895 46.8477 27.8018 47.863 27.1736C48.8267 26.5777 49.8865 26.2232 51.0059 26.0413C51.3737 25.9817 51.7423 25.9307 52.111 25.8743C52.1817 25.8633 52.2778 25.8703 52.3167 25.828C52.6083 25.512 52.9936 25.5904 53.3344 25.6312C53.8739 25.6962 54.4165 25.7378 54.9527 25.8499C55.9029 26.0476 56.8006 26.3855 57.6888 26.7565C58.2457 26.9894 58.8058 27.2168 59.3127 27.5524C59.8752 27.9249 60.3955 28.3538 60.8913 28.8039C61.3798 29.2478 61.735 29.8085 62.0766 30.3684C62.8512 31.638 63.3056 33.0142 63.5503 34.4751C63.6512 35.0774 63.6988 35.6827 63.7695 36.2858C63.8339 36.8339 63.6988 37.3852 63.6488 37.9349C63.5455 39.0743 63.1713 40.151 62.8162 41.2277C62.4929 42.2079 61.9495 43.0744 61.3258 43.9009C60.7038 44.7251 59.8831 45.3273 59.06 45.921C58.2219 46.5256 57.3154 47.0274 56.3438 47.4038C56.3033 47.4195 56.266 47.4446 56.2246 47.4548C55.6812 47.5889 55.713 47.5324 55.7337 48.1574C55.7623 49.0091 55.8338 49.8583 55.8179 50.7115C55.8131 50.9867 55.837 50.9805 56.1666 51.0032C57.7079 51.1075 59.2507 51.0793 60.7935 51.084C60.8078 51.084 60.8221 51.084 60.8372 51.084C61.4474 51.0871 61.6142 51.2455 61.6166 51.8337C61.619 52.4179 61.6094 53.0013 61.6198 53.5855C61.6277 54.067 61.5816 54.55 61.6921 55.0307C61.7326 55.2048 61.7175 55.397 61.6746 55.5812C61.5673 56.0423 61.3592 56.1874 60.8785 56.1129C60.7371 56.091 60.6029 56.0376 60.4551 56.04C59.1721 56.0604 57.893 55.9153 56.6084 55.9475C56.2318 55.9569 55.8679 56.0557 55.4914 56.0416C55.3086 56.0345 55.292 56.1686 55.292 56.3058C55.292 56.7755 55.292 57.246 55.2912 57.7158C55.2912 58.129 55.2912 58.5415 55.2912 58.9548L55.2872 58.9501ZM58.8463 36.4073C59.0005 33.3984 56.3351 30.8679 53.3773 30.8161C50.2265 30.7605 47.6072 33.2306 47.5786 36.3901C47.5516 39.377 50.1598 41.924 53.1612 41.9632C56.1889 42.0032 59.0076 39.4225 58.8463 36.4073Z" fill="#FFF5F2"/>
<path d="M53.5998 89.0233C54.5531 89.0641 55.5112 88.9284 56.4598 89.1072C56.5154 89.1174 56.575 89.1111 56.633 89.108C57.8048 89.057 58.9758 89.1543 60.1421 89.2139C62.67 89.344 65.1972 89.3723 67.7267 89.3605C68.8532 89.3558 69.9813 89.2656 71.1063 89.2923C71.9873 89.3135 72.8708 89.2813 73.7502 89.3621C74.0839 89.3927 74.2777 89.3103 74.3286 88.8963C74.4525 87.8996 74.5582 86.9005 74.6726 85.9031C74.7878 84.9032 74.93 83.9042 75.0754 82.9067C75.2676 81.5791 75.5195 80.2617 75.7077 78.9341C75.8929 77.6253 76.0796 76.3189 76.1876 75.0007C76.2353 74.4164 76.267 73.8307 76.3004 73.2465C76.4243 71.0766 76.279 68.9131 76.1439 66.748C76.0335 64.9695 75.7014 63.2325 75.3677 61.4877C74.9769 59.4394 74.5757 57.3967 74.0561 55.3758C73.5103 53.2546 72.6896 51.2268 71.9293 49.1777C70.8306 46.2174 70.0004 43.1858 69.5118 40.0703C69.31 38.785 69.171 37.4864 69.2489 36.1815C69.3045 35.2531 69.395 34.327 69.4864 33.4009C69.5587 32.6708 69.6215 31.9431 69.7621 31.2216C69.9281 30.3677 70.1093 29.516 70.2348 28.6558C70.5112 26.7612 71.123 24.9482 71.5965 23.1023C71.8507 22.1103 72.3425 21.192 72.7095 20.2345C72.9828 19.5225 72.6428 19.2927 72.0604 19.3029C69.8781 19.3406 67.6997 19.1625 65.5165 19.2041C64.6935 19.2198 63.8657 19.1594 63.0474 19.1876C62.1361 19.2182 61.2265 19.0935 60.3153 19.201C60.0038 19.2378 59.6805 19.1673 59.3627 19.1688C57.514 19.1782 55.6629 19.1531 53.8166 19.2214C52.0545 19.2864 50.2909 19.408 48.5296 19.3625C46.6086 19.3123 44.6836 19.2841 42.765 19.1304C42.2486 19.0888 41.7251 19.1288 41.2055 19.1233C40.2808 19.1131 39.3568 19.0873 38.4321 19.0833C36.8289 19.0763 35.2257 19.0833 33.6217 19.0802C33.1792 19.0794 32.7406 19.1155 32.3243 19.2598C32.1575 19.3178 32.0646 19.1908 31.9319 19.1884" stroke="#4C4C4C" stroke-linecap="round" stroke-linejoin="round"/>
<path d="M54.596 55.1202C56.2564 55.2017 57.9208 55.1257 59.5796 55.2504C59.8402 55.27 60.0952 55.2049 60.3613 55.2378C60.6291 55.2715 60.8015 55.1382 60.7975 54.8206C60.7856 53.7377 60.7903 52.6547 60.7959 51.5718C60.7959 51.4447 60.7864 51.3201 60.8269 51.1844C60.9325 50.8323 60.753 50.6198 60.3597 50.6347C58.7399 50.6951 57.1255 50.4637 55.5064 50.5508C55.1362 50.5704 55.0012 50.4089 54.9853 50.0756C54.9456 49.2349 54.8979 48.3943 54.8574 47.5529C54.8335 47.0667 54.8852 47.022 55.3762 46.8667C57.7023 46.1312 59.7297 44.9682 61.0946 42.8917C62.0337 41.4622 62.5358 39.8774 62.6938 38.1898C62.7661 37.4244 62.7971 36.656 62.7542 35.8812C62.6494 34.0109 62.1171 32.2936 61.1041 30.7041C60.3161 29.4666 59.2491 28.568 57.9843 27.8324C56.7784 27.1313 55.5072 26.6161 54.1622 26.2703C53.8008 26.177 53.4202 26.1331 53.0381 26.1307C52.041 26.1252 51.0464 26.0108 50.047 26.1707C48.2356 26.4601 46.6586 27.2027 45.3255 28.4433C44.1966 29.4941 43.2735 30.6797 42.6713 32.1148C41.9444 33.8462 41.6886 35.6036 41.9793 37.4644C42.4711 40.6082 43.9353 43.1787 46.5013 45.1078C47.3848 45.772 48.3921 46.2457 49.4432 46.6079C49.7705 46.7209 49.8778 46.9318 49.8786 47.2533C49.8793 48.2375 49.8476 49.2216 49.9532 50.2042C49.9763 50.4167 49.8452 50.5602 49.5735 50.5978C48.9824 50.6802 48.3874 50.7335 47.7955 50.75C46.6261 50.7813 45.4558 50.7586 44.2856 50.7594C44.1259 50.7594 43.9639 50.7429 43.8177 50.8009C43.6111 51.1656 43.7629 51.5436 43.7716 51.9129C43.7907 52.683 43.9138 53.4491 43.8955 54.2215C43.8868 54.5768 44.002 54.8026 44.4159 54.8253C45.1532 54.8653 45.8888 54.9555 46.6261 54.9861C47.6382 55.0277 48.6448 55.1625 49.6593 55.161C49.9953 55.161 50.0732 55.3562 50.0486 55.6323C49.9866 56.3168 50.0065 56.9991 50.0446 57.6844C50.0954 58.5957 50.1042 59.5084 50.1375 60.4204C50.1598 61.0345 50.271 61.1976 50.8732 61.2227C51.9123 61.2658 52.9507 61.356 53.993 61.323C54.3418 61.3121 54.3863 61.1246 54.3855 60.8478C54.3807 59.0952 54.3823 57.3418 54.3839 55.5891C54.3839 55.4135 54.3322 55.2159 54.5563 55.1186" stroke="#4C4C4C" stroke-linecap="round" stroke-linejoin="round"/>
<path d="M32.1925 19.3359C32.1734 19.6433 32.3196 19.9092 32.4054 20.1923C33.0163 22.199 33.5454 24.2284 34.0547 26.2626C34.4137 27.6984 34.6505 29.1593 34.8229 30.6242C35.0175 32.2827 35.1272 33.9499 35.1009 35.6249C35.0763 37.2113 34.8308 38.7608 34.3955 40.2829C34.3391 40.4805 34.1992 40.6554 34.0984 40.8404" stroke="#4C4C4C" stroke-linecap="round" stroke-linejoin="round"/>
<path d="M42.2463 62.7734C42.2288 62.9946 42.2979 63.1781 42.4123 63.3765C42.8794 64.1857 43.3386 65.0021 43.9408 65.7196C45.0983 67.0982 46.4886 68.2219 48.014 69.1802C48.5796 69.5354 49.1588 69.8773 49.7832 70.1345" stroke="#4C4C4C" stroke-linecap="round" stroke-linejoin="round"/>
<path d="M34.2294 41.2266C33.8322 42.1174 33.6598 43.0741 33.4135 44.0073C33.2697 44.5523 33.2014 45.1169 33.1045 45.6728C33.0902 45.756 33.0687 45.8634 33.1077 45.9261C33.4977 46.5566 33.1379 47.213 33.1863 47.8536C33.2046 48.0952 33.1704 48.3406 33.2324 48.5806" stroke="#4C4C4C" stroke-linecap="round" stroke-linejoin="round"/>
<path d="M37.783 42.123C37.4891 42.1677 37.2634 42.2932 37.0831 42.5465C36.832 42.901 36.4094 43.0695 36.0837 43.3526C35.2026 44.1203 34.3462 44.8935 33.8338 45.9679L33.2332 48.5784" stroke="#4C4C4C" stroke-linecap="round" stroke-linejoin="round"/>
<path d="M62.4833 63.2019C62.504 63.387 62.4428 63.5297 62.3141 63.6756C61.2734 64.8557 60.258 66.0555 59.0656 67.0977C57.9454 68.0764 56.7251 68.9068 55.4167 69.6079C54.3918 70.1568 53.3201 70.6132 52.2126 70.9802C51.8702 71.0939 51.7177 71.2868 51.7272 71.6663C51.7455 72.3784 51.6978 73.0912 51.6947 73.804C51.6764 78.5781 51.7463 83.3529 51.6065 88.1262C51.6041 88.1976 51.6271 88.2775 51.6017 88.3379C51.5453 88.4736 51.508 88.6547 51.303 88.6359C50.9781 88.6069 50.6674 88.7033 50.3496 88.7222C49.6569 88.7629 48.9609 88.7653 48.269 88.7865C46.2034 88.85 44.1394 88.9731 42.0731 88.9723C40.1378 88.9715 38.2025 89.0327 36.2656 88.908C34.7228 88.8092 33.1744 88.9245 31.63 88.9872C31.4584 88.9943 31.2796 88.999 31.1104 89.028C30.6226 89.1119 30.4486 89.0013 30.4216 88.5104C30.4081 88.2642 30.3628 88.0188 30.3168 87.7866C29.7463 84.926 28.9733 82.1123 28.3004 79.2744C28.0796 78.3444 27.9191 77.3987 27.7817 76.4529C27.6641 75.6452 27.5839 74.8313 27.4988 74.0189C27.3614 72.6952 27.2708 71.3699 27.2057 70.0415C27.1445 68.8009 27.1326 67.5588 27.2224 66.3229C27.3249 64.9067 27.5846 63.5109 27.9374 62.1299C28.2305 60.9819 28.5539 59.8441 28.9042 58.7133C29.3801 57.1794 29.8115 55.6307 30.4153 54.1368C30.9031 52.93 31.4671 51.7498 31.8405 50.5014C32.1527 49.4576 32.0598 48.417 31.3567 47.5639C30.4057 46.4111 29.1823 45.5713 27.769 45.0435L27.0802 44.6459C27.2097 44.4711 27.3392 44.3244 27.5481 44.2037C28.0907 43.8916 28.6111 43.5402 29.0774 43.1113C30.5638 41.7437 31.4361 39.4751 31.8032 37.6777L32.1909 38.7905C32.6882 40.0013 33.6741 40.7415 34.7498 41.3979C35.298 41.7319 35.8954 41.9437 36.5278 42.0291L37.783 42.124" stroke="#4C4C4C" stroke-linecap="round" stroke-linejoin="round"/>
<path d="M51.736 30.5809C51.1457 30.6914 50.553 30.8044 50.0033 31.0529C48.1363 31.8975 46.9168 33.2941 46.5021 35.2851C46.0406 37.5028 46.6856 39.4217 48.3627 40.961C49.2779 41.8009 50.383 42.2769 51.6478 42.4321C53.6879 42.6823 55.3984 42.0346 56.795 40.616C57.8636 39.5315 58.3681 38.1984 58.4268 36.6512C58.5341 33.8274 56.4685 31.3094 53.73 30.704C53.0818 30.5605 52.4319 30.584 51.7789 30.5801" stroke="#4C4C4C" stroke-linecap="round" stroke-linejoin="round"/>
</g>
</g>
<defs>
<clipPath id="clip0_2544_1579">
<rect width="100" height="100" fill="white" transform="translate(0.666687)"/>
</clipPath>
<clipPath id="clip1_2544_1579">
<rect width="50.4" height="72" fill="white" transform="translate(26.9999 19)"/>
</clipPath>
</defs>
</svg>
