<svg width="101" height="100" viewBox="0 0 101 100" fill="none" xmlns="http://www.w3.org/2000/svg">
<g clip-path="url(#clip0_49_4022)">
<path d="M52.8193 0.0829447C57.1907 -0.143637 61.2968 0.585846 65.2095 2.19955C67.6908 3.22193 70.0727 4.44326 72.1948 6.18408C74.958 8.45542 77.0138 11.3181 79.1802 14.0813C82.2031 17.9442 84.8171 22.089 86.9171 26.5267C88.3098 29.4778 89.5366 32.5007 90.9072 35.4629C91.924 37.6679 92.9906 39.8453 93.9412 42.078C95.1901 45.018 95.9472 48.0741 96.4115 51.2241C97.1354 56.1703 96.417 60.9561 94.9967 65.6922C93.6317 70.2349 91.2996 74.2416 88.4037 77.9719C86.6629 80.2156 84.7508 82.288 82.6563 84.178C80.8657 85.8028 78.8541 87.1733 76.8259 88.4996C74.8696 89.7818 72.8414 90.9534 70.7635 92.0199C67.1492 93.8768 63.4134 95.5734 59.346 96.0266C52.4214 96.8003 45.9168 95.5016 40.2523 91.202C37.268 88.9362 34.4275 86.477 31.8909 83.7027C31.0564 82.7909 30.4374 81.7077 29.7964 80.6577C27.9119 77.574 25.9224 74.5676 23.6731 71.727C22.2252 69.8978 20.9652 67.9359 20.1362 65.7088C19.6941 64.5151 18.7989 63.5369 18.0749 62.4814C15.7593 59.1103 13.9743 55.4795 12.7309 51.5944C11.8964 48.9915 11.3051 46.3443 11.1946 43.5867C11.1503 42.5367 10.8961 41.4922 10.979 40.4311C11.2388 37.0103 11.5593 33.6115 12.5098 30.2847C13.9412 25.2722 16.5054 20.9009 19.7383 16.8776C21.8439 14.2581 24.2976 11.9868 26.8177 9.77071C29.4206 7.48278 32.2888 5.59828 35.367 4.05642C39.0089 2.23824 42.8386 0.889797 46.8895 0.375843C48.89 0.121629 50.9182 -0.143637 52.8304 0.0829447H52.8193Z" fill="#ECEAD0"/>
<path d="M52.8801 27.1345C51.83 27.5877 50.8574 28.1348 50.0561 28.9914C48.8458 30.2845 47.326 31.0914 45.5742 31.3567C45.0049 31.4451 44.7065 31.6993 44.502 32.1856C44.0268 33.3296 43.6234 34.4957 43.3249 35.6949C42.9602 37.1704 42.0096 38.0491 40.5728 38.4415C40.0423 38.5852 39.5283 38.5576 39.0143 38.3641C38.0528 38.0049 37.9422 37.7839 38.2572 36.8057C38.8209 35.0815 38.9701 33.2688 39.3515 31.5059C39.3846 31.3511 39.4012 31.1632 39.1304 31.014C38.7601 31.3954 38.7104 32.0475 37.9643 32.2354C36.8867 32.5062 36.0522 32.2685 35.273 31.6164C34.1898 30.7156 34.1401 30.1353 35.0961 29.1351C37.0193 27.1235 38.9149 25.0842 40.9099 23.15C42.3965 21.7076 43.9881 20.3702 45.5907 19.0549C46.8287 18.0325 48.2489 17.3252 49.835 16.9881C53.0735 16.2917 56.2125 15.2472 59.3238 14.142C61.667 13.3075 64.0157 13.523 66.3644 14.0314C69.0779 14.6172 71.7637 15.3191 74.5214 15.6562C75.9693 15.833 77.4504 15.8551 78.8817 15.6562C80.5452 15.4296 82.2196 15.402 83.8886 15.2804C87.8952 14.9875 91.8743 14.5675 95.7593 13.5341C96.7541 13.2688 97.268 13.8214 97.7764 14.4238C98.9757 15.833 99.6554 17.5241 100.042 19.2981C100.49 21.365 100.761 23.465 100.634 25.5982C100.606 26.09 100.529 26.5598 100.379 27.024C100.053 28.0408 99.4122 28.6322 98.2904 28.7593C96.4998 28.9582 94.7038 29.1903 92.9353 29.5274C89.9732 30.0911 87.1547 31.108 84.4965 32.5448C83.6731 32.9925 82.927 33.5783 82.3191 34.2525C80.1749 36.6288 77.4227 37.9662 74.5159 39.0826C73.5266 39.4639 72.5374 39.8397 71.5592 40.2486C69.9179 40.9394 68.4424 41.89 67.0829 43.0395C65.4084 44.4542 63.5018 45.4213 61.3852 46.0292C59.2188 46.6537 57.0856 47.3942 55.1735 48.6156C54.5711 48.9969 54.2119 48.8643 53.8582 48.3393C53.5101 47.8198 53.2337 47.2782 53.1398 46.6482C53.0569 46.079 52.8303 45.6976 52.145 45.6424C51.3658 45.5816 50.9956 44.9129 50.8961 44.2663C50.6253 42.531 50.0561 40.8289 50.255 39.0383C50.3379 38.2923 50.4816 37.5628 50.5313 36.8112C50.664 34.877 50.8298 32.9483 51.0895 31.0306C51.2498 29.8535 51.5924 28.6929 52.5485 27.8419C52.7474 27.665 52.9022 27.444 52.8966 27.1566C53.0514 27.1345 53.1398 27.0461 53.1564 26.8913C53.2448 26.8471 53.4106 26.8416 53.2393 26.6924C53.2061 26.7532 53.1674 26.814 53.1343 26.8748C52.974 26.8858 52.8856 26.9742 52.8635 27.1345H52.8801ZM55.0409 41.8071C56.008 41.1273 56.754 40.5968 57.5001 40.0773C59.2686 38.8394 61.0536 37.6346 62.7944 36.3581C64.1484 35.3633 64.9055 34.0425 64.8281 32.2906C64.7673 30.9256 64.8005 29.5606 64.7839 28.19C64.7839 27.9469 64.8723 27.6429 64.4578 27.5269C63.8223 27.864 63.2476 28.3337 62.7225 28.8643C61.4791 30.1132 60.2909 31.423 58.9922 32.6112C56.5662 34.8162 55.7427 37.7673 55.0519 40.7902C54.9967 41.0389 55.0464 41.3097 55.0464 41.8126L55.0409 41.8071ZM57.2293 21.9121C55.7206 22.9676 54.5545 24.2995 53.8416 26.0016C55.1901 24.8245 56.4169 23.5424 57.2293 21.9121ZM57.8427 21.4534L57.7709 21.4036L57.7599 21.4755L57.8427 21.4534Z" fill="#EFB8A3"/>
<path d="M57.8483 21.4534L57.7654 21.4755L57.7764 21.4092L57.8483 21.4534Z" fill="#A8BE8D"/>
<path d="M53.1454 26.8694C53.1785 26.8086 53.2172 26.7478 53.2504 26.687C53.4217 26.8362 53.2504 26.8473 53.1675 26.886L53.1454 26.8639V26.8694Z" fill="#A8BE8D"/>
<path d="M53.1675 26.8912C53.1454 27.046 53.0625 27.1399 52.9078 27.1565C52.9078 27.1565 52.8857 27.1344 52.8801 27.1289C52.9022 26.9686 52.9851 26.8802 53.1454 26.8691L53.162 26.8857L53.1675 26.8912Z" fill="#A8BE8D"/>
<path d="M37.9919 61.3593C39.2741 59.2151 41.4293 58.9664 43.1923 60.8232C44.3418 62.0335 45.0049 63.5367 45.4249 65.1283C46.0328 67.4328 46.5026 69.7705 47.2542 72.0363C47.5858 73.031 48.1108 73.86 48.9231 74.5287C50.5811 75.8826 53.2061 75.7555 54.7148 74.2192C55.179 73.7495 55.5935 73.23 56.0798 72.7823C56.3948 72.4894 56.3561 72.1523 56.3561 71.8097C56.3561 68.1015 54.8143 65.073 52.25 62.5088C49.636 59.8948 46.3644 58.5298 42.8496 57.6179C39.3514 56.7116 35.7814 56.054 32.3771 54.7829C30.0339 53.9097 27.9118 52.6994 26.1213 50.9144C24.4689 49.2731 24.0047 47.3112 24.3362 45.0841C24.3639 44.9072 24.4357 44.7414 24.4523 44.5701C24.7618 41.6301 26.486 40.768 29.1221 40.1766C30.4705 39.8727 31.8466 40.1103 33.1232 40.7293C34.8474 41.5638 36.3948 42.6525 37.7598 43.9954C38.8651 45.0786 39.9483 46.1728 41.1475 47.162C42.5402 48.306 44.1041 48.8586 45.8891 48.9083C47.3702 48.9525 48.68 48.6486 49.7134 47.4881C50.0616 47.0957 50.5147 46.7973 50.9292 46.4657C51.1447 46.2944 51.3879 46.1562 51.6311 46.3994C51.8687 46.6315 51.7582 46.8912 51.62 47.1233C51.0342 48.1015 50.2108 48.8641 49.1829 49.3007C46.6628 50.3673 44.1815 50.1518 41.8107 48.8089C40.8491 48.2618 40.0312 47.5212 39.2077 46.7752C37.5111 45.2333 35.9527 43.5312 33.9632 42.3264C32.1395 41.2211 30.2384 40.7127 28.1494 41.4146C26.7126 41.8954 25.7234 42.7962 25.4581 44.3822C24.9497 47.4052 25.6128 49.0686 27.8455 50.5994C30.7082 52.5613 33.825 53.9981 37.2459 54.7332C39.3127 55.1753 41.3686 55.7113 43.4354 56.1479C46.7844 56.8553 49.4758 58.7895 52.1229 60.7956C54.129 62.3154 55.5216 64.2662 56.7264 66.5044C58.0914 69.041 58.108 71.456 57.1519 73.9926C55.9803 77.0874 52.1616 78.3474 49.3321 76.6508C47.5857 75.6008 46.4528 74.1031 45.762 72.2021C44.9994 70.1186 44.6015 67.9467 44.1594 65.7859C43.9328 64.6972 43.5902 63.6583 43.2641 62.6027C43.0983 62.0777 42.7778 61.6688 42.3909 61.2985C41.8162 60.7569 41.1751 60.3701 40.3628 60.5856C39.4841 60.8177 39.1635 61.5417 38.9314 62.3375C38.8098 62.763 38.9314 63.0891 39.1083 63.4648C40.2356 65.8688 41.0591 68.3833 41.7775 70.9365C42.6783 74.1474 42.5733 77.2919 41.3409 80.3977C40.1749 83.3322 38.6717 86.0567 36.5496 88.4331C34.6651 90.5497 32.3219 91.9092 29.6913 92.7768C22.8607 95.0426 16.3948 94.1916 10.5424 90.0026C4.87782 85.9462 2.10909 80.254 2.57331 73.3239C3.04305 66.333 6.70705 61.1548 12.764 57.6953C15.8201 55.949 19.1746 55.1034 22.6562 55.0924C27.5636 55.0813 32.0455 56.5458 35.914 59.6682C36.2567 59.9445 36.5938 60.2319 36.9364 60.5082C37.279 60.7901 37.6217 61.0664 37.9919 61.3648V61.3593Z" fill="#EA7C5B"/>
<path d="M65.0878 58.3368C65.1818 60.7352 64.712 63.62 63.6509 66.4329C62.6451 69.0967 62.0262 71.8377 62.3854 74.728C62.4628 75.3581 62.6065 75.9107 62.9491 76.4578C63.5349 77.3918 64.0378 78.3755 64.5628 79.3426C65.6018 81.2658 67.4586 82.2605 69.1829 83.399C69.321 83.4874 69.5255 83.5758 69.6692 83.5426C70.8408 83.2774 71.9571 83.6918 73.0292 83.9737C74.4053 84.3329 75.7482 84.2887 77.0911 84.134C78.6606 83.9516 80.2412 83.7471 81.7609 83.2442C82.4351 83.0176 83.0928 82.791 83.6896 82.4042C83.9549 82.2329 84.2202 82.0063 84.502 82.3268C84.8225 82.6916 84.5683 82.99 84.3196 83.2442C83.3138 84.2666 82.192 85.1287 80.7662 85.4382C76.5772 86.3556 72.4434 86.3003 68.4257 84.5982C67.6134 84.2555 66.7512 84.0566 65.9941 83.5703C63.1038 81.7245 61.5067 79.0442 60.838 75.7394C60.313 73.1586 60.6501 70.6496 61.4625 68.1793C62.1643 66.0461 63.0762 63.9737 63.3746 61.7189C63.7836 58.5965 63.9162 55.4852 62.9933 52.4125C62.5346 50.8927 61.678 49.6217 60.6391 48.4666C59.7659 47.494 59.0254 46.3279 57.5332 46.1732C57.3067 46.1511 57.1409 45.9521 57.1961 45.6924C57.2624 45.3884 57.5056 45.2448 57.7819 45.2724C59.2022 45.4161 60.523 45.7698 61.6725 46.7314C63.6786 48.4169 64.3417 50.6993 64.7949 53.1254C65.0823 54.6562 65.0602 56.1981 65.0878 58.3368Z" fill="#EA7C5B"/>
<path d="M7.85103 60.5417C7.58577 59.8067 8.04446 59.3922 8.51973 58.9667C11.1282 56.6567 14.2119 55.2917 17.5554 54.4517C18.843 54.1256 20.1583 54.0151 21.4902 53.993C22.5678 53.9764 23.242 54.4295 23.7062 55.3359C24.5297 56.9551 25.1818 58.6351 25.6626 60.387C26.1765 62.266 26.5468 64.1726 26.8121 66.0958C27.0387 67.7371 26.895 67.925 25.2702 68.45C25.121 68.4997 24.8999 68.461 24.8281 68.7926C25.3476 69.0192 25.8947 68.8755 26.4307 68.8589C27.3813 68.8313 27.6631 68.9971 27.84 69.699C28.0721 70.6163 27.8179 71.4398 27.1437 71.7879C26.8342 71.9482 26.486 72.0477 26.1434 72.1195C21.8273 73.048 17.7101 72.6058 13.8748 70.3124C11.4708 68.8755 9.23816 67.2342 7.53603 64.9628C7.38682 64.7639 7.28182 64.4434 6.95576 64.5152C6.6076 64.5981 6.5247 64.9352 6.46944 65.2336C6.37549 65.7034 6.59102 66.0958 6.8397 66.4715C7.45866 67.4 8.22683 68.2013 9.12763 68.8424C12.4711 71.2242 16.0356 73.1032 20.1749 73.678C21.8494 73.9101 23.5239 73.8935 25.1984 73.8051C25.4636 73.7885 25.7234 73.7498 25.9886 73.7332C27.3371 73.6448 27.4366 73.7056 27.9339 74.9269C28.365 74.8606 28.3097 74.4572 28.3374 74.2195C28.6855 71.3679 29.006 68.4997 28.4313 65.6481C27.9947 63.4818 27.3205 61.3817 26.3423 59.3812C25.856 58.392 25.4249 57.3751 24.9331 56.3859C24.712 55.9438 24.6678 55.5625 24.9663 55.1535C25.2757 54.7335 25.7013 54.7114 26.1544 54.7888C26.2815 54.8109 26.4086 54.8606 26.5358 54.9048C30.5755 56.2809 34.2837 58.1433 36.7596 61.8239C36.8977 62.0283 36.9917 62.3102 37.3343 62.3654C37.6217 62.1499 37.4614 61.8183 37.4891 61.5475C37.6659 59.873 38.5722 59.0275 40.2744 58.9778C42.4296 58.917 44.3252 60.1217 45.1984 62.1389C45.9444 63.8576 46.2373 65.6868 46.5136 67.5271C46.6684 68.5716 46.8231 69.6216 47.0331 70.6605C47.2431 71.6774 47.746 72.5451 48.4755 73.2966C51.0674 75.9769 55.0795 75.159 56.3782 71.6442C57.2238 69.3618 56.7761 67.1955 55.5493 65.1784C53.5101 61.8239 50.5811 59.4917 47.0165 57.8946C44.7452 56.8777 42.3744 56.2146 39.9262 55.8001C37.0469 55.3138 34.2451 54.529 31.5371 53.4237C29.6803 52.6666 28.0113 51.5779 26.5523 50.2074C24.4081 48.1903 23.966 45.6205 24.5241 42.9015C24.8889 41.1109 26.3092 40.1162 28.0002 39.5801C30.1445 38.9004 32.1837 39.2375 34.129 40.3262C35.7703 41.2436 37.0912 42.5478 38.4009 43.8631C39.7438 45.2171 41.1254 46.5102 42.8994 47.3005C43.8333 47.715 44.7728 48.0853 45.7952 48.2068C47.5637 48.4224 48.8568 47.6155 49.9013 46.2781C50.2219 45.8692 50.1169 45.4657 49.9676 45.0292C49.5918 43.946 49.2382 42.8518 48.8679 41.7686C48.6634 41.1717 48.575 40.5638 48.7187 39.9449C49.3542 37.2701 49.719 34.5567 49.5808 31.81C49.4979 30.13 50.1058 28.8092 51.2055 27.6321C51.3879 27.4387 51.5371 27.2176 51.6974 27.0131C51.7748 26.8916 51.9516 26.7866 51.8245 26.6097C51.6919 26.4273 51.5537 26.5655 51.4211 26.6373C50.5037 26.8418 49.9124 27.5105 49.3045 28.1516C48.7905 28.6987 48.3208 29.2845 47.7405 29.7708C46.895 30.4727 45.9776 30.97 44.8447 30.8374C44.1373 30.7545 43.8665 31.1358 43.5902 31.7106C42.8275 33.3077 42.1257 34.9103 41.6615 36.629C41.2802 38.0549 40.2357 38.6738 38.8762 38.5246C37.9035 38.4196 37.3454 37.9167 37.2348 36.9275C37.1409 36.093 37.1962 35.2585 37.373 34.424C37.583 33.4514 37.9035 32.4898 37.9312 31.5006C37.5112 31.2574 37.174 31.4785 36.8369 31.5116C35.8753 31.6221 34.9801 31.4232 34.1953 30.865C33.2061 30.1576 33.0735 29.2568 33.9577 28.4334C37.7985 24.8413 41.1309 20.7296 45.2702 17.4525C46.79 16.2477 48.5087 15.4353 50.4208 15.1922C52.5816 14.9159 54.6706 14.4074 56.7209 13.6945C57.7212 13.3464 58.7601 13.1143 59.7549 12.7606C61.1917 12.2466 62.6175 12.3572 64.0655 12.6666C66.0992 13.1032 68.05 13.8272 70.0561 14.3522C76.0909 15.9383 82.1257 15.7172 88.1605 14.308C90.3932 13.783 92.6645 13.4237 94.853 12.7108C95.2509 12.5782 95.8422 12.3185 96.0024 12.8711C96.1793 13.479 95.483 13.4624 95.1072 13.5785C91.1227 14.7722 87.0718 15.7227 82.9491 16.1704C78.0362 16.7064 73.1564 16.3417 68.4037 14.7998C66.5192 14.1864 64.6347 13.5398 62.6452 13.2856C61.8328 13.1806 61.0702 13.2303 60.2965 13.479C58.4064 14.098 56.5109 14.6893 54.6209 15.2917C53.5211 15.6454 52.3937 15.8498 51.2498 15.9825C48.0002 16.3638 45.4747 17.7785 44.0986 20.9009C43.0265 23.327 41.6836 25.615 40.3959 27.9305C40.208 28.2676 39.9151 28.5771 39.9759 29.0026C40.1804 29.2513 40.3794 29.0855 40.5672 29.0026C41.5399 28.5882 42.5402 28.6987 43.3691 29.2237C44.0212 29.6382 44.2699 29.4226 44.6181 28.9474C45.0823 28.3063 45.6239 27.715 45.9831 26.9966C46.3147 26.3334 46.6573 25.8415 45.8394 25.0955C45.0436 24.366 45.1486 23.1391 45.3807 22.0725C45.4913 21.5752 45.9113 21.4702 46.2815 21.8349C46.8673 22.4097 47.21 23.1391 47.2984 23.946C47.3702 24.6257 47.641 24.8744 48.3208 24.7915C51.3824 24.4213 54.3445 23.8244 56.7319 21.6525C57.0027 21.4094 57.3177 20.8512 57.688 21.1828C58.1854 21.6194 57.5775 21.9675 57.3122 22.2439C55.6322 24.0013 53.9577 25.7642 52.3882 27.621C52.2721 27.7537 52.1671 27.8974 52.04 28.0245C50.8684 29.174 50.3434 30.5445 50.4429 32.2024C50.5976 34.7832 50.139 37.3088 49.6084 39.8178C49.5034 40.3041 49.4261 40.7738 49.5863 41.2546C50.0561 42.6749 50.4098 44.1394 51.0619 45.5542C51.9682 45.311 52.4656 44.6755 52.8248 43.9018C53.3498 42.7578 53.4658 41.5254 53.6261 40.2986C53.7035 39.7017 53.5266 39.3812 52.8635 39.3867C52.2832 39.3867 51.7195 39.2486 51.2442 38.8893C50.99 38.7014 50.7469 38.4693 50.8242 38.1267C50.9016 37.7951 51.1945 37.6293 51.5095 37.5741C52.2279 37.4359 52.9132 37.5464 53.5543 37.9167C53.7035 38.0051 53.8748 38.0604 54.0848 38.1599C54.5545 37.1375 54.7535 36.0598 55.0795 35.0264C55.2232 34.5567 54.958 34.3964 54.6153 34.2361C53.9577 33.9211 53.4603 33.4237 53.0735 32.8214C52.8469 32.4732 52.67 32.0753 53.0182 31.7382C53.3222 31.4398 53.7145 31.4232 54.129 31.5945C54.5103 31.7548 54.8088 32.0035 55.0574 32.3185C55.3282 32.6611 55.5935 33.0148 55.8809 33.3906C56.6104 33.0369 57.0414 32.4179 57.5112 31.8487C57.9643 31.3071 58.3622 30.7213 58.8264 30.1853C59.5614 29.3397 60.0422 28.5329 59.2409 27.4055C58.832 26.8363 58.8596 26.046 59.0585 25.3442C59.1857 24.9021 59.4675 24.5318 59.9925 24.5484C60.4678 24.5594 60.6501 24.9463 60.7883 25.3276C61.037 25.9963 60.9154 26.7202 61.0149 27.4608C61.6836 27.3392 61.9654 26.7866 62.3689 26.4108C62.8552 25.9576 63.3194 25.4823 63.9162 25.1728C64.3584 24.9407 64.6236 25.1673 64.6126 25.6039C64.607 25.9465 64.5076 26.3113 64.3584 26.6208C63.756 27.9084 63.767 29.1629 64.4026 30.4395C64.6347 30.9092 64.7507 31.4398 64.9055 31.9427C65.2978 33.1972 64.9884 34.2969 64.1207 35.253C63.1923 36.2809 62.0594 37.0546 60.8823 37.7564C58.832 38.9722 56.8204 40.2599 54.8143 41.5531C54.4053 41.8183 54.2064 42.0946 54.0903 42.5533C53.8914 43.3491 53.5985 44.1173 53.3332 44.9242C53.7643 45.0844 54.0682 44.8413 54.3887 44.7528C55.1293 44.5428 55.8919 44.4655 56.5883 44.8247C57.2127 45.1507 57.7488 45.0236 58.3512 44.8081C58.8872 44.6147 59.4564 44.482 60.0201 44.4213C61.7831 44.2278 63.3415 43.5481 64.7563 42.5091C65.8228 41.7244 66.8894 40.9286 67.9118 40.0886C69.1221 39.0938 70.454 38.3478 71.924 37.8117C73.3774 37.2867 74.8253 36.7506 76.2677 36.198C78.318 35.4132 80.1251 34.2693 81.5952 32.6003C82.8718 31.1413 84.5076 30.1576 86.2815 29.4392C90.2716 27.8145 94.4495 26.9026 98.7049 26.3058C99.0475 26.256 99.4067 26.151 99.7493 26.3279C99.9096 26.4108 100.042 26.5323 100.042 26.7313C100.042 26.9358 99.9096 27.0629 99.7328 27.096C99.5172 27.1402 99.2907 27.1292 99.0751 27.1623C95.168 27.6708 91.3437 28.5605 87.6134 29.8426C85.3199 30.6274 83.3249 31.8819 81.7112 33.7387C80.5009 35.1314 78.9093 36.0267 77.2127 36.7064C75.4111 37.4304 73.5874 38.1046 71.7692 38.7733C70.6363 39.1878 69.6139 39.7791 68.6745 40.5362C68.0223 41.0612 67.3481 41.5641 66.6905 42.0891C64.7507 43.631 62.6949 44.9407 59.9151 45.2889C64.1097 47.096 65.0823 50.6329 65.5797 54.413C66.1378 58.6628 65.3034 62.7689 64.1539 66.8308C63.662 68.5716 63.1481 70.2958 62.8939 72.1029C62.2141 76.9993 65.8671 82.686 71.9129 83.3989C75.7096 83.8465 79.4012 83.3878 83.021 82.2218C83.7283 81.9952 84.4136 81.7023 85.2536 81.5917C85.132 82.2991 84.701 82.6141 84.1594 82.8075C79.882 84.3384 75.4995 84.9739 70.9955 84.1781C65.1542 83.1447 61.1973 77.5851 62.0096 71.7216C62.2252 70.1853 62.6452 68.6987 63.0818 67.2176C64.2036 63.432 65.0713 59.6078 64.806 55.6122C64.6734 53.6172 64.3528 51.6553 63.5018 49.8261C62.6894 48.0797 61.5123 46.7147 59.567 46.1565C58.5888 45.8747 57.6714 45.8802 56.754 46.3776C55.903 46.8418 55.0298 47.2839 54.1401 47.6597C52.4324 48.3781 52.1174 48.1903 51.7748 46.3831C51.2332 46.3058 50.885 46.5821 50.5755 46.9966C48.995 49.1463 46.7623 49.7819 43.8333 48.765C41.7499 48.0355 39.9704 46.8473 38.412 45.2944C37.4725 44.3605 36.5164 43.4376 35.5382 42.5478C34.549 41.647 33.4216 40.9617 32.134 40.5528C30.3987 39.9946 28.7187 40.1549 27.1437 41.0502C25.95 41.7299 25.2868 42.7799 25.2592 44.1891C25.2039 46.6815 25.9721 48.7484 28.0666 50.2903C29.719 51.5061 31.4598 52.5285 33.3995 53.1806C35.7482 53.9653 38.1246 54.6285 40.5783 55.0209C43.7007 55.5182 46.6408 56.5683 49.4039 58.1212C52.2003 59.6907 54.433 61.8515 56.1682 64.5318C57.6106 66.7589 58.1356 69.174 57.3398 71.7437C56.5606 74.2582 54.6098 75.4796 52.1616 75.9161C50.9348 76.1372 49.8129 75.5625 48.8292 74.8496C47.2155 73.678 46.2705 72.0808 45.9665 70.1024C45.7178 68.4887 45.4636 66.875 45.1984 65.2613C45.0381 64.2997 44.7507 63.3657 44.3473 62.4815C43.6289 60.9009 42.3578 60.0278 40.6391 59.8675C39.1636 59.7294 38.3512 60.4312 38.3125 61.9123C38.2849 63.0176 38.3512 64.1615 38.9204 65.1286C40.8878 68.45 41.2802 71.9979 40.6612 75.7448C40.1915 78.5909 39.6499 81.4149 38.2904 83.9791C35.8311 88.6434 32.1064 91.8432 27.0442 93.4569C21.2857 95.2917 15.7648 94.518 10.5092 91.7658C8.01682 90.4616 5.78969 88.6379 4.49099 86.1289C3.67308 84.5594 2.20859 83.1889 2.33017 81.1773C2.34122 80.9838 2.19754 80.7517 2.07596 80.5749C0.639097 78.5191 0.418041 76.2422 0.887784 73.8548C1.40726 71.2077 2.10912 68.6158 3.18124 66.1289C4.01572 64.1947 5.17073 62.5036 6.57996 60.9507C6.88391 60.6191 7.17129 60.6799 7.48076 60.5915C7.91735 60.9673 8.30972 61.3817 8.5971 61.8902C9.05026 62.7025 9.55869 63.4762 10.1832 64.167C10.36 64.3605 10.5092 64.7142 10.9624 64.5042C10.6695 63.9239 10.7413 63.3105 10.7524 62.6915C10.7579 62.2494 10.7634 61.8073 10.7248 61.3707C10.6308 60.2709 10.5811 60.2267 9.55316 60.5031C8.98394 60.6578 8.42578 60.6854 7.85656 60.5528L7.85103 60.5417ZM33.2779 87.1458L33.2227 87.1679L33.2669 87.1236C33.2779 87.096 33.2835 87.0684 33.2945 87.0408L33.2779 87.1458ZM8.06656 88.671C7.98367 88.5771 7.89524 88.4831 7.81235 88.3892C7.74603 88.3339 7.68524 88.2731 7.6134 88.2234C7.51392 88.1626 7.40892 88.1129 7.30945 88.0576C7.27629 88.2068 7.33155 88.3229 7.46971 88.3616C7.58577 88.3947 7.71287 88.3726 7.83445 88.3726C7.76814 88.6047 7.88972 88.6655 8.09419 88.6489C8.02235 88.8645 8.13288 88.9363 8.3263 88.9474C8.74631 89.8205 9.69685 90.1134 10.3324 90.7545C10.454 90.8816 10.8077 90.749 10.7855 90.6882C10.4098 89.7542 11.6532 89.71 11.6919 89.0247C10.8463 88.4389 10.0119 88.0797 9.07236 88.8534C8.90105 88.9916 8.56946 88.9363 8.30972 88.9695C8.3263 88.7982 8.1992 88.7374 8.07761 88.6766L8.06656 88.671ZM11.2111 91.0916C11.2553 90.9921 11.2387 90.9092 11.1448 90.8927C11.1061 90.8871 11.0563 90.9534 11.0121 90.9866C11.0895 91.0142 11.1613 91.0419 11.2387 91.0695C11.3106 91.3458 11.5371 91.3292 11.7527 91.3458C11.8024 91.484 11.9129 91.5448 12.0456 91.5337C12.1395 91.5227 12.1671 91.4232 12.1008 91.4011C11.9848 91.3679 11.8577 91.379 11.7361 91.3679C11.7085 91.0087 11.4542 91.0695 11.2166 91.0916H11.2111ZM11.4874 87.8863C11.504 88.0355 11.609 88.0853 11.7361 88.0853C11.7637 88.0853 11.7913 88.0079 11.8245 87.9692C11.7029 87.9526 11.5869 87.9305 11.4653 87.9139C11.3769 87.8476 11.2829 87.7813 11.1945 87.715C11.1779 87.7537 11.1558 87.7979 11.1392 87.8366C11.2553 87.8531 11.3713 87.8697 11.4874 87.8863ZM37.4669 64.8302C37.4504 64.7528 37.4338 64.6699 37.4227 64.5926L37.2901 64.6976C37.3564 64.7363 37.4283 64.7749 37.4946 64.8081C37.4835 65.0347 37.4835 65.2557 37.7543 65.3442C37.8372 72.6943 37.0248 79.8675 33.6372 86.56C34.5988 85.7697 35.2067 84.7473 35.6709 83.6586C37.8317 78.5854 38.6883 73.2745 38.412 67.7868C38.3733 66.9689 38.4285 66.035 37.7267 65.3663C37.7875 65.1176 37.793 64.891 37.4669 64.8357V64.8302ZM46.2539 23.4099L46.2207 23.3989L46.276 23.4099C46.2207 23.7139 46.16 24.0178 46.4031 24.4489C46.5192 23.9736 46.486 23.6752 46.2484 23.4099H46.2539ZM12.1285 65.3276C11.8521 65.0844 11.609 64.7639 11.1503 64.8799C11.2056 65.2944 11.4819 65.4271 11.7692 65.5431C12.0235 65.6923 12.1671 65.6647 12.1229 65.3276H12.1285ZM53.1287 24.7584C51.3824 24.9794 49.719 25.6923 47.9229 25.626C47.4587 25.6094 47.3592 25.9631 47.2266 26.2947C46.8452 27.295 46.3147 28.2013 45.635 29.0303C45.4084 29.3066 45.0934 29.5663 45.0547 29.9863C45.7455 30.1245 46.2373 29.8426 46.7236 29.5221C47.3205 29.1297 47.8234 28.6324 48.2766 28.0853C49.2216 26.9358 50.3379 26.046 51.7471 25.5155C52.2279 25.3331 52.7419 25.1507 53.1066 24.7418C53.184 24.7197 53.2835 24.7252 53.3332 24.6755C53.4051 24.6092 53.5708 24.8081 53.5598 24.5815C53.4824 24.5926 53.394 24.587 53.3222 24.6202C53.2503 24.6478 53.1895 24.7142 53.1287 24.7584ZM43.0762 20.7959C42.6894 20.6909 42.5291 21.0281 42.3357 21.2215C41.0923 22.4704 39.8709 23.7415 38.6385 24.996C38.2849 25.3552 38.0141 25.6647 38.4396 26.2063C38.738 26.5821 38.4949 27.0629 38.2793 27.4497C37.7322 28.4168 37.0469 29.2679 36.1075 29.8924C35.8809 30.0416 35.4996 30.0637 35.494 30.5445C36.2401 30.6992 36.9419 30.6882 37.6659 30.4063C38.0527 30.2516 38.3512 30.1024 38.5335 29.699C39.3017 27.9692 40.3241 26.3665 41.2138 24.6976C41.8936 23.421 42.6673 22.1886 43.0597 20.7738C43.0928 20.7517 43.1315 20.7352 43.1591 20.7075C43.1702 20.6965 43.1591 20.6578 43.1591 20.6302C43.0652 20.6302 43.0431 20.6854 43.0818 20.7904L43.0762 20.7959ZM34.6595 86.9247C33.9356 87.5713 33.2945 88.3118 32.4545 88.8147C31.9903 89.0966 31.5095 89.8813 31.0121 89.4226C30.3876 88.8479 31.2111 88.3229 31.5371 87.8808C33.6648 84.9849 35.063 81.7796 35.704 78.2428C35.914 77.0712 36.1185 75.8996 36.3064 74.7225C36.7319 72.1029 37.0304 69.4779 36.9862 66.8142C36.9696 65.8139 36.6601 65.0292 35.7261 64.5594C35.4996 64.8468 35.6322 65.1065 35.6819 65.3442C36.0356 67.1845 36.0301 69.0358 35.8753 70.8871C35.6709 73.3132 34.9967 75.6564 34.4772 78.0217C33.4161 82.8573 30.7966 86.8639 27.8952 90.7324C27.6079 91.1192 27.2487 91.4619 26.8729 91.7658C26.1379 92.3737 25.2868 92.7329 24.3141 92.6832C23.7947 92.6556 23.1481 92.7882 22.8718 92.2411C22.5789 91.6498 23.1868 91.3127 23.5073 90.9148C23.6455 90.7434 23.8278 90.6108 23.9715 90.445C25.3973 88.8755 26.9281 87.3889 27.945 85.5044C31.3603 79.1822 33.1232 72.4898 32.3606 65.2557C32.2058 63.8078 32.0677 62.3544 31.6145 60.9562C31.2884 59.9504 30.664 59.2707 29.4095 58.9114C30.0947 60.9286 30.57 62.802 30.9845 64.6865C31.7803 68.2897 31.8024 71.8598 30.664 75.4022C30.4097 76.198 30.1058 76.9883 29.9234 77.8062C28.6247 83.6918 24.922 88.0245 20.7551 92.0642C20.2909 92.5174 19.7328 92.7716 19.1083 92.8324C17.9533 92.9485 16.8259 92.7219 15.7151 92.4124C15.2674 92.2908 15.2674 91.9813 15.5272 91.7271C15.9306 91.3348 16.4059 91.0087 16.8701 90.6384C15.378 90.1245 15.3614 90.1079 14.3059 91.0861C13.8472 91.5116 13.3443 91.7382 12.6093 91.6221C12.7861 91.7824 12.8414 91.8487 12.9132 91.8929C13.0237 91.9592 13.1398 92.0256 13.2669 92.0698C17.572 93.6448 21.9267 94.0316 26.3755 92.6666C29.7521 91.6332 32.6811 89.9532 34.8585 87.1071C35.903 86.1897 36.6711 85.0678 37.2901 83.841C39.1304 80.1825 39.9207 76.2698 40.0478 72.2079C40.0865 71.0363 39.9151 69.8647 39.4288 68.7595C39.3238 69.0579 39.2907 69.3453 39.2796 69.6382C39.2243 71.6221 39.1691 73.6116 38.8043 75.5735C38.0583 79.5801 37.163 83.5426 34.643 86.9026L34.6595 86.9247ZM24.7563 79.7128C24.1041 79.5746 23.4465 79.6299 22.7999 79.663C20.9375 79.757 19.0917 79.6078 17.2459 79.4199C12.1064 78.9059 8.02235 76.303 4.36388 72.8987C3.16466 71.7824 3.08729 70.8374 3.78914 69.4226C4.46888 68.0521 4.89994 67.9747 6.02732 69.0358C6.09364 69.0966 6.15443 69.1574 6.22075 69.2182C9.22158 72.009 12.4048 74.5014 16.4777 75.568C19.368 76.3251 22.2804 76.7396 25.2592 76.2533C26.4363 76.0598 26.5523 75.9051 26.696 74.634C25.4968 74.518 24.3197 74.8164 23.1315 74.8109C17.3343 74.8109 12.4158 72.5008 7.95603 69.0192C7.14918 68.3892 6.51365 67.5879 5.98311 66.7147C5.56863 66.035 5.46363 65.311 5.79522 64.5594C6.3368 63.327 7.27629 63.1778 8.07209 64.2334C9.9179 66.6926 12.3164 68.4666 14.9745 69.92C18.4341 71.81 22.1036 72.0919 25.9057 71.2961C26.0771 71.2574 26.2484 71.2077 26.4197 71.169C26.9171 71.0584 27.0055 70.6992 26.9723 70.2626C26.9337 69.7376 26.5523 69.7984 26.1986 69.804C22.9602 69.8316 19.7438 69.6326 16.6048 68.7926C12.9685 67.8255 9.97317 65.9355 8.04446 62.592C7.83998 62.2328 7.7184 61.7631 7.18234 61.6249C6.1268 62.8849 5.15416 64.1726 4.44125 65.6592C3.24755 68.146 2.50702 70.7711 1.91569 73.4514C1.65595 74.6285 1.58964 75.8111 1.67806 77.0104C1.73885 77.8504 1.9378 78.6462 2.50702 79.4365C3.14255 78.5964 3.68414 78.9999 4.20362 79.4696C6.01627 81.0944 7.98367 82.5202 10.0008 83.8852C11.819 85.1176 13.803 85.9355 15.9361 86.4218C16.8922 86.6429 17.8648 86.6926 18.832 86.571C19.6443 86.4715 20.3573 86.1621 20.7275 85.2834C20.5396 85.195 20.3904 85.0789 20.2301 85.0623C18.6938 84.8799 17.2017 84.4544 15.6875 84.1449C11.095 83.1944 6.98339 81.2823 3.55703 77.9996C2.74465 77.2204 2.3578 76.3804 2.54017 75.2917C2.7336 74.1532 3.46861 73.8603 4.38599 74.5732C5.81732 75.6896 7.32603 76.6898 8.86789 77.6404C13.0237 80.1991 17.5775 81.4702 22.4131 81.7796C23.9383 81.8791 24.4026 81.437 24.7618 79.7128H24.7563ZM11.9074 90.2074C13.1508 91.1303 13.1729 91.1358 14.2119 90.1079C14.5269 89.7984 14.8088 89.4171 15.3172 89.4889C16.1019 89.5995 16.8922 89.7045 17.6604 89.8979C18.3014 90.0582 18.3456 90.445 17.8648 90.9534C17.583 91.2519 17.1077 91.3569 16.9475 91.799C18.7214 92.4456 20.0588 91.8764 21.2581 90.5721C23.1481 88.5218 24.9386 86.3997 26.4473 84.051C27.2376 82.8186 27.945 81.5531 28.3705 80.1438C28.8679 78.497 29.3487 76.8446 29.8571 75.2032C30.9182 71.7824 30.8684 68.3395 30.1279 64.8689C29.6913 62.8352 29.1332 60.8457 28.4921 58.8728C28.3705 58.508 28.155 58.0825 28.5474 57.7675C28.9287 57.4635 29.2989 57.7675 29.6526 57.9222C31.3382 58.6793 32.3882 59.9062 32.7198 61.7796C33.6372 66.9302 33.709 72.0035 32.2445 77.1098C30.6805 82.5533 28.4479 87.5547 24.2312 91.4895C24.1373 91.5779 24.0986 91.6995 24.2312 91.8542C25.6018 91.9427 26.5247 91.1469 27.3205 90.1632C28.6303 88.5495 29.6913 86.7589 30.8021 85.0071C32.7308 81.962 33.5045 78.508 34.3003 75.0706C34.8695 72.6114 35.2288 70.1245 35.074 67.5879C34.9801 66.035 34.6595 64.5318 34.1124 63.0728C34.0019 62.7799 33.9466 62.4483 34.3114 62.266C34.5988 62.1223 34.8198 62.3268 35.0077 62.5036C35.4222 62.896 35.8146 63.3215 36.2346 63.7139C36.4998 63.9626 36.7154 64.3107 37.1796 64.3881C35.3669 60.0554 29.8516 56.3748 25.6239 55.7504C25.7289 55.9825 25.8173 56.1759 25.9057 56.3693C26.8342 58.4638 27.8897 60.4975 28.586 62.7025C30.0008 67.1845 29.8737 71.6774 28.6966 76.1483C28.1495 78.2317 27.2763 80.2378 26.3202 82.1775C25.2813 84.2831 24.1152 86.3113 22.3246 87.9029C20.9762 89.1021 19.4786 89.7984 17.6051 89.4724C16.6933 89.3176 15.7703 89.2016 14.8751 88.9584C14.2009 88.776 13.5377 88.5771 12.67 88.3284C13.0072 89.3121 12.2224 89.6492 11.9019 90.224L11.9074 90.2074ZM9.29895 59.4972C9.69685 59.4641 9.84606 59.4917 9.95106 59.4365C11.0563 58.8728 11.2553 59.4143 11.4542 60.3317C11.6587 61.2823 11.7416 62.2439 11.6698 63.2276C11.62 63.9349 12.9077 64.9352 13.604 64.8081C13.908 64.7528 14.024 64.5097 14.1345 64.272C14.4109 63.6697 14.5988 63.0341 14.6761 62.371C14.8198 61.0557 14.5822 59.8399 13.919 58.6793C13.3332 57.6625 13.5156 57.3033 14.6485 56.9938C16.0522 56.6125 16.6767 56.8722 17.373 58.1433C17.6272 58.613 17.782 59.1104 17.9091 59.6299C18.3291 61.3154 17.9643 62.9678 17.7433 64.6202C17.5664 65.9355 17.7156 66.1731 18.9757 66.3997C19.3901 66.4715 19.6499 66.3997 19.7549 65.9465C20.313 63.4652 20.7109 60.9949 19.5338 58.5688C19.263 58.0162 18.9922 57.4525 18.7988 56.8722C18.5667 56.1925 18.7767 55.9051 19.5007 55.7614C20.838 55.5017 21.6117 55.8388 22.2141 57.0712C22.7944 58.2593 23.2089 59.5194 23.4354 60.8291C23.8278 63.0839 24.1705 65.3442 24.2644 67.6542C24.502 67.6542 24.6789 67.6818 24.8392 67.6542C26.0936 67.3889 26.1489 67.3281 25.95 66.0792C25.74 64.7749 25.5244 63.4652 25.2481 62.1775C24.7894 60.0609 24.082 58.0217 23.126 56.0709C22.7723 55.3414 22.3136 54.9767 21.4017 54.9656C18.1191 54.9269 15.168 56.0211 12.2998 57.4304C11.2719 57.9333 10.3213 58.5578 9.30447 59.5083L9.29895 59.4972ZM3.47966 75.1369C3.20887 75.9769 3.29729 76.6401 3.89967 77.1651C5.66258 78.7125 7.46971 80.1936 9.61395 81.2049C11.6642 82.172 13.814 82.8186 16.019 83.2994C17.5277 83.6255 19.0475 83.8962 20.5562 84.2334C21.7333 84.4931 21.9654 85.1784 21.247 86.151C21.0094 86.4771 20.6999 86.7202 20.3517 86.9247C19.4786 87.4442 18.5225 87.5492 17.5388 87.4773C14.8861 87.2784 12.449 86.4108 10.2108 84.996C8.07762 83.6531 6.01627 82.2052 4.13177 80.5196C3.89414 80.3096 3.68414 80.0057 3.31387 80.0167C3.04308 80.6246 3.46308 80.912 3.75045 81.216C7.67419 85.3773 12.4048 87.9802 18.1412 88.671C19.0309 88.776 19.8101 88.5826 20.5396 88.135C22.8607 86.7092 24.1981 84.482 25.3586 82.1223C25.436 81.9675 25.4857 81.7741 25.2923 81.6636C25.121 81.5641 24.9386 81.636 24.8336 81.7852C24.2147 82.7081 23.2697 82.6694 22.3357 82.6362C20.5175 82.5699 18.738 82.2494 16.9696 81.8625C12.3882 80.8567 8.4092 78.6185 4.68441 75.8664C4.34178 75.6122 4.05993 75.253 3.49071 75.1314L3.47966 75.1369ZM63.1978 26.9689C61.9323 28.0853 60.5783 28.9861 59.6333 30.3566C58.6883 31.7327 57.7322 33.1308 56.3396 34.1256C55.9693 34.3909 55.9417 34.7943 55.8422 35.1701C55.5327 36.314 55.3614 37.5243 54.8032 38.5743C54.444 39.2486 54.3998 39.862 54.5269 40.6523C56.5827 39.3812 58.5612 38.1599 60.5341 36.9275C61.4349 36.3693 62.3191 35.778 63.1094 35.0706C64.082 34.203 64.5076 33.164 64.0212 31.8708C63.9107 31.5835 63.8389 31.2795 63.7283 30.9921C63.242 29.71 62.706 28.4389 63.1923 26.9744L63.1978 26.9689ZM5.01047 69.3011C4.00467 70.6605 4.01572 71.39 5.16521 72.4511C7.18234 74.3245 9.45369 75.8498 11.935 77.038C13.2116 77.6514 14.5601 78.077 15.9638 78.2925C18.3678 78.6628 20.7773 78.9004 23.2144 78.7567C23.5681 78.7346 23.9218 78.7457 24.2755 78.7401C25.7676 78.7125 25.8947 78.8507 25.6681 80.2986C25.6405 80.4809 25.6184 80.6412 25.7952 80.7517C26.5247 79.9394 27.6576 76.9993 27.6742 75.7117C26.9337 76.6954 26.0163 77.132 24.922 77.2093C23.2918 77.3309 21.6615 77.3641 20.0312 77.1706C15.0961 76.5848 10.7966 74.634 7.15471 71.2353C6.45286 70.5777 5.7289 69.9476 5.00494 69.3011H5.01047ZM14.7424 58.0217C14.7314 58.0659 14.6982 58.1157 14.7148 58.1488C14.8364 58.4307 14.9745 58.7014 15.1017 58.9833C15.9527 60.9286 15.8146 62.8573 14.9303 64.7418C14.4661 65.731 14.1622 65.8526 13.0514 65.6536C12.8193 65.6094 12.5429 65.4602 12.3329 65.9521C15.8256 68.3063 19.777 68.7097 23.8886 68.7595C23.4465 68.3118 23.3747 67.7924 23.3691 67.2618C23.3415 65.0457 22.8994 62.8794 22.5457 60.702C22.3633 59.5636 21.9544 58.4859 21.4625 57.447C21.1254 56.7396 20.6059 56.3362 19.7328 56.6567C19.7328 57.2148 20.0533 57.6514 20.2854 58.1101C20.943 59.4033 21.1917 60.7683 21.1475 62.2107C21.1144 63.316 21.0149 64.4102 20.7828 65.4934C20.3462 67.5602 20.0146 67.7426 17.9864 66.991C16.848 66.5655 16.6877 66.3389 16.8093 65.1231C16.9088 64.1118 17.0801 63.1115 17.1796 62.1002C17.3012 60.8954 17.1685 59.7183 16.6159 58.6241C16.1296 57.657 15.9251 57.6127 14.7369 58.0217H14.7424ZM42.811 31.2408C41.6725 30.7656 40.1528 30.8374 40.0533 29.0303C39.4675 29.3895 39.2851 29.92 39.1691 30.3898C38.7491 32.1416 38.4009 33.9101 38.0527 35.6785C37.9864 36.0156 38.0196 36.3804 38.0472 36.7341C38.097 37.3641 38.4672 37.657 39.0862 37.6956C39.987 37.7509 40.5949 37.3696 40.8767 36.2919C41.2967 34.7059 41.877 33.2027 42.6507 31.7603C42.7281 31.6111 42.7557 31.4342 42.8165 31.2408H42.811ZM56.1185 45.4713C55.9472 45.4436 55.7703 45.3994 55.599 45.3939C54.6264 45.3607 53.7808 45.7255 53.0127 46.2671C52.764 46.4439 52.5761 46.7479 52.7916 47.0684C52.9519 47.3116 53.2006 47.1347 53.394 47.0684C54.3943 46.7423 55.3061 46.245 56.124 45.4657L56.1185 45.4713ZM34.3501 29.489C36.0246 29.2624 37.1133 28.2345 37.4835 26.5931C36.3561 27.3337 35.3282 28.1847 34.3501 29.489ZM10.8408 87.5768C9.69685 86.9302 8.84026 86.4439 7.99472 85.9686C7.71287 86.2892 7.8013 86.6097 7.76814 86.886C7.69629 87.4497 8.1992 87.6984 8.54736 88.0024C8.85684 88.2676 9.11658 87.9747 9.34316 87.7924C9.69132 87.5105 10.1058 87.5547 10.8353 87.5768H10.8408ZM3.72835 82.581C4.02125 83.9349 4.83363 84.7197 6.45286 84.9684C5.40837 84.051 4.56836 83.316 3.72835 82.581ZM6.78444 87.6597C6.94471 86.0736 6.76233 85.8636 5.1431 85.72C5.69022 86.3831 6.06601 87.1126 6.78444 87.6597ZM42.9712 30.1853C42.4665 29.8169 41.9267 29.6842 41.352 29.7874C41.877 30.1355 42.391 30.2571 42.9712 30.1853ZM59.8765 25.615C59.7936 26.14 59.6167 26.6981 60.1859 27.1955C60.2357 26.5765 60.3241 26.0571 59.8765 25.615ZM27.9395 75.5293C28.0776 75.2309 27.8787 75.2253 27.8068 75.1369C27.7405 75.2419 27.6631 75.3414 27.6023 75.4519C27.5029 75.6398 27.7129 75.6398 27.7792 75.7227C27.8566 75.6232 27.9339 75.5293 27.9339 75.5238L27.9395 75.5293ZM12.4269 88.345L12.4821 88.2787L12.3827 88.2676L12.4269 88.345ZM6.67944 85.1065C6.65181 85.0789 6.61865 85.0292 6.59102 85.0292C6.55786 85.0292 6.5247 85.0734 6.49707 85.0955C6.5247 85.1231 6.55786 85.1728 6.58549 85.1728C6.61865 85.1728 6.65181 85.1286 6.67944 85.1065Z" fill="#4C4C4C"/>
</g>
<defs>
<clipPath id="clip0_49_4022">
<rect width="100" height="100" fill="white" transform="translate(0.666748)"/>
</clipPath>
</defs>
</svg>
